solid OpenSCAD_Model
  facet normal -0.471396 0.881922 0
    outer loop
      vertex -1.53073 3.69552 -5
      vertex -2.22228 3.32588 5
      vertex -1.53073 3.69552 5
    endloop
  endfacet
  facet normal -0.471396 0.881922 0
    outer loop
      vertex -2.22228 3.32588 5
      vertex -1.53073 3.69552 -5
      vertex -2.22228 3.32588 -5
    endloop
  endfacet
  facet normal 0.471396 0.881922 -0
    outer loop
      vertex 2.22228 3.32588 -5
      vertex 1.53073 3.69552 5
      vertex 2.22228 3.32588 5
    endloop
  endfacet
  facet normal 0.471396 0.881922 0
    outer loop
      vertex 1.53073 3.69552 5
      vertex 2.22228 3.32588 -5
      vertex 1.53073 3.69552 -5
    endloop
  endfacet
  facet normal 0.956941 0.290282 0
    outer loop
      vertex 3.92314 0.780361 5
      vertex 3.69552 1.53073 -5
      vertex 3.69552 1.53073 5
    endloop
  endfacet
  facet normal 0.956941 0.290282 0
    outer loop
      vertex 3.69552 1.53073 -5
      vertex 3.92314 0.780361 5
      vertex 3.92314 0.780361 -5
    endloop
  endfacet
  facet normal 0.995185 0.0980186 0
    outer loop
      vertex 4 0 5
      vertex 3.92314 0.780361 -5
      vertex 3.92314 0.780361 5
    endloop
  endfacet
  facet normal 0.995185 0.0980186 0
    outer loop
      vertex 3.92314 0.780361 -5
      vertex 4 0 5
      vertex 4 0 -5
    endloop
  endfacet
  facet normal 0.881922 0.471396 0
    outer loop
      vertex 3.69552 1.53073 5
      vertex 3.32588 2.22228 -5
      vertex 3.32588 2.22228 5
    endloop
  endfacet
  facet normal 0.881922 0.471396 0
    outer loop
      vertex 3.32588 2.22228 -5
      vertex 3.69552 1.53073 5
      vertex 3.69552 1.53073 -5
    endloop
  endfacet
  facet normal 0.0980186 0.995185 -0
    outer loop
      vertex 0.780361 3.92314 -5
      vertex 0 4 5
      vertex 0.780361 3.92314 5
    endloop
  endfacet
  facet normal 0.0980186 0.995185 0
    outer loop
      vertex 0 4 5
      vertex 0.780361 3.92314 -5
      vertex 0 4 -5
    endloop
  endfacet
  facet normal 0.0980186 -0.995185 0
    outer loop
      vertex 0 -4 -5
      vertex 0.780361 -3.92314 5
      vertex 0 -4 5
    endloop
  endfacet
  facet normal 0.0980186 -0.995185 0
    outer loop
      vertex 0.780361 -3.92314 5
      vertex 0 -4 -5
      vertex 0.780361 -3.92314 -5
    endloop
  endfacet
  facet normal 0.290282 0.956941 -0
    outer loop
      vertex 1.53073 3.69552 -5
      vertex 0.780361 3.92314 5
      vertex 1.53073 3.69552 5
    endloop
  endfacet
  facet normal 0.290282 0.956941 0
    outer loop
      vertex 0.780361 3.92314 5
      vertex 1.53073 3.69552 -5
      vertex 0.780361 3.92314 -5
    endloop
  endfacet
  facet normal 0.63439 0.773013 -0
    outer loop
      vertex 2.82843 2.82843 -5
      vertex 2.22228 3.32588 5
      vertex 2.82843 2.82843 5
    endloop
  endfacet
  facet normal 0.63439 0.773013 0
    outer loop
      vertex 2.22228 3.32588 5
      vertex 2.82843 2.82843 -5
      vertex 2.22228 3.32588 -5
    endloop
  endfacet
  facet normal 0.773013 -0.63439 0
    outer loop
      vertex 2.82843 -2.82843 5
      vertex 3.32588 -2.22228 -5
      vertex 3.32588 -2.22228 5
    endloop
  endfacet
  facet normal 0.773013 -0.63439 0
    outer loop
      vertex 3.32588 -2.22228 -5
      vertex 2.82843 -2.82843 5
      vertex 2.82843 -2.82843 -5
    endloop
  endfacet
  facet normal -0.63439 0.773013 0
    outer loop
      vertex -2.22228 3.32588 -5
      vertex -2.82843 2.82843 5
      vertex -2.22228 3.32588 5
    endloop
  endfacet
  facet normal -0.63439 0.773013 0
    outer loop
      vertex -2.82843 2.82843 5
      vertex -2.22228 3.32588 -5
      vertex -2.82843 2.82843 -5
    endloop
  endfacet
  facet normal 0.471396 -0.881922 0
    outer loop
      vertex 1.53073 -3.69552 -5
      vertex 2.22228 -3.32588 5
      vertex 1.53073 -3.69552 5
    endloop
  endfacet
  facet normal 0.471396 -0.881922 0
    outer loop
      vertex 2.22228 -3.32588 5
      vertex 1.53073 -3.69552 -5
      vertex 2.22228 -3.32588 -5
    endloop
  endfacet
  facet normal -0.881922 -0.471396 0
    outer loop
      vertex -3.32588 -2.22228 -5
      vertex -3.69552 -1.53073 5
      vertex -3.69552 -1.53073 -5
    endloop
  endfacet
  facet normal -0.881922 -0.471396 0
    outer loop
      vertex -3.69552 -1.53073 5
      vertex -3.32588 -2.22228 -5
      vertex -3.32588 -2.22228 5
    endloop
  endfacet
  facet normal 0.995185 -0.0980186 0
    outer loop
      vertex 3.92314 -0.780361 5
      vertex 4 0 -5
      vertex 4 0 5
    endloop
  endfacet
  facet normal 0.995185 -0.0980186 0
    outer loop
      vertex 4 0 -5
      vertex 3.92314 -0.780361 5
      vertex 3.92314 -0.780361 -5
    endloop
  endfacet
  facet normal -0.290282 0.956941 0
    outer loop
      vertex -0.780361 3.92314 -5
      vertex -1.53073 3.69552 5
      vertex -0.780361 3.92314 5
    endloop
  endfacet
  facet normal -0.290282 0.956941 0
    outer loop
      vertex -1.53073 3.69552 5
      vertex -0.780361 3.92314 -5
      vertex -1.53073 3.69552 -5
    endloop
  endfacet
  facet normal -0.0980186 -0.995185 0
    outer loop
      vertex -0.780361 -3.92314 -5
      vertex 0 -4 5
      vertex -0.780361 -3.92314 5
    endloop
  endfacet
  facet normal -0.0980186 -0.995185 -0
    outer loop
      vertex 0 -4 5
      vertex -0.780361 -3.92314 -5
      vertex 0 -4 -5
    endloop
  endfacet
  facet normal 0 0 -1
    outer loop
      vertex 2 0 -5
      vertex 4 0 -5
      vertex 3.92314 -0.780361 -5
    endloop
  endfacet
  facet normal 0 0 -1
    outer loop
      vertex 1.96157 -0.390181 -5
      vertex 3.92314 -0.780361 -5
      vertex 3.69552 -1.53073 -5
    endloop
  endfacet
  facet normal 0 0 -1
    outer loop
      vertex 4 0 -5
      vertex 2 0 -5
      vertex 3.92314 0.780361 -5
    endloop
  endfacet
  facet normal 0 0 -1
    outer loop
      vertex 1.84776 -0.765367 -5
      vertex 3.69552 -1.53073 -5
      vertex 3.32588 -2.22228 -5
    endloop
  endfacet
  facet normal 0 0 -1
    outer loop
      vertex 1.96157 0.390181 -5
      vertex 3.92314 0.780361 -5
      vertex 2 0 -5
    endloop
  endfacet
  facet normal 0 0 -1
    outer loop
      vertex 1.66294 -1.11114 -5
      vertex 3.32588 -2.22228 -5
      vertex 2.82843 -2.82843 -5
    endloop
  endfacet
  facet normal -0 0 -1
    outer loop
      vertex 3.92314 0.780361 -5
      vertex 1.96157 0.390181 -5
      vertex 3.69552 1.53073 -5
    endloop
  endfacet
  facet normal 0 0 -1
    outer loop
      vertex 1.41421 -1.41421 -5
      vertex 2.82843 -2.82843 -5
      vertex 2.22228 -3.32588 -5
    endloop
  endfacet
  facet normal 0 0 -1
    outer loop
      vertex 1.84776 0.765367 -5
      vertex 3.69552 1.53073 -5
      vertex 1.96157 0.390181 -5
    endloop
  endfacet
  facet normal -0 0 -1
    outer loop
      vertex 3.69552 1.53073 -5
      vertex 1.84776 0.765367 -5
      vertex 3.32588 2.22228 -5
    endloop
  endfacet
  facet normal 0 0 -1
    outer loop
      vertex 3.92314 -0.780361 -5
      vertex 1.96157 -0.390181 -5
      vertex 2 0 -5
    endloop
  endfacet
  facet normal 0 0 -1
    outer loop
      vertex 3.69552 -1.53073 -5
      vertex 1.84776 -0.765367 -5
      vertex 1.96157 -0.390181 -5
    endloop
  endfacet
  facet normal 0 0 -1
    outer loop
      vertex 3.32588 -2.22228 -5
      vertex 1.66294 -1.11114 -5
      vertex 1.84776 -0.765367 -5
    endloop
  endfacet
  facet normal 0 0 -1
    outer loop
      vertex 1.11114 -1.66294 -5
      vertex 2.22228 -3.32588 -5
      vertex 1.53073 -3.69552 -5
    endloop
  endfacet
  facet normal 0 0 -1
    outer loop
      vertex 2.82843 -2.82843 -5
      vertex 1.41421 -1.41421 -5
      vertex 1.66294 -1.11114 -5
    endloop
  endfacet
  facet normal 0 0 -1
    outer loop
      vertex 2.22228 -3.32588 -5
      vertex 1.11114 -1.66294 -5
      vertex 1.41421 -1.41421 -5
    endloop
  endfacet
  facet normal 0 0 -1
    outer loop
      vertex 0.765367 -1.84776 -5
      vertex 1.53073 -3.69552 -5
      vertex 0.780361 -3.92314 -5
    endloop
  endfacet
  facet normal 0 0 -1
    outer loop
      vertex 1.53073 -3.69552 -5
      vertex 0.765367 -1.84776 -5
      vertex 1.11114 -1.66294 -5
    endloop
  endfacet
  facet normal 0 0 -1
    outer loop
      vertex 0.780361 -3.92314 -5
      vertex 0.390181 -1.96157 -5
      vertex 0.765367 -1.84776 -5
    endloop
  endfacet
  facet normal 0 0 -1
    outer loop
      vertex 0 -4 -5
      vertex 0.390181 -1.96157 -5
      vertex 0.780361 -3.92314 -5
    endloop
  endfacet
  facet normal 0 0 -1
    outer loop
      vertex 0 -4 -5
      vertex 0 -2 -5
      vertex 0.390181 -1.96157 -5
    endloop
  endfacet
  facet normal 0 0 -1
    outer loop
      vertex 0 -4 -5
      vertex -0.390181 -1.96157 -5
      vertex 0 -2 -5
    endloop
  endfacet
  facet normal 0 0 -1
    outer loop
      vertex -0.780361 -3.92314 -5
      vertex -0.390181 -1.96157 -5
      vertex 0 -4 -5
    endloop
  endfacet
  facet normal -0 0 -1
    outer loop
      vertex -0.390181 -1.96157 -5
      vertex -0.780361 -3.92314 -5
      vertex -0.765367 -1.84776 -5
    endloop
  endfacet
  facet normal 0 0 -1
    outer loop
      vertex -1.53073 -3.69552 -5
      vertex -0.765367 -1.84776 -5
      vertex -0.780361 -3.92314 -5
    endloop
  endfacet
  facet normal -0 0 -1
    outer loop
      vertex -0.765367 -1.84776 -5
      vertex -1.53073 -3.69552 -5
      vertex -1.11114 -1.66294 -5
    endloop
  endfacet
  facet normal 0 0 -1
    outer loop
      vertex -2.22228 -3.32588 -5
      vertex -1.11114 -1.66294 -5
      vertex -1.53073 -3.69552 -5
    endloop
  endfacet
  facet normal -0 0 -1
    outer loop
      vertex -1.11114 -1.66294 -5
      vertex -2.22228 -3.32588 -5
      vertex -1.41421 -1.41421 -5
    endloop
  endfacet
  facet normal 0 0 -1
    outer loop
      vertex -2.82843 -2.82843 -5
      vertex -1.41421 -1.41421 -5
      vertex -2.22228 -3.32588 -5
    endloop
  endfacet
  facet normal -0 0 -1
    outer loop
      vertex -1.41421 -1.41421 -5
      vertex -2.82843 -2.82843 -5
      vertex -1.66294 -1.11114 -5
    endloop
  endfacet
  facet normal -0 0 -1
    outer loop
      vertex -1.66294 -1.11114 -5
      vertex -3.32588 -2.22228 -5
      vertex -1.84776 -0.765367 -5
    endloop
  endfacet
  facet normal 0 0 -1
    outer loop
      vertex -3.32588 -2.22228 -5
      vertex -1.66294 -1.11114 -5
      vertex -2.82843 -2.82843 -5
    endloop
  endfacet
  facet normal 0 0 -1
    outer loop
      vertex 1.66294 1.11114 -5
      vertex 3.32588 2.22228 -5
      vertex 1.84776 0.765367 -5
    endloop
  endfacet
  facet normal -0 0 -1
    outer loop
      vertex 3.32588 2.22228 -5
      vertex 1.66294 1.11114 -5
      vertex 2.82843 2.82843 -5
    endloop
  endfacet
  facet normal 0 0 -1
    outer loop
      vertex 1.41421 1.41421 -5
      vertex 2.82843 2.82843 -5
      vertex 1.66294 1.11114 -5
    endloop
  endfacet
  facet normal -0 0 -1
    outer loop
      vertex 2.82843 2.82843 -5
      vertex 1.41421 1.41421 -5
      vertex 2.22228 3.32588 -5
    endloop
  endfacet
  facet normal 0 0 -1
    outer loop
      vertex 1.11114 1.66294 -5
      vertex 2.22228 3.32588 -5
      vertex 1.41421 1.41421 -5
    endloop
  endfacet
  facet normal -0 0 -1
    outer loop
      vertex 2.22228 3.32588 -5
      vertex 1.11114 1.66294 -5
      vertex 1.53073 3.69552 -5
    endloop
  endfacet
  facet normal 0 0 -1
    outer loop
      vertex 0.765367 1.84776 -5
      vertex 1.53073 3.69552 -5
      vertex 1.11114 1.66294 -5
    endloop
  endfacet
  facet normal -0 0 -1
    outer loop
      vertex 1.53073 3.69552 -5
      vertex 0.765367 1.84776 -5
      vertex 0.780361 3.92314 -5
    endloop
  endfacet
  facet normal 0 0 -1
    outer loop
      vertex 0.390181 1.96157 -5
      vertex 0.780361 3.92314 -5
      vertex 0.765367 1.84776 -5
    endloop
  endfacet
  facet normal 0 0 -1
    outer loop
      vertex 0 2 -5
      vertex 0.780361 3.92314 -5
      vertex 0.390181 1.96157 -5
    endloop
  endfacet
  facet normal 0 0 -1
    outer loop
      vertex 0 2 -5
      vertex 0 4 -5
      vertex 0.780361 3.92314 -5
    endloop
  endfacet
  facet normal 0 0 -1
    outer loop
      vertex -0.390181 1.96157 -5
      vertex 0 4 -5
      vertex 0 2 -5
    endloop
  endfacet
  facet normal 0 0 -1
    outer loop
      vertex -0.780361 3.92314 -5
      vertex -0.390181 1.96157 -5
      vertex -0.765367 1.84776 -5
    endloop
  endfacet
  facet normal 0 0 -1
    outer loop
      vertex -0.390181 1.96157 -5
      vertex -0.780361 3.92314 -5
      vertex 0 4 -5
    endloop
  endfacet
  facet normal 0 0 -1
    outer loop
      vertex -1.53073 3.69552 -5
      vertex -0.765367 1.84776 -5
      vertex -1.11114 1.66294 -5
    endloop
  endfacet
  facet normal 0 0 -1
    outer loop
      vertex -2.22228 3.32588 -5
      vertex -1.11114 1.66294 -5
      vertex -1.41421 1.41421 -5
    endloop
  endfacet
  facet normal 0 0 -1
    outer loop
      vertex -0.765367 1.84776 -5
      vertex -1.53073 3.69552 -5
      vertex -0.780361 3.92314 -5
    endloop
  endfacet
  facet normal 0 0 -1
    outer loop
      vertex -2.82843 2.82843 -5
      vertex -1.41421 1.41421 -5
      vertex -1.66294 1.11114 -5
    endloop
  endfacet
  facet normal 0 0 -1
    outer loop
      vertex -3.32588 2.22228 -5
      vertex -1.66294 1.11114 -5
      vertex -1.84776 0.765367 -5
    endloop
  endfacet
  facet normal 0 0 -1
    outer loop
      vertex -3.69552 1.53073 -5
      vertex -1.84776 0.765367 -5
      vertex -1.96157 0.390181 -5
    endloop
  endfacet
  facet normal 0 0 -1
    outer loop
      vertex -1.11114 1.66294 -5
      vertex -2.22228 3.32588 -5
      vertex -1.53073 3.69552 -5
    endloop
  endfacet
  facet normal 0 0 -1
    outer loop
      vertex -3.92314 0.780361 -5
      vertex -1.96157 0.390181 -5
      vertex -2 0 -5
    endloop
  endfacet
  facet normal 0 0 -1
    outer loop
      vertex -3.69552 -1.53073 -5
      vertex -1.84776 -0.765367 -5
      vertex -3.32588 -2.22228 -5
    endloop
  endfacet
  facet normal -0 0 -1
    outer loop
      vertex -1.84776 -0.765367 -5
      vertex -3.69552 -1.53073 -5
      vertex -1.96157 -0.390181 -5
    endloop
  endfacet
  facet normal 0 0 -1
    outer loop
      vertex -1.41421 1.41421 -5
      vertex -2.82843 2.82843 -5
      vertex -2.22228 3.32588 -5
    endloop
  endfacet
  facet normal 0 0 -1
    outer loop
      vertex -3.92314 -0.780361 -5
      vertex -1.96157 -0.390181 -5
      vertex -3.69552 -1.53073 -5
    endloop
  endfacet
  facet normal 0 0 -1
    outer loop
      vertex -1.66294 1.11114 -5
      vertex -3.32588 2.22228 -5
      vertex -2.82843 2.82843 -5
    endloop
  endfacet
  facet normal -0 0 -1
    outer loop
      vertex -1.96157 -0.390181 -5
      vertex -3.92314 -0.780361 -5
      vertex -2 0 -5
    endloop
  endfacet
  facet normal 0 0 -1
    outer loop
      vertex -1.84776 0.765367 -5
      vertex -3.69552 1.53073 -5
      vertex -3.32588 2.22228 -5
    endloop
  endfacet
  facet normal 0 0 -1
    outer loop
      vertex -4 0 -5
      vertex -2 0 -5
      vertex -3.92314 -0.780361 -5
    endloop
  endfacet
  facet normal 0 0 -1
    outer loop
      vertex -1.96157 0.390181 -5
      vertex -3.92314 0.780361 -5
      vertex -3.69552 1.53073 -5
    endloop
  endfacet
  facet normal 0 0 -1
    outer loop
      vertex -2 0 -5
      vertex -4 0 -5
      vertex -3.92314 0.780361 -5
    endloop
  endfacet
  facet normal -0.881922 0.471396 0
    outer loop
      vertex -3.69552 1.53073 -5
      vertex -3.32588 2.22228 5
      vertex -3.32588 2.22228 -5
    endloop
  endfacet
  facet normal -0.881922 0.471396 0
    outer loop
      vertex -3.32588 2.22228 5
      vertex -3.69552 1.53073 -5
      vertex -3.69552 1.53073 5
    endloop
  endfacet
  facet normal 0.290282 -0.956941 0
    outer loop
      vertex 0.780361 -3.92314 -5
      vertex 1.53073 -3.69552 5
      vertex 0.780361 -3.92314 5
    endloop
  endfacet
  facet normal 0.290282 -0.956941 0
    outer loop
      vertex 1.53073 -3.69552 5
      vertex 0.780361 -3.92314 -5
      vertex 1.53073 -3.69552 -5
    endloop
  endfacet
  facet normal 0 0 1
    outer loop
      vertex 2 0 5
      vertex 4 0 5
      vertex 3.92314 0.780361 5
    endloop
  endfacet
  facet normal 0 0 1
    outer loop
      vertex 1.96157 0.390181 5
      vertex 3.92314 0.780361 5
      vertex 3.69552 1.53073 5
    endloop
  endfacet
  facet normal 0 0 1
    outer loop
      vertex 4 0 5
      vertex 2 0 5
      vertex 3.92314 -0.780361 5
    endloop
  endfacet
  facet normal 0 0 1
    outer loop
      vertex 1.84776 0.765367 5
      vertex 3.69552 1.53073 5
      vertex 3.32588 2.22228 5
    endloop
  endfacet
  facet normal -0 0 1
    outer loop
      vertex 1.96157 -0.390181 5
      vertex 3.92314 -0.780361 5
      vertex 2 0 5
    endloop
  endfacet
  facet normal 0 0 1
    outer loop
      vertex 1.66294 1.11114 5
      vertex 3.32588 2.22228 5
      vertex 2.82843 2.82843 5
    endloop
  endfacet
  facet normal 0 0 1
    outer loop
      vertex 3.92314 -0.780361 5
      vertex 1.96157 -0.390181 5
      vertex 3.69552 -1.53073 5
    endloop
  endfacet
  facet normal 0 0 1
    outer loop
      vertex 1.41421 1.41421 5
      vertex 2.82843 2.82843 5
      vertex 2.22228 3.32588 5
    endloop
  endfacet
  facet normal -0 0 1
    outer loop
      vertex 1.84776 -0.765367 5
      vertex 3.69552 -1.53073 5
      vertex 1.96157 -0.390181 5
    endloop
  endfacet
  facet normal 0 0 1
    outer loop
      vertex 3.69552 -1.53073 5
      vertex 1.84776 -0.765367 5
      vertex 3.32588 -2.22228 5
    endloop
  endfacet
  facet normal 0 0 1
    outer loop
      vertex 3.92314 0.780361 5
      vertex 1.96157 0.390181 5
      vertex 2 0 5
    endloop
  endfacet
  facet normal 0 0 1
    outer loop
      vertex 3.69552 1.53073 5
      vertex 1.84776 0.765367 5
      vertex 1.96157 0.390181 5
    endloop
  endfacet
  facet normal 0 0 1
    outer loop
      vertex 3.32588 2.22228 5
      vertex 1.66294 1.11114 5
      vertex 1.84776 0.765367 5
    endloop
  endfacet
  facet normal 0 0 1
    outer loop
      vertex 1.11114 1.66294 5
      vertex 2.22228 3.32588 5
      vertex 1.53073 3.69552 5
    endloop
  endfacet
  facet normal 0 0 1
    outer loop
      vertex 2.82843 2.82843 5
      vertex 1.41421 1.41421 5
      vertex 1.66294 1.11114 5
    endloop
  endfacet
  facet normal 0 0 1
    outer loop
      vertex 2.22228 3.32588 5
      vertex 1.11114 1.66294 5
      vertex 1.41421 1.41421 5
    endloop
  endfacet
  facet normal 0 0 1
    outer loop
      vertex 0.765367 1.84776 5
      vertex 1.53073 3.69552 5
      vertex 0.780361 3.92314 5
    endloop
  endfacet
  facet normal 0 0 1
    outer loop
      vertex 1.53073 3.69552 5
      vertex 0.765367 1.84776 5
      vertex 1.11114 1.66294 5
    endloop
  endfacet
  facet normal 0 0 1
    outer loop
      vertex 0.780361 3.92314 5
      vertex 0.390181 1.96157 5
      vertex 0.765367 1.84776 5
    endloop
  endfacet
  facet normal 0 0 1
    outer loop
      vertex 0 4 5
      vertex 0.390181 1.96157 5
      vertex 0.780361 3.92314 5
    endloop
  endfacet
  facet normal 0 0 1
    outer loop
      vertex 0 4 5
      vertex 0 2 5
      vertex 0.390181 1.96157 5
    endloop
  endfacet
  facet normal 0 0 1
    outer loop
      vertex 0 4 5
      vertex -0.390181 1.96157 5
      vertex 0 2 5
    endloop
  endfacet
  facet normal -0 0 1
    outer loop
      vertex -0.780361 3.92314 5
      vertex -0.390181 1.96157 5
      vertex 0 4 5
    endloop
  endfacet
  facet normal 0 0 1
    outer loop
      vertex -0.390181 1.96157 5
      vertex -0.780361 3.92314 5
      vertex -0.765367 1.84776 5
    endloop
  endfacet
  facet normal -0 0 1
    outer loop
      vertex -1.53073 3.69552 5
      vertex -0.765367 1.84776 5
      vertex -0.780361 3.92314 5
    endloop
  endfacet
  facet normal 0 0 1
    outer loop
      vertex -0.765367 1.84776 5
      vertex -1.53073 3.69552 5
      vertex -1.11114 1.66294 5
    endloop
  endfacet
  facet normal -0 0 1
    outer loop
      vertex -2.22228 3.32588 5
      vertex -1.11114 1.66294 5
      vertex -1.53073 3.69552 5
    endloop
  endfacet
  facet normal 0 0 1
    outer loop
      vertex -1.11114 1.66294 5
      vertex -2.22228 3.32588 5
      vertex -1.41421 1.41421 5
    endloop
  endfacet
  facet normal -0 0 1
    outer loop
      vertex -2.82843 2.82843 5
      vertex -1.41421 1.41421 5
      vertex -2.22228 3.32588 5
    endloop
  endfacet
  facet normal 0 0 1
    outer loop
      vertex -1.41421 1.41421 5
      vertex -2.82843 2.82843 5
      vertex -1.66294 1.11114 5
    endloop
  endfacet
  facet normal 0 0 1
    outer loop
      vertex -1.66294 1.11114 5
      vertex -3.32588 2.22228 5
      vertex -1.84776 0.765367 5
    endloop
  endfacet
  facet normal -0 0 1
    outer loop
      vertex -3.32588 2.22228 5
      vertex -1.66294 1.11114 5
      vertex -2.82843 2.82843 5
    endloop
  endfacet
  facet normal -0 0 1
    outer loop
      vertex 1.66294 -1.11114 5
      vertex 3.32588 -2.22228 5
      vertex 1.84776 -0.765367 5
    endloop
  endfacet
  facet normal 0 0 1
    outer loop
      vertex 3.32588 -2.22228 5
      vertex 1.66294 -1.11114 5
      vertex 2.82843 -2.82843 5
    endloop
  endfacet
  facet normal -0 0 1
    outer loop
      vertex 1.41421 -1.41421 5
      vertex 2.82843 -2.82843 5
      vertex 1.66294 -1.11114 5
    endloop
  endfacet
  facet normal 0 0 1
    outer loop
      vertex 2.82843 -2.82843 5
      vertex 1.41421 -1.41421 5
      vertex 2.22228 -3.32588 5
    endloop
  endfacet
  facet normal -0 0 1
    outer loop
      vertex 1.11114 -1.66294 5
      vertex 2.22228 -3.32588 5
      vertex 1.41421 -1.41421 5
    endloop
  endfacet
  facet normal 0 0 1
    outer loop
      vertex 2.22228 -3.32588 5
      vertex 1.11114 -1.66294 5
      vertex 1.53073 -3.69552 5
    endloop
  endfacet
  facet normal -0 0 1
    outer loop
      vertex 0.765367 -1.84776 5
      vertex 1.53073 -3.69552 5
      vertex 1.11114 -1.66294 5
    endloop
  endfacet
  facet normal 0 0 1
    outer loop
      vertex 1.53073 -3.69552 5
      vertex 0.765367 -1.84776 5
      vertex 0.780361 -3.92314 5
    endloop
  endfacet
  facet normal -0 0 1
    outer loop
      vertex 0.390181 -1.96157 5
      vertex 0.780361 -3.92314 5
      vertex 0.765367 -1.84776 5
    endloop
  endfacet
  facet normal -0 0 1
    outer loop
      vertex 0 -2 5
      vertex 0.780361 -3.92314 5
      vertex 0.390181 -1.96157 5
    endloop
  endfacet
  facet normal 0 0 1
    outer loop
      vertex 0 -2 5
      vertex 0 -4 5
      vertex 0.780361 -3.92314 5
    endloop
  endfacet
  facet normal 0 0 1
    outer loop
      vertex -0.390181 -1.96157 5
      vertex 0 -4 5
      vertex 0 -2 5
    endloop
  endfacet
  facet normal 0 0 1
    outer loop
      vertex -0.780361 -3.92314 5
      vertex -0.390181 -1.96157 5
      vertex -0.765367 -1.84776 5
    endloop
  endfacet
  facet normal 0 0 1
    outer loop
      vertex -0.390181 -1.96157 5
      vertex -0.780361 -3.92314 5
      vertex 0 -4 5
    endloop
  endfacet
  facet normal 0 0 1
    outer loop
      vertex -1.53073 -3.69552 5
      vertex -0.765367 -1.84776 5
      vertex -1.11114 -1.66294 5
    endloop
  endfacet
  facet normal 0 0 1
    outer loop
      vertex -2.22228 -3.32588 5
      vertex -1.11114 -1.66294 5
      vertex -1.41421 -1.41421 5
    endloop
  endfacet
  facet normal 0 0 1
    outer loop
      vertex -0.765367 -1.84776 5
      vertex -1.53073 -3.69552 5
      vertex -0.780361 -3.92314 5
    endloop
  endfacet
  facet normal 0 0 1
    outer loop
      vertex -2.82843 -2.82843 5
      vertex -1.41421 -1.41421 5
      vertex -1.66294 -1.11114 5
    endloop
  endfacet
  facet normal 0 0 1
    outer loop
      vertex -3.32588 -2.22228 5
      vertex -1.66294 -1.11114 5
      vertex -1.84776 -0.765367 5
    endloop
  endfacet
  facet normal 0 0 1
    outer loop
      vertex -3.69552 -1.53073 5
      vertex -1.84776 -0.765367 5
      vertex -1.96157 -0.390181 5
    endloop
  endfacet
  facet normal 0 0 1
    outer loop
      vertex -1.11114 -1.66294 5
      vertex -2.22228 -3.32588 5
      vertex -1.53073 -3.69552 5
    endloop
  endfacet
  facet normal 0 0 1
    outer loop
      vertex -3.92314 -0.780361 5
      vertex -1.96157 -0.390181 5
      vertex -2 0 5
    endloop
  endfacet
  facet normal -0 0 1
    outer loop
      vertex -3.69552 1.53073 5
      vertex -1.84776 0.765367 5
      vertex -3.32588 2.22228 5
    endloop
  endfacet
  facet normal 0 0 1
    outer loop
      vertex -1.84776 0.765367 5
      vertex -3.69552 1.53073 5
      vertex -1.96157 0.390181 5
    endloop
  endfacet
  facet normal 0 0 1
    outer loop
      vertex -1.41421 -1.41421 5
      vertex -2.82843 -2.82843 5
      vertex -2.22228 -3.32588 5
    endloop
  endfacet
  facet normal -0 0 1
    outer loop
      vertex -3.92314 0.780361 5
      vertex -1.96157 0.390181 5
      vertex -3.69552 1.53073 5
    endloop
  endfacet
  facet normal 0 0 1
    outer loop
      vertex -1.66294 -1.11114 5
      vertex -3.32588 -2.22228 5
      vertex -2.82843 -2.82843 5
    endloop
  endfacet
  facet normal 0 0 1
    outer loop
      vertex -1.96157 0.390181 5
      vertex -3.92314 0.780361 5
      vertex -2 0 5
    endloop
  endfacet
  facet normal 0 0 1
    outer loop
      vertex -1.84776 -0.765367 5
      vertex -3.69552 -1.53073 5
      vertex -3.32588 -2.22228 5
    endloop
  endfacet
  facet normal 0 0 1
    outer loop
      vertex -4 0 5
      vertex -2 0 5
      vertex -3.92314 0.780361 5
    endloop
  endfacet
  facet normal 0 0 1
    outer loop
      vertex -1.96157 -0.390181 5
      vertex -3.92314 -0.780361 5
      vertex -3.69552 -1.53073 5
    endloop
  endfacet
  facet normal 0 0 1
    outer loop
      vertex -2 0 5
      vertex -4 0 5
      vertex -3.92314 -0.780361 5
    endloop
  endfacet
  facet normal -0.290282 -0.956941 0
    outer loop
      vertex -1.53073 -3.69552 -5
      vertex -0.780361 -3.92314 5
      vertex -1.53073 -3.69552 5
    endloop
  endfacet
  facet normal -0.290282 -0.956941 -0
    outer loop
      vertex -0.780361 -3.92314 5
      vertex -1.53073 -3.69552 -5
      vertex -0.780361 -3.92314 -5
    endloop
  endfacet
  facet normal 0.956941 -0.290282 0
    outer loop
      vertex 3.69552 -1.53073 5
      vertex 3.92314 -0.780361 -5
      vertex 3.92314 -0.780361 5
    endloop
  endfacet
  facet normal 0.956941 -0.290282 0
    outer loop
      vertex 3.92314 -0.780361 -5
      vertex 3.69552 -1.53073 5
      vertex 3.69552 -1.53073 -5
    endloop
  endfacet
  facet normal 0.773013 0.63439 0
    outer loop
      vertex 3.32588 2.22228 5
      vertex 2.82843 2.82843 -5
      vertex 2.82843 2.82843 5
    endloop
  endfacet
  facet normal 0.773013 0.63439 0
    outer loop
      vertex 2.82843 2.82843 -5
      vertex 3.32588 2.22228 5
      vertex 3.32588 2.22228 -5
    endloop
  endfacet
  facet normal -0.995185 0.0980186 0
    outer loop
      vertex -4 0 -5
      vertex -3.92314 0.780361 5
      vertex -3.92314 0.780361 -5
    endloop
  endfacet
  facet normal -0.995185 0.0980186 0
    outer loop
      vertex -3.92314 0.780361 5
      vertex -4 0 -5
      vertex -4 0 5
    endloop
  endfacet
  facet normal 0.63439 -0.773013 0
    outer loop
      vertex 2.22228 -3.32588 -5
      vertex 2.82843 -2.82843 5
      vertex 2.22228 -3.32588 5
    endloop
  endfacet
  facet normal 0.63439 -0.773013 0
    outer loop
      vertex 2.82843 -2.82843 5
      vertex 2.22228 -3.32588 -5
      vertex 2.82843 -2.82843 -5
    endloop
  endfacet
  facet normal -0.63439 -0.773013 0
    outer loop
      vertex -2.82843 -2.82843 -5
      vertex -2.22228 -3.32588 5
      vertex -2.82843 -2.82843 5
    endloop
  endfacet
  facet normal -0.63439 -0.773013 -0
    outer loop
      vertex -2.22228 -3.32588 5
      vertex -2.82843 -2.82843 -5
      vertex -2.22228 -3.32588 -5
    endloop
  endfacet
  facet normal -0.0980186 0.995185 0
    outer loop
      vertex 0 4 -5
      vertex -0.780361 3.92314 5
      vertex 0 4 5
    endloop
  endfacet
  facet normal -0.0980186 0.995185 0
    outer loop
      vertex -0.780361 3.92314 5
      vertex 0 4 -5
      vertex -0.780361 3.92314 -5
    endloop
  endfacet
  facet normal 0.881922 -0.471396 0
    outer loop
      vertex 3.32588 -2.22228 5
      vertex 3.69552 -1.53073 -5
      vertex 3.69552 -1.53073 5
    endloop
  endfacet
  facet normal 0.881922 -0.471396 0
    outer loop
      vertex 3.69552 -1.53073 -5
      vertex 3.32588 -2.22228 5
      vertex 3.32588 -2.22228 -5
    endloop
  endfacet
  facet normal -0.956941 -0.290282 0
    outer loop
      vertex -3.69552 -1.53073 -5
      vertex -3.92314 -0.780361 5
      vertex -3.92314 -0.780361 -5
    endloop
  endfacet
  facet normal -0.956941 -0.290282 0
    outer loop
      vertex -3.92314 -0.780361 5
      vertex -3.69552 -1.53073 -5
      vertex -3.69552 -1.53073 5
    endloop
  endfacet
  facet normal -0.995185 -0.0980186 0
    outer loop
      vertex -3.92314 -0.780361 -5
      vertex -4 0 5
      vertex -4 0 -5
    endloop
  endfacet
  facet normal -0.995185 -0.0980186 0
    outer loop
      vertex -4 0 5
      vertex -3.92314 -0.780361 -5
      vertex -3.92314 -0.780361 5
    endloop
  endfacet
  facet normal -0.773013 -0.63439 0
    outer loop
      vertex -2.82843 -2.82843 -5
      vertex -3.32588 -2.22228 5
      vertex -3.32588 -2.22228 -5
    endloop
  endfacet
  facet normal -0.773013 -0.63439 0
    outer loop
      vertex -3.32588 -2.22228 5
      vertex -2.82843 -2.82843 -5
      vertex -2.82843 -2.82843 5
    endloop
  endfacet
  facet normal -0.773013 0.63439 0
    outer loop
      vertex -3.32588 2.22228 -5
      vertex -2.82843 2.82843 5
      vertex -2.82843 2.82843 -5
    endloop
  endfacet
  facet normal -0.773013 0.63439 0
    outer loop
      vertex -2.82843 2.82843 5
      vertex -3.32588 2.22228 -5
      vertex -3.32588 2.22228 5
    endloop
  endfacet
  facet normal -0.956941 0.290282 0
    outer loop
      vertex -3.92314 0.780361 -5
      vertex -3.69552 1.53073 5
      vertex -3.69552 1.53073 -5
    endloop
  endfacet
  facet normal -0.956941 0.290282 0
    outer loop
      vertex -3.69552 1.53073 5
      vertex -3.92314 0.780361 -5
      vertex -3.92314 0.780361 5
    endloop
  endfacet
  facet normal -0.471396 -0.881922 0
    outer loop
      vertex -2.22228 -3.32588 -5
      vertex -1.53073 -3.69552 5
      vertex -2.22228 -3.32588 5
    endloop
  endfacet
  facet normal -0.471396 -0.881922 -0
    outer loop
      vertex -1.53073 -3.69552 5
      vertex -2.22228 -3.32588 -5
      vertex -1.53073 -3.69552 -5
    endloop
  endfacet
  facet normal 0.471398 -0.881921 0
    outer loop
      vertex -1.11114 1.66294 -5
      vertex -0.765367 1.84776 5
      vertex -1.11114 1.66294 5
    endloop
  endfacet
  facet normal 0.471398 -0.881921 0
    outer loop
      vertex -0.765367 1.84776 5
      vertex -1.11114 1.66294 -5
      vertex -0.765367 1.84776 -5
    endloop
  endfacet
  facet normal -0.471398 -0.881921 0
    outer loop
      vertex 0.765367 1.84776 -5
      vertex 1.11114 1.66294 5
      vertex 0.765367 1.84776 5
    endloop
  endfacet
  facet normal -0.471398 -0.881921 -0
    outer loop
      vertex 1.11114 1.66294 5
      vertex 0.765367 1.84776 -5
      vertex 1.11114 1.66294 -5
    endloop
  endfacet
  facet normal -0.956941 -0.290281 0
    outer loop
      vertex 1.96157 0.390181 -5
      vertex 1.84776 0.765367 5
      vertex 1.84776 0.765367 -5
    endloop
  endfacet
  facet normal -0.956941 -0.290281 0
    outer loop
      vertex 1.84776 0.765367 5
      vertex 1.96157 0.390181 -5
      vertex 1.96157 0.390181 5
    endloop
  endfacet
  facet normal -0.995185 -0.0980185 0
    outer loop
      vertex 2 0 -5
      vertex 1.96157 0.390181 5
      vertex 1.96157 0.390181 -5
    endloop
  endfacet
  facet normal -0.995185 -0.0980185 0
    outer loop
      vertex 1.96157 0.390181 5
      vertex 2 0 -5
      vertex 2 0 5
    endloop
  endfacet
  facet normal -0.881921 -0.471398 0
    outer loop
      vertex 1.84776 0.765367 -5
      vertex 1.66294 1.11114 5
      vertex 1.66294 1.11114 -5
    endloop
  endfacet
  facet normal -0.881921 -0.471398 0
    outer loop
      vertex 1.66294 1.11114 5
      vertex 1.84776 0.765367 -5
      vertex 1.84776 0.765367 5
    endloop
  endfacet
  facet normal -0.0980185 -0.995185 0
    outer loop
      vertex 0 2 -5
      vertex 0.390181 1.96157 5
      vertex 0 2 5
    endloop
  endfacet
  facet normal -0.0980185 -0.995185 -0
    outer loop
      vertex 0.390181 1.96157 5
      vertex 0 2 -5
      vertex 0.390181 1.96157 -5
    endloop
  endfacet
  facet normal -0.0980185 0.995185 0
    outer loop
      vertex 0.390181 -1.96157 -5
      vertex 0 -2 5
      vertex 0.390181 -1.96157 5
    endloop
  endfacet
  facet normal -0.0980185 0.995185 0
    outer loop
      vertex 0 -2 5
      vertex 0.390181 -1.96157 -5
      vertex 0 -2 -5
    endloop
  endfacet
  facet normal -0.290281 -0.956941 0
    outer loop
      vertex 0.390181 1.96157 -5
      vertex 0.765367 1.84776 5
      vertex 0.390181 1.96157 5
    endloop
  endfacet
  facet normal -0.290281 -0.956941 -0
    outer loop
      vertex 0.765367 1.84776 5
      vertex 0.390181 1.96157 -5
      vertex 0.765367 1.84776 -5
    endloop
  endfacet
  facet normal -0.634404 -0.773002 0
    outer loop
      vertex 1.11114 1.66294 -5
      vertex 1.41421 1.41421 5
      vertex 1.11114 1.66294 5
    endloop
  endfacet
  facet normal -0.634404 -0.773002 -0
    outer loop
      vertex 1.41421 1.41421 5
      vertex 1.11114 1.66294 -5
      vertex 1.41421 1.41421 -5
    endloop
  endfacet
  facet normal -0.773002 0.634404 0
    outer loop
      vertex 1.41421 -1.41421 -5
      vertex 1.66294 -1.11114 5
      vertex 1.66294 -1.11114 -5
    endloop
  endfacet
  facet normal -0.773002 0.634404 0
    outer loop
      vertex 1.66294 -1.11114 5
      vertex 1.41421 -1.41421 -5
      vertex 1.41421 -1.41421 5
    endloop
  endfacet
  facet normal 0.634404 -0.773002 0
    outer loop
      vertex -1.41421 1.41421 -5
      vertex -1.11114 1.66294 5
      vertex -1.41421 1.41421 5
    endloop
  endfacet
  facet normal 0.634404 -0.773002 0
    outer loop
      vertex -1.11114 1.66294 5
      vertex -1.41421 1.41421 -5
      vertex -1.11114 1.66294 -5
    endloop
  endfacet
  facet normal -0.471398 0.881921 0
    outer loop
      vertex 1.11114 -1.66294 -5
      vertex 0.765367 -1.84776 5
      vertex 1.11114 -1.66294 5
    endloop
  endfacet
  facet normal -0.471398 0.881921 0
    outer loop
      vertex 0.765367 -1.84776 5
      vertex 1.11114 -1.66294 -5
      vertex 0.765367 -1.84776 -5
    endloop
  endfacet
  facet normal 0.881921 0.471398 0
    outer loop
      vertex -1.66294 -1.11114 5
      vertex -1.84776 -0.765367 -5
      vertex -1.84776 -0.765367 5
    endloop
  endfacet
  facet normal 0.881921 0.471398 0
    outer loop
      vertex -1.84776 -0.765367 -5
      vertex -1.66294 -1.11114 5
      vertex -1.66294 -1.11114 -5
    endloop
  endfacet
  facet normal -0.995185 0.0980185 0
    outer loop
      vertex 1.96157 -0.390181 -5
      vertex 2 0 5
      vertex 2 0 -5
    endloop
  endfacet
  facet normal -0.995185 0.0980185 0
    outer loop
      vertex 2 0 5
      vertex 1.96157 -0.390181 -5
      vertex 1.96157 -0.390181 5
    endloop
  endfacet
  facet normal 0.290281 -0.956941 0
    outer loop
      vertex -0.765367 1.84776 -5
      vertex -0.390181 1.96157 5
      vertex -0.765367 1.84776 5
    endloop
  endfacet
  facet normal 0.290281 -0.956941 0
    outer loop
      vertex -0.390181 1.96157 5
      vertex -0.765367 1.84776 -5
      vertex -0.390181 1.96157 -5
    endloop
  endfacet
  facet normal 0.0980185 0.995185 -0
    outer loop
      vertex 0 -2 -5
      vertex -0.390181 -1.96157 5
      vertex 0 -2 5
    endloop
  endfacet
  facet normal 0.0980185 0.995185 0
    outer loop
      vertex -0.390181 -1.96157 5
      vertex 0 -2 -5
      vertex -0.390181 -1.96157 -5
    endloop
  endfacet
  facet normal 0.881921 -0.471398 0
    outer loop
      vertex -1.84776 0.765367 5
      vertex -1.66294 1.11114 -5
      vertex -1.66294 1.11114 5
    endloop
  endfacet
  facet normal 0.881921 -0.471398 0
    outer loop
      vertex -1.66294 1.11114 -5
      vertex -1.84776 0.765367 5
      vertex -1.84776 0.765367 -5
    endloop
  endfacet
  facet normal -0.290281 0.956941 0
    outer loop
      vertex 0.765367 -1.84776 -5
      vertex 0.390181 -1.96157 5
      vertex 0.765367 -1.84776 5
    endloop
  endfacet
  facet normal -0.290281 0.956941 0
    outer loop
      vertex 0.390181 -1.96157 5
      vertex 0.765367 -1.84776 -5
      vertex 0.390181 -1.96157 -5
    endloop
  endfacet
  facet normal 0.290281 0.956941 -0
    outer loop
      vertex -0.390181 -1.96157 -5
      vertex -0.765367 -1.84776 5
      vertex -0.390181 -1.96157 5
    endloop
  endfacet
  facet normal 0.290281 0.956941 0
    outer loop
      vertex -0.765367 -1.84776 5
      vertex -0.390181 -1.96157 -5
      vertex -0.765367 -1.84776 -5
    endloop
  endfacet
  facet normal -0.956941 0.290281 0
    outer loop
      vertex 1.84776 -0.765367 -5
      vertex 1.96157 -0.390181 5
      vertex 1.96157 -0.390181 -5
    endloop
  endfacet
  facet normal -0.956941 0.290281 0
    outer loop
      vertex 1.96157 -0.390181 5
      vertex 1.84776 -0.765367 -5
      vertex 1.84776 -0.765367 5
    endloop
  endfacet
  facet normal -0.773002 -0.634404 0
    outer loop
      vertex 1.66294 1.11114 -5
      vertex 1.41421 1.41421 5
      vertex 1.41421 1.41421 -5
    endloop
  endfacet
  facet normal -0.773002 -0.634404 0
    outer loop
      vertex 1.41421 1.41421 5
      vertex 1.66294 1.11114 -5
      vertex 1.66294 1.11114 5
    endloop
  endfacet
  facet normal 0.995185 -0.0980185 0
    outer loop
      vertex -2 0 5
      vertex -1.96157 0.390181 -5
      vertex -1.96157 0.390181 5
    endloop
  endfacet
  facet normal 0.995185 -0.0980185 0
    outer loop
      vertex -1.96157 0.390181 -5
      vertex -2 0 5
      vertex -2 0 -5
    endloop
  endfacet
  facet normal -0.634404 0.773002 0
    outer loop
      vertex 1.41421 -1.41421 -5
      vertex 1.11114 -1.66294 5
      vertex 1.41421 -1.41421 5
    endloop
  endfacet
  facet normal -0.634404 0.773002 0
    outer loop
      vertex 1.11114 -1.66294 5
      vertex 1.41421 -1.41421 -5
      vertex 1.11114 -1.66294 -5
    endloop
  endfacet
  facet normal 0.634404 0.773002 -0
    outer loop
      vertex -1.11114 -1.66294 -5
      vertex -1.41421 -1.41421 5
      vertex -1.11114 -1.66294 5
    endloop
  endfacet
  facet normal 0.634404 0.773002 0
    outer loop
      vertex -1.41421 -1.41421 5
      vertex -1.11114 -1.66294 -5
      vertex -1.41421 -1.41421 -5
    endloop
  endfacet
  facet normal 0.0980185 -0.995185 0
    outer loop
      vertex -0.390181 1.96157 -5
      vertex 0 2 5
      vertex -0.390181 1.96157 5
    endloop
  endfacet
  facet normal 0.0980185 -0.995185 0
    outer loop
      vertex 0 2 5
      vertex -0.390181 1.96157 -5
      vertex 0 2 -5
    endloop
  endfacet
  facet normal -0.881921 0.471398 0
    outer loop
      vertex 1.66294 -1.11114 -5
      vertex 1.84776 -0.765367 5
      vertex 1.84776 -0.765367 -5
    endloop
  endfacet
  facet normal -0.881921 0.471398 0
    outer loop
      vertex 1.84776 -0.765367 5
      vertex 1.66294 -1.11114 -5
      vertex 1.66294 -1.11114 5
    endloop
  endfacet
  facet normal 0.956941 0.290281 0
    outer loop
      vertex -1.84776 -0.765367 5
      vertex -1.96157 -0.390181 -5
      vertex -1.96157 -0.390181 5
    endloop
  endfacet
  facet normal 0.956941 0.290281 0
    outer loop
      vertex -1.96157 -0.390181 -5
      vertex -1.84776 -0.765367 5
      vertex -1.84776 -0.765367 -5
    endloop
  endfacet
  facet normal 0.995185 0.0980185 0
    outer loop
      vertex -1.96157 -0.390181 5
      vertex -2 0 -5
      vertex -2 0 5
    endloop
  endfacet
  facet normal 0.995185 0.0980185 0
    outer loop
      vertex -2 0 -5
      vertex -1.96157 -0.390181 5
      vertex -1.96157 -0.390181 -5
    endloop
  endfacet
  facet normal 0.773002 0.634404 0
    outer loop
      vertex -1.41421 -1.41421 5
      vertex -1.66294 -1.11114 -5
      vertex -1.66294 -1.11114 5
    endloop
  endfacet
  facet normal 0.773002 0.634404 0
    outer loop
      vertex -1.66294 -1.11114 -5
      vertex -1.41421 -1.41421 5
      vertex -1.41421 -1.41421 -5
    endloop
  endfacet
  facet normal 0.773002 -0.634404 0
    outer loop
      vertex -1.66294 1.11114 5
      vertex -1.41421 1.41421 -5
      vertex -1.41421 1.41421 5
    endloop
  endfacet
  facet normal 0.773002 -0.634404 0
    outer loop
      vertex -1.41421 1.41421 -5
      vertex -1.66294 1.11114 5
      vertex -1.66294 1.11114 -5
    endloop
  endfacet
  facet normal 0.956941 -0.290281 0
    outer loop
      vertex -1.96157 0.390181 5
      vertex -1.84776 0.765367 -5
      vertex -1.84776 0.765367 5
    endloop
  endfacet
  facet normal 0.956941 -0.290281 0
    outer loop
      vertex -1.84776 0.765367 -5
      vertex -1.96157 0.390181 5
      vertex -1.96157 0.390181 -5
    endloop
  endfacet
  facet normal 0.471398 0.881921 -0
    outer loop
      vertex -0.765367 -1.84776 -5
      vertex -1.11114 -1.66294 5
      vertex -0.765367 -1.84776 5
    endloop
  endfacet
  facet normal 0.471398 0.881921 0
    outer loop
      vertex -1.11114 -1.66294 5
      vertex -0.765367 -1.84776 -5
      vertex -1.11114 -1.66294 -5
    endloop
  endfacet
endsolid OpenSCAD_Model
