<?xml version="1.0" encoding="UTF-8" standalone="no"?>
<!-- Generator: Adobe Illustrator 15.0.0, SVG Export Plug-In . SVG Version: 6.00 Build 0)  -->

<svg
   version="1.1"
   id="Layer_1"
   x="0px"
   y="0px"
   width="454.998px"
   height="455px"
   viewBox="0 0 454.998 455"
   enable-background="new 0 0 454.998 455"
   xml:space="preserve"
   sodipodi:docname="DIN-8_262_Diagram_WhiteFilled.svg"
   inkscape:version="1.3 (0e150ed6c4, 2023-07-21)"
   xmlns:inkscape="http://www.inkscape.org/namespaces/inkscape"
   xmlns:sodipodi="http://sodipodi.sourceforge.net/DTD/sodipodi-0.dtd"
   xmlns="http://www.w3.org/2000/svg"
   xmlns:svg="http://www.w3.org/2000/svg"><defs
   id="defs1" /><sodipodi:namedview
   id="namedview1"
   pagecolor="#ffffff"
   bordercolor="#666666"
   borderopacity="1.0"
   inkscape:showpageshadow="2"
   inkscape:pageopacity="0.0"
   inkscape:pagecheckerboard="0"
   inkscape:deskcolor="#d1d1d1"
   inkscape:zoom="1.6031648"
   inkscape:cx="227.67466"
   inkscape:cy="227.67466"
   inkscape:window-width="2989"
   inkscape:window-height="1012"
   inkscape:window-x="11"
   inkscape:window-y="0"
   inkscape:window-maximized="0"
   inkscape:current-layer="Layer_1" />&#10;&#10;&#10;&#10;&#10;&#10;&#10;&#10;&#10;&#10;&#10;<path
   style="color:#000000;overflow:visible;fill:#cccccc;fill-rule:evenodd;stroke:#f9f9f9;stroke-width:4.59007;paint-order:stroke markers fill"
   d="M 180.03787,397.24021 C 163.8386,392.9802 146.83583,385.85089 132.94352,377.49343 60.713835,334.04081 28.408823,247.38041 54.648714,167.46227 67.068466,129.63577 92.611818,96.41289 126.39398,74.147032 c 59.59575,-39.279624 136.89059,-39.279624 196.48635,0 33.78216,22.265858 59.32551,55.488738 71.74526,93.315238 16.3208,49.70783 10.24677,104.12908 -16.57871,148.53949 -17.39232,28.79351 -43.35956,52.86713 -73.25577,67.91369 -10.75676,5.41381 -30.06942,12.39693 -38.83096,14.04061 -2.23915,0.42007 -2.26173,0.40271 -2.97919,-2.28952 -1.44373,-5.41754 -5.67964,-12.44461 -10.26668,-17.03165 -16.70174,-16.70174 -45.11504,-15.03479 -59.39922,3.48482 -2.96105,3.83904 -5.96533,9.62632 -7.00033,13.48504 -0.79865,2.9776 -0.98679,3.02662 -6.27686,1.63546 z m -55.96406,-71.01166 c 21.44873,-4.54499 29.31931,-31.42004 13.75908,-46.98201 -6.06332,-6.06399 -15.92266,-9.24946 -23.98648,-7.74984 -12.08018,2.24655 -21.084832,11.25205 -23.120406,23.12261 -2.461576,14.3548 7.17252,28.46759 21.571976,31.60035 4.97851,1.08313 6.70011,1.08443 11.77583,0.009 z m 212.61113,0.0195 c 11.52569,-2.44299 19.90352,-11.2703 21.93121,-23.10785 1.95119,-11.391 -4.29639,-23.55857 -14.74107,-28.7092 -5.9836,-2.95071 -10.98261,-3.84313 -16.63071,-2.96889 -12.26673,1.89872 -21.60132,11.01318 -23.71293,23.15374 -2.48338,14.278 7.82128,29.06277 22.16217,31.79752 4.4624,0.85095 6.32915,0.82288 10.99133,-0.16532 z M 236.43245,281.70114 c 17.27184,-8.21085 21.44456,-31.3731 8.05813,-44.72977 -13.78024,-13.7496 -36.64575,-9.86366 -44.95848,7.64059 -5.27821,11.11441 -2.45122,24.86965 6.75913,32.88769 8.06161,7.01803 20.55362,8.75933 30.14122,4.20149 z M 124.02415,250.9688 c 17.61835,-3.74116 27.10249,-23.40764 19.11386,-39.63484 -1.9096,-3.87895 -6.72642,-9.23622 -10.19808,-11.34233 -6.72645,-4.08065 -16.51741,-5.16398 -23.74429,-2.62722 -19.0254,6.67826 -25.067911,30.34268 -11.516991,45.10428 6.888291,7.50372 16.473661,10.59634 26.345501,8.50011 z m 214.16334,-0.26016 c 13.45838,-3.48273 22.7479,-17.63102 20.43642,-31.12539 -2.42118,-14.13476 -13.43359,-23.51685 -27.60332,-23.51685 -8.15746,0 -13.83136,2.36413 -19.77473,8.23948 -6.08642,6.01678 -9.02523,15.00235 -7.68775,23.50577 2.58916,16.46136 18.59706,27.04581 34.62938,22.89699 z M 160.81315,173.8928 c 14.65734,-6.88639 20.42837,-23.36721 13.30185,-37.98719 -5.79292,-11.88412 -20.00146,-17.99437 -32.67273,-14.05063 -5.23481,1.62925 -8.58512,3.73207 -12.43979,7.80781 -9.95495,10.52591 -9.90121,27.47013 0.12031,37.92918 6.05702,6.32145 12.09707,8.71748 21.28618,8.44401 5.47117,-0.16282 6.74966,-0.42618 10.40418,-2.14318 z m 147.78932,1.03149 c 10.11193,-3.40646 17.16516,-11.78194 18.79631,-22.31998 2.5549,-16.50614 -10.58674,-31.92451 -27.21044,-31.92451 -13.71256,0 -24.77269,9.07286 -27.60205,22.64252 -2.86167,13.72467 5.56099,27.60429 19.41761,31.99806 4.01211,1.2722 12.22836,1.07613 16.59857,-0.39609 z m -72.42564,-32.24114 c 10.96954,-5.30829 16.73982,-15.04033 16.10369,-27.16016 -1.04569,-19.923012 -22.40471,-32.038037 -40.43058,-22.932588 -9.18352,4.638891 -14.97038,14.119448 -14.97038,24.525798 0,12.34892 7.03119,22.3239 18.80489,26.67804 2.71281,1.00325 4.56678,1.19877 9.88835,1.04284 5.85441,-0.17155 6.97986,-0.40016 10.60403,-2.15393 z"
   id="path1" /></svg>
