<?xml version="1.0" encoding="utf-8"?>
<!-- Generator: Adobe Illustrator 15.0.0, SVG Export Plug-In . SVG Version: 6.00 Build 0)  -->
<!DOCTYPE svg PUBLIC "-//W3C//DTD SVG 1.1//EN" "http://www.w3.org/Graphics/SVG/1.1/DTD/svg11.dtd">
<svg version="1.1" id="Layer_1" xmlns:svg="http://www.w3.org/2000/svg"
	 xmlns="http://www.w3.org/2000/svg" xmlns:xlink="http://www.w3.org/1999/xlink" x="0px" y="0px" width="454.998px" height="455px"
	 viewBox="0 0 454.998 455" enable-background="new 0 0 454.998 455" xml:space="preserve">
<path id="path4784" fill="#FFFFFF" stroke="#000000" stroke-width="5" d="M19.197,217.219c0,109.631,88.876,198.503,198.499,198.503
	c109.627,0,198.5-88.872,198.5-198.503c0-109.624-88.872-198.504-198.5-198.504C108.073,18.715,19.197,107.594,19.197,217.219z"/>
<path id="path4786" fill="none" stroke="#000000" stroke-width="5" d="M298.979,217.215c0,13.894,11.262,25.149,25.15,25.149
	c13.895,0,25.149-11.258,25.149-25.149c0-13.883-11.257-25.146-25.149-25.146C310.24,192.07,298.979,203.332,298.979,217.215z"/>
<path id="path4788" fill="none" stroke="#000000" stroke-width="5" d="M86.112,217.215c0,13.894,11.263,25.149,25.151,25.149
	c13.895,0,25.151-11.258,25.151-25.149c0-13.883-11.257-25.146-25.151-25.146C97.374,192.07,86.112,203.332,86.112,217.215z"/>
<path id="path4790" fill="none" stroke="#000000" stroke-width="5" d="M306.344,274.698c-9.82,9.82-9.815,25.745,0.005,35.566
	c9.82,9.823,25.74,9.823,35.563,0c9.816-9.815,9.821-25.741-0.005-35.563C332.089,264.885,316.162,264.879,306.344,274.698z"/>
<path id="path4792" fill="none" stroke="#000000" stroke-width="5" d="M124.657,124.185c-9.82,9.819-9.82,25.746,0.005,35.565
	c9.82,9.826,25.739,9.826,35.565,0c9.814-9.814,9.82-25.74-0.005-35.561C150.402,114.365,134.477,114.365,124.657,124.185z"/>
<path id="path4794" fill="none" stroke="#000000" stroke-width="5" d="M217.696,85.657c-13.888,0-25.149,11.262-25.145,25.15
	c-0.005,13.894,11.251,25.15,25.148,25.15c13.878,0,25.143-11.257,25.143-25.15C242.842,96.919,231.585,85.657,217.696,85.657z"/>
<path id="path4796" fill="none" stroke="#000000" stroke-width="5" d="M129.047,274.716c-9.814-9.825-25.74-9.82-35.561,0
	c-9.825,9.826-9.825,25.744-0.005,35.564c9.811,9.82,25.74,9.82,35.562,0C138.862,300.46,138.868,284.53,129.047,274.716z"/>
<path id="path4798" fill="none" stroke="#000000" stroke-width="5" d="M310.726,124.202c-9.814-9.821-25.745-9.821-35.562,0.005
	c-9.831,9.82-9.831,25.739-0.005,35.565c9.814,9.814,25.739,9.821,35.561-0.005C320.546,149.946,320.546,134.021,310.726,124.202z"
	/>
<path id="path4800" fill="none" stroke="#000000" stroke-width="5" d="M217.696,224.809c-13.888,0-25.145,11.263-25.145,25.149
	c0,13.896,11.257,25.15,25.145,25.15c13.89-0.005,25.146-11.257,25.146-25.15C242.842,236.072,231.585,224.809,217.696,224.809z"/>
<path id="path4802" fill="none" stroke="#000000" stroke-width="5" d="M217.699,35.339c-100.448,0-181.884,81.437-181.884,181.88
	c0,87.806,62.234,161.078,144.996,178.124c2.492-18.165,18.038-32.176,36.891-32.176c18.839,0,34.386,14.016,36.875,32.183
	c82.764-17.053,144.998-90.325,144.998-178.131C399.574,116.775,318.146,35.339,217.699,35.339z"/>
</svg>
