<?xml version="1.0" encoding="UTF-8" standalone="no"?>
<!-- Created with Inkscape (http://www.inkscape.org/) -->

<svg
   xmlns:dc="http://purl.org/dc/elements/1.1/"
   xmlns:cc="http://creativecommons.org/ns#"
   xmlns:rdf="http://www.w3.org/1999/02/22-rdf-syntax-ns#"
   xmlns:svg="http://www.w3.org/2000/svg"
   xmlns="http://www.w3.org/2000/svg"
   xmlns:sodipodi="http://sodipodi.sourceforge.net/DTD/sodipodi-0.dtd"
   xmlns:inkscape="http://www.inkscape.org/namespaces/inkscape"
   width="113.637mm"
   height="49.839348mm"
   viewBox="0 0 113.637 49.839348"
   version="1.1"
   id="svg8"
   inkscape:version="0.92.5 (2060ec1f9f, 2020-04-08)"
   sodipodi:docname="pi_4.svg">
  <defs
     id="defs2" />
  <sodipodi:namedview
     id="base"
     pagecolor="#ffffff"
     bordercolor="#666666"
     borderopacity="1.0"
     inkscape:pageopacity="0.0"
     inkscape:pageshadow="2"
     inkscape:zoom="1.6224172"
     inkscape:cx="265.04774"
     inkscape:cy="38.382779"
     inkscape:document-units="mm"
     inkscape:current-layer="layer1"
     showgrid="false"
     fit-margin-top="0"
     fit-margin-left="0"
     fit-margin-right="0"
     fit-margin-bottom="0"
     inkscape:window-width="1920"
     inkscape:window-height="1019"
     inkscape:window-x="0"
     inkscape:window-y="30"
     inkscape:window-maximized="1" />
  <metadata
     id="metadata5">
    <rdf:RDF>
      <cc:Work
         rdf:about="">
        <dc:format>image/svg+xml</dc:format>
        <dc:type
           rdf:resource="http://purl.org/dc/dcmitype/StillImage" />
        <dc:title></dc:title>
      </cc:Work>
    </rdf:RDF>
  </metadata>
  <g
     inkscape:label="Layer 1"
     inkscape:groupmode="layer"
     id="layer1"
     transform="translate(-12.418716,-109.53472)">
    <path
       style="fill:#b3b3b3;stroke:#f9f9f9;stroke-width:0.41863999"
       d="m 52.202993,156.47512 c -0.253693,-0.0632 -0.694772,-0.14199 -0.980176,-0.1751 -0.285403,-0.0331 -0.568214,-0.10707 -0.628464,-0.16435 -0.06025,-0.0573 -0.229606,-0.10413 -0.376339,-0.10413 -0.146732,0 -0.356893,-0.0466 -0.467023,-0.10359 -0.110131,-0.057 -0.459696,-0.2297 -0.776812,-0.38383 -1.019916,-0.49575 -1.753484,-1.03957 -2.354188,-1.74526 -0.100505,-0.11807 -0.237541,-0.27374 -0.304522,-0.34595 -0.06698,-0.0722 -0.220872,-0.29992 -0.341977,-0.50604 -0.121108,-0.20613 -0.260898,-0.37478 -0.310647,-0.37478 -0.04975,0 -0.09045,-0.10378 -0.09045,-0.23063 0,-0.12684 -0.05189,-0.23063 -0.115316,-0.23063 -0.06342,0 -0.115313,-0.0785 -0.115313,-0.17453 0,-0.17591 -0.03335,-0.2592 -0.38409,-0.95913 -0.105866,-0.21126 -0.192485,-0.48063 -0.192485,-0.59859 0,-0.11797 -0.05189,-0.24656 -0.115313,-0.28575 -0.06342,-0.0392 -0.115316,-0.24677 -0.115316,-0.46126 0,-0.2145 -0.05189,-0.42206 -0.115314,-0.46126 -0.06342,-0.0392 -0.115316,-0.29866 -0.115316,-0.57657 0,-0.27792 -0.04569,-0.53355 -0.101533,-0.56806 -0.05584,-0.0345 -0.138338,-0.5046 -0.183325,-1.04464 -0.04498,-0.54004 -0.123941,-0.98189 -0.175458,-0.98189 -0.09197,0 -0.243758,-3.84754 -0.254762,-6.45762 -0.01394,-3.30553 0.261257,-12.84356 0.429191,-14.87561 0.337457,-4.0833 0.409017,-5.11935 0.434067,-6.28466 l 0.02479,-1.15314 -6.25338,-0.0298 -6.253379,-0.0298 -0.05787,0.26045 c -0.07228,0.3253 -0.166796,1.84817 -0.245179,3.95052 -0.03311,0.88792 -0.109291,1.6637 -0.169304,1.72396 -0.06001,0.0602 -0.109112,0.84122 -0.109112,1.73548 0,0.97126 -0.04826,1.6742 -0.119853,1.74579 -0.111718,0.11172 -0.285817,2.13228 -0.415925,4.82716 -0.03062,0.63423 -0.10422,1.20244 -0.16355,1.26269 -0.05933,0.0602 -0.107876,0.5316 -0.107876,1.04744 0,0.51585 -0.03892,0.97631 -0.08648,1.02325 -0.10704,0.10564 -0.3717,1.80781 -0.449911,2.89361 -0.03198,0.44396 -0.105992,0.8565 -0.164475,0.91675 -0.05848,0.0603 -0.106331,0.38152 -0.106331,0.71392 0,0.3324 -0.05189,0.63643 -0.115316,0.67563 -0.06342,0.0392 -0.115314,0.36917 -0.115314,0.73329 0,0.36556 -0.06272,0.72474 -0.140057,0.80207 -0.126823,0.12683 -0.192844,0.47795 -0.394308,2.09705 -0.03551,0.28541 -0.11143,0.56822 -0.168704,0.62847 -0.05727,0.0602 -0.104135,0.34825 -0.104135,0.64 0,0.29174 -0.05144,0.58188 -0.1143,0.64474 -0.06286,0.0629 -0.169648,0.37162 -0.237299,0.68612 -0.06765,0.31451 -0.174212,0.80534 -0.236808,1.09075 -0.06259,0.2854 -0.140964,0.67459 -0.174159,0.86485 -0.03319,0.19027 -0.104799,0.44973 -0.159126,0.57658 -0.05432,0.12685 -0.123364,0.36036 -0.153426,0.51892 -0.06137,0.32367 -0.288155,0.99238 -0.439431,1.29572 -0.05492,0.11013 -0.09986,0.32761 -0.09986,0.48328 0,0.15568 -0.05189,0.31512 -0.115313,0.35432 -0.06342,0.0392 -0.115316,0.19487 -0.115316,0.34594 0,0.15108 -0.04857,0.3047 -0.107929,0.34139 -0.05936,0.0367 -0.252047,0.36407 -0.428191,0.72752 -0.176144,0.36345 -0.361087,0.67811 -0.410988,0.69925 -0.0499,0.0211 -0.09162,0.099 -0.09272,0.17298 -0.0011,0.074 -0.130823,0.25673 -0.288287,0.40609 -0.157459,0.14936 -0.286293,0.34395 -0.286293,0.43243 0,0.0885 -0.05189,0.16087 -0.115316,0.16087 -0.06342,0 -0.115313,0.0778 -0.115313,0.17297 0,0.0951 -0.05425,0.17298 -0.120557,0.17298 -0.0663,0 -0.245428,0.11675 -0.39805,0.25945 -0.463571,0.43344 -0.619361,0.54775 -0.746554,0.54775 -0.06696,0 -0.224827,0.0519 -0.350811,0.11531 l -0.458131,0.23063 c -0.125984,0.0634 -0.901298,0.11532 -1.722914,0.11532 -0.871513,0 -1.523542,-0.048 -1.565121,-0.11532 -0.0392,-0.0634 -0.22388,-0.11531 -0.410406,-0.11531 -0.186526,0 -0.33914,-0.0519 -0.33914,-0.11532 0,-0.0634 -0.07828,-0.11531 -0.173969,-0.11531 -0.520952,0 -1.784789,-1.36209 -1.785887,-1.92472 -2.65e-4,-0.13896 -0.05239,-0.28472 -0.115808,-0.32392 -0.149871,-0.0926 -0.149871,-0.82989 0,-0.92252 0.06342,-0.0392 0.115056,-0.28874 0.114744,-0.55455 -5.29e-4,-0.48301 0.327321,-1.60227 0.490657,-1.67487 0.04757,-0.0211 0.08649,-0.10398 0.08649,-0.18408 0,-0.23062 0.322408,-0.81592 0.575717,-1.04517 0.127318,-0.11522 0.231487,-0.2695 0.231487,-0.34284 0,-0.0734 0.09238,-0.23396 0.20529,-0.35691 0.112908,-0.12294 0.359394,-0.42905 0.547743,-0.68022 0.188351,-0.25118 0.498131,-0.61882 0.688401,-0.81698 0.19027,-0.19816 0.42378,-0.51157 0.518916,-0.69647 0.09513,-0.18489 0.289727,-0.43074 0.43243,-0.54633 0.142703,-0.1156 0.259458,-0.28425 0.259458,-0.37478 0,-0.0905 0.05189,-0.1646 0.115316,-0.1646 0.06342,0 0.115314,-0.0778 0.115314,-0.17297 0,-0.0951 0.03959,-0.17297 0.08797,-0.17297 0.04838,0 0.139192,-0.10024 0.2018,-0.22275 0.06261,-0.12251 0.26706,-0.52467 0.45434,-0.89369 0.187283,-0.36902 0.374206,-0.69689 0.415386,-0.7286 0.068,-0.0524 0.278436,-0.49862 0.598148,-1.26846 0.276948,-0.66687 0.496473,-1.09793 0.57748,-1.13393 0.04757,-0.0211 0.08648,-0.13484 0.08648,-0.25265 0,-0.11782 0.05189,-0.24629 0.115316,-0.28549 0.06342,-0.0392 0.115314,-0.22388 0.115314,-0.41041 0,-0.18652 0.05189,-0.33913 0.115316,-0.33913 0.06342,0 0.115313,-0.10875 0.115313,-0.24167 0,-0.13292 0.08525,-0.40535 0.189439,-0.6054 0.359267,-0.68982 0.387136,-0.76521 0.387136,-1.04726 0,-0.15567 0.05189,-0.31511 0.115316,-0.35431 0.06342,-0.0392 0.115313,-0.21968 0.115313,-0.40107 0,-0.18138 0.07265,-0.4767 0.161436,-0.65625 0.234868,-0.47496 0.415139,-1.10555 0.415139,-1.45216 0,-0.16617 0.05189,-0.33419 0.115313,-0.37339 0.06342,-0.0392 0.115316,-0.26713 0.115316,-0.50651 0,-0.23937 0.03892,-0.47399 0.08649,-0.52136 0.11757,-0.11708 0.381138,-1.366 0.452308,-2.14329 0.03194,-0.34882 0.105397,-0.68353 0.16324,-0.74378 0.05784,-0.0603 0.105169,-0.4334 0.105169,-0.82922 0,-0.39583 0.05189,-0.75175 0.115314,-0.79095 0.06342,-0.0392 0.115316,-0.43486 0.115316,-0.87925 0,-0.44439 0.06239,-0.92132 0.138641,-1.05985 0.147415,-0.26782 0.298405,-1.66766 0.394089,-3.65367 0.03209,-0.66594 0.106969,-1.2601 0.166405,-1.32035 0.05944,-0.0602 0.108066,-0.82259 0.108066,-1.69409 0,-0.93197 0.04749,-1.61389 0.115316,-1.65581 0.176538,-0.1091 0.137038,-0.85961 -0.05537,-1.05202 -0.140264,-0.14026 -0.463979,-0.16084 -1.816209,-0.11549 -2.489994,0.0835 -4.193492,0.32523 -4.507897,0.63963 -0.06835,0.0684 -0.213373,0.12428 -0.322267,0.12428 -0.268719,0 -1.724438,0.78137 -1.958496,1.05125 -0.103617,0.11947 -0.24038,0.21722 -0.303919,0.21722 -0.156922,0 -1.97634,1.7911 -2.399663,2.36232 -0.187346,0.2528 -0.457385,0.5701 -0.600088,0.70511 -0.1427,0.13502 -0.259458,0.29506 -0.259458,0.35565 0,0.0606 -0.181621,0.32235 -0.403601,0.58168 -0.22198,0.25933 -0.403601,0.52813 -0.403601,0.59733 0,0.0692 -0.05189,0.12581 -0.115316,0.12581 -0.06342,0 -0.115316,0.0778 -0.115316,0.17297 0,0.13953 -0.180747,0.17298 -0.934855,0.17298 -0.846338,0 -0.926684,-0.0191 -0.84855,-0.20181 0.04747,-0.11099 0.110892,-0.34513 0.140946,-0.52032 0.03005,-0.17519 0.100552,-0.3469 0.156665,-0.38158 0.05611,-0.0347 0.102018,-0.18666 0.102018,-0.33773 0,-0.15107 0.05189,-0.30674 0.115316,-0.34594 0.06342,-0.0392 0.115314,-0.22388 0.115314,-0.41041 0,-0.18653 0.0419,-0.33914 0.09312,-0.33914 0.116356,0 0.483452,-0.81747 0.483452,-1.07658 0,-0.10553 0.05189,-0.19188 0.115314,-0.19188 0.06342,0 0.115316,-0.12973 0.115316,-0.28829 0,-0.15855 0.03892,-0.28878 0.08649,-0.28938 0.04757,-5.3e-4 0.188925,-0.23411 0.314129,-0.51891 0.125206,-0.28481 0.267906,-0.51783 0.317116,-0.51783 0.04921,0 0.08947,-0.10378 0.08947,-0.23063 0,-0.12684 0.05189,-0.23063 0.115313,-0.23063 0.06342,0 0.115316,-0.0813 0.115316,-0.18066 0,-0.0994 0.129728,-0.35075 0.288287,-0.55863 0.158557,-0.20788 0.288285,-0.43361 0.288285,-0.50162 0,-0.068 0.04387,-0.14094 0.0975,-0.16208 0.05362,-0.0211 0.300109,-0.32384 0.547746,-0.67267 0.498629,-0.70238 0.782865,-1.05511 1.170967,-1.45315 0.142703,-0.14635 0.259458,-0.32034 0.259458,-0.38665 0,-0.0663 0.04378,-0.12055 0.09728,-0.12055 0.0535,0 0.404902,-0.29838 0.780891,-0.66306 0.375989,-0.36469 0.876723,-0.79279 1.112742,-0.95135 0.236019,-0.15856 0.42948,-0.32721 0.429911,-0.37477 5.29e-4,-0.0476 0.104571,-0.0865 0.231418,-0.0865 0.126846,0 0.230629,-0.0519 0.230629,-0.11532 0,-0.0634 0.100722,-0.11531 0.223824,-0.11531 0.123103,0 0.253865,-0.0486 0.290582,-0.10801 0.10822,-0.17511 0.767868,-0.46856 1.053256,-0.46856 0.145071,0 0.292293,-0.0462 0.32716,-0.10258 0.06758,-0.10935 0.418428,-0.18051 1.791485,-0.36334 0.473602,-0.0631 0.912085,-0.16565 0.974408,-0.22797 0.0734,-0.0734 7.657123,-0.11332 21.528005,-0.11332 h 21.41469 l -0.06525,0.25946 c -0.03589,0.1427 -0.134813,0.30096 -0.219834,0.35167 -0.08502,0.0507 -0.154583,0.19036 -0.154583,0.31032 0,0.11995 -0.05189,0.25016 -0.115314,0.28936 -0.06342,0.0392 -0.115316,0.17199 -0.115316,0.29509 0,0.12311 -0.05189,0.22382 -0.115313,0.22382 -0.06342,0 -0.115316,0.0613 -0.115316,0.13626 0,0.15952 -1.038286,2.24887 -1.450869,2.91959 -0.156054,0.25369 -0.317463,0.5348 -0.358688,0.62468 -0.135755,0.296 -0.981892,1.04738 -1.179467,1.04738 -0.106516,0 -0.242959,0.0466 -0.303213,0.10351 -0.216646,0.20468 -1.191199,0.27266 -3.79962,0.26503 -2.214922,-0.006 -5.181899,-0.11358 -7.668432,-0.27682 l -0.518917,-0.0341 -0.03577,0.63171 c -0.01966,0.34744 -0.09037,0.66546 -0.157104,0.70671 -0.232397,0.14363 -0.505008,4.76692 -0.675825,11.46152 -0.19994,7.8359 -0.244774,12.78052 -0.118147,13.03022 0.06442,0.12703 0.140287,0.82773 0.168587,1.5571 0.05904,1.52156 0.152818,2.37961 0.296167,2.70989 0.05505,0.12685 0.12896,0.43779 0.164232,0.69098 0.03527,0.2532 0.11725,0.47806 0.182168,0.4997 0.06492,0.0216 0.118033,0.13951 0.118033,0.26193 0,0.12242 0.05189,0.32567 0.115314,0.45165 0.06342,0.12599 0.167208,0.33214 0.230632,0.45813 0.06342,0.12599 0.116141,0.29463 0.117155,0.37477 0.0011,0.0801 0.147994,0.31144 0.326628,0.51399 0.17863,0.20255 0.450233,0.55246 0.603559,0.77758 0.153329,0.22513 0.330669,0.41017 0.394092,0.41122 0.06342,0.001 0.343156,0.18303 0.62163,0.40439 0.278474,0.22137 0.628743,0.40248 0.778375,0.40248 0.149633,0 0.272058,0.0519 0.272058,0.11532 0,0.0634 0.181621,0.11532 0.403601,0.11532 0.221983,0 0.403603,0.0519 0.403603,0.11531 0,0.0716 0.63423,0.11531 1.672064,0.11531 1.037833,0 1.672063,-0.0437 1.672063,-0.11531 0,-0.0634 0.15638,-0.11531 0.347509,-0.11531 0.19113,0 0.437616,-0.0461 0.547746,-0.10254 0.11013,-0.0564 0.39833,-0.19909 0.640445,-0.31711 0.242115,-0.11802 0.538321,-0.3054 0.658238,-0.41639 0.119915,-0.11099 0.268052,-0.2018 0.329192,-0.2018 0.188706,0 2.204776,-2.05789 2.204776,-2.25051 0,-0.0318 0.137062,-0.21161 0.30458,-0.39962 0.302988,-0.34005 0.306459,-0.3408 0.663062,-0.14315 0.197162,0.10929 0.375774,0.23762 0.396917,0.28519 0.02114,0.0476 0.131543,0.0865 0.245338,0.0865 0.345958,0 0.475893,0.25808 0.292547,0.58108 -0.0886,0.15608 -0.253783,0.47837 -0.36708,0.71621 -0.113295,0.23784 -0.245642,0.43243 -0.294103,0.43243 -0.04846,0 -0.08811,0.0743 -0.08811,0.16502 0,0.20756 -2.37327,2.60343 -2.796153,2.82278 -0.1724,0.0894 -0.405141,0.24551 -0.5172,0.34687 -0.338802,0.30642 -0.819221,0.58604 -1.006896,0.58604 -0.09737,0 -0.177027,0.0519 -0.177027,0.11531 0,0.0634 -0.07363,0.11531 -0.163629,0.11531 -0.205777,0 -0.872498,0.37409 -0.873477,0.49009 -2.64e-4,0.0476 -0.153339,0.0865 -0.339865,0.0865 -0.186529,0 -0.37121,0.0519 -0.410408,0.11531 -0.0392,0.0634 -0.194874,0.11532 -0.345946,0.11532 -0.151072,0 -0.306744,0.0519 -0.345943,0.11531 -0.0392,0.0634 -0.29134,0.11532 -0.560318,0.11532 -0.268976,0 -0.553805,0.0649 -0.632955,0.14414 -0.181573,0.18187 -4.465278,0.23912 -5.14904,0.0688 z"
       id="path21"
       inkscape:connector-curvature="0" />
    <path
       style="fill:#b3b3b3;stroke:#f9f9f9;stroke-width:2.23765564"
       d="m 219.94346,187.61545 c 0.007,-0.25425 13.00392,-42.48291 28.88101,-93.841461 L 277.69189,0.39480305 286.94615,0.22508543 296.20042,0.05536781 285.19567,35.666031 c -6.05262,19.585864 -19.11927,61.890894 -29.037,94.011179 l -18.03224,58.40051 h -9.09828 c -5.00405,0 -9.09216,-0.20802 -9.08469,-0.46227 z"
       id="path69"
       inkscape:connector-curvature="0"
       transform="matrix(0.26458333,0,0,0.26458333,12.418716,109.53472)" />
    <path
       style="fill:#b3b3b3;stroke:#f9f9f9;stroke-width:2.23765564"
       d="M 383.2664,147.39768 V 127.67402 H 345.66818 308.06996 V 116.7937 105.91338 L 342.74045,53.022991 377.41094,0.13260311 391.43323,0.10961199 405.45552,0.08662092 V 54.634858 109.1831 h 12.0191 12.0191 v 9.24546 9.24546 h -12.0191 -12.0191 v 19.72366 19.72366 H 394.36096 383.2664 Z m 0,-83.024266 c 0,-27.581047 -0.22003,-44.584549 -0.57227,-44.224136 -0.77609,0.794086 -56.7496,88.282792 -56.7496,88.701752 0,0.18263 12.89742,0.33207 28.66093,0.33207 h 28.66094 z"
       id="path71"
       inkscape:connector-curvature="0"
       transform="matrix(0.26458333,0,0,0.26458333,12.418716,109.53472)" />
  </g>
</svg>
