<?xml version="1.0" encoding="UTF-8" standalone="no"?>
<!-- Created with Inkscape (http://www.inkscape.org/) -->

<svg
   version="1.1"
   id="svg560"
   width="378"
   height="981"
   viewBox="0 0 378 980.99997"
   sodipodi:docname="Manija.svg"
   xml:space="preserve"
   inkscape:version="1.2.2 (b0a8486541, 2022-12-01)"
   xmlns:inkscape="http://www.inkscape.org/namespaces/inkscape"
   xmlns:sodipodi="http://sodipodi.sourceforge.net/DTD/sodipodi-0.dtd"
   xmlns="http://www.w3.org/2000/svg"
   xmlns:svg="http://www.w3.org/2000/svg"><defs
     id="defs564" /><sodipodi:namedview
     id="namedview562"
     pagecolor="#ffffff"
     bordercolor="#666666"
     borderopacity="1.0"
     inkscape:showpageshadow="2"
     inkscape:pageopacity="0.0"
     inkscape:pagecheckerboard="0"
     inkscape:deskcolor="#d1d1d1"
     showgrid="false"
     inkscape:zoom="11.313709"
     inkscape:cx="246.11735"
     inkscape:cy="933.64611"
     inkscape:window-width="1863"
     inkscape:window-height="974"
     inkscape:window-x="5"
     inkscape:window-y="7"
     inkscape:window-maximized="0"
     inkscape:current-layer="g566" /><g
     inkscape:groupmode="layer"
     inkscape:label="Image"
     id="g566"
     transform="translate(-425.81546,4.1992755)"><path
       style="opacity:0.85;fill:#ececec"
       d="m 665.82939,954.42035 c -0.50259,-0.6875 -1.55443,-2.5261 -2.33741,-4.08589 -0.78298,-1.55977 -2.33936,-3.8333 -3.45863,-5.05229 -2.58283,-2.81297 -15.35607,-21.95957 -16.23134,-24.33015 -10.52954,-18.81064 -21.5296,-34.54379 -31.17645,-54.31943 -11.86924,-25.37768 -28.30899,-53.35032 -36.63108,-78.9622 -0.96844,-3.025 -2.10985,-5.95 -2.53647,-6.5 -22.2331,-58.54649 -41.24086,-128.75464 -48.61165,-181.75 -0.92259,-12.1736 -1.56896,-19.36743 -2.62809,-29.25 -0.66925,-21.75681 -4.17007,-42.69212 -5.48353,-63.50765 -0.48387,-27.47901 -0.73239,-55.49319 1.66238,-81.49235 2.43969,-18.18455 3.80916,-37.93852 6.59057,-54.63953 5.31415,-29.83031 8.81986,-47.9573 10.02967,-51.86047 0.76714,-2.475 1.68679,-6.3 2.04367,-8.5 0.35688,-2.2 1.54999,-7.375 2.65136,-11.5 1.10136,-4.125 2.37914,-9.3 2.83952,-11.5 3.73555,-17.3217 9.32625,-32.31443 14.48768,-47.783 2.04778,-6.16935 4.76396,-13.5795 6.03595,-16.467 1.27199,-2.8875 2.12016,-5.25 1.88482,-5.25 -0.23533,0 0.39016,-1.4625 1.38998,-3.25 0.99983,-1.7875 2.1524,-4.6 2.56127,-6.25 0.70241,-2.8346 6.78667,-18.14148 8.58735,-21.60423 1.121,-2.15569 9.2777,-17.52093 11.62307,-21.89501 1.03195,-1.92459 2.15476,-3.72459 2.49513,-4 0.34037,-0.27542 1.79432,-2.83141 3.23099,-5.67999 2.89334,-4.93688 5.83479,-10.23691 8.38896,-14.77619 1.99904,-4.19179 7.28395,-8.02545 15.11007,-0.94322 2.14429,1.94047 4.64139,5.4722 5.95274,5.65979 0.71867,0.1028 1.01166,-0.32209 1.09276,-0.55784 0.17443,-0.5071 -0.5871,-1.58764 -0.92585,-2.81307 -0.20923,-0.75689 -1.09448,-1.99812 -0.8342,-2.61728 1.5923,-3.78783 13.65256,0.39936 22.3229,11.68047 9.72018,12.64708 17.13291,15.52542 20.7228,8.04657 1.86517,-3.88573 6.74587,-19.82388 7.50258,-24.5 0.26701,-1.65 1.07519,-4.35 1.79596,-6 0.72077,-1.65 1.61213,-4.575 1.98082,-6.5 0.81458,-4.25315 5.08669,-16.93356 7.66094,-22.739104 1.03383,-2.33151 1.87968,-4.79696 1.87968,-5.47879 0,-0.68183 1.08478,-4.17423 2.41062,-7.7609 2.63368,-7.12466 7.58035,-23.894148 8.33945,-28.271208 0.26231,-1.5125 0.81472,-2.75 1.22757,-2.75 0.41285,0 1.5379,-2.1375 2.5001,-4.750004 0.96221,-2.6125 2.82334,-6.42785 4.13586,-8.47856 1.31252,-2.05071 2.3864,-4.25823 2.3864,-4.90561 0,-2.12448 8.08234,-11.86583 9.84501,-11.86583 0.46476,0 1.65154,-0.8912 2.63729,-1.98044 0.98575,-1.08925 3.27608,-2.25881 5.08962,-2.59903 1.81354,-0.34022 4.0715,-1.47402 5.0177,-2.51956 1.8493,-2.04345 3.94311,-2.46605 4.86087,-0.98108 0.31269,0.50594 -1.04139,7.14344 -3.00905,14.75 -1.96767,7.60656 -3.95373,15.85511 -4.41347,18.33011 -0.45975,2.475004 -1.76973,6.975004 -2.91108,10.000004 -1.86964,4.95522 -5.76421,19.437208 -12.69465,47.205062 -1.33223,5.33778 -2.43053,11.41278 -2.44067,13.5 -0.0179,3.67839 -1.89532,15.55013 -3.86543,24.44225 -0.5304,2.39398 -1.694,8.85269 -2.58577,14.35269 -0.89177,5.5 -1.77966,12.49827 -2.57587,15.41669 -1.83885,6.74011 -1.06691,6.7278 6.9554,7.60306 2.68232,0.92834 0.69253,17.61719 0.62222,18.93059 0.44881,1.48156 -4.43538,1.93413 -8.39309,1.95049 -3.40136,0.0141 -4.47282,1.27098 -4.95377,4.25488 -1.66874,10.35328 -1.33225,18.36001 -1.15478,24.83104 0.18557,6.76681 -0.83554,5.43687 -1.54685,9.98663 -0.2674,1.71036 -4.40778,2.72543 -5.10137,3.303 -5.02592,1.92559 -18.21172,-2.41186 -18.83429,-2.77638 -3.18075,-1.662 -6.31052,-3.80819 -8.16125,-4.56539 -2.14542,-0.60449 -2.1758,-0.67408 -3.38672,-1.20861 0,-1.92697 -9.09562,-0.42849 -12.97266,2.13721 -3.88643,2.57192 -11.02734,13.54746 -11.02734,16.94896 0,0.89099 -0.64215,3.09774 -1.427,4.9039 -1.43994,3.31373 -2.17145,5.44973 -2.49448,7.28393 -0.0969,0.55 -0.77014,1.9066 -1.49617,3.01467 -0.72604,1.10806 -1.6613,3.56829 -2.07836,5.46717 -0.41707,1.89888 -1.12498,4.14228 -1.57314,4.98534 -1.31329,2.47048 -6.82956,20.48302 -10.57555,34.53282 -3.23074,12.11732 -4.35268,16.63404 -6.33411,25.5 -0.43022,1.925 -1.72154,7.59293 -2.86962,12.59539 -18.33317,79.88242 -20.14455,174.55545 -5.02057,262.40461 1.56398,9.08456 7.63811,37.87902 8.75433,41.5 0.50864,1.65 1.46535,5.475 2.12603,8.5 0.66068,3.025 2.76594,10.675 4.67836,17 1.91242,6.325 3.69524,12.76057 3.96182,14.30127 0.26659,1.5407 1.38121,5.3657 2.47693,8.5 1.09573,3.1343 2.69526,7.94873 3.55451,10.69873 1.9326,6.18517 4.23304,12.44019 5.41968,14.73643 0.49354,0.95504 0.89734,2.38788 0.89734,3.18409 0,0.79621 1.09224,4.06481 2.42721,7.26357 1.33496,3.19875 3.88432,9.64091 5.66524,14.31591 7.60629,19.96689 15.9118,38.71497 28.95321,65.3562 l 8.05543,14.60383 -0.14748,6.09716 -9.49814,1.39024 -0.58612,28.6331 8.14646,-0.27997 c 6.25487,-0.21496 -0.58195,5.67721 5.88048,6.01879 2.08004,0.10994 3.09324,0.76554 2.79533,1.54189 -0.25802,0.6724 0.0933,1.99172 0.78073,2.93183 0.68742,0.94011 1.05017,2.75385 0.80612,4.03054 -0.25362,1.32674 0.87699,5.11659 2.6389,8.84567 1.8883,4.40766 2.73333,9.35688 2.9947,14.07735 -0.002,0.11659 0.59197,2.12842 1.44119,4.93754 2.17229,7.18571 11.17226,17.74478 11.00168,16.98649 -0.18569,-0.82548 -8.45926,2.59223 -10.14046,3.05774 -0.40119,0.11109 -2.31622,-4.6613 -4.43406,-8.31506 -0.44711,-0.77136 -3.5963,0.95023 -3.83359,0.0732 -1.1789,-4.35735 -4.01474,-12.79182 -4.25569,-12.74495 -2.30605,0.44864 -7.18586,-0.59373 -8.80623,4.85578 -0.58285,1.96023 1.35576,7.97245 1.59181,11.90267 1.2493,20.80041 -3.5266,28.70046 -7.14565,23.74996 z"
       id="path715"
       sodipodi:nodetypes="ssscccccccccsssccsssssssccsssssssssssssssssssssssssssssssccssssccccssssssssssssssssssssssccccsssssccssssssssss" /></g></svg>
