solid OpenSCAD_Model
  facet normal 0 1 0
    outer loop
      vertex 11.25 25.9 -7.4
      vertex 11.25 25.9 -14.9
      vertex 3.75 25.9 -7.4
    endloop
  endfacet
  facet normal 0 1 -0
    outer loop
      vertex 3.75 25.9 -7.4
      vertex -3.75 25.9 8.5
      vertex 3.75 25.9 8.5
    endloop
  endfacet
  facet normal 0 1 0
    outer loop
      vertex 3.75 25.9 -7.4
      vertex -3.75 25.9 -14.9
      vertex -3.75 25.9 8.5
    endloop
  endfacet
  facet normal 0 1 0
    outer loop
      vertex -3.75 25.9 -14.9
      vertex 3.75 25.9 -7.4
      vertex 11.25 25.9 -14.9
    endloop
  endfacet
  facet normal 1 0 0
    outer loop
      vertex 3.75 -17.8 -3.93541
      vertex 3.75 -18.2488 -3.99211
      vertex 3.75 -17.8 -4
    endloop
  endfacet
  facet normal 1 0 0
    outer loop
      vertex 3.75 25.9 8.5
      vertex 3.75 22.81 0
      vertex 3.75 25.9 -7.4
    endloop
  endfacet
  facet normal 1 0 0
    outer loop
      vertex 3.75 25.9 8.5
      vertex 3.75 22.7785 0.501332
      vertex 3.75 22.81 0
    endloop
  endfacet
  facet normal 1 0 0
    outer loop
      vertex 3.75 25.9 8.5
      vertex 3.75 22.6843 0.994759
      vertex 3.75 22.7785 0.501332
    endloop
  endfacet
  facet normal 1 0 0
    outer loop
      vertex 3.75 25.9 8.5
      vertex 3.75 22.5291 1.4725
      vertex 3.75 22.6843 0.994759
    endloop
  endfacet
  facet normal 1 0 0
    outer loop
      vertex 3.75 25.9 8.5
      vertex 3.75 22.3152 1.92701
      vertex 3.75 22.5291 1.4725
    endloop
  endfacet
  facet normal 1 0 0
    outer loop
      vertex 3.75 25.9 8.5
      vertex 3.75 22.0461 2.35114
      vertex 3.75 22.3152 1.92701
    endloop
  endfacet
  facet normal 1 0 0
    outer loop
      vertex 3.75 25.9 8.5
      vertex 3.75 21.7259 2.73819
      vertex 3.75 22.0461 2.35114
    endloop
  endfacet
  facet normal 1 0 0
    outer loop
      vertex 3.75 25.9 8.5
      vertex 3.75 21.3597 3.08205
      vertex 3.75 21.7259 2.73819
    endloop
  endfacet
  facet normal 1 0 0
    outer loop
      vertex 3.75 25.9 8.5
      vertex 3.75 20.9533 3.37731
      vertex 3.75 21.3597 3.08205
    endloop
  endfacet
  facet normal 1 0 0
    outer loop
      vertex 3.75 25.9 8.5
      vertex 3.75 20.5131 3.61931
      vertex 3.75 20.9533 3.37731
    endloop
  endfacet
  facet normal 1 0 0
    outer loop
      vertex 3.75 25.9 8.5
      vertex 3.75 20.0461 3.80423
      vertex 3.75 20.5131 3.61931
    endloop
  endfacet
  facet normal 1 0 0
    outer loop
      vertex 3.75 25.9 8.5
      vertex 3.75 19.5595 3.92915
      vertex 3.75 20.0461 3.80423
    endloop
  endfacet
  facet normal 1 0 0
    outer loop
      vertex 3.75 25.9 8.5
      vertex 3.75 19.0612 3.99211
      vertex 3.75 19.5595 3.92915
    endloop
  endfacet
  facet normal 1 0 0
    outer loop
      vertex 3.75 25.9 8.5
      vertex 3.75 18.5588 3.99211
      vertex 3.75 19.0612 3.99211
    endloop
  endfacet
  facet normal 1 -0 0
    outer loop
      vertex 3.75 17.8 4
      vertex 3.75 18.5588 3.99211
      vertex 3.75 25.9 8.5
    endloop
  endfacet
  facet normal 1 0 0
    outer loop
      vertex 3.75 18.5588 3.99211
      vertex 3.75 17.8 4
      vertex 3.75 18.0605 3.92915
    endloop
  endfacet
  facet normal 1 0 0
    outer loop
      vertex 3.75 25.9 8.5
      vertex 3.75 -17.8 4
      vertex 3.75 17.8 4
    endloop
  endfacet
  facet normal 1 0 0
    outer loop
      vertex 3.75 -17.8 4
      vertex 3.75 -18.2488 3.99211
      vertex 3.75 -17.8 3.93541
    endloop
  endfacet
  facet normal 1 -0 0
    outer loop
      vertex 3.75 -25.9 8.5
      vertex 3.75 -17.8 4
      vertex 3.75 25.9 8.5
    endloop
  endfacet
  facet normal 1 0 0
    outer loop
      vertex 3.75 -17.8 4
      vertex 3.75 -25.9 8.5
      vertex 3.75 -18.2488 3.99211
    endloop
  endfacet
  facet normal 1 0 0
    outer loop
      vertex 3.75 -22.4685 0.501332
      vertex 3.75 -25.9 8.5
      vertex 3.75 -22.5 0
    endloop
  endfacet
  facet normal 1 0 0
    outer loop
      vertex 3.75 -22.3743 0.994759
      vertex 3.75 -25.9 8.5
      vertex 3.75 -22.4685 0.501332
    endloop
  endfacet
  facet normal 1 0 0
    outer loop
      vertex 3.75 -22.2191 1.4725
      vertex 3.75 -25.9 8.5
      vertex 3.75 -22.3743 0.994759
    endloop
  endfacet
  facet normal 1 0 0
    outer loop
      vertex 3.75 -22.0052 1.92701
      vertex 3.75 -25.9 8.5
      vertex 3.75 -22.2191 1.4725
    endloop
  endfacet
  facet normal 1 0 0
    outer loop
      vertex 3.75 -21.7361 2.35114
      vertex 3.75 -25.9 8.5
      vertex 3.75 -22.0052 1.92701
    endloop
  endfacet
  facet normal 1 0 0
    outer loop
      vertex 3.75 -21.4159 2.73819
      vertex 3.75 -25.9 8.5
      vertex 3.75 -21.7361 2.35114
    endloop
  endfacet
  facet normal 1 0 0
    outer loop
      vertex 3.75 -21.0497 3.08205
      vertex 3.75 -25.9 8.5
      vertex 3.75 -21.4159 2.73819
    endloop
  endfacet
  facet normal 1 0 0
    outer loop
      vertex 3.75 -20.6433 3.37731
      vertex 3.75 -25.9 8.5
      vertex 3.75 -21.0497 3.08205
    endloop
  endfacet
  facet normal 1 0 0
    outer loop
      vertex 3.75 -20.2031 3.61931
      vertex 3.75 -25.9 8.5
      vertex 3.75 -20.6433 3.37731
    endloop
  endfacet
  facet normal 1 0 0
    outer loop
      vertex 3.75 -19.7361 3.80423
      vertex 3.75 -25.9 8.5
      vertex 3.75 -20.2031 3.61931
    endloop
  endfacet
  facet normal 1 0 0
    outer loop
      vertex 3.75 -19.2495 3.92915
      vertex 3.75 -25.9 8.5
      vertex 3.75 -19.7361 3.80423
    endloop
  endfacet
  facet normal 1 0 0
    outer loop
      vertex 3.75 -18.7512 3.99211
      vertex 3.75 -25.9 8.5
      vertex 3.75 -19.2495 3.92915
    endloop
  endfacet
  facet normal 1 0 0
    outer loop
      vertex 3.75 -18.2488 3.99211
      vertex 3.75 -25.9 8.5
      vertex 3.75 -18.7512 3.99211
    endloop
  endfacet
  facet normal 1 -0 0
    outer loop
      vertex 3.75 22.7785 -0.501332
      vertex 3.75 25.9 -7.4
      vertex 3.75 22.81 0
    endloop
  endfacet
  facet normal 1 -0 0
    outer loop
      vertex 3.75 22.6843 -0.994759
      vertex 3.75 25.9 -7.4
      vertex 3.75 22.7785 -0.501332
    endloop
  endfacet
  facet normal 1 -0 0
    outer loop
      vertex 3.75 22.5291 -1.4725
      vertex 3.75 25.9 -7.4
      vertex 3.75 22.6843 -0.994759
    endloop
  endfacet
  facet normal 1 -0 0
    outer loop
      vertex 3.75 22.3152 -1.92701
      vertex 3.75 25.9 -7.4
      vertex 3.75 22.5291 -1.4725
    endloop
  endfacet
  facet normal 1 -0 0
    outer loop
      vertex 3.75 22.0461 -2.35114
      vertex 3.75 25.9 -7.4
      vertex 3.75 22.3152 -1.92701
    endloop
  endfacet
  facet normal 1 -0 0
    outer loop
      vertex 3.75 21.7259 -2.73819
      vertex 3.75 25.9 -7.4
      vertex 3.75 22.0461 -2.35114
    endloop
  endfacet
  facet normal 1 -0 0
    outer loop
      vertex 3.75 21.3597 -3.08205
      vertex 3.75 25.9 -7.4
      vertex 3.75 21.7259 -2.73819
    endloop
  endfacet
  facet normal 1 -0 0
    outer loop
      vertex 3.75 20.9533 -3.37731
      vertex 3.75 25.9 -7.4
      vertex 3.75 21.3597 -3.08205
    endloop
  endfacet
  facet normal 1 -0 0
    outer loop
      vertex 3.75 20.5131 -3.61931
      vertex 3.75 25.9 -7.4
      vertex 3.75 20.9533 -3.37731
    endloop
  endfacet
  facet normal 1 -0 0
    outer loop
      vertex 3.75 20.0461 -3.80423
      vertex 3.75 25.9 -7.4
      vertex 3.75 20.5131 -3.61931
    endloop
  endfacet
  facet normal 1 -0 0
    outer loop
      vertex 3.75 19.5595 -3.92915
      vertex 3.75 25.9 -7.4
      vertex 3.75 20.0461 -3.80423
    endloop
  endfacet
  facet normal 1 -0 0
    outer loop
      vertex 3.75 19.0612 -3.99211
      vertex 3.75 25.9 -7.4
      vertex 3.75 19.5595 -3.92915
    endloop
  endfacet
  facet normal 1 -0 0
    outer loop
      vertex 3.75 18.5588 -3.99211
      vertex 3.75 25.9 -7.4
      vertex 3.75 19.0612 -3.99211
    endloop
  endfacet
  facet normal 1 0 0
    outer loop
      vertex 3.75 17.8 -4
      vertex 3.75 18.5588 -3.99211
      vertex 3.75 18.0605 -3.92915
    endloop
  endfacet
  facet normal 1 0 0
    outer loop
      vertex 3.75 17.8 -4
      vertex 3.75 18.0605 -3.92915
      vertex 3.75 17.8 -3.86227
    endloop
  endfacet
  facet normal 1 0 0
    outer loop
      vertex 3.75 18.5588 -3.99211
      vertex 3.75 17.8 -4
      vertex 3.75 25.9 -7.4
    endloop
  endfacet
  facet normal 1 -0 0
    outer loop
      vertex 3.75 -17.8 -4
      vertex 3.75 25.9 -7.4
      vertex 3.75 17.8 -4
    endloop
  endfacet
  facet normal 1 0 0
    outer loop
      vertex 3.75 -25.9 -7.4
      vertex 3.75 -17.8 -4
      vertex 3.75 -18.2488 -3.99211
    endloop
  endfacet
  facet normal 1 0 0
    outer loop
      vertex 3.75 -25.9 -7.4
      vertex 3.75 -18.2488 -3.99211
      vertex 3.75 -18.7512 -3.99211
    endloop
  endfacet
  facet normal 1 0 0
    outer loop
      vertex 3.75 -25.9 -7.4
      vertex 3.75 -22.5 0
      vertex 3.75 -25.9 8.5
    endloop
  endfacet
  facet normal 1 0 0
    outer loop
      vertex 3.75 -22.5 0
      vertex 3.75 -25.9 -7.4
      vertex 3.75 -22.4685 -0.501332
    endloop
  endfacet
  facet normal 1 0 0
    outer loop
      vertex 3.75 -22.4685 -0.501332
      vertex 3.75 -25.9 -7.4
      vertex 3.75 -22.3743 -0.994759
    endloop
  endfacet
  facet normal 1 0 0
    outer loop
      vertex 3.75 -17.8 -4
      vertex 3.75 -25.9 -7.4
      vertex 3.75 25.9 -7.4
    endloop
  endfacet
  facet normal 1 0 0
    outer loop
      vertex 3.75 -19.2495 -3.92915
      vertex 3.75 -25.9 -7.4
      vertex 3.75 -18.7512 -3.99211
    endloop
  endfacet
  facet normal 1 0 0
    outer loop
      vertex 3.75 -19.7361 -3.80423
      vertex 3.75 -25.9 -7.4
      vertex 3.75 -19.2495 -3.92915
    endloop
  endfacet
  facet normal 1 0 0
    outer loop
      vertex 3.75 -20.2031 -3.61931
      vertex 3.75 -25.9 -7.4
      vertex 3.75 -19.7361 -3.80423
    endloop
  endfacet
  facet normal 1 0 0
    outer loop
      vertex 3.75 -20.6433 -3.37731
      vertex 3.75 -25.9 -7.4
      vertex 3.75 -20.2031 -3.61931
    endloop
  endfacet
  facet normal 1 0 0
    outer loop
      vertex 3.75 -21.0497 -3.08205
      vertex 3.75 -25.9 -7.4
      vertex 3.75 -20.6433 -3.37731
    endloop
  endfacet
  facet normal 1 0 0
    outer loop
      vertex 3.75 -21.4159 -2.73819
      vertex 3.75 -25.9 -7.4
      vertex 3.75 -21.0497 -3.08205
    endloop
  endfacet
  facet normal 1 0 0
    outer loop
      vertex 3.75 -21.7361 -2.35114
      vertex 3.75 -25.9 -7.4
      vertex 3.75 -21.4159 -2.73819
    endloop
  endfacet
  facet normal 1 0 0
    outer loop
      vertex 3.75 -22.0052 -1.92701
      vertex 3.75 -25.9 -7.4
      vertex 3.75 -21.7361 -2.35114
    endloop
  endfacet
  facet normal 1 0 0
    outer loop
      vertex 3.75 -22.2191 -1.4725
      vertex 3.75 -25.9 -7.4
      vertex 3.75 -22.0052 -1.92701
    endloop
  endfacet
  facet normal 1 0 0
    outer loop
      vertex 3.75 -22.3743 -0.994759
      vertex 3.75 -25.9 -7.4
      vertex 3.75 -22.2191 -1.4725
    endloop
  endfacet
  facet normal 1 0 0
    outer loop
      vertex 3.75 18.0605 3.92915
      vertex 3.75 17.8 4
      vertex 3.75 17.8 3.86227
    endloop
  endfacet
  facet normal -1 0 0
    outer loop
      vertex -3.75 -17.8 3.93541
      vertex -3.75 -18.2488 3.99211
      vertex -3.75 -17.8 4
    endloop
  endfacet
  facet normal -1 0 0
    outer loop
      vertex -3.75 22.7785 -0.501332
      vertex -3.75 25.9 8.5
      vertex -3.75 25.9 -14.9
    endloop
  endfacet
  facet normal -1 0 0
    outer loop
      vertex -3.75 25.9 8.5
      vertex -3.75 22.7785 -0.501332
      vertex -3.75 22.81 0
    endloop
  endfacet
  facet normal -1 0 0
    outer loop
      vertex -3.75 25.9 -14.9
      vertex -3.75 22.6843 -0.994759
      vertex -3.75 22.7785 -0.501332
    endloop
  endfacet
  facet normal -1 0 0
    outer loop
      vertex -3.75 25.9 -14.9
      vertex -3.75 22.5291 -1.4725
      vertex -3.75 22.6843 -0.994759
    endloop
  endfacet
  facet normal -1 0 0
    outer loop
      vertex -3.75 25.9 -14.9
      vertex -3.75 22.3152 -1.92701
      vertex -3.75 22.5291 -1.4725
    endloop
  endfacet
  facet normal -1 0 0
    outer loop
      vertex -3.75 25.9 -14.9
      vertex -3.75 22.0461 -2.35114
      vertex -3.75 22.3152 -1.92701
    endloop
  endfacet
  facet normal -1 0 0
    outer loop
      vertex -3.75 25.9 -14.9
      vertex -3.75 21.7259 -2.73819
      vertex -3.75 22.0461 -2.35114
    endloop
  endfacet
  facet normal -1 0 0
    outer loop
      vertex -3.75 25.9 -14.9
      vertex -3.75 21.3597 -3.08205
      vertex -3.75 21.7259 -2.73819
    endloop
  endfacet
  facet normal -1 0 0
    outer loop
      vertex -3.75 25.9 -14.9
      vertex -3.75 20.9533 -3.37731
      vertex -3.75 21.3597 -3.08205
    endloop
  endfacet
  facet normal -1 0 0
    outer loop
      vertex -3.75 25.9 -14.9
      vertex -3.75 20.5131 -3.61931
      vertex -3.75 20.9533 -3.37731
    endloop
  endfacet
  facet normal -1 0 0
    outer loop
      vertex -3.75 25.9 -14.9
      vertex -3.75 20.0461 -3.80423
      vertex -3.75 20.5131 -3.61931
    endloop
  endfacet
  facet normal -1 0 0
    outer loop
      vertex -3.75 25.9 -14.9
      vertex -3.75 19.5595 -3.92915
      vertex -3.75 20.0461 -3.80423
    endloop
  endfacet
  facet normal -1 0 0
    outer loop
      vertex -3.75 25.9 -14.9
      vertex -3.75 19.0612 -3.99211
      vertex -3.75 19.5595 -3.92915
    endloop
  endfacet
  facet normal -1 0 0
    outer loop
      vertex -3.75 25.9 -14.9
      vertex -3.75 18.5588 -3.99211
      vertex -3.75 19.0612 -3.99211
    endloop
  endfacet
  facet normal -1 0 0
    outer loop
      vertex -3.75 17.8 -4
      vertex -3.75 18.5588 -3.99211
      vertex -3.75 25.9 -14.9
    endloop
  endfacet
  facet normal -1 -0 0
    outer loop
      vertex -3.75 18.5588 -3.99211
      vertex -3.75 17.8 -4
      vertex -3.75 18.0605 -3.92915
    endloop
  endfacet
  facet normal -1 0 0
    outer loop
      vertex -3.75 25.9 -14.9
      vertex -3.75 -17.8 -4
      vertex -3.75 17.8 -4
    endloop
  endfacet
  facet normal -1 0 0
    outer loop
      vertex -3.75 -17.8 -4
      vertex -3.75 -18.2488 -3.99211
      vertex -3.75 -17.8 -3.93541
    endloop
  endfacet
  facet normal -1 0 0
    outer loop
      vertex -3.75 -25.9 -14.9
      vertex -3.75 -17.8 -4
      vertex -3.75 25.9 -14.9
    endloop
  endfacet
  facet normal -1 -0 0
    outer loop
      vertex -3.75 -17.8 -4
      vertex -3.75 -25.9 -14.9
      vertex -3.75 -18.2488 -3.99211
    endloop
  endfacet
  facet normal -1 -0 0
    outer loop
      vertex -3.75 -18.2488 -3.99211
      vertex -3.75 -25.9 -14.9
      vertex -3.75 -18.7512 -3.99211
    endloop
  endfacet
  facet normal -1 0 0
    outer loop
      vertex -3.75 -25.9 8.5
      vertex -3.75 -22.4685 -0.501332
      vertex -3.75 -25.9 -14.9
    endloop
  endfacet
  facet normal -1 -0 0
    outer loop
      vertex -3.75 -22.3743 -0.994759
      vertex -3.75 -25.9 -14.9
      vertex -3.75 -22.4685 -0.501332
    endloop
  endfacet
  facet normal -1 -0 0
    outer loop
      vertex -3.75 -22.2191 -1.4725
      vertex -3.75 -25.9 -14.9
      vertex -3.75 -22.3743 -0.994759
    endloop
  endfacet
  facet normal -1 -0 0
    outer loop
      vertex -3.75 -22.0052 -1.92701
      vertex -3.75 -25.9 -14.9
      vertex -3.75 -22.2191 -1.4725
    endloop
  endfacet
  facet normal -1 -0 0
    outer loop
      vertex -3.75 -21.7361 -2.35114
      vertex -3.75 -25.9 -14.9
      vertex -3.75 -22.0052 -1.92701
    endloop
  endfacet
  facet normal -1 -0 0
    outer loop
      vertex -3.75 -21.4159 -2.73819
      vertex -3.75 -25.9 -14.9
      vertex -3.75 -21.7361 -2.35114
    endloop
  endfacet
  facet normal -1 -0 0
    outer loop
      vertex -3.75 -21.0497 -3.08205
      vertex -3.75 -25.9 -14.9
      vertex -3.75 -21.4159 -2.73819
    endloop
  endfacet
  facet normal -1 -0 0
    outer loop
      vertex -3.75 -20.6433 -3.37731
      vertex -3.75 -25.9 -14.9
      vertex -3.75 -21.0497 -3.08205
    endloop
  endfacet
  facet normal -1 -0 0
    outer loop
      vertex -3.75 -20.2031 -3.61931
      vertex -3.75 -25.9 -14.9
      vertex -3.75 -20.6433 -3.37731
    endloop
  endfacet
  facet normal -1 -0 0
    outer loop
      vertex -3.75 -19.7361 -3.80423
      vertex -3.75 -25.9 -14.9
      vertex -3.75 -20.2031 -3.61931
    endloop
  endfacet
  facet normal -1 -0 0
    outer loop
      vertex -3.75 -19.2495 -3.92915
      vertex -3.75 -25.9 -14.9
      vertex -3.75 -19.7361 -3.80423
    endloop
  endfacet
  facet normal -1 -0 0
    outer loop
      vertex -3.75 -18.7512 -3.99211
      vertex -3.75 -25.9 -14.9
      vertex -3.75 -19.2495 -3.92915
    endloop
  endfacet
  facet normal -1 0 0
    outer loop
      vertex -3.75 22.7785 0.501332
      vertex -3.75 25.9 8.5
      vertex -3.75 22.81 0
    endloop
  endfacet
  facet normal -1 0 0
    outer loop
      vertex -3.75 22.6843 0.994759
      vertex -3.75 25.9 8.5
      vertex -3.75 22.7785 0.501332
    endloop
  endfacet
  facet normal -1 0 0
    outer loop
      vertex -3.75 22.5291 1.4725
      vertex -3.75 25.9 8.5
      vertex -3.75 22.6843 0.994759
    endloop
  endfacet
  facet normal -1 0 0
    outer loop
      vertex -3.75 22.3152 1.92701
      vertex -3.75 25.9 8.5
      vertex -3.75 22.5291 1.4725
    endloop
  endfacet
  facet normal -1 0 0
    outer loop
      vertex -3.75 22.0461 2.35114
      vertex -3.75 25.9 8.5
      vertex -3.75 22.3152 1.92701
    endloop
  endfacet
  facet normal -1 0 0
    outer loop
      vertex -3.75 21.7259 2.73819
      vertex -3.75 25.9 8.5
      vertex -3.75 22.0461 2.35114
    endloop
  endfacet
  facet normal -1 0 0
    outer loop
      vertex -3.75 21.3597 3.08205
      vertex -3.75 25.9 8.5
      vertex -3.75 21.7259 2.73819
    endloop
  endfacet
  facet normal -1 0 0
    outer loop
      vertex -3.75 20.9533 3.37731
      vertex -3.75 25.9 8.5
      vertex -3.75 21.3597 3.08205
    endloop
  endfacet
  facet normal -1 0 0
    outer loop
      vertex -3.75 20.5131 3.61931
      vertex -3.75 25.9 8.5
      vertex -3.75 20.9533 3.37731
    endloop
  endfacet
  facet normal -1 0 0
    outer loop
      vertex -3.75 20.0461 3.80423
      vertex -3.75 25.9 8.5
      vertex -3.75 20.5131 3.61931
    endloop
  endfacet
  facet normal -1 0 0
    outer loop
      vertex -3.75 19.5595 3.92915
      vertex -3.75 25.9 8.5
      vertex -3.75 20.0461 3.80423
    endloop
  endfacet
  facet normal -1 0 0
    outer loop
      vertex -3.75 19.0612 3.99211
      vertex -3.75 25.9 8.5
      vertex -3.75 19.5595 3.92915
    endloop
  endfacet
  facet normal -1 0 0
    outer loop
      vertex -3.75 18.5588 3.99211
      vertex -3.75 25.9 8.5
      vertex -3.75 19.0612 3.99211
    endloop
  endfacet
  facet normal -1 0 0
    outer loop
      vertex -3.75 17.8 4
      vertex -3.75 18.5588 3.99211
      vertex -3.75 18.0605 3.92915
    endloop
  endfacet
  facet normal -1 0 0
    outer loop
      vertex -3.75 17.8 4
      vertex -3.75 18.0605 3.92915
      vertex -3.75 17.8 3.86227
    endloop
  endfacet
  facet normal -1 0 0
    outer loop
      vertex -3.75 18.5588 3.99211
      vertex -3.75 17.8 4
      vertex -3.75 25.9 8.5
    endloop
  endfacet
  facet normal -1 0 0
    outer loop
      vertex -3.75 -17.8 4
      vertex -3.75 25.9 8.5
      vertex -3.75 17.8 4
    endloop
  endfacet
  facet normal -1 0 0
    outer loop
      vertex -3.75 -25.9 8.5
      vertex -3.75 -17.8 4
      vertex -3.75 -18.2488 3.99211
    endloop
  endfacet
  facet normal -1 0 0
    outer loop
      vertex -3.75 -25.9 8.5
      vertex -3.75 -18.2488 3.99211
      vertex -3.75 -18.7512 3.99211
    endloop
  endfacet
  facet normal -1 0 0
    outer loop
      vertex -3.75 -22.4685 -0.501332
      vertex -3.75 -25.9 8.5
      vertex -3.75 -22.5 0
    endloop
  endfacet
  facet normal -1 0 0
    outer loop
      vertex -3.75 -22.5 0
      vertex -3.75 -25.9 8.5
      vertex -3.75 -22.4685 0.501332
    endloop
  endfacet
  facet normal -1 0 0
    outer loop
      vertex -3.75 -17.8 4
      vertex -3.75 -25.9 8.5
      vertex -3.75 25.9 8.5
    endloop
  endfacet
  facet normal -1 0 0
    outer loop
      vertex -3.75 -19.2495 3.92915
      vertex -3.75 -25.9 8.5
      vertex -3.75 -18.7512 3.99211
    endloop
  endfacet
  facet normal -1 0 0
    outer loop
      vertex -3.75 -19.7361 3.80423
      vertex -3.75 -25.9 8.5
      vertex -3.75 -19.2495 3.92915
    endloop
  endfacet
  facet normal -1 0 0
    outer loop
      vertex -3.75 -20.2031 3.61931
      vertex -3.75 -25.9 8.5
      vertex -3.75 -19.7361 3.80423
    endloop
  endfacet
  facet normal -1 0 0
    outer loop
      vertex -3.75 -20.6433 3.37731
      vertex -3.75 -25.9 8.5
      vertex -3.75 -20.2031 3.61931
    endloop
  endfacet
  facet normal -1 0 0
    outer loop
      vertex -3.75 -21.0497 3.08205
      vertex -3.75 -25.9 8.5
      vertex -3.75 -20.6433 3.37731
    endloop
  endfacet
  facet normal -1 0 0
    outer loop
      vertex -3.75 -21.4159 2.73819
      vertex -3.75 -25.9 8.5
      vertex -3.75 -21.0497 3.08205
    endloop
  endfacet
  facet normal -1 0 0
    outer loop
      vertex -3.75 -21.7361 2.35114
      vertex -3.75 -25.9 8.5
      vertex -3.75 -21.4159 2.73819
    endloop
  endfacet
  facet normal -1 0 0
    outer loop
      vertex -3.75 -22.0052 1.92701
      vertex -3.75 -25.9 8.5
      vertex -3.75 -21.7361 2.35114
    endloop
  endfacet
  facet normal -1 0 0
    outer loop
      vertex -3.75 -22.2191 1.4725
      vertex -3.75 -25.9 8.5
      vertex -3.75 -22.0052 1.92701
    endloop
  endfacet
  facet normal -1 0 0
    outer loop
      vertex -3.75 -22.3743 0.994759
      vertex -3.75 -25.9 8.5
      vertex -3.75 -22.2191 1.4725
    endloop
  endfacet
  facet normal -1 0 0
    outer loop
      vertex -3.75 -22.4685 0.501332
      vertex -3.75 -25.9 8.5
      vertex -3.75 -22.3743 0.994759
    endloop
  endfacet
  facet normal -1 -0 0
    outer loop
      vertex -3.75 18.0605 -3.92915
      vertex -3.75 17.8 -4
      vertex -3.75 17.8 -3.86227
    endloop
  endfacet
  facet normal 0 -1 0
    outer loop
      vertex -3.75 -25.9 8.5
      vertex 3.75 -25.9 -7.4
      vertex 3.75 -25.9 8.5
    endloop
  endfacet
  facet normal 0 -1 0
    outer loop
      vertex -3.75 -25.9 -14.9
      vertex 3.75 -25.9 -7.4
      vertex -3.75 -25.9 8.5
    endloop
  endfacet
  facet normal 0 -1 0
    outer loop
      vertex 11.25 -25.9 -14.9
      vertex 3.75 -25.9 -7.4
      vertex -3.75 -25.9 -14.9
    endloop
  endfacet
  facet normal 0 -1 0
    outer loop
      vertex 3.75 -25.9 -7.4
      vertex 11.25 -25.9 -14.9
      vertex 11.25 -25.9 -7.4
    endloop
  endfacet
  facet normal -0 0 1
    outer loop
      vertex -3.75 25.9 8.5
      vertex 3.75 -25.9 8.5
      vertex 3.75 25.9 8.5
    endloop
  endfacet
  facet normal 0 0 1
    outer loop
      vertex 3.75 -25.9 8.5
      vertex -3.75 25.9 8.5
      vertex -3.75 -25.9 8.5
    endloop
  endfacet
  facet normal 0 0.368162 -0.929762
    outer loop
      vertex -3.75 -20.2031 3.61931
      vertex 3.75 -19.7361 3.80423
      vertex 3.75 -20.2031 3.61931
    endloop
  endfacet
  facet normal 0 0.368162 -0.929762
    outer loop
      vertex 3.75 -19.7361 3.80423
      vertex -3.75 -20.2031 3.61931
      vertex -3.75 -19.7361 3.80423
    endloop
  endfacet
  facet normal 0 0.248657 -0.968592
    outer loop
      vertex -3.75 -19.7361 3.80423
      vertex 3.75 -19.2495 3.92915
      vertex 3.75 -19.7361 3.80423
    endloop
  endfacet
  facet normal 0 0.248657 -0.968592
    outer loop
      vertex 3.75 -19.2495 3.92915
      vertex -3.75 -19.7361 3.80423
      vertex -3.75 -19.2495 3.92915
    endloop
  endfacet
  facet normal 0 0.98226 -0.187523
    outer loop
      vertex 3.75 -22.4685 0.501332
      vertex -3.75 -22.3743 0.994759
      vertex 3.75 -22.3743 0.994759
    endloop
  endfacet
  facet normal 0 0.98226 -0.187523
    outer loop
      vertex -3.75 -22.3743 0.994759
      vertex 3.75 -22.4685 0.501332
      vertex -3.75 -22.4685 0.501332
    endloop
  endfacet
  facet normal -0 0 1
    outer loop
      vertex -3.75 -18.2488 -3.99211
      vertex 3.75 -18.7512 -3.99211
      vertex 3.75 -18.2488 -3.99211
    endloop
  endfacet
  facet normal 0 0 1
    outer loop
      vertex 3.75 -18.7512 -3.99211
      vertex -3.75 -18.2488 -3.99211
      vertex -3.75 -18.7512 -3.99211
    endloop
  endfacet
  facet normal 0 0.998032 0.062709
    outer loop
      vertex 3.75 -22.4685 -0.501332
      vertex -3.75 -22.5 0
      vertex 3.75 -22.5 0
    endloop
  endfacet
  facet normal 0 0.998032 0.062709
    outer loop
      vertex -3.75 -22.5 0
      vertex 3.75 -22.4685 -0.501332
      vertex -3.75 -22.4685 -0.501332
    endloop
  endfacet
  facet normal -0 0.684521 0.728993
    outer loop
      vertex -3.75 -21.0497 -3.08205
      vertex 3.75 -21.4159 -2.73819
      vertex 3.75 -21.0497 -3.08205
    endloop
  endfacet
  facet normal 0 0.684521 0.728993
    outer loop
      vertex 3.75 -21.4159 -2.73819
      vertex -3.75 -21.0497 -3.08205
      vertex -3.75 -21.4159 -2.73819
    endloop
  endfacet
  facet normal 0 0.904809 0.425818
    outer loop
      vertex 3.75 -22.0052 -1.92701
      vertex -3.75 -22.2191 -1.4725
      vertex 3.75 -22.2191 -1.4725
    endloop
  endfacet
  facet normal 0 0.904809 0.425818
    outer loop
      vertex -3.75 -22.2191 -1.4725
      vertex 3.75 -22.0052 -1.92701
      vertex -3.75 -22.0052 -1.92701
    endloop
  endfacet
  facet normal 0 0.98226 0.187523
    outer loop
      vertex 3.75 -22.3743 -0.994759
      vertex -3.75 -22.4685 -0.501332
      vertex 3.75 -22.4685 -0.501332
    endloop
  endfacet
  facet normal 0 0.98226 0.187523
    outer loop
      vertex -3.75 -22.4685 -0.501332
      vertex 3.75 -22.3743 -0.994759
      vertex -3.75 -22.3743 -0.994759
    endloop
  endfacet
  facet normal 0 0.684521 -0.728993
    outer loop
      vertex -3.75 -21.4159 2.73819
      vertex 3.75 -21.0497 3.08205
      vertex 3.75 -21.4159 2.73819
    endloop
  endfacet
  facet normal 0 0.684521 -0.728993
    outer loop
      vertex 3.75 -21.0497 3.08205
      vertex -3.75 -21.4159 2.73819
      vertex -3.75 -21.0497 3.08205
    endloop
  endfacet
  facet normal 0 -0.125341 0.992114
    outer loop
      vertex -3.75 -17.8 -3.93541
      vertex 3.75 -18.2488 -3.99211
      vertex 3.75 -17.8 -3.93541
    endloop
  endfacet
  facet normal 0 -0.125341 0.992114
    outer loop
      vertex 3.75 -18.2488 -3.99211
      vertex -3.75 -17.8 -3.93541
      vertex -3.75 -18.2488 -3.99211
    endloop
  endfacet
  facet normal -0 0.248657 0.968592
    outer loop
      vertex -3.75 -19.2495 -3.92915
      vertex 3.75 -19.7361 -3.80423
      vertex 3.75 -19.2495 -3.92915
    endloop
  endfacet
  facet normal 0 0.248657 0.968592
    outer loop
      vertex 3.75 -19.7361 -3.80423
      vertex -3.75 -19.2495 -3.92915
      vertex -3.75 -19.7361 -3.80423
    endloop
  endfacet
  facet normal 0 0.481751 -0.876308
    outer loop
      vertex -3.75 -20.6433 3.37731
      vertex 3.75 -20.2031 3.61931
      vertex 3.75 -20.6433 3.37731
    endloop
  endfacet
  facet normal 0 0.481751 -0.876308
    outer loop
      vertex 3.75 -20.2031 3.61931
      vertex -3.75 -20.6433 3.37731
      vertex -3.75 -20.2031 3.61931
    endloop
  endfacet
  facet normal 0 0.125353 -0.992112
    outer loop
      vertex -3.75 -19.2495 3.92915
      vertex 3.75 -18.7512 3.99211
      vertex 3.75 -19.2495 3.92915
    endloop
  endfacet
  facet normal 0 0.125353 -0.992112
    outer loop
      vertex 3.75 -18.7512 3.99211
      vertex -3.75 -19.2495 3.92915
      vertex -3.75 -18.7512 3.99211
    endloop
  endfacet
  facet normal 0 0.951073 -0.308968
    outer loop
      vertex 3.75 -22.3743 0.994759
      vertex -3.75 -22.2191 1.4725
      vertex 3.75 -22.2191 1.4725
    endloop
  endfacet
  facet normal 0 0.951073 -0.308968
    outer loop
      vertex -3.75 -22.2191 1.4725
      vertex 3.75 -22.3743 0.994759
      vertex -3.75 -22.3743 0.994759
    endloop
  endfacet
  facet normal -0 0.587776 0.809024
    outer loop
      vertex -3.75 -20.6433 -3.37731
      vertex 3.75 -21.0497 -3.08205
      vertex 3.75 -20.6433 -3.37731
    endloop
  endfacet
  facet normal 0 0.587776 0.809024
    outer loop
      vertex 3.75 -21.0497 -3.08205
      vertex -3.75 -20.6433 -3.37731
      vertex -3.75 -21.0497 -3.08205
    endloop
  endfacet
  facet normal 0 0.844383 0.53574
    outer loop
      vertex 3.75 -21.7361 -2.35114
      vertex -3.75 -22.0052 -1.92701
      vertex 3.75 -22.0052 -1.92701
    endloop
  endfacet
  facet normal 0 0.844383 0.53574
    outer loop
      vertex -3.75 -22.0052 -1.92701
      vertex 3.75 -21.7361 -2.35114
      vertex -3.75 -21.7361 -2.35114
    endloop
  endfacet
  facet normal 0 0.951073 0.308968
    outer loop
      vertex 3.75 -22.2191 -1.4725
      vertex -3.75 -22.3743 -0.994759
      vertex 3.75 -22.3743 -0.994759
    endloop
  endfacet
  facet normal 0 0.951073 0.308968
    outer loop
      vertex -3.75 -22.3743 -0.994759
      vertex 3.75 -22.2191 -1.4725
      vertex -3.75 -22.2191 -1.4725
    endloop
  endfacet
  facet normal 0 0.770509 -0.637429
    outer loop
      vertex 3.75 -21.7361 2.35114
      vertex -3.75 -21.4159 2.73819
      vertex 3.75 -21.4159 2.73819
    endloop
  endfacet
  facet normal 0 0.770509 -0.637429
    outer loop
      vertex -3.75 -21.4159 2.73819
      vertex 3.75 -21.7361 2.35114
      vertex -3.75 -21.7361 2.35114
    endloop
  endfacet
  facet normal 0 0.770509 0.637429
    outer loop
      vertex 3.75 -21.4159 -2.73819
      vertex -3.75 -21.7361 -2.35114
      vertex 3.75 -21.7361 -2.35114
    endloop
  endfacet
  facet normal 0 0.770509 0.637429
    outer loop
      vertex -3.75 -21.7361 -2.35114
      vertex 3.75 -21.4159 -2.73819
      vertex -3.75 -21.4159 -2.73819
    endloop
  endfacet
  facet normal 0 0.998032 -0.062709
    outer loop
      vertex 3.75 -22.5 0
      vertex -3.75 -22.4685 0.501332
      vertex 3.75 -22.4685 0.501332
    endloop
  endfacet
  facet normal 0 0.998032 -0.062709
    outer loop
      vertex -3.75 -22.4685 0.501332
      vertex 3.75 -22.5 0
      vertex -3.75 -22.5 0
    endloop
  endfacet
  facet normal 0 0.587776 -0.809024
    outer loop
      vertex -3.75 -21.0497 3.08205
      vertex 3.75 -20.6433 3.37731
      vertex 3.75 -21.0497 3.08205
    endloop
  endfacet
  facet normal 0 0.587776 -0.809024
    outer loop
      vertex 3.75 -20.6433 3.37731
      vertex -3.75 -21.0497 3.08205
      vertex -3.75 -20.6433 3.37731
    endloop
  endfacet
  facet normal -0 0.125353 0.992112
    outer loop
      vertex -3.75 -18.7512 -3.99211
      vertex 3.75 -19.2495 -3.92915
      vertex 3.75 -18.7512 -3.99211
    endloop
  endfacet
  facet normal 0 0.125353 0.992112
    outer loop
      vertex 3.75 -19.2495 -3.92915
      vertex -3.75 -18.7512 -3.99211
      vertex -3.75 -19.2495 -3.92915
    endloop
  endfacet
  facet normal 0 -0.125341 -0.992114
    outer loop
      vertex -3.75 -18.2488 3.99211
      vertex 3.75 -17.8 3.93541
      vertex 3.75 -18.2488 3.99211
    endloop
  endfacet
  facet normal -0 -0.125341 -0.992114
    outer loop
      vertex 3.75 -17.8 3.93541
      vertex -3.75 -18.2488 3.99211
      vertex -3.75 -17.8 3.93541
    endloop
  endfacet
  facet normal -0 0.481751 0.876308
    outer loop
      vertex -3.75 -20.2031 -3.61931
      vertex 3.75 -20.6433 -3.37731
      vertex 3.75 -20.2031 -3.61931
    endloop
  endfacet
  facet normal 0 0.481751 0.876308
    outer loop
      vertex 3.75 -20.6433 -3.37731
      vertex -3.75 -20.2031 -3.61931
      vertex -3.75 -20.6433 -3.37731
    endloop
  endfacet
  facet normal 0 0 -1
    outer loop
      vertex -3.75 -18.7512 3.99211
      vertex 3.75 -18.2488 3.99211
      vertex 3.75 -18.7512 3.99211
    endloop
  endfacet
  facet normal -0 0 -1
    outer loop
      vertex 3.75 -18.2488 3.99211
      vertex -3.75 -18.7512 3.99211
      vertex -3.75 -18.2488 3.99211
    endloop
  endfacet
  facet normal 0 0.844383 -0.53574
    outer loop
      vertex 3.75 -22.0052 1.92701
      vertex -3.75 -21.7361 2.35114
      vertex 3.75 -21.7361 2.35114
    endloop
  endfacet
  facet normal 0 0.844383 -0.53574
    outer loop
      vertex -3.75 -21.7361 2.35114
      vertex 3.75 -22.0052 1.92701
      vertex -3.75 -22.0052 1.92701
    endloop
  endfacet
  facet normal 0 0.904809 -0.425818
    outer loop
      vertex 3.75 -22.2191 1.4725
      vertex -3.75 -22.0052 1.92701
      vertex 3.75 -22.0052 1.92701
    endloop
  endfacet
  facet normal 0 0.904809 -0.425818
    outer loop
      vertex -3.75 -22.0052 1.92701
      vertex 3.75 -22.2191 1.4725
      vertex -3.75 -22.2191 1.4725
    endloop
  endfacet
  facet normal -0 0.368162 0.929762
    outer loop
      vertex -3.75 -19.7361 -3.80423
      vertex 3.75 -20.2031 -3.61931
      vertex 3.75 -19.7361 -3.80423
    endloop
  endfacet
  facet normal 0 0.368162 0.929762
    outer loop
      vertex 3.75 -20.2031 -3.61931
      vertex -3.75 -19.7361 -3.80423
      vertex -3.75 -20.2031 -3.61931
    endloop
  endfacet
  facet normal 0 -0.248657 0.968592
    outer loop
      vertex -3.75 20.0461 -3.80423
      vertex 3.75 19.5595 -3.92915
      vertex 3.75 20.0461 -3.80423
    endloop
  endfacet
  facet normal 0 -0.248657 0.968592
    outer loop
      vertex 3.75 19.5595 -3.92915
      vertex -3.75 20.0461 -3.80423
      vertex -3.75 19.5595 -3.92915
    endloop
  endfacet
  facet normal 0 -0.98226 -0.187523
    outer loop
      vertex -3.75 22.7785 0.501332
      vertex 3.75 22.6843 0.994759
      vertex -3.75 22.6843 0.994759
    endloop
  endfacet
  facet normal 0 -0.98226 -0.187523
    outer loop
      vertex 3.75 22.6843 0.994759
      vertex -3.75 22.7785 0.501332
      vertex 3.75 22.7785 0.501332
    endloop
  endfacet
  facet normal 0 -0.998032 -0.062709
    outer loop
      vertex -3.75 22.81 0
      vertex 3.75 22.7785 0.501332
      vertex -3.75 22.7785 0.501332
    endloop
  endfacet
  facet normal 0 -0.998032 -0.062709
    outer loop
      vertex 3.75 22.7785 0.501332
      vertex -3.75 22.81 0
      vertex 3.75 22.81 0
    endloop
  endfacet
  facet normal 0 -0.951073 -0.308968
    outer loop
      vertex -3.75 22.6843 0.994759
      vertex 3.75 22.5291 1.4725
      vertex -3.75 22.5291 1.4725
    endloop
  endfacet
  facet normal 0 -0.951073 -0.308968
    outer loop
      vertex 3.75 22.5291 1.4725
      vertex -3.75 22.6843 0.994759
      vertex 3.75 22.6843 0.994759
    endloop
  endfacet
  facet normal 0 -0.844383 -0.53574
    outer loop
      vertex -3.75 22.3152 1.92701
      vertex 3.75 22.0461 2.35114
      vertex -3.75 22.0461 2.35114
    endloop
  endfacet
  facet normal 0 -0.844383 -0.53574
    outer loop
      vertex 3.75 22.0461 2.35114
      vertex -3.75 22.3152 1.92701
      vertex 3.75 22.3152 1.92701
    endloop
  endfacet
  facet normal 0 0.125353 -0.992112
    outer loop
      vertex -3.75 18.0605 3.92915
      vertex 3.75 18.5588 3.99211
      vertex 3.75 18.0605 3.92915
    endloop
  endfacet
  facet normal 0 0.125353 -0.992112
    outer loop
      vertex 3.75 18.5588 3.99211
      vertex -3.75 18.0605 3.92915
      vertex -3.75 18.5588 3.99211
    endloop
  endfacet
  facet normal 0 -0.368162 -0.929762
    outer loop
      vertex -3.75 20.0461 3.80423
      vertex 3.75 20.5131 3.61931
      vertex 3.75 20.0461 3.80423
    endloop
  endfacet
  facet normal -0 -0.368162 -0.929762
    outer loop
      vertex 3.75 20.5131 3.61931
      vertex -3.75 20.0461 3.80423
      vertex -3.75 20.5131 3.61931
    endloop
  endfacet
  facet normal 0 -0.998032 0.062709
    outer loop
      vertex -3.75 22.7785 -0.501332
      vertex 3.75 22.81 0
      vertex -3.75 22.81 0
    endloop
  endfacet
  facet normal 0 -0.998032 0.062709
    outer loop
      vertex 3.75 22.81 0
      vertex -3.75 22.7785 -0.501332
      vertex 3.75 22.7785 -0.501332
    endloop
  endfacet
  facet normal 0 -0.125353 0.992112
    outer loop
      vertex -3.75 19.5595 -3.92915
      vertex 3.75 19.0612 -3.99211
      vertex 3.75 19.5595 -3.92915
    endloop
  endfacet
  facet normal 0 -0.125353 0.992112
    outer loop
      vertex 3.75 19.0612 -3.99211
      vertex -3.75 19.5595 -3.92915
      vertex -3.75 19.0612 -3.99211
    endloop
  endfacet
  facet normal 0 -0.904809 -0.425818
    outer loop
      vertex -3.75 22.5291 1.4725
      vertex 3.75 22.3152 1.92701
      vertex -3.75 22.3152 1.92701
    endloop
  endfacet
  facet normal 0 -0.904809 -0.425818
    outer loop
      vertex 3.75 22.3152 1.92701
      vertex -3.75 22.5291 1.4725
      vertex 3.75 22.5291 1.4725
    endloop
  endfacet
  facet normal 0 -0.904809 0.425818
    outer loop
      vertex -3.75 22.3152 -1.92701
      vertex 3.75 22.5291 -1.4725
      vertex -3.75 22.5291 -1.4725
    endloop
  endfacet
  facet normal 0 -0.904809 0.425818
    outer loop
      vertex 3.75 22.5291 -1.4725
      vertex -3.75 22.3152 -1.92701
      vertex 3.75 22.3152 -1.92701
    endloop
  endfacet
  facet normal 0 -0.951073 0.308968
    outer loop
      vertex -3.75 22.5291 -1.4725
      vertex 3.75 22.6843 -0.994759
      vertex -3.75 22.6843 -0.994759
    endloop
  endfacet
  facet normal 0 -0.951073 0.308968
    outer loop
      vertex 3.75 22.6843 -0.994759
      vertex -3.75 22.5291 -1.4725
      vertex 3.75 22.5291 -1.4725
    endloop
  endfacet
  facet normal 0 -0.368162 0.929762
    outer loop
      vertex -3.75 20.5131 -3.61931
      vertex 3.75 20.0461 -3.80423
      vertex 3.75 20.5131 -3.61931
    endloop
  endfacet
  facet normal 0 -0.368162 0.929762
    outer loop
      vertex 3.75 20.0461 -3.80423
      vertex -3.75 20.5131 -3.61931
      vertex -3.75 20.0461 -3.80423
    endloop
  endfacet
  facet normal -0 0.248672 0.968588
    outer loop
      vertex -3.75 18.0605 -3.92915
      vertex 3.75 17.8 -3.86227
      vertex 3.75 18.0605 -3.92915
    endloop
  endfacet
  facet normal 0 0.248672 0.968588
    outer loop
      vertex 3.75 17.8 -3.86227
      vertex -3.75 18.0605 -3.92915
      vertex -3.75 17.8 -3.86227
    endloop
  endfacet
  facet normal 0 -0.844383 0.53574
    outer loop
      vertex -3.75 22.0461 -2.35114
      vertex 3.75 22.3152 -1.92701
      vertex -3.75 22.3152 -1.92701
    endloop
  endfacet
  facet normal 0 -0.844383 0.53574
    outer loop
      vertex 3.75 22.3152 -1.92701
      vertex -3.75 22.0461 -2.35114
      vertex 3.75 22.0461 -2.35114
    endloop
  endfacet
  facet normal 0 -0.481751 0.876308
    outer loop
      vertex -3.75 20.9533 -3.37731
      vertex 3.75 20.5131 -3.61931
      vertex 3.75 20.9533 -3.37731
    endloop
  endfacet
  facet normal 0 -0.481751 0.876308
    outer loop
      vertex 3.75 20.5131 -3.61931
      vertex -3.75 20.9533 -3.37731
      vertex -3.75 20.5131 -3.61931
    endloop
  endfacet
  facet normal 0 -0.481751 -0.876308
    outer loop
      vertex -3.75 20.5131 3.61931
      vertex 3.75 20.9533 3.37731
      vertex 3.75 20.5131 3.61931
    endloop
  endfacet
  facet normal -0 -0.481751 -0.876308
    outer loop
      vertex 3.75 20.9533 3.37731
      vertex -3.75 20.5131 3.61931
      vertex -3.75 20.9533 3.37731
    endloop
  endfacet
  facet normal 0 -0.684521 0.728993
    outer loop
      vertex -3.75 21.7259 -2.73819
      vertex 3.75 21.3597 -3.08205
      vertex 3.75 21.7259 -2.73819
    endloop
  endfacet
  facet normal 0 -0.684521 0.728993
    outer loop
      vertex 3.75 21.3597 -3.08205
      vertex -3.75 21.7259 -2.73819
      vertex -3.75 21.3597 -3.08205
    endloop
  endfacet
  facet normal 0 -0.587776 -0.809024
    outer loop
      vertex -3.75 20.9533 3.37731
      vertex 3.75 21.3597 3.08205
      vertex 3.75 20.9533 3.37731
    endloop
  endfacet
  facet normal -0 -0.587776 -0.809024
    outer loop
      vertex 3.75 21.3597 3.08205
      vertex -3.75 20.9533 3.37731
      vertex -3.75 21.3597 3.08205
    endloop
  endfacet
  facet normal 0 -0.770509 -0.637429
    outer loop
      vertex -3.75 22.0461 2.35114
      vertex 3.75 21.7259 2.73819
      vertex -3.75 21.7259 2.73819
    endloop
  endfacet
  facet normal 0 -0.770509 -0.637429
    outer loop
      vertex 3.75 21.7259 2.73819
      vertex -3.75 22.0461 2.35114
      vertex 3.75 22.0461 2.35114
    endloop
  endfacet
  facet normal 0 -0.684521 -0.728993
    outer loop
      vertex -3.75 21.3597 3.08205
      vertex 3.75 21.7259 2.73819
      vertex 3.75 21.3597 3.08205
    endloop
  endfacet
  facet normal -0 -0.684521 -0.728993
    outer loop
      vertex 3.75 21.7259 2.73819
      vertex -3.75 21.3597 3.08205
      vertex -3.75 21.7259 2.73819
    endloop
  endfacet
  facet normal 0 -0.587776 0.809024
    outer loop
      vertex -3.75 21.3597 -3.08205
      vertex 3.75 20.9533 -3.37731
      vertex 3.75 21.3597 -3.08205
    endloop
  endfacet
  facet normal 0 -0.587776 0.809024
    outer loop
      vertex 3.75 20.9533 -3.37731
      vertex -3.75 21.3597 -3.08205
      vertex -3.75 20.9533 -3.37731
    endloop
  endfacet
  facet normal 0 0 -1
    outer loop
      vertex -3.75 18.5588 3.99211
      vertex 3.75 19.0612 3.99211
      vertex 3.75 18.5588 3.99211
    endloop
  endfacet
  facet normal -0 0 -1
    outer loop
      vertex 3.75 19.0612 3.99211
      vertex -3.75 18.5588 3.99211
      vertex -3.75 19.0612 3.99211
    endloop
  endfacet
  facet normal 0 -0.98226 0.187523
    outer loop
      vertex -3.75 22.6843 -0.994759
      vertex 3.75 22.7785 -0.501332
      vertex -3.75 22.7785 -0.501332
    endloop
  endfacet
  facet normal 0 -0.98226 0.187523
    outer loop
      vertex 3.75 22.7785 -0.501332
      vertex -3.75 22.6843 -0.994759
      vertex 3.75 22.6843 -0.994759
    endloop
  endfacet
  facet normal 0 -0.125353 -0.992112
    outer loop
      vertex -3.75 19.0612 3.99211
      vertex 3.75 19.5595 3.92915
      vertex 3.75 19.0612 3.99211
    endloop
  endfacet
  facet normal -0 -0.125353 -0.992112
    outer loop
      vertex 3.75 19.5595 3.92915
      vertex -3.75 19.0612 3.99211
      vertex -3.75 19.5595 3.92915
    endloop
  endfacet
  facet normal -0 0.125353 0.992112
    outer loop
      vertex -3.75 18.5588 -3.99211
      vertex 3.75 18.0605 -3.92915
      vertex 3.75 18.5588 -3.99211
    endloop
  endfacet
  facet normal 0 0.125353 0.992112
    outer loop
      vertex 3.75 18.0605 -3.92915
      vertex -3.75 18.5588 -3.99211
      vertex -3.75 18.0605 -3.92915
    endloop
  endfacet
  facet normal 0 0.248672 -0.968588
    outer loop
      vertex -3.75 17.8 3.86227
      vertex 3.75 18.0605 3.92915
      vertex 3.75 17.8 3.86227
    endloop
  endfacet
  facet normal 0 0.248672 -0.968588
    outer loop
      vertex 3.75 18.0605 3.92915
      vertex -3.75 17.8 3.86227
      vertex -3.75 18.0605 3.92915
    endloop
  endfacet
  facet normal 0 -0.770509 0.637429
    outer loop
      vertex -3.75 21.7259 -2.73819
      vertex 3.75 22.0461 -2.35114
      vertex -3.75 22.0461 -2.35114
    endloop
  endfacet
  facet normal 0 -0.770509 0.637429
    outer loop
      vertex 3.75 22.0461 -2.35114
      vertex -3.75 21.7259 -2.73819
      vertex 3.75 21.7259 -2.73819
    endloop
  endfacet
  facet normal -0 0 1
    outer loop
      vertex -3.75 19.0612 -3.99211
      vertex 3.75 18.5588 -3.99211
      vertex 3.75 19.0612 -3.99211
    endloop
  endfacet
  facet normal 0 0 1
    outer loop
      vertex 3.75 18.5588 -3.99211
      vertex -3.75 19.0612 -3.99211
      vertex -3.75 18.5588 -3.99211
    endloop
  endfacet
  facet normal 0 -0.248657 -0.968592
    outer loop
      vertex -3.75 19.5595 3.92915
      vertex 3.75 20.0461 3.80423
      vertex 3.75 19.5595 3.92915
    endloop
  endfacet
  facet normal -0 -0.248657 -0.968592
    outer loop
      vertex 3.75 20.0461 3.80423
      vertex -3.75 19.5595 3.92915
      vertex -3.75 20.0461 3.80423
    endloop
  endfacet
  facet normal 0 -1 0
    outer loop
      vertex -3.75 17.8 3.86227
      vertex 3.75 17.8 4
      vertex -3.75 17.8 4
    endloop
  endfacet
  facet normal 0 -1 -0
    outer loop
      vertex 3.75 17.8 4
      vertex -3.75 17.8 3.86227
      vertex 3.75 17.8 3.86227
    endloop
  endfacet
  facet normal 0 -1 0
    outer loop
      vertex -3.75 17.8 -4
      vertex 3.75 17.8 -3.86227
      vertex -3.75 17.8 -3.86227
    endloop
  endfacet
  facet normal 0 -1 -0
    outer loop
      vertex 3.75 17.8 -3.86227
      vertex -3.75 17.8 -4
      vertex 3.75 17.8 -4
    endloop
  endfacet
  facet normal 0 1 -0
    outer loop
      vertex 3.75 -17.8 -4
      vertex -3.75 -17.8 -3.93541
      vertex 3.75 -17.8 -3.93541
    endloop
  endfacet
  facet normal 0 1 0
    outer loop
      vertex -3.75 -17.8 -3.93541
      vertex 3.75 -17.8 -4
      vertex -3.75 -17.8 -4
    endloop
  endfacet
  facet normal 0 1 -0
    outer loop
      vertex 3.75 -17.8 3.93541
      vertex -3.75 -17.8 4
      vertex 3.75 -17.8 4
    endloop
  endfacet
  facet normal 0 1 0
    outer loop
      vertex -3.75 -17.8 4
      vertex 3.75 -17.8 3.93541
      vertex -3.75 -17.8 3.93541
    endloop
  endfacet
  facet normal 0 0 -1
    outer loop
      vertex -3.75 -17.8 4
      vertex 3.75 17.8 4
      vertex 3.75 -17.8 4
    endloop
  endfacet
  facet normal -0 0 -1
    outer loop
      vertex 3.75 17.8 4
      vertex -3.75 -17.8 4
      vertex -3.75 17.8 4
    endloop
  endfacet
  facet normal -0 0 1
    outer loop
      vertex -3.75 17.8 -4
      vertex 3.75 -17.8 -4
      vertex 3.75 17.8 -4
    endloop
  endfacet
  facet normal 0 0 1
    outer loop
      vertex 3.75 -17.8 -4
      vertex -3.75 17.8 -4
      vertex -3.75 -17.8 -4
    endloop
  endfacet
  facet normal -0 0 1
    outer loop
      vertex 3.75 25.9 -7.4
      vertex 11.25 -25.9 -7.4
      vertex 11.25 25.9 -7.4
    endloop
  endfacet
  facet normal 0 0 1
    outer loop
      vertex 11.25 -25.9 -7.4
      vertex 3.75 25.9 -7.4
      vertex 3.75 -25.9 -7.4
    endloop
  endfacet
  facet normal 0 0 -1
    outer loop
      vertex -3.75 -25.9 -14.9
      vertex 11.25 25.9 -14.9
      vertex 11.25 -25.9 -14.9
    endloop
  endfacet
  facet normal -0 0 -1
    outer loop
      vertex 11.25 25.9 -14.9
      vertex -3.75 -25.9 -14.9
      vertex -3.75 25.9 -14.9
    endloop
  endfacet
  facet normal 1 -0 0
    outer loop
      vertex 11.25 -25.9 -7.4
      vertex 11.25 25.9 -14.9
      vertex 11.25 25.9 -7.4
    endloop
  endfacet
  facet normal 1 0 0
    outer loop
      vertex 11.25 25.9 -14.9
      vertex 11.25 -25.9 -7.4
      vertex 11.25 -25.9 -14.9
    endloop
  endfacet
endsolid OpenSCAD_Model
