solid OpenSCAD_Model
  facet normal 0 1 0
    outer loop
      vertex 8.5 36 1
      vertex 8.5 36 -1
      vertex -8.4 36 1
    endloop
  endfacet
  facet normal 0 1 -0
    outer loop
      vertex -8.4 36 1
      vertex -10.4 36 14
      vertex -8.4 36 14
    endloop
  endfacet
  facet normal 0 1 0
    outer loop
      vertex -8.4 36 1
      vertex -10.4 36 -1
      vertex -10.4 36 14
    endloop
  endfacet
  facet normal 0 1 0
    outer loop
      vertex -10.4 36 -1
      vertex -8.4 36 1
      vertex 8.5 36 -1
    endloop
  endfacet
  facet normal 0 0 1
    outer loop
      vertex -3.99211 -28.2488 1
      vertex -4 -28.015 1
      vertex -3.99211 -28.7512 1
    endloop
  endfacet
  facet normal -0 0 1
    outer loop
      vertex -4 -28.015 1
      vertex -3.99211 -28.2488 1
      vertex -3.96257 -28.015 1
    endloop
  endfacet
  facet normal 0 0 1
    outer loop
      vertex 4 -28.015 1
      vertex 3.96257 -28.015 1
      vertex 3.99211 -28.2488 1
    endloop
  endfacet
  facet normal 0 0 1
    outer loop
      vertex 8.5 36 1
      vertex 4 8.065 1
      vertex 8.5 -36 1
    endloop
  endfacet
  facet normal 0 0 1
    outer loop
      vertex 3.99211 28.2488 1
      vertex 8.5 36 1
      vertex 3.99211 28.7512 1
    endloop
  endfacet
  facet normal 0 0 1
    outer loop
      vertex 8.5 36 1
      vertex 3.92915 29.2495 1
      vertex 3.99211 28.7512 1
    endloop
  endfacet
  facet normal 0 0 1
    outer loop
      vertex 8.5 36 1
      vertex 3.80423 29.7361 1
      vertex 3.92915 29.2495 1
    endloop
  endfacet
  facet normal 0 0 1
    outer loop
      vertex 8.5 36 1
      vertex 3.61931 30.2031 1
      vertex 3.80423 29.7361 1
    endloop
  endfacet
  facet normal 0 0 1
    outer loop
      vertex 8.5 36 1
      vertex 3.37731 30.6433 1
      vertex 3.61931 30.2031 1
    endloop
  endfacet
  facet normal 0 0 1
    outer loop
      vertex 8.5 36 1
      vertex 3.08205 31.0497 1
      vertex 3.37731 30.6433 1
    endloop
  endfacet
  facet normal 0 0 1
    outer loop
      vertex 8.5 36 1
      vertex 2.73819 31.4159 1
      vertex 3.08205 31.0497 1
    endloop
  endfacet
  facet normal 0 0 1
    outer loop
      vertex 8.5 36 1
      vertex 2.35114 31.7361 1
      vertex 2.73819 31.4159 1
    endloop
  endfacet
  facet normal 0 0 1
    outer loop
      vertex 8.5 36 1
      vertex 1.92701 32.0052 1
      vertex 2.35114 31.7361 1
    endloop
  endfacet
  facet normal 0 0 1
    outer loop
      vertex 8.5 36 1
      vertex 1.4725 32.2191 1
      vertex 1.92701 32.0052 1
    endloop
  endfacet
  facet normal 0 0 1
    outer loop
      vertex 8.5 36 1
      vertex 0.994759 32.3743 1
      vertex 1.4725 32.2191 1
    endloop
  endfacet
  facet normal 0 0 1
    outer loop
      vertex 8.5 36 1
      vertex 0.501332 32.4685 1
      vertex 0.994759 32.3743 1
    endloop
  endfacet
  facet normal 0 0 1
    outer loop
      vertex 8.5 36 1
      vertex 0 32.5 1
      vertex 0.501332 32.4685 1
    endloop
  endfacet
  facet normal -0 0 1
    outer loop
      vertex -8.4 36 1
      vertex 0 32.5 1
      vertex 8.5 36 1
    endloop
  endfacet
  facet normal 0 0 1
    outer loop
      vertex 0 32.5 1
      vertex -8.4 36 1
      vertex -0.501332 32.4685 1
    endloop
  endfacet
  facet normal 0 0 1
    outer loop
      vertex -0.501332 32.4685 1
      vertex -8.4 36 1
      vertex -0.994759 32.3743 1
    endloop
  endfacet
  facet normal 0 0 1
    outer loop
      vertex -8.4 36 1
      vertex -3.99211 28.2488 1
      vertex -3.99211 28.7512 1
    endloop
  endfacet
  facet normal 0 0 1
    outer loop
      vertex -8.4 -36 1
      vertex -4 8.065 1
      vertex -8.4 36 1
    endloop
  endfacet
  facet normal 0 0 1
    outer loop
      vertex -3.99211 28.2488 1
      vertex -8.4 36 1
      vertex -4 8.065 1
    endloop
  endfacet
  facet normal 0 0 1
    outer loop
      vertex -3.92915 29.2495 1
      vertex -8.4 36 1
      vertex -3.99211 28.7512 1
    endloop
  endfacet
  facet normal 0 0 1
    outer loop
      vertex -3.80423 29.7361 1
      vertex -8.4 36 1
      vertex -3.92915 29.2495 1
    endloop
  endfacet
  facet normal 0 0 1
    outer loop
      vertex -3.61931 30.2031 1
      vertex -8.4 36 1
      vertex -3.80423 29.7361 1
    endloop
  endfacet
  facet normal 0 0 1
    outer loop
      vertex -3.37731 30.6433 1
      vertex -8.4 36 1
      vertex -3.61931 30.2031 1
    endloop
  endfacet
  facet normal 0 0 1
    outer loop
      vertex -3.08205 31.0497 1
      vertex -8.4 36 1
      vertex -3.37731 30.6433 1
    endloop
  endfacet
  facet normal 0 0 1
    outer loop
      vertex -2.73819 31.4159 1
      vertex -8.4 36 1
      vertex -3.08205 31.0497 1
    endloop
  endfacet
  facet normal 0 0 1
    outer loop
      vertex -2.35114 31.7361 1
      vertex -8.4 36 1
      vertex -2.73819 31.4159 1
    endloop
  endfacet
  facet normal 0 0 1
    outer loop
      vertex -1.92701 32.0052 1
      vertex -8.4 36 1
      vertex -2.35114 31.7361 1
    endloop
  endfacet
  facet normal 0 0 1
    outer loop
      vertex -1.4725 32.2191 1
      vertex -8.4 36 1
      vertex -1.92701 32.0052 1
    endloop
  endfacet
  facet normal 0 0 1
    outer loop
      vertex -0.994759 32.3743 1
      vertex -8.4 36 1
      vertex -1.4725 32.2191 1
    endloop
  endfacet
  facet normal -0 0 1
    outer loop
      vertex 4 -28.015 1
      vertex 8.5 -36 1
      vertex 4 8.065 1
    endloop
  endfacet
  facet normal -0 0 1
    outer loop
      vertex 3.99211 -28.2488 1
      vertex 8.5 -36 1
      vertex 4 -28.015 1
    endloop
  endfacet
  facet normal -0 0 1
    outer loop
      vertex 3.99211 -28.7512 1
      vertex 8.5 -36 1
      vertex 3.99211 -28.2488 1
    endloop
  endfacet
  facet normal -0 0 1
    outer loop
      vertex 3.92915 -29.2495 1
      vertex 8.5 -36 1
      vertex 3.99211 -28.7512 1
    endloop
  endfacet
  facet normal -0 0 1
    outer loop
      vertex 3.80423 -29.7361 1
      vertex 8.5 -36 1
      vertex 3.92915 -29.2495 1
    endloop
  endfacet
  facet normal -0 0 1
    outer loop
      vertex 3.61931 -30.2031 1
      vertex 8.5 -36 1
      vertex 3.80423 -29.7361 1
    endloop
  endfacet
  facet normal -0 0 1
    outer loop
      vertex 3.37731 -30.6433 1
      vertex 8.5 -36 1
      vertex 3.61931 -30.2031 1
    endloop
  endfacet
  facet normal -0 0 1
    outer loop
      vertex 3.08205 -31.0497 1
      vertex 8.5 -36 1
      vertex 3.37731 -30.6433 1
    endloop
  endfacet
  facet normal -0 0 1
    outer loop
      vertex 2.73819 -31.4159 1
      vertex 8.5 -36 1
      vertex 3.08205 -31.0497 1
    endloop
  endfacet
  facet normal -0 0 1
    outer loop
      vertex 2.35114 -31.7361 1
      vertex 8.5 -36 1
      vertex 2.73819 -31.4159 1
    endloop
  endfacet
  facet normal -0 0 1
    outer loop
      vertex 1.92701 -32.0052 1
      vertex 8.5 -36 1
      vertex 2.35114 -31.7361 1
    endloop
  endfacet
  facet normal -0 0 1
    outer loop
      vertex 1.4725 -32.2191 1
      vertex 8.5 -36 1
      vertex 1.92701 -32.0052 1
    endloop
  endfacet
  facet normal -0 0 1
    outer loop
      vertex 0.994759 -32.3743 1
      vertex 8.5 -36 1
      vertex 1.4725 -32.2191 1
    endloop
  endfacet
  facet normal -0 0 1
    outer loop
      vertex 0.501332 -32.4685 1
      vertex 8.5 -36 1
      vertex 0.994759 -32.3743 1
    endloop
  endfacet
  facet normal -0 0 1
    outer loop
      vertex 0 -32.5 1
      vertex 8.5 -36 1
      vertex 0.501332 -32.4685 1
    endloop
  endfacet
  facet normal 0 0 1
    outer loop
      vertex -8.4 -36 1
      vertex 0 -32.5 1
      vertex -0.501332 -32.4685 1
    endloop
  endfacet
  facet normal 0 0 1
    outer loop
      vertex -8.4 -36 1
      vertex -0.501332 -32.4685 1
      vertex -0.994759 -32.3743 1
    endloop
  endfacet
  facet normal 0 0 1
    outer loop
      vertex -8.4 -36 1
      vertex -0.994759 -32.3743 1
      vertex -1.4725 -32.2191 1
    endloop
  endfacet
  facet normal 0 0 1
    outer loop
      vertex -4 8.065 1
      vertex -8.4 -36 1
      vertex -4 -28.015 1
    endloop
  endfacet
  facet normal 0 0 1
    outer loop
      vertex 0 -32.5 1
      vertex -8.4 -36 1
      vertex 8.5 -36 1
    endloop
  endfacet
  facet normal 0 0 1
    outer loop
      vertex -1.92701 -32.0052 1
      vertex -8.4 -36 1
      vertex -1.4725 -32.2191 1
    endloop
  endfacet
  facet normal 0 0 1
    outer loop
      vertex -2.35114 -31.7361 1
      vertex -8.4 -36 1
      vertex -1.92701 -32.0052 1
    endloop
  endfacet
  facet normal 0 0 1
    outer loop
      vertex -2.73819 -31.4159 1
      vertex -8.4 -36 1
      vertex -2.35114 -31.7361 1
    endloop
  endfacet
  facet normal 0 0 1
    outer loop
      vertex -3.08205 -31.0497 1
      vertex -8.4 -36 1
      vertex -2.73819 -31.4159 1
    endloop
  endfacet
  facet normal 0 0 1
    outer loop
      vertex -3.37731 -30.6433 1
      vertex -8.4 -36 1
      vertex -3.08205 -31.0497 1
    endloop
  endfacet
  facet normal 0 0 1
    outer loop
      vertex -3.61931 -30.2031 1
      vertex -8.4 -36 1
      vertex -3.37731 -30.6433 1
    endloop
  endfacet
  facet normal 0 0 1
    outer loop
      vertex -3.80423 -29.7361 1
      vertex -8.4 -36 1
      vertex -3.61931 -30.2031 1
    endloop
  endfacet
  facet normal 0 0 1
    outer loop
      vertex -3.92915 -29.2495 1
      vertex -8.4 -36 1
      vertex -3.80423 -29.7361 1
    endloop
  endfacet
  facet normal 0 0 1
    outer loop
      vertex -3.99211 -28.7512 1
      vertex -8.4 -36 1
      vertex -3.92915 -29.2495 1
    endloop
  endfacet
  facet normal 0 0 1
    outer loop
      vertex -4 -28.015 1
      vertex -8.4 -36 1
      vertex -3.99211 -28.7512 1
    endloop
  endfacet
  facet normal 0 0 1
    outer loop
      vertex 3.92915 27.7505 1
      vertex 8.5 36 1
      vertex 3.99211 28.2488 1
    endloop
  endfacet
  facet normal 0 0 1
    outer loop
      vertex 3.80423 27.2639 1
      vertex 8.5 36 1
      vertex 3.92915 27.7505 1
    endloop
  endfacet
  facet normal 0 0 1
    outer loop
      vertex 8.5 36 1
      vertex 3.80423 27.2639 1
      vertex 4 8.065 1
    endloop
  endfacet
  facet normal -0 0 1
    outer loop
      vertex 3.61931 26.7969 1
      vertex 4 8.065 1
      vertex 3.80423 27.2639 1
    endloop
  endfacet
  facet normal 0 0 1
    outer loop
      vertex 4 8.065 1
      vertex 3.80423 8.36107 1
      vertex 3.88024 8.065 1
    endloop
  endfacet
  facet normal -0 0 1
    outer loop
      vertex 3.61931 8.82812 1
      vertex 4 8.065 1
      vertex 3.61931 26.7969 1
    endloop
  endfacet
  facet normal 0 0 1
    outer loop
      vertex 4 8.065 1
      vertex 3.61931 8.82812 1
      vertex 3.80423 8.36107 1
    endloop
  endfacet
  facet normal -0 0 1
    outer loop
      vertex 3.37731 26.3567 1
      vertex 3.61931 8.82812 1
      vertex 3.61931 26.7969 1
    endloop
  endfacet
  facet normal 0 0 1
    outer loop
      vertex 3.37731 26.3567 1
      vertex 3.37731 9.26831 1
      vertex 3.61931 8.82812 1
    endloop
  endfacet
  facet normal -0 0 1
    outer loop
      vertex 3.08205 25.9503 1
      vertex 3.37731 9.26831 1
      vertex 3.37731 26.3567 1
    endloop
  endfacet
  facet normal 0 0 1
    outer loop
      vertex 3.08205 25.9503 1
      vertex 3.08205 9.6747 1
      vertex 3.37731 9.26831 1
    endloop
  endfacet
  facet normal -0 0 1
    outer loop
      vertex 2.73819 25.5841 1
      vertex 3.08205 9.6747 1
      vertex 3.08205 25.9503 1
    endloop
  endfacet
  facet normal 0 0 1
    outer loop
      vertex 2.73819 25.5841 1
      vertex 2.73819 10.0409 1
      vertex 3.08205 9.6747 1
    endloop
  endfacet
  facet normal -0 0 1
    outer loop
      vertex 2.35114 25.2639 1
      vertex 2.73819 10.0409 1
      vertex 2.73819 25.5841 1
    endloop
  endfacet
  facet normal 0 0 1
    outer loop
      vertex 2.35114 25.2639 1
      vertex 2.35114 10.3611 1
      vertex 2.73819 10.0409 1
    endloop
  endfacet
  facet normal -0 0 1
    outer loop
      vertex 1.92701 24.9948 1
      vertex 2.35114 10.3611 1
      vertex 2.35114 25.2639 1
    endloop
  endfacet
  facet normal 0 0 1
    outer loop
      vertex 1.92701 24.9948 1
      vertex 1.92701 10.6302 1
      vertex 2.35114 10.3611 1
    endloop
  endfacet
  facet normal -0 0 1
    outer loop
      vertex 1.4725 24.7809 1
      vertex 1.92701 10.6302 1
      vertex 1.92701 24.9948 1
    endloop
  endfacet
  facet normal 0 0 1
    outer loop
      vertex 1.4725 24.7809 1
      vertex 1.4725 10.8441 1
      vertex 1.92701 10.6302 1
    endloop
  endfacet
  facet normal -0 0 1
    outer loop
      vertex 0.994759 24.6257 1
      vertex 1.4725 10.8441 1
      vertex 1.4725 24.7809 1
    endloop
  endfacet
  facet normal 0 0 1
    outer loop
      vertex 0.994759 24.6257 1
      vertex 0.994759 10.9993 1
      vertex 1.4725 10.8441 1
    endloop
  endfacet
  facet normal -0 0 1
    outer loop
      vertex 0.501332 24.5315 1
      vertex 0.994759 10.9993 1
      vertex 0.994759 24.6257 1
    endloop
  endfacet
  facet normal 0 0 1
    outer loop
      vertex 0.501332 24.5315 1
      vertex 0.501332 11.0935 1
      vertex 0.994759 10.9993 1
    endloop
  endfacet
  facet normal -0 0 1
    outer loop
      vertex 0 24.5 1
      vertex 0.501332 11.0935 1
      vertex 0.501332 24.5315 1
    endloop
  endfacet
  facet normal 0 0 1
    outer loop
      vertex 0 24.5 1
      vertex 0 11.125 1
      vertex 0.501332 11.0935 1
    endloop
  endfacet
  facet normal 0 0 1
    outer loop
      vertex -0.501332 24.5315 1
      vertex 0 11.125 1
      vertex 0 24.5 1
    endloop
  endfacet
  facet normal 0 0 1
    outer loop
      vertex -0.501332 24.5315 1
      vertex -0.501332 11.0935 1
      vertex 0 11.125 1
    endloop
  endfacet
  facet normal 0 0 1
    outer loop
      vertex -0.994759 24.6257 1
      vertex -0.501332 11.0935 1
      vertex -0.501332 24.5315 1
    endloop
  endfacet
  facet normal 0 0 1
    outer loop
      vertex -0.994759 24.6257 1
      vertex -0.994759 10.9993 1
      vertex -0.501332 11.0935 1
    endloop
  endfacet
  facet normal 0 0 1
    outer loop
      vertex -1.4725 24.7809 1
      vertex -0.994759 10.9993 1
      vertex -0.994759 24.6257 1
    endloop
  endfacet
  facet normal 0 0 1
    outer loop
      vertex -1.4725 24.7809 1
      vertex -1.4725 10.8441 1
      vertex -0.994759 10.9993 1
    endloop
  endfacet
  facet normal 0 0 1
    outer loop
      vertex -1.92701 24.9948 1
      vertex -1.4725 10.8441 1
      vertex -1.4725 24.7809 1
    endloop
  endfacet
  facet normal 0 0 1
    outer loop
      vertex -1.92701 24.9948 1
      vertex -1.92701 10.6302 1
      vertex -1.4725 10.8441 1
    endloop
  endfacet
  facet normal 0 0 1
    outer loop
      vertex -2.35114 25.2639 1
      vertex -1.92701 10.6302 1
      vertex -1.92701 24.9948 1
    endloop
  endfacet
  facet normal 0 0 1
    outer loop
      vertex -2.35114 25.2639 1
      vertex -2.35114 10.3611 1
      vertex -1.92701 10.6302 1
    endloop
  endfacet
  facet normal 0 0 1
    outer loop
      vertex -2.73819 25.5841 1
      vertex -2.35114 10.3611 1
      vertex -2.35114 25.2639 1
    endloop
  endfacet
  facet normal 0 0 1
    outer loop
      vertex -2.73819 25.5841 1
      vertex -2.73819 10.0409 1
      vertex -2.35114 10.3611 1
    endloop
  endfacet
  facet normal 0 0 1
    outer loop
      vertex -3.08205 25.9503 1
      vertex -2.73819 10.0409 1
      vertex -2.73819 25.5841 1
    endloop
  endfacet
  facet normal 0 0 1
    outer loop
      vertex -3.08205 25.9503 1
      vertex -3.08205 9.6747 1
      vertex -2.73819 10.0409 1
    endloop
  endfacet
  facet normal 0 0 1
    outer loop
      vertex -3.37731 26.3567 1
      vertex -3.08205 9.6747 1
      vertex -3.08205 25.9503 1
    endloop
  endfacet
  facet normal 0 0 1
    outer loop
      vertex -3.37731 26.3567 1
      vertex -3.37731 9.26831 1
      vertex -3.08205 9.6747 1
    endloop
  endfacet
  facet normal 0 0 1
    outer loop
      vertex -3.61931 26.7969 1
      vertex -3.37731 9.26831 1
      vertex -3.37731 26.3567 1
    endloop
  endfacet
  facet normal 0 0 1
    outer loop
      vertex -3.61931 26.7969 1
      vertex -3.61931 8.82812 1
      vertex -3.37731 9.26831 1
    endloop
  endfacet
  facet normal 0 0 1
    outer loop
      vertex -4 8.065 1
      vertex -3.61931 26.7969 1
      vertex -3.80423 27.2639 1
    endloop
  endfacet
  facet normal 0 0 1
    outer loop
      vertex -3.61931 26.7969 1
      vertex -4 8.065 1
      vertex -3.61931 8.82812 1
    endloop
  endfacet
  facet normal 0 0 1
    outer loop
      vertex -3.61931 8.82812 1
      vertex -4 8.065 1
      vertex -3.80423 8.36107 1
    endloop
  endfacet
  facet normal 0 0 1
    outer loop
      vertex -4 8.065 1
      vertex -3.80423 27.2639 1
      vertex -3.92915 27.7505 1
    endloop
  endfacet
  facet normal 0 0 1
    outer loop
      vertex -4 8.065 1
      vertex -3.92915 27.7505 1
      vertex -3.99211 28.2488 1
    endloop
  endfacet
  facet normal 0 0 1
    outer loop
      vertex -3.80423 8.36107 1
      vertex -4 8.065 1
      vertex -3.88024 8.065 1
    endloop
  endfacet
  facet normal 0 0 -1
    outer loop
      vertex 8.5 36 -1
      vertex 3.92915 27.7505 -1
      vertex 3.99211 28.2488 -1
    endloop
  endfacet
  facet normal 0 0 -1
    outer loop
      vertex 3.80423 8.36107 -1
      vertex 4 8.065 -1
      vertex 3.88024 8.065 -1
    endloop
  endfacet
  facet normal 0 0 -1
    outer loop
      vertex 3.61931 8.82812 -1
      vertex 4 8.065 -1
      vertex 3.80423 8.36107 -1
    endloop
  endfacet
  facet normal 0 0 -1
    outer loop
      vertex 8.5 36 -1
      vertex 3.80423 27.2639 -1
      vertex 3.92915 27.7505 -1
    endloop
  endfacet
  facet normal 0 0 -1
    outer loop
      vertex 3.61931 26.7969 -1
      vertex 4 8.065 -1
      vertex 3.61931 8.82812 -1
    endloop
  endfacet
  facet normal 0 0 -1
    outer loop
      vertex 4 8.065 -1
      vertex 3.61931 26.7969 -1
      vertex 3.80423 27.2639 -1
    endloop
  endfacet
  facet normal 0 0 -1
    outer loop
      vertex 3.37731 9.26831 -1
      vertex 3.61931 26.7969 -1
      vertex 3.61931 8.82812 -1
    endloop
  endfacet
  facet normal 0 0 -1
    outer loop
      vertex 3.37731 9.26831 -1
      vertex 3.37731 26.3567 -1
      vertex 3.61931 26.7969 -1
    endloop
  endfacet
  facet normal 0 0 -1
    outer loop
      vertex 3.08205 9.6747 -1
      vertex 3.37731 26.3567 -1
      vertex 3.37731 9.26831 -1
    endloop
  endfacet
  facet normal 0 0 -1
    outer loop
      vertex 3.08205 9.6747 -1
      vertex 3.08205 25.9503 -1
      vertex 3.37731 26.3567 -1
    endloop
  endfacet
  facet normal 0 0 -1
    outer loop
      vertex 2.73819 10.0409 -1
      vertex 3.08205 25.9503 -1
      vertex 3.08205 9.6747 -1
    endloop
  endfacet
  facet normal 0 0 -1
    outer loop
      vertex 2.73819 10.0409 -1
      vertex 2.73819 25.5841 -1
      vertex 3.08205 25.9503 -1
    endloop
  endfacet
  facet normal 0 0 -1
    outer loop
      vertex 2.35114 10.3611 -1
      vertex 2.73819 25.5841 -1
      vertex 2.73819 10.0409 -1
    endloop
  endfacet
  facet normal 0 0 -1
    outer loop
      vertex 2.35114 10.3611 -1
      vertex 2.35114 25.2639 -1
      vertex 2.73819 25.5841 -1
    endloop
  endfacet
  facet normal 0 0 -1
    outer loop
      vertex 1.92701 10.6302 -1
      vertex 2.35114 25.2639 -1
      vertex 2.35114 10.3611 -1
    endloop
  endfacet
  facet normal 0 0 -1
    outer loop
      vertex 1.92701 10.6302 -1
      vertex 1.92701 24.9948 -1
      vertex 2.35114 25.2639 -1
    endloop
  endfacet
  facet normal 0 0 -1
    outer loop
      vertex 1.4725 10.8441 -1
      vertex 1.92701 24.9948 -1
      vertex 1.92701 10.6302 -1
    endloop
  endfacet
  facet normal 0 0 -1
    outer loop
      vertex 1.4725 10.8441 -1
      vertex 1.4725 24.7809 -1
      vertex 1.92701 24.9948 -1
    endloop
  endfacet
  facet normal 0 0 -1
    outer loop
      vertex 0.994759 10.9993 -1
      vertex 1.4725 24.7809 -1
      vertex 1.4725 10.8441 -1
    endloop
  endfacet
  facet normal 0 0 -1
    outer loop
      vertex 0.994759 10.9993 -1
      vertex 0.994759 24.6257 -1
      vertex 1.4725 24.7809 -1
    endloop
  endfacet
  facet normal 0 0 -1
    outer loop
      vertex 0.501332 11.0935 -1
      vertex 0.994759 24.6257 -1
      vertex 0.994759 10.9993 -1
    endloop
  endfacet
  facet normal 0 0 -1
    outer loop
      vertex 0.501332 11.0935 -1
      vertex 0.501332 24.5315 -1
      vertex 0.994759 24.6257 -1
    endloop
  endfacet
  facet normal 0 0 -1
    outer loop
      vertex 0 11.125 -1
      vertex 0.501332 24.5315 -1
      vertex 0.501332 11.0935 -1
    endloop
  endfacet
  facet normal 0 0 -1
    outer loop
      vertex 0 11.125 -1
      vertex 0 24.5 -1
      vertex 0.501332 24.5315 -1
    endloop
  endfacet
  facet normal 0 0 -1
    outer loop
      vertex -0.501332 11.0935 -1
      vertex 0 24.5 -1
      vertex 0 11.125 -1
    endloop
  endfacet
  facet normal 0 0 -1
    outer loop
      vertex -0.501332 11.0935 -1
      vertex -0.501332 24.5315 -1
      vertex 0 24.5 -1
    endloop
  endfacet
  facet normal 0 0 -1
    outer loop
      vertex -0.994759 10.9993 -1
      vertex -0.501332 24.5315 -1
      vertex -0.501332 11.0935 -1
    endloop
  endfacet
  facet normal 0 0 -1
    outer loop
      vertex -0.994759 10.9993 -1
      vertex -0.994759 24.6257 -1
      vertex -0.501332 24.5315 -1
    endloop
  endfacet
  facet normal 0 0 -1
    outer loop
      vertex -1.4725 10.8441 -1
      vertex -0.994759 24.6257 -1
      vertex -0.994759 10.9993 -1
    endloop
  endfacet
  facet normal 0 0 -1
    outer loop
      vertex -1.4725 10.8441 -1
      vertex -1.4725 24.7809 -1
      vertex -0.994759 24.6257 -1
    endloop
  endfacet
  facet normal 0 0 -1
    outer loop
      vertex -1.92701 10.6302 -1
      vertex -1.4725 24.7809 -1
      vertex -1.4725 10.8441 -1
    endloop
  endfacet
  facet normal 0 0 -1
    outer loop
      vertex -1.92701 10.6302 -1
      vertex -1.92701 24.9948 -1
      vertex -1.4725 24.7809 -1
    endloop
  endfacet
  facet normal 0 0 -1
    outer loop
      vertex -2.35114 10.3611 -1
      vertex -1.92701 24.9948 -1
      vertex -1.92701 10.6302 -1
    endloop
  endfacet
  facet normal 0 0 -1
    outer loop
      vertex -2.35114 10.3611 -1
      vertex -2.35114 25.2639 -1
      vertex -1.92701 24.9948 -1
    endloop
  endfacet
  facet normal 0 0 -1
    outer loop
      vertex -2.73819 10.0409 -1
      vertex -2.35114 25.2639 -1
      vertex -2.35114 10.3611 -1
    endloop
  endfacet
  facet normal 0 0 -1
    outer loop
      vertex -2.73819 10.0409 -1
      vertex -2.73819 25.5841 -1
      vertex -2.35114 25.2639 -1
    endloop
  endfacet
  facet normal 0 0 -1
    outer loop
      vertex -3.08205 9.6747 -1
      vertex -2.73819 25.5841 -1
      vertex -2.73819 10.0409 -1
    endloop
  endfacet
  facet normal 0 0 -1
    outer loop
      vertex -3.08205 9.6747 -1
      vertex -3.08205 25.9503 -1
      vertex -2.73819 25.5841 -1
    endloop
  endfacet
  facet normal 0 0 -1
    outer loop
      vertex -3.37731 9.26831 -1
      vertex -3.08205 25.9503 -1
      vertex -3.08205 9.6747 -1
    endloop
  endfacet
  facet normal 0 0 -1
    outer loop
      vertex -3.37731 9.26831 -1
      vertex -3.37731 26.3567 -1
      vertex -3.08205 25.9503 -1
    endloop
  endfacet
  facet normal 0 0 -1
    outer loop
      vertex -3.61931 8.82812 -1
      vertex -3.37731 26.3567 -1
      vertex -3.37731 9.26831 -1
    endloop
  endfacet
  facet normal 0 0 -1
    outer loop
      vertex -3.61931 8.82812 -1
      vertex -3.61931 26.7969 -1
      vertex -3.37731 26.3567 -1
    endloop
  endfacet
  facet normal 0 0 -1
    outer loop
      vertex -4 8.065 -1
      vertex -3.61931 8.82812 -1
      vertex -3.80423 8.36107 -1
    endloop
  endfacet
  facet normal -0 0 -1
    outer loop
      vertex -3.61931 8.82812 -1
      vertex -4 8.065 -1
      vertex -3.61931 26.7969 -1
    endloop
  endfacet
  facet normal 0 0 -1
    outer loop
      vertex -4 8.065 -1
      vertex -3.80423 8.36107 -1
      vertex -3.88024 8.065 -1
    endloop
  endfacet
  facet normal 0 0 -1
    outer loop
      vertex -10.4 36 -1
      vertex -3.61931 26.7969 -1
      vertex -4 8.065 -1
    endloop
  endfacet
  facet normal 0 0 -1
    outer loop
      vertex -3.61931 26.7969 -1
      vertex -10.4 36 -1
      vertex -3.80423 27.2639 -1
    endloop
  endfacet
  facet normal 0 0 -1
    outer loop
      vertex -3.92915 27.7505 -1
      vertex -10.4 36 -1
      vertex -3.99211 28.2488 -1
    endloop
  endfacet
  facet normal 0 0 -1
    outer loop
      vertex -3.80423 27.2639 -1
      vertex -10.4 36 -1
      vertex -3.92915 27.7505 -1
    endloop
  endfacet
  facet normal 0 0 -1
    outer loop
      vertex 4 8.065 -1
      vertex 8.5 -36 -1
      vertex 4 -28.015 -1
    endloop
  endfacet
  facet normal 0 0 -1
    outer loop
      vertex 8.5 -36 -1
      vertex 3.99211 -28.7512 -1
      vertex 4 -28.015 -1
    endloop
  endfacet
  facet normal 0 0 -1
    outer loop
      vertex 8.5 -36 -1
      vertex 3.92915 -29.2495 -1
      vertex 3.99211 -28.7512 -1
    endloop
  endfacet
  facet normal 0 0 -1
    outer loop
      vertex 8.5 -36 -1
      vertex 3.80423 -29.7361 -1
      vertex 3.92915 -29.2495 -1
    endloop
  endfacet
  facet normal 0 0 -1
    outer loop
      vertex 8.5 -36 -1
      vertex 3.61931 -30.2031 -1
      vertex 3.80423 -29.7361 -1
    endloop
  endfacet
  facet normal 0 0 -1
    outer loop
      vertex 8.5 -36 -1
      vertex 3.37731 -30.6433 -1
      vertex 3.61931 -30.2031 -1
    endloop
  endfacet
  facet normal 0 0 -1
    outer loop
      vertex 8.5 -36 -1
      vertex 3.08205 -31.0497 -1
      vertex 3.37731 -30.6433 -1
    endloop
  endfacet
  facet normal 0 0 -1
    outer loop
      vertex 8.5 -36 -1
      vertex 2.73819 -31.4159 -1
      vertex 3.08205 -31.0497 -1
    endloop
  endfacet
  facet normal 0 0 -1
    outer loop
      vertex 8.5 -36 -1
      vertex 2.35114 -31.7361 -1
      vertex 2.73819 -31.4159 -1
    endloop
  endfacet
  facet normal 0 0 -1
    outer loop
      vertex 8.5 -36 -1
      vertex 1.92701 -32.0052 -1
      vertex 2.35114 -31.7361 -1
    endloop
  endfacet
  facet normal 0 0 -1
    outer loop
      vertex 8.5 -36 -1
      vertex 1.4725 -32.2191 -1
      vertex 1.92701 -32.0052 -1
    endloop
  endfacet
  facet normal 0 0 -1
    outer loop
      vertex 8.5 -36 -1
      vertex 0.994759 -32.3743 -1
      vertex 1.4725 -32.2191 -1
    endloop
  endfacet
  facet normal 0 0 -1
    outer loop
      vertex 8.5 -36 -1
      vertex 0.501332 -32.4685 -1
      vertex 0.994759 -32.3743 -1
    endloop
  endfacet
  facet normal 0 0 -1
    outer loop
      vertex 8.5 -36 -1
      vertex 0 -32.5 -1
      vertex 0.501332 -32.4685 -1
    endloop
  endfacet
  facet normal 0 0 -1
    outer loop
      vertex -10.4 -36 -1
      vertex 0 -32.5 -1
      vertex 8.5 -36 -1
    endloop
  endfacet
  facet normal -0 0 -1
    outer loop
      vertex 0 -32.5 -1
      vertex -10.4 -36 -1
      vertex -0.501332 -32.4685 -1
    endloop
  endfacet
  facet normal -0 0 -1
    outer loop
      vertex -0.501332 -32.4685 -1
      vertex -10.4 -36 -1
      vertex -0.994759 -32.3743 -1
    endloop
  endfacet
  facet normal 0 0 -1
    outer loop
      vertex -10.4 -36 -1
      vertex -3.99211 -28.2488 -1
      vertex -3.99211 -28.7512 -1
    endloop
  endfacet
  facet normal -0 0 -1
    outer loop
      vertex -4 -28.015 -1
      vertex -10.4 -36 -1
      vertex -4 8.065 -1
    endloop
  endfacet
  facet normal -0 0 -1
    outer loop
      vertex -3.99211 -28.2488 -1
      vertex -10.4 -36 -1
      vertex -4 -28.015 -1
    endloop
  endfacet
  facet normal -0 0 -1
    outer loop
      vertex -3.92915 -29.2495 -1
      vertex -10.4 -36 -1
      vertex -3.99211 -28.7512 -1
    endloop
  endfacet
  facet normal -0 0 -1
    outer loop
      vertex -3.80423 -29.7361 -1
      vertex -10.4 -36 -1
      vertex -3.92915 -29.2495 -1
    endloop
  endfacet
  facet normal -0 0 -1
    outer loop
      vertex -3.61931 -30.2031 -1
      vertex -10.4 -36 -1
      vertex -3.80423 -29.7361 -1
    endloop
  endfacet
  facet normal -0 0 -1
    outer loop
      vertex -3.37731 -30.6433 -1
      vertex -10.4 -36 -1
      vertex -3.61931 -30.2031 -1
    endloop
  endfacet
  facet normal -0 0 -1
    outer loop
      vertex -3.08205 -31.0497 -1
      vertex -10.4 -36 -1
      vertex -3.37731 -30.6433 -1
    endloop
  endfacet
  facet normal -0 0 -1
    outer loop
      vertex -2.73819 -31.4159 -1
      vertex -10.4 -36 -1
      vertex -3.08205 -31.0497 -1
    endloop
  endfacet
  facet normal -0 0 -1
    outer loop
      vertex -2.35114 -31.7361 -1
      vertex -10.4 -36 -1
      vertex -2.73819 -31.4159 -1
    endloop
  endfacet
  facet normal -0 0 -1
    outer loop
      vertex -1.92701 -32.0052 -1
      vertex -10.4 -36 -1
      vertex -2.35114 -31.7361 -1
    endloop
  endfacet
  facet normal -0 0 -1
    outer loop
      vertex -1.4725 -32.2191 -1
      vertex -10.4 -36 -1
      vertex -1.92701 -32.0052 -1
    endloop
  endfacet
  facet normal -0 0 -1
    outer loop
      vertex -0.994759 -32.3743 -1
      vertex -10.4 -36 -1
      vertex -1.4725 -32.2191 -1
    endloop
  endfacet
  facet normal 0 0 -1
    outer loop
      vertex 8.5 -36 -1
      vertex 4 8.065 -1
      vertex 8.5 36 -1
    endloop
  endfacet
  facet normal 0 0 -1
    outer loop
      vertex 3.80423 27.2639 -1
      vertex 8.5 36 -1
      vertex 4 8.065 -1
    endloop
  endfacet
  facet normal 0 0 -1
    outer loop
      vertex 3.99211 28.7512 -1
      vertex 8.5 36 -1
      vertex 3.99211 28.2488 -1
    endloop
  endfacet
  facet normal 0 0 -1
    outer loop
      vertex 3.92915 29.2495 -1
      vertex 8.5 36 -1
      vertex 3.99211 28.7512 -1
    endloop
  endfacet
  facet normal 0 0 -1
    outer loop
      vertex 3.80423 29.7361 -1
      vertex 8.5 36 -1
      vertex 3.92915 29.2495 -1
    endloop
  endfacet
  facet normal 0 0 -1
    outer loop
      vertex 3.61931 30.2031 -1
      vertex 8.5 36 -1
      vertex 3.80423 29.7361 -1
    endloop
  endfacet
  facet normal 0 0 -1
    outer loop
      vertex 3.37731 30.6433 -1
      vertex 8.5 36 -1
      vertex 3.61931 30.2031 -1
    endloop
  endfacet
  facet normal 0 0 -1
    outer loop
      vertex 3.08205 31.0497 -1
      vertex 8.5 36 -1
      vertex 3.37731 30.6433 -1
    endloop
  endfacet
  facet normal 0 0 -1
    outer loop
      vertex 2.73819 31.4159 -1
      vertex 8.5 36 -1
      vertex 3.08205 31.0497 -1
    endloop
  endfacet
  facet normal 0 0 -1
    outer loop
      vertex 2.35114 31.7361 -1
      vertex 8.5 36 -1
      vertex 2.73819 31.4159 -1
    endloop
  endfacet
  facet normal 0 0 -1
    outer loop
      vertex 1.92701 32.0052 -1
      vertex 8.5 36 -1
      vertex 2.35114 31.7361 -1
    endloop
  endfacet
  facet normal 0 0 -1
    outer loop
      vertex 1.4725 32.2191 -1
      vertex 8.5 36 -1
      vertex 1.92701 32.0052 -1
    endloop
  endfacet
  facet normal 0 0 -1
    outer loop
      vertex 0.994759 32.3743 -1
      vertex 8.5 36 -1
      vertex 1.4725 32.2191 -1
    endloop
  endfacet
  facet normal 0 0 -1
    outer loop
      vertex 0.501332 32.4685 -1
      vertex 8.5 36 -1
      vertex 0.994759 32.3743 -1
    endloop
  endfacet
  facet normal 0 0 -1
    outer loop
      vertex 0 32.5 -1
      vertex 8.5 36 -1
      vertex 0.501332 32.4685 -1
    endloop
  endfacet
  facet normal 0 0 -1
    outer loop
      vertex -10.4 36 -1
      vertex 0 32.5 -1
      vertex -0.501332 32.4685 -1
    endloop
  endfacet
  facet normal 0 0 -1
    outer loop
      vertex -10.4 36 -1
      vertex -0.501332 32.4685 -1
      vertex -0.994759 32.3743 -1
    endloop
  endfacet
  facet normal 0 0 -1
    outer loop
      vertex -10.4 36 -1
      vertex -0.994759 32.3743 -1
      vertex -1.4725 32.2191 -1
    endloop
  endfacet
  facet normal 0 0 -1
    outer loop
      vertex -10.4 36 -1
      vertex -4 8.065 -1
      vertex -10.4 -36 -1
    endloop
  endfacet
  facet normal 0 0 -1
    outer loop
      vertex 0 32.5 -1
      vertex -10.4 36 -1
      vertex 8.5 36 -1
    endloop
  endfacet
  facet normal 0 0 -1
    outer loop
      vertex -1.92701 32.0052 -1
      vertex -10.4 36 -1
      vertex -1.4725 32.2191 -1
    endloop
  endfacet
  facet normal 0 0 -1
    outer loop
      vertex -2.35114 31.7361 -1
      vertex -10.4 36 -1
      vertex -1.92701 32.0052 -1
    endloop
  endfacet
  facet normal 0 0 -1
    outer loop
      vertex -2.73819 31.4159 -1
      vertex -10.4 36 -1
      vertex -2.35114 31.7361 -1
    endloop
  endfacet
  facet normal 0 0 -1
    outer loop
      vertex -3.08205 31.0497 -1
      vertex -10.4 36 -1
      vertex -2.73819 31.4159 -1
    endloop
  endfacet
  facet normal 0 0 -1
    outer loop
      vertex -3.37731 30.6433 -1
      vertex -10.4 36 -1
      vertex -3.08205 31.0497 -1
    endloop
  endfacet
  facet normal 0 0 -1
    outer loop
      vertex -3.61931 30.2031 -1
      vertex -10.4 36 -1
      vertex -3.37731 30.6433 -1
    endloop
  endfacet
  facet normal 0 0 -1
    outer loop
      vertex -3.80423 29.7361 -1
      vertex -10.4 36 -1
      vertex -3.61931 30.2031 -1
    endloop
  endfacet
  facet normal 0 0 -1
    outer loop
      vertex -3.92915 29.2495 -1
      vertex -10.4 36 -1
      vertex -3.80423 29.7361 -1
    endloop
  endfacet
  facet normal 0 0 -1
    outer loop
      vertex -3.99211 28.7512 -1
      vertex -10.4 36 -1
      vertex -3.92915 29.2495 -1
    endloop
  endfacet
  facet normal 0 0 -1
    outer loop
      vertex -3.99211 28.2488 -1
      vertex -10.4 36 -1
      vertex -3.99211 28.7512 -1
    endloop
  endfacet
  facet normal 0 0 -1
    outer loop
      vertex 3.99211 -28.2488 -1
      vertex 4 -28.015 -1
      vertex 3.99211 -28.7512 -1
    endloop
  endfacet
  facet normal -0 0 -1
    outer loop
      vertex 4 -28.015 -1
      vertex 3.99211 -28.2488 -1
      vertex 3.96257 -28.015 -1
    endloop
  endfacet
  facet normal -0 0 -1
    outer loop
      vertex -3.96257 -28.015 -1
      vertex -3.99211 -28.2488 -1
      vertex -4 -28.015 -1
    endloop
  endfacet
  facet normal 0 -1 0
    outer loop
      vertex -10.4 -36 14
      vertex -8.4 -36 1
      vertex -8.4 -36 14
    endloop
  endfacet
  facet normal 0 -1 0
    outer loop
      vertex -10.4 -36 -1
      vertex -8.4 -36 1
      vertex -10.4 -36 14
    endloop
  endfacet
  facet normal 0 -1 0
    outer loop
      vertex 8.5 -36 -1
      vertex -8.4 -36 1
      vertex -10.4 -36 -1
    endloop
  endfacet
  facet normal 0 -1 0
    outer loop
      vertex -8.4 -36 1
      vertex 8.5 -36 -1
      vertex 8.5 -36 1
    endloop
  endfacet
  facet normal 1 -0 0
    outer loop
      vertex 8.5 -36 1
      vertex 8.5 36 -1
      vertex 8.5 36 1
    endloop
  endfacet
  facet normal 1 0 0
    outer loop
      vertex 8.5 36 -1
      vertex 8.5 -36 1
      vertex 8.5 -36 -1
    endloop
  endfacet
  facet normal 0.929762 -0.368162 0
    outer loop
      vertex -3.80423 29.7361 1
      vertex -3.61931 30.2031 -1
      vertex -3.61931 30.2031 1
    endloop
  endfacet
  facet normal 0.929762 -0.368162 0
    outer loop
      vertex -3.61931 30.2031 -1
      vertex -3.80423 29.7361 1
      vertex -3.80423 29.7361 -1
    endloop
  endfacet
  facet normal -0.187523 -0.98226 0
    outer loop
      vertex 0.501332 32.4685 -1
      vertex 0.994759 32.3743 1
      vertex 0.501332 32.4685 1
    endloop
  endfacet
  facet normal -0.187523 -0.98226 -0
    outer loop
      vertex 0.994759 32.3743 1
      vertex 0.501332 32.4685 -1
      vertex 0.994759 32.3743 -1
    endloop
  endfacet
  facet normal -0.062709 -0.998032 0
    outer loop
      vertex 0 32.5 -1
      vertex 0.501332 32.4685 1
      vertex 0 32.5 1
    endloop
  endfacet
  facet normal -0.062709 -0.998032 -0
    outer loop
      vertex 0.501332 32.4685 1
      vertex 0 32.5 -1
      vertex 0.501332 32.4685 -1
    endloop
  endfacet
  facet normal -0.308968 -0.951073 0
    outer loop
      vertex 0.994759 32.3743 -1
      vertex 1.4725 32.2191 1
      vertex 0.994759 32.3743 1
    endloop
  endfacet
  facet normal -0.308968 -0.951073 -0
    outer loop
      vertex 1.4725 32.2191 1
      vertex 0.994759 32.3743 -1
      vertex 1.4725 32.2191 -1
    endloop
  endfacet
  facet normal 0.062709 -0.998032 0
    outer loop
      vertex -0.501332 32.4685 -1
      vertex 0 32.5 1
      vertex -0.501332 32.4685 1
    endloop
  endfacet
  facet normal 0.062709 -0.998032 0
    outer loop
      vertex 0 32.5 1
      vertex -0.501332 32.4685 -1
      vertex 0 32.5 -1
    endloop
  endfacet
  facet normal -0.637429 -0.770509 0
    outer loop
      vertex 2.35114 31.7361 -1
      vertex 2.73819 31.4159 1
      vertex 2.35114 31.7361 1
    endloop
  endfacet
  facet normal -0.637429 -0.770509 -0
    outer loop
      vertex 2.73819 31.4159 1
      vertex 2.35114 31.7361 -1
      vertex 2.73819 31.4159 -1
    endloop
  endfacet
  facet normal -0.968592 -0.248657 0
    outer loop
      vertex 3.92915 29.2495 -1
      vertex 3.80423 29.7361 1
      vertex 3.80423 29.7361 -1
    endloop
  endfacet
  facet normal -0.968592 -0.248657 0
    outer loop
      vertex 3.80423 29.7361 1
      vertex 3.92915 29.2495 -1
      vertex 3.92915 29.2495 1
    endloop
  endfacet
  facet normal -0.308968 0.951073 0
    outer loop
      vertex 1.4725 24.7809 -1
      vertex 0.994759 24.6257 1
      vertex 1.4725 24.7809 1
    endloop
  endfacet
  facet normal -0.308968 0.951073 0
    outer loop
      vertex 0.994759 24.6257 1
      vertex 1.4725 24.7809 -1
      vertex 0.994759 24.6257 -1
    endloop
  endfacet
  facet normal 0.637429 -0.770509 0
    outer loop
      vertex -2.73819 31.4159 -1
      vertex -2.35114 31.7361 1
      vertex -2.73819 31.4159 1
    endloop
  endfacet
  facet normal 0.637429 -0.770509 0
    outer loop
      vertex -2.35114 31.7361 1
      vertex -2.73819 31.4159 -1
      vertex -2.35114 31.7361 -1
    endloop
  endfacet
  facet normal -0.929762 -0.368162 0
    outer loop
      vertex 3.80423 29.7361 -1
      vertex 3.61931 30.2031 1
      vertex 3.61931 30.2031 -1
    endloop
  endfacet
  facet normal -0.929762 -0.368162 0
    outer loop
      vertex 3.61931 30.2031 1
      vertex 3.80423 29.7361 -1
      vertex 3.80423 29.7361 1
    endloop
  endfacet
  facet normal 0.876308 -0.481751 0
    outer loop
      vertex -3.61931 30.2031 1
      vertex -3.37731 30.6433 -1
      vertex -3.37731 30.6433 1
    endloop
  endfacet
  facet normal 0.876308 -0.481751 0
    outer loop
      vertex -3.37731 30.6433 -1
      vertex -3.61931 30.2031 1
      vertex -3.61931 30.2031 -1
    endloop
  endfacet
  facet normal 0.992112 -0.125353 0
    outer loop
      vertex -3.99211 28.7512 1
      vertex -3.92915 29.2495 -1
      vertex -3.92915 29.2495 1
    endloop
  endfacet
  facet normal 0.992112 -0.125353 0
    outer loop
      vertex -3.92915 29.2495 -1
      vertex -3.99211 28.7512 1
      vertex -3.99211 28.7512 -1
    endloop
  endfacet
  facet normal -0.968592 0.248657 0
    outer loop
      vertex 3.80423 27.2639 -1
      vertex 3.92915 27.7505 1
      vertex 3.92915 27.7505 -1
    endloop
  endfacet
  facet normal -0.968592 0.248657 0
    outer loop
      vertex 3.92915 27.7505 1
      vertex 3.80423 27.2639 -1
      vertex 3.80423 27.2639 1
    endloop
  endfacet
  facet normal -0.876308 -0.481751 0
    outer loop
      vertex 3.61931 30.2031 -1
      vertex 3.37731 30.6433 1
      vertex 3.37731 30.6433 -1
    endloop
  endfacet
  facet normal -0.876308 -0.481751 0
    outer loop
      vertex 3.37731 30.6433 1
      vertex 3.61931 30.2031 -1
      vertex 3.61931 30.2031 1
    endloop
  endfacet
  facet normal -0.187523 0.98226 0
    outer loop
      vertex 0.994759 24.6257 -1
      vertex 0.501332 24.5315 1
      vertex 0.994759 24.6257 1
    endloop
  endfacet
  facet normal -0.187523 0.98226 0
    outer loop
      vertex 0.501332 24.5315 1
      vertex 0.994759 24.6257 -1
      vertex 0.501332 24.5315 -1
    endloop
  endfacet
  facet normal 0.062709 0.998032 -0
    outer loop
      vertex 0 24.5 -1
      vertex -0.501332 24.5315 1
      vertex 0 24.5 1
    endloop
  endfacet
  facet normal 0.062709 0.998032 0
    outer loop
      vertex -0.501332 24.5315 1
      vertex 0 24.5 -1
      vertex -0.501332 24.5315 -1
    endloop
  endfacet
  facet normal 0.308968 -0.951073 0
    outer loop
      vertex -1.4725 32.2191 -1
      vertex -0.994759 32.3743 1
      vertex -1.4725 32.2191 1
    endloop
  endfacet
  facet normal 0.308968 -0.951073 0
    outer loop
      vertex -0.994759 32.3743 1
      vertex -1.4725 32.2191 -1
      vertex -0.994759 32.3743 -1
    endloop
  endfacet
  facet normal -0.637429 0.770509 0
    outer loop
      vertex 2.73819 25.5841 -1
      vertex 2.35114 25.2639 1
      vertex 2.73819 25.5841 1
    endloop
  endfacet
  facet normal -0.637429 0.770509 0
    outer loop
      vertex 2.35114 25.2639 1
      vertex 2.73819 25.5841 -1
      vertex 2.35114 25.2639 -1
    endloop
  endfacet
  facet normal -0.809024 0.587776 0
    outer loop
      vertex 3.08205 25.9503 -1
      vertex 3.37731 26.3567 1
      vertex 3.37731 26.3567 -1
    endloop
  endfacet
  facet normal -0.809024 0.587776 0
    outer loop
      vertex 3.37731 26.3567 1
      vertex 3.08205 25.9503 -1
      vertex 3.08205 25.9503 1
    endloop
  endfacet
  facet normal -0.809024 -0.587776 0
    outer loop
      vertex 3.37731 30.6433 -1
      vertex 3.08205 31.0497 1
      vertex 3.08205 31.0497 -1
    endloop
  endfacet
  facet normal -0.809024 -0.587776 0
    outer loop
      vertex 3.08205 31.0497 1
      vertex 3.37731 30.6433 -1
      vertex 3.37731 30.6433 1
    endloop
  endfacet
  facet normal -0.876308 0.481751 0
    outer loop
      vertex 3.37731 26.3567 -1
      vertex 3.61931 26.7969 1
      vertex 3.61931 26.7969 -1
    endloop
  endfacet
  facet normal -0.876308 0.481751 0
    outer loop
      vertex 3.61931 26.7969 1
      vertex 3.37731 26.3567 -1
      vertex 3.37731 26.3567 1
    endloop
  endfacet
  facet normal -1 0 0
    outer loop
      vertex 3.99211 28.2488 -1
      vertex 3.99211 28.7512 1
      vertex 3.99211 28.7512 -1
    endloop
  endfacet
  facet normal -1 -0 0
    outer loop
      vertex 3.99211 28.7512 1
      vertex 3.99211 28.2488 -1
      vertex 3.99211 28.2488 1
    endloop
  endfacet
  facet normal 0.425818 -0.904809 0
    outer loop
      vertex -1.92701 32.0052 -1
      vertex -1.4725 32.2191 1
      vertex -1.92701 32.0052 1
    endloop
  endfacet
  facet normal 0.425818 -0.904809 0
    outer loop
      vertex -1.4725 32.2191 1
      vertex -1.92701 32.0052 -1
      vertex -1.4725 32.2191 -1
    endloop
  endfacet
  facet normal 0.968592 -0.248657 0
    outer loop
      vertex -3.92915 29.2495 1
      vertex -3.80423 29.7361 -1
      vertex -3.80423 29.7361 1
    endloop
  endfacet
  facet normal 0.968592 -0.248657 0
    outer loop
      vertex -3.80423 29.7361 -1
      vertex -3.92915 29.2495 1
      vertex -3.92915 29.2495 -1
    endloop
  endfacet
  facet normal -0.992112 -0.125353 0
    outer loop
      vertex 3.99211 28.7512 -1
      vertex 3.92915 29.2495 1
      vertex 3.92915 29.2495 -1
    endloop
  endfacet
  facet normal -0.992112 -0.125353 0
    outer loop
      vertex 3.92915 29.2495 1
      vertex 3.99211 28.7512 -1
      vertex 3.99211 28.7512 1
    endloop
  endfacet
  facet normal 1 -0 0
    outer loop
      vertex -3.99211 28.2488 1
      vertex -3.99211 28.7512 -1
      vertex -3.99211 28.7512 1
    endloop
  endfacet
  facet normal 1 0 0
    outer loop
      vertex -3.99211 28.7512 -1
      vertex -3.99211 28.2488 1
      vertex -3.99211 28.2488 -1
    endloop
  endfacet
  facet normal 0.187523 0.98226 -0
    outer loop
      vertex -0.501332 24.5315 -1
      vertex -0.994759 24.6257 1
      vertex -0.501332 24.5315 1
    endloop
  endfacet
  facet normal 0.187523 0.98226 0
    outer loop
      vertex -0.994759 24.6257 1
      vertex -0.501332 24.5315 -1
      vertex -0.994759 24.6257 -1
    endloop
  endfacet
  facet normal 0.187523 -0.98226 0
    outer loop
      vertex -0.994759 32.3743 -1
      vertex -0.501332 32.4685 1
      vertex -0.994759 32.3743 1
    endloop
  endfacet
  facet normal 0.187523 -0.98226 0
    outer loop
      vertex -0.501332 32.4685 1
      vertex -0.994759 32.3743 -1
      vertex -0.501332 32.4685 -1
    endloop
  endfacet
  facet normal -0.53574 -0.844383 0
    outer loop
      vertex 1.92701 32.0052 -1
      vertex 2.35114 31.7361 1
      vertex 1.92701 32.0052 1
    endloop
  endfacet
  facet normal -0.53574 -0.844383 -0
    outer loop
      vertex 2.35114 31.7361 1
      vertex 1.92701 32.0052 -1
      vertex 2.35114 31.7361 -1
    endloop
  endfacet
  facet normal 0.425818 0.904809 -0
    outer loop
      vertex -1.4725 24.7809 -1
      vertex -1.92701 24.9948 1
      vertex -1.4725 24.7809 1
    endloop
  endfacet
  facet normal 0.425818 0.904809 0
    outer loop
      vertex -1.92701 24.9948 1
      vertex -1.4725 24.7809 -1
      vertex -1.92701 24.9948 -1
    endloop
  endfacet
  facet normal 0.968592 0.248657 0
    outer loop
      vertex -3.80423 27.2639 1
      vertex -3.92915 27.7505 -1
      vertex -3.92915 27.7505 1
    endloop
  endfacet
  facet normal 0.968592 0.248657 0
    outer loop
      vertex -3.92915 27.7505 -1
      vertex -3.80423 27.2639 1
      vertex -3.80423 27.2639 -1
    endloop
  endfacet
  facet normal -0.929762 0.368162 0
    outer loop
      vertex 3.61931 26.7969 -1
      vertex 3.80423 27.2639 1
      vertex 3.80423 27.2639 -1
    endloop
  endfacet
  facet normal -0.929762 0.368162 0
    outer loop
      vertex 3.80423 27.2639 1
      vertex 3.61931 26.7969 -1
      vertex 3.61931 26.7969 1
    endloop
  endfacet
  facet normal -0.062709 0.998032 0
    outer loop
      vertex 0.501332 24.5315 -1
      vertex 0 24.5 1
      vertex 0.501332 24.5315 1
    endloop
  endfacet
  facet normal -0.062709 0.998032 0
    outer loop
      vertex 0 24.5 1
      vertex 0.501332 24.5315 -1
      vertex 0 24.5 -1
    endloop
  endfacet
  facet normal -0.425818 0.904809 0
    outer loop
      vertex 1.92701 24.9948 -1
      vertex 1.4725 24.7809 1
      vertex 1.92701 24.9948 1
    endloop
  endfacet
  facet normal -0.425818 0.904809 0
    outer loop
      vertex 1.4725 24.7809 1
      vertex 1.92701 24.9948 -1
      vertex 1.4725 24.7809 -1
    endloop
  endfacet
  facet normal 0.53574 0.844383 -0
    outer loop
      vertex -1.92701 24.9948 -1
      vertex -2.35114 25.2639 1
      vertex -1.92701 24.9948 1
    endloop
  endfacet
  facet normal 0.53574 0.844383 0
    outer loop
      vertex -2.35114 25.2639 1
      vertex -1.92701 24.9948 -1
      vertex -2.35114 25.2639 -1
    endloop
  endfacet
  facet normal 0.728993 0.684521 0
    outer loop
      vertex -2.73819 25.5841 1
      vertex -3.08205 25.9503 -1
      vertex -3.08205 25.9503 1
    endloop
  endfacet
  facet normal 0.728993 0.684521 0
    outer loop
      vertex -3.08205 25.9503 -1
      vertex -2.73819 25.5841 1
      vertex -2.73819 25.5841 -1
    endloop
  endfacet
  facet normal 0.53574 -0.844383 0
    outer loop
      vertex -2.35114 31.7361 -1
      vertex -1.92701 32.0052 1
      vertex -2.35114 31.7361 1
    endloop
  endfacet
  facet normal 0.53574 -0.844383 0
    outer loop
      vertex -1.92701 32.0052 1
      vertex -2.35114 31.7361 -1
      vertex -1.92701 32.0052 -1
    endloop
  endfacet
  facet normal 0.728993 -0.684521 0
    outer loop
      vertex -3.08205 31.0497 1
      vertex -2.73819 31.4159 -1
      vertex -2.73819 31.4159 1
    endloop
  endfacet
  facet normal 0.728993 -0.684521 0
    outer loop
      vertex -2.73819 31.4159 -1
      vertex -3.08205 31.0497 1
      vertex -3.08205 31.0497 -1
    endloop
  endfacet
  facet normal -0.425818 -0.904809 0
    outer loop
      vertex 1.4725 32.2191 -1
      vertex 1.92701 32.0052 1
      vertex 1.4725 32.2191 1
    endloop
  endfacet
  facet normal -0.425818 -0.904809 -0
    outer loop
      vertex 1.92701 32.0052 1
      vertex 1.4725 32.2191 -1
      vertex 1.92701 32.0052 -1
    endloop
  endfacet
  facet normal -0.728993 -0.684521 0
    outer loop
      vertex 3.08205 31.0497 -1
      vertex 2.73819 31.4159 1
      vertex 2.73819 31.4159 -1
    endloop
  endfacet
  facet normal -0.728993 -0.684521 0
    outer loop
      vertex 2.73819 31.4159 1
      vertex 3.08205 31.0497 -1
      vertex 3.08205 31.0497 1
    endloop
  endfacet
  facet normal 0.637429 0.770509 -0
    outer loop
      vertex -2.35114 25.2639 -1
      vertex -2.73819 25.5841 1
      vertex -2.35114 25.2639 1
    endloop
  endfacet
  facet normal 0.637429 0.770509 0
    outer loop
      vertex -2.73819 25.5841 1
      vertex -2.35114 25.2639 -1
      vertex -2.73819 25.5841 -1
    endloop
  endfacet
  facet normal 0.308968 0.951073 -0
    outer loop
      vertex -0.994759 24.6257 -1
      vertex -1.4725 24.7809 1
      vertex -0.994759 24.6257 1
    endloop
  endfacet
  facet normal 0.308968 0.951073 0
    outer loop
      vertex -1.4725 24.7809 1
      vertex -0.994759 24.6257 -1
      vertex -1.4725 24.7809 -1
    endloop
  endfacet
  facet normal 0.992112 0.125353 0
    outer loop
      vertex -3.92915 27.7505 1
      vertex -3.99211 28.2488 -1
      vertex -3.99211 28.2488 1
    endloop
  endfacet
  facet normal 0.992112 0.125353 0
    outer loop
      vertex -3.99211 28.2488 -1
      vertex -3.92915 27.7505 1
      vertex -3.92915 27.7505 -1
    endloop
  endfacet
  facet normal 0.809024 -0.587776 0
    outer loop
      vertex -3.37731 30.6433 1
      vertex -3.08205 31.0497 -1
      vertex -3.08205 31.0497 1
    endloop
  endfacet
  facet normal 0.809024 -0.587776 0
    outer loop
      vertex -3.08205 31.0497 -1
      vertex -3.37731 30.6433 1
      vertex -3.37731 30.6433 -1
    endloop
  endfacet
  facet normal -0.728993 0.684521 0
    outer loop
      vertex 2.73819 25.5841 -1
      vertex 3.08205 25.9503 1
      vertex 3.08205 25.9503 -1
    endloop
  endfacet
  facet normal -0.728993 0.684521 0
    outer loop
      vertex 3.08205 25.9503 1
      vertex 2.73819 25.5841 -1
      vertex 2.73819 25.5841 1
    endloop
  endfacet
  facet normal -0.53574 0.844383 0
    outer loop
      vertex 2.35114 25.2639 -1
      vertex 1.92701 24.9948 1
      vertex 2.35114 25.2639 1
    endloop
  endfacet
  facet normal -0.53574 0.844383 0
    outer loop
      vertex 1.92701 24.9948 1
      vertex 2.35114 25.2639 -1
      vertex 1.92701 24.9948 -1
    endloop
  endfacet
  facet normal 0.809024 0.587776 0
    outer loop
      vertex -3.08205 25.9503 1
      vertex -3.37731 26.3567 -1
      vertex -3.37731 26.3567 1
    endloop
  endfacet
  facet normal 0.809024 0.587776 0
    outer loop
      vertex -3.37731 26.3567 -1
      vertex -3.08205 25.9503 1
      vertex -3.08205 25.9503 -1
    endloop
  endfacet
  facet normal -0.992112 0.125353 0
    outer loop
      vertex 3.92915 27.7505 -1
      vertex 3.99211 28.2488 1
      vertex 3.99211 28.2488 -1
    endloop
  endfacet
  facet normal -0.992112 0.125353 0
    outer loop
      vertex 3.99211 28.2488 1
      vertex 3.92915 27.7505 -1
      vertex 3.92915 27.7505 1
    endloop
  endfacet
  facet normal 0.876308 0.481751 0
    outer loop
      vertex -3.37731 26.3567 1
      vertex -3.61931 26.7969 -1
      vertex -3.61931 26.7969 1
    endloop
  endfacet
  facet normal 0.876308 0.481751 0
    outer loop
      vertex -3.61931 26.7969 -1
      vertex -3.37731 26.3567 1
      vertex -3.37731 26.3567 -1
    endloop
  endfacet
  facet normal 0.929762 0.368162 0
    outer loop
      vertex -3.61931 26.7969 1
      vertex -3.80423 27.2639 -1
      vertex -3.80423 27.2639 1
    endloop
  endfacet
  facet normal 0.929762 0.368162 0
    outer loop
      vertex -3.80423 27.2639 -1
      vertex -3.61931 26.7969 1
      vertex -3.61931 26.7969 -1
    endloop
  endfacet
  facet normal -0.929762 0.368162 0
    outer loop
      vertex 3.61931 -30.2031 -1
      vertex 3.80423 -29.7361 1
      vertex 3.80423 -29.7361 -1
    endloop
  endfacet
  facet normal -0.929762 0.368162 0
    outer loop
      vertex 3.80423 -29.7361 1
      vertex 3.61931 -30.2031 -1
      vertex 3.61931 -30.2031 1
    endloop
  endfacet
  facet normal -0.968592 0.248657 0
    outer loop
      vertex 3.80423 -29.7361 -1
      vertex 3.92915 -29.2495 1
      vertex 3.92915 -29.2495 -1
    endloop
  endfacet
  facet normal -0.968592 0.248657 0
    outer loop
      vertex 3.92915 -29.2495 1
      vertex 3.80423 -29.7361 -1
      vertex 3.80423 -29.7361 1
    endloop
  endfacet
  facet normal -0.187523 0.98226 0
    outer loop
      vertex 0.994759 -32.3743 -1
      vertex 0.501332 -32.4685 1
      vertex 0.994759 -32.3743 1
    endloop
  endfacet
  facet normal -0.187523 0.98226 0
    outer loop
      vertex 0.501332 -32.4685 1
      vertex 0.994759 -32.3743 -1
      vertex 0.501332 -32.4685 -1
    endloop
  endfacet
  facet normal 1 -0 0
    outer loop
      vertex -3.99211 -28.7512 1
      vertex -3.99211 -28.2488 -1
      vertex -3.99211 -28.2488 1
    endloop
  endfacet
  facet normal 1 0 0
    outer loop
      vertex -3.99211 -28.2488 -1
      vertex -3.99211 -28.7512 1
      vertex -3.99211 -28.7512 -1
    endloop
  endfacet
  facet normal 0.062709 0.998032 -0
    outer loop
      vertex 0 -32.5 -1
      vertex -0.501332 -32.4685 1
      vertex 0 -32.5 1
    endloop
  endfacet
  facet normal 0.062709 0.998032 0
    outer loop
      vertex -0.501332 -32.4685 1
      vertex 0 -32.5 -1
      vertex -0.501332 -32.4685 -1
    endloop
  endfacet
  facet normal -0.992112 0.125353 0
    outer loop
      vertex 3.92915 -29.2495 -1
      vertex 3.99211 -28.7512 1
      vertex 3.99211 -28.7512 -1
    endloop
  endfacet
  facet normal -0.992112 0.125353 0
    outer loop
      vertex 3.99211 -28.7512 1
      vertex 3.92915 -29.2495 -1
      vertex 3.92915 -29.2495 1
    endloop
  endfacet
  facet normal 0.728993 0.684521 0
    outer loop
      vertex -2.73819 -31.4159 1
      vertex -3.08205 -31.0497 -1
      vertex -3.08205 -31.0497 1
    endloop
  endfacet
  facet normal 0.728993 0.684521 0
    outer loop
      vertex -3.08205 -31.0497 -1
      vertex -2.73819 -31.4159 1
      vertex -2.73819 -31.4159 -1
    endloop
  endfacet
  facet normal 0.425818 0.904809 -0
    outer loop
      vertex -1.4725 -32.2191 -1
      vertex -1.92701 -32.0052 1
      vertex -1.4725 -32.2191 1
    endloop
  endfacet
  facet normal 0.425818 0.904809 0
    outer loop
      vertex -1.92701 -32.0052 1
      vertex -1.4725 -32.2191 -1
      vertex -1.92701 -32.0052 -1
    endloop
  endfacet
  facet normal 0.187523 0.98226 -0
    outer loop
      vertex -0.501332 -32.4685 -1
      vertex -0.994759 -32.3743 1
      vertex -0.501332 -32.4685 1
    endloop
  endfacet
  facet normal 0.187523 0.98226 0
    outer loop
      vertex -0.994759 -32.3743 1
      vertex -0.501332 -32.4685 -1
      vertex -0.994759 -32.3743 -1
    endloop
  endfacet
  facet normal -0.728993 0.684521 0
    outer loop
      vertex 2.73819 -31.4159 -1
      vertex 3.08205 -31.0497 1
      vertex 3.08205 -31.0497 -1
    endloop
  endfacet
  facet normal -0.728993 0.684521 0
    outer loop
      vertex 3.08205 -31.0497 1
      vertex 2.73819 -31.4159 -1
      vertex 2.73819 -31.4159 1
    endloop
  endfacet
  facet normal 0.992112 -0.125351 0
    outer loop
      vertex -3.99211 -28.2488 1
      vertex -3.96257 -28.015 -1
      vertex -3.96257 -28.015 1
    endloop
  endfacet
  facet normal 0.992112 -0.125351 0
    outer loop
      vertex -3.96257 -28.015 -1
      vertex -3.99211 -28.2488 1
      vertex -3.99211 -28.2488 -1
    endloop
  endfacet
  facet normal 0.968592 0.248657 0
    outer loop
      vertex -3.80423 -29.7361 1
      vertex -3.92915 -29.2495 -1
      vertex -3.92915 -29.2495 1
    endloop
  endfacet
  facet normal 0.968592 0.248657 0
    outer loop
      vertex -3.92915 -29.2495 -1
      vertex -3.80423 -29.7361 1
      vertex -3.80423 -29.7361 -1
    endloop
  endfacet
  facet normal -0.876308 0.481751 0
    outer loop
      vertex 3.37731 -30.6433 -1
      vertex 3.61931 -30.2031 1
      vertex 3.61931 -30.2031 -1
    endloop
  endfacet
  facet normal -0.876308 0.481751 0
    outer loop
      vertex 3.61931 -30.2031 1
      vertex 3.37731 -30.6433 -1
      vertex 3.37731 -30.6433 1
    endloop
  endfacet
  facet normal -0.308968 0.951073 0
    outer loop
      vertex 1.4725 -32.2191 -1
      vertex 0.994759 -32.3743 1
      vertex 1.4725 -32.2191 1
    endloop
  endfacet
  facet normal -0.308968 0.951073 0
    outer loop
      vertex 0.994759 -32.3743 1
      vertex 1.4725 -32.2191 -1
      vertex 0.994759 -32.3743 -1
    endloop
  endfacet
  facet normal 0.809024 0.587776 0
    outer loop
      vertex -3.08205 -31.0497 1
      vertex -3.37731 -30.6433 -1
      vertex -3.37731 -30.6433 1
    endloop
  endfacet
  facet normal 0.809024 0.587776 0
    outer loop
      vertex -3.37731 -30.6433 -1
      vertex -3.08205 -31.0497 1
      vertex -3.08205 -31.0497 -1
    endloop
  endfacet
  facet normal 0.53574 0.844383 -0
    outer loop
      vertex -1.92701 -32.0052 -1
      vertex -2.35114 -31.7361 1
      vertex -1.92701 -32.0052 1
    endloop
  endfacet
  facet normal 0.53574 0.844383 0
    outer loop
      vertex -2.35114 -31.7361 1
      vertex -1.92701 -32.0052 -1
      vertex -2.35114 -31.7361 -1
    endloop
  endfacet
  facet normal 0.308968 0.951073 -0
    outer loop
      vertex -0.994759 -32.3743 -1
      vertex -1.4725 -32.2191 1
      vertex -0.994759 -32.3743 1
    endloop
  endfacet
  facet normal 0.308968 0.951073 0
    outer loop
      vertex -1.4725 -32.2191 1
      vertex -0.994759 -32.3743 -1
      vertex -1.4725 -32.2191 -1
    endloop
  endfacet
  facet normal -0.637429 0.770509 0
    outer loop
      vertex 2.73819 -31.4159 -1
      vertex 2.35114 -31.7361 1
      vertex 2.73819 -31.4159 1
    endloop
  endfacet
  facet normal -0.637429 0.770509 0
    outer loop
      vertex 2.35114 -31.7361 1
      vertex 2.73819 -31.4159 -1
      vertex 2.35114 -31.7361 -1
    endloop
  endfacet
  facet normal 0.637429 0.770509 -0
    outer loop
      vertex -2.35114 -31.7361 -1
      vertex -2.73819 -31.4159 1
      vertex -2.35114 -31.7361 1
    endloop
  endfacet
  facet normal 0.637429 0.770509 0
    outer loop
      vertex -2.73819 -31.4159 1
      vertex -2.35114 -31.7361 -1
      vertex -2.73819 -31.4159 -1
    endloop
  endfacet
  facet normal -0.062709 0.998032 0
    outer loop
      vertex 0.501332 -32.4685 -1
      vertex 0 -32.5 1
      vertex 0.501332 -32.4685 1
    endloop
  endfacet
  facet normal -0.062709 0.998032 0
    outer loop
      vertex 0 -32.5 1
      vertex 0.501332 -32.4685 -1
      vertex 0 -32.5 -1
    endloop
  endfacet
  facet normal -0.809024 0.587776 0
    outer loop
      vertex 3.08205 -31.0497 -1
      vertex 3.37731 -30.6433 1
      vertex 3.37731 -30.6433 -1
    endloop
  endfacet
  facet normal -0.809024 0.587776 0
    outer loop
      vertex 3.37731 -30.6433 1
      vertex 3.08205 -31.0497 -1
      vertex 3.08205 -31.0497 1
    endloop
  endfacet
  facet normal 0.992112 0.125353 0
    outer loop
      vertex -3.92915 -29.2495 1
      vertex -3.99211 -28.7512 -1
      vertex -3.99211 -28.7512 1
    endloop
  endfacet
  facet normal 0.992112 0.125353 0
    outer loop
      vertex -3.99211 -28.7512 -1
      vertex -3.92915 -29.2495 1
      vertex -3.92915 -29.2495 -1
    endloop
  endfacet
  facet normal -0.992112 -0.125351 0
    outer loop
      vertex 3.99211 -28.2488 -1
      vertex 3.96257 -28.015 1
      vertex 3.96257 -28.015 -1
    endloop
  endfacet
  facet normal -0.992112 -0.125351 0
    outer loop
      vertex 3.96257 -28.015 1
      vertex 3.99211 -28.2488 -1
      vertex 3.99211 -28.2488 1
    endloop
  endfacet
  facet normal 0.876308 0.481751 0
    outer loop
      vertex -3.37731 -30.6433 1
      vertex -3.61931 -30.2031 -1
      vertex -3.61931 -30.2031 1
    endloop
  endfacet
  facet normal 0.876308 0.481751 0
    outer loop
      vertex -3.61931 -30.2031 -1
      vertex -3.37731 -30.6433 1
      vertex -3.37731 -30.6433 -1
    endloop
  endfacet
  facet normal -1 0 0
    outer loop
      vertex 3.99211 -28.7512 -1
      vertex 3.99211 -28.2488 1
      vertex 3.99211 -28.2488 -1
    endloop
  endfacet
  facet normal -1 -0 0
    outer loop
      vertex 3.99211 -28.2488 1
      vertex 3.99211 -28.7512 -1
      vertex 3.99211 -28.7512 1
    endloop
  endfacet
  facet normal -0.53574 0.844383 0
    outer loop
      vertex 2.35114 -31.7361 -1
      vertex 1.92701 -32.0052 1
      vertex 2.35114 -31.7361 1
    endloop
  endfacet
  facet normal -0.53574 0.844383 0
    outer loop
      vertex 1.92701 -32.0052 1
      vertex 2.35114 -31.7361 -1
      vertex 1.92701 -32.0052 -1
    endloop
  endfacet
  facet normal -0.425818 0.904809 0
    outer loop
      vertex 1.92701 -32.0052 -1
      vertex 1.4725 -32.2191 1
      vertex 1.92701 -32.0052 1
    endloop
  endfacet
  facet normal -0.425818 0.904809 0
    outer loop
      vertex 1.4725 -32.2191 1
      vertex 1.92701 -32.0052 -1
      vertex 1.4725 -32.2191 -1
    endloop
  endfacet
  facet normal 0.929762 0.368162 0
    outer loop
      vertex -3.61931 -30.2031 1
      vertex -3.80423 -29.7361 -1
      vertex -3.80423 -29.7361 1
    endloop
  endfacet
  facet normal 0.929762 0.368162 0
    outer loop
      vertex -3.80423 -29.7361 -1
      vertex -3.61931 -30.2031 1
      vertex -3.61931 -30.2031 -1
    endloop
  endfacet
  facet normal 0.929775 -0.368128 0
    outer loop
      vertex -3.80423 8.36107 1
      vertex -3.61931 8.82812 -1
      vertex -3.61931 8.82812 1
    endloop
  endfacet
  facet normal 0.929775 -0.368128 0
    outer loop
      vertex -3.61931 8.82812 -1
      vertex -3.80423 8.36107 1
      vertex -3.80423 8.36107 -1
    endloop
  endfacet
  facet normal -0.187523 -0.98226 0
    outer loop
      vertex 0.501332 11.0935 -1
      vertex 0.994759 10.9993 1
      vertex 0.501332 11.0935 1
    endloop
  endfacet
  facet normal -0.187523 -0.98226 -0
    outer loop
      vertex 0.994759 10.9993 1
      vertex 0.501332 11.0935 -1
      vertex 0.994759 10.9993 -1
    endloop
  endfacet
  facet normal -0.062709 -0.998032 0
    outer loop
      vertex 0 11.125 -1
      vertex 0.501332 11.0935 1
      vertex 0 11.125 1
    endloop
  endfacet
  facet normal -0.062709 -0.998032 -0
    outer loop
      vertex 0.501332 11.0935 1
      vertex 0 11.125 -1
      vertex 0.501332 11.0935 -1
    endloop
  endfacet
  facet normal -0.308968 -0.951073 0
    outer loop
      vertex 0.994759 10.9993 -1
      vertex 1.4725 10.8441 1
      vertex 0.994759 10.9993 1
    endloop
  endfacet
  facet normal -0.308968 -0.951073 -0
    outer loop
      vertex 1.4725 10.8441 1
      vertex 0.994759 10.9993 -1
      vertex 1.4725 10.8441 -1
    endloop
  endfacet
  facet normal 0.062709 -0.998032 0
    outer loop
      vertex -0.501332 11.0935 -1
      vertex 0 11.125 1
      vertex -0.501332 11.0935 1
    endloop
  endfacet
  facet normal 0.062709 -0.998032 0
    outer loop
      vertex 0 11.125 1
      vertex -0.501332 11.0935 -1
      vertex 0 11.125 -1
    endloop
  endfacet
  facet normal -0.637429 -0.770509 0
    outer loop
      vertex 2.35114 10.3611 -1
      vertex 2.73819 10.0409 1
      vertex 2.35114 10.3611 1
    endloop
  endfacet
  facet normal -0.637429 -0.770509 -0
    outer loop
      vertex 2.73819 10.0409 1
      vertex 2.35114 10.3611 -1
      vertex 2.73819 10.0409 -1
    endloop
  endfacet
  facet normal -0.968589 -0.248666 0
    outer loop
      vertex 3.88024 8.065 -1
      vertex 3.80423 8.36107 1
      vertex 3.80423 8.36107 -1
    endloop
  endfacet
  facet normal -0.968589 -0.248666 0
    outer loop
      vertex 3.80423 8.36107 1
      vertex 3.88024 8.065 -1
      vertex 3.88024 8.065 1
    endloop
  endfacet
  facet normal 0.637429 -0.770509 0
    outer loop
      vertex -2.73819 10.0409 -1
      vertex -2.35114 10.3611 1
      vertex -2.73819 10.0409 1
    endloop
  endfacet
  facet normal 0.637429 -0.770509 0
    outer loop
      vertex -2.35114 10.3611 1
      vertex -2.73819 10.0409 -1
      vertex -2.35114 10.3611 -1
    endloop
  endfacet
  facet normal -0.929775 -0.368128 0
    outer loop
      vertex 3.80423 8.36107 -1
      vertex 3.61931 8.82812 1
      vertex 3.61931 8.82812 -1
    endloop
  endfacet
  facet normal -0.929775 -0.368128 0
    outer loop
      vertex 3.61931 8.82812 1
      vertex 3.80423 8.36107 -1
      vertex 3.80423 8.36107 1
    endloop
  endfacet
  facet normal 0.876304 -0.481759 0
    outer loop
      vertex -3.61931 8.82812 1
      vertex -3.37731 9.26831 -1
      vertex -3.37731 9.26831 1
    endloop
  endfacet
  facet normal 0.876304 -0.481759 0
    outer loop
      vertex -3.37731 9.26831 -1
      vertex -3.61931 8.82812 1
      vertex -3.61931 8.82812 -1
    endloop
  endfacet
  facet normal -0.876304 -0.481759 0
    outer loop
      vertex 3.61931 8.82812 -1
      vertex 3.37731 9.26831 1
      vertex 3.37731 9.26831 -1
    endloop
  endfacet
  facet normal -0.876304 -0.481759 0
    outer loop
      vertex 3.37731 9.26831 1
      vertex 3.61931 8.82812 -1
      vertex 3.61931 8.82812 1
    endloop
  endfacet
  facet normal 0.308968 -0.951073 0
    outer loop
      vertex -1.4725 10.8441 -1
      vertex -0.994759 10.9993 1
      vertex -1.4725 10.8441 1
    endloop
  endfacet
  facet normal 0.308968 -0.951073 0
    outer loop
      vertex -0.994759 10.9993 1
      vertex -1.4725 10.8441 -1
      vertex -0.994759 10.9993 -1
    endloop
  endfacet
  facet normal -0.809017 -0.587786 0
    outer loop
      vertex 3.37731 9.26831 -1
      vertex 3.08205 9.6747 1
      vertex 3.08205 9.6747 -1
    endloop
  endfacet
  facet normal -0.809017 -0.587786 0
    outer loop
      vertex 3.08205 9.6747 1
      vertex 3.37731 9.26831 -1
      vertex 3.37731 9.26831 1
    endloop
  endfacet
  facet normal 0.425818 -0.904809 0
    outer loop
      vertex -1.92701 10.6302 -1
      vertex -1.4725 10.8441 1
      vertex -1.92701 10.6302 1
    endloop
  endfacet
  facet normal 0.425818 -0.904809 0
    outer loop
      vertex -1.4725 10.8441 1
      vertex -1.92701 10.6302 -1
      vertex -1.4725 10.8441 -1
    endloop
  endfacet
  facet normal 0.968589 -0.248666 0
    outer loop
      vertex -3.88024 8.065 1
      vertex -3.80423 8.36107 -1
      vertex -3.80423 8.36107 1
    endloop
  endfacet
  facet normal 0.968589 -0.248666 0
    outer loop
      vertex -3.80423 8.36107 -1
      vertex -3.88024 8.065 1
      vertex -3.88024 8.065 -1
    endloop
  endfacet
  facet normal 0.187523 -0.98226 0
    outer loop
      vertex -0.994759 10.9993 -1
      vertex -0.501332 11.0935 1
      vertex -0.994759 10.9993 1
    endloop
  endfacet
  facet normal 0.187523 -0.98226 0
    outer loop
      vertex -0.501332 11.0935 1
      vertex -0.994759 10.9993 -1
      vertex -0.501332 11.0935 -1
    endloop
  endfacet
  facet normal -0.53574 -0.844383 0
    outer loop
      vertex 1.92701 10.6302 -1
      vertex 2.35114 10.3611 1
      vertex 1.92701 10.6302 1
    endloop
  endfacet
  facet normal -0.53574 -0.844383 -0
    outer loop
      vertex 2.35114 10.3611 1
      vertex 1.92701 10.6302 -1
      vertex 2.35114 10.3611 -1
    endloop
  endfacet
  facet normal 0.53574 -0.844383 0
    outer loop
      vertex -2.35114 10.3611 -1
      vertex -1.92701 10.6302 1
      vertex -2.35114 10.3611 1
    endloop
  endfacet
  facet normal 0.53574 -0.844383 0
    outer loop
      vertex -1.92701 10.6302 1
      vertex -2.35114 10.3611 -1
      vertex -1.92701 10.6302 -1
    endloop
  endfacet
  facet normal 0.728993 -0.684521 0
    outer loop
      vertex -3.08205 9.6747 1
      vertex -2.73819 10.0409 -1
      vertex -2.73819 10.0409 1
    endloop
  endfacet
  facet normal 0.728993 -0.684521 0
    outer loop
      vertex -2.73819 10.0409 -1
      vertex -3.08205 9.6747 1
      vertex -3.08205 9.6747 -1
    endloop
  endfacet
  facet normal -0.425818 -0.904809 0
    outer loop
      vertex 1.4725 10.8441 -1
      vertex 1.92701 10.6302 1
      vertex 1.4725 10.8441 1
    endloop
  endfacet
  facet normal -0.425818 -0.904809 -0
    outer loop
      vertex 1.92701 10.6302 1
      vertex 1.4725 10.8441 -1
      vertex 1.92701 10.6302 -1
    endloop
  endfacet
  facet normal -0.728993 -0.684521 0
    outer loop
      vertex 3.08205 9.6747 -1
      vertex 2.73819 10.0409 1
      vertex 2.73819 10.0409 -1
    endloop
  endfacet
  facet normal -0.728993 -0.684521 0
    outer loop
      vertex 2.73819 10.0409 1
      vertex 3.08205 9.6747 -1
      vertex 3.08205 9.6747 1
    endloop
  endfacet
  facet normal 0.809017 -0.587786 0
    outer loop
      vertex -3.37731 9.26831 1
      vertex -3.08205 9.6747 -1
      vertex -3.08205 9.6747 1
    endloop
  endfacet
  facet normal 0.809017 -0.587786 0
    outer loop
      vertex -3.08205 9.6747 -1
      vertex -3.37731 9.26831 1
      vertex -3.37731 9.26831 -1
    endloop
  endfacet
  facet normal 0 -1 0
    outer loop
      vertex 3.88024 8.065 -1
      vertex 4 8.065 1
      vertex 3.88024 8.065 1
    endloop
  endfacet
  facet normal 0 -1 -0
    outer loop
      vertex 4 8.065 1
      vertex 3.88024 8.065 -1
      vertex 4 8.065 -1
    endloop
  endfacet
  facet normal 0 -1 0
    outer loop
      vertex -4 8.065 -1
      vertex -3.88024 8.065 1
      vertex -4 8.065 1
    endloop
  endfacet
  facet normal 0 -1 -0
    outer loop
      vertex -3.88024 8.065 1
      vertex -4 8.065 -1
      vertex -3.88024 8.065 -1
    endloop
  endfacet
  facet normal 0 1 -0
    outer loop
      vertex -3.96257 -28.015 -1
      vertex -4 -28.015 1
      vertex -3.96257 -28.015 1
    endloop
  endfacet
  facet normal 0 1 0
    outer loop
      vertex -4 -28.015 1
      vertex -3.96257 -28.015 -1
      vertex -4 -28.015 -1
    endloop
  endfacet
  facet normal 0 1 -0
    outer loop
      vertex 4 -28.015 -1
      vertex 3.96257 -28.015 1
      vertex 4 -28.015 1
    endloop
  endfacet
  facet normal 0 1 0
    outer loop
      vertex 3.96257 -28.015 1
      vertex 4 -28.015 -1
      vertex 3.96257 -28.015 -1
    endloop
  endfacet
  facet normal -1 0 0
    outer loop
      vertex 4 -28.015 -1
      vertex 4 8.065 1
      vertex 4 8.065 -1
    endloop
  endfacet
  facet normal -1 -0 0
    outer loop
      vertex 4 8.065 1
      vertex 4 -28.015 -1
      vertex 4 -28.015 1
    endloop
  endfacet
  facet normal 1 -0 0
    outer loop
      vertex -4 -28.015 1
      vertex -4 8.065 -1
      vertex -4 8.065 1
    endloop
  endfacet
  facet normal 1 0 0
    outer loop
      vertex -4 8.065 -1
      vertex -4 -28.015 1
      vertex -4 -28.015 -1
    endloop
  endfacet
  facet normal 1 -0 0
    outer loop
      vertex -8.4 -36 14
      vertex -8.4 36 1
      vertex -8.4 36 14
    endloop
  endfacet
  facet normal 1 0 0
    outer loop
      vertex -8.4 36 1
      vertex -8.4 -36 14
      vertex -8.4 -36 1
    endloop
  endfacet
  facet normal -1 0 0
    outer loop
      vertex -10.4 -36 -1
      vertex -10.4 36 14
      vertex -10.4 36 -1
    endloop
  endfacet
  facet normal -1 -0 0
    outer loop
      vertex -10.4 36 14
      vertex -10.4 -36 -1
      vertex -10.4 -36 14
    endloop
  endfacet
  facet normal -0 0 1
    outer loop
      vertex -10.4 36 14
      vertex -8.4 -36 14
      vertex -8.4 36 14
    endloop
  endfacet
  facet normal 0 0 1
    outer loop
      vertex -8.4 -36 14
      vertex -10.4 36 14
      vertex -10.4 -36 14
    endloop
  endfacet
endsolid OpenSCAD_Model
