solid OpenSCAD_Model
  facet normal 0.982286 0.187389 0
    outer loop
      vertex 3.96846 0.501332 1.5
      vertex 3.87433 0.994759 -1
      vertex 3.87433 0.994759 1.5
    endloop
  endfacet
  facet normal 0.982286 0.187389 0
    outer loop
      vertex 3.87433 0.994759 -1
      vertex 3.96846 0.501332 1.5
      vertex 3.96846 0.501332 -1
    endloop
  endfacet
  facet normal 0.998027 0.0627883 0
    outer loop
      vertex 4 0 1.5
      vertex 3.96846 0.501332 -1
      vertex 3.96846 0.501332 1.5
    endloop
  endfacet
  facet normal 0.998027 0.0627883 0
    outer loop
      vertex 3.96846 0.501332 -1
      vertex 4 0 1.5
      vertex 4 0 -1
    endloop
  endfacet
  facet normal 0.951061 0.309004 0
    outer loop
      vertex 3.87433 0.994759 1.5
      vertex 3.71911 1.4725 -1
      vertex 3.71911 1.4725 1.5
    endloop
  endfacet
  facet normal 0.951061 0.309004 0
    outer loop
      vertex 3.71911 1.4725 -1
      vertex 3.87433 0.994759 1.5
      vertex 3.87433 0.994759 -1
    endloop
  endfacet
  facet normal 0.481759 -0.876304 0
    outer loop
      vertex 1.70312 -3.61931 -1
      vertex 2.14331 -3.37731 1.5
      vertex 1.70312 -3.61931 1.5
    endloop
  endfacet
  facet normal 0.481759 -0.876304 0
    outer loop
      vertex 2.14331 -3.37731 1.5
      vertex 1.70312 -3.61931 -1
      vertex 2.14331 -3.37731 -1
    endloop
  endfacet
  facet normal 0.248683 -0.968585 0
    outer loop
      vertex 0.749525 -3.92915 -1
      vertex 1.23607 -3.80423 1.5
      vertex 0.749525 -3.92915 1.5
    endloop
  endfacet
  facet normal 0.248683 -0.968585 0
    outer loop
      vertex 1.23607 -3.80423 1.5
      vertex 0.749525 -3.92915 -1
      vertex 1.23607 -3.80423 -1
    endloop
  endfacet
  facet normal 0.844329 0.535825 0
    outer loop
      vertex 3.50523 1.92701 1.5
      vertex 3.23607 2.35114 -1
      vertex 3.23607 2.35114 1.5
    endloop
  endfacet
  facet normal 0.844329 0.535825 0
    outer loop
      vertex 3.23607 2.35114 -1
      vertex 3.50523 1.92701 1.5
      vertex 3.50523 1.92701 -1
    endloop
  endfacet
  facet normal 0.904824 0.425786 0
    outer loop
      vertex 3.71911 1.4725 1.5
      vertex 3.50523 1.92701 -1
      vertex 3.50523 1.92701 1.5
    endloop
  endfacet
  facet normal 0.904824 0.425786 0
    outer loop
      vertex 3.50523 1.92701 -1
      vertex 3.71911 1.4725 1.5
      vertex 3.71911 1.4725 -1
    endloop
  endfacet
  facet normal -0.248683 0.968585 0
    outer loop
      vertex -0.749525 3.92915 -1
      vertex -1.23607 3.80423 1.5
      vertex -0.749525 3.92915 1.5
    endloop
  endfacet
  facet normal -0.248683 0.968585 0
    outer loop
      vertex -1.23607 3.80423 1.5
      vertex -0.749525 3.92915 -1
      vertex -1.23607 3.80423 -1
    endloop
  endfacet
  facet normal -0.904824 0.425786 0
    outer loop
      vertex -3.71911 1.4725 -1
      vertex -3.50523 1.92701 1.5
      vertex -3.50523 1.92701 -1
    endloop
  endfacet
  facet normal -0.904824 0.425786 0
    outer loop
      vertex -3.50523 1.92701 1.5
      vertex -3.71911 1.4725 -1
      vertex -3.71911 1.4725 1.5
    endloop
  endfacet
  facet normal -0.125337 0.992114 0
    outer loop
      vertex -0.251162 3.99211 -1
      vertex -0.749525 3.92915 1.5
      vertex -0.251162 3.99211 1.5
    endloop
  endfacet
  facet normal -0.125337 0.992114 0
    outer loop
      vertex -0.749525 3.92915 1.5
      vertex -0.251162 3.99211 -1
      vertex -0.749525 3.92915 -1
    endloop
  endfacet
  facet normal 0.951061 -0.309004 0
    outer loop
      vertex 3.71911 -1.4725 1.5
      vertex 3.87433 -0.994759 -1
      vertex 3.87433 -0.994759 1.5
    endloop
  endfacet
  facet normal 0.951061 -0.309004 0
    outer loop
      vertex 3.87433 -0.994759 -1
      vertex 3.71911 -1.4725 1.5
      vertex 3.71911 -1.4725 -1
    endloop
  endfacet
  facet normal -0.684551 0.728965 0
    outer loop
      vertex -2.5497 3.08205 -1
      vertex -2.91587 2.73819 1.5
      vertex -2.5497 3.08205 1.5
    endloop
  endfacet
  facet normal -0.684551 0.728965 0
    outer loop
      vertex -2.91587 2.73819 1.5
      vertex -2.5497 3.08205 -1
      vertex -2.91587 2.73819 -1
    endloop
  endfacet
  facet normal 0 0 1
    outer loop
      vertex 2 0 1.5
      vertex 4 0 1.5
      vertex 3.96846 0.501332 1.5
    endloop
  endfacet
  facet normal 0 0 1
    outer loop
      vertex 1.98423 0.250666 1.5
      vertex 3.96846 0.501332 1.5
      vertex 3.87433 0.994759 1.5
    endloop
  endfacet
  facet normal 0 0 1
    outer loop
      vertex 4 0 1.5
      vertex 2 0 1.5
      vertex 3.96846 -0.501332 1.5
    endloop
  endfacet
  facet normal 0 0 1
    outer loop
      vertex 1.93717 0.497379 1.5
      vertex 3.87433 0.994759 1.5
      vertex 3.71911 1.4725 1.5
    endloop
  endfacet
  facet normal -0 0 1
    outer loop
      vertex 1.98423 -0.250666 1.5
      vertex 3.96846 -0.501332 1.5
      vertex 2 0 1.5
    endloop
  endfacet
  facet normal 0 0 1
    outer loop
      vertex 1.85955 0.736249 1.5
      vertex 3.71911 1.4725 1.5
      vertex 3.50523 1.92701 1.5
    endloop
  endfacet
  facet normal 0 0 1
    outer loop
      vertex 3.96846 -0.501332 1.5
      vertex 1.98423 -0.250666 1.5
      vertex 3.87433 -0.994759 1.5
    endloop
  endfacet
  facet normal 0 0 1
    outer loop
      vertex 1.75261 0.963507 1.5
      vertex 3.50523 1.92701 1.5
      vertex 3.23607 2.35114 1.5
    endloop
  endfacet
  facet normal -0 0 1
    outer loop
      vertex 1.93717 -0.497379 1.5
      vertex 3.87433 -0.994759 1.5
      vertex 1.98423 -0.250666 1.5
    endloop
  endfacet
  facet normal 0 0 1
    outer loop
      vertex 1.61803 1.17557 1.5
      vertex 3.23607 2.35114 1.5
      vertex 2.91587 2.73819 1.5
    endloop
  endfacet
  facet normal 0 0 1
    outer loop
      vertex 3.87433 -0.994759 1.5
      vertex 1.93717 -0.497379 1.5
      vertex 3.71911 -1.4725 1.5
    endloop
  endfacet
  facet normal 0 0 1
    outer loop
      vertex 1.45794 1.36909 1.5
      vertex 2.91587 2.73819 1.5
      vertex 2.5497 3.08205 1.5
    endloop
  endfacet
  facet normal -0 0 1
    outer loop
      vertex 1.85955 -0.736249 1.5
      vertex 3.71911 -1.4725 1.5
      vertex 1.93717 -0.497379 1.5
    endloop
  endfacet
  facet normal 0 0 1
    outer loop
      vertex 1.27485 1.54103 1.5
      vertex 2.5497 3.08205 1.5
      vertex 2.14331 3.37731 1.5
    endloop
  endfacet
  facet normal 0 0 1
    outer loop
      vertex 3.71911 -1.4725 1.5
      vertex 1.85955 -0.736249 1.5
      vertex 3.50523 -1.92701 1.5
    endloop
  endfacet
  facet normal -0 0 1
    outer loop
      vertex 1.75261 -0.963507 1.5
      vertex 3.50523 -1.92701 1.5
      vertex 1.85955 -0.736249 1.5
    endloop
  endfacet
  facet normal 0 0 1
    outer loop
      vertex 3.96846 0.501332 1.5
      vertex 1.98423 0.250666 1.5
      vertex 2 0 1.5
    endloop
  endfacet
  facet normal 0 0 1
    outer loop
      vertex 3.87433 0.994759 1.5
      vertex 1.93717 0.497379 1.5
      vertex 1.98423 0.250666 1.5
    endloop
  endfacet
  facet normal 0 0 1
    outer loop
      vertex 3.71911 1.4725 1.5
      vertex 1.85955 0.736249 1.5
      vertex 1.93717 0.497379 1.5
    endloop
  endfacet
  facet normal 0 0 1
    outer loop
      vertex 3.50523 1.92701 1.5
      vertex 1.75261 0.963507 1.5
      vertex 1.85955 0.736249 1.5
    endloop
  endfacet
  facet normal 0 0 1
    outer loop
      vertex 1.07165 1.68865 1.5
      vertex 2.14331 3.37731 1.5
      vertex 1.70312 3.61931 1.5
    endloop
  endfacet
  facet normal 0 0 1
    outer loop
      vertex 3.23607 2.35114 1.5
      vertex 1.61803 1.17557 1.5
      vertex 1.75261 0.963507 1.5
    endloop
  endfacet
  facet normal 0 0 1
    outer loop
      vertex 2.91587 2.73819 1.5
      vertex 1.45794 1.36909 1.5
      vertex 1.61803 1.17557 1.5
    endloop
  endfacet
  facet normal 0 0 1
    outer loop
      vertex 2.5497 3.08205 1.5
      vertex 1.27485 1.54103 1.5
      vertex 1.45794 1.36909 1.5
    endloop
  endfacet
  facet normal 0 0 1
    outer loop
      vertex 0.851558 1.80965 1.5
      vertex 1.70312 3.61931 1.5
      vertex 1.23607 3.80423 1.5
    endloop
  endfacet
  facet normal 0 0 1
    outer loop
      vertex 2.14331 3.37731 1.5
      vertex 1.07165 1.68865 1.5
      vertex 1.27485 1.54103 1.5
    endloop
  endfacet
  facet normal 0 0 1
    outer loop
      vertex 1.70312 3.61931 1.5
      vertex 0.851558 1.80965 1.5
      vertex 1.07165 1.68865 1.5
    endloop
  endfacet
  facet normal 0 0 1
    outer loop
      vertex 0.618033 1.90211 1.5
      vertex 1.23607 3.80423 1.5
      vertex 0.749525 3.92915 1.5
    endloop
  endfacet
  facet normal 0 0 1
    outer loop
      vertex 1.23607 3.80423 1.5
      vertex 0.618033 1.90211 1.5
      vertex 0.851558 1.80965 1.5
    endloop
  endfacet
  facet normal 0 0 1
    outer loop
      vertex 0.749525 3.92915 1.5
      vertex 0.374763 1.96457 1.5
      vertex 0.618033 1.90211 1.5
    endloop
  endfacet
  facet normal 0 0 1
    outer loop
      vertex 0.251162 3.99211 1.5
      vertex 0.374763 1.96457 1.5
      vertex 0.749525 3.92915 1.5
    endloop
  endfacet
  facet normal 0 0 1
    outer loop
      vertex 0.251162 3.99211 1.5
      vertex 0.125581 1.99605 1.5
      vertex 0.374763 1.96457 1.5
    endloop
  endfacet
  facet normal 0 0 1
    outer loop
      vertex 0.251162 3.99211 1.5
      vertex -0.125581 1.99605 1.5
      vertex 0.125581 1.99605 1.5
    endloop
  endfacet
  facet normal -0 0 1
    outer loop
      vertex -0.251162 3.99211 1.5
      vertex -0.125581 1.99605 1.5
      vertex 0.251162 3.99211 1.5
    endloop
  endfacet
  facet normal 0 0 1
    outer loop
      vertex -0.251162 3.99211 1.5
      vertex -0.374763 1.96457 1.5
      vertex -0.125581 1.99605 1.5
    endloop
  endfacet
  facet normal -0 0 1
    outer loop
      vertex -0.749525 3.92915 1.5
      vertex -0.374763 1.96457 1.5
      vertex -0.251162 3.99211 1.5
    endloop
  endfacet
  facet normal 0 0 1
    outer loop
      vertex -0.374763 1.96457 1.5
      vertex -0.749525 3.92915 1.5
      vertex -0.618033 1.90211 1.5
    endloop
  endfacet
  facet normal -0 0 1
    outer loop
      vertex -1.23607 3.80423 1.5
      vertex -0.618033 1.90211 1.5
      vertex -0.749525 3.92915 1.5
    endloop
  endfacet
  facet normal 0 0 1
    outer loop
      vertex -0.618033 1.90211 1.5
      vertex -1.23607 3.80423 1.5
      vertex -0.851558 1.80965 1.5
    endloop
  endfacet
  facet normal -0 0 1
    outer loop
      vertex -1.70312 3.61931 1.5
      vertex -0.851558 1.80965 1.5
      vertex -1.23607 3.80423 1.5
    endloop
  endfacet
  facet normal 0 0 1
    outer loop
      vertex -0.851558 1.80965 1.5
      vertex -1.70312 3.61931 1.5
      vertex -1.07165 1.68865 1.5
    endloop
  endfacet
  facet normal -0 0 1
    outer loop
      vertex -2.14331 3.37731 1.5
      vertex -1.07165 1.68865 1.5
      vertex -1.70312 3.61931 1.5
    endloop
  endfacet
  facet normal 0 0 1
    outer loop
      vertex -1.07165 1.68865 1.5
      vertex -2.14331 3.37731 1.5
      vertex -1.27485 1.54103 1.5
    endloop
  endfacet
  facet normal -0 0 1
    outer loop
      vertex -2.5497 3.08205 1.5
      vertex -1.27485 1.54103 1.5
      vertex -2.14331 3.37731 1.5
    endloop
  endfacet
  facet normal 0 0 1
    outer loop
      vertex -1.27485 1.54103 1.5
      vertex -2.5497 3.08205 1.5
      vertex -1.45794 1.36909 1.5
    endloop
  endfacet
  facet normal -0 0 1
    outer loop
      vertex -2.91587 2.73819 1.5
      vertex -1.45794 1.36909 1.5
      vertex -2.5497 3.08205 1.5
    endloop
  endfacet
  facet normal 0 0 1
    outer loop
      vertex -1.45794 1.36909 1.5
      vertex -2.91587 2.73819 1.5
      vertex -1.61803 1.17557 1.5
    endloop
  endfacet
  facet normal -0 0 1
    outer loop
      vertex -3.23607 2.35114 1.5
      vertex -1.61803 1.17557 1.5
      vertex -2.91587 2.73819 1.5
    endloop
  endfacet
  facet normal -0 0 1
    outer loop
      vertex -3.50523 1.92701 1.5
      vertex -1.75261 0.963507 1.5
      vertex -3.23607 2.35114 1.5
    endloop
  endfacet
  facet normal 0 0 1
    outer loop
      vertex -1.61803 1.17557 1.5
      vertex -3.23607 2.35114 1.5
      vertex -1.75261 0.963507 1.5
    endloop
  endfacet
  facet normal 0 0 1
    outer loop
      vertex 3.50523 -1.92701 1.5
      vertex 1.75261 -0.963507 1.5
      vertex 3.23607 -2.35114 1.5
    endloop
  endfacet
  facet normal -0 0 1
    outer loop
      vertex 1.61803 -1.17557 1.5
      vertex 3.23607 -2.35114 1.5
      vertex 1.75261 -0.963507 1.5
    endloop
  endfacet
  facet normal 0 0 1
    outer loop
      vertex 3.23607 -2.35114 1.5
      vertex 1.61803 -1.17557 1.5
      vertex 2.91587 -2.73819 1.5
    endloop
  endfacet
  facet normal -0 0 1
    outer loop
      vertex 1.45794 -1.36909 1.5
      vertex 2.91587 -2.73819 1.5
      vertex 1.61803 -1.17557 1.5
    endloop
  endfacet
  facet normal 0 0 1
    outer loop
      vertex 2.91587 -2.73819 1.5
      vertex 1.45794 -1.36909 1.5
      vertex 2.5497 -3.08205 1.5
    endloop
  endfacet
  facet normal -0 0 1
    outer loop
      vertex 1.27485 -1.54103 1.5
      vertex 2.5497 -3.08205 1.5
      vertex 1.45794 -1.36909 1.5
    endloop
  endfacet
  facet normal 0 0 1
    outer loop
      vertex 2.5497 -3.08205 1.5
      vertex 1.27485 -1.54103 1.5
      vertex 2.14331 -3.37731 1.5
    endloop
  endfacet
  facet normal -0 0 1
    outer loop
      vertex 1.07165 -1.68865 1.5
      vertex 2.14331 -3.37731 1.5
      vertex 1.27485 -1.54103 1.5
    endloop
  endfacet
  facet normal 0 0 1
    outer loop
      vertex 2.14331 -3.37731 1.5
      vertex 1.07165 -1.68865 1.5
      vertex 1.70312 -3.61931 1.5
    endloop
  endfacet
  facet normal -0 0 1
    outer loop
      vertex 0.851558 -1.80965 1.5
      vertex 1.70312 -3.61931 1.5
      vertex 1.07165 -1.68865 1.5
    endloop
  endfacet
  facet normal 0 0 1
    outer loop
      vertex 1.70312 -3.61931 1.5
      vertex 0.851558 -1.80965 1.5
      vertex 1.23607 -3.80423 1.5
    endloop
  endfacet
  facet normal -0 0 1
    outer loop
      vertex 0.618033 -1.90211 1.5
      vertex 1.23607 -3.80423 1.5
      vertex 0.851558 -1.80965 1.5
    endloop
  endfacet
  facet normal 0 0 1
    outer loop
      vertex 1.23607 -3.80423 1.5
      vertex 0.618033 -1.90211 1.5
      vertex 0.749525 -3.92915 1.5
    endloop
  endfacet
  facet normal -0 0 1
    outer loop
      vertex 0.374763 -1.96457 1.5
      vertex 0.749525 -3.92915 1.5
      vertex 0.618033 -1.90211 1.5
    endloop
  endfacet
  facet normal 0 0 1
    outer loop
      vertex 0.374763 -1.96457 1.5
      vertex 0.251162 -3.99211 1.5
      vertex 0.749525 -3.92915 1.5
    endloop
  endfacet
  facet normal -0 0 1
    outer loop
      vertex 0.125581 -1.99605 1.5
      vertex 0.251162 -3.99211 1.5
      vertex 0.374763 -1.96457 1.5
    endloop
  endfacet
  facet normal -0 0 1
    outer loop
      vertex -0.125581 -1.99605 1.5
      vertex 0.251162 -3.99211 1.5
      vertex 0.125581 -1.99605 1.5
    endloop
  endfacet
  facet normal 0 0 1
    outer loop
      vertex -0.125581 -1.99605 1.5
      vertex -0.251162 -3.99211 1.5
      vertex 0.251162 -3.99211 1.5
    endloop
  endfacet
  facet normal 0 0 1
    outer loop
      vertex -0.374763 -1.96457 1.5
      vertex -0.251162 -3.99211 1.5
      vertex -0.125581 -1.99605 1.5
    endloop
  endfacet
  facet normal 0 0 1
    outer loop
      vertex -0.749525 -3.92915 1.5
      vertex -0.374763 -1.96457 1.5
      vertex -0.618033 -1.90211 1.5
    endloop
  endfacet
  facet normal 0 0 1
    outer loop
      vertex -0.374763 -1.96457 1.5
      vertex -0.749525 -3.92915 1.5
      vertex -0.251162 -3.99211 1.5
    endloop
  endfacet
  facet normal 0 0 1
    outer loop
      vertex -1.23607 -3.80423 1.5
      vertex -0.618033 -1.90211 1.5
      vertex -0.851558 -1.80965 1.5
    endloop
  endfacet
  facet normal 0 0 1
    outer loop
      vertex -1.70312 -3.61931 1.5
      vertex -0.851558 -1.80965 1.5
      vertex -1.07165 -1.68865 1.5
    endloop
  endfacet
  facet normal 0 0 1
    outer loop
      vertex -0.618033 -1.90211 1.5
      vertex -1.23607 -3.80423 1.5
      vertex -0.749525 -3.92915 1.5
    endloop
  endfacet
  facet normal 0 0 1
    outer loop
      vertex -2.14331 -3.37731 1.5
      vertex -1.07165 -1.68865 1.5
      vertex -1.27485 -1.54103 1.5
    endloop
  endfacet
  facet normal 0 0 1
    outer loop
      vertex -2.5497 -3.08205 1.5
      vertex -1.27485 -1.54103 1.5
      vertex -1.45794 -1.36909 1.5
    endloop
  endfacet
  facet normal 0 0 1
    outer loop
      vertex -2.91587 -2.73819 1.5
      vertex -1.45794 -1.36909 1.5
      vertex -1.61803 -1.17557 1.5
    endloop
  endfacet
  facet normal 0 0 1
    outer loop
      vertex -0.851558 -1.80965 1.5
      vertex -1.70312 -3.61931 1.5
      vertex -1.23607 -3.80423 1.5
    endloop
  endfacet
  facet normal 0 0 1
    outer loop
      vertex -3.23607 -2.35114 1.5
      vertex -1.61803 -1.17557 1.5
      vertex -1.75261 -0.963507 1.5
    endloop
  endfacet
  facet normal 0 0 1
    outer loop
      vertex -3.50523 -1.92701 1.5
      vertex -1.75261 -0.963507 1.5
      vertex -1.85955 -0.736249 1.5
    endloop
  endfacet
  facet normal 0 0 1
    outer loop
      vertex -3.71911 -1.4725 1.5
      vertex -1.85955 -0.736249 1.5
      vertex -1.93717 -0.497379 1.5
    endloop
  endfacet
  facet normal 0 0 1
    outer loop
      vertex -3.87433 -0.994759 1.5
      vertex -1.93717 -0.497379 1.5
      vertex -1.98423 -0.250666 1.5
    endloop
  endfacet
  facet normal 0 0 1
    outer loop
      vertex -1.07165 -1.68865 1.5
      vertex -2.14331 -3.37731 1.5
      vertex -1.70312 -3.61931 1.5
    endloop
  endfacet
  facet normal 0 0 1
    outer loop
      vertex -3.96846 -0.501332 1.5
      vertex -1.98423 -0.250666 1.5
      vertex -2 0 1.5
    endloop
  endfacet
  facet normal 0 0 1
    outer loop
      vertex -1.75261 0.963507 1.5
      vertex -3.50523 1.92701 1.5
      vertex -1.85955 0.736249 1.5
    endloop
  endfacet
  facet normal -0 0 1
    outer loop
      vertex -3.71911 1.4725 1.5
      vertex -1.85955 0.736249 1.5
      vertex -3.50523 1.92701 1.5
    endloop
  endfacet
  facet normal 0 0 1
    outer loop
      vertex -1.27485 -1.54103 1.5
      vertex -2.5497 -3.08205 1.5
      vertex -2.14331 -3.37731 1.5
    endloop
  endfacet
  facet normal 0 0 1
    outer loop
      vertex -1.85955 0.736249 1.5
      vertex -3.71911 1.4725 1.5
      vertex -1.93717 0.497379 1.5
    endloop
  endfacet
  facet normal 0 0 1
    outer loop
      vertex -1.45794 -1.36909 1.5
      vertex -2.91587 -2.73819 1.5
      vertex -2.5497 -3.08205 1.5
    endloop
  endfacet
  facet normal -0 0 1
    outer loop
      vertex -3.87433 0.994759 1.5
      vertex -1.93717 0.497379 1.5
      vertex -3.71911 1.4725 1.5
    endloop
  endfacet
  facet normal 0 0 1
    outer loop
      vertex -1.61803 -1.17557 1.5
      vertex -3.23607 -2.35114 1.5
      vertex -2.91587 -2.73819 1.5
    endloop
  endfacet
  facet normal 0 0 1
    outer loop
      vertex -1.93717 0.497379 1.5
      vertex -3.87433 0.994759 1.5
      vertex -1.98423 0.250666 1.5
    endloop
  endfacet
  facet normal 0 0 1
    outer loop
      vertex -1.75261 -0.963507 1.5
      vertex -3.50523 -1.92701 1.5
      vertex -3.23607 -2.35114 1.5
    endloop
  endfacet
  facet normal -0 0 1
    outer loop
      vertex -3.96846 0.501332 1.5
      vertex -1.98423 0.250666 1.5
      vertex -3.87433 0.994759 1.5
    endloop
  endfacet
  facet normal 0 0 1
    outer loop
      vertex -1.85955 -0.736249 1.5
      vertex -3.71911 -1.4725 1.5
      vertex -3.50523 -1.92701 1.5
    endloop
  endfacet
  facet normal 0 0 1
    outer loop
      vertex -1.98423 0.250666 1.5
      vertex -3.96846 0.501332 1.5
      vertex -2 0 1.5
    endloop
  endfacet
  facet normal 0 0 1
    outer loop
      vertex -1.93717 -0.497379 1.5
      vertex -3.87433 -0.994759 1.5
      vertex -3.71911 -1.4725 1.5
    endloop
  endfacet
  facet normal 0 0 1
    outer loop
      vertex -4 0 1.5
      vertex -2 0 1.5
      vertex -3.96846 0.501332 1.5
    endloop
  endfacet
  facet normal 0 0 1
    outer loop
      vertex -1.98423 -0.250666 1.5
      vertex -3.96846 -0.501332 1.5
      vertex -3.87433 -0.994759 1.5
    endloop
  endfacet
  facet normal 0 0 1
    outer loop
      vertex -2 0 1.5
      vertex -4 0 1.5
      vertex -3.96846 -0.501332 1.5
    endloop
  endfacet
  facet normal -0.998027 -0.0627883 0
    outer loop
      vertex -3.96846 -0.501332 -1
      vertex -4 0 1.5
      vertex -4 0 -1
    endloop
  endfacet
  facet normal -0.998027 -0.0627883 0
    outer loop
      vertex -4 0 1.5
      vertex -3.96846 -0.501332 -1
      vertex -3.96846 -0.501332 1.5
    endloop
  endfacet
  facet normal 0.125337 -0.992114 0
    outer loop
      vertex 0.251162 -3.99211 -1
      vertex 0.749525 -3.92915 1.5
      vertex 0.251162 -3.99211 1.5
    endloop
  endfacet
  facet normal 0.125337 -0.992114 0
    outer loop
      vertex 0.749525 -3.92915 1.5
      vertex 0.251162 -3.99211 -1
      vertex 0.749525 -3.92915 -1
    endloop
  endfacet
  facet normal 0.844329 -0.535825 0
    outer loop
      vertex 3.23607 -2.35114 1.5
      vertex 3.50523 -1.92701 -1
      vertex 3.50523 -1.92701 1.5
    endloop
  endfacet
  facet normal 0.844329 -0.535825 0
    outer loop
      vertex 3.50523 -1.92701 -1
      vertex 3.23607 -2.35114 1.5
      vertex 3.23607 -2.35114 -1
    endloop
  endfacet
  facet normal 0.587786 0.809017 -0
    outer loop
      vertex 2.5497 3.08205 -1
      vertex 2.14331 3.37731 1.5
      vertex 2.5497 3.08205 1.5
    endloop
  endfacet
  facet normal 0.587786 0.809017 0
    outer loop
      vertex 2.14331 3.37731 1.5
      vertex 2.5497 3.08205 -1
      vertex 2.14331 3.37731 -1
    endloop
  endfacet
  facet normal -0.982286 -0.187389 0
    outer loop
      vertex -3.87433 -0.994759 -1
      vertex -3.96846 -0.501332 1.5
      vertex -3.96846 -0.501332 -1
    endloop
  endfacet
  facet normal -0.982286 -0.187389 0
    outer loop
      vertex -3.96846 -0.501332 1.5
      vertex -3.87433 -0.994759 -1
      vertex -3.87433 -0.994759 1.5
    endloop
  endfacet
  facet normal -0.982286 0.187389 0
    outer loop
      vertex -3.96846 0.501332 -1
      vertex -3.87433 0.994759 1.5
      vertex -3.87433 0.994759 -1
    endloop
  endfacet
  facet normal -0.982286 0.187389 0
    outer loop
      vertex -3.87433 0.994759 1.5
      vertex -3.96846 0.501332 -1
      vertex -3.96846 0.501332 1.5
    endloop
  endfacet
  facet normal -0.844329 -0.535825 0
    outer loop
      vertex -3.23607 -2.35114 -1
      vertex -3.50523 -1.92701 1.5
      vertex -3.50523 -1.92701 -1
    endloop
  endfacet
  facet normal -0.844329 -0.535825 0
    outer loop
      vertex -3.50523 -1.92701 1.5
      vertex -3.23607 -2.35114 -1
      vertex -3.23607 -2.35114 1.5
    endloop
  endfacet
  facet normal 0.248683 0.968585 -0
    outer loop
      vertex 1.23607 3.80423 -1
      vertex 0.749525 3.92915 1.5
      vertex 1.23607 3.80423 1.5
    endloop
  endfacet
  facet normal 0.248683 0.968585 0
    outer loop
      vertex 0.749525 3.92915 1.5
      vertex 1.23607 3.80423 -1
      vertex 0.749525 3.92915 -1
    endloop
  endfacet
  facet normal -0.368128 0.929775 0
    outer loop
      vertex -1.23607 3.80423 -1
      vertex -1.70312 3.61931 1.5
      vertex -1.23607 3.80423 1.5
    endloop
  endfacet
  facet normal -0.368128 0.929775 0
    outer loop
      vertex -1.70312 3.61931 1.5
      vertex -1.23607 3.80423 -1
      vertex -1.70312 3.61931 -1
    endloop
  endfacet
  facet normal -0.481759 -0.876304 0
    outer loop
      vertex -2.14331 -3.37731 -1
      vertex -1.70312 -3.61931 1.5
      vertex -2.14331 -3.37731 1.5
    endloop
  endfacet
  facet normal -0.481759 -0.876304 -0
    outer loop
      vertex -1.70312 -3.61931 1.5
      vertex -2.14331 -3.37731 -1
      vertex -1.70312 -3.61931 -1
    endloop
  endfacet
  facet normal -0.248683 -0.968585 0
    outer loop
      vertex -1.23607 -3.80423 -1
      vertex -0.749525 -3.92915 1.5
      vertex -1.23607 -3.80423 1.5
    endloop
  endfacet
  facet normal -0.248683 -0.968585 -0
    outer loop
      vertex -0.749525 -3.92915 1.5
      vertex -1.23607 -3.80423 -1
      vertex -0.749525 -3.92915 -1
    endloop
  endfacet
  facet normal -0.844329 0.535825 0
    outer loop
      vertex -3.50523 1.92701 -1
      vertex -3.23607 2.35114 1.5
      vertex -3.23607 2.35114 -1
    endloop
  endfacet
  facet normal -0.844329 0.535825 0
    outer loop
      vertex -3.23607 2.35114 1.5
      vertex -3.50523 1.92701 -1
      vertex -3.50523 1.92701 1.5
    endloop
  endfacet
  facet normal 0.770509 -0.637429 0
    outer loop
      vertex 2.91587 -2.73819 1.5
      vertex 3.23607 -2.35114 -1
      vertex 3.23607 -2.35114 1.5
    endloop
  endfacet
  facet normal 0.770509 -0.637429 0
    outer loop
      vertex 3.23607 -2.35114 -1
      vertex 2.91587 -2.73819 1.5
      vertex 2.91587 -2.73819 -1
    endloop
  endfacet
  facet normal -0.481759 0.876304 0
    outer loop
      vertex -1.70312 3.61931 -1
      vertex -2.14331 3.37731 1.5
      vertex -1.70312 3.61931 1.5
    endloop
  endfacet
  facet normal -0.481759 0.876304 0
    outer loop
      vertex -2.14331 3.37731 1.5
      vertex -1.70312 3.61931 -1
      vertex -2.14331 3.37731 -1
    endloop
  endfacet
  facet normal 0 -1 0
    outer loop
      vertex -0.251162 -3.99211 -1
      vertex 0.251162 -3.99211 1.5
      vertex -0.251162 -3.99211 1.5
    endloop
  endfacet
  facet normal 0 -1 -0
    outer loop
      vertex 0.251162 -3.99211 1.5
      vertex -0.251162 -3.99211 -1
      vertex 0.251162 -3.99211 -1
    endloop
  endfacet
  facet normal 0.982286 -0.187389 0
    outer loop
      vertex 3.87433 -0.994759 1.5
      vertex 3.96846 -0.501332 -1
      vertex 3.96846 -0.501332 1.5
    endloop
  endfacet
  facet normal 0.982286 -0.187389 0
    outer loop
      vertex 3.96846 -0.501332 -1
      vertex 3.87433 -0.994759 1.5
      vertex 3.87433 -0.994759 -1
    endloop
  endfacet
  facet normal -0.951061 0.309004 0
    outer loop
      vertex -3.87433 0.994759 -1
      vertex -3.71911 1.4725 1.5
      vertex -3.71911 1.4725 -1
    endloop
  endfacet
  facet normal -0.951061 0.309004 0
    outer loop
      vertex -3.71911 1.4725 1.5
      vertex -3.87433 0.994759 -1
      vertex -3.87433 0.994759 1.5
    endloop
  endfacet
  facet normal 0.770509 0.637429 0
    outer loop
      vertex 3.23607 2.35114 1.5
      vertex 2.91587 2.73819 -1
      vertex 2.91587 2.73819 1.5
    endloop
  endfacet
  facet normal 0.770509 0.637429 0
    outer loop
      vertex 2.91587 2.73819 -1
      vertex 3.23607 2.35114 1.5
      vertex 3.23607 2.35114 -1
    endloop
  endfacet
  facet normal 0.481759 0.876304 -0
    outer loop
      vertex 2.14331 3.37731 -1
      vertex 1.70312 3.61931 1.5
      vertex 2.14331 3.37731 1.5
    endloop
  endfacet
  facet normal 0.481759 0.876304 0
    outer loop
      vertex 1.70312 3.61931 1.5
      vertex 2.14331 3.37731 -1
      vertex 1.70312 3.61931 -1
    endloop
  endfacet
  facet normal 0.998027 -0.0627883 0
    outer loop
      vertex 3.96846 -0.501332 1.5
      vertex 4 0 -1
      vertex 4 0 1.5
    endloop
  endfacet
  facet normal 0.998027 -0.0627883 0
    outer loop
      vertex 4 0 -1
      vertex 3.96846 -0.501332 1.5
      vertex 3.96846 -0.501332 -1
    endloop
  endfacet
  facet normal 0.684551 0.728965 -0
    outer loop
      vertex 2.91587 2.73819 -1
      vertex 2.5497 3.08205 1.5
      vertex 2.91587 2.73819 1.5
    endloop
  endfacet
  facet normal 0.684551 0.728965 0
    outer loop
      vertex 2.5497 3.08205 1.5
      vertex 2.91587 2.73819 -1
      vertex 2.5497 3.08205 -1
    endloop
  endfacet
  facet normal -0.951061 -0.309004 0
    outer loop
      vertex -3.71911 -1.4725 -1
      vertex -3.87433 -0.994759 1.5
      vertex -3.87433 -0.994759 -1
    endloop
  endfacet
  facet normal -0.951061 -0.309004 0
    outer loop
      vertex -3.87433 -0.994759 1.5
      vertex -3.71911 -1.4725 -1
      vertex -3.71911 -1.4725 1.5
    endloop
  endfacet
  facet normal -0.770509 0.637429 0
    outer loop
      vertex -3.23607 2.35114 -1
      vertex -2.91587 2.73819 1.5
      vertex -2.91587 2.73819 -1
    endloop
  endfacet
  facet normal -0.770509 0.637429 0
    outer loop
      vertex -2.91587 2.73819 1.5
      vertex -3.23607 2.35114 -1
      vertex -3.23607 2.35114 1.5
    endloop
  endfacet
  facet normal -0.770509 -0.637429 0
    outer loop
      vertex -2.91587 -2.73819 -1
      vertex -3.23607 -2.35114 1.5
      vertex -3.23607 -2.35114 -1
    endloop
  endfacet
  facet normal -0.770509 -0.637429 0
    outer loop
      vertex -3.23607 -2.35114 1.5
      vertex -2.91587 -2.73819 -1
      vertex -2.91587 -2.73819 1.5
    endloop
  endfacet
  facet normal 0.684551 -0.728965 0
    outer loop
      vertex 2.5497 -3.08205 -1
      vertex 2.91587 -2.73819 1.5
      vertex 2.5497 -3.08205 1.5
    endloop
  endfacet
  facet normal 0.684551 -0.728965 0
    outer loop
      vertex 2.91587 -2.73819 1.5
      vertex 2.5497 -3.08205 -1
      vertex 2.91587 -2.73819 -1
    endloop
  endfacet
  facet normal -0.998027 0.0627883 0
    outer loop
      vertex -4 0 -1
      vertex -3.96846 0.501332 1.5
      vertex -3.96846 0.501332 -1
    endloop
  endfacet
  facet normal -0.998027 0.0627883 0
    outer loop
      vertex -3.96846 0.501332 1.5
      vertex -4 0 -1
      vertex -4 0 1.5
    endloop
  endfacet
  facet normal -0.904824 -0.425786 0
    outer loop
      vertex -3.50523 -1.92701 -1
      vertex -3.71911 -1.4725 1.5
      vertex -3.71911 -1.4725 -1
    endloop
  endfacet
  facet normal -0.904824 -0.425786 0
    outer loop
      vertex -3.71911 -1.4725 1.5
      vertex -3.50523 -1.92701 -1
      vertex -3.50523 -1.92701 1.5
    endloop
  endfacet
  facet normal 0.368128 -0.929775 0
    outer loop
      vertex 1.23607 -3.80423 -1
      vertex 1.70312 -3.61931 1.5
      vertex 1.23607 -3.80423 1.5
    endloop
  endfacet
  facet normal 0.368128 -0.929775 0
    outer loop
      vertex 1.70312 -3.61931 1.5
      vertex 1.23607 -3.80423 -1
      vertex 1.70312 -3.61931 -1
    endloop
  endfacet
  facet normal 0.368128 0.929775 -0
    outer loop
      vertex 1.70312 3.61931 -1
      vertex 1.23607 3.80423 1.5
      vertex 1.70312 3.61931 1.5
    endloop
  endfacet
  facet normal 0.368128 0.929775 0
    outer loop
      vertex 1.23607 3.80423 1.5
      vertex 1.70312 3.61931 -1
      vertex 1.23607 3.80423 -1
    endloop
  endfacet
  facet normal -0.587786 0.809017 0
    outer loop
      vertex -2.14331 3.37731 -1
      vertex -2.5497 3.08205 1.5
      vertex -2.14331 3.37731 1.5
    endloop
  endfacet
  facet normal -0.587786 0.809017 0
    outer loop
      vertex -2.5497 3.08205 1.5
      vertex -2.14331 3.37731 -1
      vertex -2.5497 3.08205 -1
    endloop
  endfacet
  facet normal -0.125337 -0.992114 0
    outer loop
      vertex -0.749525 -3.92915 -1
      vertex -0.251162 -3.99211 1.5
      vertex -0.749525 -3.92915 1.5
    endloop
  endfacet
  facet normal -0.125337 -0.992114 -0
    outer loop
      vertex -0.251162 -3.99211 1.5
      vertex -0.749525 -3.92915 -1
      vertex -0.251162 -3.99211 -1
    endloop
  endfacet
  facet normal 0.125337 0.992114 -0
    outer loop
      vertex 0.749525 3.92915 -1
      vertex 0.251162 3.99211 1.5
      vertex 0.749525 3.92915 1.5
    endloop
  endfacet
  facet normal 0.125337 0.992114 0
    outer loop
      vertex 0.251162 3.99211 1.5
      vertex 0.749525 3.92915 -1
      vertex 0.251162 3.99211 -1
    endloop
  endfacet
  facet normal -0.684551 -0.728965 0
    outer loop
      vertex -2.91587 -2.73819 -1
      vertex -2.5497 -3.08205 1.5
      vertex -2.91587 -2.73819 1.5
    endloop
  endfacet
  facet normal -0.684551 -0.728965 -0
    outer loop
      vertex -2.5497 -3.08205 1.5
      vertex -2.91587 -2.73819 -1
      vertex -2.5497 -3.08205 -1
    endloop
  endfacet
  facet normal 0 1 -0
    outer loop
      vertex 0.251162 3.99211 -1
      vertex -0.251162 3.99211 1.5
      vertex 0.251162 3.99211 1.5
    endloop
  endfacet
  facet normal 0 1 0
    outer loop
      vertex -0.251162 3.99211 1.5
      vertex 0.251162 3.99211 -1
      vertex -0.251162 3.99211 -1
    endloop
  endfacet
  facet normal 0.904824 -0.425786 0
    outer loop
      vertex 3.50523 -1.92701 1.5
      vertex 3.71911 -1.4725 -1
      vertex 3.71911 -1.4725 1.5
    endloop
  endfacet
  facet normal 0.904824 -0.425786 0
    outer loop
      vertex 3.71911 -1.4725 -1
      vertex 3.50523 -1.92701 1.5
      vertex 3.50523 -1.92701 -1
    endloop
  endfacet
  facet normal -0.587786 -0.809017 0
    outer loop
      vertex -2.5497 -3.08205 -1
      vertex -2.14331 -3.37731 1.5
      vertex -2.5497 -3.08205 1.5
    endloop
  endfacet
  facet normal -0.587786 -0.809017 -0
    outer loop
      vertex -2.14331 -3.37731 1.5
      vertex -2.5497 -3.08205 -1
      vertex -2.14331 -3.37731 -1
    endloop
  endfacet
  facet normal 0.587786 -0.809017 0
    outer loop
      vertex 2.14331 -3.37731 -1
      vertex 2.5497 -3.08205 1.5
      vertex 2.14331 -3.37731 1.5
    endloop
  endfacet
  facet normal 0.587786 -0.809017 0
    outer loop
      vertex 2.5497 -3.08205 1.5
      vertex 2.14331 -3.37731 -1
      vertex 2.5497 -3.08205 -1
    endloop
  endfacet
  facet normal -0.368128 -0.929775 0
    outer loop
      vertex -1.70312 -3.61931 -1
      vertex -1.23607 -3.80423 1.5
      vertex -1.70312 -3.61931 1.5
    endloop
  endfacet
  facet normal -0.368128 -0.929775 -0
    outer loop
      vertex -1.23607 -3.80423 1.5
      vertex -1.70312 -3.61931 -1
      vertex -1.23607 -3.80423 -1
    endloop
  endfacet
  facet normal 0.248689 -0.968583 0
    outer loop
      vertex 1.40536 -7.36715 -3
      vertex 2.31763 -7.13292 -1
      vertex 1.40536 -7.36715 -1
    endloop
  endfacet
  facet normal 0.248689 -0.968583 0
    outer loop
      vertex 2.31763 -7.13292 -1
      vertex 1.40536 -7.36715 -3
      vertex 2.31763 -7.13292 -3
    endloop
  endfacet
  facet normal 0.982286 0.187386 0
    outer loop
      vertex 7.44086 0.939999 -1
      vertex 7.26437 1.86517 -3
      vertex 7.26437 1.86517 -1
    endloop
  endfacet
  facet normal 0.982286 0.187386 0
    outer loop
      vertex 7.26437 1.86517 -3
      vertex 7.44086 0.939999 -1
      vertex 7.44086 0.939999 -3
    endloop
  endfacet
  facet normal 0.998027 0.0627908 0
    outer loop
      vertex 7.5 0 -1
      vertex 7.44086 0.939999 -3
      vertex 7.44086 0.939999 -1
    endloop
  endfacet
  facet normal 0.998027 0.0627908 0
    outer loop
      vertex 7.44086 0.939999 -3
      vertex 7.5 0 -1
      vertex 7.5 0 -3
    endloop
  endfacet
  facet normal 0.951057 0.309017 0
    outer loop
      vertex 7.26437 1.86517 -1
      vertex 6.97332 2.76093 -3
      vertex 6.97332 2.76093 -1
    endloop
  endfacet
  facet normal 0.951057 0.309017 0
    outer loop
      vertex 6.97332 2.76093 -3
      vertex 7.26437 1.86517 -1
      vertex 7.26437 1.86517 -3
    endloop
  endfacet
  facet normal -0.982286 -0.187386 0
    outer loop
      vertex -7.26437 -1.86517 -3
      vertex -7.44086 -0.939999 -1
      vertex -7.44086 -0.939999 -3
    endloop
  endfacet
  facet normal -0.982286 -0.187386 0
    outer loop
      vertex -7.44086 -0.939999 -1
      vertex -7.26437 -1.86517 -3
      vertex -7.26437 -1.86517 -1
    endloop
  endfacet
  facet normal -0.481749 0.876309 0
    outer loop
      vertex -3.19334 6.7862 -3
      vertex -4.0187 6.33246 -1
      vertex -3.19334 6.7862 -1
    endloop
  endfacet
  facet normal -0.481749 0.876309 0
    outer loop
      vertex -4.0187 6.33246 -1
      vertex -3.19334 6.7862 -3
      vertex -4.0187 6.33246 -3
    endloop
  endfacet
  facet normal 0.368126 0.929776 -0
    outer loop
      vertex 3.19334 6.7862 -3
      vertex 2.31763 7.13292 -1
      vertex 3.19334 6.7862 -1
    endloop
  endfacet
  facet normal 0.368126 0.929776 0
    outer loop
      vertex 2.31763 7.13292 -1
      vertex 3.19334 6.7862 -3
      vertex 2.31763 7.13292 -3
    endloop
  endfacet
  facet normal -0.248689 -0.968583 0
    outer loop
      vertex -2.31763 -7.13292 -3
      vertex -1.40536 -7.36715 -1
      vertex -2.31763 -7.13292 -1
    endloop
  endfacet
  facet normal -0.248689 -0.968583 -0
    outer loop
      vertex -1.40536 -7.36715 -1
      vertex -2.31763 -7.13292 -3
      vertex -1.40536 -7.36715 -3
    endloop
  endfacet
  facet normal -0.951057 0.309017 0
    outer loop
      vertex -7.26437 1.86517 -3
      vertex -6.97332 2.76093 -1
      vertex -6.97332 2.76093 -3
    endloop
  endfacet
  facet normal -0.951057 0.309017 0
    outer loop
      vertex -6.97332 2.76093 -1
      vertex -7.26437 1.86517 -3
      vertex -7.26437 1.86517 -1
    endloop
  endfacet
  facet normal -0.125337 -0.992114 0
    outer loop
      vertex -1.40536 -7.36715 -3
      vertex -0.470928 -7.4852 -1
      vertex -1.40536 -7.36715 -1
    endloop
  endfacet
  facet normal -0.125337 -0.992114 -0
    outer loop
      vertex -0.470928 -7.4852 -1
      vertex -1.40536 -7.36715 -3
      vertex -0.470928 -7.4852 -3
    endloop
  endfacet
  facet normal 0.125337 -0.992114 0
    outer loop
      vertex 0.470928 -7.4852 -3
      vertex 1.40536 -7.36715 -1
      vertex 0.470928 -7.4852 -1
    endloop
  endfacet
  facet normal 0.125337 -0.992114 0
    outer loop
      vertex 1.40536 -7.36715 -1
      vertex 0.470928 -7.4852 -3
      vertex 1.40536 -7.36715 -3
    endloop
  endfacet
  facet normal -0.481749 -0.876309 0
    outer loop
      vertex -4.0187 -6.33246 -3
      vertex -3.19334 -6.7862 -1
      vertex -4.0187 -6.33246 -1
    endloop
  endfacet
  facet normal -0.481749 -0.876309 -0
    outer loop
      vertex -3.19334 -6.7862 -1
      vertex -4.0187 -6.33246 -3
      vertex -3.19334 -6.7862 -3
    endloop
  endfacet
  facet normal 0.904829 0.425776 0
    outer loop
      vertex 6.97332 2.76093 -1
      vertex 6.5723 3.61315 -3
      vertex 6.5723 3.61315 -1
    endloop
  endfacet
  facet normal 0.904829 0.425776 0
    outer loop
      vertex 6.5723 3.61315 -3
      vertex 6.97332 2.76093 -1
      vertex 6.97332 2.76093 -3
    endloop
  endfacet
  facet normal -0.125337 0.992114 0
    outer loop
      vertex -0.470928 7.4852 -3
      vertex -1.40536 7.36715 -1
      vertex -0.470928 7.4852 -1
    endloop
  endfacet
  facet normal -0.125337 0.992114 0
    outer loop
      vertex -1.40536 7.36715 -1
      vertex -0.470928 7.4852 -3
      vertex -1.40536 7.36715 -3
    endloop
  endfacet
  facet normal 0 0 1
    outer loop
      vertex 4 0 -1
      vertex 7.5 0 -1
      vertex 7.44086 0.939999 -1
    endloop
  endfacet
  facet normal 0 0 1
    outer loop
      vertex 3.96846 0.501332 -1
      vertex 7.44086 0.939999 -1
      vertex 7.26437 1.86517 -1
    endloop
  endfacet
  facet normal 0 0 1
    outer loop
      vertex 7.5 0 -1
      vertex 4 0 -1
      vertex 7.44086 -0.939999 -1
    endloop
  endfacet
  facet normal 0 0 1
    outer loop
      vertex 3.87433 0.994759 -1
      vertex 7.26437 1.86517 -1
      vertex 6.97332 2.76093 -1
    endloop
  endfacet
  facet normal -0 0 1
    outer loop
      vertex 3.96846 -0.501332 -1
      vertex 7.44086 -0.939999 -1
      vertex 4 0 -1
    endloop
  endfacet
  facet normal 0 0 1
    outer loop
      vertex 3.71911 1.4725 -1
      vertex 6.97332 2.76093 -1
      vertex 6.5723 3.61315 -1
    endloop
  endfacet
  facet normal 0 0 1
    outer loop
      vertex 7.44086 -0.939999 -1
      vertex 3.96846 -0.501332 -1
      vertex 7.26437 -1.86517 -1
    endloop
  endfacet
  facet normal 0 0 1
    outer loop
      vertex 3.50523 1.92701 -1
      vertex 6.5723 3.61315 -1
      vertex 6.06763 4.40839 -1
    endloop
  endfacet
  facet normal -0 0 1
    outer loop
      vertex 3.87433 -0.994759 -1
      vertex 7.26437 -1.86517 -1
      vertex 3.96846 -0.501332 -1
    endloop
  endfacet
  facet normal 0 0 1
    outer loop
      vertex 3.23607 2.35114 -1
      vertex 6.06763 4.40839 -1
      vertex 5.46726 5.1341 -1
    endloop
  endfacet
  facet normal 0 0 1
    outer loop
      vertex 7.26437 -1.86517 -1
      vertex 3.87433 -0.994759 -1
      vertex 6.97332 -2.76093 -1
    endloop
  endfacet
  facet normal 0 0 1
    outer loop
      vertex 2.91587 2.73819 -1
      vertex 5.46726 5.1341 -1
      vertex 4.78068 5.77885 -1
    endloop
  endfacet
  facet normal -0 0 1
    outer loop
      vertex 3.71911 -1.4725 -1
      vertex 6.97332 -2.76093 -1
      vertex 3.87433 -0.994759 -1
    endloop
  endfacet
  facet normal 0 0 1
    outer loop
      vertex 2.5497 3.08205 -1
      vertex 4.78068 5.77885 -1
      vertex 4.0187 6.33246 -1
    endloop
  endfacet
  facet normal 0 0 1
    outer loop
      vertex 6.97332 -2.76093 -1
      vertex 3.71911 -1.4725 -1
      vertex 6.5723 -3.61315 -1
    endloop
  endfacet
  facet normal -0 0 1
    outer loop
      vertex 3.50523 -1.92701 -1
      vertex 6.5723 -3.61315 -1
      vertex 3.71911 -1.4725 -1
    endloop
  endfacet
  facet normal 0 0 1
    outer loop
      vertex 7.44086 0.939999 -1
      vertex 3.96846 0.501332 -1
      vertex 4 0 -1
    endloop
  endfacet
  facet normal 0 0 1
    outer loop
      vertex 7.26437 1.86517 -1
      vertex 3.87433 0.994759 -1
      vertex 3.96846 0.501332 -1
    endloop
  endfacet
  facet normal 0 0 1
    outer loop
      vertex 6.97332 2.76093 -1
      vertex 3.71911 1.4725 -1
      vertex 3.87433 0.994759 -1
    endloop
  endfacet
  facet normal 0 0 1
    outer loop
      vertex 6.5723 3.61315 -1
      vertex 3.50523 1.92701 -1
      vertex 3.71911 1.4725 -1
    endloop
  endfacet
  facet normal 0 0 1
    outer loop
      vertex 6.06763 4.40839 -1
      vertex 3.23607 2.35114 -1
      vertex 3.50523 1.92701 -1
    endloop
  endfacet
  facet normal 0 0 1
    outer loop
      vertex 2.14331 3.37731 -1
      vertex 4.0187 6.33246 -1
      vertex 3.19334 6.7862 -1
    endloop
  endfacet
  facet normal 0 0 1
    outer loop
      vertex 5.46726 5.1341 -1
      vertex 2.91587 2.73819 -1
      vertex 3.23607 2.35114 -1
    endloop
  endfacet
  facet normal 0 0 1
    outer loop
      vertex 4.78068 5.77885 -1
      vertex 2.5497 3.08205 -1
      vertex 2.91587 2.73819 -1
    endloop
  endfacet
  facet normal 0 0 1
    outer loop
      vertex 1.70312 3.61931 -1
      vertex 3.19334 6.7862 -1
      vertex 2.31763 7.13292 -1
    endloop
  endfacet
  facet normal 0 0 1
    outer loop
      vertex 4.0187 6.33246 -1
      vertex 2.14331 3.37731 -1
      vertex 2.5497 3.08205 -1
    endloop
  endfacet
  facet normal 0 0 1
    outer loop
      vertex 3.19334 6.7862 -1
      vertex 1.70312 3.61931 -1
      vertex 2.14331 3.37731 -1
    endloop
  endfacet
  facet normal 0 0 1
    outer loop
      vertex 1.23607 3.80423 -1
      vertex 2.31763 7.13292 -1
      vertex 1.40536 7.36715 -1
    endloop
  endfacet
  facet normal 0 0 1
    outer loop
      vertex 2.31763 7.13292 -1
      vertex 1.23607 3.80423 -1
      vertex 1.70312 3.61931 -1
    endloop
  endfacet
  facet normal 0 0 1
    outer loop
      vertex 1.40536 7.36715 -1
      vertex 0.749525 3.92915 -1
      vertex 1.23607 3.80423 -1
    endloop
  endfacet
  facet normal 0 0 1
    outer loop
      vertex 0.470928 7.4852 -1
      vertex 0.749525 3.92915 -1
      vertex 1.40536 7.36715 -1
    endloop
  endfacet
  facet normal 0 0 1
    outer loop
      vertex 0.470928 7.4852 -1
      vertex 0.251162 3.99211 -1
      vertex 0.749525 3.92915 -1
    endloop
  endfacet
  facet normal 0 0 1
    outer loop
      vertex 0.470928 7.4852 -1
      vertex -0.251162 3.99211 -1
      vertex 0.251162 3.99211 -1
    endloop
  endfacet
  facet normal -0 0 1
    outer loop
      vertex -0.470928 7.4852 -1
      vertex -0.251162 3.99211 -1
      vertex 0.470928 7.4852 -1
    endloop
  endfacet
  facet normal 0 0 1
    outer loop
      vertex -0.470928 7.4852 -1
      vertex -0.749525 3.92915 -1
      vertex -0.251162 3.99211 -1
    endloop
  endfacet
  facet normal -0 0 1
    outer loop
      vertex -1.40536 7.36715 -1
      vertex -0.749525 3.92915 -1
      vertex -0.470928 7.4852 -1
    endloop
  endfacet
  facet normal 0 0 1
    outer loop
      vertex -0.749525 3.92915 -1
      vertex -1.40536 7.36715 -1
      vertex -1.23607 3.80423 -1
    endloop
  endfacet
  facet normal -0 0 1
    outer loop
      vertex -2.31763 7.13292 -1
      vertex -1.23607 3.80423 -1
      vertex -1.40536 7.36715 -1
    endloop
  endfacet
  facet normal 0 0 1
    outer loop
      vertex -1.23607 3.80423 -1
      vertex -2.31763 7.13292 -1
      vertex -1.70312 3.61931 -1
    endloop
  endfacet
  facet normal -0 0 1
    outer loop
      vertex -3.19334 6.7862 -1
      vertex -1.70312 3.61931 -1
      vertex -2.31763 7.13292 -1
    endloop
  endfacet
  facet normal 0 0 1
    outer loop
      vertex -1.70312 3.61931 -1
      vertex -3.19334 6.7862 -1
      vertex -2.14331 3.37731 -1
    endloop
  endfacet
  facet normal -0 0 1
    outer loop
      vertex -4.0187 6.33246 -1
      vertex -2.14331 3.37731 -1
      vertex -3.19334 6.7862 -1
    endloop
  endfacet
  facet normal 0 0 1
    outer loop
      vertex -2.14331 3.37731 -1
      vertex -4.0187 6.33246 -1
      vertex -2.5497 3.08205 -1
    endloop
  endfacet
  facet normal -0 0 1
    outer loop
      vertex -4.78068 5.77885 -1
      vertex -2.5497 3.08205 -1
      vertex -4.0187 6.33246 -1
    endloop
  endfacet
  facet normal 0 0 1
    outer loop
      vertex -2.5497 3.08205 -1
      vertex -4.78068 5.77885 -1
      vertex -2.91587 2.73819 -1
    endloop
  endfacet
  facet normal -0 0 1
    outer loop
      vertex -5.46726 5.1341 -1
      vertex -2.91587 2.73819 -1
      vertex -4.78068 5.77885 -1
    endloop
  endfacet
  facet normal 0 0 1
    outer loop
      vertex -2.91587 2.73819 -1
      vertex -5.46726 5.1341 -1
      vertex -3.23607 2.35114 -1
    endloop
  endfacet
  facet normal -0 0 1
    outer loop
      vertex -6.06763 4.40839 -1
      vertex -3.23607 2.35114 -1
      vertex -5.46726 5.1341 -1
    endloop
  endfacet
  facet normal -0 0 1
    outer loop
      vertex -6.5723 3.61315 -1
      vertex -3.50523 1.92701 -1
      vertex -6.06763 4.40839 -1
    endloop
  endfacet
  facet normal 0 0 1
    outer loop
      vertex -3.23607 2.35114 -1
      vertex -6.06763 4.40839 -1
      vertex -3.50523 1.92701 -1
    endloop
  endfacet
  facet normal 0 0 1
    outer loop
      vertex 6.5723 -3.61315 -1
      vertex 3.50523 -1.92701 -1
      vertex 6.06763 -4.40839 -1
    endloop
  endfacet
  facet normal -0 0 1
    outer loop
      vertex 3.23607 -2.35114 -1
      vertex 6.06763 -4.40839 -1
      vertex 3.50523 -1.92701 -1
    endloop
  endfacet
  facet normal 0 0 1
    outer loop
      vertex 6.06763 -4.40839 -1
      vertex 3.23607 -2.35114 -1
      vertex 5.46726 -5.1341 -1
    endloop
  endfacet
  facet normal -0 0 1
    outer loop
      vertex 2.91587 -2.73819 -1
      vertex 5.46726 -5.1341 -1
      vertex 3.23607 -2.35114 -1
    endloop
  endfacet
  facet normal 0 0 1
    outer loop
      vertex 5.46726 -5.1341 -1
      vertex 2.91587 -2.73819 -1
      vertex 4.78068 -5.77885 -1
    endloop
  endfacet
  facet normal -0 0 1
    outer loop
      vertex 2.5497 -3.08205 -1
      vertex 4.78068 -5.77885 -1
      vertex 2.91587 -2.73819 -1
    endloop
  endfacet
  facet normal 0 0 1
    outer loop
      vertex 4.78068 -5.77885 -1
      vertex 2.5497 -3.08205 -1
      vertex 4.0187 -6.33246 -1
    endloop
  endfacet
  facet normal -0 0 1
    outer loop
      vertex 2.14331 -3.37731 -1
      vertex 4.0187 -6.33246 -1
      vertex 2.5497 -3.08205 -1
    endloop
  endfacet
  facet normal 0 0 1
    outer loop
      vertex 4.0187 -6.33246 -1
      vertex 2.14331 -3.37731 -1
      vertex 3.19334 -6.7862 -1
    endloop
  endfacet
  facet normal -0 0 1
    outer loop
      vertex 1.70312 -3.61931 -1
      vertex 3.19334 -6.7862 -1
      vertex 2.14331 -3.37731 -1
    endloop
  endfacet
  facet normal 0 0 1
    outer loop
      vertex 3.19334 -6.7862 -1
      vertex 1.70312 -3.61931 -1
      vertex 2.31763 -7.13292 -1
    endloop
  endfacet
  facet normal -0 0 1
    outer loop
      vertex 1.23607 -3.80423 -1
      vertex 2.31763 -7.13292 -1
      vertex 1.70312 -3.61931 -1
    endloop
  endfacet
  facet normal 0 0 1
    outer loop
      vertex 2.31763 -7.13292 -1
      vertex 1.23607 -3.80423 -1
      vertex 1.40536 -7.36715 -1
    endloop
  endfacet
  facet normal -0 0 1
    outer loop
      vertex 0.749525 -3.92915 -1
      vertex 1.40536 -7.36715 -1
      vertex 1.23607 -3.80423 -1
    endloop
  endfacet
  facet normal 0 0 1
    outer loop
      vertex 0.749525 -3.92915 -1
      vertex 0.470928 -7.4852 -1
      vertex 1.40536 -7.36715 -1
    endloop
  endfacet
  facet normal -0 0 1
    outer loop
      vertex 0.251162 -3.99211 -1
      vertex 0.470928 -7.4852 -1
      vertex 0.749525 -3.92915 -1
    endloop
  endfacet
  facet normal -0 0 1
    outer loop
      vertex -0.251162 -3.99211 -1
      vertex 0.470928 -7.4852 -1
      vertex 0.251162 -3.99211 -1
    endloop
  endfacet
  facet normal 0 0 1
    outer loop
      vertex -0.251162 -3.99211 -1
      vertex -0.470928 -7.4852 -1
      vertex 0.470928 -7.4852 -1
    endloop
  endfacet
  facet normal 0 0 1
    outer loop
      vertex -0.749525 -3.92915 -1
      vertex -0.470928 -7.4852 -1
      vertex -0.251162 -3.99211 -1
    endloop
  endfacet
  facet normal 0 0 1
    outer loop
      vertex -1.40536 -7.36715 -1
      vertex -0.749525 -3.92915 -1
      vertex -1.23607 -3.80423 -1
    endloop
  endfacet
  facet normal 0 0 1
    outer loop
      vertex -0.749525 -3.92915 -1
      vertex -1.40536 -7.36715 -1
      vertex -0.470928 -7.4852 -1
    endloop
  endfacet
  facet normal 0 0 1
    outer loop
      vertex -2.31763 -7.13292 -1
      vertex -1.23607 -3.80423 -1
      vertex -1.70312 -3.61931 -1
    endloop
  endfacet
  facet normal 0 0 1
    outer loop
      vertex -3.19334 -6.7862 -1
      vertex -1.70312 -3.61931 -1
      vertex -2.14331 -3.37731 -1
    endloop
  endfacet
  facet normal 0 0 1
    outer loop
      vertex -1.23607 -3.80423 -1
      vertex -2.31763 -7.13292 -1
      vertex -1.40536 -7.36715 -1
    endloop
  endfacet
  facet normal 0 0 1
    outer loop
      vertex -4.0187 -6.33246 -1
      vertex -2.14331 -3.37731 -1
      vertex -2.5497 -3.08205 -1
    endloop
  endfacet
  facet normal 0 0 1
    outer loop
      vertex -4.78068 -5.77885 -1
      vertex -2.5497 -3.08205 -1
      vertex -2.91587 -2.73819 -1
    endloop
  endfacet
  facet normal 0 0 1
    outer loop
      vertex -1.70312 -3.61931 -1
      vertex -3.19334 -6.7862 -1
      vertex -2.31763 -7.13292 -1
    endloop
  endfacet
  facet normal 0 0 1
    outer loop
      vertex -5.46726 -5.1341 -1
      vertex -2.91587 -2.73819 -1
      vertex -3.23607 -2.35114 -1
    endloop
  endfacet
  facet normal 0 0 1
    outer loop
      vertex -6.06763 -4.40839 -1
      vertex -3.23607 -2.35114 -1
      vertex -3.50523 -1.92701 -1
    endloop
  endfacet
  facet normal 0 0 1
    outer loop
      vertex -6.5723 -3.61315 -1
      vertex -3.50523 -1.92701 -1
      vertex -3.71911 -1.4725 -1
    endloop
  endfacet
  facet normal 0 0 1
    outer loop
      vertex -6.97332 -2.76093 -1
      vertex -3.71911 -1.4725 -1
      vertex -3.87433 -0.994759 -1
    endloop
  endfacet
  facet normal 0 0 1
    outer loop
      vertex -7.26437 -1.86517 -1
      vertex -3.87433 -0.994759 -1
      vertex -3.96846 -0.501332 -1
    endloop
  endfacet
  facet normal 0 0 1
    outer loop
      vertex -2.14331 -3.37731 -1
      vertex -4.0187 -6.33246 -1
      vertex -3.19334 -6.7862 -1
    endloop
  endfacet
  facet normal 0 0 1
    outer loop
      vertex -7.44086 -0.939999 -1
      vertex -3.96846 -0.501332 -1
      vertex -4 0 -1
    endloop
  endfacet
  facet normal 0 0 1
    outer loop
      vertex -3.50523 1.92701 -1
      vertex -6.5723 3.61315 -1
      vertex -3.71911 1.4725 -1
    endloop
  endfacet
  facet normal -0 0 1
    outer loop
      vertex -6.97332 2.76093 -1
      vertex -3.71911 1.4725 -1
      vertex -6.5723 3.61315 -1
    endloop
  endfacet
  facet normal 0 0 1
    outer loop
      vertex -2.5497 -3.08205 -1
      vertex -4.78068 -5.77885 -1
      vertex -4.0187 -6.33246 -1
    endloop
  endfacet
  facet normal 0 0 1
    outer loop
      vertex -3.71911 1.4725 -1
      vertex -6.97332 2.76093 -1
      vertex -3.87433 0.994759 -1
    endloop
  endfacet
  facet normal 0 0 1
    outer loop
      vertex -2.91587 -2.73819 -1
      vertex -5.46726 -5.1341 -1
      vertex -4.78068 -5.77885 -1
    endloop
  endfacet
  facet normal -0 0 1
    outer loop
      vertex -7.26437 1.86517 -1
      vertex -3.87433 0.994759 -1
      vertex -6.97332 2.76093 -1
    endloop
  endfacet
  facet normal 0 0 1
    outer loop
      vertex -3.23607 -2.35114 -1
      vertex -6.06763 -4.40839 -1
      vertex -5.46726 -5.1341 -1
    endloop
  endfacet
  facet normal 0 0 1
    outer loop
      vertex -3.87433 0.994759 -1
      vertex -7.26437 1.86517 -1
      vertex -3.96846 0.501332 -1
    endloop
  endfacet
  facet normal 0 0 1
    outer loop
      vertex -3.50523 -1.92701 -1
      vertex -6.5723 -3.61315 -1
      vertex -6.06763 -4.40839 -1
    endloop
  endfacet
  facet normal -0 0 1
    outer loop
      vertex -7.44086 0.939999 -1
      vertex -3.96846 0.501332 -1
      vertex -7.26437 1.86517 -1
    endloop
  endfacet
  facet normal 0 0 1
    outer loop
      vertex -3.71911 -1.4725 -1
      vertex -6.97332 -2.76093 -1
      vertex -6.5723 -3.61315 -1
    endloop
  endfacet
  facet normal 0 0 1
    outer loop
      vertex -3.96846 0.501332 -1
      vertex -7.44086 0.939999 -1
      vertex -4 0 -1
    endloop
  endfacet
  facet normal 0 0 1
    outer loop
      vertex -3.87433 -0.994759 -1
      vertex -7.26437 -1.86517 -1
      vertex -6.97332 -2.76093 -1
    endloop
  endfacet
  facet normal 0 0 1
    outer loop
      vertex -7.5 0 -1
      vertex -4 0 -1
      vertex -7.44086 0.939999 -1
    endloop
  endfacet
  facet normal 0 0 1
    outer loop
      vertex -3.96846 -0.501332 -1
      vertex -7.44086 -0.939999 -1
      vertex -7.26437 -1.86517 -1
    endloop
  endfacet
  facet normal 0 0 1
    outer loop
      vertex -4 0 -1
      vertex -7.5 0 -1
      vertex -7.44086 -0.939999 -1
    endloop
  endfacet
  facet normal -0.998027 0.0627908 0
    outer loop
      vertex -7.5 0 -3
      vertex -7.44086 0.939999 -1
      vertex -7.44086 0.939999 -3
    endloop
  endfacet
  facet normal -0.998027 0.0627908 0
    outer loop
      vertex -7.44086 0.939999 -1
      vertex -7.5 0 -3
      vertex -7.5 0 -1
    endloop
  endfacet
  facet normal -0.368126 0.929776 0
    outer loop
      vertex -2.31763 7.13292 -3
      vertex -3.19334 6.7862 -1
      vertex -2.31763 7.13292 -1
    endloop
  endfacet
  facet normal -0.368126 0.929776 0
    outer loop
      vertex -3.19334 6.7862 -1
      vertex -2.31763 7.13292 -3
      vertex -3.19334 6.7862 -3
    endloop
  endfacet
  facet normal 0.84433 0.535823 0
    outer loop
      vertex 6.5723 3.61315 -1
      vertex 6.06763 4.40839 -3
      vertex 6.06763 4.40839 -1
    endloop
  endfacet
  facet normal 0.84433 0.535823 0
    outer loop
      vertex 6.06763 4.40839 -3
      vertex 6.5723 3.61315 -1
      vertex 6.5723 3.61315 -3
    endloop
  endfacet
  facet normal -0.684552 0.728964 0
    outer loop
      vertex -4.78068 5.77885 -3
      vertex -5.46726 5.1341 -1
      vertex -4.78068 5.77885 -1
    endloop
  endfacet
  facet normal -0.684552 0.728964 0
    outer loop
      vertex -5.46726 5.1341 -1
      vertex -4.78068 5.77885 -3
      vertex -5.46726 5.1341 -3
    endloop
  endfacet
  facet normal 0.84433 -0.535823 0
    outer loop
      vertex 6.06763 -4.40839 -1
      vertex 6.5723 -3.61315 -3
      vertex 6.5723 -3.61315 -1
    endloop
  endfacet
  facet normal 0.84433 -0.535823 0
    outer loop
      vertex 6.5723 -3.61315 -3
      vertex 6.06763 -4.40839 -1
      vertex 6.06763 -4.40839 -3
    endloop
  endfacet
  facet normal -0.248689 0.968583 0
    outer loop
      vertex -1.40536 7.36715 -3
      vertex -2.31763 7.13292 -1
      vertex -1.40536 7.36715 -1
    endloop
  endfacet
  facet normal -0.248689 0.968583 0
    outer loop
      vertex -2.31763 7.13292 -1
      vertex -1.40536 7.36715 -3
      vertex -2.31763 7.13292 -3
    endloop
  endfacet
  facet normal 0.368126 -0.929776 0
    outer loop
      vertex 2.31763 -7.13292 -3
      vertex 3.19334 -6.7862 -1
      vertex 2.31763 -7.13292 -1
    endloop
  endfacet
  facet normal 0.368126 -0.929776 0
    outer loop
      vertex 3.19334 -6.7862 -1
      vertex 2.31763 -7.13292 -3
      vertex 3.19334 -6.7862 -3
    endloop
  endfacet
  facet normal -0.904829 -0.425776 0
    outer loop
      vertex -6.5723 -3.61315 -3
      vertex -6.97332 -2.76093 -1
      vertex -6.97332 -2.76093 -3
    endloop
  endfacet
  facet normal -0.904829 -0.425776 0
    outer loop
      vertex -6.97332 -2.76093 -1
      vertex -6.5723 -3.61315 -3
      vertex -6.5723 -3.61315 -1
    endloop
  endfacet
  facet normal -0.587785 0.809017 0
    outer loop
      vertex -4.0187 6.33246 -3
      vertex -4.78068 5.77885 -1
      vertex -4.0187 6.33246 -1
    endloop
  endfacet
  facet normal -0.587785 0.809017 0
    outer loop
      vertex -4.78068 5.77885 -1
      vertex -4.0187 6.33246 -3
      vertex -4.78068 5.77885 -3
    endloop
  endfacet
  facet normal 0.770508 0.637431 0
    outer loop
      vertex 6.06763 4.40839 -1
      vertex 5.46726 5.1341 -3
      vertex 5.46726 5.1341 -1
    endloop
  endfacet
  facet normal 0.770508 0.637431 0
    outer loop
      vertex 5.46726 5.1341 -3
      vertex 6.06763 4.40839 -1
      vertex 6.06763 4.40839 -3
    endloop
  endfacet
  facet normal 0.481749 0.876309 -0
    outer loop
      vertex 4.0187 6.33246 -3
      vertex 3.19334 6.7862 -1
      vertex 4.0187 6.33246 -1
    endloop
  endfacet
  facet normal 0.481749 0.876309 0
    outer loop
      vertex 3.19334 6.7862 -1
      vertex 4.0187 6.33246 -3
      vertex 3.19334 6.7862 -3
    endloop
  endfacet
  facet normal 0.998027 -0.0627908 0
    outer loop
      vertex 7.44086 -0.939999 -1
      vertex 7.5 0 -3
      vertex 7.5 0 -1
    endloop
  endfacet
  facet normal 0.998027 -0.0627908 0
    outer loop
      vertex 7.5 0 -3
      vertex 7.44086 -0.939999 -1
      vertex 7.44086 -0.939999 -3
    endloop
  endfacet
  facet normal -0.368126 -0.929776 0
    outer loop
      vertex -3.19334 -6.7862 -3
      vertex -2.31763 -7.13292 -1
      vertex -3.19334 -6.7862 -1
    endloop
  endfacet
  facet normal -0.368126 -0.929776 -0
    outer loop
      vertex -2.31763 -7.13292 -1
      vertex -3.19334 -6.7862 -3
      vertex -2.31763 -7.13292 -3
    endloop
  endfacet
  facet normal 0.684552 0.728964 -0
    outer loop
      vertex 5.46726 5.1341 -3
      vertex 4.78068 5.77885 -1
      vertex 5.46726 5.1341 -1
    endloop
  endfacet
  facet normal 0.684552 0.728964 0
    outer loop
      vertex 4.78068 5.77885 -1
      vertex 5.46726 5.1341 -3
      vertex 4.78068 5.77885 -3
    endloop
  endfacet
  facet normal 0 1 -0
    outer loop
      vertex 0.470928 7.4852 -3
      vertex -0.470928 7.4852 -1
      vertex 0.470928 7.4852 -1
    endloop
  endfacet
  facet normal 0 1 0
    outer loop
      vertex -0.470928 7.4852 -1
      vertex 0.470928 7.4852 -3
      vertex -0.470928 7.4852 -3
    endloop
  endfacet
  facet normal 0.125337 0.992114 -0
    outer loop
      vertex 1.40536 7.36715 -3
      vertex 0.470928 7.4852 -1
      vertex 1.40536 7.36715 -1
    endloop
  endfacet
  facet normal 0.125337 0.992114 0
    outer loop
      vertex 0.470928 7.4852 -1
      vertex 1.40536 7.36715 -3
      vertex 0.470928 7.4852 -3
    endloop
  endfacet
  facet normal -0.684552 -0.728964 0
    outer loop
      vertex -5.46726 -5.1341 -3
      vertex -4.78068 -5.77885 -1
      vertex -5.46726 -5.1341 -1
    endloop
  endfacet
  facet normal -0.684552 -0.728964 -0
    outer loop
      vertex -4.78068 -5.77885 -1
      vertex -5.46726 -5.1341 -3
      vertex -4.78068 -5.77885 -3
    endloop
  endfacet
  facet normal 0.904829 -0.425776 0
    outer loop
      vertex 6.5723 -3.61315 -1
      vertex 6.97332 -2.76093 -3
      vertex 6.97332 -2.76093 -1
    endloop
  endfacet
  facet normal 0.904829 -0.425776 0
    outer loop
      vertex 6.97332 -2.76093 -3
      vertex 6.5723 -3.61315 -1
      vertex 6.5723 -3.61315 -3
    endloop
  endfacet
  facet normal 0.951057 -0.309017 0
    outer loop
      vertex 6.97332 -2.76093 -1
      vertex 7.26437 -1.86517 -3
      vertex 7.26437 -1.86517 -1
    endloop
  endfacet
  facet normal 0.951057 -0.309017 0
    outer loop
      vertex 7.26437 -1.86517 -3
      vertex 6.97332 -2.76093 -1
      vertex 6.97332 -2.76093 -3
    endloop
  endfacet
  facet normal 0 -1 0
    outer loop
      vertex -0.470928 -7.4852 -3
      vertex 0.470928 -7.4852 -1
      vertex -0.470928 -7.4852 -1
    endloop
  endfacet
  facet normal 0 -1 -0
    outer loop
      vertex 0.470928 -7.4852 -1
      vertex -0.470928 -7.4852 -3
      vertex 0.470928 -7.4852 -3
    endloop
  endfacet
  facet normal 0.982286 -0.187386 0
    outer loop
      vertex 7.26437 -1.86517 -1
      vertex 7.44086 -0.939999 -3
      vertex 7.44086 -0.939999 -1
    endloop
  endfacet
  facet normal 0.982286 -0.187386 0
    outer loop
      vertex 7.44086 -0.939999 -3
      vertex 7.26437 -1.86517 -1
      vertex 7.26437 -1.86517 -3
    endloop
  endfacet
  facet normal -0.770508 -0.637431 0
    outer loop
      vertex -5.46726 -5.1341 -3
      vertex -6.06763 -4.40839 -1
      vertex -6.06763 -4.40839 -3
    endloop
  endfacet
  facet normal -0.770508 -0.637431 0
    outer loop
      vertex -6.06763 -4.40839 -1
      vertex -5.46726 -5.1341 -3
      vertex -5.46726 -5.1341 -1
    endloop
  endfacet
  facet normal 0.481749 -0.876309 0
    outer loop
      vertex 3.19334 -6.7862 -3
      vertex 4.0187 -6.33246 -1
      vertex 3.19334 -6.7862 -1
    endloop
  endfacet
  facet normal 0.481749 -0.876309 0
    outer loop
      vertex 4.0187 -6.33246 -1
      vertex 3.19334 -6.7862 -3
      vertex 4.0187 -6.33246 -3
    endloop
  endfacet
  facet normal -0.904829 0.425776 0
    outer loop
      vertex -6.97332 2.76093 -3
      vertex -6.5723 3.61315 -1
      vertex -6.5723 3.61315 -3
    endloop
  endfacet
  facet normal -0.904829 0.425776 0
    outer loop
      vertex -6.5723 3.61315 -1
      vertex -6.97332 2.76093 -3
      vertex -6.97332 2.76093 -1
    endloop
  endfacet
  facet normal 0.684552 -0.728964 0
    outer loop
      vertex 4.78068 -5.77885 -3
      vertex 5.46726 -5.1341 -1
      vertex 4.78068 -5.77885 -1
    endloop
  endfacet
  facet normal 0.684552 -0.728964 0
    outer loop
      vertex 5.46726 -5.1341 -1
      vertex 4.78068 -5.77885 -3
      vertex 5.46726 -5.1341 -3
    endloop
  endfacet
  facet normal 0.587785 -0.809017 0
    outer loop
      vertex 4.0187 -6.33246 -3
      vertex 4.78068 -5.77885 -1
      vertex 4.0187 -6.33246 -1
    endloop
  endfacet
  facet normal 0.587785 -0.809017 0
    outer loop
      vertex 4.78068 -5.77885 -1
      vertex 4.0187 -6.33246 -3
      vertex 4.78068 -5.77885 -3
    endloop
  endfacet
  facet normal 0.587785 0.809017 -0
    outer loop
      vertex 4.78068 5.77885 -3
      vertex 4.0187 6.33246 -1
      vertex 4.78068 5.77885 -1
    endloop
  endfacet
  facet normal 0.587785 0.809017 0
    outer loop
      vertex 4.0187 6.33246 -1
      vertex 4.78068 5.77885 -3
      vertex 4.0187 6.33246 -3
    endloop
  endfacet
  facet normal -0.951057 -0.309017 0
    outer loop
      vertex -6.97332 -2.76093 -3
      vertex -7.26437 -1.86517 -1
      vertex -7.26437 -1.86517 -3
    endloop
  endfacet
  facet normal -0.951057 -0.309017 0
    outer loop
      vertex -7.26437 -1.86517 -1
      vertex -6.97332 -2.76093 -3
      vertex -6.97332 -2.76093 -1
    endloop
  endfacet
  facet normal 0.248689 0.968583 -0
    outer loop
      vertex 2.31763 7.13292 -3
      vertex 1.40536 7.36715 -1
      vertex 2.31763 7.13292 -1
    endloop
  endfacet
  facet normal 0.248689 0.968583 0
    outer loop
      vertex 1.40536 7.36715 -1
      vertex 2.31763 7.13292 -3
      vertex 1.40536 7.36715 -3
    endloop
  endfacet
  facet normal -0.982286 0.187386 0
    outer loop
      vertex -7.44086 0.939999 -3
      vertex -7.26437 1.86517 -1
      vertex -7.26437 1.86517 -3
    endloop
  endfacet
  facet normal -0.982286 0.187386 0
    outer loop
      vertex -7.26437 1.86517 -1
      vertex -7.44086 0.939999 -3
      vertex -7.44086 0.939999 -1
    endloop
  endfacet
  facet normal -0.84433 0.535823 0
    outer loop
      vertex -6.5723 3.61315 -3
      vertex -6.06763 4.40839 -1
      vertex -6.06763 4.40839 -3
    endloop
  endfacet
  facet normal -0.84433 0.535823 0
    outer loop
      vertex -6.06763 4.40839 -1
      vertex -6.5723 3.61315 -3
      vertex -6.5723 3.61315 -1
    endloop
  endfacet
  facet normal -0.587785 -0.809017 0
    outer loop
      vertex -4.78068 -5.77885 -3
      vertex -4.0187 -6.33246 -1
      vertex -4.78068 -5.77885 -1
    endloop
  endfacet
  facet normal -0.587785 -0.809017 -0
    outer loop
      vertex -4.0187 -6.33246 -1
      vertex -4.78068 -5.77885 -3
      vertex -4.0187 -6.33246 -3
    endloop
  endfacet
  facet normal 0.770508 -0.637431 0
    outer loop
      vertex 5.46726 -5.1341 -1
      vertex 6.06763 -4.40839 -3
      vertex 6.06763 -4.40839 -1
    endloop
  endfacet
  facet normal 0.770508 -0.637431 0
    outer loop
      vertex 6.06763 -4.40839 -3
      vertex 5.46726 -5.1341 -1
      vertex 5.46726 -5.1341 -3
    endloop
  endfacet
  facet normal -0.770508 0.637431 0
    outer loop
      vertex -6.06763 4.40839 -3
      vertex -5.46726 5.1341 -1
      vertex -5.46726 5.1341 -3
    endloop
  endfacet
  facet normal -0.770508 0.637431 0
    outer loop
      vertex -5.46726 5.1341 -1
      vertex -6.06763 4.40839 -3
      vertex -6.06763 4.40839 -1
    endloop
  endfacet
  facet normal -0.84433 -0.535823 0
    outer loop
      vertex -6.06763 -4.40839 -3
      vertex -6.5723 -3.61315 -1
      vertex -6.5723 -3.61315 -3
    endloop
  endfacet
  facet normal -0.84433 -0.535823 0
    outer loop
      vertex -6.5723 -3.61315 -1
      vertex -6.06763 -4.40839 -3
      vertex -6.06763 -4.40839 -1
    endloop
  endfacet
  facet normal -0.998027 -0.0627908 0
    outer loop
      vertex -7.44086 -0.939999 -3
      vertex -7.5 0 -1
      vertex -7.5 0 -3
    endloop
  endfacet
  facet normal -0.998027 -0.0627908 0
    outer loop
      vertex -7.5 0 -1
      vertex -7.44086 -0.939999 -3
      vertex -7.44086 -0.939999 -1
    endloop
  endfacet
  facet normal 0 0 -1
    outer loop
      vertex 2 0 -3
      vertex 7.5 0 -3
      vertex 7.44086 -0.939999 -3
    endloop
  endfacet
  facet normal 0 0 -1
    outer loop
      vertex 1.98423 -0.250666 -3
      vertex 7.44086 -0.939999 -3
      vertex 7.26437 -1.86517 -3
    endloop
  endfacet
  facet normal 0 0 -1
    outer loop
      vertex 7.5 0 -3
      vertex 2 0 -3
      vertex 7.44086 0.939999 -3
    endloop
  endfacet
  facet normal 0 0 -1
    outer loop
      vertex 1.93717 -0.497379 -3
      vertex 7.26437 -1.86517 -3
      vertex 6.97332 -2.76093 -3
    endloop
  endfacet
  facet normal 0 0 -1
    outer loop
      vertex 1.98423 0.250666 -3
      vertex 7.44086 0.939999 -3
      vertex 2 0 -3
    endloop
  endfacet
  facet normal 0 0 -1
    outer loop
      vertex 1.85955 -0.736249 -3
      vertex 6.97332 -2.76093 -3
      vertex 6.5723 -3.61315 -3
    endloop
  endfacet
  facet normal -0 0 -1
    outer loop
      vertex 7.44086 0.939999 -3
      vertex 1.98423 0.250666 -3
      vertex 7.26437 1.86517 -3
    endloop
  endfacet
  facet normal 0 0 -1
    outer loop
      vertex 1.75261 -0.963507 -3
      vertex 6.5723 -3.61315 -3
      vertex 6.06763 -4.40839 -3
    endloop
  endfacet
  facet normal 0 0 -1
    outer loop
      vertex 1.93717 0.497379 -3
      vertex 7.26437 1.86517 -3
      vertex 1.98423 0.250666 -3
    endloop
  endfacet
  facet normal 0 0 -1
    outer loop
      vertex 1.61803 -1.17557 -3
      vertex 6.06763 -4.40839 -3
      vertex 5.46726 -5.1341 -3
    endloop
  endfacet
  facet normal -0 0 -1
    outer loop
      vertex 7.26437 1.86517 -3
      vertex 1.93717 0.497379 -3
      vertex 6.97332 2.76093 -3
    endloop
  endfacet
  facet normal 0 0 -1
    outer loop
      vertex 1.45794 -1.36909 -3
      vertex 5.46726 -5.1341 -3
      vertex 4.78068 -5.77885 -3
    endloop
  endfacet
  facet normal 0 0 -1
    outer loop
      vertex 1.85955 0.736249 -3
      vertex 6.97332 2.76093 -3
      vertex 1.93717 0.497379 -3
    endloop
  endfacet
  facet normal 0 0 -1
    outer loop
      vertex 1.27485 -1.54103 -3
      vertex 4.78068 -5.77885 -3
      vertex 4.0187 -6.33246 -3
    endloop
  endfacet
  facet normal -0 0 -1
    outer loop
      vertex 6.97332 2.76093 -3
      vertex 1.85955 0.736249 -3
      vertex 6.5723 3.61315 -3
    endloop
  endfacet
  facet normal 0 0 -1
    outer loop
      vertex 1.07165 -1.68865 -3
      vertex 4.0187 -6.33246 -3
      vertex 3.19334 -6.7862 -3
    endloop
  endfacet
  facet normal 0 0 -1
    outer loop
      vertex 1.75261 0.963507 -3
      vertex 6.5723 3.61315 -3
      vertex 1.85955 0.736249 -3
    endloop
  endfacet
  facet normal 0 0 -1
    outer loop
      vertex 0.851558 -1.80965 -3
      vertex 3.19334 -6.7862 -3
      vertex 2.31763 -7.13292 -3
    endloop
  endfacet
  facet normal -0 0 -1
    outer loop
      vertex 6.5723 3.61315 -3
      vertex 1.75261 0.963507 -3
      vertex 6.06763 4.40839 -3
    endloop
  endfacet
  facet normal 0 0 -1
    outer loop
      vertex 1.61803 1.17557 -3
      vertex 6.06763 4.40839 -3
      vertex 1.75261 0.963507 -3
    endloop
  endfacet
  facet normal 0 0 -1
    outer loop
      vertex 7.44086 -0.939999 -3
      vertex 1.98423 -0.250666 -3
      vertex 2 0 -3
    endloop
  endfacet
  facet normal 0 0 -1
    outer loop
      vertex 7.26437 -1.86517 -3
      vertex 1.93717 -0.497379 -3
      vertex 1.98423 -0.250666 -3
    endloop
  endfacet
  facet normal 0 0 -1
    outer loop
      vertex 6.97332 -2.76093 -3
      vertex 1.85955 -0.736249 -3
      vertex 1.93717 -0.497379 -3
    endloop
  endfacet
  facet normal 0 0 -1
    outer loop
      vertex 6.5723 -3.61315 -3
      vertex 1.75261 -0.963507 -3
      vertex 1.85955 -0.736249 -3
    endloop
  endfacet
  facet normal 0 0 -1
    outer loop
      vertex 6.06763 -4.40839 -3
      vertex 1.61803 -1.17557 -3
      vertex 1.75261 -0.963507 -3
    endloop
  endfacet
  facet normal 0 0 -1
    outer loop
      vertex 5.46726 -5.1341 -3
      vertex 1.45794 -1.36909 -3
      vertex 1.61803 -1.17557 -3
    endloop
  endfacet
  facet normal 0 0 -1
    outer loop
      vertex 0.618033 -1.90211 -3
      vertex 2.31763 -7.13292 -3
      vertex 1.40536 -7.36715 -3
    endloop
  endfacet
  facet normal 0 0 -1
    outer loop
      vertex 4.78068 -5.77885 -3
      vertex 1.27485 -1.54103 -3
      vertex 1.45794 -1.36909 -3
    endloop
  endfacet
  facet normal 0 0 -1
    outer loop
      vertex 4.0187 -6.33246 -3
      vertex 1.07165 -1.68865 -3
      vertex 1.27485 -1.54103 -3
    endloop
  endfacet
  facet normal 0 0 -1
    outer loop
      vertex 3.19334 -6.7862 -3
      vertex 0.851558 -1.80965 -3
      vertex 1.07165 -1.68865 -3
    endloop
  endfacet
  facet normal 0 0 -1
    outer loop
      vertex 2.31763 -7.13292 -3
      vertex 0.618033 -1.90211 -3
      vertex 0.851558 -1.80965 -3
    endloop
  endfacet
  facet normal 0 0 -1
    outer loop
      vertex 0.374763 -1.96457 -3
      vertex 1.40536 -7.36715 -3
      vertex 0.470928 -7.4852 -3
    endloop
  endfacet
  facet normal 0 0 -1
    outer loop
      vertex 1.40536 -7.36715 -3
      vertex 0.374763 -1.96457 -3
      vertex 0.618033 -1.90211 -3
    endloop
  endfacet
  facet normal 0 0 -1
    outer loop
      vertex 0.470928 -7.4852 -3
      vertex 0.125581 -1.99605 -3
      vertex 0.374763 -1.96457 -3
    endloop
  endfacet
  facet normal 0 0 -1
    outer loop
      vertex 0.470928 -7.4852 -3
      vertex -0.125581 -1.99605 -3
      vertex 0.125581 -1.99605 -3
    endloop
  endfacet
  facet normal 0 0 -1
    outer loop
      vertex -0.470928 -7.4852 -3
      vertex -0.125581 -1.99605 -3
      vertex 0.470928 -7.4852 -3
    endloop
  endfacet
  facet normal -0 0 -1
    outer loop
      vertex -0.125581 -1.99605 -3
      vertex -0.470928 -7.4852 -3
      vertex -0.374763 -1.96457 -3
    endloop
  endfacet
  facet normal 0 0 -1
    outer loop
      vertex -1.40536 -7.36715 -3
      vertex -0.374763 -1.96457 -3
      vertex -0.470928 -7.4852 -3
    endloop
  endfacet
  facet normal -0 0 -1
    outer loop
      vertex -0.374763 -1.96457 -3
      vertex -1.40536 -7.36715 -3
      vertex -0.618033 -1.90211 -3
    endloop
  endfacet
  facet normal 0 0 -1
    outer loop
      vertex -2.31763 -7.13292 -3
      vertex -0.618033 -1.90211 -3
      vertex -1.40536 -7.36715 -3
    endloop
  endfacet
  facet normal -0 0 -1
    outer loop
      vertex -0.618033 -1.90211 -3
      vertex -2.31763 -7.13292 -3
      vertex -0.851558 -1.80965 -3
    endloop
  endfacet
  facet normal 0 0 -1
    outer loop
      vertex -3.19334 -6.7862 -3
      vertex -0.851558 -1.80965 -3
      vertex -2.31763 -7.13292 -3
    endloop
  endfacet
  facet normal -0 0 -1
    outer loop
      vertex -0.851558 -1.80965 -3
      vertex -3.19334 -6.7862 -3
      vertex -1.07165 -1.68865 -3
    endloop
  endfacet
  facet normal 0 0 -1
    outer loop
      vertex -4.0187 -6.33246 -3
      vertex -1.07165 -1.68865 -3
      vertex -3.19334 -6.7862 -3
    endloop
  endfacet
  facet normal -0 0 -1
    outer loop
      vertex -1.07165 -1.68865 -3
      vertex -4.0187 -6.33246 -3
      vertex -1.27485 -1.54103 -3
    endloop
  endfacet
  facet normal 0 0 -1
    outer loop
      vertex -4.78068 -5.77885 -3
      vertex -1.27485 -1.54103 -3
      vertex -4.0187 -6.33246 -3
    endloop
  endfacet
  facet normal -0 0 -1
    outer loop
      vertex -1.27485 -1.54103 -3
      vertex -4.78068 -5.77885 -3
      vertex -1.45794 -1.36909 -3
    endloop
  endfacet
  facet normal 0 0 -1
    outer loop
      vertex -5.46726 -5.1341 -3
      vertex -1.45794 -1.36909 -3
      vertex -4.78068 -5.77885 -3
    endloop
  endfacet
  facet normal 0 0 -1
    outer loop
      vertex -6.06763 -4.40839 -3
      vertex -1.61803 -1.17557 -3
      vertex -5.46726 -5.1341 -3
    endloop
  endfacet
  facet normal -0 0 -1
    outer loop
      vertex -1.45794 -1.36909 -3
      vertex -5.46726 -5.1341 -3
      vertex -1.61803 -1.17557 -3
    endloop
  endfacet
  facet normal -0 0 -1
    outer loop
      vertex 6.06763 4.40839 -3
      vertex 1.61803 1.17557 -3
      vertex 5.46726 5.1341 -3
    endloop
  endfacet
  facet normal 0 0 -1
    outer loop
      vertex 1.45794 1.36909 -3
      vertex 5.46726 5.1341 -3
      vertex 1.61803 1.17557 -3
    endloop
  endfacet
  facet normal -0 0 -1
    outer loop
      vertex 5.46726 5.1341 -3
      vertex 1.45794 1.36909 -3
      vertex 4.78068 5.77885 -3
    endloop
  endfacet
  facet normal 0 0 -1
    outer loop
      vertex 1.27485 1.54103 -3
      vertex 4.78068 5.77885 -3
      vertex 1.45794 1.36909 -3
    endloop
  endfacet
  facet normal -0 0 -1
    outer loop
      vertex 4.78068 5.77885 -3
      vertex 1.27485 1.54103 -3
      vertex 4.0187 6.33246 -3
    endloop
  endfacet
  facet normal 0 0 -1
    outer loop
      vertex 1.07165 1.68865 -3
      vertex 4.0187 6.33246 -3
      vertex 1.27485 1.54103 -3
    endloop
  endfacet
  facet normal -0 0 -1
    outer loop
      vertex 4.0187 6.33246 -3
      vertex 1.07165 1.68865 -3
      vertex 3.19334 6.7862 -3
    endloop
  endfacet
  facet normal 0 0 -1
    outer loop
      vertex 0.851558 1.80965 -3
      vertex 3.19334 6.7862 -3
      vertex 1.07165 1.68865 -3
    endloop
  endfacet
  facet normal -0 0 -1
    outer loop
      vertex 3.19334 6.7862 -3
      vertex 0.851558 1.80965 -3
      vertex 2.31763 7.13292 -3
    endloop
  endfacet
  facet normal 0 0 -1
    outer loop
      vertex 0.618033 1.90211 -3
      vertex 2.31763 7.13292 -3
      vertex 0.851558 1.80965 -3
    endloop
  endfacet
  facet normal -0 0 -1
    outer loop
      vertex 2.31763 7.13292 -3
      vertex 0.618033 1.90211 -3
      vertex 1.40536 7.36715 -3
    endloop
  endfacet
  facet normal 0 0 -1
    outer loop
      vertex 0.374763 1.96457 -3
      vertex 1.40536 7.36715 -3
      vertex 0.618033 1.90211 -3
    endloop
  endfacet
  facet normal -0 0 -1
    outer loop
      vertex 1.40536 7.36715 -3
      vertex 0.374763 1.96457 -3
      vertex 0.470928 7.4852 -3
    endloop
  endfacet
  facet normal 0 0 -1
    outer loop
      vertex 0.125581 1.99605 -3
      vertex 0.470928 7.4852 -3
      vertex 0.374763 1.96457 -3
    endloop
  endfacet
  facet normal 0 0 -1
    outer loop
      vertex -0.125581 1.99605 -3
      vertex 0.470928 7.4852 -3
      vertex 0.125581 1.99605 -3
    endloop
  endfacet
  facet normal 0 0 -1
    outer loop
      vertex -0.470928 7.4852 -3
      vertex -0.125581 1.99605 -3
      vertex -0.374763 1.96457 -3
    endloop
  endfacet
  facet normal 0 0 -1
    outer loop
      vertex -0.125581 1.99605 -3
      vertex -0.470928 7.4852 -3
      vertex 0.470928 7.4852 -3
    endloop
  endfacet
  facet normal 0 0 -1
    outer loop
      vertex -1.40536 7.36715 -3
      vertex -0.374763 1.96457 -3
      vertex -0.618033 1.90211 -3
    endloop
  endfacet
  facet normal 0 0 -1
    outer loop
      vertex -2.31763 7.13292 -3
      vertex -0.618033 1.90211 -3
      vertex -0.851558 1.80965 -3
    endloop
  endfacet
  facet normal 0 0 -1
    outer loop
      vertex -3.19334 6.7862 -3
      vertex -0.851558 1.80965 -3
      vertex -1.07165 1.68865 -3
    endloop
  endfacet
  facet normal 0 0 -1
    outer loop
      vertex -4.0187 6.33246 -3
      vertex -1.07165 1.68865 -3
      vertex -1.27485 1.54103 -3
    endloop
  endfacet
  facet normal 0 0 -1
    outer loop
      vertex -0.374763 1.96457 -3
      vertex -1.40536 7.36715 -3
      vertex -0.470928 7.4852 -3
    endloop
  endfacet
  facet normal 0 0 -1
    outer loop
      vertex -4.78068 5.77885 -3
      vertex -1.27485 1.54103 -3
      vertex -1.45794 1.36909 -3
    endloop
  endfacet
  facet normal 0 0 -1
    outer loop
      vertex -5.46726 5.1341 -3
      vertex -1.45794 1.36909 -3
      vertex -1.61803 1.17557 -3
    endloop
  endfacet
  facet normal 0 0 -1
    outer loop
      vertex -6.06763 4.40839 -3
      vertex -1.61803 1.17557 -3
      vertex -1.75261 0.963507 -3
    endloop
  endfacet
  facet normal 0 0 -1
    outer loop
      vertex -6.5723 3.61315 -3
      vertex -1.75261 0.963507 -3
      vertex -1.85955 0.736249 -3
    endloop
  endfacet
  facet normal 0 0 -1
    outer loop
      vertex -6.97332 2.76093 -3
      vertex -1.85955 0.736249 -3
      vertex -1.93717 0.497379 -3
    endloop
  endfacet
  facet normal 0 0 -1
    outer loop
      vertex -7.26437 1.86517 -3
      vertex -1.93717 0.497379 -3
      vertex -1.98423 0.250666 -3
    endloop
  endfacet
  facet normal 0 0 -1
    outer loop
      vertex -0.618033 1.90211 -3
      vertex -2.31763 7.13292 -3
      vertex -1.40536 7.36715 -3
    endloop
  endfacet
  facet normal 0 0 -1
    outer loop
      vertex -7.44086 0.939999 -3
      vertex -1.98423 0.250666 -3
      vertex -2 0 -3
    endloop
  endfacet
  facet normal -0 0 -1
    outer loop
      vertex -1.61803 -1.17557 -3
      vertex -6.06763 -4.40839 -3
      vertex -1.75261 -0.963507 -3
    endloop
  endfacet
  facet normal 0 0 -1
    outer loop
      vertex -6.5723 -3.61315 -3
      vertex -1.75261 -0.963507 -3
      vertex -6.06763 -4.40839 -3
    endloop
  endfacet
  facet normal 0 0 -1
    outer loop
      vertex -0.851558 1.80965 -3
      vertex -3.19334 6.7862 -3
      vertex -2.31763 7.13292 -3
    endloop
  endfacet
  facet normal -0 0 -1
    outer loop
      vertex -1.75261 -0.963507 -3
      vertex -6.5723 -3.61315 -3
      vertex -1.85955 -0.736249 -3
    endloop
  endfacet
  facet normal 0 0 -1
    outer loop
      vertex -1.07165 1.68865 -3
      vertex -4.0187 6.33246 -3
      vertex -3.19334 6.7862 -3
    endloop
  endfacet
  facet normal 0 0 -1
    outer loop
      vertex -6.97332 -2.76093 -3
      vertex -1.85955 -0.736249 -3
      vertex -6.5723 -3.61315 -3
    endloop
  endfacet
  facet normal 0 0 -1
    outer loop
      vertex -1.27485 1.54103 -3
      vertex -4.78068 5.77885 -3
      vertex -4.0187 6.33246 -3
    endloop
  endfacet
  facet normal -0 0 -1
    outer loop
      vertex -1.85955 -0.736249 -3
      vertex -6.97332 -2.76093 -3
      vertex -1.93717 -0.497379 -3
    endloop
  endfacet
  facet normal 0 0 -1
    outer loop
      vertex -1.45794 1.36909 -3
      vertex -5.46726 5.1341 -3
      vertex -4.78068 5.77885 -3
    endloop
  endfacet
  facet normal 0 0 -1
    outer loop
      vertex -7.26437 -1.86517 -3
      vertex -1.93717 -0.497379 -3
      vertex -6.97332 -2.76093 -3
    endloop
  endfacet
  facet normal 0 0 -1
    outer loop
      vertex -1.61803 1.17557 -3
      vertex -6.06763 4.40839 -3
      vertex -5.46726 5.1341 -3
    endloop
  endfacet
  facet normal -0 0 -1
    outer loop
      vertex -1.93717 -0.497379 -3
      vertex -7.26437 -1.86517 -3
      vertex -1.98423 -0.250666 -3
    endloop
  endfacet
  facet normal 0 0 -1
    outer loop
      vertex -1.75261 0.963507 -3
      vertex -6.5723 3.61315 -3
      vertex -6.06763 4.40839 -3
    endloop
  endfacet
  facet normal 0 0 -1
    outer loop
      vertex -7.44086 -0.939999 -3
      vertex -1.98423 -0.250666 -3
      vertex -7.26437 -1.86517 -3
    endloop
  endfacet
  facet normal 0 0 -1
    outer loop
      vertex -1.85955 0.736249 -3
      vertex -6.97332 2.76093 -3
      vertex -6.5723 3.61315 -3
    endloop
  endfacet
  facet normal -0 0 -1
    outer loop
      vertex -1.98423 -0.250666 -3
      vertex -7.44086 -0.939999 -3
      vertex -2 0 -3
    endloop
  endfacet
  facet normal 0 0 -1
    outer loop
      vertex -1.93717 0.497379 -3
      vertex -7.26437 1.86517 -3
      vertex -6.97332 2.76093 -3
    endloop
  endfacet
  facet normal 0 0 -1
    outer loop
      vertex -7.5 0 -3
      vertex -2 0 -3
      vertex -7.44086 -0.939999 -3
    endloop
  endfacet
  facet normal 0 0 -1
    outer loop
      vertex -1.98423 0.250666 -3
      vertex -7.44086 0.939999 -3
      vertex -7.26437 1.86517 -3
    endloop
  endfacet
  facet normal 0 0 -1
    outer loop
      vertex -2 0 -3
      vertex -7.5 0 -3
      vertex -7.44086 0.939999 -3
    endloop
  endfacet
  facet normal -0.982289 -0.18737 0
    outer loop
      vertex 1.98423 0.250666 -3
      vertex 1.93717 0.497379 1.5
      vertex 1.93717 0.497379 -3
    endloop
  endfacet
  facet normal -0.982289 -0.18737 0
    outer loop
      vertex 1.93717 0.497379 1.5
      vertex 1.98423 0.250666 -3
      vertex 1.98423 0.250666 1.5
    endloop
  endfacet
  facet normal -0.998027 -0.0627883 0
    outer loop
      vertex 2 0 -3
      vertex 1.98423 0.250666 1.5
      vertex 1.98423 0.250666 -3
    endloop
  endfacet
  facet normal -0.998027 -0.0627883 0
    outer loop
      vertex 1.98423 0.250666 1.5
      vertex 2 0 -3
      vertex 2 0 1.5
    endloop
  endfacet
  facet normal -0.844327 -0.535829 0
    outer loop
      vertex 1.75261 0.963507 -3
      vertex 1.61803 1.17557 1.5
      vertex 1.61803 1.17557 -3
    endloop
  endfacet
  facet normal -0.844327 -0.535829 0
    outer loop
      vertex 1.61803 1.17557 1.5
      vertex 1.75261 0.963507 -3
      vertex 1.75261 0.963507 1.5
    endloop
  endfacet
  facet normal -0.684562 -0.728955 0
    outer loop
      vertex 1.27485 1.54103 -3
      vertex 1.45794 1.36909 1.5
      vertex 1.27485 1.54103 1.5
    endloop
  endfacet
  facet normal -0.684562 -0.728955 -0
    outer loop
      vertex 1.45794 1.36909 1.5
      vertex 1.27485 1.54103 -3
      vertex 1.45794 1.36909 -3
    endloop
  endfacet
  facet normal 0.248686 -0.968584 0
    outer loop
      vertex -0.618033 1.90211 -3
      vertex -0.374763 1.96457 1.5
      vertex -0.618033 1.90211 1.5
    endloop
  endfacet
  facet normal 0.248686 -0.968584 0
    outer loop
      vertex -0.374763 1.96457 1.5
      vertex -0.618033 1.90211 -3
      vertex -0.374763 1.96457 -3
    endloop
  endfacet
  facet normal 0.77052 0.637415 0
    outer loop
      vertex -1.45794 -1.36909 1.5
      vertex -1.61803 -1.17557 -3
      vertex -1.61803 -1.17557 1.5
    endloop
  endfacet
  facet normal 0.77052 0.637415 0
    outer loop
      vertex -1.61803 -1.17557 -3
      vertex -1.45794 -1.36909 1.5
      vertex -1.45794 -1.36909 -3
    endloop
  endfacet
  facet normal -0.904826 0.425781 0
    outer loop
      vertex 1.75261 -0.963507 -3
      vertex 1.85955 -0.736249 1.5
      vertex 1.85955 -0.736249 -3
    endloop
  endfacet
  facet normal -0.904826 0.425781 0
    outer loop
      vertex 1.85955 -0.736249 1.5
      vertex 1.75261 -0.963507 -3
      vertex 1.75261 -0.963507 1.5
    endloop
  endfacet
  facet normal -0.481764 -0.876301 0
    outer loop
      vertex 0.851558 1.80965 -3
      vertex 1.07165 1.68865 1.5
      vertex 0.851558 1.80965 1.5
    endloop
  endfacet
  facet normal -0.481764 -0.876301 -0
    outer loop
      vertex 1.07165 1.68865 1.5
      vertex 0.851558 1.80965 -3
      vertex 1.07165 1.68865 -3
    endloop
  endfacet
  facet normal -0.248686 0.968584 0
    outer loop
      vertex 0.618033 -1.90211 -3
      vertex 0.374763 -1.96457 1.5
      vertex 0.618033 -1.90211 1.5
    endloop
  endfacet
  facet normal -0.248686 0.968584 0
    outer loop
      vertex 0.374763 -1.96457 1.5
      vertex 0.618033 -1.90211 -3
      vertex 0.374763 -1.96457 -3
    endloop
  endfacet
  facet normal 0.951049 -0.30904 0
    outer loop
      vertex -1.93717 0.497379 1.5
      vertex -1.85955 0.736249 -3
      vertex -1.85955 0.736249 1.5
    endloop
  endfacet
  facet normal 0.951049 -0.30904 0
    outer loop
      vertex -1.85955 0.736249 -3
      vertex -1.93717 0.497379 1.5
      vertex -1.93717 0.497379 -3
    endloop
  endfacet
  facet normal 0.125337 -0.992114 0
    outer loop
      vertex -0.374763 1.96457 -3
      vertex -0.125581 1.99605 1.5
      vertex -0.374763 1.96457 1.5
    endloop
  endfacet
  facet normal 0.125337 -0.992114 0
    outer loop
      vertex -0.125581 1.99605 1.5
      vertex -0.374763 1.96457 -3
      vertex -0.125581 1.99605 -3
    endloop
  endfacet
  facet normal 0.481764 -0.876301 0
    outer loop
      vertex -1.07165 1.68865 -3
      vertex -0.851558 1.80965 1.5
      vertex -1.07165 1.68865 1.5
    endloop
  endfacet
  facet normal 0.481764 -0.876301 0
    outer loop
      vertex -0.851558 1.80965 1.5
      vertex -1.07165 1.68865 -3
      vertex -0.851558 1.80965 -3
    endloop
  endfacet
  facet normal 0.998027 -0.0627883 0
    outer loop
      vertex -2 0 1.5
      vertex -1.98423 0.250666 -3
      vertex -1.98423 0.250666 1.5
    endloop
  endfacet
  facet normal 0.998027 -0.0627883 0
    outer loop
      vertex -1.98423 0.250666 -3
      vertex -2 0 1.5
      vertex -2 0 -3
    endloop
  endfacet
  facet normal 0 -1 0
    outer loop
      vertex -0.125581 1.99605 -3
      vertex 0.125581 1.99605 1.5
      vertex -0.125581 1.99605 1.5
    endloop
  endfacet
  facet normal 0 -1 -0
    outer loop
      vertex 0.125581 1.99605 1.5
      vertex -0.125581 1.99605 -3
      vertex 0.125581 1.99605 -3
    endloop
  endfacet
  facet normal -0.844327 0.535829 0
    outer loop
      vertex 1.61803 -1.17557 -3
      vertex 1.75261 -0.963507 1.5
      vertex 1.75261 -0.963507 -3
    endloop
  endfacet
  facet normal -0.844327 0.535829 0
    outer loop
      vertex 1.75261 -0.963507 1.5
      vertex 1.61803 -1.17557 -3
      vertex 1.61803 -1.17557 1.5
    endloop
  endfacet
  facet normal 0.844327 -0.535829 0
    outer loop
      vertex -1.75261 0.963507 1.5
      vertex -1.61803 1.17557 -3
      vertex -1.61803 1.17557 1.5
    endloop
  endfacet
  facet normal 0.844327 -0.535829 0
    outer loop
      vertex -1.61803 1.17557 -3
      vertex -1.75261 0.963507 1.5
      vertex -1.75261 0.963507 -3
    endloop
  endfacet
  facet normal -0.684562 0.728955 0
    outer loop
      vertex 1.45794 -1.36909 -3
      vertex 1.27485 -1.54103 1.5
      vertex 1.45794 -1.36909 1.5
    endloop
  endfacet
  facet normal -0.684562 0.728955 0
    outer loop
      vertex 1.27485 -1.54103 1.5
      vertex 1.45794 -1.36909 -3
      vertex 1.27485 -1.54103 -3
    endloop
  endfacet
  facet normal 0.982289 0.18737 0
    outer loop
      vertex -1.93717 -0.497379 1.5
      vertex -1.98423 -0.250666 -3
      vertex -1.98423 -0.250666 1.5
    endloop
  endfacet
  facet normal 0.982289 0.18737 0
    outer loop
      vertex -1.98423 -0.250666 -3
      vertex -1.93717 -0.497379 1.5
      vertex -1.93717 -0.497379 -3
    endloop
  endfacet
  facet normal 0.248686 0.968584 -0
    outer loop
      vertex -0.374763 -1.96457 -3
      vertex -0.618033 -1.90211 1.5
      vertex -0.374763 -1.96457 1.5
    endloop
  endfacet
  facet normal 0.248686 0.968584 0
    outer loop
      vertex -0.618033 -1.90211 1.5
      vertex -0.374763 -1.96457 -3
      vertex -0.618033 -1.90211 -3
    endloop
  endfacet
  facet normal 0.904826 0.425781 0
    outer loop
      vertex -1.75261 -0.963507 1.5
      vertex -1.85955 -0.736249 -3
      vertex -1.85955 -0.736249 1.5
    endloop
  endfacet
  facet normal 0.904826 0.425781 0
    outer loop
      vertex -1.85955 -0.736249 -3
      vertex -1.75261 -0.963507 1.5
      vertex -1.75261 -0.963507 -3
    endloop
  endfacet
  facet normal -0.125337 0.992114 0
    outer loop
      vertex 0.374763 -1.96457 -3
      vertex 0.125581 -1.99605 1.5
      vertex 0.374763 -1.96457 1.5
    endloop
  endfacet
  facet normal -0.125337 0.992114 0
    outer loop
      vertex 0.125581 -1.99605 1.5
      vertex 0.374763 -1.96457 -3
      vertex 0.125581 -1.99605 -3
    endloop
  endfacet
  facet normal 0.684562 -0.728955 0
    outer loop
      vertex -1.45794 1.36909 -3
      vertex -1.27485 1.54103 1.5
      vertex -1.45794 1.36909 1.5
    endloop
  endfacet
  facet normal 0.684562 -0.728955 0
    outer loop
      vertex -1.27485 1.54103 1.5
      vertex -1.45794 1.36909 -3
      vertex -1.27485 1.54103 -3
    endloop
  endfacet
  facet normal 0.844327 0.535829 0
    outer loop
      vertex -1.61803 -1.17557 1.5
      vertex -1.75261 -0.963507 -3
      vertex -1.75261 -0.963507 1.5
    endloop
  endfacet
  facet normal 0.844327 0.535829 0
    outer loop
      vertex -1.75261 -0.963507 -3
      vertex -1.61803 -1.17557 1.5
      vertex -1.61803 -1.17557 -3
    endloop
  endfacet
  facet normal -0.904826 -0.425781 0
    outer loop
      vertex 1.85955 0.736249 -3
      vertex 1.75261 0.963507 1.5
      vertex 1.75261 0.963507 -3
    endloop
  endfacet
  facet normal -0.904826 -0.425781 0
    outer loop
      vertex 1.75261 0.963507 1.5
      vertex 1.85955 0.736249 -3
      vertex 1.85955 0.736249 1.5
    endloop
  endfacet
  facet normal 0.77052 -0.637415 0
    outer loop
      vertex -1.61803 1.17557 1.5
      vertex -1.45794 1.36909 -3
      vertex -1.45794 1.36909 1.5
    endloop
  endfacet
  facet normal 0.77052 -0.637415 0
    outer loop
      vertex -1.45794 1.36909 -3
      vertex -1.61803 1.17557 1.5
      vertex -1.61803 1.17557 -3
    endloop
  endfacet
  facet normal -0.58775 -0.809042 0
    outer loop
      vertex 1.07165 1.68865 -3
      vertex 1.27485 1.54103 1.5
      vertex 1.07165 1.68865 1.5
    endloop
  endfacet
  facet normal -0.58775 -0.809042 -0
    outer loop
      vertex 1.27485 1.54103 1.5
      vertex 1.07165 1.68865 -3
      vertex 1.27485 1.54103 -3
    endloop
  endfacet
  facet normal -0.481764 0.876301 0
    outer loop
      vertex 1.07165 -1.68865 -3
      vertex 0.851558 -1.80965 1.5
      vertex 1.07165 -1.68865 1.5
    endloop
  endfacet
  facet normal -0.481764 0.876301 0
    outer loop
      vertex 0.851558 -1.80965 1.5
      vertex 1.07165 -1.68865 -3
      vertex 0.851558 -1.80965 -3
    endloop
  endfacet
  facet normal 0.368128 -0.929775 0
    outer loop
      vertex -0.851558 1.80965 -3
      vertex -0.618033 1.90211 1.5
      vertex -0.851558 1.80965 1.5
    endloop
  endfacet
  facet normal 0.368128 -0.929775 0
    outer loop
      vertex -0.618033 1.90211 1.5
      vertex -0.851558 1.80965 -3
      vertex -0.618033 1.90211 -3
    endloop
  endfacet
  facet normal -0.982289 0.18737 0
    outer loop
      vertex 1.93717 -0.497379 -3
      vertex 1.98423 -0.250666 1.5
      vertex 1.98423 -0.250666 -3
    endloop
  endfacet
  facet normal -0.982289 0.18737 0
    outer loop
      vertex 1.98423 -0.250666 1.5
      vertex 1.93717 -0.497379 -3
      vertex 1.93717 -0.497379 1.5
    endloop
  endfacet
  facet normal -0.998027 0.0627883 0
    outer loop
      vertex 1.98423 -0.250666 -3
      vertex 2 0 1.5
      vertex 2 0 -3
    endloop
  endfacet
  facet normal -0.998027 0.0627883 0
    outer loop
      vertex 2 0 1.5
      vertex 1.98423 -0.250666 -3
      vertex 1.98423 -0.250666 1.5
    endloop
  endfacet
  facet normal 0.951049 0.30904 0
    outer loop
      vertex -1.85955 -0.736249 1.5
      vertex -1.93717 -0.497379 -3
      vertex -1.93717 -0.497379 1.5
    endloop
  endfacet
  facet normal 0.951049 0.30904 0
    outer loop
      vertex -1.93717 -0.497379 -3
      vertex -1.85955 -0.736249 1.5
      vertex -1.85955 -0.736249 -3
    endloop
  endfacet
  facet normal 0 1 -0
    outer loop
      vertex 0.125581 -1.99605 -3
      vertex -0.125581 -1.99605 1.5
      vertex 0.125581 -1.99605 1.5
    endloop
  endfacet
  facet normal 0 1 0
    outer loop
      vertex -0.125581 -1.99605 1.5
      vertex 0.125581 -1.99605 -3
      vertex -0.125581 -1.99605 -3
    endloop
  endfacet
  facet normal -0.951049 -0.30904 0
    outer loop
      vertex 1.93717 0.497379 -3
      vertex 1.85955 0.736249 1.5
      vertex 1.85955 0.736249 -3
    endloop
  endfacet
  facet normal -0.951049 -0.30904 0
    outer loop
      vertex 1.85955 0.736249 1.5
      vertex 1.93717 0.497379 -3
      vertex 1.93717 0.497379 1.5
    endloop
  endfacet
  facet normal -0.368128 0.929775 0
    outer loop
      vertex 0.851558 -1.80965 -3
      vertex 0.618033 -1.90211 1.5
      vertex 0.851558 -1.80965 1.5
    endloop
  endfacet
  facet normal -0.368128 0.929775 0
    outer loop
      vertex 0.618033 -1.90211 1.5
      vertex 0.851558 -1.80965 -3
      vertex 0.618033 -1.90211 -3
    endloop
  endfacet
  facet normal 0.58775 -0.809042 0
    outer loop
      vertex -1.27485 1.54103 -3
      vertex -1.07165 1.68865 1.5
      vertex -1.27485 1.54103 1.5
    endloop
  endfacet
  facet normal 0.58775 -0.809042 0
    outer loop
      vertex -1.07165 1.68865 1.5
      vertex -1.27485 1.54103 -3
      vertex -1.07165 1.68865 -3
    endloop
  endfacet
  facet normal -0.951049 0.30904 0
    outer loop
      vertex 1.85955 -0.736249 -3
      vertex 1.93717 -0.497379 1.5
      vertex 1.93717 -0.497379 -3
    endloop
  endfacet
  facet normal -0.951049 0.30904 0
    outer loop
      vertex 1.93717 -0.497379 1.5
      vertex 1.85955 -0.736249 -3
      vertex 1.85955 -0.736249 1.5
    endloop
  endfacet
  facet normal 0.982289 -0.18737 0
    outer loop
      vertex -1.98423 0.250666 1.5
      vertex -1.93717 0.497379 -3
      vertex -1.93717 0.497379 1.5
    endloop
  endfacet
  facet normal 0.982289 -0.18737 0
    outer loop
      vertex -1.93717 0.497379 -3
      vertex -1.98423 0.250666 1.5
      vertex -1.98423 0.250666 -3
    endloop
  endfacet
  facet normal -0.368128 -0.929775 0
    outer loop
      vertex 0.618033 1.90211 -3
      vertex 0.851558 1.80965 1.5
      vertex 0.618033 1.90211 1.5
    endloop
  endfacet
  facet normal -0.368128 -0.929775 -0
    outer loop
      vertex 0.851558 1.80965 1.5
      vertex 0.618033 1.90211 -3
      vertex 0.851558 1.80965 -3
    endloop
  endfacet
  facet normal -0.77052 -0.637415 0
    outer loop
      vertex 1.61803 1.17557 -3
      vertex 1.45794 1.36909 1.5
      vertex 1.45794 1.36909 -3
    endloop
  endfacet
  facet normal -0.77052 -0.637415 0
    outer loop
      vertex 1.45794 1.36909 1.5
      vertex 1.61803 1.17557 -3
      vertex 1.61803 1.17557 1.5
    endloop
  endfacet
  facet normal 0.368128 0.929775 -0
    outer loop
      vertex -0.618033 -1.90211 -3
      vertex -0.851558 -1.80965 1.5
      vertex -0.618033 -1.90211 1.5
    endloop
  endfacet
  facet normal 0.368128 0.929775 0
    outer loop
      vertex -0.851558 -1.80965 1.5
      vertex -0.618033 -1.90211 -3
      vertex -0.851558 -1.80965 -3
    endloop
  endfacet
  facet normal -0.77052 0.637415 0
    outer loop
      vertex 1.45794 -1.36909 -3
      vertex 1.61803 -1.17557 1.5
      vertex 1.61803 -1.17557 -3
    endloop
  endfacet
  facet normal -0.77052 0.637415 0
    outer loop
      vertex 1.61803 -1.17557 1.5
      vertex 1.45794 -1.36909 -3
      vertex 1.45794 -1.36909 1.5
    endloop
  endfacet
  facet normal 0.58775 0.809042 -0
    outer loop
      vertex -1.07165 -1.68865 -3
      vertex -1.27485 -1.54103 1.5
      vertex -1.07165 -1.68865 1.5
    endloop
  endfacet
  facet normal 0.58775 0.809042 0
    outer loop
      vertex -1.27485 -1.54103 1.5
      vertex -1.07165 -1.68865 -3
      vertex -1.27485 -1.54103 -3
    endloop
  endfacet
  facet normal -0.125337 -0.992114 0
    outer loop
      vertex 0.125581 1.99605 -3
      vertex 0.374763 1.96457 1.5
      vertex 0.125581 1.99605 1.5
    endloop
  endfacet
  facet normal -0.125337 -0.992114 -0
    outer loop
      vertex 0.374763 1.96457 1.5
      vertex 0.125581 1.99605 -3
      vertex 0.374763 1.96457 -3
    endloop
  endfacet
  facet normal 0.684562 0.728955 -0
    outer loop
      vertex -1.27485 -1.54103 -3
      vertex -1.45794 -1.36909 1.5
      vertex -1.27485 -1.54103 1.5
    endloop
  endfacet
  facet normal 0.684562 0.728955 0
    outer loop
      vertex -1.45794 -1.36909 1.5
      vertex -1.27485 -1.54103 -3
      vertex -1.45794 -1.36909 -3
    endloop
  endfacet
  facet normal -0.248686 -0.968584 0
    outer loop
      vertex 0.374763 1.96457 -3
      vertex 0.618033 1.90211 1.5
      vertex 0.374763 1.96457 1.5
    endloop
  endfacet
  facet normal -0.248686 -0.968584 -0
    outer loop
      vertex 0.618033 1.90211 1.5
      vertex 0.374763 1.96457 -3
      vertex 0.618033 1.90211 -3
    endloop
  endfacet
  facet normal 0.998027 0.0627883 0
    outer loop
      vertex -1.98423 -0.250666 1.5
      vertex -2 0 -3
      vertex -2 0 1.5
    endloop
  endfacet
  facet normal 0.998027 0.0627883 0
    outer loop
      vertex -2 0 -3
      vertex -1.98423 -0.250666 1.5
      vertex -1.98423 -0.250666 -3
    endloop
  endfacet
  facet normal 0.904826 -0.425781 0
    outer loop
      vertex -1.85955 0.736249 1.5
      vertex -1.75261 0.963507 -3
      vertex -1.75261 0.963507 1.5
    endloop
  endfacet
  facet normal 0.904826 -0.425781 0
    outer loop
      vertex -1.75261 0.963507 -3
      vertex -1.85955 0.736249 1.5
      vertex -1.85955 0.736249 -3
    endloop
  endfacet
  facet normal 0.125337 0.992114 -0
    outer loop
      vertex -0.125581 -1.99605 -3
      vertex -0.374763 -1.96457 1.5
      vertex -0.125581 -1.99605 1.5
    endloop
  endfacet
  facet normal 0.125337 0.992114 0
    outer loop
      vertex -0.374763 -1.96457 1.5
      vertex -0.125581 -1.99605 -3
      vertex -0.374763 -1.96457 -3
    endloop
  endfacet
  facet normal -0.58775 0.809042 0
    outer loop
      vertex 1.27485 -1.54103 -3
      vertex 1.07165 -1.68865 1.5
      vertex 1.27485 -1.54103 1.5
    endloop
  endfacet
  facet normal -0.58775 0.809042 0
    outer loop
      vertex 1.07165 -1.68865 1.5
      vertex 1.27485 -1.54103 -3
      vertex 1.07165 -1.68865 -3
    endloop
  endfacet
  facet normal 0.481764 0.876301 -0
    outer loop
      vertex -0.851558 -1.80965 -3
      vertex -1.07165 -1.68865 1.5
      vertex -0.851558 -1.80965 1.5
    endloop
  endfacet
  facet normal 0.481764 0.876301 0
    outer loop
      vertex -1.07165 -1.68865 1.5
      vertex -0.851558 -1.80965 -3
      vertex -1.07165 -1.68865 -3
    endloop
  endfacet
endsolid OpenSCAD_Model
