solid OpenSCAD_Model
  facet normal 0.982287 0.18738 0
    outer loop
      vertex 3.4724 0.438665 1.5
      vertex 3.39004 0.870414 -1
      vertex 3.39004 0.870414 1.5
    endloop
  endfacet
  facet normal 0.982287 0.18738 0
    outer loop
      vertex 3.39004 0.870414 -1
      vertex 3.4724 0.438665 1.5
      vertex 3.4724 0.438665 -1
    endloop
  endfacet
  facet normal 0.998027 0.062794 0
    outer loop
      vertex 3.5 0 1.5
      vertex 3.4724 0.438665 -1
      vertex 3.4724 0.438665 1.5
    endloop
  endfacet
  facet normal 0.998027 0.062794 0
    outer loop
      vertex 3.4724 0.438665 -1
      vertex 3.5 0 1.5
      vertex 3.5 0 -1
    endloop
  endfacet
  facet normal -0.248673 -0.968587 0
    outer loop
      vertex -1.08156 -3.3287 -1
      vertex -0.655834 -3.438 1.5
      vertex -1.08156 -3.3287 1.5
    endloop
  endfacet
  facet normal -0.248673 -0.968587 -0
    outer loop
      vertex -0.655834 -3.438 1.5
      vertex -1.08156 -3.3287 -1
      vertex -0.655834 -3.438 -1
    endloop
  endfacet
  facet normal 0.368137 -0.929772 0
    outer loop
      vertex 1.08156 -3.3287 -1
      vertex 1.49023 -3.16689 1.5
      vertex 1.08156 -3.3287 1.5
    endloop
  endfacet
  facet normal 0.368137 -0.929772 0
    outer loop
      vertex 1.49023 -3.16689 1.5
      vertex 1.08156 -3.3287 -1
      vertex 1.49023 -3.16689 -1
    endloop
  endfacet
  facet normal 0.844332 0.535821 0
    outer loop
      vertex 3.06707 1.68614 1.5
      vertex 2.83156 2.05725 -1
      vertex 2.83156 2.05725 1.5
    endloop
  endfacet
  facet normal 0.844332 0.535821 0
    outer loop
      vertex 2.83156 2.05725 -1
      vertex 3.06707 1.68614 1.5
      vertex 3.06707 1.68614 -1
    endloop
  endfacet
  facet normal 0.587783 0.809018 -0
    outer loop
      vertex 2.23098 2.6968 -1
      vertex 1.87539 2.95515 1.5
      vertex 2.23098 2.6968 1.5
    endloop
  endfacet
  facet normal 0.587783 0.809018 0
    outer loop
      vertex 1.87539 2.95515 1.5
      vertex 2.23098 2.6968 -1
      vertex 1.87539 2.95515 -1
    endloop
  endfacet
  facet normal 0.248673 -0.968587 0
    outer loop
      vertex 0.655834 -3.438 -1
      vertex 1.08156 -3.3287 1.5
      vertex 0.655834 -3.438 1.5
    endloop
  endfacet
  facet normal 0.248673 -0.968587 0
    outer loop
      vertex 1.08156 -3.3287 1.5
      vertex 0.655834 -3.438 -1
      vertex 1.08156 -3.3287 -1
    endloop
  endfacet
  facet normal 0.951058 -0.309014 0
    outer loop
      vertex 3.25422 -1.28843 1.5
      vertex 3.39004 -0.870414 -1
      vertex 3.39004 -0.870414 1.5
    endloop
  endfacet
  facet normal 0.951058 -0.309014 0
    outer loop
      vertex 3.39004 -0.870414 -1
      vertex 3.25422 -1.28843 1.5
      vertex 3.25422 -1.28843 -1
    endloop
  endfacet
  facet normal 0.368137 0.929772 -0
    outer loop
      vertex 1.49023 3.16689 -1
      vertex 1.08156 3.3287 1.5
      vertex 1.49023 3.16689 1.5
    endloop
  endfacet
  facet normal 0.368137 0.929772 0
    outer loop
      vertex 1.08156 3.3287 1.5
      vertex 1.49023 3.16689 -1
      vertex 1.08156 3.3287 -1
    endloop
  endfacet
  facet normal 0.844332 -0.535821 0
    outer loop
      vertex 2.83156 -2.05725 1.5
      vertex 3.06707 -1.68614 -1
      vertex 3.06707 -1.68614 1.5
    endloop
  endfacet
  facet normal 0.844332 -0.535821 0
    outer loop
      vertex 3.06707 -1.68614 -1
      vertex 2.83156 -2.05725 1.5
      vertex 2.83156 -2.05725 -1
    endloop
  endfacet
  facet normal 0.770506 -0.637432 0
    outer loop
      vertex 2.55139 -2.39591 1.5
      vertex 2.83156 -2.05725 -1
      vertex 2.83156 -2.05725 1.5
    endloop
  endfacet
  facet normal 0.770506 -0.637432 0
    outer loop
      vertex 2.83156 -2.05725 -1
      vertex 2.55139 -2.39591 1.5
      vertex 2.55139 -2.39591 -1
    endloop
  endfacet
  facet normal 0 1 -0
    outer loop
      vertex 0.219767 3.49309 -1
      vertex -0.219767 3.49309 1.5
      vertex 0.219767 3.49309 1.5
    endloop
  endfacet
  facet normal 0 1 0
    outer loop
      vertex -0.219767 3.49309 1.5
      vertex 0.219767 3.49309 -1
      vertex -0.219767 3.49309 -1
    endloop
  endfacet
  facet normal 0.904825 0.425783 0
    outer loop
      vertex 3.25422 1.28843 1.5
      vertex 3.06707 1.68614 -1
      vertex 3.06707 1.68614 1.5
    endloop
  endfacet
  facet normal 0.904825 0.425783 0
    outer loop
      vertex 3.06707 1.68614 -1
      vertex 3.25422 1.28843 1.5
      vertex 3.25422 1.28843 -1
    endloop
  endfacet
  facet normal 0.125338 -0.992114 0
    outer loop
      vertex 0.219767 -3.49309 -1
      vertex 0.655834 -3.438 1.5
      vertex 0.219767 -3.49309 1.5
    endloop
  endfacet
  facet normal 0.125338 -0.992114 0
    outer loop
      vertex 0.655834 -3.438 1.5
      vertex 0.219767 -3.49309 -1
      vertex 0.655834 -3.438 -1
    endloop
  endfacet
  facet normal -0.125338 -0.992114 0
    outer loop
      vertex -0.655834 -3.438 -1
      vertex -0.219767 -3.49309 1.5
      vertex -0.655834 -3.438 1.5
    endloop
  endfacet
  facet normal -0.125338 -0.992114 -0
    outer loop
      vertex -0.219767 -3.49309 1.5
      vertex -0.655834 -3.438 -1
      vertex -0.219767 -3.49309 -1
    endloop
  endfacet
  facet normal -0.770506 -0.637432 0
    outer loop
      vertex -2.55139 -2.39591 -1
      vertex -2.83156 -2.05725 1.5
      vertex -2.83156 -2.05725 -1
    endloop
  endfacet
  facet normal -0.770506 -0.637432 0
    outer loop
      vertex -2.83156 -2.05725 1.5
      vertex -2.55139 -2.39591 -1
      vertex -2.55139 -2.39591 1.5
    endloop
  endfacet
  facet normal -0.684553 0.728963 0
    outer loop
      vertex -2.23098 2.6968 -1
      vertex -2.55139 2.39591 1.5
      vertex -2.23098 2.6968 1.5
    endloop
  endfacet
  facet normal -0.684553 0.728963 0
    outer loop
      vertex -2.55139 2.39591 1.5
      vertex -2.23098 2.6968 -1
      vertex -2.55139 2.39591 -1
    endloop
  endfacet
  facet normal -0.587783 -0.809018 0
    outer loop
      vertex -2.23098 -2.6968 -1
      vertex -1.87539 -2.95515 1.5
      vertex -2.23098 -2.6968 1.5
    endloop
  endfacet
  facet normal -0.587783 -0.809018 -0
    outer loop
      vertex -1.87539 -2.95515 1.5
      vertex -2.23098 -2.6968 -1
      vertex -1.87539 -2.95515 -1
    endloop
  endfacet
  facet normal -0.684553 -0.728963 0
    outer loop
      vertex -2.55139 -2.39591 -1
      vertex -2.23098 -2.6968 1.5
      vertex -2.55139 -2.39591 1.5
    endloop
  endfacet
  facet normal -0.684553 -0.728963 -0
    outer loop
      vertex -2.23098 -2.6968 1.5
      vertex -2.55139 -2.39591 -1
      vertex -2.23098 -2.6968 -1
    endloop
  endfacet
  facet normal 0.481748 -0.87631 0
    outer loop
      vertex 1.49023 -3.16689 -1
      vertex 1.87539 -2.95515 1.5
      vertex 1.49023 -3.16689 1.5
    endloop
  endfacet
  facet normal 0.481748 -0.87631 0
    outer loop
      vertex 1.87539 -2.95515 1.5
      vertex 1.49023 -3.16689 -1
      vertex 1.87539 -2.95515 -1
    endloop
  endfacet
  facet normal 0.248673 0.968587 -0
    outer loop
      vertex 1.08156 3.3287 -1
      vertex 0.655834 3.438 1.5
      vertex 1.08156 3.3287 1.5
    endloop
  endfacet
  facet normal 0.248673 0.968587 0
    outer loop
      vertex 0.655834 3.438 1.5
      vertex 1.08156 3.3287 -1
      vertex 0.655834 3.438 -1
    endloop
  endfacet
  facet normal -0.844332 0.535821 0
    outer loop
      vertex -3.06707 1.68614 -1
      vertex -2.83156 2.05725 1.5
      vertex -2.83156 2.05725 -1
    endloop
  endfacet
  facet normal -0.844332 0.535821 0
    outer loop
      vertex -2.83156 2.05725 1.5
      vertex -3.06707 1.68614 -1
      vertex -3.06707 1.68614 1.5
    endloop
  endfacet
  facet normal -0.125338 0.992114 0
    outer loop
      vertex -0.219767 3.49309 -1
      vertex -0.655834 3.438 1.5
      vertex -0.219767 3.49309 1.5
    endloop
  endfacet
  facet normal -0.125338 0.992114 0
    outer loop
      vertex -0.655834 3.438 1.5
      vertex -0.219767 3.49309 -1
      vertex -0.655834 3.438 -1
    endloop
  endfacet
  facet normal 0.998027 -0.062794 0
    outer loop
      vertex 3.4724 -0.438665 1.5
      vertex 3.5 0 -1
      vertex 3.5 0 1.5
    endloop
  endfacet
  facet normal 0.998027 -0.062794 0
    outer loop
      vertex 3.5 0 -1
      vertex 3.4724 -0.438665 1.5
      vertex 3.4724 -0.438665 -1
    endloop
  endfacet
  facet normal -0.368137 0.929772 0
    outer loop
      vertex -1.08156 3.3287 -1
      vertex -1.49023 3.16689 1.5
      vertex -1.08156 3.3287 1.5
    endloop
  endfacet
  facet normal -0.368137 0.929772 0
    outer loop
      vertex -1.49023 3.16689 1.5
      vertex -1.08156 3.3287 -1
      vertex -1.49023 3.16689 -1
    endloop
  endfacet
  facet normal -0.982287 -0.18738 0
    outer loop
      vertex -3.39004 -0.870414 -1
      vertex -3.4724 -0.438665 1.5
      vertex -3.4724 -0.438665 -1
    endloop
  endfacet
  facet normal -0.982287 -0.18738 0
    outer loop
      vertex -3.4724 -0.438665 1.5
      vertex -3.39004 -0.870414 -1
      vertex -3.39004 -0.870414 1.5
    endloop
  endfacet
  facet normal 0.982287 -0.18738 0
    outer loop
      vertex 3.39004 -0.870414 1.5
      vertex 3.4724 -0.438665 -1
      vertex 3.4724 -0.438665 1.5
    endloop
  endfacet
  facet normal 0.982287 -0.18738 0
    outer loop
      vertex 3.4724 -0.438665 -1
      vertex 3.39004 -0.870414 1.5
      vertex 3.39004 -0.870414 -1
    endloop
  endfacet
  facet normal -0.904825 -0.425783 0
    outer loop
      vertex -3.06707 -1.68614 -1
      vertex -3.25422 -1.28843 1.5
      vertex -3.25422 -1.28843 -1
    endloop
  endfacet
  facet normal -0.904825 -0.425783 0
    outer loop
      vertex -3.25422 -1.28843 1.5
      vertex -3.06707 -1.68614 -1
      vertex -3.06707 -1.68614 1.5
    endloop
  endfacet
  facet normal -0.951058 0.309014 0
    outer loop
      vertex -3.39004 0.870414 -1
      vertex -3.25422 1.28843 1.5
      vertex -3.25422 1.28843 -1
    endloop
  endfacet
  facet normal -0.951058 0.309014 0
    outer loop
      vertex -3.25422 1.28843 1.5
      vertex -3.39004 0.870414 -1
      vertex -3.39004 0.870414 1.5
    endloop
  endfacet
  facet normal -0.248673 0.968587 0
    outer loop
      vertex -0.655834 3.438 -1
      vertex -1.08156 3.3287 1.5
      vertex -0.655834 3.438 1.5
    endloop
  endfacet
  facet normal -0.248673 0.968587 0
    outer loop
      vertex -1.08156 3.3287 1.5
      vertex -0.655834 3.438 -1
      vertex -1.08156 3.3287 -1
    endloop
  endfacet
  facet normal 0 -1 0
    outer loop
      vertex -0.219767 -3.49309 -1
      vertex 0.219767 -3.49309 1.5
      vertex -0.219767 -3.49309 1.5
    endloop
  endfacet
  facet normal 0 -1 -0
    outer loop
      vertex 0.219767 -3.49309 1.5
      vertex -0.219767 -3.49309 -1
      vertex 0.219767 -3.49309 -1
    endloop
  endfacet
  facet normal -0.844332 -0.535821 0
    outer loop
      vertex -2.83156 -2.05725 -1
      vertex -3.06707 -1.68614 1.5
      vertex -3.06707 -1.68614 -1
    endloop
  endfacet
  facet normal -0.844332 -0.535821 0
    outer loop
      vertex -3.06707 -1.68614 1.5
      vertex -2.83156 -2.05725 -1
      vertex -2.83156 -2.05725 1.5
    endloop
  endfacet
  facet normal 0.904825 -0.425783 0
    outer loop
      vertex 3.06707 -1.68614 1.5
      vertex 3.25422 -1.28843 -1
      vertex 3.25422 -1.28843 1.5
    endloop
  endfacet
  facet normal 0.904825 -0.425783 0
    outer loop
      vertex 3.25422 -1.28843 -1
      vertex 3.06707 -1.68614 1.5
      vertex 3.06707 -1.68614 -1
    endloop
  endfacet
  facet normal 0.684553 0.728963 -0
    outer loop
      vertex 2.55139 2.39591 -1
      vertex 2.23098 2.6968 1.5
      vertex 2.55139 2.39591 1.5
    endloop
  endfacet
  facet normal 0.684553 0.728963 0
    outer loop
      vertex 2.23098 2.6968 1.5
      vertex 2.55139 2.39591 -1
      vertex 2.23098 2.6968 -1
    endloop
  endfacet
  facet normal 0.481748 0.87631 -0
    outer loop
      vertex 1.87539 2.95515 -1
      vertex 1.49023 3.16689 1.5
      vertex 1.87539 2.95515 1.5
    endloop
  endfacet
  facet normal 0.481748 0.87631 0
    outer loop
      vertex 1.49023 3.16689 1.5
      vertex 1.87539 2.95515 -1
      vertex 1.49023 3.16689 -1
    endloop
  endfacet
  facet normal 0.951058 0.309014 0
    outer loop
      vertex 3.39004 0.870414 1.5
      vertex 3.25422 1.28843 -1
      vertex 3.25422 1.28843 1.5
    endloop
  endfacet
  facet normal 0.951058 0.309014 0
    outer loop
      vertex 3.25422 1.28843 -1
      vertex 3.39004 0.870414 1.5
      vertex 3.39004 0.870414 -1
    endloop
  endfacet
  facet normal 0.770506 0.637432 0
    outer loop
      vertex 2.83156 2.05725 1.5
      vertex 2.55139 2.39591 -1
      vertex 2.55139 2.39591 1.5
    endloop
  endfacet
  facet normal 0.770506 0.637432 0
    outer loop
      vertex 2.55139 2.39591 -1
      vertex 2.83156 2.05725 1.5
      vertex 2.83156 2.05725 -1
    endloop
  endfacet
  facet normal -0.998027 -0.062794 0
    outer loop
      vertex -3.4724 -0.438665 -1
      vertex -3.5 0 1.5
      vertex -3.5 0 -1
    endloop
  endfacet
  facet normal -0.998027 -0.062794 0
    outer loop
      vertex -3.5 0 1.5
      vertex -3.4724 -0.438665 -1
      vertex -3.4724 -0.438665 1.5
    endloop
  endfacet
  facet normal -0.951058 -0.309014 0
    outer loop
      vertex -3.25422 -1.28843 -1
      vertex -3.39004 -0.870414 1.5
      vertex -3.39004 -0.870414 -1
    endloop
  endfacet
  facet normal -0.951058 -0.309014 0
    outer loop
      vertex -3.39004 -0.870414 1.5
      vertex -3.25422 -1.28843 -1
      vertex -3.25422 -1.28843 1.5
    endloop
  endfacet
  facet normal -0.481748 0.87631 0
    outer loop
      vertex -1.49023 3.16689 -1
      vertex -1.87539 2.95515 1.5
      vertex -1.49023 3.16689 1.5
    endloop
  endfacet
  facet normal -0.481748 0.87631 0
    outer loop
      vertex -1.87539 2.95515 1.5
      vertex -1.49023 3.16689 -1
      vertex -1.87539 2.95515 -1
    endloop
  endfacet
  facet normal -0.998027 0.062794 0
    outer loop
      vertex -3.5 0 -1
      vertex -3.4724 0.438665 1.5
      vertex -3.4724 0.438665 -1
    endloop
  endfacet
  facet normal -0.998027 0.062794 0
    outer loop
      vertex -3.4724 0.438665 1.5
      vertex -3.5 0 -1
      vertex -3.5 0 1.5
    endloop
  endfacet
  facet normal -0.368137 -0.929772 0
    outer loop
      vertex -1.49023 -3.16689 -1
      vertex -1.08156 -3.3287 1.5
      vertex -1.49023 -3.16689 1.5
    endloop
  endfacet
  facet normal -0.368137 -0.929772 -0
    outer loop
      vertex -1.08156 -3.3287 1.5
      vertex -1.49023 -3.16689 -1
      vertex -1.08156 -3.3287 -1
    endloop
  endfacet
  facet normal 0.587783 -0.809018 0
    outer loop
      vertex 1.87539 -2.95515 -1
      vertex 2.23098 -2.6968 1.5
      vertex 1.87539 -2.95515 1.5
    endloop
  endfacet
  facet normal 0.587783 -0.809018 0
    outer loop
      vertex 2.23098 -2.6968 1.5
      vertex 1.87539 -2.95515 -1
      vertex 2.23098 -2.6968 -1
    endloop
  endfacet
  facet normal 0.125338 0.992114 -0
    outer loop
      vertex 0.655834 3.438 -1
      vertex 0.219767 3.49309 1.5
      vertex 0.655834 3.438 1.5
    endloop
  endfacet
  facet normal 0.125338 0.992114 0
    outer loop
      vertex 0.219767 3.49309 1.5
      vertex 0.655834 3.438 -1
      vertex 0.219767 3.49309 -1
    endloop
  endfacet
  facet normal -0.770506 0.637432 0
    outer loop
      vertex -2.83156 2.05725 -1
      vertex -2.55139 2.39591 1.5
      vertex -2.55139 2.39591 -1
    endloop
  endfacet
  facet normal -0.770506 0.637432 0
    outer loop
      vertex -2.55139 2.39591 1.5
      vertex -2.83156 2.05725 -1
      vertex -2.83156 2.05725 1.5
    endloop
  endfacet
  facet normal -0.982287 0.18738 0
    outer loop
      vertex -3.4724 0.438665 -1
      vertex -3.39004 0.870414 1.5
      vertex -3.39004 0.870414 -1
    endloop
  endfacet
  facet normal -0.982287 0.18738 0
    outer loop
      vertex -3.39004 0.870414 1.5
      vertex -3.4724 0.438665 -1
      vertex -3.4724 0.438665 1.5
    endloop
  endfacet
  facet normal 0.684553 -0.728963 0
    outer loop
      vertex 2.23098 -2.6968 -1
      vertex 2.55139 -2.39591 1.5
      vertex 2.23098 -2.6968 1.5
    endloop
  endfacet
  facet normal 0.684553 -0.728963 0
    outer loop
      vertex 2.55139 -2.39591 1.5
      vertex 2.23098 -2.6968 -1
      vertex 2.55139 -2.39591 -1
    endloop
  endfacet
  facet normal -0.587783 0.809018 0
    outer loop
      vertex -1.87539 2.95515 -1
      vertex -2.23098 2.6968 1.5
      vertex -1.87539 2.95515 1.5
    endloop
  endfacet
  facet normal -0.587783 0.809018 0
    outer loop
      vertex -2.23098 2.6968 1.5
      vertex -1.87539 2.95515 -1
      vertex -2.23098 2.6968 -1
    endloop
  endfacet
  facet normal -0.481748 -0.87631 0
    outer loop
      vertex -1.87539 -2.95515 -1
      vertex -1.49023 -3.16689 1.5
      vertex -1.87539 -2.95515 1.5
    endloop
  endfacet
  facet normal -0.481748 -0.87631 -0
    outer loop
      vertex -1.49023 -3.16689 1.5
      vertex -1.87539 -2.95515 -1
      vertex -1.49023 -3.16689 -1
    endloop
  endfacet
  facet normal -0.904825 0.425783 0
    outer loop
      vertex -3.25422 1.28843 -1
      vertex -3.06707 1.68614 1.5
      vertex -3.06707 1.68614 -1
    endloop
  endfacet
  facet normal -0.904825 0.425783 0
    outer loop
      vertex -3.06707 1.68614 1.5
      vertex -3.25422 1.28843 -1
      vertex -3.25422 1.28843 1.5
    endloop
  endfacet
  facet normal 0 0 1
    outer loop
      vertex 1.8 0 1.5
      vertex 3.5 0 1.5
      vertex 3.4724 0.438665 1.5
    endloop
  endfacet
  facet normal 0 0 1
    outer loop
      vertex 1.78581 0.225599 1.5
      vertex 3.4724 0.438665 1.5
      vertex 3.39004 0.870414 1.5
    endloop
  endfacet
  facet normal 0 0 1
    outer loop
      vertex 3.5 0 1.5
      vertex 1.8 0 1.5
      vertex 3.4724 -0.438665 1.5
    endloop
  endfacet
  facet normal 0 0 1
    outer loop
      vertex 1.74345 0.447641 1.5
      vertex 3.39004 0.870414 1.5
      vertex 3.25422 1.28843 1.5
    endloop
  endfacet
  facet normal -0 0 1
    outer loop
      vertex 1.78581 -0.225599 1.5
      vertex 3.4724 -0.438665 1.5
      vertex 1.8 0 1.5
    endloop
  endfacet
  facet normal 0 0 1
    outer loop
      vertex 1.6736 0.662623 1.5
      vertex 3.25422 1.28843 1.5
      vertex 3.06707 1.68614 1.5
    endloop
  endfacet
  facet normal 0 0 1
    outer loop
      vertex 3.4724 -0.438665 1.5
      vertex 1.78581 -0.225599 1.5
      vertex 3.39004 -0.870414 1.5
    endloop
  endfacet
  facet normal 0 0 1
    outer loop
      vertex 1.57735 0.867156 1.5
      vertex 3.06707 1.68614 1.5
      vertex 2.83156 2.05725 1.5
    endloop
  endfacet
  facet normal -0 0 1
    outer loop
      vertex 1.74345 -0.447641 1.5
      vertex 3.39004 -0.870414 1.5
      vertex 1.78581 -0.225599 1.5
    endloop
  endfacet
  facet normal 0 0 1
    outer loop
      vertex 1.45623 1.05801 1.5
      vertex 2.83156 2.05725 1.5
      vertex 2.55139 2.39591 1.5
    endloop
  endfacet
  facet normal 0 0 1
    outer loop
      vertex 3.39004 -0.870414 1.5
      vertex 1.74345 -0.447641 1.5
      vertex 3.25422 -1.28843 1.5
    endloop
  endfacet
  facet normal 0 0 1
    outer loop
      vertex 1.31214 1.23218 1.5
      vertex 2.55139 2.39591 1.5
      vertex 2.23098 2.6968 1.5
    endloop
  endfacet
  facet normal -0 0 1
    outer loop
      vertex 1.6736 -0.662623 1.5
      vertex 3.25422 -1.28843 1.5
      vertex 1.74345 -0.447641 1.5
    endloop
  endfacet
  facet normal 0 0 1
    outer loop
      vertex 1.14736 1.38692 1.5
      vertex 2.23098 2.6968 1.5
      vertex 1.87539 2.95515 1.5
    endloop
  endfacet
  facet normal 0 0 1
    outer loop
      vertex 3.25422 -1.28843 1.5
      vertex 1.6736 -0.662623 1.5
      vertex 3.06707 -1.68614 1.5
    endloop
  endfacet
  facet normal -0 0 1
    outer loop
      vertex 1.57735 -0.867156 1.5
      vertex 3.06707 -1.68614 1.5
      vertex 1.6736 -0.662623 1.5
    endloop
  endfacet
  facet normal 0 0 1
    outer loop
      vertex 3.4724 0.438665 1.5
      vertex 1.78581 0.225599 1.5
      vertex 1.8 0 1.5
    endloop
  endfacet
  facet normal 0 0 1
    outer loop
      vertex 3.39004 0.870414 1.5
      vertex 1.74345 0.447641 1.5
      vertex 1.78581 0.225599 1.5
    endloop
  endfacet
  facet normal 0 0 1
    outer loop
      vertex 3.25422 1.28843 1.5
      vertex 1.6736 0.662623 1.5
      vertex 1.74345 0.447641 1.5
    endloop
  endfacet
  facet normal 0 0 1
    outer loop
      vertex 3.06707 1.68614 1.5
      vertex 1.57735 0.867156 1.5
      vertex 1.6736 0.662623 1.5
    endloop
  endfacet
  facet normal 0 0 1
    outer loop
      vertex 0.964488 1.51979 1.5
      vertex 1.87539 2.95515 1.5
      vertex 1.49023 3.16689 1.5
    endloop
  endfacet
  facet normal 0 0 1
    outer loop
      vertex 2.83156 2.05725 1.5
      vertex 1.45623 1.05801 1.5
      vertex 1.57735 0.867156 1.5
    endloop
  endfacet
  facet normal 0 0 1
    outer loop
      vertex 2.55139 2.39591 1.5
      vertex 1.31214 1.23218 1.5
      vertex 1.45623 1.05801 1.5
    endloop
  endfacet
  facet normal 0 0 1
    outer loop
      vertex 2.23098 2.6968 1.5
      vertex 1.14736 1.38692 1.5
      vertex 1.31214 1.23218 1.5
    endloop
  endfacet
  facet normal 0 0 1
    outer loop
      vertex 0.766402 1.62869 1.5
      vertex 1.49023 3.16689 1.5
      vertex 1.08156 3.3287 1.5
    endloop
  endfacet
  facet normal 0 0 1
    outer loop
      vertex 1.87539 2.95515 1.5
      vertex 0.964488 1.51979 1.5
      vertex 1.14736 1.38692 1.5
    endloop
  endfacet
  facet normal 0 0 1
    outer loop
      vertex 1.49023 3.16689 1.5
      vertex 0.766402 1.62869 1.5
      vertex 0.964488 1.51979 1.5
    endloop
  endfacet
  facet normal 0 0 1
    outer loop
      vertex 0.556231 1.7119 1.5
      vertex 1.08156 3.3287 1.5
      vertex 0.655834 3.438 1.5
    endloop
  endfacet
  facet normal 0 0 1
    outer loop
      vertex 1.08156 3.3287 1.5
      vertex 0.556231 1.7119 1.5
      vertex 0.766402 1.62869 1.5
    endloop
  endfacet
  facet normal 0 0 1
    outer loop
      vertex 0.655834 3.438 1.5
      vertex 0.337286 1.76812 1.5
      vertex 0.556231 1.7119 1.5
    endloop
  endfacet
  facet normal 0 0 1
    outer loop
      vertex 0.219767 3.49309 1.5
      vertex 0.337286 1.76812 1.5
      vertex 0.655834 3.438 1.5
    endloop
  endfacet
  facet normal 0 0 1
    outer loop
      vertex 0.219767 3.49309 1.5
      vertex 0.113023 1.79645 1.5
      vertex 0.337286 1.76812 1.5
    endloop
  endfacet
  facet normal 0 0 1
    outer loop
      vertex 0.219767 3.49309 1.5
      vertex -0.113023 1.79645 1.5
      vertex 0.113023 1.79645 1.5
    endloop
  endfacet
  facet normal -0 0 1
    outer loop
      vertex -0.219767 3.49309 1.5
      vertex -0.113023 1.79645 1.5
      vertex 0.219767 3.49309 1.5
    endloop
  endfacet
  facet normal 0 0 1
    outer loop
      vertex -0.219767 3.49309 1.5
      vertex -0.337286 1.76812 1.5
      vertex -0.113023 1.79645 1.5
    endloop
  endfacet
  facet normal -0 0 1
    outer loop
      vertex -0.655834 3.438 1.5
      vertex -0.337286 1.76812 1.5
      vertex -0.219767 3.49309 1.5
    endloop
  endfacet
  facet normal 0 0 1
    outer loop
      vertex -0.337286 1.76812 1.5
      vertex -0.655834 3.438 1.5
      vertex -0.556231 1.7119 1.5
    endloop
  endfacet
  facet normal -0 0 1
    outer loop
      vertex -1.08156 3.3287 1.5
      vertex -0.556231 1.7119 1.5
      vertex -0.655834 3.438 1.5
    endloop
  endfacet
  facet normal 0 0 1
    outer loop
      vertex -0.556231 1.7119 1.5
      vertex -1.08156 3.3287 1.5
      vertex -0.766402 1.62869 1.5
    endloop
  endfacet
  facet normal -0 0 1
    outer loop
      vertex -1.49023 3.16689 1.5
      vertex -0.766402 1.62869 1.5
      vertex -1.08156 3.3287 1.5
    endloop
  endfacet
  facet normal 0 0 1
    outer loop
      vertex -0.766402 1.62869 1.5
      vertex -1.49023 3.16689 1.5
      vertex -0.964488 1.51979 1.5
    endloop
  endfacet
  facet normal -0 0 1
    outer loop
      vertex -1.87539 2.95515 1.5
      vertex -0.964488 1.51979 1.5
      vertex -1.49023 3.16689 1.5
    endloop
  endfacet
  facet normal 0 0 1
    outer loop
      vertex -0.964488 1.51979 1.5
      vertex -1.87539 2.95515 1.5
      vertex -1.14736 1.38692 1.5
    endloop
  endfacet
  facet normal -0 0 1
    outer loop
      vertex -2.23098 2.6968 1.5
      vertex -1.14736 1.38692 1.5
      vertex -1.87539 2.95515 1.5
    endloop
  endfacet
  facet normal 0 0 1
    outer loop
      vertex -1.14736 1.38692 1.5
      vertex -2.23098 2.6968 1.5
      vertex -1.31214 1.23218 1.5
    endloop
  endfacet
  facet normal -0 0 1
    outer loop
      vertex -2.55139 2.39591 1.5
      vertex -1.31214 1.23218 1.5
      vertex -2.23098 2.6968 1.5
    endloop
  endfacet
  facet normal 0 0 1
    outer loop
      vertex -1.31214 1.23218 1.5
      vertex -2.55139 2.39591 1.5
      vertex -1.45623 1.05801 1.5
    endloop
  endfacet
  facet normal -0 0 1
    outer loop
      vertex -2.83156 2.05725 1.5
      vertex -1.45623 1.05801 1.5
      vertex -2.55139 2.39591 1.5
    endloop
  endfacet
  facet normal -0 0 1
    outer loop
      vertex -3.06707 1.68614 1.5
      vertex -1.57735 0.867156 1.5
      vertex -2.83156 2.05725 1.5
    endloop
  endfacet
  facet normal 0 0 1
    outer loop
      vertex -1.45623 1.05801 1.5
      vertex -2.83156 2.05725 1.5
      vertex -1.57735 0.867156 1.5
    endloop
  endfacet
  facet normal 0 0 1
    outer loop
      vertex 3.06707 -1.68614 1.5
      vertex 1.57735 -0.867156 1.5
      vertex 2.83156 -2.05725 1.5
    endloop
  endfacet
  facet normal -0 0 1
    outer loop
      vertex 1.45623 -1.05801 1.5
      vertex 2.83156 -2.05725 1.5
      vertex 1.57735 -0.867156 1.5
    endloop
  endfacet
  facet normal 0 0 1
    outer loop
      vertex 2.83156 -2.05725 1.5
      vertex 1.45623 -1.05801 1.5
      vertex 2.55139 -2.39591 1.5
    endloop
  endfacet
  facet normal -0 0 1
    outer loop
      vertex 1.31214 -1.23218 1.5
      vertex 2.55139 -2.39591 1.5
      vertex 1.45623 -1.05801 1.5
    endloop
  endfacet
  facet normal 0 0 1
    outer loop
      vertex 2.55139 -2.39591 1.5
      vertex 1.31214 -1.23218 1.5
      vertex 2.23098 -2.6968 1.5
    endloop
  endfacet
  facet normal -0 0 1
    outer loop
      vertex 1.14736 -1.38692 1.5
      vertex 2.23098 -2.6968 1.5
      vertex 1.31214 -1.23218 1.5
    endloop
  endfacet
  facet normal 0 0 1
    outer loop
      vertex 2.23098 -2.6968 1.5
      vertex 1.14736 -1.38692 1.5
      vertex 1.87539 -2.95515 1.5
    endloop
  endfacet
  facet normal -0 0 1
    outer loop
      vertex 0.964488 -1.51979 1.5
      vertex 1.87539 -2.95515 1.5
      vertex 1.14736 -1.38692 1.5
    endloop
  endfacet
  facet normal 0 0 1
    outer loop
      vertex 1.87539 -2.95515 1.5
      vertex 0.964488 -1.51979 1.5
      vertex 1.49023 -3.16689 1.5
    endloop
  endfacet
  facet normal -0 0 1
    outer loop
      vertex 0.766402 -1.62869 1.5
      vertex 1.49023 -3.16689 1.5
      vertex 0.964488 -1.51979 1.5
    endloop
  endfacet
  facet normal 0 0 1
    outer loop
      vertex 1.49023 -3.16689 1.5
      vertex 0.766402 -1.62869 1.5
      vertex 1.08156 -3.3287 1.5
    endloop
  endfacet
  facet normal -0 0 1
    outer loop
      vertex 0.556231 -1.7119 1.5
      vertex 1.08156 -3.3287 1.5
      vertex 0.766402 -1.62869 1.5
    endloop
  endfacet
  facet normal 0 0 1
    outer loop
      vertex 1.08156 -3.3287 1.5
      vertex 0.556231 -1.7119 1.5
      vertex 0.655834 -3.438 1.5
    endloop
  endfacet
  facet normal -0 0 1
    outer loop
      vertex 0.337286 -1.76812 1.5
      vertex 0.655834 -3.438 1.5
      vertex 0.556231 -1.7119 1.5
    endloop
  endfacet
  facet normal 0 0 1
    outer loop
      vertex 0.337286 -1.76812 1.5
      vertex 0.219767 -3.49309 1.5
      vertex 0.655834 -3.438 1.5
    endloop
  endfacet
  facet normal -0 0 1
    outer loop
      vertex 0.113023 -1.79645 1.5
      vertex 0.219767 -3.49309 1.5
      vertex 0.337286 -1.76812 1.5
    endloop
  endfacet
  facet normal -0 0 1
    outer loop
      vertex -0.113023 -1.79645 1.5
      vertex 0.219767 -3.49309 1.5
      vertex 0.113023 -1.79645 1.5
    endloop
  endfacet
  facet normal 0 0 1
    outer loop
      vertex -0.113023 -1.79645 1.5
      vertex -0.219767 -3.49309 1.5
      vertex 0.219767 -3.49309 1.5
    endloop
  endfacet
  facet normal 0 0 1
    outer loop
      vertex -0.337286 -1.76812 1.5
      vertex -0.219767 -3.49309 1.5
      vertex -0.113023 -1.79645 1.5
    endloop
  endfacet
  facet normal 0 0 1
    outer loop
      vertex -0.655834 -3.438 1.5
      vertex -0.337286 -1.76812 1.5
      vertex -0.556231 -1.7119 1.5
    endloop
  endfacet
  facet normal 0 0 1
    outer loop
      vertex -0.337286 -1.76812 1.5
      vertex -0.655834 -3.438 1.5
      vertex -0.219767 -3.49309 1.5
    endloop
  endfacet
  facet normal 0 0 1
    outer loop
      vertex -1.08156 -3.3287 1.5
      vertex -0.556231 -1.7119 1.5
      vertex -0.766402 -1.62869 1.5
    endloop
  endfacet
  facet normal 0 0 1
    outer loop
      vertex -1.49023 -3.16689 1.5
      vertex -0.766402 -1.62869 1.5
      vertex -0.964488 -1.51979 1.5
    endloop
  endfacet
  facet normal 0 0 1
    outer loop
      vertex -0.556231 -1.7119 1.5
      vertex -1.08156 -3.3287 1.5
      vertex -0.655834 -3.438 1.5
    endloop
  endfacet
  facet normal 0 0 1
    outer loop
      vertex -1.87539 -2.95515 1.5
      vertex -0.964488 -1.51979 1.5
      vertex -1.14736 -1.38692 1.5
    endloop
  endfacet
  facet normal 0 0 1
    outer loop
      vertex -2.23098 -2.6968 1.5
      vertex -1.14736 -1.38692 1.5
      vertex -1.31214 -1.23218 1.5
    endloop
  endfacet
  facet normal 0 0 1
    outer loop
      vertex -2.55139 -2.39591 1.5
      vertex -1.31214 -1.23218 1.5
      vertex -1.45623 -1.05801 1.5
    endloop
  endfacet
  facet normal 0 0 1
    outer loop
      vertex -0.766402 -1.62869 1.5
      vertex -1.49023 -3.16689 1.5
      vertex -1.08156 -3.3287 1.5
    endloop
  endfacet
  facet normal 0 0 1
    outer loop
      vertex -2.83156 -2.05725 1.5
      vertex -1.45623 -1.05801 1.5
      vertex -1.57735 -0.867156 1.5
    endloop
  endfacet
  facet normal 0 0 1
    outer loop
      vertex -3.06707 -1.68614 1.5
      vertex -1.57735 -0.867156 1.5
      vertex -1.6736 -0.662623 1.5
    endloop
  endfacet
  facet normal 0 0 1
    outer loop
      vertex -3.25422 -1.28843 1.5
      vertex -1.6736 -0.662623 1.5
      vertex -1.74345 -0.447641 1.5
    endloop
  endfacet
  facet normal 0 0 1
    outer loop
      vertex -3.39004 -0.870414 1.5
      vertex -1.74345 -0.447641 1.5
      vertex -1.78581 -0.225599 1.5
    endloop
  endfacet
  facet normal 0 0 1
    outer loop
      vertex -0.964488 -1.51979 1.5
      vertex -1.87539 -2.95515 1.5
      vertex -1.49023 -3.16689 1.5
    endloop
  endfacet
  facet normal 0 0 1
    outer loop
      vertex -3.4724 -0.438665 1.5
      vertex -1.78581 -0.225599 1.5
      vertex -1.8 0 1.5
    endloop
  endfacet
  facet normal 0 0 1
    outer loop
      vertex -1.57735 0.867156 1.5
      vertex -3.06707 1.68614 1.5
      vertex -1.6736 0.662623 1.5
    endloop
  endfacet
  facet normal -0 0 1
    outer loop
      vertex -3.25422 1.28843 1.5
      vertex -1.6736 0.662623 1.5
      vertex -3.06707 1.68614 1.5
    endloop
  endfacet
  facet normal 0 0 1
    outer loop
      vertex -1.14736 -1.38692 1.5
      vertex -2.23098 -2.6968 1.5
      vertex -1.87539 -2.95515 1.5
    endloop
  endfacet
  facet normal 0 0 1
    outer loop
      vertex -1.6736 0.662623 1.5
      vertex -3.25422 1.28843 1.5
      vertex -1.74345 0.447641 1.5
    endloop
  endfacet
  facet normal 0 0 1
    outer loop
      vertex -1.31214 -1.23218 1.5
      vertex -2.55139 -2.39591 1.5
      vertex -2.23098 -2.6968 1.5
    endloop
  endfacet
  facet normal -0 0 1
    outer loop
      vertex -3.39004 0.870414 1.5
      vertex -1.74345 0.447641 1.5
      vertex -3.25422 1.28843 1.5
    endloop
  endfacet
  facet normal 0 0 1
    outer loop
      vertex -1.45623 -1.05801 1.5
      vertex -2.83156 -2.05725 1.5
      vertex -2.55139 -2.39591 1.5
    endloop
  endfacet
  facet normal 0 0 1
    outer loop
      vertex -1.74345 0.447641 1.5
      vertex -3.39004 0.870414 1.5
      vertex -1.78581 0.225599 1.5
    endloop
  endfacet
  facet normal 0 0 1
    outer loop
      vertex -1.57735 -0.867156 1.5
      vertex -3.06707 -1.68614 1.5
      vertex -2.83156 -2.05725 1.5
    endloop
  endfacet
  facet normal -0 0 1
    outer loop
      vertex -3.4724 0.438665 1.5
      vertex -1.78581 0.225599 1.5
      vertex -3.39004 0.870414 1.5
    endloop
  endfacet
  facet normal 0 0 1
    outer loop
      vertex -1.6736 -0.662623 1.5
      vertex -3.25422 -1.28843 1.5
      vertex -3.06707 -1.68614 1.5
    endloop
  endfacet
  facet normal 0 0 1
    outer loop
      vertex -1.78581 0.225599 1.5
      vertex -3.4724 0.438665 1.5
      vertex -1.8 0 1.5
    endloop
  endfacet
  facet normal 0 0 1
    outer loop
      vertex -1.74345 -0.447641 1.5
      vertex -3.39004 -0.870414 1.5
      vertex -3.25422 -1.28843 1.5
    endloop
  endfacet
  facet normal 0 0 1
    outer loop
      vertex -3.5 0 1.5
      vertex -1.8 0 1.5
      vertex -3.4724 0.438665 1.5
    endloop
  endfacet
  facet normal 0 0 1
    outer loop
      vertex -1.78581 -0.225599 1.5
      vertex -3.4724 -0.438665 1.5
      vertex -3.39004 -0.870414 1.5
    endloop
  endfacet
  facet normal 0 0 1
    outer loop
      vertex -1.8 0 1.5
      vertex -3.5 0 1.5
      vertex -3.4724 -0.438665 1.5
    endloop
  endfacet
  facet normal -0.998027 -0.0627908 0
    outer loop
      vertex -7.44086 -0.939999 -3
      vertex -7.5 0 -1
      vertex -7.5 0 -3
    endloop
  endfacet
  facet normal -0.998027 -0.0627908 0
    outer loop
      vertex -7.5 0 -1
      vertex -7.44086 -0.939999 -3
      vertex -7.44086 -0.939999 -1
    endloop
  endfacet
  facet normal 0.684552 0.728964 -0
    outer loop
      vertex 5.46726 5.1341 -3
      vertex 4.78068 5.77885 -1
      vertex 5.46726 5.1341 -1
    endloop
  endfacet
  facet normal 0.684552 0.728964 0
    outer loop
      vertex 4.78068 5.77885 -1
      vertex 5.46726 5.1341 -3
      vertex 4.78068 5.77885 -3
    endloop
  endfacet
  facet normal -0.248689 0.968583 0
    outer loop
      vertex -1.40536 7.36715 -3
      vertex -2.31763 7.13292 -1
      vertex -1.40536 7.36715 -1
    endloop
  endfacet
  facet normal -0.248689 0.968583 0
    outer loop
      vertex -2.31763 7.13292 -1
      vertex -1.40536 7.36715 -3
      vertex -2.31763 7.13292 -3
    endloop
  endfacet
  facet normal 0.84433 0.535823 0
    outer loop
      vertex 6.5723 3.61315 -1
      vertex 6.06763 4.40839 -3
      vertex 6.06763 4.40839 -1
    endloop
  endfacet
  facet normal 0.84433 0.535823 0
    outer loop
      vertex 6.06763 4.40839 -3
      vertex 6.5723 3.61315 -1
      vertex 6.5723 3.61315 -3
    endloop
  endfacet
  facet normal 0.904829 0.425776 0
    outer loop
      vertex 6.97332 2.76093 -1
      vertex 6.5723 3.61315 -3
      vertex 6.5723 3.61315 -1
    endloop
  endfacet
  facet normal 0.904829 0.425776 0
    outer loop
      vertex 6.5723 3.61315 -3
      vertex 6.97332 2.76093 -1
      vertex 6.97332 2.76093 -3
    endloop
  endfacet
  facet normal 0 1 -0
    outer loop
      vertex 0.470928 7.4852 -3
      vertex -0.470928 7.4852 -1
      vertex 0.470928 7.4852 -1
    endloop
  endfacet
  facet normal 0 1 0
    outer loop
      vertex -0.470928 7.4852 -1
      vertex 0.470928 7.4852 -3
      vertex -0.470928 7.4852 -3
    endloop
  endfacet
  facet normal -0.481749 0.876309 0
    outer loop
      vertex -3.19334 6.7862 -3
      vertex -4.0187 6.33246 -1
      vertex -3.19334 6.7862 -1
    endloop
  endfacet
  facet normal -0.481749 0.876309 0
    outer loop
      vertex -4.0187 6.33246 -1
      vertex -3.19334 6.7862 -3
      vertex -4.0187 6.33246 -3
    endloop
  endfacet
  facet normal 0.998027 0.0627908 0
    outer loop
      vertex 7.5 0 -1
      vertex 7.44086 0.939999 -3
      vertex 7.44086 0.939999 -1
    endloop
  endfacet
  facet normal 0.998027 0.0627908 0
    outer loop
      vertex 7.44086 0.939999 -3
      vertex 7.5 0 -1
      vertex 7.5 0 -3
    endloop
  endfacet
  facet normal 0.125337 0.992114 -0
    outer loop
      vertex 1.40536 7.36715 -3
      vertex 0.470928 7.4852 -1
      vertex 1.40536 7.36715 -1
    endloop
  endfacet
  facet normal 0.125337 0.992114 0
    outer loop
      vertex 0.470928 7.4852 -1
      vertex 1.40536 7.36715 -3
      vertex 0.470928 7.4852 -3
    endloop
  endfacet
  facet normal -0.125337 0.992114 0
    outer loop
      vertex -0.470928 7.4852 -3
      vertex -1.40536 7.36715 -1
      vertex -0.470928 7.4852 -1
    endloop
  endfacet
  facet normal -0.125337 0.992114 0
    outer loop
      vertex -1.40536 7.36715 -1
      vertex -0.470928 7.4852 -3
      vertex -1.40536 7.36715 -3
    endloop
  endfacet
  facet normal -0.684552 -0.728964 0
    outer loop
      vertex -5.46726 -5.1341 -3
      vertex -4.78068 -5.77885 -1
      vertex -5.46726 -5.1341 -1
    endloop
  endfacet
  facet normal -0.684552 -0.728964 -0
    outer loop
      vertex -4.78068 -5.77885 -1
      vertex -5.46726 -5.1341 -3
      vertex -4.78068 -5.77885 -3
    endloop
  endfacet
  facet normal 0.982286 0.187386 0
    outer loop
      vertex 7.44086 0.939999 -1
      vertex 7.26437 1.86517 -3
      vertex 7.26437 1.86517 -1
    endloop
  endfacet
  facet normal 0.982286 0.187386 0
    outer loop
      vertex 7.26437 1.86517 -3
      vertex 7.44086 0.939999 -1
      vertex 7.44086 0.939999 -3
    endloop
  endfacet
  facet normal -0.951057 0.309017 0
    outer loop
      vertex -7.26437 1.86517 -3
      vertex -6.97332 2.76093 -1
      vertex -6.97332 2.76093 -3
    endloop
  endfacet
  facet normal -0.951057 0.309017 0
    outer loop
      vertex -6.97332 2.76093 -1
      vertex -7.26437 1.86517 -3
      vertex -7.26437 1.86517 -1
    endloop
  endfacet
  facet normal 0.481749 0.876309 -0
    outer loop
      vertex 4.0187 6.33246 -3
      vertex 3.19334 6.7862 -1
      vertex 4.0187 6.33246 -1
    endloop
  endfacet
  facet normal 0.481749 0.876309 0
    outer loop
      vertex 3.19334 6.7862 -1
      vertex 4.0187 6.33246 -3
      vertex 3.19334 6.7862 -3
    endloop
  endfacet
  facet normal 0.368126 -0.929776 0
    outer loop
      vertex 2.31763 -7.13292 -3
      vertex 3.19334 -6.7862 -1
      vertex 2.31763 -7.13292 -1
    endloop
  endfacet
  facet normal 0.368126 -0.929776 0
    outer loop
      vertex 3.19334 -6.7862 -1
      vertex 2.31763 -7.13292 -3
      vertex 3.19334 -6.7862 -3
    endloop
  endfacet
  facet normal 0.904829 -0.425776 0
    outer loop
      vertex 6.5723 -3.61315 -1
      vertex 6.97332 -2.76093 -3
      vertex 6.97332 -2.76093 -1
    endloop
  endfacet
  facet normal 0.904829 -0.425776 0
    outer loop
      vertex 6.97332 -2.76093 -3
      vertex 6.5723 -3.61315 -1
      vertex 6.5723 -3.61315 -3
    endloop
  endfacet
  facet normal -0.998027 0.0627908 0
    outer loop
      vertex -7.5 0 -3
      vertex -7.44086 0.939999 -1
      vertex -7.44086 0.939999 -3
    endloop
  endfacet
  facet normal -0.998027 0.0627908 0
    outer loop
      vertex -7.44086 0.939999 -1
      vertex -7.5 0 -3
      vertex -7.5 0 -1
    endloop
  endfacet
  facet normal -0.684552 0.728964 0
    outer loop
      vertex -4.78068 5.77885 -3
      vertex -5.46726 5.1341 -1
      vertex -4.78068 5.77885 -1
    endloop
  endfacet
  facet normal -0.684552 0.728964 0
    outer loop
      vertex -5.46726 5.1341 -1
      vertex -4.78068 5.77885 -3
      vertex -5.46726 5.1341 -3
    endloop
  endfacet
  facet normal 0.587785 -0.809017 0
    outer loop
      vertex 4.0187 -6.33246 -3
      vertex 4.78068 -5.77885 -1
      vertex 4.0187 -6.33246 -1
    endloop
  endfacet
  facet normal 0.587785 -0.809017 0
    outer loop
      vertex 4.78068 -5.77885 -1
      vertex 4.0187 -6.33246 -3
      vertex 4.78068 -5.77885 -3
    endloop
  endfacet
  facet normal -0.770508 -0.637431 0
    outer loop
      vertex -5.46726 -5.1341 -3
      vertex -6.06763 -4.40839 -1
      vertex -6.06763 -4.40839 -3
    endloop
  endfacet
  facet normal -0.770508 -0.637431 0
    outer loop
      vertex -6.06763 -4.40839 -1
      vertex -5.46726 -5.1341 -3
      vertex -5.46726 -5.1341 -1
    endloop
  endfacet
  facet normal 0.481749 -0.876309 0
    outer loop
      vertex 3.19334 -6.7862 -3
      vertex 4.0187 -6.33246 -1
      vertex 3.19334 -6.7862 -1
    endloop
  endfacet
  facet normal 0.481749 -0.876309 0
    outer loop
      vertex 4.0187 -6.33246 -1
      vertex 3.19334 -6.7862 -3
      vertex 4.0187 -6.33246 -3
    endloop
  endfacet
  facet normal 0.770508 0.637431 0
    outer loop
      vertex 6.06763 4.40839 -1
      vertex 5.46726 5.1341 -3
      vertex 5.46726 5.1341 -1
    endloop
  endfacet
  facet normal 0.770508 0.637431 0
    outer loop
      vertex 5.46726 5.1341 -3
      vertex 6.06763 4.40839 -1
      vertex 6.06763 4.40839 -3
    endloop
  endfacet
  facet normal 0.951057 0.309017 0
    outer loop
      vertex 7.26437 1.86517 -1
      vertex 6.97332 2.76093 -3
      vertex 6.97332 2.76093 -1
    endloop
  endfacet
  facet normal 0.951057 0.309017 0
    outer loop
      vertex 6.97332 2.76093 -3
      vertex 7.26437 1.86517 -1
      vertex 7.26437 1.86517 -3
    endloop
  endfacet
  facet normal 0.770508 -0.637431 0
    outer loop
      vertex 5.46726 -5.1341 -1
      vertex 6.06763 -4.40839 -3
      vertex 6.06763 -4.40839 -1
    endloop
  endfacet
  facet normal 0.770508 -0.637431 0
    outer loop
      vertex 6.06763 -4.40839 -3
      vertex 5.46726 -5.1341 -1
      vertex 5.46726 -5.1341 -3
    endloop
  endfacet
  facet normal 0.248689 -0.968583 0
    outer loop
      vertex 1.40536 -7.36715 -3
      vertex 2.31763 -7.13292 -1
      vertex 1.40536 -7.36715 -1
    endloop
  endfacet
  facet normal 0.248689 -0.968583 0
    outer loop
      vertex 2.31763 -7.13292 -1
      vertex 1.40536 -7.36715 -3
      vertex 2.31763 -7.13292 -3
    endloop
  endfacet
  facet normal 0.368126 0.929776 -0
    outer loop
      vertex 3.19334 6.7862 -3
      vertex 2.31763 7.13292 -1
      vertex 3.19334 6.7862 -1
    endloop
  endfacet
  facet normal 0.368126 0.929776 0
    outer loop
      vertex 2.31763 7.13292 -1
      vertex 3.19334 6.7862 -3
      vertex 2.31763 7.13292 -3
    endloop
  endfacet
  facet normal -0.587785 0.809017 0
    outer loop
      vertex -4.0187 6.33246 -3
      vertex -4.78068 5.77885 -1
      vertex -4.0187 6.33246 -1
    endloop
  endfacet
  facet normal -0.587785 0.809017 0
    outer loop
      vertex -4.78068 5.77885 -1
      vertex -4.0187 6.33246 -3
      vertex -4.78068 5.77885 -3
    endloop
  endfacet
  facet normal 0.998027 -0.0627908 0
    outer loop
      vertex 7.44086 -0.939999 -1
      vertex 7.5 0 -3
      vertex 7.5 0 -1
    endloop
  endfacet
  facet normal 0.998027 -0.0627908 0
    outer loop
      vertex 7.5 0 -3
      vertex 7.44086 -0.939999 -1
      vertex 7.44086 -0.939999 -3
    endloop
  endfacet
  facet normal 0.684552 -0.728964 0
    outer loop
      vertex 4.78068 -5.77885 -3
      vertex 5.46726 -5.1341 -1
      vertex 4.78068 -5.77885 -1
    endloop
  endfacet
  facet normal 0.684552 -0.728964 0
    outer loop
      vertex 5.46726 -5.1341 -1
      vertex 4.78068 -5.77885 -3
      vertex 5.46726 -5.1341 -3
    endloop
  endfacet
  facet normal -0.904829 0.425776 0
    outer loop
      vertex -6.97332 2.76093 -3
      vertex -6.5723 3.61315 -1
      vertex -6.5723 3.61315 -3
    endloop
  endfacet
  facet normal -0.904829 0.425776 0
    outer loop
      vertex -6.5723 3.61315 -1
      vertex -6.97332 2.76093 -3
      vertex -6.97332 2.76093 -1
    endloop
  endfacet
  facet normal 0.125337 -0.992114 0
    outer loop
      vertex 0.470928 -7.4852 -3
      vertex 1.40536 -7.36715 -1
      vertex 0.470928 -7.4852 -1
    endloop
  endfacet
  facet normal 0.125337 -0.992114 0
    outer loop
      vertex 1.40536 -7.36715 -1
      vertex 0.470928 -7.4852 -3
      vertex 1.40536 -7.36715 -3
    endloop
  endfacet
  facet normal 0.982286 -0.187386 0
    outer loop
      vertex 7.26437 -1.86517 -1
      vertex 7.44086 -0.939999 -3
      vertex 7.44086 -0.939999 -1
    endloop
  endfacet
  facet normal 0.982286 -0.187386 0
    outer loop
      vertex 7.44086 -0.939999 -3
      vertex 7.26437 -1.86517 -1
      vertex 7.26437 -1.86517 -3
    endloop
  endfacet
  facet normal -0.368126 -0.929776 0
    outer loop
      vertex -3.19334 -6.7862 -3
      vertex -2.31763 -7.13292 -1
      vertex -3.19334 -6.7862 -1
    endloop
  endfacet
  facet normal -0.368126 -0.929776 -0
    outer loop
      vertex -2.31763 -7.13292 -1
      vertex -3.19334 -6.7862 -3
      vertex -2.31763 -7.13292 -3
    endloop
  endfacet
  facet normal -0.587785 -0.809017 0
    outer loop
      vertex -4.78068 -5.77885 -3
      vertex -4.0187 -6.33246 -1
      vertex -4.78068 -5.77885 -1
    endloop
  endfacet
  facet normal -0.587785 -0.809017 -0
    outer loop
      vertex -4.0187 -6.33246 -1
      vertex -4.78068 -5.77885 -3
      vertex -4.0187 -6.33246 -3
    endloop
  endfacet
  facet normal -0.982286 -0.187386 0
    outer loop
      vertex -7.26437 -1.86517 -3
      vertex -7.44086 -0.939999 -1
      vertex -7.44086 -0.939999 -3
    endloop
  endfacet
  facet normal -0.982286 -0.187386 0
    outer loop
      vertex -7.44086 -0.939999 -1
      vertex -7.26437 -1.86517 -3
      vertex -7.26437 -1.86517 -1
    endloop
  endfacet
  facet normal 0.84433 -0.535823 0
    outer loop
      vertex 6.06763 -4.40839 -1
      vertex 6.5723 -3.61315 -3
      vertex 6.5723 -3.61315 -1
    endloop
  endfacet
  facet normal 0.84433 -0.535823 0
    outer loop
      vertex 6.5723 -3.61315 -3
      vertex 6.06763 -4.40839 -1
      vertex 6.06763 -4.40839 -3
    endloop
  endfacet
  facet normal 0.248689 0.968583 -0
    outer loop
      vertex 2.31763 7.13292 -3
      vertex 1.40536 7.36715 -1
      vertex 2.31763 7.13292 -1
    endloop
  endfacet
  facet normal 0.248689 0.968583 0
    outer loop
      vertex 1.40536 7.36715 -1
      vertex 2.31763 7.13292 -3
      vertex 1.40536 7.36715 -3
    endloop
  endfacet
  facet normal 0.587785 0.809017 -0
    outer loop
      vertex 4.78068 5.77885 -3
      vertex 4.0187 6.33246 -1
      vertex 4.78068 5.77885 -1
    endloop
  endfacet
  facet normal 0.587785 0.809017 0
    outer loop
      vertex 4.0187 6.33246 -1
      vertex 4.78068 5.77885 -3
      vertex 4.0187 6.33246 -3
    endloop
  endfacet
  facet normal -0.368126 0.929776 0
    outer loop
      vertex -2.31763 7.13292 -3
      vertex -3.19334 6.7862 -1
      vertex -2.31763 7.13292 -1
    endloop
  endfacet
  facet normal -0.368126 0.929776 0
    outer loop
      vertex -3.19334 6.7862 -1
      vertex -2.31763 7.13292 -3
      vertex -3.19334 6.7862 -3
    endloop
  endfacet
  facet normal 0 0 -1
    outer loop
      vertex 1.8 0 -3
      vertex 7.5 0 -3
      vertex 7.44086 -0.939999 -3
    endloop
  endfacet
  facet normal 0 0 -1
    outer loop
      vertex 1.78581 -0.225599 -3
      vertex 7.44086 -0.939999 -3
      vertex 7.26437 -1.86517 -3
    endloop
  endfacet
  facet normal 0 0 -1
    outer loop
      vertex 7.5 0 -3
      vertex 1.8 0 -3
      vertex 7.44086 0.939999 -3
    endloop
  endfacet
  facet normal 0 0 -1
    outer loop
      vertex 1.74345 -0.447641 -3
      vertex 7.26437 -1.86517 -3
      vertex 6.97332 -2.76093 -3
    endloop
  endfacet
  facet normal 0 0 -1
    outer loop
      vertex 1.78581 0.225599 -3
      vertex 7.44086 0.939999 -3
      vertex 1.8 0 -3
    endloop
  endfacet
  facet normal 0 0 -1
    outer loop
      vertex 1.6736 -0.662623 -3
      vertex 6.97332 -2.76093 -3
      vertex 6.5723 -3.61315 -3
    endloop
  endfacet
  facet normal -0 0 -1
    outer loop
      vertex 7.44086 0.939999 -3
      vertex 1.78581 0.225599 -3
      vertex 7.26437 1.86517 -3
    endloop
  endfacet
  facet normal 0 0 -1
    outer loop
      vertex 1.57735 -0.867156 -3
      vertex 6.5723 -3.61315 -3
      vertex 6.06763 -4.40839 -3
    endloop
  endfacet
  facet normal 0 0 -1
    outer loop
      vertex 1.74345 0.447641 -3
      vertex 7.26437 1.86517 -3
      vertex 1.78581 0.225599 -3
    endloop
  endfacet
  facet normal 0 0 -1
    outer loop
      vertex 1.45623 -1.05801 -3
      vertex 6.06763 -4.40839 -3
      vertex 5.46726 -5.1341 -3
    endloop
  endfacet
  facet normal -0 0 -1
    outer loop
      vertex 7.26437 1.86517 -3
      vertex 1.74345 0.447641 -3
      vertex 6.97332 2.76093 -3
    endloop
  endfacet
  facet normal 0 0 -1
    outer loop
      vertex 1.31214 -1.23218 -3
      vertex 5.46726 -5.1341 -3
      vertex 4.78068 -5.77885 -3
    endloop
  endfacet
  facet normal 0 0 -1
    outer loop
      vertex 1.6736 0.662623 -3
      vertex 6.97332 2.76093 -3
      vertex 1.74345 0.447641 -3
    endloop
  endfacet
  facet normal 0 0 -1
    outer loop
      vertex 1.14736 -1.38692 -3
      vertex 4.78068 -5.77885 -3
      vertex 4.0187 -6.33246 -3
    endloop
  endfacet
  facet normal -0 0 -1
    outer loop
      vertex 6.97332 2.76093 -3
      vertex 1.6736 0.662623 -3
      vertex 6.5723 3.61315 -3
    endloop
  endfacet
  facet normal 0 0 -1
    outer loop
      vertex 0.964488 -1.51979 -3
      vertex 4.0187 -6.33246 -3
      vertex 3.19334 -6.7862 -3
    endloop
  endfacet
  facet normal 0 0 -1
    outer loop
      vertex 1.57735 0.867156 -3
      vertex 6.5723 3.61315 -3
      vertex 1.6736 0.662623 -3
    endloop
  endfacet
  facet normal 0 0 -1
    outer loop
      vertex 0.766402 -1.62869 -3
      vertex 3.19334 -6.7862 -3
      vertex 2.31763 -7.13292 -3
    endloop
  endfacet
  facet normal -0 0 -1
    outer loop
      vertex 6.5723 3.61315 -3
      vertex 1.57735 0.867156 -3
      vertex 6.06763 4.40839 -3
    endloop
  endfacet
  facet normal 0 0 -1
    outer loop
      vertex 1.45623 1.05801 -3
      vertex 6.06763 4.40839 -3
      vertex 1.57735 0.867156 -3
    endloop
  endfacet
  facet normal 0 0 -1
    outer loop
      vertex 7.44086 -0.939999 -3
      vertex 1.78581 -0.225599 -3
      vertex 1.8 0 -3
    endloop
  endfacet
  facet normal 0 0 -1
    outer loop
      vertex 7.26437 -1.86517 -3
      vertex 1.74345 -0.447641 -3
      vertex 1.78581 -0.225599 -3
    endloop
  endfacet
  facet normal 0 0 -1
    outer loop
      vertex 6.97332 -2.76093 -3
      vertex 1.6736 -0.662623 -3
      vertex 1.74345 -0.447641 -3
    endloop
  endfacet
  facet normal 0 0 -1
    outer loop
      vertex 6.5723 -3.61315 -3
      vertex 1.57735 -0.867156 -3
      vertex 1.6736 -0.662623 -3
    endloop
  endfacet
  facet normal 0 0 -1
    outer loop
      vertex 6.06763 -4.40839 -3
      vertex 1.45623 -1.05801 -3
      vertex 1.57735 -0.867156 -3
    endloop
  endfacet
  facet normal 0 0 -1
    outer loop
      vertex 0.556231 -1.7119 -3
      vertex 2.31763 -7.13292 -3
      vertex 1.40536 -7.36715 -3
    endloop
  endfacet
  facet normal 0 0 -1
    outer loop
      vertex 5.46726 -5.1341 -3
      vertex 1.31214 -1.23218 -3
      vertex 1.45623 -1.05801 -3
    endloop
  endfacet
  facet normal 0 0 -1
    outer loop
      vertex 4.78068 -5.77885 -3
      vertex 1.14736 -1.38692 -3
      vertex 1.31214 -1.23218 -3
    endloop
  endfacet
  facet normal 0 0 -1
    outer loop
      vertex 4.0187 -6.33246 -3
      vertex 0.964488 -1.51979 -3
      vertex 1.14736 -1.38692 -3
    endloop
  endfacet
  facet normal 0 0 -1
    outer loop
      vertex 3.19334 -6.7862 -3
      vertex 0.766402 -1.62869 -3
      vertex 0.964488 -1.51979 -3
    endloop
  endfacet
  facet normal 0 0 -1
    outer loop
      vertex 2.31763 -7.13292 -3
      vertex 0.556231 -1.7119 -3
      vertex 0.766402 -1.62869 -3
    endloop
  endfacet
  facet normal 0 0 -1
    outer loop
      vertex 0.337286 -1.76812 -3
      vertex 1.40536 -7.36715 -3
      vertex 0.470928 -7.4852 -3
    endloop
  endfacet
  facet normal 0 0 -1
    outer loop
      vertex 1.40536 -7.36715 -3
      vertex 0.337286 -1.76812 -3
      vertex 0.556231 -1.7119 -3
    endloop
  endfacet
  facet normal 0 0 -1
    outer loop
      vertex 0.470928 -7.4852 -3
      vertex 0.113023 -1.79645 -3
      vertex 0.337286 -1.76812 -3
    endloop
  endfacet
  facet normal 0 0 -1
    outer loop
      vertex 0.470928 -7.4852 -3
      vertex -0.113023 -1.79645 -3
      vertex 0.113023 -1.79645 -3
    endloop
  endfacet
  facet normal 0 0 -1
    outer loop
      vertex -0.470928 -7.4852 -3
      vertex -0.113023 -1.79645 -3
      vertex 0.470928 -7.4852 -3
    endloop
  endfacet
  facet normal -0 0 -1
    outer loop
      vertex -0.113023 -1.79645 -3
      vertex -0.470928 -7.4852 -3
      vertex -0.337286 -1.76812 -3
    endloop
  endfacet
  facet normal 0 0 -1
    outer loop
      vertex -1.40536 -7.36715 -3
      vertex -0.337286 -1.76812 -3
      vertex -0.470928 -7.4852 -3
    endloop
  endfacet
  facet normal -0 0 -1
    outer loop
      vertex -0.337286 -1.76812 -3
      vertex -1.40536 -7.36715 -3
      vertex -0.556231 -1.7119 -3
    endloop
  endfacet
  facet normal 0 0 -1
    outer loop
      vertex -2.31763 -7.13292 -3
      vertex -0.556231 -1.7119 -3
      vertex -1.40536 -7.36715 -3
    endloop
  endfacet
  facet normal -0 0 -1
    outer loop
      vertex -0.556231 -1.7119 -3
      vertex -2.31763 -7.13292 -3
      vertex -0.766402 -1.62869 -3
    endloop
  endfacet
  facet normal 0 0 -1
    outer loop
      vertex -3.19334 -6.7862 -3
      vertex -0.766402 -1.62869 -3
      vertex -2.31763 -7.13292 -3
    endloop
  endfacet
  facet normal -0 0 -1
    outer loop
      vertex -0.766402 -1.62869 -3
      vertex -3.19334 -6.7862 -3
      vertex -0.964488 -1.51979 -3
    endloop
  endfacet
  facet normal 0 0 -1
    outer loop
      vertex -4.0187 -6.33246 -3
      vertex -0.964488 -1.51979 -3
      vertex -3.19334 -6.7862 -3
    endloop
  endfacet
  facet normal -0 0 -1
    outer loop
      vertex -0.964488 -1.51979 -3
      vertex -4.0187 -6.33246 -3
      vertex -1.14736 -1.38692 -3
    endloop
  endfacet
  facet normal 0 0 -1
    outer loop
      vertex -4.78068 -5.77885 -3
      vertex -1.14736 -1.38692 -3
      vertex -4.0187 -6.33246 -3
    endloop
  endfacet
  facet normal -0 0 -1
    outer loop
      vertex -1.14736 -1.38692 -3
      vertex -4.78068 -5.77885 -3
      vertex -1.31214 -1.23218 -3
    endloop
  endfacet
  facet normal 0 0 -1
    outer loop
      vertex -5.46726 -5.1341 -3
      vertex -1.31214 -1.23218 -3
      vertex -4.78068 -5.77885 -3
    endloop
  endfacet
  facet normal -0 0 -1
    outer loop
      vertex -1.31214 -1.23218 -3
      vertex -5.46726 -5.1341 -3
      vertex -1.45623 -1.05801 -3
    endloop
  endfacet
  facet normal 0 0 -1
    outer loop
      vertex -6.06763 -4.40839 -3
      vertex -1.45623 -1.05801 -3
      vertex -5.46726 -5.1341 -3
    endloop
  endfacet
  facet normal -0 0 -1
    outer loop
      vertex 6.06763 4.40839 -3
      vertex 1.45623 1.05801 -3
      vertex 5.46726 5.1341 -3
    endloop
  endfacet
  facet normal 0 0 -1
    outer loop
      vertex 1.31214 1.23218 -3
      vertex 5.46726 5.1341 -3
      vertex 1.45623 1.05801 -3
    endloop
  endfacet
  facet normal -0 0 -1
    outer loop
      vertex 5.46726 5.1341 -3
      vertex 1.31214 1.23218 -3
      vertex 4.78068 5.77885 -3
    endloop
  endfacet
  facet normal 0 0 -1
    outer loop
      vertex 1.14736 1.38692 -3
      vertex 4.78068 5.77885 -3
      vertex 1.31214 1.23218 -3
    endloop
  endfacet
  facet normal -0 0 -1
    outer loop
      vertex 4.78068 5.77885 -3
      vertex 1.14736 1.38692 -3
      vertex 4.0187 6.33246 -3
    endloop
  endfacet
  facet normal 0 0 -1
    outer loop
      vertex 0.964488 1.51979 -3
      vertex 4.0187 6.33246 -3
      vertex 1.14736 1.38692 -3
    endloop
  endfacet
  facet normal -0 0 -1
    outer loop
      vertex 4.0187 6.33246 -3
      vertex 0.964488 1.51979 -3
      vertex 3.19334 6.7862 -3
    endloop
  endfacet
  facet normal 0 0 -1
    outer loop
      vertex 0.766402 1.62869 -3
      vertex 3.19334 6.7862 -3
      vertex 0.964488 1.51979 -3
    endloop
  endfacet
  facet normal -0 0 -1
    outer loop
      vertex 3.19334 6.7862 -3
      vertex 0.766402 1.62869 -3
      vertex 2.31763 7.13292 -3
    endloop
  endfacet
  facet normal 0 0 -1
    outer loop
      vertex 0.556231 1.7119 -3
      vertex 2.31763 7.13292 -3
      vertex 0.766402 1.62869 -3
    endloop
  endfacet
  facet normal -0 0 -1
    outer loop
      vertex 2.31763 7.13292 -3
      vertex 0.556231 1.7119 -3
      vertex 1.40536 7.36715 -3
    endloop
  endfacet
  facet normal 0 0 -1
    outer loop
      vertex 0.337286 1.76812 -3
      vertex 1.40536 7.36715 -3
      vertex 0.556231 1.7119 -3
    endloop
  endfacet
  facet normal -0 0 -1
    outer loop
      vertex 1.40536 7.36715 -3
      vertex 0.337286 1.76812 -3
      vertex 0.470928 7.4852 -3
    endloop
  endfacet
  facet normal 0 0 -1
    outer loop
      vertex 0.113023 1.79645 -3
      vertex 0.470928 7.4852 -3
      vertex 0.337286 1.76812 -3
    endloop
  endfacet
  facet normal 0 0 -1
    outer loop
      vertex -0.113023 1.79645 -3
      vertex 0.470928 7.4852 -3
      vertex 0.113023 1.79645 -3
    endloop
  endfacet
  facet normal 0 0 -1
    outer loop
      vertex -0.470928 7.4852 -3
      vertex -0.113023 1.79645 -3
      vertex -0.337286 1.76812 -3
    endloop
  endfacet
  facet normal 0 0 -1
    outer loop
      vertex -0.113023 1.79645 -3
      vertex -0.470928 7.4852 -3
      vertex 0.470928 7.4852 -3
    endloop
  endfacet
  facet normal 0 0 -1
    outer loop
      vertex -1.40536 7.36715 -3
      vertex -0.337286 1.76812 -3
      vertex -0.556231 1.7119 -3
    endloop
  endfacet
  facet normal 0 0 -1
    outer loop
      vertex -2.31763 7.13292 -3
      vertex -0.556231 1.7119 -3
      vertex -0.766402 1.62869 -3
    endloop
  endfacet
  facet normal 0 0 -1
    outer loop
      vertex -3.19334 6.7862 -3
      vertex -0.766402 1.62869 -3
      vertex -0.964488 1.51979 -3
    endloop
  endfacet
  facet normal 0 0 -1
    outer loop
      vertex -4.0187 6.33246 -3
      vertex -0.964488 1.51979 -3
      vertex -1.14736 1.38692 -3
    endloop
  endfacet
  facet normal 0 0 -1
    outer loop
      vertex -4.78068 5.77885 -3
      vertex -1.14736 1.38692 -3
      vertex -1.31214 1.23218 -3
    endloop
  endfacet
  facet normal 0 0 -1
    outer loop
      vertex -0.337286 1.76812 -3
      vertex -1.40536 7.36715 -3
      vertex -0.470928 7.4852 -3
    endloop
  endfacet
  facet normal 0 0 -1
    outer loop
      vertex -5.46726 5.1341 -3
      vertex -1.31214 1.23218 -3
      vertex -1.45623 1.05801 -3
    endloop
  endfacet
  facet normal 0 0 -1
    outer loop
      vertex -6.06763 4.40839 -3
      vertex -1.45623 1.05801 -3
      vertex -1.57735 0.867156 -3
    endloop
  endfacet
  facet normal 0 0 -1
    outer loop
      vertex -6.5723 3.61315 -3
      vertex -1.57735 0.867156 -3
      vertex -1.6736 0.662623 -3
    endloop
  endfacet
  facet normal 0 0 -1
    outer loop
      vertex -6.97332 2.76093 -3
      vertex -1.6736 0.662623 -3
      vertex -1.74345 0.447641 -3
    endloop
  endfacet
  facet normal 0 0 -1
    outer loop
      vertex -7.26437 1.86517 -3
      vertex -1.74345 0.447641 -3
      vertex -1.78581 0.225599 -3
    endloop
  endfacet
  facet normal 0 0 -1
    outer loop
      vertex -7.44086 0.939999 -3
      vertex -1.78581 0.225599 -3
      vertex -1.8 0 -3
    endloop
  endfacet
  facet normal -0 0 -1
    outer loop
      vertex -1.45623 -1.05801 -3
      vertex -6.06763 -4.40839 -3
      vertex -1.57735 -0.867156 -3
    endloop
  endfacet
  facet normal 0 0 -1
    outer loop
      vertex -0.556231 1.7119 -3
      vertex -2.31763 7.13292 -3
      vertex -1.40536 7.36715 -3
    endloop
  endfacet
  facet normal 0 0 -1
    outer loop
      vertex -6.5723 -3.61315 -3
      vertex -1.57735 -0.867156 -3
      vertex -6.06763 -4.40839 -3
    endloop
  endfacet
  facet normal 0 0 -1
    outer loop
      vertex -0.766402 1.62869 -3
      vertex -3.19334 6.7862 -3
      vertex -2.31763 7.13292 -3
    endloop
  endfacet
  facet normal -0 0 -1
    outer loop
      vertex -1.57735 -0.867156 -3
      vertex -6.5723 -3.61315 -3
      vertex -1.6736 -0.662623 -3
    endloop
  endfacet
  facet normal 0 0 -1
    outer loop
      vertex -0.964488 1.51979 -3
      vertex -4.0187 6.33246 -3
      vertex -3.19334 6.7862 -3
    endloop
  endfacet
  facet normal 0 0 -1
    outer loop
      vertex -6.97332 -2.76093 -3
      vertex -1.6736 -0.662623 -3
      vertex -6.5723 -3.61315 -3
    endloop
  endfacet
  facet normal 0 0 -1
    outer loop
      vertex -1.14736 1.38692 -3
      vertex -4.78068 5.77885 -3
      vertex -4.0187 6.33246 -3
    endloop
  endfacet
  facet normal -0 0 -1
    outer loop
      vertex -1.6736 -0.662623 -3
      vertex -6.97332 -2.76093 -3
      vertex -1.74345 -0.447641 -3
    endloop
  endfacet
  facet normal 0 0 -1
    outer loop
      vertex -1.31214 1.23218 -3
      vertex -5.46726 5.1341 -3
      vertex -4.78068 5.77885 -3
    endloop
  endfacet
  facet normal 0 0 -1
    outer loop
      vertex -7.26437 -1.86517 -3
      vertex -1.74345 -0.447641 -3
      vertex -6.97332 -2.76093 -3
    endloop
  endfacet
  facet normal 0 0 -1
    outer loop
      vertex -1.45623 1.05801 -3
      vertex -6.06763 4.40839 -3
      vertex -5.46726 5.1341 -3
    endloop
  endfacet
  facet normal -0 0 -1
    outer loop
      vertex -1.74345 -0.447641 -3
      vertex -7.26437 -1.86517 -3
      vertex -1.78581 -0.225599 -3
    endloop
  endfacet
  facet normal 0 0 -1
    outer loop
      vertex -1.57735 0.867156 -3
      vertex -6.5723 3.61315 -3
      vertex -6.06763 4.40839 -3
    endloop
  endfacet
  facet normal 0 0 -1
    outer loop
      vertex -7.44086 -0.939999 -3
      vertex -1.78581 -0.225599 -3
      vertex -7.26437 -1.86517 -3
    endloop
  endfacet
  facet normal 0 0 -1
    outer loop
      vertex -1.6736 0.662623 -3
      vertex -6.97332 2.76093 -3
      vertex -6.5723 3.61315 -3
    endloop
  endfacet
  facet normal -0 0 -1
    outer loop
      vertex -1.78581 -0.225599 -3
      vertex -7.44086 -0.939999 -3
      vertex -1.8 0 -3
    endloop
  endfacet
  facet normal 0 0 -1
    outer loop
      vertex -1.74345 0.447641 -3
      vertex -7.26437 1.86517 -3
      vertex -6.97332 2.76093 -3
    endloop
  endfacet
  facet normal 0 0 -1
    outer loop
      vertex -7.5 0 -3
      vertex -1.8 0 -3
      vertex -7.44086 -0.939999 -3
    endloop
  endfacet
  facet normal 0 0 -1
    outer loop
      vertex -1.78581 0.225599 -3
      vertex -7.44086 0.939999 -3
      vertex -7.26437 1.86517 -3
    endloop
  endfacet
  facet normal 0 0 -1
    outer loop
      vertex -1.8 0 -3
      vertex -7.5 0 -3
      vertex -7.44086 0.939999 -3
    endloop
  endfacet
  facet normal -0.770508 0.637431 0
    outer loop
      vertex -6.06763 4.40839 -3
      vertex -5.46726 5.1341 -1
      vertex -5.46726 5.1341 -3
    endloop
  endfacet
  facet normal -0.770508 0.637431 0
    outer loop
      vertex -5.46726 5.1341 -1
      vertex -6.06763 4.40839 -3
      vertex -6.06763 4.40839 -1
    endloop
  endfacet
  facet normal -0.481749 -0.876309 0
    outer loop
      vertex -4.0187 -6.33246 -3
      vertex -3.19334 -6.7862 -1
      vertex -4.0187 -6.33246 -1
    endloop
  endfacet
  facet normal -0.481749 -0.876309 -0
    outer loop
      vertex -3.19334 -6.7862 -1
      vertex -4.0187 -6.33246 -3
      vertex -3.19334 -6.7862 -3
    endloop
  endfacet
  facet normal -0.982286 0.187386 0
    outer loop
      vertex -7.44086 0.939999 -3
      vertex -7.26437 1.86517 -1
      vertex -7.26437 1.86517 -3
    endloop
  endfacet
  facet normal -0.982286 0.187386 0
    outer loop
      vertex -7.26437 1.86517 -1
      vertex -7.44086 0.939999 -3
      vertex -7.44086 0.939999 -1
    endloop
  endfacet
  facet normal -0.125337 -0.992114 0
    outer loop
      vertex -1.40536 -7.36715 -3
      vertex -0.470928 -7.4852 -1
      vertex -1.40536 -7.36715 -1
    endloop
  endfacet
  facet normal -0.125337 -0.992114 -0
    outer loop
      vertex -0.470928 -7.4852 -1
      vertex -1.40536 -7.36715 -3
      vertex -0.470928 -7.4852 -3
    endloop
  endfacet
  facet normal 0 -1 0
    outer loop
      vertex -0.470928 -7.4852 -3
      vertex 0.470928 -7.4852 -1
      vertex -0.470928 -7.4852 -1
    endloop
  endfacet
  facet normal 0 -1 -0
    outer loop
      vertex 0.470928 -7.4852 -1
      vertex -0.470928 -7.4852 -3
      vertex 0.470928 -7.4852 -3
    endloop
  endfacet
  facet normal -0.84433 0.535823 0
    outer loop
      vertex -6.5723 3.61315 -3
      vertex -6.06763 4.40839 -1
      vertex -6.06763 4.40839 -3
    endloop
  endfacet
  facet normal -0.84433 0.535823 0
    outer loop
      vertex -6.06763 4.40839 -1
      vertex -6.5723 3.61315 -3
      vertex -6.5723 3.61315 -1
    endloop
  endfacet
  facet normal -0.248689 -0.968583 0
    outer loop
      vertex -2.31763 -7.13292 -3
      vertex -1.40536 -7.36715 -1
      vertex -2.31763 -7.13292 -1
    endloop
  endfacet
  facet normal -0.248689 -0.968583 -0
    outer loop
      vertex -1.40536 -7.36715 -1
      vertex -2.31763 -7.13292 -3
      vertex -1.40536 -7.36715 -3
    endloop
  endfacet
  facet normal 0.951057 -0.309017 0
    outer loop
      vertex 6.97332 -2.76093 -1
      vertex 7.26437 -1.86517 -3
      vertex 7.26437 -1.86517 -1
    endloop
  endfacet
  facet normal 0.951057 -0.309017 0
    outer loop
      vertex 7.26437 -1.86517 -3
      vertex 6.97332 -2.76093 -1
      vertex 6.97332 -2.76093 -3
    endloop
  endfacet
  facet normal -0.904829 -0.425776 0
    outer loop
      vertex -6.5723 -3.61315 -3
      vertex -6.97332 -2.76093 -1
      vertex -6.97332 -2.76093 -3
    endloop
  endfacet
  facet normal -0.904829 -0.425776 0
    outer loop
      vertex -6.97332 -2.76093 -1
      vertex -6.5723 -3.61315 -3
      vertex -6.5723 -3.61315 -1
    endloop
  endfacet
  facet normal -0.84433 -0.535823 0
    outer loop
      vertex -6.06763 -4.40839 -3
      vertex -6.5723 -3.61315 -1
      vertex -6.5723 -3.61315 -3
    endloop
  endfacet
  facet normal -0.84433 -0.535823 0
    outer loop
      vertex -6.5723 -3.61315 -1
      vertex -6.06763 -4.40839 -3
      vertex -6.06763 -4.40839 -1
    endloop
  endfacet
  facet normal -0.951057 -0.309017 0
    outer loop
      vertex -6.97332 -2.76093 -3
      vertex -7.26437 -1.86517 -1
      vertex -7.26437 -1.86517 -3
    endloop
  endfacet
  facet normal -0.951057 -0.309017 0
    outer loop
      vertex -7.26437 -1.86517 -1
      vertex -6.97332 -2.76093 -3
      vertex -6.97332 -2.76093 -1
    endloop
  endfacet
  facet normal 0 0 1
    outer loop
      vertex 3.5 0 -1
      vertex 7.5 0 -1
      vertex 7.44086 0.939999 -1
    endloop
  endfacet
  facet normal 0 0 1
    outer loop
      vertex 3.4724 0.438665 -1
      vertex 7.44086 0.939999 -1
      vertex 7.26437 1.86517 -1
    endloop
  endfacet
  facet normal 0 0 1
    outer loop
      vertex 7.5 0 -1
      vertex 3.5 0 -1
      vertex 7.44086 -0.939999 -1
    endloop
  endfacet
  facet normal 0 0 1
    outer loop
      vertex 3.39004 0.870414 -1
      vertex 7.26437 1.86517 -1
      vertex 6.97332 2.76093 -1
    endloop
  endfacet
  facet normal -0 0 1
    outer loop
      vertex 3.4724 -0.438665 -1
      vertex 7.44086 -0.939999 -1
      vertex 3.5 0 -1
    endloop
  endfacet
  facet normal 0 0 1
    outer loop
      vertex 3.25422 1.28843 -1
      vertex 6.97332 2.76093 -1
      vertex 6.5723 3.61315 -1
    endloop
  endfacet
  facet normal 0 0 1
    outer loop
      vertex 7.44086 -0.939999 -1
      vertex 3.4724 -0.438665 -1
      vertex 7.26437 -1.86517 -1
    endloop
  endfacet
  facet normal 0 0 1
    outer loop
      vertex 3.06707 1.68614 -1
      vertex 6.5723 3.61315 -1
      vertex 6.06763 4.40839 -1
    endloop
  endfacet
  facet normal -0 0 1
    outer loop
      vertex 3.39004 -0.870414 -1
      vertex 7.26437 -1.86517 -1
      vertex 3.4724 -0.438665 -1
    endloop
  endfacet
  facet normal 0 0 1
    outer loop
      vertex 2.83156 2.05725 -1
      vertex 6.06763 4.40839 -1
      vertex 5.46726 5.1341 -1
    endloop
  endfacet
  facet normal 0 0 1
    outer loop
      vertex 7.26437 -1.86517 -1
      vertex 3.39004 -0.870414 -1
      vertex 6.97332 -2.76093 -1
    endloop
  endfacet
  facet normal 0 0 1
    outer loop
      vertex 2.55139 2.39591 -1
      vertex 5.46726 5.1341 -1
      vertex 4.78068 5.77885 -1
    endloop
  endfacet
  facet normal -0 0 1
    outer loop
      vertex 3.25422 -1.28843 -1
      vertex 6.97332 -2.76093 -1
      vertex 3.39004 -0.870414 -1
    endloop
  endfacet
  facet normal 0 0 1
    outer loop
      vertex 2.23098 2.6968 -1
      vertex 4.78068 5.77885 -1
      vertex 4.0187 6.33246 -1
    endloop
  endfacet
  facet normal 0 0 1
    outer loop
      vertex 6.97332 -2.76093 -1
      vertex 3.25422 -1.28843 -1
      vertex 6.5723 -3.61315 -1
    endloop
  endfacet
  facet normal -0 0 1
    outer loop
      vertex 3.06707 -1.68614 -1
      vertex 6.5723 -3.61315 -1
      vertex 3.25422 -1.28843 -1
    endloop
  endfacet
  facet normal 0 0 1
    outer loop
      vertex 7.44086 0.939999 -1
      vertex 3.4724 0.438665 -1
      vertex 3.5 0 -1
    endloop
  endfacet
  facet normal 0 0 1
    outer loop
      vertex 7.26437 1.86517 -1
      vertex 3.39004 0.870414 -1
      vertex 3.4724 0.438665 -1
    endloop
  endfacet
  facet normal 0 0 1
    outer loop
      vertex 6.97332 2.76093 -1
      vertex 3.25422 1.28843 -1
      vertex 3.39004 0.870414 -1
    endloop
  endfacet
  facet normal 0 0 1
    outer loop
      vertex 1.87539 2.95515 -1
      vertex 4.0187 6.33246 -1
      vertex 3.19334 6.7862 -1
    endloop
  endfacet
  facet normal 0 0 1
    outer loop
      vertex 6.5723 3.61315 -1
      vertex 3.06707 1.68614 -1
      vertex 3.25422 1.28843 -1
    endloop
  endfacet
  facet normal 0 0 1
    outer loop
      vertex 6.06763 4.40839 -1
      vertex 2.83156 2.05725 -1
      vertex 3.06707 1.68614 -1
    endloop
  endfacet
  facet normal 0 0 1
    outer loop
      vertex 5.46726 5.1341 -1
      vertex 2.55139 2.39591 -1
      vertex 2.83156 2.05725 -1
    endloop
  endfacet
  facet normal 0 0 1
    outer loop
      vertex 1.49023 3.16689 -1
      vertex 3.19334 6.7862 -1
      vertex 2.31763 7.13292 -1
    endloop
  endfacet
  facet normal 0 0 1
    outer loop
      vertex 4.78068 5.77885 -1
      vertex 2.23098 2.6968 -1
      vertex 2.55139 2.39591 -1
    endloop
  endfacet
  facet normal 0 0 1
    outer loop
      vertex 4.0187 6.33246 -1
      vertex 1.87539 2.95515 -1
      vertex 2.23098 2.6968 -1
    endloop
  endfacet
  facet normal 0 0 1
    outer loop
      vertex 3.19334 6.7862 -1
      vertex 1.49023 3.16689 -1
      vertex 1.87539 2.95515 -1
    endloop
  endfacet
  facet normal 0 0 1
    outer loop
      vertex 1.08156 3.3287 -1
      vertex 2.31763 7.13292 -1
      vertex 1.40536 7.36715 -1
    endloop
  endfacet
  facet normal 0 0 1
    outer loop
      vertex 2.31763 7.13292 -1
      vertex 1.08156 3.3287 -1
      vertex 1.49023 3.16689 -1
    endloop
  endfacet
  facet normal 0 0 1
    outer loop
      vertex 1.40536 7.36715 -1
      vertex 0.655834 3.438 -1
      vertex 1.08156 3.3287 -1
    endloop
  endfacet
  facet normal 0 0 1
    outer loop
      vertex 0.470928 7.4852 -1
      vertex 0.655834 3.438 -1
      vertex 1.40536 7.36715 -1
    endloop
  endfacet
  facet normal 0 0 1
    outer loop
      vertex 0.470928 7.4852 -1
      vertex 0.219767 3.49309 -1
      vertex 0.655834 3.438 -1
    endloop
  endfacet
  facet normal 0 0 1
    outer loop
      vertex 0.470928 7.4852 -1
      vertex -0.219767 3.49309 -1
      vertex 0.219767 3.49309 -1
    endloop
  endfacet
  facet normal -0 0 1
    outer loop
      vertex -0.470928 7.4852 -1
      vertex -0.219767 3.49309 -1
      vertex 0.470928 7.4852 -1
    endloop
  endfacet
  facet normal 0 0 1
    outer loop
      vertex -0.470928 7.4852 -1
      vertex -0.655834 3.438 -1
      vertex -0.219767 3.49309 -1
    endloop
  endfacet
  facet normal -0 0 1
    outer loop
      vertex -1.40536 7.36715 -1
      vertex -0.655834 3.438 -1
      vertex -0.470928 7.4852 -1
    endloop
  endfacet
  facet normal 0 0 1
    outer loop
      vertex -0.655834 3.438 -1
      vertex -1.40536 7.36715 -1
      vertex -1.08156 3.3287 -1
    endloop
  endfacet
  facet normal -0 0 1
    outer loop
      vertex -2.31763 7.13292 -1
      vertex -1.08156 3.3287 -1
      vertex -1.40536 7.36715 -1
    endloop
  endfacet
  facet normal 0 0 1
    outer loop
      vertex -1.08156 3.3287 -1
      vertex -2.31763 7.13292 -1
      vertex -1.49023 3.16689 -1
    endloop
  endfacet
  facet normal -0 0 1
    outer loop
      vertex -3.19334 6.7862 -1
      vertex -1.49023 3.16689 -1
      vertex -2.31763 7.13292 -1
    endloop
  endfacet
  facet normal 0 0 1
    outer loop
      vertex -1.49023 3.16689 -1
      vertex -3.19334 6.7862 -1
      vertex -1.87539 2.95515 -1
    endloop
  endfacet
  facet normal -0 0 1
    outer loop
      vertex -4.0187 6.33246 -1
      vertex -1.87539 2.95515 -1
      vertex -3.19334 6.7862 -1
    endloop
  endfacet
  facet normal 0 0 1
    outer loop
      vertex -1.87539 2.95515 -1
      vertex -4.0187 6.33246 -1
      vertex -2.23098 2.6968 -1
    endloop
  endfacet
  facet normal -0 0 1
    outer loop
      vertex -4.78068 5.77885 -1
      vertex -2.23098 2.6968 -1
      vertex -4.0187 6.33246 -1
    endloop
  endfacet
  facet normal 0 0 1
    outer loop
      vertex -2.23098 2.6968 -1
      vertex -4.78068 5.77885 -1
      vertex -2.55139 2.39591 -1
    endloop
  endfacet
  facet normal -0 0 1
    outer loop
      vertex -5.46726 5.1341 -1
      vertex -2.55139 2.39591 -1
      vertex -4.78068 5.77885 -1
    endloop
  endfacet
  facet normal 0 0 1
    outer loop
      vertex -2.55139 2.39591 -1
      vertex -5.46726 5.1341 -1
      vertex -2.83156 2.05725 -1
    endloop
  endfacet
  facet normal -0 0 1
    outer loop
      vertex -6.06763 4.40839 -1
      vertex -2.83156 2.05725 -1
      vertex -5.46726 5.1341 -1
    endloop
  endfacet
  facet normal 0 0 1
    outer loop
      vertex -2.83156 2.05725 -1
      vertex -6.06763 4.40839 -1
      vertex -3.06707 1.68614 -1
    endloop
  endfacet
  facet normal -0 0 1
    outer loop
      vertex -6.5723 3.61315 -1
      vertex -3.06707 1.68614 -1
      vertex -6.06763 4.40839 -1
    endloop
  endfacet
  facet normal 0 0 1
    outer loop
      vertex 6.5723 -3.61315 -1
      vertex 3.06707 -1.68614 -1
      vertex 6.06763 -4.40839 -1
    endloop
  endfacet
  facet normal -0 0 1
    outer loop
      vertex 2.83156 -2.05725 -1
      vertex 6.06763 -4.40839 -1
      vertex 3.06707 -1.68614 -1
    endloop
  endfacet
  facet normal 0 0 1
    outer loop
      vertex 6.06763 -4.40839 -1
      vertex 2.83156 -2.05725 -1
      vertex 5.46726 -5.1341 -1
    endloop
  endfacet
  facet normal -0 0 1
    outer loop
      vertex 2.55139 -2.39591 -1
      vertex 5.46726 -5.1341 -1
      vertex 2.83156 -2.05725 -1
    endloop
  endfacet
  facet normal 0 0 1
    outer loop
      vertex 5.46726 -5.1341 -1
      vertex 2.55139 -2.39591 -1
      vertex 4.78068 -5.77885 -1
    endloop
  endfacet
  facet normal -0 0 1
    outer loop
      vertex 2.23098 -2.6968 -1
      vertex 4.78068 -5.77885 -1
      vertex 2.55139 -2.39591 -1
    endloop
  endfacet
  facet normal 0 0 1
    outer loop
      vertex 4.78068 -5.77885 -1
      vertex 2.23098 -2.6968 -1
      vertex 4.0187 -6.33246 -1
    endloop
  endfacet
  facet normal -0 0 1
    outer loop
      vertex 1.87539 -2.95515 -1
      vertex 4.0187 -6.33246 -1
      vertex 2.23098 -2.6968 -1
    endloop
  endfacet
  facet normal 0 0 1
    outer loop
      vertex 4.0187 -6.33246 -1
      vertex 1.87539 -2.95515 -1
      vertex 3.19334 -6.7862 -1
    endloop
  endfacet
  facet normal -0 0 1
    outer loop
      vertex 1.49023 -3.16689 -1
      vertex 3.19334 -6.7862 -1
      vertex 1.87539 -2.95515 -1
    endloop
  endfacet
  facet normal 0 0 1
    outer loop
      vertex 3.19334 -6.7862 -1
      vertex 1.49023 -3.16689 -1
      vertex 2.31763 -7.13292 -1
    endloop
  endfacet
  facet normal -0 0 1
    outer loop
      vertex 1.08156 -3.3287 -1
      vertex 2.31763 -7.13292 -1
      vertex 1.49023 -3.16689 -1
    endloop
  endfacet
  facet normal 0 0 1
    outer loop
      vertex 2.31763 -7.13292 -1
      vertex 1.08156 -3.3287 -1
      vertex 1.40536 -7.36715 -1
    endloop
  endfacet
  facet normal -0 0 1
    outer loop
      vertex 0.655834 -3.438 -1
      vertex 1.40536 -7.36715 -1
      vertex 1.08156 -3.3287 -1
    endloop
  endfacet
  facet normal 0 0 1
    outer loop
      vertex 0.655834 -3.438 -1
      vertex 0.470928 -7.4852 -1
      vertex 1.40536 -7.36715 -1
    endloop
  endfacet
  facet normal -0 0 1
    outer loop
      vertex 0.219767 -3.49309 -1
      vertex 0.470928 -7.4852 -1
      vertex 0.655834 -3.438 -1
    endloop
  endfacet
  facet normal -0 0 1
    outer loop
      vertex -0.219767 -3.49309 -1
      vertex 0.470928 -7.4852 -1
      vertex 0.219767 -3.49309 -1
    endloop
  endfacet
  facet normal 0 0 1
    outer loop
      vertex -0.219767 -3.49309 -1
      vertex -0.470928 -7.4852 -1
      vertex 0.470928 -7.4852 -1
    endloop
  endfacet
  facet normal 0 0 1
    outer loop
      vertex -0.655834 -3.438 -1
      vertex -0.470928 -7.4852 -1
      vertex -0.219767 -3.49309 -1
    endloop
  endfacet
  facet normal 0 0 1
    outer loop
      vertex -1.40536 -7.36715 -1
      vertex -0.655834 -3.438 -1
      vertex -1.08156 -3.3287 -1
    endloop
  endfacet
  facet normal 0 0 1
    outer loop
      vertex -0.655834 -3.438 -1
      vertex -1.40536 -7.36715 -1
      vertex -0.470928 -7.4852 -1
    endloop
  endfacet
  facet normal 0 0 1
    outer loop
      vertex -2.31763 -7.13292 -1
      vertex -1.08156 -3.3287 -1
      vertex -1.49023 -3.16689 -1
    endloop
  endfacet
  facet normal 0 0 1
    outer loop
      vertex -3.19334 -6.7862 -1
      vertex -1.49023 -3.16689 -1
      vertex -1.87539 -2.95515 -1
    endloop
  endfacet
  facet normal 0 0 1
    outer loop
      vertex -4.0187 -6.33246 -1
      vertex -1.87539 -2.95515 -1
      vertex -2.23098 -2.6968 -1
    endloop
  endfacet
  facet normal 0 0 1
    outer loop
      vertex -1.08156 -3.3287 -1
      vertex -2.31763 -7.13292 -1
      vertex -1.40536 -7.36715 -1
    endloop
  endfacet
  facet normal 0 0 1
    outer loop
      vertex -4.78068 -5.77885 -1
      vertex -2.23098 -2.6968 -1
      vertex -2.55139 -2.39591 -1
    endloop
  endfacet
  facet normal 0 0 1
    outer loop
      vertex -5.46726 -5.1341 -1
      vertex -2.55139 -2.39591 -1
      vertex -2.83156 -2.05725 -1
    endloop
  endfacet
  facet normal 0 0 1
    outer loop
      vertex -6.06763 -4.40839 -1
      vertex -2.83156 -2.05725 -1
      vertex -3.06707 -1.68614 -1
    endloop
  endfacet
  facet normal 0 0 1
    outer loop
      vertex -1.49023 -3.16689 -1
      vertex -3.19334 -6.7862 -1
      vertex -2.31763 -7.13292 -1
    endloop
  endfacet
  facet normal 0 0 1
    outer loop
      vertex -6.5723 -3.61315 -1
      vertex -3.06707 -1.68614 -1
      vertex -3.25422 -1.28843 -1
    endloop
  endfacet
  facet normal 0 0 1
    outer loop
      vertex -6.97332 -2.76093 -1
      vertex -3.25422 -1.28843 -1
      vertex -3.39004 -0.870414 -1
    endloop
  endfacet
  facet normal 0 0 1
    outer loop
      vertex -7.26437 -1.86517 -1
      vertex -3.39004 -0.870414 -1
      vertex -3.4724 -0.438665 -1
    endloop
  endfacet
  facet normal 0 0 1
    outer loop
      vertex -7.44086 -0.939999 -1
      vertex -3.4724 -0.438665 -1
      vertex -3.5 0 -1
    endloop
  endfacet
  facet normal 0 0 1
    outer loop
      vertex -3.06707 1.68614 -1
      vertex -6.5723 3.61315 -1
      vertex -3.25422 1.28843 -1
    endloop
  endfacet
  facet normal 0 0 1
    outer loop
      vertex -1.87539 -2.95515 -1
      vertex -4.0187 -6.33246 -1
      vertex -3.19334 -6.7862 -1
    endloop
  endfacet
  facet normal -0 0 1
    outer loop
      vertex -6.97332 2.76093 -1
      vertex -3.25422 1.28843 -1
      vertex -6.5723 3.61315 -1
    endloop
  endfacet
  facet normal 0 0 1
    outer loop
      vertex -2.23098 -2.6968 -1
      vertex -4.78068 -5.77885 -1
      vertex -4.0187 -6.33246 -1
    endloop
  endfacet
  facet normal 0 0 1
    outer loop
      vertex -3.25422 1.28843 -1
      vertex -6.97332 2.76093 -1
      vertex -3.39004 0.870414 -1
    endloop
  endfacet
  facet normal 0 0 1
    outer loop
      vertex -2.55139 -2.39591 -1
      vertex -5.46726 -5.1341 -1
      vertex -4.78068 -5.77885 -1
    endloop
  endfacet
  facet normal -0 0 1
    outer loop
      vertex -7.26437 1.86517 -1
      vertex -3.39004 0.870414 -1
      vertex -6.97332 2.76093 -1
    endloop
  endfacet
  facet normal 0 0 1
    outer loop
      vertex -2.83156 -2.05725 -1
      vertex -6.06763 -4.40839 -1
      vertex -5.46726 -5.1341 -1
    endloop
  endfacet
  facet normal 0 0 1
    outer loop
      vertex -3.39004 0.870414 -1
      vertex -7.26437 1.86517 -1
      vertex -3.4724 0.438665 -1
    endloop
  endfacet
  facet normal 0 0 1
    outer loop
      vertex -3.06707 -1.68614 -1
      vertex -6.5723 -3.61315 -1
      vertex -6.06763 -4.40839 -1
    endloop
  endfacet
  facet normal -0 0 1
    outer loop
      vertex -7.44086 0.939999 -1
      vertex -3.4724 0.438665 -1
      vertex -7.26437 1.86517 -1
    endloop
  endfacet
  facet normal 0 0 1
    outer loop
      vertex -3.25422 -1.28843 -1
      vertex -6.97332 -2.76093 -1
      vertex -6.5723 -3.61315 -1
    endloop
  endfacet
  facet normal 0 0 1
    outer loop
      vertex -3.4724 0.438665 -1
      vertex -7.44086 0.939999 -1
      vertex -3.5 0 -1
    endloop
  endfacet
  facet normal 0 0 1
    outer loop
      vertex -3.39004 -0.870414 -1
      vertex -7.26437 -1.86517 -1
      vertex -6.97332 -2.76093 -1
    endloop
  endfacet
  facet normal 0 0 1
    outer loop
      vertex -7.5 0 -1
      vertex -3.5 0 -1
      vertex -7.44086 0.939999 -1
    endloop
  endfacet
  facet normal 0 0 1
    outer loop
      vertex -3.4724 -0.438665 -1
      vertex -7.44086 -0.939999 -1
      vertex -7.26437 -1.86517 -1
    endloop
  endfacet
  facet normal 0 0 1
    outer loop
      vertex -3.5 0 -1
      vertex -7.5 0 -1
      vertex -7.44086 -0.939999 -1
    endloop
  endfacet
  facet normal -0.982285 -0.187395 0
    outer loop
      vertex 1.78581 0.225599 -3
      vertex 1.74345 0.447641 1.5
      vertex 1.74345 0.447641 -3
    endloop
  endfacet
  facet normal -0.982285 -0.187395 0
    outer loop
      vertex 1.74345 0.447641 1.5
      vertex 1.78581 0.225599 -3
      vertex 1.78581 0.225599 1.5
    endloop
  endfacet
  facet normal -0.998028 -0.0627752 0
    outer loop
      vertex 1.8 0 -3
      vertex 1.78581 0.225599 1.5
      vertex 1.78581 0.225599 -3
    endloop
  endfacet
  facet normal -0.998028 -0.0627752 0
    outer loop
      vertex 1.78581 0.225599 1.5
      vertex 1.8 0 -3
      vertex 1.8 0 1.5
    endloop
  endfacet
  facet normal 0.770504 -0.637435 0
    outer loop
      vertex -1.45623 1.05801 1.5
      vertex -1.31214 1.23218 -3
      vertex -1.31214 1.23218 1.5
    endloop
  endfacet
  facet normal 0.770504 -0.637435 0
    outer loop
      vertex -1.31214 1.23218 -3
      vertex -1.45623 1.05801 1.5
      vertex -1.45623 1.05801 -3
    endloop
  endfacet
  facet normal -0.68455 -0.728966 0
    outer loop
      vertex 1.14736 1.38692 -3
      vertex 1.31214 1.23218 1.5
      vertex 1.14736 1.38692 1.5
    endloop
  endfacet
  facet normal -0.68455 -0.728966 -0
    outer loop
      vertex 1.31214 1.23218 1.5
      vertex 1.14736 1.38692 -3
      vertex 1.31214 1.23218 -3
    endloop
  endfacet
  facet normal 0.125329 0.992115 -0
    outer loop
      vertex -0.113023 -1.79645 -3
      vertex -0.337286 -1.76812 1.5
      vertex -0.113023 -1.79645 1.5
    endloop
  endfacet
  facet normal 0.125329 0.992115 0
    outer loop
      vertex -0.337286 -1.76812 1.5
      vertex -0.113023 -1.79645 -3
      vertex -0.337286 -1.76812 -3
    endloop
  endfacet
  facet normal 0.587802 0.809005 -0
    outer loop
      vertex -0.964488 -1.51979 -3
      vertex -1.14736 -1.38692 1.5
      vertex -0.964488 -1.51979 1.5
    endloop
  endfacet
  facet normal 0.587802 0.809005 0
    outer loop
      vertex -1.14736 -1.38692 1.5
      vertex -0.964488 -1.51979 -3
      vertex -1.14736 -1.38692 -3
    endloop
  endfacet
  facet normal -0.368115 0.92978 0
    outer loop
      vertex 0.766402 -1.62869 -3
      vertex 0.556231 -1.7119 1.5
      vertex 0.766402 -1.62869 1.5
    endloop
  endfacet
  facet normal -0.368115 0.92978 0
    outer loop
      vertex 0.556231 -1.7119 1.5
      vertex 0.766402 -1.62869 -3
      vertex 0.556231 -1.7119 -3
    endloop
  endfacet
  facet normal -0.90482 0.425794 0
    outer loop
      vertex 1.57735 -0.867156 -3
      vertex 1.6736 -0.662623 1.5
      vertex 1.6736 -0.662623 -3
    endloop
  endfacet
  facet normal -0.90482 0.425794 0
    outer loop
      vertex 1.6736 -0.662623 1.5
      vertex 1.57735 -0.867156 -3
      vertex 1.57735 -0.867156 1.5
    endloop
  endfacet
  facet normal -0.248708 -0.968578 0
    outer loop
      vertex 0.337286 1.76812 -3
      vertex 0.556231 1.7119 1.5
      vertex 0.337286 1.76812 1.5
    endloop
  endfacet
  facet normal -0.248708 -0.968578 -0
    outer loop
      vertex 0.556231 1.7119 1.5
      vertex 0.337286 1.76812 -3
      vertex 0.556231 1.7119 -3
    endloop
  endfacet
  facet normal -0.587802 0.809005 0
    outer loop
      vertex 1.14736 -1.38692 -3
      vertex 0.964488 -1.51979 1.5
      vertex 1.14736 -1.38692 1.5
    endloop
  endfacet
  facet normal -0.587802 0.809005 0
    outer loop
      vertex 0.964488 -1.51979 1.5
      vertex 1.14736 -1.38692 -3
      vertex 0.964488 -1.51979 -3
    endloop
  endfacet
  facet normal 0.982285 -0.187395 0
    outer loop
      vertex -1.78581 0.225599 1.5
      vertex -1.74345 0.447641 -3
      vertex -1.74345 0.447641 1.5
    endloop
  endfacet
  facet normal 0.982285 -0.187395 0
    outer loop
      vertex -1.74345 0.447641 -3
      vertex -1.78581 0.225599 1.5
      vertex -1.78581 0.225599 -3
    endloop
  endfacet
  facet normal 0.68455 0.728966 -0
    outer loop
      vertex -1.14736 -1.38692 -3
      vertex -1.31214 -1.23218 1.5
      vertex -1.14736 -1.38692 1.5
    endloop
  endfacet
  facet normal 0.68455 0.728966 0
    outer loop
      vertex -1.31214 -1.23218 1.5
      vertex -1.14736 -1.38692 -3
      vertex -1.31214 -1.23218 -3
    endloop
  endfacet
  facet normal -0.481758 -0.876304 0
    outer loop
      vertex 0.766402 1.62869 -3
      vertex 0.964488 1.51979 1.5
      vertex 0.766402 1.62869 1.5
    endloop
  endfacet
  facet normal -0.481758 -0.876304 -0
    outer loop
      vertex 0.964488 1.51979 1.5
      vertex 0.766402 1.62869 -3
      vertex 0.964488 1.51979 -3
    endloop
  endfacet
  facet normal 0.481758 -0.876304 0
    outer loop
      vertex -0.964488 1.51979 -3
      vertex -0.766402 1.62869 1.5
      vertex -0.964488 1.51979 1.5
    endloop
  endfacet
  facet normal 0.481758 -0.876304 0
    outer loop
      vertex -0.766402 1.62869 1.5
      vertex -0.964488 1.51979 -3
      vertex -0.766402 1.62869 -3
    endloop
  endfacet
  facet normal -0.90482 -0.425794 0
    outer loop
      vertex 1.6736 0.662623 -3
      vertex 1.57735 0.867156 1.5
      vertex 1.57735 0.867156 -3
    endloop
  endfacet
  facet normal -0.90482 -0.425794 0
    outer loop
      vertex 1.57735 0.867156 1.5
      vertex 1.6736 0.662623 -3
      vertex 1.6736 0.662623 1.5
    endloop
  endfacet
  facet normal -0.998028 0.0627752 0
    outer loop
      vertex 1.78581 -0.225599 -3
      vertex 1.8 0 1.5
      vertex 1.8 0 -3
    endloop
  endfacet
  facet normal -0.998028 0.0627752 0
    outer loop
      vertex 1.8 0 1.5
      vertex 1.78581 -0.225599 -3
      vertex 1.78581 -0.225599 1.5
    endloop
  endfacet
  facet normal 0.998028 -0.0627752 0
    outer loop
      vertex -1.8 0 1.5
      vertex -1.78581 0.225599 -3
      vertex -1.78581 0.225599 1.5
    endloop
  endfacet
  facet normal 0.998028 -0.0627752 0
    outer loop
      vertex -1.78581 0.225599 -3
      vertex -1.8 0 1.5
      vertex -1.8 0 -3
    endloop
  endfacet
  facet normal -0.125329 0.992115 0
    outer loop
      vertex 0.337286 -1.76812 -3
      vertex 0.113023 -1.79645 1.5
      vertex 0.337286 -1.76812 1.5
    endloop
  endfacet
  facet normal -0.125329 0.992115 0
    outer loop
      vertex 0.113023 -1.79645 1.5
      vertex 0.337286 -1.76812 -3
      vertex 0.113023 -1.79645 -3
    endloop
  endfacet
  facet normal 0.951059 -0.309009 0
    outer loop
      vertex -1.74345 0.447641 1.5
      vertex -1.6736 0.662623 -3
      vertex -1.6736 0.662623 1.5
    endloop
  endfacet
  facet normal 0.951059 -0.309009 0
    outer loop
      vertex -1.6736 0.662623 -3
      vertex -1.74345 0.447641 1.5
      vertex -1.74345 0.447641 -3
    endloop
  endfacet
  facet normal -0.844327 -0.535828 0
    outer loop
      vertex 1.57735 0.867156 -3
      vertex 1.45623 1.05801 1.5
      vertex 1.45623 1.05801 -3
    endloop
  endfacet
  facet normal -0.844327 -0.535828 0
    outer loop
      vertex 1.45623 1.05801 1.5
      vertex 1.57735 0.867156 -3
      vertex 1.57735 0.867156 1.5
    endloop
  endfacet
  facet normal -0.951059 0.309009 0
    outer loop
      vertex 1.6736 -0.662623 -3
      vertex 1.74345 -0.447641 1.5
      vertex 1.74345 -0.447641 -3
    endloop
  endfacet
  facet normal -0.951059 0.309009 0
    outer loop
      vertex 1.74345 -0.447641 1.5
      vertex 1.6736 -0.662623 -3
      vertex 1.6736 -0.662623 1.5
    endloop
  endfacet
  facet normal 0.68455 -0.728966 0
    outer loop
      vertex -1.31214 1.23218 -3
      vertex -1.14736 1.38692 1.5
      vertex -1.31214 1.23218 1.5
    endloop
  endfacet
  facet normal 0.68455 -0.728966 0
    outer loop
      vertex -1.14736 1.38692 1.5
      vertex -1.31214 1.23218 -3
      vertex -1.14736 1.38692 -3
    endloop
  endfacet
  facet normal 0.248708 0.968578 -0
    outer loop
      vertex -0.337286 -1.76812 -3
      vertex -0.556231 -1.7119 1.5
      vertex -0.337286 -1.76812 1.5
    endloop
  endfacet
  facet normal 0.248708 0.968578 0
    outer loop
      vertex -0.556231 -1.7119 1.5
      vertex -0.337286 -1.76812 -3
      vertex -0.556231 -1.7119 -3
    endloop
  endfacet
  facet normal -0.248708 0.968578 0
    outer loop
      vertex 0.556231 -1.7119 -3
      vertex 0.337286 -1.76812 1.5
      vertex 0.556231 -1.7119 1.5
    endloop
  endfacet
  facet normal -0.248708 0.968578 0
    outer loop
      vertex 0.337286 -1.76812 1.5
      vertex 0.556231 -1.7119 -3
      vertex 0.337286 -1.76812 -3
    endloop
  endfacet
  facet normal -0.125329 -0.992115 0
    outer loop
      vertex 0.113023 1.79645 -3
      vertex 0.337286 1.76812 1.5
      vertex 0.113023 1.79645 1.5
    endloop
  endfacet
  facet normal -0.125329 -0.992115 -0
    outer loop
      vertex 0.337286 1.76812 1.5
      vertex 0.113023 1.79645 -3
      vertex 0.337286 1.76812 -3
    endloop
  endfacet
  facet normal -0.982285 0.187395 0
    outer loop
      vertex 1.74345 -0.447641 -3
      vertex 1.78581 -0.225599 1.5
      vertex 1.78581 -0.225599 -3
    endloop
  endfacet
  facet normal -0.982285 0.187395 0
    outer loop
      vertex 1.78581 -0.225599 1.5
      vertex 1.74345 -0.447641 -3
      vertex 1.74345 -0.447641 1.5
    endloop
  endfacet
  facet normal 0.982285 0.187395 0
    outer loop
      vertex -1.74345 -0.447641 1.5
      vertex -1.78581 -0.225599 -3
      vertex -1.78581 -0.225599 1.5
    endloop
  endfacet
  facet normal 0.982285 0.187395 0
    outer loop
      vertex -1.78581 -0.225599 -3
      vertex -1.74345 -0.447641 1.5
      vertex -1.74345 -0.447641 -3
    endloop
  endfacet
  facet normal 0 1 -0
    outer loop
      vertex 0.113023 -1.79645 -3
      vertex -0.113023 -1.79645 1.5
      vertex 0.113023 -1.79645 1.5
    endloop
  endfacet
  facet normal 0 1 0
    outer loop
      vertex -0.113023 -1.79645 1.5
      vertex 0.113023 -1.79645 -3
      vertex -0.113023 -1.79645 -3
    endloop
  endfacet
  facet normal -0.587802 -0.809005 0
    outer loop
      vertex 0.964488 1.51979 -3
      vertex 1.14736 1.38692 1.5
      vertex 0.964488 1.51979 1.5
    endloop
  endfacet
  facet normal -0.587802 -0.809005 -0
    outer loop
      vertex 1.14736 1.38692 1.5
      vertex 0.964488 1.51979 -3
      vertex 1.14736 1.38692 -3
    endloop
  endfacet
  facet normal -0.481758 0.876304 0
    outer loop
      vertex 0.964488 -1.51979 -3
      vertex 0.766402 -1.62869 1.5
      vertex 0.964488 -1.51979 1.5
    endloop
  endfacet
  facet normal -0.481758 0.876304 0
    outer loop
      vertex 0.766402 -1.62869 1.5
      vertex 0.964488 -1.51979 -3
      vertex 0.766402 -1.62869 -3
    endloop
  endfacet
  facet normal 0.368115 -0.92978 0
    outer loop
      vertex -0.766402 1.62869 -3
      vertex -0.556231 1.7119 1.5
      vertex -0.766402 1.62869 1.5
    endloop
  endfacet
  facet normal 0.368115 -0.92978 0
    outer loop
      vertex -0.556231 1.7119 1.5
      vertex -0.766402 1.62869 -3
      vertex -0.556231 1.7119 -3
    endloop
  endfacet
  facet normal 0.90482 -0.425794 0
    outer loop
      vertex -1.6736 0.662623 1.5
      vertex -1.57735 0.867156 -3
      vertex -1.57735 0.867156 1.5
    endloop
  endfacet
  facet normal 0.90482 -0.425794 0
    outer loop
      vertex -1.57735 0.867156 -3
      vertex -1.6736 0.662623 1.5
      vertex -1.6736 0.662623 -3
    endloop
  endfacet
  facet normal -0.68455 0.728966 0
    outer loop
      vertex 1.31214 -1.23218 -3
      vertex 1.14736 -1.38692 1.5
      vertex 1.31214 -1.23218 1.5
    endloop
  endfacet
  facet normal -0.68455 0.728966 0
    outer loop
      vertex 1.14736 -1.38692 1.5
      vertex 1.31214 -1.23218 -3
      vertex 1.14736 -1.38692 -3
    endloop
  endfacet
  facet normal 0.587802 -0.809005 0
    outer loop
      vertex -1.14736 1.38692 -3
      vertex -0.964488 1.51979 1.5
      vertex -1.14736 1.38692 1.5
    endloop
  endfacet
  facet normal 0.587802 -0.809005 0
    outer loop
      vertex -0.964488 1.51979 1.5
      vertex -1.14736 1.38692 -3
      vertex -0.964488 1.51979 -3
    endloop
  endfacet
  facet normal -0.368115 -0.92978 0
    outer loop
      vertex 0.556231 1.7119 -3
      vertex 0.766402 1.62869 1.5
      vertex 0.556231 1.7119 1.5
    endloop
  endfacet
  facet normal -0.368115 -0.92978 -0
    outer loop
      vertex 0.766402 1.62869 1.5
      vertex 0.556231 1.7119 -3
      vertex 0.766402 1.62869 -3
    endloop
  endfacet
  facet normal 0.90482 0.425794 0
    outer loop
      vertex -1.57735 -0.867156 1.5
      vertex -1.6736 -0.662623 -3
      vertex -1.6736 -0.662623 1.5
    endloop
  endfacet
  facet normal 0.90482 0.425794 0
    outer loop
      vertex -1.6736 -0.662623 -3
      vertex -1.57735 -0.867156 1.5
      vertex -1.57735 -0.867156 -3
    endloop
  endfacet
  facet normal 0.770504 0.637435 0
    outer loop
      vertex -1.31214 -1.23218 1.5
      vertex -1.45623 -1.05801 -3
      vertex -1.45623 -1.05801 1.5
    endloop
  endfacet
  facet normal 0.770504 0.637435 0
    outer loop
      vertex -1.45623 -1.05801 -3
      vertex -1.31214 -1.23218 1.5
      vertex -1.31214 -1.23218 -3
    endloop
  endfacet
  facet normal -0.844327 0.535828 0
    outer loop
      vertex 1.45623 -1.05801 -3
      vertex 1.57735 -0.867156 1.5
      vertex 1.57735 -0.867156 -3
    endloop
  endfacet
  facet normal -0.844327 0.535828 0
    outer loop
      vertex 1.57735 -0.867156 1.5
      vertex 1.45623 -1.05801 -3
      vertex 1.45623 -1.05801 1.5
    endloop
  endfacet
  facet normal -0.770504 -0.637435 0
    outer loop
      vertex 1.45623 1.05801 -3
      vertex 1.31214 1.23218 1.5
      vertex 1.31214 1.23218 -3
    endloop
  endfacet
  facet normal -0.770504 -0.637435 0
    outer loop
      vertex 1.31214 1.23218 1.5
      vertex 1.45623 1.05801 -3
      vertex 1.45623 1.05801 1.5
    endloop
  endfacet
  facet normal -0.951059 -0.309009 0
    outer loop
      vertex 1.74345 0.447641 -3
      vertex 1.6736 0.662623 1.5
      vertex 1.6736 0.662623 -3
    endloop
  endfacet
  facet normal -0.951059 -0.309009 0
    outer loop
      vertex 1.6736 0.662623 1.5
      vertex 1.74345 0.447641 -3
      vertex 1.74345 0.447641 1.5
    endloop
  endfacet
  facet normal 0.248708 -0.968578 0
    outer loop
      vertex -0.556231 1.7119 -3
      vertex -0.337286 1.76812 1.5
      vertex -0.556231 1.7119 1.5
    endloop
  endfacet
  facet normal 0.248708 -0.968578 0
    outer loop
      vertex -0.337286 1.76812 1.5
      vertex -0.556231 1.7119 -3
      vertex -0.337286 1.76812 -3
    endloop
  endfacet
  facet normal 0.844327 0.535828 0
    outer loop
      vertex -1.45623 -1.05801 1.5
      vertex -1.57735 -0.867156 -3
      vertex -1.57735 -0.867156 1.5
    endloop
  endfacet
  facet normal 0.844327 0.535828 0
    outer loop
      vertex -1.57735 -0.867156 -3
      vertex -1.45623 -1.05801 1.5
      vertex -1.45623 -1.05801 -3
    endloop
  endfacet
  facet normal 0.368115 0.92978 -0
    outer loop
      vertex -0.556231 -1.7119 -3
      vertex -0.766402 -1.62869 1.5
      vertex -0.556231 -1.7119 1.5
    endloop
  endfacet
  facet normal 0.368115 0.92978 0
    outer loop
      vertex -0.766402 -1.62869 1.5
      vertex -0.556231 -1.7119 -3
      vertex -0.766402 -1.62869 -3
    endloop
  endfacet
  facet normal 0 -1 0
    outer loop
      vertex -0.113023 1.79645 -3
      vertex 0.113023 1.79645 1.5
      vertex -0.113023 1.79645 1.5
    endloop
  endfacet
  facet normal 0 -1 -0
    outer loop
      vertex 0.113023 1.79645 1.5
      vertex -0.113023 1.79645 -3
      vertex 0.113023 1.79645 -3
    endloop
  endfacet
  facet normal 0.998028 0.0627752 0
    outer loop
      vertex -1.78581 -0.225599 1.5
      vertex -1.8 0 -3
      vertex -1.8 0 1.5
    endloop
  endfacet
  facet normal 0.998028 0.0627752 0
    outer loop
      vertex -1.8 0 -3
      vertex -1.78581 -0.225599 1.5
      vertex -1.78581 -0.225599 -3
    endloop
  endfacet
  facet normal 0.125329 -0.992115 0
    outer loop
      vertex -0.337286 1.76812 -3
      vertex -0.113023 1.79645 1.5
      vertex -0.337286 1.76812 1.5
    endloop
  endfacet
  facet normal 0.125329 -0.992115 0
    outer loop
      vertex -0.113023 1.79645 1.5
      vertex -0.337286 1.76812 -3
      vertex -0.113023 1.79645 -3
    endloop
  endfacet
  facet normal 0.481758 0.876304 -0
    outer loop
      vertex -0.766402 -1.62869 -3
      vertex -0.964488 -1.51979 1.5
      vertex -0.766402 -1.62869 1.5
    endloop
  endfacet
  facet normal 0.481758 0.876304 0
    outer loop
      vertex -0.964488 -1.51979 1.5
      vertex -0.766402 -1.62869 -3
      vertex -0.964488 -1.51979 -3
    endloop
  endfacet
  facet normal 0.844327 -0.535828 0
    outer loop
      vertex -1.57735 0.867156 1.5
      vertex -1.45623 1.05801 -3
      vertex -1.45623 1.05801 1.5
    endloop
  endfacet
  facet normal 0.844327 -0.535828 0
    outer loop
      vertex -1.45623 1.05801 -3
      vertex -1.57735 0.867156 1.5
      vertex -1.57735 0.867156 -3
    endloop
  endfacet
  facet normal 0.951059 0.309009 0
    outer loop
      vertex -1.6736 -0.662623 1.5
      vertex -1.74345 -0.447641 -3
      vertex -1.74345 -0.447641 1.5
    endloop
  endfacet
  facet normal 0.951059 0.309009 0
    outer loop
      vertex -1.74345 -0.447641 -3
      vertex -1.6736 -0.662623 1.5
      vertex -1.6736 -0.662623 -3
    endloop
  endfacet
  facet normal -0.770504 0.637435 0
    outer loop
      vertex 1.31214 -1.23218 -3
      vertex 1.45623 -1.05801 1.5
      vertex 1.45623 -1.05801 -3
    endloop
  endfacet
  facet normal -0.770504 0.637435 0
    outer loop
      vertex 1.45623 -1.05801 1.5
      vertex 1.31214 -1.23218 -3
      vertex 1.31214 -1.23218 1.5
    endloop
  endfacet
endsolid OpenSCAD_Model
