solid OpenSCAD_Model
  facet normal 0.248689 -0.968583 0
    outer loop
      vertex 1.40536 -7.36715 -3
      vertex 2.31763 -7.13292 -1
      vertex 1.40536 -7.36715 -1
    endloop
  endfacet
  facet normal 0.248689 -0.968583 0
    outer loop
      vertex 2.31763 -7.13292 -1
      vertex 1.40536 -7.36715 -3
      vertex 2.31763 -7.13292 -3
    endloop
  endfacet
  facet normal 0.368101 0.929786 -0
    outer loop
      vertex 2.5 7.06072 -3
      vertex 2.31763 7.13292 -1
      vertex 2.5 7.06072 -1
    endloop
  endfacet
  facet normal 0.368101 0.929786 0
    outer loop
      vertex 2.31763 7.13292 -1
      vertex 2.5 7.06072 -3
      vertex 2.31763 7.13292 -3
    endloop
  endfacet
  facet normal -0.248689 -0.968583 0
    outer loop
      vertex -2.31763 -7.13292 -3
      vertex -1.40536 -7.36715 -1
      vertex -2.31763 -7.13292 -1
    endloop
  endfacet
  facet normal -0.248689 -0.968583 -0
    outer loop
      vertex -1.40536 -7.36715 -1
      vertex -2.31763 -7.13292 -3
      vertex -1.40536 -7.36715 -3
    endloop
  endfacet
  facet normal -0.125337 -0.992114 0
    outer loop
      vertex -1.40536 -7.36715 -3
      vertex -0.470928 -7.4852 -1
      vertex -1.40536 -7.36715 -1
    endloop
  endfacet
  facet normal -0.125337 -0.992114 -0
    outer loop
      vertex -0.470928 -7.4852 -1
      vertex -1.40536 -7.36715 -3
      vertex -0.470928 -7.4852 -3
    endloop
  endfacet
  facet normal 0.125337 -0.992114 0
    outer loop
      vertex 0.470928 -7.4852 -3
      vertex 1.40536 -7.36715 -1
      vertex 0.470928 -7.4852 -1
    endloop
  endfacet
  facet normal 0.125337 -0.992114 0
    outer loop
      vertex 1.40536 -7.36715 -1
      vertex 0.470928 -7.4852 -3
      vertex 1.40536 -7.36715 -3
    endloop
  endfacet
  facet normal -0.125337 0.992114 0
    outer loop
      vertex -0.470928 7.4852 -3
      vertex -1.40536 7.36715 -1
      vertex -0.470928 7.4852 -1
    endloop
  endfacet
  facet normal -0.125337 0.992114 0
    outer loop
      vertex -1.40536 7.36715 -1
      vertex -0.470928 7.4852 -3
      vertex -1.40536 7.36715 -3
    endloop
  endfacet
  facet normal 0 0 1
    outer loop
      vertex 0.679837 2.09232 -1
      vertex 2.5 7.06072 -1
      vertex 2.31763 7.13292 -1
    endloop
  endfacet
  facet normal 0 0 1
    outer loop
      vertex 2.5 7.06072 -1
      vertex 2.2 0 -1
      vertex 2.5 -7.06072 -1
    endloop
  endfacet
  facet normal -0 0 1
    outer loop
      vertex 2.18265 -0.275733 -1
      vertex 2.5 -7.06072 -1
      vertex 2.2 0 -1
    endloop
  endfacet
  facet normal 0 0 1
    outer loop
      vertex 2.5 7.06072 -1
      vertex 2.18265 0.275733 -1
      vertex 2.2 0 -1
    endloop
  endfacet
  facet normal 0 0 1
    outer loop
      vertex 2.5 7.06072 -1
      vertex 2.13088 0.547117 -1
      vertex 2.18265 0.275733 -1
    endloop
  endfacet
  facet normal 0 0 1
    outer loop
      vertex 2.5 7.06072 -1
      vertex 2.04551 0.809874 -1
      vertex 2.13088 0.547117 -1
    endloop
  endfacet
  facet normal 0 0 1
    outer loop
      vertex 2.5 7.06072 -1
      vertex 1.92787 1.05986 -1
      vertex 2.04551 0.809874 -1
    endloop
  endfacet
  facet normal 0 0 1
    outer loop
      vertex 2.5 7.06072 -1
      vertex 1.77984 1.29313 -1
      vertex 1.92787 1.05986 -1
    endloop
  endfacet
  facet normal 0 0 1
    outer loop
      vertex 2.5 7.06072 -1
      vertex 1.60373 1.506 -1
      vertex 1.77984 1.29313 -1
    endloop
  endfacet
  facet normal 0 0 1
    outer loop
      vertex 0.679837 2.09232 -1
      vertex 2.31763 7.13292 -1
      vertex 1.40536 7.36715 -1
    endloop
  endfacet
  facet normal 0 0 1
    outer loop
      vertex 2.5 7.06072 -1
      vertex 1.40233 1.69513 -1
      vertex 1.60373 1.506 -1
    endloop
  endfacet
  facet normal 0 0 1
    outer loop
      vertex 2.5 7.06072 -1
      vertex 1.17882 1.85752 -1
      vertex 1.40233 1.69513 -1
    endloop
  endfacet
  facet normal 0 0 1
    outer loop
      vertex 2.5 7.06072 -1
      vertex 0.936714 1.99062 -1
      vertex 1.17882 1.85752 -1
    endloop
  endfacet
  facet normal 0 0 1
    outer loop
      vertex 2.5 7.06072 -1
      vertex 0.679837 2.09232 -1
      vertex 0.936714 1.99062 -1
    endloop
  endfacet
  facet normal 0 0 1
    outer loop
      vertex 0.412238 2.16103 -1
      vertex 1.40536 7.36715 -1
      vertex 0.470928 7.4852 -1
    endloop
  endfacet
  facet normal 0 0 1
    outer loop
      vertex 1.40536 7.36715 -1
      vertex 0.412238 2.16103 -1
      vertex 0.679837 2.09232 -1
    endloop
  endfacet
  facet normal 0 0 1
    outer loop
      vertex 0.470928 7.4852 -1
      vertex 0.138139 2.19566 -1
      vertex 0.412238 2.16103 -1
    endloop
  endfacet
  facet normal 0 0 1
    outer loop
      vertex 0.470928 7.4852 -1
      vertex -0.138139 2.19566 -1
      vertex 0.138139 2.19566 -1
    endloop
  endfacet
  facet normal -0 0 1
    outer loop
      vertex -0.470928 7.4852 -1
      vertex -0.138139 2.19566 -1
      vertex 0.470928 7.4852 -1
    endloop
  endfacet
  facet normal 0 0 1
    outer loop
      vertex -0.138139 2.19566 -1
      vertex -0.470928 7.4852 -1
      vertex -0.412238 2.16103 -1
    endloop
  endfacet
  facet normal -0 0 1
    outer loop
      vertex -1.40536 7.36715 -1
      vertex -0.412238 2.16103 -1
      vertex -0.470928 7.4852 -1
    endloop
  endfacet
  facet normal 0 0 1
    outer loop
      vertex -0.412238 2.16103 -1
      vertex -1.40536 7.36715 -1
      vertex -0.679837 2.09232 -1
    endloop
  endfacet
  facet normal -0 0 1
    outer loop
      vertex -2.31763 7.13292 -1
      vertex -0.679837 2.09232 -1
      vertex -1.40536 7.36715 -1
    endloop
  endfacet
  facet normal -0 0 1
    outer loop
      vertex -2.5 7.06072 -1
      vertex -0.679837 2.09232 -1
      vertex -2.31763 7.13292 -1
    endloop
  endfacet
  facet normal 0 0 1
    outer loop
      vertex -0.679837 2.09232 -1
      vertex -2.5 7.06072 -1
      vertex -0.936714 1.99062 -1
    endloop
  endfacet
  facet normal 0 0 1
    outer loop
      vertex -0.936714 1.99062 -1
      vertex -2.5 7.06072 -1
      vertex -1.17882 1.85752 -1
    endloop
  endfacet
  facet normal 0 0 1
    outer loop
      vertex -1.17882 1.85752 -1
      vertex -2.5 7.06072 -1
      vertex -1.40233 1.69513 -1
    endloop
  endfacet
  facet normal 0 0 1
    outer loop
      vertex -1.40233 1.69513 -1
      vertex -2.5 7.06072 -1
      vertex -1.60373 1.506 -1
    endloop
  endfacet
  facet normal 0 0 1
    outer loop
      vertex -1.60373 1.506 -1
      vertex -2.5 7.06072 -1
      vertex -1.77984 1.29313 -1
    endloop
  endfacet
  facet normal 0 0 1
    outer loop
      vertex -1.77984 1.29313 -1
      vertex -2.5 7.06072 -1
      vertex -1.92787 1.05986 -1
    endloop
  endfacet
  facet normal 0 0 1
    outer loop
      vertex -1.92787 1.05986 -1
      vertex -2.5 7.06072 -1
      vertex -2.04551 0.809874 -1
    endloop
  endfacet
  facet normal 0 0 1
    outer loop
      vertex -2.13088 0.547117 -1
      vertex -2.5 7.06072 -1
      vertex -2.18265 0.275733 -1
    endloop
  endfacet
  facet normal 0 0 1
    outer loop
      vertex -2.04551 0.809874 -1
      vertex -2.5 7.06072 -1
      vertex -2.13088 0.547117 -1
    endloop
  endfacet
  facet normal -0 0 1
    outer loop
      vertex 2.13088 -0.547117 -1
      vertex 2.5 -7.06072 -1
      vertex 2.18265 -0.275733 -1
    endloop
  endfacet
  facet normal -0 0 1
    outer loop
      vertex 2.04551 -0.809874 -1
      vertex 2.5 -7.06072 -1
      vertex 2.13088 -0.547117 -1
    endloop
  endfacet
  facet normal -0 0 1
    outer loop
      vertex 1.92787 -1.05986 -1
      vertex 2.5 -7.06072 -1
      vertex 2.04551 -0.809874 -1
    endloop
  endfacet
  facet normal -0 0 1
    outer loop
      vertex 1.77984 -1.29313 -1
      vertex 2.5 -7.06072 -1
      vertex 1.92787 -1.05986 -1
    endloop
  endfacet
  facet normal -0 0 1
    outer loop
      vertex 1.60373 -1.506 -1
      vertex 2.5 -7.06072 -1
      vertex 1.77984 -1.29313 -1
    endloop
  endfacet
  facet normal -0 0 1
    outer loop
      vertex 1.40233 -1.69513 -1
      vertex 2.5 -7.06072 -1
      vertex 1.60373 -1.506 -1
    endloop
  endfacet
  facet normal -0 0 1
    outer loop
      vertex 1.17882 -1.85752 -1
      vertex 2.5 -7.06072 -1
      vertex 1.40233 -1.69513 -1
    endloop
  endfacet
  facet normal -0 0 1
    outer loop
      vertex 0.936714 -1.99062 -1
      vertex 2.5 -7.06072 -1
      vertex 1.17882 -1.85752 -1
    endloop
  endfacet
  facet normal -0 0 1
    outer loop
      vertex 0.679837 -2.09232 -1
      vertex 2.5 -7.06072 -1
      vertex 0.936714 -1.99062 -1
    endloop
  endfacet
  facet normal 0 0 1
    outer loop
      vertex 2.5 -7.06072 -1
      vertex 0.679837 -2.09232 -1
      vertex 2.31763 -7.13292 -1
    endloop
  endfacet
  facet normal 0 0 1
    outer loop
      vertex 2.31763 -7.13292 -1
      vertex 0.679837 -2.09232 -1
      vertex 1.40536 -7.36715 -1
    endloop
  endfacet
  facet normal -0 0 1
    outer loop
      vertex 0.412238 -2.16103 -1
      vertex 1.40536 -7.36715 -1
      vertex 0.679837 -2.09232 -1
    endloop
  endfacet
  facet normal 0 0 1
    outer loop
      vertex 1.40536 -7.36715 -1
      vertex 0.412238 -2.16103 -1
      vertex 0.470928 -7.4852 -1
    endloop
  endfacet
  facet normal -0 0 1
    outer loop
      vertex 0.138139 -2.19566 -1
      vertex 0.470928 -7.4852 -1
      vertex 0.412238 -2.16103 -1
    endloop
  endfacet
  facet normal -0 0 1
    outer loop
      vertex -0.138139 -2.19566 -1
      vertex 0.470928 -7.4852 -1
      vertex 0.138139 -2.19566 -1
    endloop
  endfacet
  facet normal 0 0 1
    outer loop
      vertex -0.470928 -7.4852 -1
      vertex -0.138139 -2.19566 -1
      vertex -0.412238 -2.16103 -1
    endloop
  endfacet
  facet normal 0 0 1
    outer loop
      vertex -0.138139 -2.19566 -1
      vertex -0.470928 -7.4852 -1
      vertex 0.470928 -7.4852 -1
    endloop
  endfacet
  facet normal 0 0 1
    outer loop
      vertex -1.40536 -7.36715 -1
      vertex -0.412238 -2.16103 -1
      vertex -0.679837 -2.09232 -1
    endloop
  endfacet
  facet normal 0 0 1
    outer loop
      vertex -2.5 -7.06072 -1
      vertex -0.679837 -2.09232 -1
      vertex -0.936714 -1.99062 -1
    endloop
  endfacet
  facet normal 0 0 1
    outer loop
      vertex -2.5 -7.06072 -1
      vertex -0.936714 -1.99062 -1
      vertex -1.17882 -1.85752 -1
    endloop
  endfacet
  facet normal 0 0 1
    outer loop
      vertex -2.5 -7.06072 -1
      vertex -1.17882 -1.85752 -1
      vertex -1.40233 -1.69513 -1
    endloop
  endfacet
  facet normal 0 0 1
    outer loop
      vertex -0.412238 -2.16103 -1
      vertex -1.40536 -7.36715 -1
      vertex -0.470928 -7.4852 -1
    endloop
  endfacet
  facet normal 0 0 1
    outer loop
      vertex -2.5 -7.06072 -1
      vertex -1.40233 -1.69513 -1
      vertex -1.60373 -1.506 -1
    endloop
  endfacet
  facet normal 0 0 1
    outer loop
      vertex -2.5 -7.06072 -1
      vertex -1.60373 -1.506 -1
      vertex -1.77984 -1.29313 -1
    endloop
  endfacet
  facet normal 0 0 1
    outer loop
      vertex -2.5 -7.06072 -1
      vertex -1.77984 -1.29313 -1
      vertex -1.92787 -1.05986 -1
    endloop
  endfacet
  facet normal 0 0 1
    outer loop
      vertex -2.5 -7.06072 -1
      vertex -1.92787 -1.05986 -1
      vertex -2.04551 -0.809874 -1
    endloop
  endfacet
  facet normal 0 0 1
    outer loop
      vertex -2.5 -7.06072 -1
      vertex -2.04551 -0.809874 -1
      vertex -2.13088 -0.547117 -1
    endloop
  endfacet
  facet normal 0 0 1
    outer loop
      vertex -2.5 -7.06072 -1
      vertex -2.13088 -0.547117 -1
      vertex -2.18265 -0.275733 -1
    endloop
  endfacet
  facet normal 0 0 1
    outer loop
      vertex -0.679837 -2.09232 -1
      vertex -2.31763 -7.13292 -1
      vertex -1.40536 -7.36715 -1
    endloop
  endfacet
  facet normal 0 0 1
    outer loop
      vertex -2.5 -7.06072 -1
      vertex -2.18265 -0.275733 -1
      vertex -2.2 0 -1
    endloop
  endfacet
  facet normal 0 0 1
    outer loop
      vertex -2.18265 0.275733 -1
      vertex -2.5 7.06072 -1
      vertex -2.2 0 -1
    endloop
  endfacet
  facet normal 0 0 1
    outer loop
      vertex -2.5 -7.06072 -1
      vertex -2.2 0 -1
      vertex -2.5 7.06072 -1
    endloop
  endfacet
  facet normal 0 0 1
    outer loop
      vertex -0.679837 -2.09232 -1
      vertex -2.5 -7.06072 -1
      vertex -2.31763 -7.13292 -1
    endloop
  endfacet
  facet normal -0.368101 0.929786 0
    outer loop
      vertex -2.31763 7.13292 -3
      vertex -2.5 7.06072 -1
      vertex -2.31763 7.13292 -1
    endloop
  endfacet
  facet normal -0.368101 0.929786 0
    outer loop
      vertex -2.5 7.06072 -1
      vertex -2.31763 7.13292 -3
      vertex -2.5 7.06072 -3
    endloop
  endfacet
  facet normal -0.248689 0.968583 0
    outer loop
      vertex -1.40536 7.36715 -3
      vertex -2.31763 7.13292 -1
      vertex -1.40536 7.36715 -1
    endloop
  endfacet
  facet normal -0.248689 0.968583 0
    outer loop
      vertex -2.31763 7.13292 -1
      vertex -1.40536 7.36715 -3
      vertex -2.31763 7.13292 -3
    endloop
  endfacet
  facet normal 0.368101 -0.929786 0
    outer loop
      vertex 2.31763 -7.13292 -3
      vertex 2.5 -7.06072 -1
      vertex 2.31763 -7.13292 -1
    endloop
  endfacet
  facet normal 0.368101 -0.929786 0
    outer loop
      vertex 2.5 -7.06072 -1
      vertex 2.31763 -7.13292 -3
      vertex 2.5 -7.06072 -3
    endloop
  endfacet
  facet normal -0.368101 -0.929786 0
    outer loop
      vertex -2.5 -7.06072 -3
      vertex -2.31763 -7.13292 -1
      vertex -2.5 -7.06072 -1
    endloop
  endfacet
  facet normal -0.368101 -0.929786 -0
    outer loop
      vertex -2.31763 -7.13292 -1
      vertex -2.5 -7.06072 -3
      vertex -2.31763 -7.13292 -3
    endloop
  endfacet
  facet normal 0 1 -0
    outer loop
      vertex 0.470928 7.4852 -3
      vertex -0.470928 7.4852 -1
      vertex 0.470928 7.4852 -1
    endloop
  endfacet
  facet normal 0 1 0
    outer loop
      vertex -0.470928 7.4852 -1
      vertex 0.470928 7.4852 -3
      vertex -0.470928 7.4852 -3
    endloop
  endfacet
  facet normal 0.125337 0.992114 -0
    outer loop
      vertex 1.40536 7.36715 -3
      vertex 0.470928 7.4852 -1
      vertex 1.40536 7.36715 -1
    endloop
  endfacet
  facet normal 0.125337 0.992114 0
    outer loop
      vertex 0.470928 7.4852 -1
      vertex 1.40536 7.36715 -3
      vertex 0.470928 7.4852 -3
    endloop
  endfacet
  facet normal 0.248689 0.968583 -0
    outer loop
      vertex 2.31763 7.13292 -3
      vertex 1.40536 7.36715 -1
      vertex 2.31763 7.13292 -1
    endloop
  endfacet
  facet normal 0.248689 0.968583 0
    outer loop
      vertex 1.40536 7.36715 -1
      vertex 2.31763 7.13292 -3
      vertex 1.40536 7.36715 -3
    endloop
  endfacet
  facet normal 0 -1 0
    outer loop
      vertex -0.470928 -7.4852 -3
      vertex 0.470928 -7.4852 -1
      vertex -0.470928 -7.4852 -1
    endloop
  endfacet
  facet normal 0 -1 -0
    outer loop
      vertex 0.470928 -7.4852 -1
      vertex -0.470928 -7.4852 -3
      vertex 0.470928 -7.4852 -3
    endloop
  endfacet
  facet normal 0 0 -1
    outer loop
      vertex 1.40536 -7.36715 -3
      vertex 2.5 -7.06072 -3
      vertex 2.31763 -7.13292 -3
    endloop
  endfacet
  facet normal -0 0 -1
    outer loop
      vertex 2.5 -7.06072 -3
      vertex 1.40536 -7.36715 -3
      vertex 2.5 7.06072 -3
    endloop
  endfacet
  facet normal 0 0 -1
    outer loop
      vertex 1.40536 7.36715 -3
      vertex 2.5 7.06072 -3
      vertex 1.40536 -7.36715 -3
    endloop
  endfacet
  facet normal 0 0 -1
    outer loop
      vertex 2.5 7.06072 -3
      vertex 1.40536 7.36715 -3
      vertex 2.31763 7.13292 -3
    endloop
  endfacet
  facet normal 0 0 -1
    outer loop
      vertex 0.470928 -7.4852 -3
      vertex 1.40536 7.36715 -3
      vertex 1.40536 -7.36715 -3
    endloop
  endfacet
  facet normal 0 0 -1
    outer loop
      vertex 0.470928 -7.4852 -3
      vertex 0.470928 7.4852 -3
      vertex 1.40536 7.36715 -3
    endloop
  endfacet
  facet normal 0 0 -1
    outer loop
      vertex -0.470928 -7.4852 -3
      vertex 0.470928 7.4852 -3
      vertex 0.470928 -7.4852 -3
    endloop
  endfacet
  facet normal 0 0 -1
    outer loop
      vertex -0.470928 -7.4852 -3
      vertex -0.470928 7.4852 -3
      vertex 0.470928 7.4852 -3
    endloop
  endfacet
  facet normal 0 0 -1
    outer loop
      vertex -1.40536 -7.36715 -3
      vertex -0.470928 7.4852 -3
      vertex -0.470928 -7.4852 -3
    endloop
  endfacet
  facet normal 0 0 -1
    outer loop
      vertex -1.40536 -7.36715 -3
      vertex -1.40536 7.36715 -3
      vertex -0.470928 7.4852 -3
    endloop
  endfacet
  facet normal 0 0 -1
    outer loop
      vertex -2.5 -7.06072 -3
      vertex -1.40536 -7.36715 -3
      vertex -2.31763 -7.13292 -3
    endloop
  endfacet
  facet normal 0 0 -1
    outer loop
      vertex -1.40536 -7.36715 -3
      vertex -2.5 -7.06072 -3
      vertex -1.40536 7.36715 -3
    endloop
  endfacet
  facet normal 0 0 -1
    outer loop
      vertex -2.5 7.06072 -3
      vertex -1.40536 7.36715 -3
      vertex -2.5 -7.06072 -3
    endloop
  endfacet
  facet normal 0 0 -1
    outer loop
      vertex -1.40536 7.36715 -3
      vertex -2.5 7.06072 -3
      vertex -2.31763 7.13292 -3
    endloop
  endfacet
  facet normal 0.982287 0.187384 0
    outer loop
      vertex 2.18265 0.275733 3
      vertex 2.13088 0.547117 -1
      vertex 2.13088 0.547117 3
    endloop
  endfacet
  facet normal 0.982287 0.187384 0
    outer loop
      vertex 2.13088 0.547117 -1
      vertex 2.18265 0.275733 3
      vertex 2.18265 0.275733 -1
    endloop
  endfacet
  facet normal 0.998026 0.062799 0
    outer loop
      vertex 2.2 0 3
      vertex 2.18265 0.275733 -1
      vertex 2.18265 0.275733 3
    endloop
  endfacet
  facet normal 0.998026 0.062799 0
    outer loop
      vertex 2.18265 0.275733 -1
      vertex 2.2 0 3
      vertex 2.2 0 -1
    endloop
  endfacet
  facet normal 0.84434 0.535807 0
    outer loop
      vertex 1.92787 1.05986 3
      vertex 1.77984 1.29313 -1
      vertex 1.77984 1.29313 3
    endloop
  endfacet
  facet normal 0.84434 0.535807 0
    outer loop
      vertex 1.77984 1.29313 -1
      vertex 1.92787 1.05986 3
      vertex 1.92787 1.05986 -1
    endloop
  endfacet
  facet normal 0.684553 0.728964 -0
    outer loop
      vertex 1.60373 1.506 -1
      vertex 1.40233 1.69513 3
      vertex 1.60373 1.506 3
    endloop
  endfacet
  facet normal 0.684553 0.728964 0
    outer loop
      vertex 1.40233 1.69513 3
      vertex 1.60373 1.506 -1
      vertex 1.40233 1.69513 -1
    endloop
  endfacet
  facet normal -0.248698 0.968581 0
    outer loop
      vertex -0.412238 2.16103 -1
      vertex -0.679837 2.09232 3
      vertex -0.412238 2.16103 3
    endloop
  endfacet
  facet normal -0.248698 0.968581 0
    outer loop
      vertex -0.679837 2.09232 3
      vertex -0.412238 2.16103 -1
      vertex -0.679837 2.09232 -1
    endloop
  endfacet
  facet normal -0.770498 -0.637443 0
    outer loop
      vertex -1.60373 -1.506 -1
      vertex -1.77984 -1.29313 3
      vertex -1.77984 -1.29313 -1
    endloop
  endfacet
  facet normal -0.770498 -0.637443 0
    outer loop
      vertex -1.77984 -1.29313 3
      vertex -1.60373 -1.506 -1
      vertex -1.60373 -1.506 3
    endloop
  endfacet
  facet normal 0.904819 -0.425796 0
    outer loop
      vertex 1.92787 -1.05986 3
      vertex 2.04551 -0.809874 -1
      vertex 2.04551 -0.809874 3
    endloop
  endfacet
  facet normal 0.904819 -0.425796 0
    outer loop
      vertex 2.04551 -0.809874 -1
      vertex 1.92787 -1.05986 3
      vertex 1.92787 -1.05986 -1
    endloop
  endfacet
  facet normal 0.481757 0.876305 -0
    outer loop
      vertex 1.17882 1.85752 -1
      vertex 0.936714 1.99062 3
      vertex 1.17882 1.85752 3
    endloop
  endfacet
  facet normal 0.481757 0.876305 0
    outer loop
      vertex 0.936714 1.99062 3
      vertex 1.17882 1.85752 -1
      vertex 0.936714 1.99062 -1
    endloop
  endfacet
  facet normal 0.248698 -0.968581 0
    outer loop
      vertex 0.412238 -2.16103 -1
      vertex 0.679837 -2.09232 3
      vertex 0.412238 -2.16103 3
    endloop
  endfacet
  facet normal 0.248698 -0.968581 0
    outer loop
      vertex 0.679837 -2.09232 3
      vertex 0.412238 -2.16103 -1
      vertex 0.679837 -2.09232 -1
    endloop
  endfacet
  facet normal -0.951062 0.309001 0
    outer loop
      vertex -2.13088 0.547117 -1
      vertex -2.04551 0.809874 3
      vertex -2.04551 0.809874 -1
    endloop
  endfacet
  facet normal -0.951062 0.309001 0
    outer loop
      vertex -2.04551 0.809874 3
      vertex -2.13088 0.547117 -1
      vertex -2.13088 0.547117 3
    endloop
  endfacet
  facet normal -0.125345 0.992113 0
    outer loop
      vertex -0.138139 2.19566 -1
      vertex -0.412238 2.16103 3
      vertex -0.138139 2.19566 3
    endloop
  endfacet
  facet normal -0.125345 0.992113 0
    outer loop
      vertex -0.412238 2.16103 3
      vertex -0.138139 2.19566 -1
      vertex -0.412238 2.16103 -1
    endloop
  endfacet
  facet normal -0.481757 0.876305 0
    outer loop
      vertex -0.936714 1.99062 -1
      vertex -1.17882 1.85752 3
      vertex -0.936714 1.99062 3
    endloop
  endfacet
  facet normal -0.481757 0.876305 0
    outer loop
      vertex -1.17882 1.85752 3
      vertex -0.936714 1.99062 -1
      vertex -1.17882 1.85752 -1
    endloop
  endfacet
  facet normal -0.998026 0.062799 0
    outer loop
      vertex -2.2 0 -1
      vertex -2.18265 0.275733 3
      vertex -2.18265 0.275733 -1
    endloop
  endfacet
  facet normal -0.998026 0.062799 0
    outer loop
      vertex -2.18265 0.275733 3
      vertex -2.2 0 -1
      vertex -2.2 0 3
    endloop
  endfacet
  facet normal 0 1 -0
    outer loop
      vertex 0.138139 2.19566 -1
      vertex -0.138139 2.19566 3
      vertex 0.138139 2.19566 3
    endloop
  endfacet
  facet normal 0 1 0
    outer loop
      vertex -0.138139 2.19566 3
      vertex 0.138139 2.19566 -1
      vertex -0.138139 2.19566 -1
    endloop
  endfacet
  facet normal 0.84434 -0.535807 0
    outer loop
      vertex 1.77984 -1.29313 3
      vertex 1.92787 -1.05986 -1
      vertex 1.92787 -1.05986 3
    endloop
  endfacet
  facet normal 0.84434 -0.535807 0
    outer loop
      vertex 1.92787 -1.05986 -1
      vertex 1.77984 -1.29313 3
      vertex 1.77984 -1.29313 -1
    endloop
  endfacet
  facet normal -0.84434 0.535807 0
    outer loop
      vertex -1.92787 1.05986 -1
      vertex -1.77984 1.29313 3
      vertex -1.77984 1.29313 -1
    endloop
  endfacet
  facet normal -0.84434 0.535807 0
    outer loop
      vertex -1.77984 1.29313 3
      vertex -1.92787 1.05986 -1
      vertex -1.92787 1.05986 3
    endloop
  endfacet
  facet normal 0.684553 -0.728964 0
    outer loop
      vertex 1.40233 -1.69513 -1
      vertex 1.60373 -1.506 3
      vertex 1.40233 -1.69513 3
    endloop
  endfacet
  facet normal 0.684553 -0.728964 0
    outer loop
      vertex 1.60373 -1.506 3
      vertex 1.40233 -1.69513 -1
      vertex 1.60373 -1.506 -1
    endloop
  endfacet
  facet normal -0.982287 -0.187384 0
    outer loop
      vertex -2.13088 -0.547117 -1
      vertex -2.18265 -0.275733 3
      vertex -2.18265 -0.275733 -1
    endloop
  endfacet
  facet normal -0.982287 -0.187384 0
    outer loop
      vertex -2.18265 -0.275733 3
      vertex -2.13088 -0.547117 -1
      vertex -2.13088 -0.547117 3
    endloop
  endfacet
  facet normal -0.248698 -0.968581 0
    outer loop
      vertex -0.679837 -2.09232 -1
      vertex -0.412238 -2.16103 3
      vertex -0.679837 -2.09232 3
    endloop
  endfacet
  facet normal -0.248698 -0.968581 -0
    outer loop
      vertex -0.412238 -2.16103 3
      vertex -0.679837 -2.09232 -1
      vertex -0.412238 -2.16103 -1
    endloop
  endfacet
  facet normal -0.904819 -0.425796 0
    outer loop
      vertex -1.92787 -1.05986 -1
      vertex -2.04551 -0.809874 3
      vertex -2.04551 -0.809874 -1
    endloop
  endfacet
  facet normal -0.904819 -0.425796 0
    outer loop
      vertex -2.04551 -0.809874 3
      vertex -1.92787 -1.05986 -1
      vertex -1.92787 -1.05986 3
    endloop
  endfacet
  facet normal 0 0 1
    outer loop
      vertex 2.18265 0.275733 3
      vertex 2.18265 -0.275733 3
      vertex 2.2 0 3
    endloop
  endfacet
  facet normal 0 0 1
    outer loop
      vertex 2.13088 0.547117 3
      vertex 2.18265 -0.275733 3
      vertex 2.18265 0.275733 3
    endloop
  endfacet
  facet normal 0 0 1
    outer loop
      vertex 2.13088 0.547117 3
      vertex 2.13088 -0.547117 3
      vertex 2.18265 -0.275733 3
    endloop
  endfacet
  facet normal 0 0 1
    outer loop
      vertex 2.04551 0.809874 3
      vertex 2.13088 -0.547117 3
      vertex 2.13088 0.547117 3
    endloop
  endfacet
  facet normal 0 0 1
    outer loop
      vertex 2.04551 0.809874 3
      vertex 2.04551 -0.809874 3
      vertex 2.13088 -0.547117 3
    endloop
  endfacet
  facet normal 0 0 1
    outer loop
      vertex 1.92787 1.05986 3
      vertex 2.04551 -0.809874 3
      vertex 2.04551 0.809874 3
    endloop
  endfacet
  facet normal 0 0 1
    outer loop
      vertex 1.92787 1.05986 3
      vertex 1.92787 -1.05986 3
      vertex 2.04551 -0.809874 3
    endloop
  endfacet
  facet normal 0 0 1
    outer loop
      vertex 1.77984 1.29313 3
      vertex 1.92787 -1.05986 3
      vertex 1.92787 1.05986 3
    endloop
  endfacet
  facet normal 0 0 1
    outer loop
      vertex 1.77984 1.29313 3
      vertex 1.77984 -1.29313 3
      vertex 1.92787 -1.05986 3
    endloop
  endfacet
  facet normal 0 0 1
    outer loop
      vertex 1.60373 1.506 3
      vertex 1.77984 -1.29313 3
      vertex 1.77984 1.29313 3
    endloop
  endfacet
  facet normal 0 0 1
    outer loop
      vertex 1.60373 1.506 3
      vertex 1.60373 -1.506 3
      vertex 1.77984 -1.29313 3
    endloop
  endfacet
  facet normal 0 0 1
    outer loop
      vertex 1.40233 1.69513 3
      vertex 1.60373 -1.506 3
      vertex 1.60373 1.506 3
    endloop
  endfacet
  facet normal 0 0 1
    outer loop
      vertex 1.40233 1.69513 3
      vertex 1.40233 -1.69513 3
      vertex 1.60373 -1.506 3
    endloop
  endfacet
  facet normal 0 0 1
    outer loop
      vertex 1.17882 1.85752 3
      vertex 1.40233 -1.69513 3
      vertex 1.40233 1.69513 3
    endloop
  endfacet
  facet normal 0 0 1
    outer loop
      vertex 1.17882 1.85752 3
      vertex 1.17882 -1.85752 3
      vertex 1.40233 -1.69513 3
    endloop
  endfacet
  facet normal 0 0 1
    outer loop
      vertex 0.936714 1.99062 3
      vertex 1.17882 -1.85752 3
      vertex 1.17882 1.85752 3
    endloop
  endfacet
  facet normal 0 0 1
    outer loop
      vertex 0.936714 1.99062 3
      vertex 0.936714 -1.99062 3
      vertex 1.17882 -1.85752 3
    endloop
  endfacet
  facet normal 0 0 1
    outer loop
      vertex 0.679837 2.09232 3
      vertex 0.936714 -1.99062 3
      vertex 0.936714 1.99062 3
    endloop
  endfacet
  facet normal 0 0 1
    outer loop
      vertex 0.679837 2.09232 3
      vertex 0.679837 -2.09232 3
      vertex 0.936714 -1.99062 3
    endloop
  endfacet
  facet normal 0 0 1
    outer loop
      vertex 0.412238 2.16103 3
      vertex 0.679837 -2.09232 3
      vertex 0.679837 2.09232 3
    endloop
  endfacet
  facet normal 0 0 1
    outer loop
      vertex 0.412238 2.16103 3
      vertex 0.412238 -2.16103 3
      vertex 0.679837 -2.09232 3
    endloop
  endfacet
  facet normal 0 0 1
    outer loop
      vertex 0.138139 2.19566 3
      vertex 0.412238 -2.16103 3
      vertex 0.412238 2.16103 3
    endloop
  endfacet
  facet normal 0 0 1
    outer loop
      vertex 0.138139 2.19566 3
      vertex 0.138139 -2.19566 3
      vertex 0.412238 -2.16103 3
    endloop
  endfacet
  facet normal -0 0 1
    outer loop
      vertex -0.138139 2.19566 3
      vertex 0.138139 -2.19566 3
      vertex 0.138139 2.19566 3
    endloop
  endfacet
  facet normal 0 0 1
    outer loop
      vertex -0.138139 2.19566 3
      vertex -0.138139 -2.19566 3
      vertex 0.138139 -2.19566 3
    endloop
  endfacet
  facet normal -0 0 1
    outer loop
      vertex -0.412238 2.16103 3
      vertex -0.138139 -2.19566 3
      vertex -0.138139 2.19566 3
    endloop
  endfacet
  facet normal 0 0 1
    outer loop
      vertex -0.412238 2.16103 3
      vertex -0.412238 -2.16103 3
      vertex -0.138139 -2.19566 3
    endloop
  endfacet
  facet normal -0 0 1
    outer loop
      vertex -0.679837 2.09232 3
      vertex -0.412238 -2.16103 3
      vertex -0.412238 2.16103 3
    endloop
  endfacet
  facet normal 0 0 1
    outer loop
      vertex -0.679837 2.09232 3
      vertex -0.679837 -2.09232 3
      vertex -0.412238 -2.16103 3
    endloop
  endfacet
  facet normal -0 0 1
    outer loop
      vertex -0.936714 1.99062 3
      vertex -0.679837 -2.09232 3
      vertex -0.679837 2.09232 3
    endloop
  endfacet
  facet normal 0 0 1
    outer loop
      vertex -0.936714 1.99062 3
      vertex -0.936714 -1.99062 3
      vertex -0.679837 -2.09232 3
    endloop
  endfacet
  facet normal -0 0 1
    outer loop
      vertex -1.17882 1.85752 3
      vertex -0.936714 -1.99062 3
      vertex -0.936714 1.99062 3
    endloop
  endfacet
  facet normal 0 0 1
    outer loop
      vertex -1.17882 1.85752 3
      vertex -1.17882 -1.85752 3
      vertex -0.936714 -1.99062 3
    endloop
  endfacet
  facet normal -0 0 1
    outer loop
      vertex -1.40233 1.69513 3
      vertex -1.17882 -1.85752 3
      vertex -1.17882 1.85752 3
    endloop
  endfacet
  facet normal 0 0 1
    outer loop
      vertex -1.40233 1.69513 3
      vertex -1.40233 -1.69513 3
      vertex -1.17882 -1.85752 3
    endloop
  endfacet
  facet normal -0 0 1
    outer loop
      vertex -1.60373 1.506 3
      vertex -1.40233 -1.69513 3
      vertex -1.40233 1.69513 3
    endloop
  endfacet
  facet normal 0 0 1
    outer loop
      vertex -1.60373 1.506 3
      vertex -1.60373 -1.506 3
      vertex -1.40233 -1.69513 3
    endloop
  endfacet
  facet normal -0 0 1
    outer loop
      vertex -1.77984 1.29313 3
      vertex -1.60373 -1.506 3
      vertex -1.60373 1.506 3
    endloop
  endfacet
  facet normal 0 0 1
    outer loop
      vertex -1.77984 1.29313 3
      vertex -1.77984 -1.29313 3
      vertex -1.60373 -1.506 3
    endloop
  endfacet
  facet normal -0 0 1
    outer loop
      vertex -1.92787 1.05986 3
      vertex -1.77984 -1.29313 3
      vertex -1.77984 1.29313 3
    endloop
  endfacet
  facet normal 0 0 1
    outer loop
      vertex -1.92787 1.05986 3
      vertex -1.92787 -1.05986 3
      vertex -1.77984 -1.29313 3
    endloop
  endfacet
  facet normal -0 0 1
    outer loop
      vertex -2.04551 0.809874 3
      vertex -1.92787 -1.05986 3
      vertex -1.92787 1.05986 3
    endloop
  endfacet
  facet normal 0 0 1
    outer loop
      vertex -2.04551 0.809874 3
      vertex -2.04551 -0.809874 3
      vertex -1.92787 -1.05986 3
    endloop
  endfacet
  facet normal -0 0 1
    outer loop
      vertex -2.13088 0.547117 3
      vertex -2.04551 -0.809874 3
      vertex -2.04551 0.809874 3
    endloop
  endfacet
  facet normal 0 0 1
    outer loop
      vertex -2.13088 0.547117 3
      vertex -2.13088 -0.547117 3
      vertex -2.04551 -0.809874 3
    endloop
  endfacet
  facet normal -0 0 1
    outer loop
      vertex -2.18265 0.275733 3
      vertex -2.13088 -0.547117 3
      vertex -2.13088 0.547117 3
    endloop
  endfacet
  facet normal 0 0 1
    outer loop
      vertex -2.18265 0.275733 3
      vertex -2.18265 -0.275733 3
      vertex -2.13088 -0.547117 3
    endloop
  endfacet
  facet normal 0 -0 1
    outer loop
      vertex -2.18265 -0.275733 3
      vertex -2.18265 0.275733 3
      vertex -2.2 0 3
    endloop
  endfacet
  facet normal 0.125345 -0.992113 0
    outer loop
      vertex 0.138139 -2.19566 -1
      vertex 0.412238 -2.16103 3
      vertex 0.138139 -2.19566 3
    endloop
  endfacet
  facet normal 0.125345 -0.992113 0
    outer loop
      vertex 0.412238 -2.16103 3
      vertex 0.138139 -2.19566 -1
      vertex 0.412238 -2.16103 -1
    endloop
  endfacet
  facet normal -0.684553 0.728964 0
    outer loop
      vertex -1.40233 1.69513 -1
      vertex -1.60373 1.506 3
      vertex -1.40233 1.69513 3
    endloop
  endfacet
  facet normal -0.684553 0.728964 0
    outer loop
      vertex -1.60373 1.506 3
      vertex -1.40233 1.69513 -1
      vertex -1.60373 1.506 -1
    endloop
  endfacet
  facet normal -0.84434 -0.535807 0
    outer loop
      vertex -1.77984 -1.29313 -1
      vertex -1.92787 -1.05986 3
      vertex -1.92787 -1.05986 -1
    endloop
  endfacet
  facet normal -0.84434 -0.535807 0
    outer loop
      vertex -1.92787 -1.05986 3
      vertex -1.77984 -1.29313 -1
      vertex -1.77984 -1.29313 3
    endloop
  endfacet
  facet normal 0.904819 0.425796 0
    outer loop
      vertex 2.04551 0.809874 3
      vertex 1.92787 1.05986 -1
      vertex 1.92787 1.05986 3
    endloop
  endfacet
  facet normal 0.904819 0.425796 0
    outer loop
      vertex 1.92787 1.05986 -1
      vertex 2.04551 0.809874 3
      vertex 2.04551 0.809874 -1
    endloop
  endfacet
  facet normal -0.770498 0.637443 0
    outer loop
      vertex -1.77984 1.29313 -1
      vertex -1.60373 1.506 3
      vertex -1.60373 1.506 -1
    endloop
  endfacet
  facet normal -0.770498 0.637443 0
    outer loop
      vertex -1.60373 1.506 3
      vertex -1.77984 1.29313 -1
      vertex -1.77984 1.29313 3
    endloop
  endfacet
  facet normal 0.587786 0.809016 -0
    outer loop
      vertex 1.40233 1.69513 -1
      vertex 1.17882 1.85752 3
      vertex 1.40233 1.69513 3
    endloop
  endfacet
  facet normal 0.587786 0.809016 0
    outer loop
      vertex 1.17882 1.85752 3
      vertex 1.40233 1.69513 -1
      vertex 1.17882 1.85752 -1
    endloop
  endfacet
  facet normal 0.481757 -0.876305 0
    outer loop
      vertex 0.936714 -1.99062 -1
      vertex 1.17882 -1.85752 3
      vertex 0.936714 -1.99062 3
    endloop
  endfacet
  facet normal 0.481757 -0.876305 0
    outer loop
      vertex 1.17882 -1.85752 3
      vertex 0.936714 -1.99062 -1
      vertex 1.17882 -1.85752 -1
    endloop
  endfacet
  facet normal -0.36811 0.929782 0
    outer loop
      vertex -0.679837 2.09232 -1
      vertex -0.936714 1.99062 3
      vertex -0.679837 2.09232 3
    endloop
  endfacet
  facet normal -0.36811 0.929782 0
    outer loop
      vertex -0.936714 1.99062 3
      vertex -0.679837 2.09232 -1
      vertex -0.936714 1.99062 -1
    endloop
  endfacet
  facet normal 0.982287 -0.187384 0
    outer loop
      vertex 2.13088 -0.547117 3
      vertex 2.18265 -0.275733 -1
      vertex 2.18265 -0.275733 3
    endloop
  endfacet
  facet normal 0.982287 -0.187384 0
    outer loop
      vertex 2.18265 -0.275733 -1
      vertex 2.13088 -0.547117 3
      vertex 2.13088 -0.547117 -1
    endloop
  endfacet
  facet normal 0.998026 -0.062799 0
    outer loop
      vertex 2.18265 -0.275733 3
      vertex 2.2 0 -1
      vertex 2.2 0 3
    endloop
  endfacet
  facet normal 0.998026 -0.062799 0
    outer loop
      vertex 2.2 0 -1
      vertex 2.18265 -0.275733 3
      vertex 2.18265 -0.275733 -1
    endloop
  endfacet
  facet normal -0.951062 -0.309001 0
    outer loop
      vertex -2.04551 -0.809874 -1
      vertex -2.13088 -0.547117 3
      vertex -2.13088 -0.547117 -1
    endloop
  endfacet
  facet normal -0.951062 -0.309001 0
    outer loop
      vertex -2.13088 -0.547117 3
      vertex -2.04551 -0.809874 -1
      vertex -2.04551 -0.809874 3
    endloop
  endfacet
  facet normal 0 -1 0
    outer loop
      vertex -0.138139 -2.19566 -1
      vertex 0.138139 -2.19566 3
      vertex -0.138139 -2.19566 3
    endloop
  endfacet
  facet normal 0 -1 -0
    outer loop
      vertex 0.138139 -2.19566 3
      vertex -0.138139 -2.19566 -1
      vertex 0.138139 -2.19566 -1
    endloop
  endfacet
  facet normal 0.951062 0.309001 0
    outer loop
      vertex 2.13088 0.547117 3
      vertex 2.04551 0.809874 -1
      vertex 2.04551 0.809874 3
    endloop
  endfacet
  facet normal 0.951062 0.309001 0
    outer loop
      vertex 2.04551 0.809874 -1
      vertex 2.13088 0.547117 3
      vertex 2.13088 0.547117 -1
    endloop
  endfacet
  facet normal 0.36811 -0.929782 0
    outer loop
      vertex 0.679837 -2.09232 -1
      vertex 0.936714 -1.99062 3
      vertex 0.679837 -2.09232 3
    endloop
  endfacet
  facet normal 0.36811 -0.929782 0
    outer loop
      vertex 0.936714 -1.99062 3
      vertex 0.679837 -2.09232 -1
      vertex 0.936714 -1.99062 -1
    endloop
  endfacet
  facet normal -0.587786 0.809016 0
    outer loop
      vertex -1.17882 1.85752 -1
      vertex -1.40233 1.69513 3
      vertex -1.17882 1.85752 3
    endloop
  endfacet
  facet normal -0.587786 0.809016 0
    outer loop
      vertex -1.40233 1.69513 3
      vertex -1.17882 1.85752 -1
      vertex -1.40233 1.69513 -1
    endloop
  endfacet
  facet normal 0.951062 -0.309001 0
    outer loop
      vertex 2.04551 -0.809874 3
      vertex 2.13088 -0.547117 -1
      vertex 2.13088 -0.547117 3
    endloop
  endfacet
  facet normal 0.951062 -0.309001 0
    outer loop
      vertex 2.13088 -0.547117 -1
      vertex 2.04551 -0.809874 3
      vertex 2.04551 -0.809874 -1
    endloop
  endfacet
  facet normal -0.982287 0.187384 0
    outer loop
      vertex -2.18265 0.275733 -1
      vertex -2.13088 0.547117 3
      vertex -2.13088 0.547117 -1
    endloop
  endfacet
  facet normal -0.982287 0.187384 0
    outer loop
      vertex -2.13088 0.547117 3
      vertex -2.18265 0.275733 -1
      vertex -2.18265 0.275733 3
    endloop
  endfacet
  facet normal 0.36811 0.929782 -0
    outer loop
      vertex 0.936714 1.99062 -1
      vertex 0.679837 2.09232 3
      vertex 0.936714 1.99062 3
    endloop
  endfacet
  facet normal 0.36811 0.929782 0
    outer loop
      vertex 0.679837 2.09232 3
      vertex 0.936714 1.99062 -1
      vertex 0.679837 2.09232 -1
    endloop
  endfacet
  facet normal 0.770498 0.637443 0
    outer loop
      vertex 1.77984 1.29313 3
      vertex 1.60373 1.506 -1
      vertex 1.60373 1.506 3
    endloop
  endfacet
  facet normal 0.770498 0.637443 0
    outer loop
      vertex 1.60373 1.506 -1
      vertex 1.77984 1.29313 3
      vertex 1.77984 1.29313 -1
    endloop
  endfacet
  facet normal -0.36811 -0.929782 0
    outer loop
      vertex -0.936714 -1.99062 -1
      vertex -0.679837 -2.09232 3
      vertex -0.936714 -1.99062 3
    endloop
  endfacet
  facet normal -0.36811 -0.929782 -0
    outer loop
      vertex -0.679837 -2.09232 3
      vertex -0.936714 -1.99062 -1
      vertex -0.679837 -2.09232 -1
    endloop
  endfacet
  facet normal 0.770498 -0.637443 0
    outer loop
      vertex 1.60373 -1.506 3
      vertex 1.77984 -1.29313 -1
      vertex 1.77984 -1.29313 3
    endloop
  endfacet
  facet normal 0.770498 -0.637443 0
    outer loop
      vertex 1.77984 -1.29313 -1
      vertex 1.60373 -1.506 3
      vertex 1.60373 -1.506 -1
    endloop
  endfacet
  facet normal -0.587786 -0.809016 0
    outer loop
      vertex -1.40233 -1.69513 -1
      vertex -1.17882 -1.85752 3
      vertex -1.40233 -1.69513 3
    endloop
  endfacet
  facet normal -0.587786 -0.809016 -0
    outer loop
      vertex -1.17882 -1.85752 3
      vertex -1.40233 -1.69513 -1
      vertex -1.17882 -1.85752 -1
    endloop
  endfacet
  facet normal 0.125345 0.992113 -0
    outer loop
      vertex 0.412238 2.16103 -1
      vertex 0.138139 2.19566 3
      vertex 0.412238 2.16103 3
    endloop
  endfacet
  facet normal 0.125345 0.992113 0
    outer loop
      vertex 0.138139 2.19566 3
      vertex 0.412238 2.16103 -1
      vertex 0.138139 2.19566 -1
    endloop
  endfacet
  facet normal -0.684553 -0.728964 0
    outer loop
      vertex -1.60373 -1.506 -1
      vertex -1.40233 -1.69513 3
      vertex -1.60373 -1.506 3
    endloop
  endfacet
  facet normal -0.684553 -0.728964 -0
    outer loop
      vertex -1.40233 -1.69513 3
      vertex -1.60373 -1.506 -1
      vertex -1.40233 -1.69513 -1
    endloop
  endfacet
  facet normal -0.998026 -0.062799 0
    outer loop
      vertex -2.18265 -0.275733 -1
      vertex -2.2 0 3
      vertex -2.2 0 -1
    endloop
  endfacet
  facet normal -0.998026 -0.062799 0
    outer loop
      vertex -2.2 0 3
      vertex -2.18265 -0.275733 -1
      vertex -2.18265 -0.275733 3
    endloop
  endfacet
  facet normal -0.904819 0.425796 0
    outer loop
      vertex -2.04551 0.809874 -1
      vertex -1.92787 1.05986 3
      vertex -1.92787 1.05986 -1
    endloop
  endfacet
  facet normal -0.904819 0.425796 0
    outer loop
      vertex -1.92787 1.05986 3
      vertex -2.04551 0.809874 -1
      vertex -2.04551 0.809874 3
    endloop
  endfacet
  facet normal -0.125345 -0.992113 0
    outer loop
      vertex -0.412238 -2.16103 -1
      vertex -0.138139 -2.19566 3
      vertex -0.412238 -2.16103 3
    endloop
  endfacet
  facet normal -0.125345 -0.992113 -0
    outer loop
      vertex -0.138139 -2.19566 3
      vertex -0.412238 -2.16103 -1
      vertex -0.138139 -2.19566 -1
    endloop
  endfacet
  facet normal 0.587786 -0.809016 0
    outer loop
      vertex 1.17882 -1.85752 -1
      vertex 1.40233 -1.69513 3
      vertex 1.17882 -1.85752 3
    endloop
  endfacet
  facet normal 0.587786 -0.809016 0
    outer loop
      vertex 1.40233 -1.69513 3
      vertex 1.17882 -1.85752 -1
      vertex 1.40233 -1.69513 -1
    endloop
  endfacet
  facet normal -0.481757 -0.876305 0
    outer loop
      vertex -1.17882 -1.85752 -1
      vertex -0.936714 -1.99062 3
      vertex -1.17882 -1.85752 3
    endloop
  endfacet
  facet normal -0.481757 -0.876305 -0
    outer loop
      vertex -0.936714 -1.99062 3
      vertex -1.17882 -1.85752 -1
      vertex -0.936714 -1.99062 -1
    endloop
  endfacet
  facet normal 0.248698 0.968581 -0
    outer loop
      vertex 0.679837 2.09232 -1
      vertex 0.412238 2.16103 3
      vertex 0.679837 2.09232 3
    endloop
  endfacet
  facet normal 0.248698 0.968581 0
    outer loop
      vertex 0.412238 2.16103 3
      vertex 0.679837 2.09232 -1
      vertex 0.412238 2.16103 -1
    endloop
  endfacet
  facet normal -1 0 0
    outer loop
      vertex -2.5 -7.06072 -3
      vertex -2.5 7.06072 -1
      vertex -2.5 7.06072 -3
    endloop
  endfacet
  facet normal -1 -0 0
    outer loop
      vertex -2.5 7.06072 -1
      vertex -2.5 -7.06072 -3
      vertex -2.5 -7.06072 -1
    endloop
  endfacet
  facet normal 1 -0 0
    outer loop
      vertex 2.5 -7.06072 -1
      vertex 2.5 7.06072 -3
      vertex 2.5 7.06072 -1
    endloop
  endfacet
  facet normal 1 0 0
    outer loop
      vertex 2.5 7.06072 -3
      vertex 2.5 -7.06072 -1
      vertex 2.5 -7.06072 -3
    endloop
  endfacet
endsolid OpenSCAD_Model
