<?xml version="1.0" encoding="UTF-8" standalone="no"?>
<svg
   width="198.42578pt"
   height="198.60156pt"
   viewBox="0 0 198.42578 198.60156"
   version="1.1"
   id="svg12"
   sodipodi:docname="IMG_20230225_134303_067.svg"
   inkscape:version="1.2.2 (b0a8486541, 2022-12-01)"
   xmlns:inkscape="http://www.inkscape.org/namespaces/inkscape"
   xmlns:sodipodi="http://sodipodi.sourceforge.net/DTD/sodipodi-0.dtd"
   xmlns="http://www.w3.org/2000/svg"
   xmlns:svg="http://www.w3.org/2000/svg">
  <defs
     id="defs16" />
  <sodipodi:namedview
     id="namedview14"
     pagecolor="#ffffff"
     bordercolor="#666666"
     borderopacity="1.0"
     inkscape:showpageshadow="2"
     inkscape:pageopacity="0.0"
     inkscape:pagecheckerboard="0"
     inkscape:deskcolor="#d1d1d1"
     inkscape:document-units="pt"
     showgrid="false"
     inkscape:zoom="1.6819299"
     inkscape:cx="37.754249"
     inkscape:cy="64.509228"
     inkscape:window-width="1920"
     inkscape:window-height="1017"
     inkscape:window-x="0"
     inkscape:window-y="32"
     inkscape:window-maximized="1"
     inkscape:current-layer="svg12" />
  <path
     id="path558"
     style="color:#000000;overflow:visible;fill:#ffffff;fill-rule:evenodd;stroke-width:1.61636;paint-order:stroke markers fill;stop-color:#000000"
     d="m 98.703192,0.38300497 c -3.05951,0 -9.58388,0.306245 -9.83496,0.461426 -0.0977,0.06038 -0.65834,0.150181 -1.24658,0.20068403 -2.47354,0.212364 -3.97429,0.38676 -4.12353,0.479004 -0.0876,0.05411 -0.63936,0.15121 -1.22754,0.215332 -0.58819,0.06412 -2.17406,0.361719 -3.52296,0.660644 -1.34889,0.298925 -2.74194,0.591561 -3.09668,0.650391 -0.35474,0.05883 -1.20792,0.277024 -1.8955,0.484863 -0.68759,0.207839 -1.45104,0.412352 -1.69629,0.455566 -0.43786,0.07715 -2.35268,0.651314 -3.01026,0.902344 -0.18394,0.07022 -0.49645,0.159648 -0.69433,0.199219 -0.19788,0.03957 -0.64948,0.181838 -1.00342,0.316406 -0.35394,0.134568 -0.69308,0.254002 -0.75439,0.265137 -1.25311,0.227548 -8.38593,3.246347 -12.28711,5.200195 -23.49051,11.764853 -41.45016,32.481791 -49.7841803,57.429199 -1.0426,3.120954 -2.72806,9.38011 -2.90039,10.76953 -0.0532,0.428888 -0.14764,0.86235 -0.20948,0.962408 -0.0618,0.10005 -0.17806,0.679942 -0.25927,1.289062 -0.0812,0.609105 -0.18400001,1.307483 -0.22852001,1.552733 -0.46399,2.556217 -0.87089,5.841802 -1.16016,9.364747 -0.21108,2.5707 -0.21049,12.321775 0.001,14.938465 0.14905,1.84009 0.22125,2.54148 0.48633,4.79298 0.0938,0.79688 0.32316,2.43177 0.4541,3.23291 0.0401,0.24525 0.13597,0.89691 0.21387,1.44873 0.51063001,3.61719 1.96854001,9.36557 3.67529001,14.49316 9.7684603,29.34741 32.8016003,52.55027 62.1093703,62.5664 1.22627,0.41909 2.25433,0.76169 2.2837,0.76319 0.0294,0.001 0.17941,0.0424 0.33398,0.0908 1.68687,0.52866 2.6013,0.7948 3.06738,0.89355 0.30657,0.0649 1.51132,0.3684 2.67627,0.67383 1.16495,0.30543 2.46973,0.61359 2.89893,0.68409 0.42919,0.0705 1.03084,0.17858 1.3374,0.24023 0.30657,0.0616 0.70815,0.13861 0.89209,0.17138 0.18394,0.0328 0.63554,0.12561 1.00342,0.20654 0.36788,0.0809 1.10412,0.19782 1.63769,0.26075 0.53358,0.063 1.0365,0.15637 1.11768,0.20654 0.12913,0.0798 0.71798,0.15123 3.9331,0.47754 0.36788,0.0373 1.51911,0.13185 2.55908,0.20948 1.03998,0.0776 1.9347,0.18412 1.9878,0.2373 0.14607,0.14607 13.539238,-0.044 15.073238,-0.21387 1.43116,-0.15847 2.18764,-0.24228 4.125,-0.45556 2.324,-0.25585 7.69749,-1.2587 10.25537,-1.91456 1.41021,-0.36159 2.81502,-0.71247 3.12159,-0.77929 1.46692,-0.31972 7.35291,-2.28497 10.14404,-3.38672 25.12815,-9.91902 45.49369,-30.16469 55.57324,-55.24658 1.92688,-4.79483 3.98379,-11.33259 4.59375,-14.60303 0.0572,-0.30657 0.15767,-0.70815 0.22412,-0.89209 0.0665,-0.18393 0.16709,-0.63553 0.22266,-1.00341 0.0556,-0.36789 0.20925,-1.13565 0.34131,-1.70655 0.31368,-1.35603 0.86956,-4.85069 1.0415,-6.54345 0.0747,-0.73576 0.17575,-1.68897 0.22413,-2.11817 0.29085,-2.58021 0.41662,-5.63093 0.42187,-10.25537 0.006,-5.21883 -0.17975,-8.725087 -0.646,-12.26367 -0.0404,-0.306562 -0.14557,-1.208295 -0.23437,-2.005372 -0.0888,-0.79707 -0.20132,-1.51419 -0.24902,-1.59375 -0.0477,-0.07956 -0.13991,-0.581168 -0.20508,-1.114748 -0.0652,-0.533572 -0.17304,-1.14861 -0.24024,-1.366695 -0.0672,-0.218092 -0.15741,-0.66969 -0.20068,-1.003417 -0.0433,-0.333735 -0.18887,-1.05951 -0.32373,-1.61133 -0.13487,-0.55182 -0.29359,-1.322408 -0.35156,-1.71387 -0.2268,-1.531073 -2.42817,-8.758243 -3.70606,-12.165527 C 181.77615,38.568013 160.96692,17.40465 134.92731,7.194529 129.86669,5.21026 122.04272,2.901903 118.68659,2.40156 c -0.47416,-0.07069 -0.9276,-0.17071 -1.00928,-0.221191 -0.0817,-0.05048 -0.63084,-0.147654 -1.21875,-0.216797 -0.58791,-0.06914 -1.14166,-0.1707 -1.23046,-0.225586 -0.0888,-0.05489 -0.75735,-0.166953 -1.48683,-0.249024 -0.72946,-0.08207 -1.57722,-0.183151 -1.88378,-0.224121 -1.48261,-0.198136 -4.1612,-0.51163503 -4.45899,-0.52148403 -0.18394,-0.0061 -1.63876,-0.08984 -3.2329,-0.186035 -1.59416,-0.0962 -4.0522,-0.174317 -5.462408,-0.174317 z M 139.61627,76.015818 c 0.88161,0.03694 2.97926,0.267675 3.49073,0.38379 0.28706,0.06517 0.82304,0.175552 1.19092,0.244627 1.06711,0.200243 1.35593,0.304193 3.39404,1.22754 2.47438,1.120995 4.49479,3.543368 5.20606,6.241703 0.14405,0.546487 0.30763,2.849565 0.36328,5.118157 0.11393,4.647885 -0.15534,6.578535 -1.20411,8.65137 -0.76832,1.518578 -2.75901,3.369405 -4.37841,4.070795 -1.17563,0.50919 -1.55709,0.84209 -1.04004,0.90674 0.12262,0.0154 0.29768,0.0411 0.38965,0.0571 0.54092,0.0943 2.87435,1.61753 3.62109,2.36426 1.28207,1.28206 2.34079,3.57436 2.59571,5.61622 0.0409,0.32791 0.11452,3.53763 0.1626,7.13378 0.0913,6.83126 0.16183,7.73764 0.70458,9.03662 0.18159,0.4346 0.32959,0.8267 0.32959,0.87305 0,0.0464 -2.39109,0.085 -5.31445,0.085 h -5.31592 l -0.25049,-0.55078 c -0.51802,-1.13693 -0.70549,-3.53769 -0.77637,-9.92871 -0.0637,-5.74109 -0.12533,-6.69774 -0.47754,-7.5293 -0.77821,-1.83736 -2.9155,-3.07014 -5.25586,-3.03076 -0.55182,0.009 -1.83012,0.0321 -2.84179,0.0498 l -1.83985,0.0322 v 10.47802 10.47949 h -5.35107 -5.35108 V 102.05195 76.07734 l 8.75098,-0.03955 c 4.81311,-0.02182 8.9525,-0.03225 9.19775,-0.02197 z m -95.761218,0.06006 h 5.23974 5.23975 V 87.33613 c 0,6.19266 0.075,11.25525 0.16699,11.25 0.092,-0.0052 3.22668,-5.069632 6.9668,-11.254395 l 6.80127,-11.245605 5.30127,-0.0044 5.30273,-0.0044 -0.74707,1.170413 c -0.41104,0.643792 -3.72797,5.85168 -7.36963,11.57373 l -6.62109,10.404787 6.59326,12.86719 c 3.62604,7.07737 6.93933,13.55806 7.36377,14.40087 l 0.77197,1.53223 h -5.41113 -5.41113 l -5.12403,-10.25537 c -2.81828,-5.64083 -5.18174,-10.25684 -5.25146,-10.25684 -0.0697,0 -0.84827,1.04591 -1.72998,2.32471 l -1.60254,2.32617 v 7.93067 7.93066 h -5.23975 -5.23974 v -25.9746 z m 42.36182,0.0015 h 5.23974 5.23974 v 22.29639 22.294922 h 8.806648 8.80664 v 3.67969 3.67822 H 100.26325 86.216872 v -25.97465 z m 46.041498,7.333013 0.0615,7.920405 0.0601,7.91895 2.39209,0.07909 c 4.70135,0.155092 6.30127,-0.413348 7.40332,-2.629388 0.52162,-1.04889 0.55435,-1.325542 0.5581,-4.79151 0.004,-3.642615 -0.1632,-5.512425 -0.55663,-6.247552 -0.35509,-0.66348 -1.7422,-1.747508 -2.50635,-1.958498 -0.40555,-0.111975 -2.23945,-0.223485 -4.0752,-0.24756 z" />
</svg>
