<?xml version="1.0" encoding="UTF-8" standalone="no"?>
<!-- Created with Inkscape (http://www.inkscape.org/) -->

<svg
   width="210mm"
   height="297mm"
   viewBox="0 0 210 297"
   version="1.1"
   id="svg77849"
   inkscape:version="1.2.2 (b0a8486541, 2022-12-01)"
   sodipodi:docname="BVM_B.svg"
   xmlns:inkscape="http://www.inkscape.org/namespaces/inkscape"
   xmlns:sodipodi="http://sodipodi.sourceforge.net/DTD/sodipodi-0.dtd"
   xmlns="http://www.w3.org/2000/svg"
   xmlns:svg="http://www.w3.org/2000/svg">
  <sodipodi:namedview
     id="namedview77851"
     pagecolor="#ffffff"
     bordercolor="#666666"
     borderopacity="1.0"
     inkscape:showpageshadow="2"
     inkscape:pageopacity="0.0"
     inkscape:pagecheckerboard="0"
     inkscape:deskcolor="#d1d1d1"
     inkscape:document-units="mm"
     showgrid="false"
     inkscape:zoom="2.3786088"
     inkscape:cx="266.54236"
     inkscape:cy="505.1272"
     inkscape:window-width="1920"
     inkscape:window-height="1035"
     inkscape:window-x="0"
     inkscape:window-y="0"
     inkscape:window-maximized="1"
     inkscape:current-layer="layer1" />
  <defs
     id="defs77846" />
  <g
     inkscape:label="Layer 1"
     inkscape:groupmode="layer"
     id="layer1">
    <path
       d="m 33.838363,152.71289 c 0,-0.14552 0.12609,-0.26458 0.2802,-0.26458 0.1541,0 0.20661,0.11906 0.11667,0.26458 -0.0899,0.14553 -0.21603,0.26459 -0.2802,0.26459 -0.0642,0 -0.11667,-0.11906 -0.11667,-0.26459 z m 5.74419,-0.0376 c -0.34905,-0.19535 -0.3726,-0.38363 -0.13648,-1.09141 0.15694,-0.47044 0.38815,-0.96845 0.51381,-1.10669 0.12566,-0.13825 0.22469,-0.6145 0.22006,-1.05834 -0.008,-0.74473 -0.0367,-0.76965 -0.37519,-0.32304 -0.31212,0.41182 -0.45872,0.43548 -0.98377,0.15883 -0.33935,-0.17881 -0.70447,-0.45611 -0.81139,-0.61623 -0.1345,-0.20145 -0.19563,-0.18925 -0.19843,0.0396 -0.002,0.1819 -0.12995,0.33073 -0.28381,0.33073 -0.17238,0 -0.24914,-0.55853 -0.19997,-1.45521 0.0556,-1.01429 0.18924,-1.45521 0.441,-1.45521 0.25377,0 0.33049,0.26306 0.25794,0.88448 -0.059,0.50507 0.0421,1.02029 0.23564,1.20106 0.20785,0.19415 0.3389,0.21023 0.3389,0.0416 0,-0.15126 0.11906,-0.27502 0.26458,-0.27502 0.14552,0 0.26634,0.2679 0.26848,0.59532 0.004,0.58381 0.0105,0.58253 0.34502,-0.0661 0.18762,-0.3638 0.24539,-0.70114 0.12839,-0.74965 -0.36463,-0.15118 -0.23276,-0.57327 0.17911,-0.57327 0.21551,0 0.46654,-0.29765 0.55785,-0.66145 0.18813,-0.74959 0.90026,-0.90548 0.90645,-0.19844 0.003,0.37061 0.0507,0.38932 0.23788,0.0937 0.30206,-0.47704 1.18718,-0.15681 0.98962,0.35803 -0.0975,0.25403 -0.0184,0.3321 0.23713,0.23405 0.2836,-0.10883 0.3834,0.0647 0.3834,0.66663 0,0.61768 0.0964,0.77675 0.40025,0.66017 0.22013,-0.0845 0.56165,-0.0196 0.75891,0.14408 0.29424,0.2442 0.36103,0.0361 0.37176,-1.1587 0.0119,-1.3261 -0.0298,-1.4334 -0.46655,-1.19967 -0.52243,0.2796 -1.22692,-0.25783 -0.86363,-0.65884 0.10787,-0.11909 0.0607,-0.13911 -0.10496,-0.0445 -0.18779,0.10729 -0.34401,-0.12039 -0.41514,-0.60506 -0.0627,-0.42739 -0.0165,-0.71681 0.10265,-0.64315 0.11919,0.0737 0.21671,-0.16701 0.21671,-0.53483 0,-0.48576 -0.1086,-0.6271 -0.39687,-0.51648 -0.45664,0.17523 -0.56049,2.08 -0.12798,2.34731 0.1479,0.0914 0.20582,0.26825 0.12873,0.393 -0.15682,0.25374 -1.67989,-0.11689 -2.06567,-0.50266 -0.13669,-0.13669 -0.40655,-0.18789 -0.5997,-0.11377 -0.28073,0.10773 -0.31934,-0.25473 -0.19249,-1.80661 0.0873,-1.06776 0.27057,-2.01458 0.4073,-2.10404 0.13674,-0.0895 0.28048,-0.50619 0.31943,-0.92604 0.0389,-0.41986 0.16,-0.97174 0.26901,-1.2264 0.12049,-0.28149 0.0834,-0.46302 -0.0947,-0.46302 -0.17357,0 -0.30372,-0.56592 -0.31947,-1.38906 -0.0254,-1.32445 -0.0368,-1.34599 -0.24583,-0.46303 -0.12058,0.50933 -0.26589,1.43057 -0.32289,2.04722 -0.057,0.61664 -0.18451,1.20203 -0.28334,1.30087 -0.0988,0.0988 -0.18152,0.78493 -0.18375,1.52466 -0.002,0.73973 -0.10615,1.50608 -0.23093,1.70301 -0.34428,0.5433 -1.35252,-0.0921 -1.35252,-0.85243 0,-0.35611 -0.15972,-0.60805 -0.38549,-0.60805 -0.52117,0 -0.77388,0.739 -0.35107,1.02664 0.2278,0.15497 0.12181,0.20551 -0.32177,0.15344 -0.55497,-0.0651 -0.64859,-0.19867 -0.58151,-0.82939 0.0482,-0.45307 -0.0257,-0.68648 -0.18588,-0.58747 -0.1462,0.0904 -0.4453,-0.16667 -0.66466,-0.57117 -0.23974,-0.44207 -0.40307,-0.56834 -0.40944,-0.31653 -0.006,0.23041 0.0722,0.50175 0.17345,0.60297 0.27226,0.27227 0.37549,0.92131 0.41264,2.59443 0.0358,1.61184 -0.41208,2.55481 -0.98686,2.07778 -0.17598,-0.14605 -0.40653,-0.17899 -0.51232,-0.0732 -0.1058,0.1058 -0.15437,-0.34172 -0.10795,-0.99448 0.0666,-0.93668 0.17779,-1.17142 0.52747,-1.11367 0.75755,0.12509 0.80678,-0.43488 0.10035,-1.14131 -0.63987,-0.63987 -0.97508,-1.92623 -0.41112,-1.57769 0.14552,0.0899 0.26458,0.0374 0.26458,-0.11668 0,-0.15411 -0.11906,-0.2802 -0.26458,-0.2802 -0.36556,0 -0.31456,-2.41962 0.0956,-4.53796 0.28224,-1.45756 0.28057,-1.73673 -0.01,-1.62534 -0.28733,0.11025 -0.35052,-1.75476 -0.35052,-10.34485 v -10.47942 l 10.51719,2.3e-4 c 11.91187,2.5e-4 15.32379,0.23135 18.39345,1.24589 5.0461,1.66775 7.444,5.5276 6.43632,10.36043 -0.21089,1.01144 -0.56631,2.19263 -0.78983,2.62486 -0.5856,1.13244 -2.9993,3.70162 -3.68081,3.91792 -0.49207,0.15618 -0.39194,0.23905 0.65915,0.54554 0.68166,0.19876 1.45527,0.6342 1.71914,0.96764 0.26387,0.33344 0.67686,0.68116 0.91775,0.77271 1.03444,0.39315 2.93396,4.21802 2.46866,4.97089 -0.0879,0.14216 -0.43923,0.25848 -0.78082,0.25848 -0.49081,0 -0.59205,0.11098 -0.4827,0.52916 0.0883,0.33764 0.007,0.53064 -0.2232,0.53322 -0.283,0.003 -0.27581,0.0583 0.0331,0.25358 0.21707,0.13724 0.6499,0.18546 0.96184,0.10717 0.60868,-0.15277 0.58697,-0.37942 0.38969,4.06697 -0.0156,0.3515 -0.19535,0.59531 -0.43891,0.59531 -0.22687,0 -0.34106,0.11557 -0.25377,0.25682 0.0873,0.14124 -0.0428,0.64647 -0.28906,1.12273 -0.39448,0.76283 -0.46907,0.80522 -0.62663,0.35606 -0.13579,-0.38711 -0.23035,-0.42652 -0.39278,-0.16371 -0.33091,0.53543 -0.95595,-1.54682 -0.76967,-2.56408 0.11571,-0.63193 0.29813,-0.8599 0.68804,-0.8599 0.40032,0 0.49661,0.12992 0.3922,0.52917 -0.0761,0.29104 -0.0177,0.52916 0.12974,0.52916 0.14747,0 0.20105,0.17479 0.11908,0.38841 -0.082,0.21362 -0.028,0.46322 0.12,0.55468 0.17447,0.10783 0.23147,-0.34568 0.16217,-1.29024 -0.0783,-1.06776 -0.0211,-1.42361 0.21443,-1.33323 0.17671,0.0678 0.39245,-0.0621 0.47942,-0.28878 0.11684,-0.30448 -0.0124,-0.41209 -0.49502,-0.41209 -0.35924,0 -0.65316,0.11907 -0.65316,0.26459 0,0.14552 -0.13157,0.26458 -0.29237,0.26458 -0.18107,0 -0.25432,-0.39908 -0.1924,-1.04829 0.0957,-1.00389 0.0717,-1.04153 -0.56753,-0.88882 -0.88142,0.21058 -0.86973,0.17475 -0.26782,0.82082 0.76909,0.82552 0.65388,1.07611 -0.53663,1.16722 -0.58465,0.0447 -1.0609,0.20043 -1.05833,0.34595 0.003,0.14552 0.15349,0.26458 0.3354,0.26458 0.1819,0 0.4182,0.11906 0.52511,0.26458 0.2803,0.38153 0.23905,1.78405 -0.0661,2.24896 -0.22673,0.34539 -0.29259,0.34703 -0.50766,0.0126 -0.13592,-0.21133 -0.18842,-0.47923 -0.11667,-0.59531 0.0718,-0.11611 -0.0604,-0.21109 -0.29364,-0.21109 -0.25225,0 -0.39259,-0.18093 -0.34635,-0.44654 0.0549,-0.31548 -0.17163,-0.49919 -0.77194,-0.62595 -0.51288,-0.1083 -0.88614,-0.07 -0.94165,0.0965 -0.10302,0.30904 -0.7222,0.0148 -0.7222,-0.34315 0,-0.12626 0.20836,-0.28402 0.46302,-0.35057 0.44097,-0.11524 0.44097,-0.12246 0,-0.15169 -0.28476,-0.0189 -0.46302,-0.24532 -0.46302,-0.58817 0,-0.38683 0.12148,-0.51085 0.39687,-0.40517 0.21828,0.0838 0.39688,0.037 0.39688,-0.10399 0,-0.14095 0.17859,-0.25628 0.39687,-0.25628 0.21828,0 0.39688,0.1786 0.39688,0.39688 0,0.21828 0.10448,0.39687 0.23218,0.39687 0.1277,0 0.38041,-0.17859 0.56157,-0.39687 0.26322,-0.31717 0.26121,-0.47901 -0.01,-0.80579 -0.18666,-0.22491 -0.50752,-0.3444 -0.71303,-0.26554 -0.2055,0.0789 -0.60315,0.0206 -0.88365,-0.12956 -0.39397,-0.21085 -0.50999,-0.18617 -0.50999,0.10848 0,0.31416 -0.16444,0.33095 -0.93256,0.0952 -0.94869,-0.29115 -0.94642,-0.56929 0.007,-0.7985 0.34263,-0.0824 0.22605,-0.1381 -0.33073,-0.15798 -0.47295,-0.0169 -0.8599,0.0884 -0.8599,0.23389 0,0.14553 -0.17859,0.26459 -0.39687,0.26459 -0.48656,0 -0.54496,-1.23347 -0.0661,-1.39723 0.1819,-0.0622 0.0701,-0.0705 -0.24837,-0.0184 -0.74974,0.12259 -1.08494,-0.42312 -0.5156,-0.83942 0.34095,-0.24931 0.38405,-0.46589 0.18948,-0.95205 -0.13853,-0.34613 -0.25941,-0.53584 -0.26864,-0.42158 -0.009,0.11425 -0.25488,0.0803 -0.54592,-0.0755 -0.41809,-0.22375 -0.52917,-0.20121 -0.52917,0.10737 0,0.70325 -0.48881,0.71574 -1.80994,0.0463 -0.71534,-0.36249 -1.37464,-0.58504 -1.46513,-0.49455 -0.0905,0.0905 -0.16451,0.0469 -0.16451,-0.0968 0,-0.15057 -0.86926,-0.25668 -2.05053,-0.25032 -1.96962,0.0106 -2.04725,-0.0121 -1.96774,-0.57648 0.0643,-0.45637 -0.0492,-0.58753 -0.50833,-0.58753 -0.32511,0 -0.80885,0.19704 -1.07497,0.43788 -0.4599,0.41621 -0.48385,0.39251 -0.48385,-0.4786 0,-0.50406 -0.16734,-1.14533 -0.37187,-1.42503 -0.34783,-0.47569 -0.36294,-0.46186 -0.23374,0.21401 0.11023,0.57663 0.0384,0.7242 -0.35573,0.73062 -0.46216,0.008 -0.46414,0.0254 -0.0308,0.27773 0.25466,0.14832 0.46302,0.37118 0.46302,0.49523 0,0.27486 -1.48501,0.82079 -1.68599,0.61981 -0.0789,-0.0789 -0.0735,0.288 0.0121,0.81536 0.1095,0.67478 0.0574,0.95882 -0.176,0.95882 -0.25932,0 -0.26236,0.0834 -0.0139,0.38277 0.18934,0.22814 0.33124,1.35343 0.35126,2.78556 0.0279,1.99259 0.10338,2.39677 0.44234,2.36753 0.2248,-0.0194 0.67662,0.0507 1.00405,0.15572 0.67935,0.21793 0.77979,1.2574 0.31591,3.26934 -0.28306,1.22765 0.1018,2.68075 0.71,2.68075 0.16579,0 0.37322,0.26789 0.46097,0.59531 0.24211,0.90345 0.2097,0.99219 -0.36241,0.99219 -0.38805,0 -0.52916,0.17639 -0.52916,0.66146 0,0.3638 -0.0893,0.65963 -0.19844,0.6574 -0.32493,-0.007 -1.01722,-0.51665 -0.70728,-0.52106 0.16561,-0.002 0.23612,-0.33642 0.16841,-0.7978 -0.10024,-0.68292 -0.0327,-0.79375 0.4837,-0.79375 0.5935,0 0.59458,-0.006 0.0962,-0.55839 -0.42758,-0.47369 -0.517,-0.49375 -0.58957,-0.13229 -0.047,0.23435 -0.21206,0.42609 -0.3667,0.42609 -0.18659,0 -0.21505,-0.42266 -0.0846,-1.25677 0.10809,-0.69122 0.18514,-1.52466 0.17122,-1.85208 -0.0139,-0.32742 0.0685,-0.59531 0.1832,-0.59531 0.11467,0 0.15731,-0.43835 0.0948,-0.9741 -0.10212,-0.87471 -0.1489,-0.92599 -0.45844,-0.50267 -0.18959,0.25928 -0.4717,0.39294 -0.6269,0.29702 -0.15521,-0.0959 -0.28219,-0.0483 -0.28219,0.1058 0,0.15411 -0.11906,0.2802 -0.26459,0.2802 -0.14552,0 -0.26458,-0.23813 -0.26458,-0.52917 0,-0.29104 -0.0981,-0.52917 -0.2179,-0.52917 -0.11985,0 -0.20915,0.71428 -0.19844,1.58727 0.0161,1.31152 0.0978,1.58732 0.4705,1.5875 0.30704,1.6e-4 0.50723,0.2998 0.62707,0.93861 0.224,1.19405 0.0395,1.36985 -0.68123,0.64912 -0.31529,-0.31529 -0.62575,-0.52077 -0.6899,-0.45662 -0.0641,0.0642 0.0648,0.26724 0.28663,0.45132 0.2218,0.18407 0.40327,0.43917 0.40327,0.56687 0,0.41437 -0.75984,0.24526 -1.03714,-0.23084 -0.25684,-0.44097 -0.27007,-0.44097 -0.27773,0 -0.004,0.25467 -0.18664,0.46302 -0.40492,0.46302 -0.21828,0 -0.39688,-0.12007 -0.39688,-0.26682 0,-0.16447 -0.18954,-0.14845 -0.49411,0.0418 -0.53088,0.33154 -1.48799,0.12033 -1.24397,-0.27451 0.0812,-0.1313 -0.0401,-0.31073 -0.26945,-0.39874 -0.76133,-0.29215 -1.13504,-0.16613 -1.09472,0.36915 0.0219,0.29104 0.20701,0.52916 0.41129,0.52916 0.25607,0 0.32188,0.1849 0.2119,0.59532 -0.0877,0.32742 -0.16117,0.69163 -0.16316,0.80936 -0.002,0.11773 -0.15034,0.12337 -0.32969,0.0125 -0.53474,-0.33049 -1.23021,-0.29267 -1.37113,0.0746 -0.0725,0.18885 -0.0281,0.40746 0.0987,0.48579 0.12674,0.0783 0.27739,0.002 0.33479,-0.17067 0.13116,-0.39348 0.73459,-0.0447 0.73459,0.42462 0,0.39637 -1.03196,0.4659 -1.66414,0.11212 z m -4.82945,-7.61701 c 0.0837,-0.13547 0.0312,-0.32109 -0.11668,-0.41249 -0.14789,-0.0914 -0.2689,0.0194 -0.2689,0.2463 0,0.46475 0.15877,0.53318 0.38558,0.16619 z m 13.10817,-0.28287 c 0,-0.14552 -0.11906,-0.26458 -0.26458,-0.26458 -0.14552,0 -0.26458,0.11906 -0.26458,0.26458 0,0.14553 0.11906,0.26459 0.26458,0.26459 0.14552,0 0.26458,-0.11906 0.26458,-0.26459 z m -3.2839,-1.25543 c -0.28456,-0.28455 -0.43562,0.11397 -0.23587,0.62225 0.18738,0.4768 0.20153,0.47763 0.2942,0.0172 0.0535,-0.26605 0.0273,-0.55378 -0.0583,-0.63941 z m -3.1172,0.0578 c -0.0815,-0.0815 -0.2294,0.0654 -0.32876,0.32632 -0.14359,0.37708 -0.1132,0.40747 0.14811,0.14811 0.18082,-0.17948 0.26212,-0.39297 0.18065,-0.47443 z m 25.18652,-1.99299 c 0,-0.28245 -0.10518,-0.51355 -0.23372,-0.51355 -0.12855,0 -0.30242,-0.26269 -0.38639,-0.58376 -0.084,-0.32107 -0.21082,-0.52558 -0.28192,-0.45448 -0.0711,0.0711 -0.002,0.62978 0.15304,1.24152 0.27995,1.10293 0.74899,1.29724 0.74899,0.31027 z m -28.12968,-0.56316 c -0.0845,-0.21107 -0.14715,-0.14837 -0.15985,0.15985 -0.0115,0.27892 0.051,0.43519 0.13897,0.34727 0.0879,-0.0879 0.0973,-0.31613 0.0209,-0.50712 z m 6.24593,-1.00873 c -0.0977,-0.37368 -0.008,-0.52916 0.30497,-0.52916 0.56202,0 0.31795,-0.42289 -0.34397,-0.59598 -0.49487,-0.12941 -0.523,0.11123 -0.15474,1.32358 0.16708,0.55003 0.34248,0.37037 0.19374,-0.19844 z m 22.60584,-0.15985 c -0.0879,-0.0879 -0.31612,-0.0973 -0.50711,-0.0209 -0.21107,0.0845 -0.14838,0.14715 0.15985,0.15985 0.27891,0.0115 0.43518,-0.0511 0.34726,-0.13897 z m 1.24718,-0.0803 c 0.0816,-0.13208 0.0367,-0.51904 -0.0999,-0.8599 -0.16923,-0.42235 -0.25367,-0.47916 -0.26509,-0.17837 -0.009,0.24276 -0.089,0.62972 -0.17737,0.8599 -0.16906,0.44054 0.28753,0.5907 0.54237,0.17837 z m -29.46609,-0.36178 c -0.0109,-0.10551 -0.0217,-0.40018 -0.0239,-0.65485 -0.004,-0.39569 -0.0413,-0.40531 -0.26054,-0.0661 -0.34439,0.5329 -0.33272,1.12514 0.0198,1.00762 0.15644,-0.0522 0.2755,-0.18113 0.26459,-0.28663 z m 24.50517,-0.64981 c -0.0671,-0.25743 -0.12638,-0.11087 -0.13177,0.32569 -0.005,0.43657 0.0495,0.64719 0.12197,0.46806 0.0725,-0.17913 0.0769,-0.53632 0.01,-0.79375 z m -0.57241,-0.10676 c 0.16497,-0.75111 0.65364,-1.31793 0.65364,-0.75817 0,0.1627 0.10869,0.22864 0.24153,0.14654 0.13283,-0.0821 0.46975,0.16404 0.7487,0.54697 0.46572,0.63935 0.55951,0.66664 1.14754,0.33395 l 0.64036,-0.36229 -0.79289,-0.0919 c -0.88736,-0.10282 -1.18147,-0.42504 -1.18743,-1.3009 -0.002,-0.32742 -0.12312,-0.59531 -0.26864,-0.59531 -0.14552,0 -0.26458,0.19133 -0.26458,0.42518 0,0.27556 -0.1445,0.36974 -0.41062,0.26762 -0.23546,-0.0904 -0.34166,-0.046 -0.24897,0.10398 0.0889,0.14385 -0.0835,0.26155 -0.38313,0.26155 -0.48597,0 -0.66774,0.26912 -0.57766,0.85525 0.0164,0.10658 -0.26636,0.26811 -0.6283,0.35895 -0.85548,0.21471 -0.66425,0.49813 0.35971,0.53313 0.67943,0.0232 0.83141,-0.0902 0.97074,-0.72457 z m -28.36325,-0.3394 c 0.0791,-0.20624 -0.0137,-0.43546 -0.20633,-0.50937 -0.23909,-0.0917 -0.30795,0.0272 -0.21701,0.37498 0.15898,0.60793 0.23265,0.63132 0.42334,0.13439 z m 0.78323,-0.15455 c 0.0762,-0.29125 0.0305,-0.46281 -0.10143,-0.38126 -0.13195,0.0815 -0.23991,0.31984 -0.23991,0.52953 0,0.54762 0.17979,0.46953 0.34134,-0.14827 z m 25.78076,0.10509 c -0.0879,-0.0879 -0.31613,-0.0973 -0.50712,-0.0209 -0.21107,0.0845 -0.14837,0.14715 0.15985,0.15985 0.27892,0.0115 0.43519,-0.0511 0.34727,-0.13897 z m 6.66764,-1.24482 c 0.0102,-0.11773 -0.10046,-0.14047 -0.24599,-0.0505 -0.14552,0.0899 -0.25621,0.42438 -0.24598,0.74322 0.0179,0.55889 0.0267,0.56071 0.24598,0.0505 0.12507,-0.29105 0.23576,-0.62549 0.24599,-0.74322 z m 0.81235,0.19843 c 0,-0.22687 -0.11906,-0.3389 -0.26459,-0.24896 -0.14552,0.0899 -0.26458,0.27555 -0.26458,0.41249 0,0.13693 0.11906,0.24896 0.26458,0.24896 0.14553,0 0.26459,-0.18562 0.26459,-0.41249 z m -24.14895,-0.29796 c 0.0514,-0.15428 -0.12279,-0.33707 -0.38714,-0.4062 -0.26526,-0.0694 -0.50087,-0.39414 -0.52578,-0.72475 -0.0248,-0.32948 -0.23011,-0.80347 -0.45621,-1.05331 -0.2261,-0.24983 -0.41109,-0.71276 -0.41109,-1.02872 0,-0.31597 -0.11806,-0.57448 -0.26236,-0.57448 -0.27984,0 -0.20734,1.47057 0.087,1.76493 0.0964,0.0964 0.17535,0.38351 0.17535,0.63794 0,0.54575 1.08054,1.8546 1.43867,1.74264 0.13643,-0.0427 0.29012,-0.20377 0.34155,-0.35805 z m -9.07873,-0.67861 c 0.35242,-1.74974 0.38478,-2.3151 0.13253,-2.3151 -0.15047,0 -0.21312,0.0978 -0.13922,0.21741 0.0739,0.11957 -0.0381,0.5499 -0.24897,0.95628 -0.44049,0.84904 -0.50376,1.73672 -0.12379,1.73672 0.14275,0 0.3135,-0.26789 0.37945,-0.59531 z m 29.08677,-0.86837 c -0.20987,-0.54692 -0.35701,-0.48247 -0.35701,0.15638 0,0.29963 0.11386,0.47441 0.25303,0.3884 0.13917,-0.086 0.18596,-0.33116 0.10398,-0.54478 z m -24.8754,-1.33482 c -0.17146,-0.4468 -0.61703,-0.23575 -0.61703,0.29227 0,0.21553 0.16047,0.31138 0.38017,0.22708 0.20909,-0.0802 0.31568,-0.31394 0.23686,-0.51935 z m 10.67621,0.10306 c -0.0845,-0.21106 -0.14715,-0.14837 -0.15985,0.15986 -0.0115,0.27891 0.051,0.43518 0.13897,0.34726 0.0879,-0.0879 0.0973,-0.31612 0.0209,-0.50712 z m -9.78958,-0.52916 c -0.0845,-0.21107 -0.14716,-0.14838 -0.15985,0.15985 -0.0115,0.27891 0.051,0.43518 0.13896,0.34726 0.0879,-0.0879 0.0973,-0.31612 0.0209,-0.50711 z m 5.58899,-0.35427 c -0.0815,-0.0815 -0.2294,0.0654 -0.32876,0.32632 -0.14359,0.37708 -0.1132,0.40747 0.14811,0.14811 0.18082,-0.17948 0.26212,-0.39297 0.18065,-0.47443 z m -6.91191,-0.43948 c -0.0845,-0.21107 -0.14715,-0.14838 -0.15985,0.15985 -0.0115,0.27891 0.0511,0.43518 0.13897,0.34726 0.0879,-0.0879 0.0973,-0.31612 0.0209,-0.50711 z m -3.89301,-1.00873 c 0,-0.35278 -0.0285,-0.35278 -0.25648,0 -0.14106,0.21828 -0.25648,0.57547 -0.25648,0.79375 0,0.35278 0.0285,0.35278 0.25648,0 0.14107,-0.21828 0.25648,-0.57547 0.25648,-0.79375 z m 6.67451,0.0662 c -0.0767,-0.40019 -0.19045,-0.57485 -0.25285,-0.38815 -0.11254,0.33668 0.0888,1.11575 0.28833,1.11575 0.0571,0 0.0412,-0.32742 -0.0355,-0.7276 z m 12.92195,-3.04271 c 1.30134,-0.65673 1.83308,-1.46504 1.839,-2.79552 0.01,-2.19813 -1.06562,-2.7291 -5.87781,-2.90216 l -3.64329,-0.13102 v 2.79349 c 0,1.53642 -0.0723,2.98182 -0.1606,3.21201 -0.14133,0.36829 0.24879,0.41851 3.25123,0.41851 3.01228,0 3.54997,-0.0697 4.59147,-0.59531 z m -15.35502,-0.54586 c 0,-0.0455 -0.3756,-0.43249 -0.83467,-0.8599 -0.80972,-0.75387 -0.81594,-0.45866 -0.0101,0.47967 0.34515,0.4019 0.84479,0.62678 0.84479,0.38023 z m 3.27068,-1.37242 c -0.0838,-0.21828 -0.19909,-0.39688 -0.25628,-0.39688 -0.0572,0 -0.10398,0.1786 -0.10398,0.39688 0,0.21828 0.11532,0.39687 0.25628,0.39687 0.14095,0 0.18774,-0.17859 0.10398,-0.39687 z m 12.28402,-5.2639 c -0.18764,-0.203 -0.4324,-0.31384 -0.54391,-0.2463 -0.30253,0.18324 0.0439,0.61541 0.49338,0.61541 0.32172,0 0.33075,-0.0659 0.0505,-0.36911 z m -10.92949,31.05268 c -0.0974,-0.15761 -0.10197,-0.58595 -0.0101,-0.95186 0.14819,-0.59043 0.26264,-0.64529 1.0171,-0.48755 1.1348,0.23726 1.69605,0.77412 1.30363,1.24697 -0.36539,0.44026 -2.06971,0.58221 -2.3106,0.19244 z m 7.81021,0.0374 c -0.77983,-0.21519 -1.13911,-1.61681 -0.41445,-1.61681 0.22794,0 0.41445,0.17157 0.41445,0.38126 0,0.2097 0.13181,0.46273 0.29292,0.5623 0.19945,0.12327 0.23278,-0.008 0.10446,-0.41278 -0.10366,-0.32661 -0.0646,-0.84753 0.0868,-1.15762 0.15142,-0.31008 0.35126,-1.36037 0.44409,-2.33398 0.13171,-1.38138 0.2517,-1.73838 0.54629,-1.62534 0.4596,0.17637 0.49575,-0.21684 0.06,-0.65259 -0.24695,-0.24694 -0.23225,-0.31839 0.0661,-0.32155 0.33238,-0.004 0.33288,-0.0362 0.004,-0.24442 -0.29317,-0.1855 -0.3097,-0.3249 -0.0724,-0.61078 0.23065,-0.27792 0.23187,-0.44596 0.005,-0.67295 -0.3746,-0.3746 0.35703,-0.72652 0.9986,-0.48033 0.32612,0.12514 0.39233,0.43905 0.29897,1.41737 -0.066,0.69114 -0.0461,1.43522 0.0441,1.6535 0.24397,0.59022 0.82551,0.60547 0.82551,0.0216 0,-0.74853 0.28608,-1.36249 0.55689,-1.19513 0.13027,0.0805 0.23686,0.0109 0.23686,-0.15483 0,-0.18927 0.27042,-0.24442 0.7276,-0.14838 1.08372,0.22765 1.53164,-0.14619 1.08272,-0.90366 -0.28004,-0.47253 -0.2852,-0.62451 -0.0244,-0.71897 0.1819,-0.0659 0.33073,-0.45245 0.33073,-0.85907 0,-0.40662 0.17859,-0.88753 0.39687,-1.06868 0.2618,-0.21727 0.39688,-0.23113 0.39688,-0.0407 0,0.15877 0.17859,0.22014 0.39687,0.13638 0.21829,-0.0838 0.39688,-0.0302 0.39688,0.11895 0,0.14919 0.0723,0.45959 0.1606,0.68977 0.10151,0.26453 0.0177,0.41851 -0.22789,0.41851 -0.27595,0 -0.35031,0.19977 -0.25667,0.68961 0.0809,0.42332 -0.01,0.77933 -0.23513,0.92198 -0.25128,0.15914 -0.26532,0.23367 -0.0445,0.23645 0.17733,0.002 0.25389,0.18264 0.17013,0.40092 -0.0957,0.24929 0.003,0.39688 0.26458,0.39688 0.26186,0 0.36025,-0.14759 0.26459,-0.39688 -0.0934,-0.24337 2.2e-4,-0.39687 0.24203,-0.39687 0.21687,0 0.46781,0.20836 0.55764,0.46302 0.0898,0.25466 0.22774,0.59696 0.30647,0.76068 0.0865,0.17995 -0.12277,0.29765 -0.52934,0.29765 -0.36987,0 -0.67248,-0.11876 -0.67248,-0.2639 0,-0.1474 -0.17373,-0.11973 -0.39351,0.0627 -0.21643,0.17962 -0.58925,0.25146 -0.8285,0.15965 -0.3829,-0.14693 -0.41295,-7.9e-4 -0.25094,1.22056 0.10122,0.76311 0.31004,1.53928 0.46402,1.72482 0.20951,0.25245 0.15529,0.3426 -0.21545,0.35824 -0.36993,0.0156 -0.39489,0.0568 -0.0985,0.16272 0.21828,0.078 0.54917,0.33424 0.73532,0.56939 0.29668,0.3748 0.32932,0.34657 0.26458,-0.22887 -0.0406,-0.36103 -0.18947,-0.73925 -0.33078,-0.84048 -0.41303,-0.29588 0.0345,-0.54166 0.6377,-0.35022 0.30412,0.0965 0.48466,0.28599 0.4012,0.42103 -0.0835,0.13505 0.17569,0.24554 0.57589,0.24554 0.69327,0 0.70338,-0.0178 0.21406,-0.37555 -0.28248,-0.20655 -0.52387,-0.47444 -0.53645,-0.59531 -0.0623,-0.59867 -0.4766,-1.14538 -0.86535,-1.14176 -0.37733,0.004 -0.38233,0.0379 -0.0378,0.26053 0.34326,0.22183 0.3373,0.25703 -0.0441,0.26054 -0.24253,0.002 -0.50102,0.15288 -0.57442,0.33478 -0.0734,0.1819 -0.14285,-0.11576 -0.15434,-0.66146 l -0.0209,-0.99219 h 1.19063 c 0.69407,0 1.19062,0.12215 1.19062,0.29289 0,0.16109 0.17859,0.22062 0.39688,0.13229 0.21828,-0.0883 0.5747,-0.23257 0.79204,-0.32054 0.25701,-0.10403 0.48241,0.0579 0.64469,0.46302 0.18378,0.45884 0.25393,0.50098 0.26629,0.15994 0.0197,-0.54367 -0.05,-0.52349 2.07584,-0.60058 1.84551,-0.0669 2.28545,0.27885 2.12443,1.66974 -0.12242,1.0574 -0.87063,1.05776 -1.1822,5.3e-4 l -0.25678,-0.8713 -0.19078,1.38933 c -0.17498,1.27425 -0.26907,1.42205 -1.13579,1.78419 -0.51975,0.21716 -1.05436,0.32725 -1.18803,0.24464 -0.13367,-0.0826 -0.21032,0.002 -0.17033,0.18817 0.04,0.1861 -0.0662,0.34378 -0.23598,0.35039 -0.16977,0.007 -0.39798,0.10133 -0.50712,0.21047 -0.3145,0.31449 -1.11147,0.23068 -1.25793,-0.13229 -0.0801,-0.19842 -0.14181,-0.14639 -0.15434,0.13006 -0.0282,0.62216 -1.70063,0.47612 -1.82615,-0.15947 -0.074,-0.37485 -0.136,-0.38224 -0.46302,-0.0552 -0.20765,0.20771 -0.37755,0.50518 -0.37755,0.66109 0,0.39175 -0.45542,0.35696 -0.61852,-0.0473 -0.0797,-0.19757 -0.14187,-0.14431 -0.15434,0.13229 -0.0157,0.3488 -0.24934,0.46302 -0.94693,0.46302 -0.80542,0 -0.92605,-0.0841 -0.92605,-0.64584 0,-0.35521 -0.13279,-0.72792 -0.2951,-0.82823 -0.3565,-0.22032 -0.14674,-2.56788 0.24099,-2.69712 0.14439,-0.0481 0.20526,-0.30649 0.13527,-0.57413 -0.07,-0.26764 0.002,-0.56662 0.16038,-0.66439 0.16432,-0.10155 0.29924,0.0274 0.31471,0.30087 0.0149,0.26325 0.12453,0.0643 0.24363,-0.4422 0.12012,-0.51078 0.11165,-1.09987 -0.019,-1.32291 -0.17823,-0.30421 -0.23754,-0.22295 -0.24362,0.33382 -0.004,0.40475 -0.18664,0.80444 -0.40493,0.8882 -0.21828,0.0838 -0.39687,0.44424 -0.39687,0.80107 0,0.36513 -0.11567,0.57727 -0.26458,0.48524 -0.14944,-0.0924 -0.26459,0.12434 -0.26459,0.49794 0,0.3638 -0.11906,0.73504 -0.26458,0.82498 -0.14984,0.0926 -0.26458,-0.12766 -0.26458,-0.50788 0,-0.62014 -0.0505,-0.6484 -0.66146,-0.37002 -0.67634,0.30816 -0.92287,1.34656 -0.39688,1.67165 0.14552,0.0899 0.26459,0.39462 0.26459,0.67707 0,0.28245 -0.11907,0.51355 -0.26459,0.51355 -0.14552,0 -0.26458,-0.12609 -0.26458,-0.2802 0,-0.15411 -0.13839,-0.19466 -0.30753,-0.0901 -0.20972,0.12961 -0.10903,0.35081 0.31659,0.69546 0.51622,0.418 0.55795,0.54726 0.24139,0.74754 -0.4338,0.27445 -0.88434,0.27812 -1.83795,0.015 z m 5.58616,-2.97276 c -0.66855,-0.25899 -0.8492,0.007 -0.35099,0.51583 0.39754,0.4064 0.47334,0.41336 0.61557,0.0565 0.0968,-0.24302 -0.01,-0.4736 -0.26458,-0.57232 z m 6.30355,-0.59279 c -0.2516,-0.23175 -0.28688,-0.18968 -0.1547,0.18445 0.0942,0.26656 0.18745,0.68328 0.20727,0.92604 0.0198,0.24276 0.0894,0.15976 0.15469,-0.18445 0.0653,-0.3442 -0.028,-0.76092 -0.20726,-0.92604 z m -21.76749,3.35975 c -0.25286,-0.25285 -0.2175,-0.61736 0.0599,-0.61736 0.12995,0 0.30481,0.1786 0.38857,0.39688 0.15476,0.4033 -0.12708,0.54186 -0.44846,0.22048 z m 1.14653,-0.35277 c 0,-0.29104 0.11906,-0.52917 0.26458,-0.52917 0.14552,0 0.26458,0.23813 0.26458,0.52917 0,0.29104 -0.11906,0.52916 -0.26458,0.52916 -0.14552,0 -0.26458,-0.23812 -0.26458,-0.52916 z m 12.17083,0.26458 c 0,-0.14552 0.11906,-0.26458 0.26458,-0.26458 0.14552,0 0.26459,0.11906 0.26459,0.26458 0,0.14552 -0.11907,0.26458 -0.26459,0.26458 -0.14552,0 -0.26458,-0.11906 -0.26458,-0.26458 z m -5.02708,-1.5874 c 0,-0.14552 0.11906,-0.26458 0.26458,-0.26458 0.14552,0 0.26458,0.11906 0.26458,0.26458 0,0.14552 -0.11906,0.26458 -0.26458,0.26458 -0.14552,0 -0.26458,-0.11906 -0.26458,-0.26458 z m -15.06036,-1.49314 c -0.0203,-0.55183 0.56182,-1.01104 0.87928,-0.69358 0.28215,0.28215 0.16752,0.59913 -0.21667,0.59913 -0.20615,0 -0.43488,0.14883 -0.50828,0.33073 -0.0734,0.1819 -0.14285,0.0756 -0.15433,-0.23628 z m 15.99608,-0.4144 c -0.32515,-1.42681 -0.25048,-3.64884 0.12261,-3.64884 0.14552,0 0.26837,0.26789 0.273,0.59531 0.0101,0.71645 0.61983,1.59065 0.9198,1.31881 0.11794,-0.10688 0.13593,0.0238 0.04,0.29033 -0.096,0.26657 -0.17627,0.62375 -0.1785,0.79375 -0.002,0.17734 -0.11338,0.13992 -0.26053,-0.0878 -0.20061,-0.31042 -0.25737,-0.24177 -0.26054,0.31511 -0.005,0.91341 -0.47503,1.21667 -0.65583,0.42331 z m -1.80288,-0.10622 c -0.27812,-0.27812 -0.22653,-1.75658 0.0775,-2.21965 0.23158,-0.35278 0.28948,-0.35278 0.52106,0 0.1433,0.21828 0.26236,0.64201 0.26459,0.94162 0.005,0.65668 -0.59548,1.54565 -0.86311,1.27803 z m -14.21004,-1.88892 c 0.002,-0.10914 0.11946,-0.37703 0.26053,-0.59532 0.2074,-0.32092 0.25725,-0.28295 0.26053,0.19844 0.002,0.32742 -0.11501,0.59531 -0.26053,0.59531 -0.14552,0 -0.26276,-0.0893 -0.26053,-0.19843 z m 4.11096,-0.30808 c -0.0852,-0.13784 -0.0421,-0.32032 0.0957,-0.40551 0.13784,-0.0852 0.32031,-0.0421 0.4055,0.0957 0.0852,0.13784 0.0421,0.32031 -0.0957,0.4055 -0.13784,0.0852 -0.32032,0.0421 -0.4055,-0.0957 z m 10.23863,-0.72697 c -0.39109,-0.15781 -0.45101,-1.67685 -0.0661,-1.67685 0.14552,0 0.26459,0.12756 0.26459,0.28348 0,0.15591 0.17859,0.46208 0.39687,0.68036 0.7078,0.70779 0.37615,1.10501 -0.59531,0.71301 z m -11.81466,-0.43491 c -0.58218,-0.42569 -0.47532,-1.59811 0.15664,-1.71851 0.36163,-0.0689 0.44383,0.11947 0.43183,0.98948 -0.008,0.59102 -0.0376,1.07459 -0.0654,1.07459 -0.0278,0 -0.2632,-0.1555 -0.52311,-0.34556 z m 19.31481,-2.25875 c -0.0853,-0.13804 0.0851,-0.53128 0.37866,-0.87386 l 0.53377,-0.62287 -0.0722,0.77334 c -0.0726,0.77788 -0.55167,1.19033 -0.84026,0.72339 z m 3.81079,-0.31436 c 0,-0.49625 0.82725,-0.60076 1.26784,-0.16017 0.40102,0.40102 0.37014,0.43305 -0.41739,0.43305 -0.46775,0 -0.85045,-0.12279 -0.85045,-0.27288 z m -2.64583,-3.69592 c 0,-0.34101 0.13399,-0.5286 0.33073,-0.46302 0.1819,0.0606 0.33073,0.269 0.33073,0.46302 0,0.19403 -0.14883,0.40239 -0.33073,0.46303 -0.19674,0.0656 -0.33073,-0.12201 -0.33073,-0.46303 z m -8.59033,-2.63186 c -0.23263,-0.37641 0.064,-0.80772 0.55555,-0.80772 0.23181,0 0.36461,0.18589 0.31511,0.4411 -0.10306,0.5314 -0.63133,0.75385 -0.87066,0.36662 z"
       style="fill:#ffffff;stroke:#000000;stroke-width:0.264583"
       id="path77844"
       sodipodi:nodetypes="sscsscsscssscssscssscsssscssssccssscsssssssssscsscssscsssscsssccsssssscssscscsssssssscsscssssscsssssssscssssscssccssssssssssssscssssssccssssssscssccsssssssssssccssssscscsssssccssccsssscsssssssssscssscssccssscsccscsccssssssssssscsssssssssscssscsssssssscsssssccssccccccccsccssssscscsscsssssssccscccscscssssccsssssssscsssssscssssscsssssssssssscsssscsssssssscssssssssssssscscscssssssscsssccssccscsssscssscssssccccsccssssssssscsssscccssssssssssssssssssssscscsscssssssssscsssscscsscsssssssscsssccscsssscssssssccsccsssssssssssssssssssssssssssssssssscsccscssscscsscscscsssssssssssscscscccscsccssssscsssssss" />
    <g
       aria-label="B"
       transform="scale(1.1744522,0.85146079)"
       id="text78059"
       style="font-size:61.3553px;line-height:125%;font-family:'DejaVu Sans';-inkscape-font-specification:'DejaVu Sans';overflow:visible;opacity:1;fill:none;fill-rule:evenodd;stroke:#000000;stroke-width:1.15222;paint-order:stroke markers fill;stop-color:#000000">
      <path
         d="m 62.071189,134.26007 c 7.215603,0.25647 14.986891,-0.80198 22.131789,0.53915 4.19516,1.11277 7.526022,4.6472 8.086828,9.34097 0.234699,1.96435 -0.661655,6.21036 -1.767841,8.79598 -0.506849,1.75056 -2.23249,3.06677 -2.23249,3.06677 0,0 7.278985,1.57454 4.458727,16.66543 -2.004215,4.72929 -7.319194,7.12816 -12.225638,7.23502 -5.94873,0.35619 -11.908368,0.015 -17.861612,0.13734 -1.25109,-0.63391 -0.292052,-2.48832 -0.589767,-3.69306 v -42.0876 z"
         id="path78061"
         sodipodi:nodetypes="cssscccsssc"
         style="fill:#ffffff;stroke-width:0.235327" />
    </g>
  </g>
</svg>
