solid OpenSCAD_Model
  facet normal -1 0 0
    outer loop
      vertex 32.375 -32.375 7.5
      vertex 32.375 32.375 18.375
      vertex 32.375 32.375 7.5
    endloop
  endfacet
  facet normal -1 -0 0
    outer loop
      vertex 32.375 32.375 18.375
      vertex 32.375 -32.375 7.5
      vertex 32.375 -32.375 18.375
    endloop
  endfacet
  facet normal -0 0 1
    outer loop
      vertex -32.375 32.375 7.5
      vertex 32.375 -32.375 7.5
      vertex 32.375 32.375 7.5
    endloop
  endfacet
  facet normal 0 0 1
    outer loop
      vertex 32.375 -32.375 7.5
      vertex -32.375 32.375 7.5
      vertex -32.375 -32.375 7.5
    endloop
  endfacet
  facet normal 1 -0 0
    outer loop
      vertex -32.375 -32.375 18.375
      vertex -32.375 32.375 7.5
      vertex -32.375 32.375 18.375
    endloop
  endfacet
  facet normal 1 0 0
    outer loop
      vertex -32.375 32.375 7.5
      vertex -32.375 -32.375 18.375
      vertex -32.375 -32.375 7.5
    endloop
  endfacet
  facet normal 0 -1 0
    outer loop
      vertex -32.375 32.375 7.5
      vertex 32.375 32.375 18.375
      vertex -32.375 32.375 18.375
    endloop
  endfacet
  facet normal 0 -1 -0
    outer loop
      vertex 32.375 32.375 18.375
      vertex -32.375 32.375 7.5
      vertex 32.375 32.375 7.5
    endloop
  endfacet
  facet normal 0 1 -0
    outer loop
      vertex 32.375 -32.375 7.5
      vertex -32.375 -32.375 18.375
      vertex 32.375 -32.375 18.375
    endloop
  endfacet
  facet normal 0 1 0
    outer loop
      vertex -32.375 -32.375 18.375
      vertex 32.375 -32.375 7.5
      vertex -32.375 -32.375 7.5
    endloop
  endfacet
  facet normal 0 0 1
    outer loop
      vertex -35.1562 -32.8219 18.375
      vertex -32.375 -32.375 18.375
      vertex -35.1562 -4.6875 18.375
    endloop
  endfacet
  facet normal 0 0 1
    outer loop
      vertex -32.375 -32.375 18.375
      vertex -35.1562 -32.8219 18.375
      vertex -32.8219 -32.8219 18.375
    endloop
  endfacet
  facet normal 0 0 1
    outer loop
      vertex -35.1562 4.6875 18.375
      vertex -32.375 32.375 18.375
      vertex -35.1562 32.8219 18.375
    endloop
  endfacet
  facet normal 0 0 1
    outer loop
      vertex -32.375 32.375 18.375
      vertex -35.1562 4.6875 18.375
      vertex -32.8219 4.6875 18.375
    endloop
  endfacet
  facet normal 0 0 1
    outer loop
      vertex -4.6875 35.1562 18.375
      vertex -32.375 32.375 18.375
      vertex -4.6875 32.8219 18.375
    endloop
  endfacet
  facet normal -0 0 1
    outer loop
      vertex -32.8219 32.8219 18.375
      vertex -32.375 32.375 18.375
      vertex -32.8219 35.1562 18.375
    endloop
  endfacet
  facet normal -0 0 1
    outer loop
      vertex -32.8219 35.1562 18.375
      vertex -32.375 32.375 18.375
      vertex -4.6875 35.1562 18.375
    endloop
  endfacet
  facet normal 0 0 1
    outer loop
      vertex 32.375 -32.375 18.375
      vertex -4.6875 -32.8219 18.375
      vertex 4.6875 -32.8219 18.375
    endloop
  endfacet
  facet normal -0 0 1
    outer loop
      vertex -32.375 -32.375 18.375
      vertex -4.6875 -32.8219 18.375
      vertex 32.375 -32.375 18.375
    endloop
  endfacet
  facet normal 0 0 1
    outer loop
      vertex -32.375 -32.375 18.375
      vertex -4.6875 -35.1562 18.375
      vertex -4.6875 -32.8219 18.375
    endloop
  endfacet
  facet normal -0 0 1
    outer loop
      vertex -35.1562 32.8219 18.375
      vertex -32.375 32.375 18.375
      vertex -32.8219 32.8219 18.375
    endloop
  endfacet
  facet normal 0 0 1
    outer loop
      vertex -32.375 32.375 18.375
      vertex -32.8219 4.6875 18.375
      vertex -32.375 -32.375 18.375
    endloop
  endfacet
  facet normal -0 0 1
    outer loop
      vertex -32.8219 -4.6875 18.375
      vertex -32.375 -32.375 18.375
      vertex -32.8219 4.6875 18.375
    endloop
  endfacet
  facet normal -0 0 1
    outer loop
      vertex -35.1562 -4.6875 18.375
      vertex -32.375 -32.375 18.375
      vertex -32.8219 -4.6875 18.375
    endloop
  endfacet
  facet normal 0 0 1
    outer loop
      vertex -32.8219 -35.1562 18.375
      vertex -32.375 -32.375 18.375
      vertex -32.8219 -32.8219 18.375
    endloop
  endfacet
  facet normal 0 0 1
    outer loop
      vertex -32.375 -32.375 18.375
      vertex -32.8219 -35.1562 18.375
      vertex -4.6875 -35.1562 18.375
    endloop
  endfacet
  facet normal 0 0 1
    outer loop
      vertex 32.375 32.375 18.375
      vertex 32.8219 32.8219 18.375
      vertex 32.8219 35.1562 18.375
    endloop
  endfacet
  facet normal 0 0 1
    outer loop
      vertex 32.8219 32.8219 18.375
      vertex 32.375 32.375 18.375
      vertex 32.8219 4.6875 18.375
    endloop
  endfacet
  facet normal 0 0 1
    outer loop
      vertex 32.8219 4.6875 18.375
      vertex 32.375 32.375 18.375
      vertex 32.8219 -4.6875 18.375
    endloop
  endfacet
  facet normal 0 0 1
    outer loop
      vertex 32.375 -32.375 18.375
      vertex 32.8219 -4.6875 18.375
      vertex 32.375 32.375 18.375
    endloop
  endfacet
  facet normal 0 0 1
    outer loop
      vertex 32.8219 -4.6875 18.375
      vertex 32.375 -32.375 18.375
      vertex 32.8219 -32.8219 18.375
    endloop
  endfacet
  facet normal -0 0 1
    outer loop
      vertex 4.6875 35.1562 18.375
      vertex 32.375 32.375 18.375
      vertex 32.8219 35.1562 18.375
    endloop
  endfacet
  facet normal -0 0 1
    outer loop
      vertex 4.6875 32.8219 18.375
      vertex 32.375 32.375 18.375
      vertex 4.6875 35.1562 18.375
    endloop
  endfacet
  facet normal -0 0 1
    outer loop
      vertex -4.6875 32.8219 18.375
      vertex 32.375 32.375 18.375
      vertex 4.6875 32.8219 18.375
    endloop
  endfacet
  facet normal 0 0 1
    outer loop
      vertex 32.375 32.375 18.375
      vertex -4.6875 32.8219 18.375
      vertex -32.375 32.375 18.375
    endloop
  endfacet
  facet normal -0 0 1
    outer loop
      vertex 32.8219 32.8219 18.375
      vertex 35.1562 4.6875 18.375
      vertex 35.1562 32.8219 18.375
    endloop
  endfacet
  facet normal 0 0 1
    outer loop
      vertex 35.1562 4.6875 18.375
      vertex 32.8219 32.8219 18.375
      vertex 32.8219 4.6875 18.375
    endloop
  endfacet
  facet normal -0 0 1
    outer loop
      vertex 32.8219 -4.6875 18.375
      vertex 35.1562 -32.8219 18.375
      vertex 35.1562 -4.6875 18.375
    endloop
  endfacet
  facet normal 0 0 1
    outer loop
      vertex 35.1562 -32.8219 18.375
      vertex 32.8219 -4.6875 18.375
      vertex 32.8219 -32.8219 18.375
    endloop
  endfacet
  facet normal 0 0 1
    outer loop
      vertex 32.8219 -32.8219 18.375
      vertex 32.375 -32.375 18.375
      vertex 32.8219 -35.1562 18.375
    endloop
  endfacet
  facet normal 0 0 1
    outer loop
      vertex 4.6875 -35.1562 18.375
      vertex 32.375 -32.375 18.375
      vertex 4.6875 -32.8219 18.375
    endloop
  endfacet
  facet normal 0 0 1
    outer loop
      vertex 32.375 -32.375 18.375
      vertex 4.6875 -35.1562 18.375
      vertex 32.8219 -35.1562 18.375
    endloop
  endfacet
  facet normal 1 0 0
    outer loop
      vertex 35.1562 -4.6875 18.375
      vertex 35.1562 -23.4422 9.53855
      vertex 35.1562 -4.6875 9.53855
    endloop
  endfacet
  facet normal 1 -0 0
    outer loop
      vertex 35.1562 -32.8219 18.375
      vertex 35.1562 -23.4422 9.53855
      vertex 35.1562 -4.6875 18.375
    endloop
  endfacet
  facet normal 1 0 0
    outer loop
      vertex 35.1562 -32.8219 0.158867
      vertex 35.1562 -28.1344 9.53855
      vertex 35.1562 -32.8219 18.375
    endloop
  endfacet
  facet normal 1 0 0
    outer loop
      vertex 35.1562 -23.4422 9.53855
      vertex 35.1562 -32.8219 18.375
      vertex 35.1562 -28.1344 9.53855
    endloop
  endfacet
  facet normal 1 0 0
    outer loop
      vertex 35.1562 32.8219 18.375
      vertex 35.1562 28.1344 9.53855
      vertex 35.1562 32.8219 0.158867
    endloop
  endfacet
  facet normal 1 0 0
    outer loop
      vertex 35.1562 32.8219 18.375
      vertex 35.1562 23.4422 9.53855
      vertex 35.1562 28.1344 9.53855
    endloop
  endfacet
  facet normal 1 0 0
    outer loop
      vertex 35.1562 4.6875 9.53855
      vertex 35.1562 23.4422 9.53855
      vertex 35.1562 4.6875 18.375
    endloop
  endfacet
  facet normal 1 -0 0
    outer loop
      vertex 35.1562 4.6875 18.375
      vertex 35.1562 23.4422 9.53855
      vertex 35.1562 32.8219 18.375
    endloop
  endfacet
  facet normal 1 -0 0
    outer loop
      vertex 35.1562 28.1344 4.84637
      vertex 35.1562 32.8219 0.158867
      vertex 35.1562 28.1344 9.53855
    endloop
  endfacet
  facet normal 1 -0 0
    outer loop
      vertex 35.1562 23.4422 4.84637
      vertex 35.1562 32.8219 0.158867
      vertex 35.1562 28.1344 4.84637
    endloop
  endfacet
  facet normal 1 0 0
    outer loop
      vertex 35.1562 23.4422 9.53855
      vertex 35.1562 4.6875 9.53855
      vertex 35.1562 23.4422 4.84637
    endloop
  endfacet
  facet normal 1 -0 0
    outer loop
      vertex 35.1562 -4.6875 9.53855
      vertex 35.1562 23.4422 4.84637
      vertex 35.1562 4.6875 9.53855
    endloop
  endfacet
  facet normal 1 0 0
    outer loop
      vertex 35.1562 -23.4422 4.84637
      vertex 35.1562 23.4422 4.84637
      vertex 35.1562 -4.6875 9.53855
    endloop
  endfacet
  facet normal 1 0 0
    outer loop
      vertex 35.1562 -23.4422 4.84637
      vertex 35.1562 -4.6875 9.53855
      vertex 35.1562 -23.4422 9.53855
    endloop
  endfacet
  facet normal 1 0 0
    outer loop
      vertex 35.1562 23.4422 4.84637
      vertex 35.1562 -23.4422 4.84637
      vertex 35.1562 32.8219 0.158867
    endloop
  endfacet
  facet normal 1 0 0
    outer loop
      vertex 35.1562 -32.8219 0.158867
      vertex 35.1562 -23.4422 4.84637
      vertex 35.1562 -28.1344 4.84637
    endloop
  endfacet
  facet normal 1 0 0
    outer loop
      vertex 35.1562 -23.4422 4.84637
      vertex 35.1562 -32.8219 0.158867
      vertex 35.1562 32.8219 0.158867
    endloop
  endfacet
  facet normal 1 0 0
    outer loop
      vertex 35.1562 -28.1344 9.53855
      vertex 35.1562 -32.8219 0.158867
      vertex 35.1562 -28.1344 4.84637
    endloop
  endfacet
  facet normal 0 1 -0
    outer loop
      vertex -23.4422 32.8219 4.84637
      vertex -28.1344 32.8219 9.53855
      vertex -23.4422 32.8219 9.53855
    endloop
  endfacet
  facet normal 0 1 0
    outer loop
      vertex -28.1344 32.8219 9.53855
      vertex -23.4422 32.8219 4.84637
      vertex -28.1344 32.8219 4.84637
    endloop
  endfacet
  facet normal -0 0 1
    outer loop
      vertex -28.1344 35.1562 4.84637
      vertex -23.4422 32.8219 4.84637
      vertex -23.4422 35.1562 4.84637
    endloop
  endfacet
  facet normal 0 0 1
    outer loop
      vertex -23.4422 32.8219 4.84637
      vertex -28.1344 35.1562 4.84637
      vertex -28.1344 32.8219 4.84637
    endloop
  endfacet
  facet normal 0 -1 0
    outer loop
      vertex 23.4422 -32.8219 4.84637
      vertex 28.1344 -32.8219 9.53855
      vertex 23.4422 -32.8219 9.53855
    endloop
  endfacet
  facet normal 0 -1 -0
    outer loop
      vertex 28.1344 -32.8219 9.53855
      vertex 23.4422 -32.8219 4.84637
      vertex 28.1344 -32.8219 4.84637
    endloop
  endfacet
  facet normal -0 0 1
    outer loop
      vertex 23.4422 -32.8219 4.84637
      vertex 28.1344 -35.1562 4.84637
      vertex 28.1344 -32.8219 4.84637
    endloop
  endfacet
  facet normal 0 0 1
    outer loop
      vertex 28.1344 -35.1562 4.84637
      vertex 23.4422 -32.8219 4.84637
      vertex 23.4422 -35.1562 4.84637
    endloop
  endfacet
  facet normal 0 0 -1
    outer loop
      vertex 23.4422 -35.1562 9.53855
      vertex 28.1344 -32.8219 9.53855
      vertex 28.1344 -35.1562 9.53855
    endloop
  endfacet
  facet normal -0 0 -1
    outer loop
      vertex 28.1344 -32.8219 9.53855
      vertex 23.4422 -35.1562 9.53855
      vertex 23.4422 -32.8219 9.53855
    endloop
  endfacet
  facet normal 0 0 -1
    outer loop
      vertex -28.1344 32.8219 9.53855
      vertex -23.4422 35.1562 9.53855
      vertex -23.4422 32.8219 9.53855
    endloop
  endfacet
  facet normal -0 0 -1
    outer loop
      vertex -23.4422 35.1562 9.53855
      vertex -28.1344 32.8219 9.53855
      vertex -28.1344 35.1562 9.53855
    endloop
  endfacet
  facet normal 0 1 -0
    outer loop
      vertex 28.1344 32.8219 4.84637
      vertex 23.4422 32.8219 9.53855
      vertex 28.1344 32.8219 9.53855
    endloop
  endfacet
  facet normal 0 1 0
    outer loop
      vertex 23.4422 32.8219 9.53855
      vertex 28.1344 32.8219 4.84637
      vertex 23.4422 32.8219 4.84637
    endloop
  endfacet
  facet normal -0 0 1
    outer loop
      vertex 23.4422 35.1562 4.84637
      vertex 28.1344 32.8219 4.84637
      vertex 28.1344 35.1562 4.84637
    endloop
  endfacet
  facet normal 0 0 1
    outer loop
      vertex 28.1344 32.8219 4.84637
      vertex 23.4422 35.1562 4.84637
      vertex 23.4422 32.8219 4.84637
    endloop
  endfacet
  facet normal 0 -1 0
    outer loop
      vertex 23.4422 -35.1562 9.53855
      vertex 4.6875 -35.1562 18.375
      vertex 4.6875 -35.1562 9.53855
    endloop
  endfacet
  facet normal 0 -1 0
    outer loop
      vertex 4.6875 -35.1562 18.375
      vertex 23.4422 -35.1562 9.53855
      vertex 32.8219 -35.1562 18.375
    endloop
  endfacet
  facet normal 0 -1 0
    outer loop
      vertex 28.1344 -35.1562 9.53855
      vertex 32.8219 -35.1562 18.375
      vertex 23.4422 -35.1562 9.53855
    endloop
  endfacet
  facet normal 0 -1 0
    outer loop
      vertex 32.8219 -35.1562 0.158867
      vertex 28.1344 -35.1562 9.53855
      vertex 28.1344 -35.1562 4.84637
    endloop
  endfacet
  facet normal 0 -1 0
    outer loop
      vertex 28.1344 -35.1562 9.53855
      vertex 32.8219 -35.1562 0.158867
      vertex 32.8219 -35.1562 18.375
    endloop
  endfacet
  facet normal 0 -1 0
    outer loop
      vertex 23.4422 -35.1562 4.84637
      vertex 32.8219 -35.1562 0.158867
      vertex 28.1344 -35.1562 4.84637
    endloop
  endfacet
  facet normal 0 -1 0
    outer loop
      vertex -23.4422 -35.1562 9.53855
      vertex -32.8219 -35.1562 18.375
      vertex -28.1344 -35.1562 9.53855
    endloop
  endfacet
  facet normal 0 -1 0
    outer loop
      vertex -32.8219 -35.1562 0.158867
      vertex -28.1344 -35.1562 9.53855
      vertex -32.8219 -35.1562 18.375
    endloop
  endfacet
  facet normal 0 -1 0
    outer loop
      vertex -32.8219 -35.1562 0.158867
      vertex -23.4422 -35.1562 4.84637
      vertex -28.1344 -35.1562 4.84637
    endloop
  endfacet
  facet normal 0 -1 -0
    outer loop
      vertex -23.4422 -35.1562 4.84637
      vertex -32.8219 -35.1562 0.158867
      vertex 23.4422 -35.1562 4.84637
    endloop
  endfacet
  facet normal 0 -1 0
    outer loop
      vertex 32.8219 -35.1562 0.158867
      vertex 23.4422 -35.1562 4.84637
      vertex -32.8219 -35.1562 0.158867
    endloop
  endfacet
  facet normal 0 -1 -0
    outer loop
      vertex -28.1344 -35.1562 9.53855
      vertex -32.8219 -35.1562 0.158867
      vertex -28.1344 -35.1562 4.84637
    endloop
  endfacet
  facet normal 0 -1 0
    outer loop
      vertex -32.8219 -35.1562 18.375
      vertex -23.4422 -35.1562 9.53855
      vertex -4.6875 -35.1562 18.375
    endloop
  endfacet
  facet normal 0 -1 0
    outer loop
      vertex -23.4422 -35.1562 9.53855
      vertex -4.6875 -35.1562 9.53855
      vertex -4.6875 -35.1562 18.375
    endloop
  endfacet
  facet normal 0 -1 0
    outer loop
      vertex -23.4422 -35.1562 4.84637
      vertex -4.6875 -35.1562 9.53855
      vertex -23.4422 -35.1562 9.53855
    endloop
  endfacet
  facet normal 0 -1 -0
    outer loop
      vertex -4.6875 -35.1562 9.53855
      vertex -23.4422 -35.1562 4.84637
      vertex 4.6875 -35.1562 9.53855
    endloop
  endfacet
  facet normal 0 -1 0
    outer loop
      vertex 23.4422 -35.1562 4.84637
      vertex 4.6875 -35.1562 9.53855
      vertex -23.4422 -35.1562 4.84637
    endloop
  endfacet
  facet normal 0 -1 0
    outer loop
      vertex 4.6875 -35.1562 9.53855
      vertex 23.4422 -35.1562 4.84637
      vertex 23.4422 -35.1562 9.53855
    endloop
  endfacet
  facet normal 0 0 -1
    outer loop
      vertex 23.4422 32.8219 9.53855
      vertex 28.1344 35.1562 9.53855
      vertex 28.1344 32.8219 9.53855
    endloop
  endfacet
  facet normal -0 0 -1
    outer loop
      vertex 28.1344 35.1562 9.53855
      vertex 23.4422 32.8219 9.53855
      vertex 23.4422 35.1562 9.53855
    endloop
  endfacet
  facet normal 1 -0 0
    outer loop
      vertex -28.1344 32.8219 9.53855
      vertex -28.1344 35.1562 4.84637
      vertex -28.1344 35.1562 9.53855
    endloop
  endfacet
  facet normal 1 0 0
    outer loop
      vertex -28.1344 35.1562 4.84637
      vertex -28.1344 32.8219 9.53855
      vertex -28.1344 32.8219 4.84637
    endloop
  endfacet
  facet normal 1 -0 0
    outer loop
      vertex 23.4422 32.8219 9.53855
      vertex 23.4422 35.1562 4.84637
      vertex 23.4422 35.1562 9.53855
    endloop
  endfacet
  facet normal 1 0 0
    outer loop
      vertex 23.4422 35.1562 4.84637
      vertex 23.4422 32.8219 9.53855
      vertex 23.4422 32.8219 4.84637
    endloop
  endfacet
  facet normal 1 -0 0
    outer loop
      vertex -28.1344 -35.1562 9.53855
      vertex -28.1344 -32.8219 4.84637
      vertex -28.1344 -32.8219 9.53855
    endloop
  endfacet
  facet normal 1 0 0
    outer loop
      vertex -28.1344 -32.8219 4.84637
      vertex -28.1344 -35.1562 9.53855
      vertex -28.1344 -35.1562 4.84637
    endloop
  endfacet
  facet normal 1 -0 0
    outer loop
      vertex 23.4422 -35.1562 9.53855
      vertex 23.4422 -32.8219 4.84637
      vertex 23.4422 -32.8219 9.53855
    endloop
  endfacet
  facet normal 1 0 0
    outer loop
      vertex 23.4422 -32.8219 4.84637
      vertex 23.4422 -35.1562 9.53855
      vertex 23.4422 -35.1562 4.84637
    endloop
  endfacet
  facet normal 1 -0 0
    outer loop
      vertex -4.6875 32.8219 18.375
      vertex -4.6875 35.1562 9.53855
      vertex -4.6875 35.1562 18.375
    endloop
  endfacet
  facet normal 1 0 0
    outer loop
      vertex -4.6875 35.1562 9.53855
      vertex -4.6875 32.8219 18.375
      vertex -4.6875 32.8219 9.53855
    endloop
  endfacet
  facet normal -1 0 0
    outer loop
      vertex -32.8219 32.8219 0.158867
      vertex -32.8219 35.1562 18.375
      vertex -32.8219 35.1562 0.158867
    endloop
  endfacet
  facet normal -1 -0 0
    outer loop
      vertex -32.8219 35.1562 18.375
      vertex -32.8219 32.8219 0.158867
      vertex -32.8219 32.8219 18.375
    endloop
  endfacet
  facet normal 0 1 -0
    outer loop
      vertex -32.8219 32.8219 0.158867
      vertex -35.1562 32.8219 18.375
      vertex -32.8219 32.8219 18.375
    endloop
  endfacet
  facet normal 0 1 0
    outer loop
      vertex -35.1562 32.8219 18.375
      vertex -32.8219 32.8219 0.158867
      vertex -35.1562 32.8219 0.158867
    endloop
  endfacet
  facet normal -0 0 1
    outer loop
      vertex -35.1562 4.6875 9.53855
      vertex -32.8219 -4.6875 9.53855
      vertex -32.8219 4.6875 9.53855
    endloop
  endfacet
  facet normal 0 0 1
    outer loop
      vertex -32.8219 -4.6875 9.53855
      vertex -35.1562 4.6875 9.53855
      vertex -35.1562 -4.6875 9.53855
    endloop
  endfacet
  facet normal -1 0 0
    outer loop
      vertex 4.6875 32.8219 9.53855
      vertex 4.6875 35.1562 18.375
      vertex 4.6875 35.1562 9.53855
    endloop
  endfacet
  facet normal -1 -0 0
    outer loop
      vertex 4.6875 35.1562 18.375
      vertex 4.6875 32.8219 9.53855
      vertex 4.6875 32.8219 18.375
    endloop
  endfacet
  facet normal 0 -1 0
    outer loop
      vertex -4.6875 -32.8219 9.53855
      vertex 4.6875 -32.8219 18.375
      vertex -4.6875 -32.8219 18.375
    endloop
  endfacet
  facet normal 0 -1 -0
    outer loop
      vertex 4.6875 -32.8219 18.375
      vertex -4.6875 -32.8219 9.53855
      vertex 4.6875 -32.8219 9.53855
    endloop
  endfacet
  facet normal 0 -1 0
    outer loop
      vertex -35.1562 -32.8219 0.158867
      vertex -32.8219 -32.8219 18.375
      vertex -35.1562 -32.8219 18.375
    endloop
  endfacet
  facet normal 0 -1 -0
    outer loop
      vertex -32.8219 -32.8219 18.375
      vertex -35.1562 -32.8219 0.158867
      vertex -32.8219 -32.8219 0.158867
    endloop
  endfacet
  facet normal 0 1 -0
    outer loop
      vertex -32.8219 -28.1344 4.84637
      vertex -35.1562 -28.1344 9.53855
      vertex -32.8219 -28.1344 9.53855
    endloop
  endfacet
  facet normal 0 1 0
    outer loop
      vertex -35.1562 -28.1344 9.53855
      vertex -32.8219 -28.1344 4.84637
      vertex -35.1562 -28.1344 4.84637
    endloop
  endfacet
  facet normal 0 -1 0
    outer loop
      vertex -28.1344 -32.8219 4.84637
      vertex -23.4422 -32.8219 9.53855
      vertex -28.1344 -32.8219 9.53855
    endloop
  endfacet
  facet normal 0 -1 -0
    outer loop
      vertex -23.4422 -32.8219 9.53855
      vertex -28.1344 -32.8219 4.84637
      vertex -23.4422 -32.8219 4.84637
    endloop
  endfacet
  facet normal -0 0 1
    outer loop
      vertex -35.1562 28.1344 4.84637
      vertex -32.8219 23.4422 4.84637
      vertex -32.8219 28.1344 4.84637
    endloop
  endfacet
  facet normal 0 0 1
    outer loop
      vertex -32.8219 23.4422 4.84637
      vertex -35.1562 28.1344 4.84637
      vertex -35.1562 23.4422 4.84637
    endloop
  endfacet
  facet normal -0 0 1
    outer loop
      vertex -28.1344 -32.8219 4.84637
      vertex -23.4422 -35.1562 4.84637
      vertex -23.4422 -32.8219 4.84637
    endloop
  endfacet
  facet normal 0 0 1
    outer loop
      vertex -23.4422 -35.1562 4.84637
      vertex -28.1344 -32.8219 4.84637
      vertex -28.1344 -35.1562 4.84637
    endloop
  endfacet
  facet normal 0 0 -1
    outer loop
      vertex -35.1562 23.4422 9.53855
      vertex -32.8219 28.1344 9.53855
      vertex -32.8219 23.4422 9.53855
    endloop
  endfacet
  facet normal -0 0 -1
    outer loop
      vertex -32.8219 28.1344 9.53855
      vertex -35.1562 23.4422 9.53855
      vertex -35.1562 28.1344 9.53855
    endloop
  endfacet
  facet normal -0 0 1
    outer loop
      vertex 32.8219 4.6875 9.53855
      vertex 35.1562 -4.6875 9.53855
      vertex 35.1562 4.6875 9.53855
    endloop
  endfacet
  facet normal 0 0 1
    outer loop
      vertex 35.1562 -4.6875 9.53855
      vertex 32.8219 4.6875 9.53855
      vertex 32.8219 -4.6875 9.53855
    endloop
  endfacet
  facet normal 0 0 -1
    outer loop
      vertex -28.1344 -35.1562 9.53855
      vertex -23.4422 -32.8219 9.53855
      vertex -23.4422 -35.1562 9.53855
    endloop
  endfacet
  facet normal -0 0 -1
    outer loop
      vertex -23.4422 -32.8219 9.53855
      vertex -28.1344 -35.1562 9.53855
      vertex -28.1344 -32.8219 9.53855
    endloop
  endfacet
  facet normal 0 -1 0
    outer loop
      vertex 32.8219 28.1344 4.84637
      vertex 35.1562 28.1344 9.53855
      vertex 32.8219 28.1344 9.53855
    endloop
  endfacet
  facet normal 0 -1 -0
    outer loop
      vertex 35.1562 28.1344 9.53855
      vertex 32.8219 28.1344 4.84637
      vertex 35.1562 28.1344 4.84637
    endloop
  endfacet
  facet normal 0 -1 0
    outer loop
      vertex -35.1562 28.1344 4.84637
      vertex -32.8219 28.1344 9.53855
      vertex -35.1562 28.1344 9.53855
    endloop
  endfacet
  facet normal 0 -1 -0
    outer loop
      vertex -32.8219 28.1344 9.53855
      vertex -35.1562 28.1344 4.84637
      vertex -32.8219 28.1344 4.84637
    endloop
  endfacet
  facet normal 0 1 0
    outer loop
      vertex -23.4422 35.1562 9.53855
      vertex -4.6875 35.1562 18.375
      vertex -4.6875 35.1562 9.53855
    endloop
  endfacet
  facet normal 0 1 0
    outer loop
      vertex -4.6875 35.1562 18.375
      vertex -23.4422 35.1562 9.53855
      vertex -32.8219 35.1562 18.375
    endloop
  endfacet
  facet normal 0 1 -0
    outer loop
      vertex -28.1344 35.1562 9.53855
      vertex -32.8219 35.1562 18.375
      vertex -23.4422 35.1562 9.53855
    endloop
  endfacet
  facet normal 0 1 0
    outer loop
      vertex -32.8219 35.1562 0.158867
      vertex -28.1344 35.1562 9.53855
      vertex -28.1344 35.1562 4.84637
    endloop
  endfacet
  facet normal 0 1 0
    outer loop
      vertex -28.1344 35.1562 9.53855
      vertex -32.8219 35.1562 0.158867
      vertex -32.8219 35.1562 18.375
    endloop
  endfacet
  facet normal 0 1 0
    outer loop
      vertex -23.4422 35.1562 4.84637
      vertex -32.8219 35.1562 0.158867
      vertex -28.1344 35.1562 4.84637
    endloop
  endfacet
  facet normal 0 1 0
    outer loop
      vertex 23.4422 35.1562 9.53855
      vertex 32.8219 35.1562 18.375
      vertex 28.1344 35.1562 9.53855
    endloop
  endfacet
  facet normal 0 1 -0
    outer loop
      vertex 32.8219 35.1562 0.158867
      vertex 28.1344 35.1562 9.53855
      vertex 32.8219 35.1562 18.375
    endloop
  endfacet
  facet normal 0 1 0
    outer loop
      vertex 32.8219 35.1562 0.158867
      vertex 23.4422 35.1562 4.84637
      vertex 28.1344 35.1562 4.84637
    endloop
  endfacet
  facet normal 0 1 0
    outer loop
      vertex 23.4422 35.1562 4.84637
      vertex 32.8219 35.1562 0.158867
      vertex -23.4422 35.1562 4.84637
    endloop
  endfacet
  facet normal 0 1 0
    outer loop
      vertex -32.8219 35.1562 0.158867
      vertex -23.4422 35.1562 4.84637
      vertex 32.8219 35.1562 0.158867
    endloop
  endfacet
  facet normal 0 1 0
    outer loop
      vertex 28.1344 35.1562 9.53855
      vertex 32.8219 35.1562 0.158867
      vertex 28.1344 35.1562 4.84637
    endloop
  endfacet
  facet normal 0 1 0
    outer loop
      vertex 32.8219 35.1562 18.375
      vertex 23.4422 35.1562 9.53855
      vertex 4.6875 35.1562 18.375
    endloop
  endfacet
  facet normal 0 1 0
    outer loop
      vertex 23.4422 35.1562 9.53855
      vertex 4.6875 35.1562 9.53855
      vertex 4.6875 35.1562 18.375
    endloop
  endfacet
  facet normal 0 1 -0
    outer loop
      vertex 23.4422 35.1562 4.84637
      vertex 4.6875 35.1562 9.53855
      vertex 23.4422 35.1562 9.53855
    endloop
  endfacet
  facet normal 0 1 0
    outer loop
      vertex 4.6875 35.1562 9.53855
      vertex 23.4422 35.1562 4.84637
      vertex -4.6875 35.1562 9.53855
    endloop
  endfacet
  facet normal 0 1 0
    outer loop
      vertex -23.4422 35.1562 4.84637
      vertex -4.6875 35.1562 9.53855
      vertex 23.4422 35.1562 4.84637
    endloop
  endfacet
  facet normal 0 1 0
    outer loop
      vertex -4.6875 35.1562 9.53855
      vertex -23.4422 35.1562 4.84637
      vertex -23.4422 35.1562 9.53855
    endloop
  endfacet
  facet normal 0 1 -0
    outer loop
      vertex -32.8219 23.4422 4.84637
      vertex -35.1562 23.4422 9.53855
      vertex -32.8219 23.4422 9.53855
    endloop
  endfacet
  facet normal 0 1 0
    outer loop
      vertex -35.1562 23.4422 9.53855
      vertex -32.8219 23.4422 4.84637
      vertex -35.1562 23.4422 4.84637
    endloop
  endfacet
  facet normal -0 0 1
    outer loop
      vertex -35.1562 -23.4422 4.84637
      vertex -32.8219 -28.1344 4.84637
      vertex -32.8219 -23.4422 4.84637
    endloop
  endfacet
  facet normal 0 0 1
    outer loop
      vertex -32.8219 -28.1344 4.84637
      vertex -35.1562 -23.4422 4.84637
      vertex -35.1562 -28.1344 4.84637
    endloop
  endfacet
  facet normal -0 0 1
    outer loop
      vertex -4.6875 -32.8219 9.53855
      vertex 4.6875 -35.1562 9.53855
      vertex 4.6875 -32.8219 9.53855
    endloop
  endfacet
  facet normal 0 0 1
    outer loop
      vertex 4.6875 -35.1562 9.53855
      vertex -4.6875 -32.8219 9.53855
      vertex -4.6875 -35.1562 9.53855
    endloop
  endfacet
  facet normal 0 0 -1
    outer loop
      vertex -35.1562 -28.1344 9.53855
      vertex -32.8219 -23.4422 9.53855
      vertex -32.8219 -28.1344 9.53855
    endloop
  endfacet
  facet normal -0 0 -1
    outer loop
      vertex -32.8219 -23.4422 9.53855
      vertex -35.1562 -28.1344 9.53855
      vertex -35.1562 -23.4422 9.53855
    endloop
  endfacet
  facet normal -1 0 0
    outer loop
      vertex 28.1344 32.8219 4.84637
      vertex 28.1344 35.1562 9.53855
      vertex 28.1344 35.1562 4.84637
    endloop
  endfacet
  facet normal -1 -0 0
    outer loop
      vertex 28.1344 35.1562 9.53855
      vertex 28.1344 32.8219 4.84637
      vertex 28.1344 32.8219 9.53855
    endloop
  endfacet
  facet normal 0 -1 0
    outer loop
      vertex -35.1562 -23.4422 4.84637
      vertex -32.8219 -23.4422 9.53855
      vertex -35.1562 -23.4422 9.53855
    endloop
  endfacet
  facet normal 0 -1 -0
    outer loop
      vertex -32.8219 -23.4422 9.53855
      vertex -35.1562 -23.4422 4.84637
      vertex -32.8219 -23.4422 4.84637
    endloop
  endfacet
  facet normal -0 0 1
    outer loop
      vertex -4.6875 35.1562 9.53855
      vertex 4.6875 32.8219 9.53855
      vertex 4.6875 35.1562 9.53855
    endloop
  endfacet
  facet normal 0 0 1
    outer loop
      vertex 4.6875 32.8219 9.53855
      vertex -4.6875 35.1562 9.53855
      vertex -4.6875 32.8219 9.53855
    endloop
  endfacet
  facet normal -1 0 0
    outer loop
      vertex 28.1344 -35.1562 4.84637
      vertex 28.1344 -32.8219 9.53855
      vertex 28.1344 -32.8219 4.84637
    endloop
  endfacet
  facet normal -1 -0 0
    outer loop
      vertex 28.1344 -32.8219 9.53855
      vertex 28.1344 -35.1562 4.84637
      vertex 28.1344 -35.1562 9.53855
    endloop
  endfacet
  facet normal 0 1 -0
    outer loop
      vertex 35.1562 32.8219 0.158867
      vertex 32.8219 32.8219 18.375
      vertex 35.1562 32.8219 18.375
    endloop
  endfacet
  facet normal 0 1 0
    outer loop
      vertex 32.8219 32.8219 18.375
      vertex 35.1562 32.8219 0.158867
      vertex 32.8219 32.8219 0.158867
    endloop
  endfacet
  facet normal 0 -1 0
    outer loop
      vertex 32.8219 -32.8219 0.158867
      vertex 35.1562 -32.8219 18.375
      vertex 32.8219 -32.8219 18.375
    endloop
  endfacet
  facet normal 0 -1 -0
    outer loop
      vertex 35.1562 -32.8219 18.375
      vertex 32.8219 -32.8219 0.158867
      vertex 35.1562 -32.8219 0.158867
    endloop
  endfacet
  facet normal -0 0 1
    outer loop
      vertex 32.8219 -23.4422 4.84637
      vertex 35.1562 -28.1344 4.84637
      vertex 35.1562 -23.4422 4.84637
    endloop
  endfacet
  facet normal 0 0 1
    outer loop
      vertex 35.1562 -28.1344 4.84637
      vertex 32.8219 -23.4422 4.84637
      vertex 32.8219 -28.1344 4.84637
    endloop
  endfacet
  facet normal 0 0 -1
    outer loop
      vertex 32.8219 -28.1344 9.53855
      vertex 35.1562 -23.4422 9.53855
      vertex 35.1562 -28.1344 9.53855
    endloop
  endfacet
  facet normal -0 0 -1
    outer loop
      vertex 35.1562 -23.4422 9.53855
      vertex 32.8219 -28.1344 9.53855
      vertex 32.8219 -23.4422 9.53855
    endloop
  endfacet
  facet normal 1 -0 0
    outer loop
      vertex 32.8219 32.8219 18.375
      vertex 32.8219 35.1562 0.158867
      vertex 32.8219 35.1562 18.375
    endloop
  endfacet
  facet normal 1 0 0
    outer loop
      vertex 32.8219 35.1562 0.158867
      vertex 32.8219 32.8219 18.375
      vertex 32.8219 32.8219 0.158867
    endloop
  endfacet
  facet normal -1 0 0
    outer loop
      vertex -32.8219 -35.1562 0.158867
      vertex -32.8219 -32.8219 18.375
      vertex -32.8219 -32.8219 0.158867
    endloop
  endfacet
  facet normal -1 -0 0
    outer loop
      vertex -32.8219 -32.8219 18.375
      vertex -32.8219 -35.1562 0.158867
      vertex -32.8219 -35.1562 18.375
    endloop
  endfacet
  facet normal 0 1 -0
    outer loop
      vertex 35.1562 -28.1344 4.84637
      vertex 32.8219 -28.1344 9.53855
      vertex 35.1562 -28.1344 9.53855
    endloop
  endfacet
  facet normal 0 1 0
    outer loop
      vertex 32.8219 -28.1344 9.53855
      vertex 35.1562 -28.1344 4.84637
      vertex 32.8219 -28.1344 4.84637
    endloop
  endfacet
  facet normal 0 1 -0
    outer loop
      vertex -32.8219 -4.6875 9.53855
      vertex -35.1562 -4.6875 18.375
      vertex -32.8219 -4.6875 18.375
    endloop
  endfacet
  facet normal 0 1 0
    outer loop
      vertex -35.1562 -4.6875 18.375
      vertex -32.8219 -4.6875 9.53855
      vertex -35.1562 -4.6875 9.53855
    endloop
  endfacet
  facet normal 0 -1 0
    outer loop
      vertex 32.8219 -23.4422 4.84637
      vertex 35.1562 -23.4422 9.53855
      vertex 32.8219 -23.4422 9.53855
    endloop
  endfacet
  facet normal 0 -1 -0
    outer loop
      vertex 35.1562 -23.4422 9.53855
      vertex 32.8219 -23.4422 4.84637
      vertex 35.1562 -23.4422 4.84637
    endloop
  endfacet
  facet normal -0 0 1
    outer loop
      vertex 32.8219 28.1344 4.84637
      vertex 35.1562 23.4422 4.84637
      vertex 35.1562 28.1344 4.84637
    endloop
  endfacet
  facet normal 0 0 1
    outer loop
      vertex 35.1562 23.4422 4.84637
      vertex 32.8219 28.1344 4.84637
      vertex 32.8219 23.4422 4.84637
    endloop
  endfacet
  facet normal -1 0 0
    outer loop
      vertex -35.1562 28.1344 9.53855
      vertex -35.1562 32.8219 0.158867
      vertex -35.1562 28.1344 4.84637
    endloop
  endfacet
  facet normal -1 0 0
    outer loop
      vertex -35.1562 32.8219 0.158867
      vertex -35.1562 23.4422 4.84637
      vertex -35.1562 28.1344 4.84637
    endloop
  endfacet
  facet normal -1 0 0
    outer loop
      vertex -35.1562 23.4422 4.84637
      vertex -35.1562 4.6875 9.53855
      vertex -35.1562 23.4422 9.53855
    endloop
  endfacet
  facet normal -1 0 0
    outer loop
      vertex -35.1562 -23.4422 4.84637
      vertex -35.1562 23.4422 4.84637
      vertex -35.1562 32.8219 0.158867
    endloop
  endfacet
  facet normal -1 0 0
    outer loop
      vertex -35.1562 23.4422 4.84637
      vertex -35.1562 -4.6875 9.53855
      vertex -35.1562 4.6875 9.53855
    endloop
  endfacet
  facet normal -1 0 0
    outer loop
      vertex -35.1562 -23.4422 9.53855
      vertex -35.1562 -4.6875 9.53855
      vertex -35.1562 -23.4422 4.84637
    endloop
  endfacet
  facet normal -1 0 0
    outer loop
      vertex -35.1562 23.4422 4.84637
      vertex -35.1562 -23.4422 4.84637
      vertex -35.1562 -4.6875 9.53855
    endloop
  endfacet
  facet normal -1 0 0
    outer loop
      vertex -35.1562 -32.8219 0.158867
      vertex -35.1562 -23.4422 4.84637
      vertex -35.1562 32.8219 0.158867
    endloop
  endfacet
  facet normal -1 -0 0
    outer loop
      vertex -35.1562 -28.1344 4.84637
      vertex -35.1562 -32.8219 0.158867
      vertex -35.1562 -28.1344 9.53855
    endloop
  endfacet
  facet normal -1 -0 0
    outer loop
      vertex -35.1562 -23.4422 4.84637
      vertex -35.1562 -32.8219 0.158867
      vertex -35.1562 -28.1344 4.84637
    endloop
  endfacet
  facet normal -1 0 0
    outer loop
      vertex -35.1562 32.8219 0.158867
      vertex -35.1562 28.1344 9.53855
      vertex -35.1562 32.8219 18.375
    endloop
  endfacet
  facet normal -1 0 0
    outer loop
      vertex -35.1562 23.4422 9.53855
      vertex -35.1562 32.8219 18.375
      vertex -35.1562 28.1344 9.53855
    endloop
  endfacet
  facet normal -1 0 0
    outer loop
      vertex -35.1562 4.6875 18.375
      vertex -35.1562 23.4422 9.53855
      vertex -35.1562 4.6875 9.53855
    endloop
  endfacet
  facet normal -1 0 0
    outer loop
      vertex -35.1562 23.4422 9.53855
      vertex -35.1562 4.6875 18.375
      vertex -35.1562 32.8219 18.375
    endloop
  endfacet
  facet normal -1 0 0
    outer loop
      vertex -35.1562 -4.6875 9.53855
      vertex -35.1562 -23.4422 9.53855
      vertex -35.1562 -4.6875 18.375
    endloop
  endfacet
  facet normal -1 0 0
    outer loop
      vertex -35.1562 -32.8219 18.375
      vertex -35.1562 -23.4422 9.53855
      vertex -35.1562 -28.1344 9.53855
    endloop
  endfacet
  facet normal -1 0 0
    outer loop
      vertex -35.1562 -23.4422 9.53855
      vertex -35.1562 -32.8219 18.375
      vertex -35.1562 -4.6875 18.375
    endloop
  endfacet
  facet normal -1 0 0
    outer loop
      vertex -35.1562 -32.8219 18.375
      vertex -35.1562 -28.1344 9.53855
      vertex -35.1562 -32.8219 0.158867
    endloop
  endfacet
  facet normal 0 0 -1
    outer loop
      vertex 32.8219 23.4422 9.53855
      vertex 35.1562 28.1344 9.53855
      vertex 35.1562 23.4422 9.53855
    endloop
  endfacet
  facet normal -0 0 -1
    outer loop
      vertex 35.1562 28.1344 9.53855
      vertex 32.8219 23.4422 9.53855
      vertex 32.8219 28.1344 9.53855
    endloop
  endfacet
  facet normal -1 0 0
    outer loop
      vertex -32.8219 23.4422 4.84637
      vertex -32.8219 28.1344 9.53855
      vertex -32.8219 28.1344 4.84637
    endloop
  endfacet
  facet normal -1 -0 0
    outer loop
      vertex -32.8219 28.1344 9.53855
      vertex -32.8219 23.4422 4.84637
      vertex -32.8219 23.4422 9.53855
    endloop
  endfacet
  facet normal -1 0 0
    outer loop
      vertex -32.8219 -28.1344 4.84637
      vertex -32.8219 -23.4422 9.53855
      vertex -32.8219 -23.4422 4.84637
    endloop
  endfacet
  facet normal -1 -0 0
    outer loop
      vertex -32.8219 -23.4422 9.53855
      vertex -32.8219 -28.1344 4.84637
      vertex -32.8219 -28.1344 9.53855
    endloop
  endfacet
  facet normal 1 -0 0
    outer loop
      vertex 32.8219 -35.1562 18.375
      vertex 32.8219 -32.8219 0.158867
      vertex 32.8219 -32.8219 18.375
    endloop
  endfacet
  facet normal 1 0 0
    outer loop
      vertex 32.8219 -32.8219 0.158867
      vertex 32.8219 -35.1562 18.375
      vertex 32.8219 -35.1562 0.158867
    endloop
  endfacet
  facet normal 0 1 -0
    outer loop
      vertex 35.1562 23.4422 4.84637
      vertex 32.8219 23.4422 9.53855
      vertex 35.1562 23.4422 9.53855
    endloop
  endfacet
  facet normal 0 1 0
    outer loop
      vertex 32.8219 23.4422 9.53855
      vertex 35.1562 23.4422 4.84637
      vertex 32.8219 23.4422 4.84637
    endloop
  endfacet
  facet normal 0 1 -0
    outer loop
      vertex 4.6875 32.8219 9.53855
      vertex -4.6875 32.8219 18.375
      vertex 4.6875 32.8219 18.375
    endloop
  endfacet
  facet normal 0 1 0
    outer loop
      vertex -4.6875 32.8219 18.375
      vertex 4.6875 32.8219 9.53855
      vertex -4.6875 32.8219 9.53855
    endloop
  endfacet
  facet normal 1 -0 0
    outer loop
      vertex 32.8219 -28.1344 9.53855
      vertex 32.8219 -23.4422 4.84637
      vertex 32.8219 -23.4422 9.53855
    endloop
  endfacet
  facet normal 1 0 0
    outer loop
      vertex 32.8219 -23.4422 4.84637
      vertex 32.8219 -28.1344 9.53855
      vertex 32.8219 -28.1344 4.84637
    endloop
  endfacet
  facet normal 0 -1 0
    outer loop
      vertex -35.1562 4.6875 9.53855
      vertex -32.8219 4.6875 18.375
      vertex -35.1562 4.6875 18.375
    endloop
  endfacet
  facet normal 0 -1 -0
    outer loop
      vertex -32.8219 4.6875 18.375
      vertex -35.1562 4.6875 9.53855
      vertex -32.8219 4.6875 9.53855
    endloop
  endfacet
  facet normal 0 -1 0
    outer loop
      vertex 32.8219 4.6875 9.53855
      vertex 35.1562 4.6875 18.375
      vertex 32.8219 4.6875 18.375
    endloop
  endfacet
  facet normal 0 -1 -0
    outer loop
      vertex 35.1562 4.6875 18.375
      vertex 32.8219 4.6875 9.53855
      vertex 35.1562 4.6875 9.53855
    endloop
  endfacet
  facet normal -1 0 0
    outer loop
      vertex -32.8219 -4.6875 9.53855
      vertex -32.8219 4.6875 18.375
      vertex -32.8219 4.6875 9.53855
    endloop
  endfacet
  facet normal -1 -0 0
    outer loop
      vertex -32.8219 4.6875 18.375
      vertex -32.8219 -4.6875 9.53855
      vertex -32.8219 -4.6875 18.375
    endloop
  endfacet
  facet normal 1 -0 0
    outer loop
      vertex 32.8219 23.4422 9.53855
      vertex 32.8219 28.1344 4.84637
      vertex 32.8219 28.1344 9.53855
    endloop
  endfacet
  facet normal 1 0 0
    outer loop
      vertex 32.8219 28.1344 4.84637
      vertex 32.8219 23.4422 9.53855
      vertex 32.8219 23.4422 4.84637
    endloop
  endfacet
  facet normal 0 1 -0
    outer loop
      vertex 35.1562 -4.6875 9.53855
      vertex 32.8219 -4.6875 18.375
      vertex 35.1562 -4.6875 18.375
    endloop
  endfacet
  facet normal 0 1 0
    outer loop
      vertex 32.8219 -4.6875 18.375
      vertex 35.1562 -4.6875 9.53855
      vertex 32.8219 -4.6875 9.53855
    endloop
  endfacet
  facet normal 1 -0 0
    outer loop
      vertex 32.8219 -4.6875 18.375
      vertex 32.8219 4.6875 9.53855
      vertex 32.8219 4.6875 18.375
    endloop
  endfacet
  facet normal 1 0 0
    outer loop
      vertex 32.8219 4.6875 9.53855
      vertex 32.8219 -4.6875 18.375
      vertex 32.8219 -4.6875 9.53855
    endloop
  endfacet
  facet normal -1 0 0
    outer loop
      vertex -23.4422 32.8219 4.84637
      vertex -23.4422 35.1562 9.53855
      vertex -23.4422 35.1562 4.84637
    endloop
  endfacet
  facet normal -1 -0 0
    outer loop
      vertex -23.4422 35.1562 9.53855
      vertex -23.4422 32.8219 4.84637
      vertex -23.4422 32.8219 9.53855
    endloop
  endfacet
  facet normal -1 0 0
    outer loop
      vertex 4.6875 -35.1562 9.53855
      vertex 4.6875 -32.8219 18.375
      vertex 4.6875 -32.8219 9.53855
    endloop
  endfacet
  facet normal -1 -0 0
    outer loop
      vertex 4.6875 -32.8219 18.375
      vertex 4.6875 -35.1562 9.53855
      vertex 4.6875 -35.1562 18.375
    endloop
  endfacet
  facet normal -1 0 0
    outer loop
      vertex -23.4422 -35.1562 4.84637
      vertex -23.4422 -32.8219 9.53855
      vertex -23.4422 -32.8219 4.84637
    endloop
  endfacet
  facet normal -1 -0 0
    outer loop
      vertex -23.4422 -32.8219 9.53855
      vertex -23.4422 -35.1562 4.84637
      vertex -23.4422 -35.1562 9.53855
    endloop
  endfacet
  facet normal 1 -0 0
    outer loop
      vertex -4.6875 -35.1562 18.375
      vertex -4.6875 -32.8219 9.53855
      vertex -4.6875 -32.8219 18.375
    endloop
  endfacet
  facet normal 1 0 0
    outer loop
      vertex -4.6875 -32.8219 9.53855
      vertex -4.6875 -35.1562 18.375
      vertex -4.6875 -35.1562 9.53855
    endloop
  endfacet
  facet normal 0 0 -1
    outer loop
      vertex -35.1562 -32.8219 0.158867
      vertex -32.8219 32.8219 0.158867
      vertex -32.8219 -32.8219 0.158867
    endloop
  endfacet
  facet normal -0 0 -1
    outer loop
      vertex -32.8219 32.8219 0.158867
      vertex -35.1562 -32.8219 0.158867
      vertex -35.1562 32.8219 0.158867
    endloop
  endfacet
  facet normal 0 0 -1
    outer loop
      vertex -32.8219 -32.8219 0.158867
      vertex 32.8219 -32.8219 0.158867
      vertex 32.8219 -35.1562 0.158867
    endloop
  endfacet
  facet normal 0 0 -1
    outer loop
      vertex 32.8219 -32.8219 0.158867
      vertex -32.8219 -32.8219 0.158867
      vertex 32.8219 32.8219 0.158867
    endloop
  endfacet
  facet normal 0 0 -1
    outer loop
      vertex -32.8219 -32.8219 0.158867
      vertex 32.8219 -35.1562 0.158867
      vertex -32.8219 -35.1562 0.158867
    endloop
  endfacet
  facet normal 0 0 -1
    outer loop
      vertex -32.8219 32.8219 0.158867
      vertex 32.8219 32.8219 0.158867
      vertex -32.8219 -32.8219 0.158867
    endloop
  endfacet
  facet normal 0 0 -1
    outer loop
      vertex 32.8219 32.8219 0.158867
      vertex -32.8219 32.8219 0.158867
      vertex 32.8219 35.1562 0.158867
    endloop
  endfacet
  facet normal -0 0 -1
    outer loop
      vertex 32.8219 35.1562 0.158867
      vertex -32.8219 32.8219 0.158867
      vertex -32.8219 35.1562 0.158867
    endloop
  endfacet
  facet normal 0 0 -1
    outer loop
      vertex 32.8219 -32.8219 0.158867
      vertex 35.1562 32.8219 0.158867
      vertex 35.1562 -32.8219 0.158867
    endloop
  endfacet
  facet normal -0 0 -1
    outer loop
      vertex 35.1562 32.8219 0.158867
      vertex 32.8219 -32.8219 0.158867
      vertex 32.8219 32.8219 0.158867
    endloop
  endfacet
endsolid OpenSCAD_Model
