solid OpenSCAD_Model
  facet normal 1 0 0
    outer loop
      vertex 70.3125 65.6437 39.75
      vertex 70.3125 56.2687 19.0771
      vertex 70.3125 65.6437 0.317734
    endloop
  endfacet
  facet normal 1 0 0
    outer loop
      vertex 70.3125 65.6437 39.75
      vertex 70.3125 46.8844 19.0771
      vertex 70.3125 56.2687 19.0771
    endloop
  endfacet
  facet normal 1 0 0
    outer loop
      vertex 70.3125 9.375 19.0771
      vertex 70.3125 46.8844 19.0771
      vertex 70.3125 9.375 37.8271
    endloop
  endfacet
  facet normal 1 0 0
    outer loop
      vertex 70.3125 65.6437 39.75
      vertex 70.3125 9.375 37.8271
      vertex 70.3125 46.8844 19.0771
    endloop
  endfacet
  facet normal 1 0 0
    outer loop
      vertex 70.3125 65.6437 39.75
      vertex 70.3125 -9.375 37.8271
      vertex 70.3125 9.375 37.8271
    endloop
  endfacet
  facet normal 1 0 0
    outer loop
      vertex 70.3125 -9.375 37.8271
      vertex 70.3125 -46.8844 19.0771
      vertex 70.3125 -9.375 19.0771
    endloop
  endfacet
  facet normal 1 0 0
    outer loop
      vertex 70.3125 -65.6438 39.75
      vertex 70.3125 -46.8844 19.0771
      vertex 70.3125 -9.375 37.8271
    endloop
  endfacet
  facet normal 1 0 0
    outer loop
      vertex 70.3125 -65.6438 0.317734
      vertex 70.3125 -56.2688 19.0771
      vertex 70.3125 -65.6438 39.75
    endloop
  endfacet
  facet normal 1 0 0
    outer loop
      vertex 70.3125 -46.8844 19.0771
      vertex 70.3125 -65.6438 39.75
      vertex 70.3125 -56.2688 19.0771
    endloop
  endfacet
  facet normal 1 -0 0
    outer loop
      vertex 70.3125 -65.6438 39.75
      vertex 70.3125 -9.375 37.8271
      vertex 70.3125 65.6437 39.75
    endloop
  endfacet
  facet normal 1 -0 0
    outer loop
      vertex 70.3125 56.2687 9.69273
      vertex 70.3125 65.6437 0.317734
      vertex 70.3125 56.2687 19.0771
    endloop
  endfacet
  facet normal 1 -0 0
    outer loop
      vertex 70.3125 46.8844 9.69273
      vertex 70.3125 65.6437 0.317734
      vertex 70.3125 56.2687 9.69273
    endloop
  endfacet
  facet normal 1 0 0
    outer loop
      vertex 70.3125 46.8844 19.0771
      vertex 70.3125 9.375 19.0771
      vertex 70.3125 46.8844 9.69273
    endloop
  endfacet
  facet normal 1 -0 0
    outer loop
      vertex 70.3125 -9.375 19.0771
      vertex 70.3125 46.8844 9.69273
      vertex 70.3125 9.375 19.0771
    endloop
  endfacet
  facet normal 1 0 0
    outer loop
      vertex 70.3125 -46.8844 9.69273
      vertex 70.3125 46.8844 9.69273
      vertex 70.3125 -9.375 19.0771
    endloop
  endfacet
  facet normal 1 0 0
    outer loop
      vertex 70.3125 -46.8844 9.69273
      vertex 70.3125 -9.375 19.0771
      vertex 70.3125 -46.8844 19.0771
    endloop
  endfacet
  facet normal 1 0 0
    outer loop
      vertex 70.3125 46.8844 9.69273
      vertex 70.3125 -46.8844 9.69273
      vertex 70.3125 65.6437 0.317734
    endloop
  endfacet
  facet normal 1 0 0
    outer loop
      vertex 70.3125 -65.6438 0.317734
      vertex 70.3125 -46.8844 9.69273
      vertex 70.3125 -56.2688 9.69273
    endloop
  endfacet
  facet normal 1 0 0
    outer loop
      vertex 70.3125 -46.8844 9.69273
      vertex 70.3125 -65.6438 0.317734
      vertex 70.3125 65.6437 0.317734
    endloop
  endfacet
  facet normal 1 0 0
    outer loop
      vertex 70.3125 -56.2688 19.0771
      vertex 70.3125 -65.6438 0.317734
      vertex 70.3125 -56.2688 9.69273
    endloop
  endfacet
  facet normal -0 0 1
    outer loop
      vertex -56.2687 70.3125 9.69273
      vertex -46.8844 68.25 9.69273
      vertex -46.8844 70.3125 9.69273
    endloop
  endfacet
  facet normal 0 0 1
    outer loop
      vertex -46.8844 68.25 9.69273
      vertex -56.2687 70.3125 9.69273
      vertex -56.2687 68.25 9.69273
    endloop
  endfacet
  facet normal -0 0 1
    outer loop
      vertex 46.8844 -68.25 9.69273
      vertex 56.2688 -70.3125 9.69273
      vertex 56.2688 -68.25 9.69273
    endloop
  endfacet
  facet normal 0 0 1
    outer loop
      vertex 56.2688 -70.3125 9.69273
      vertex 46.8844 -68.25 9.69273
      vertex 46.8844 -70.3125 9.69273
    endloop
  endfacet
  facet normal 0 0 -1
    outer loop
      vertex 46.8844 -70.3125 19.0771
      vertex 56.2688 -68.25 19.0771
      vertex 56.2688 -70.3125 19.0771
    endloop
  endfacet
  facet normal -0 0 -1
    outer loop
      vertex 56.2688 -68.25 19.0771
      vertex 46.8844 -70.3125 19.0771
      vertex 46.8844 -68.25 19.0771
    endloop
  endfacet
  facet normal 0 0 -1
    outer loop
      vertex -56.2687 68.25 19.0771
      vertex -46.8844 70.3125 19.0771
      vertex -46.8844 68.25 19.0771
    endloop
  endfacet
  facet normal -0 0 -1
    outer loop
      vertex -46.8844 70.3125 19.0771
      vertex -56.2687 68.25 19.0771
      vertex -56.2687 70.3125 19.0771
    endloop
  endfacet
  facet normal -0 0 1
    outer loop
      vertex 46.8844 70.3125 9.69273
      vertex 56.2688 68.25 9.69273
      vertex 56.2688 70.3125 9.69273
    endloop
  endfacet
  facet normal 0 0 1
    outer loop
      vertex 56.2688 68.25 9.69273
      vertex 46.8844 70.3125 9.69273
      vertex 46.8844 68.25 9.69273
    endloop
  endfacet
  facet normal 0 -1 0
    outer loop
      vertex -65.6437 -70.3125 39.75
      vertex -9.375 -70.3125 37.8271
      vertex 65.6438 -70.3125 39.75
    endloop
  endfacet
  facet normal 0 -1 0
    outer loop
      vertex -46.8844 -70.3125 19.0771
      vertex -65.6437 -70.3125 39.75
      vertex -56.2687 -70.3125 19.0771
    endloop
  endfacet
  facet normal 0 -1 0
    outer loop
      vertex -65.6437 -70.3125 0.317734
      vertex -56.2687 -70.3125 19.0771
      vertex -65.6437 -70.3125 39.75
    endloop
  endfacet
  facet normal 0 -1 0
    outer loop
      vertex -65.6437 -70.3125 0.317734
      vertex -46.8844 -70.3125 9.69273
      vertex -56.2687 -70.3125 9.69273
    endloop
  endfacet
  facet normal 0 -1 -0
    outer loop
      vertex -46.8844 -70.3125 9.69273
      vertex -65.6437 -70.3125 0.317734
      vertex 46.8844 -70.3125 9.69273
    endloop
  endfacet
  facet normal 0 -1 0
    outer loop
      vertex 65.6438 -70.3125 0.317734
      vertex 46.8844 -70.3125 9.69273
      vertex -65.6437 -70.3125 0.317734
    endloop
  endfacet
  facet normal 0 -1 -0
    outer loop
      vertex -56.2687 -70.3125 19.0771
      vertex -65.6437 -70.3125 0.317734
      vertex -56.2687 -70.3125 9.69273
    endloop
  endfacet
  facet normal 0 -1 0
    outer loop
      vertex 9.375 -70.3125 37.8271
      vertex 65.6438 -70.3125 39.75
      vertex -9.375 -70.3125 37.8271
    endloop
  endfacet
  facet normal 0 -1 0
    outer loop
      vertex 46.8844 -70.3125 19.0771
      vertex 9.375 -70.3125 37.8271
      vertex 9.375 -70.3125 19.0771
    endloop
  endfacet
  facet normal 0 -1 0
    outer loop
      vertex 9.375 -70.3125 37.8271
      vertex 46.8844 -70.3125 19.0771
      vertex 65.6438 -70.3125 39.75
    endloop
  endfacet
  facet normal 0 -1 0
    outer loop
      vertex 56.2688 -70.3125 19.0771
      vertex 65.6438 -70.3125 39.75
      vertex 46.8844 -70.3125 19.0771
    endloop
  endfacet
  facet normal 0 -1 0
    outer loop
      vertex 65.6438 -70.3125 0.317734
      vertex 56.2688 -70.3125 19.0771
      vertex 56.2688 -70.3125 9.69273
    endloop
  endfacet
  facet normal 0 -1 0
    outer loop
      vertex 56.2688 -70.3125 19.0771
      vertex 65.6438 -70.3125 0.317734
      vertex 65.6438 -70.3125 39.75
    endloop
  endfacet
  facet normal 0 -1 0
    outer loop
      vertex 46.8844 -70.3125 9.69273
      vertex 65.6438 -70.3125 0.317734
      vertex 56.2688 -70.3125 9.69273
    endloop
  endfacet
  facet normal 0 -1 0
    outer loop
      vertex -65.6437 -70.3125 39.75
      vertex -46.8844 -70.3125 19.0771
      vertex -9.375 -70.3125 37.8271
    endloop
  endfacet
  facet normal 0 -1 0
    outer loop
      vertex -46.8844 -70.3125 19.0771
      vertex -9.375 -70.3125 19.0771
      vertex -9.375 -70.3125 37.8271
    endloop
  endfacet
  facet normal 0 -1 0
    outer loop
      vertex -46.8844 -70.3125 9.69273
      vertex -9.375 -70.3125 19.0771
      vertex -46.8844 -70.3125 19.0771
    endloop
  endfacet
  facet normal 0 -1 -0
    outer loop
      vertex -9.375 -70.3125 19.0771
      vertex -46.8844 -70.3125 9.69273
      vertex 9.375 -70.3125 19.0771
    endloop
  endfacet
  facet normal 0 -1 0
    outer loop
      vertex 46.8844 -70.3125 9.69273
      vertex 9.375 -70.3125 19.0771
      vertex -46.8844 -70.3125 9.69273
    endloop
  endfacet
  facet normal 0 -1 0
    outer loop
      vertex 9.375 -70.3125 19.0771
      vertex 46.8844 -70.3125 9.69273
      vertex 46.8844 -70.3125 19.0771
    endloop
  endfacet
  facet normal 0 0 -1
    outer loop
      vertex 46.8844 68.25 19.0771
      vertex 56.2688 70.3125 19.0771
      vertex 56.2688 68.25 19.0771
    endloop
  endfacet
  facet normal -0 0 -1
    outer loop
      vertex 56.2688 70.3125 19.0771
      vertex 46.8844 68.25 19.0771
      vertex 46.8844 70.3125 19.0771
    endloop
  endfacet
  facet normal 1 -0 0
    outer loop
      vertex -56.2687 68.25 19.0771
      vertex -56.2687 70.3125 9.69273
      vertex -56.2687 70.3125 19.0771
    endloop
  endfacet
  facet normal 1 0 0
    outer loop
      vertex -56.2687 70.3125 9.69273
      vertex -56.2687 68.25 19.0771
      vertex -56.2687 68.25 9.69273
    endloop
  endfacet
  facet normal 1 -0 0
    outer loop
      vertex 46.8844 68.25 19.0771
      vertex 46.8844 70.3125 9.69273
      vertex 46.8844 70.3125 19.0771
    endloop
  endfacet
  facet normal 1 0 0
    outer loop
      vertex 46.8844 70.3125 9.69273
      vertex 46.8844 68.25 19.0771
      vertex 46.8844 68.25 9.69273
    endloop
  endfacet
  facet normal 1 -0 0
    outer loop
      vertex -56.2687 -70.3125 19.0771
      vertex -56.2687 -68.25 9.69273
      vertex -56.2687 -68.25 19.0771
    endloop
  endfacet
  facet normal 1 0 0
    outer loop
      vertex -56.2687 -68.25 9.69273
      vertex -56.2687 -70.3125 19.0771
      vertex -56.2687 -70.3125 9.69273
    endloop
  endfacet
  facet normal 1 -0 0
    outer loop
      vertex 46.8844 -70.3125 19.0771
      vertex 46.8844 -68.25 9.69273
      vertex 46.8844 -68.25 19.0771
    endloop
  endfacet
  facet normal 1 0 0
    outer loop
      vertex 46.8844 -68.25 9.69273
      vertex 46.8844 -70.3125 19.0771
      vertex 46.8844 -70.3125 9.69273
    endloop
  endfacet
  facet normal 1 -0 0
    outer loop
      vertex -9.375 68.25 37.8271
      vertex -9.375 70.3125 19.0771
      vertex -9.375 70.3125 37.8271
    endloop
  endfacet
  facet normal 1 0 0
    outer loop
      vertex -9.375 70.3125 19.0771
      vertex -9.375 68.25 37.8271
      vertex -9.375 68.25 19.0771
    endloop
  endfacet
  facet normal -1 0 0
    outer loop
      vertex -65.6437 70.3125 0.317734
      vertex -65.6437 68.25 4.94812
      vertex -65.6437 70.3125 39.75
    endloop
  endfacet
  facet normal -1 0 0
    outer loop
      vertex -65.6437 70.3125 0.317734
      vertex -65.6437 66.75 2
      vertex -65.6437 68.25 4.94812
    endloop
  endfacet
  facet normal -1 0 0
    outer loop
      vertex -65.6437 65.6437 0.317734
      vertex -65.6437 66.75 2
      vertex -65.6437 70.3125 0.317734
    endloop
  endfacet
  facet normal -1 -0 0
    outer loop
      vertex -65.6437 66.75 2
      vertex -65.6437 65.6437 0.317734
      vertex -65.6437 65.6437 2
    endloop
  endfacet
  facet normal -1 -0 0
    outer loop
      vertex -65.6437 70.3125 39.75
      vertex -65.6437 68.25 4.94812
      vertex -65.6437 68.25 39.75
    endloop
  endfacet
  facet normal -1 -0 0
    outer loop
      vertex -65.6437 68.25 4.94812
      vertex -65.6437 66.75 2
      vertex -65.6437 66.75 4.94812
    endloop
  endfacet
  facet normal 0 0 -1
    outer loop
      vertex -9.375 68.25 37.8271
      vertex 9.375 70.3125 37.8271
      vertex 9.375 68.25 37.8271
    endloop
  endfacet
  facet normal -0 0 -1
    outer loop
      vertex 9.375 70.3125 37.8271
      vertex -9.375 68.25 37.8271
      vertex -9.375 70.3125 37.8271
    endloop
  endfacet
  facet normal 0 1 0
    outer loop
      vertex -65.6437 65.6437 2
      vertex -65.6437 65.6437 0.317734
      vertex -66.75 65.6437 2
    endloop
  endfacet
  facet normal 0 1 0
    outer loop
      vertex -66.75 65.6437 4.94812
      vertex -66.75 65.6437 2
      vertex -68.25 65.6437 4.94812
    endloop
  endfacet
  facet normal 0 1 -0
    outer loop
      vertex -68.25 65.6437 4.94812
      vertex -70.3125 65.6437 39.75
      vertex -68.25 65.6437 39.75
    endloop
  endfacet
  facet normal 0 1 0
    outer loop
      vertex -68.25 65.6437 4.94812
      vertex -70.3125 65.6437 0.317734
      vertex -70.3125 65.6437 39.75
    endloop
  endfacet
  facet normal 0 1 0
    outer loop
      vertex -66.75 65.6437 2
      vertex -70.3125 65.6437 0.317734
      vertex -68.25 65.6437 4.94812
    endloop
  endfacet
  facet normal 0 1 0
    outer loop
      vertex -70.3125 65.6437 0.317734
      vertex -66.75 65.6437 2
      vertex -65.6437 65.6437 0.317734
    endloop
  endfacet
  facet normal -0 0 1
    outer loop
      vertex -70.3125 9.375 19.0771
      vertex -68.25 -9.375 19.0771
      vertex -68.25 9.375 19.0771
    endloop
  endfacet
  facet normal 0 0 1
    outer loop
      vertex -68.25 -9.375 19.0771
      vertex -70.3125 9.375 19.0771
      vertex -70.3125 -9.375 19.0771
    endloop
  endfacet
  facet normal -1 0 0
    outer loop
      vertex 9.375 68.25 19.0771
      vertex 9.375 70.3125 37.8271
      vertex 9.375 70.3125 19.0771
    endloop
  endfacet
  facet normal -1 -0 0
    outer loop
      vertex 9.375 70.3125 37.8271
      vertex 9.375 68.25 19.0771
      vertex 9.375 68.25 37.8271
    endloop
  endfacet
  facet normal 0 -1 0
    outer loop
      vertex -70.3125 -65.6438 39.75
      vertex -68.25 -65.6438 4.94812
      vertex -68.25 -65.6438 39.75
    endloop
  endfacet
  facet normal 0 -1 0
    outer loop
      vertex -68.25 -65.6438 4.94812
      vertex -66.75 -65.6438 2
      vertex -66.75 -65.6438 4.94812
    endloop
  endfacet
  facet normal 0 -1 0
    outer loop
      vertex -70.3125 -65.6438 0.317734
      vertex -68.25 -65.6438 4.94812
      vertex -70.3125 -65.6438 39.75
    endloop
  endfacet
  facet normal 0 -1 0
    outer loop
      vertex -70.3125 -65.6438 0.317734
      vertex -66.75 -65.6438 2
      vertex -68.25 -65.6438 4.94812
    endloop
  endfacet
  facet normal 0 -1 0
    outer loop
      vertex -65.6437 -65.6438 0.317734
      vertex -66.75 -65.6438 2
      vertex -70.3125 -65.6438 0.317734
    endloop
  endfacet
  facet normal 0 -1 0
    outer loop
      vertex -66.75 -65.6438 2
      vertex -65.6437 -65.6438 0.317734
      vertex -65.6437 -65.6438 2
    endloop
  endfacet
  facet normal 0 1 -0
    outer loop
      vertex -68.25 -56.2688 9.69273
      vertex -70.3125 -56.2688 19.0771
      vertex -68.25 -56.2688 19.0771
    endloop
  endfacet
  facet normal 0 1 0
    outer loop
      vertex -70.3125 -56.2688 19.0771
      vertex -68.25 -56.2688 9.69273
      vertex -70.3125 -56.2688 9.69273
    endloop
  endfacet
  facet normal -0 0 1
    outer loop
      vertex -70.3125 56.2687 9.69273
      vertex -68.25 46.8844 9.69273
      vertex -68.25 56.2687 9.69273
    endloop
  endfacet
  facet normal 0 0 1
    outer loop
      vertex -68.25 46.8844 9.69273
      vertex -70.3125 56.2687 9.69273
      vertex -70.3125 46.8844 9.69273
    endloop
  endfacet
  facet normal -0 0 1
    outer loop
      vertex -56.2687 -68.25 9.69273
      vertex -46.8844 -70.3125 9.69273
      vertex -46.8844 -68.25 9.69273
    endloop
  endfacet
  facet normal 0 0 1
    outer loop
      vertex -46.8844 -70.3125 9.69273
      vertex -56.2687 -68.25 9.69273
      vertex -56.2687 -70.3125 9.69273
    endloop
  endfacet
  facet normal 0 0 -1
    outer loop
      vertex -70.3125 46.8844 19.0771
      vertex -68.25 56.2687 19.0771
      vertex -68.25 46.8844 19.0771
    endloop
  endfacet
  facet normal -0 0 -1
    outer loop
      vertex -68.25 56.2687 19.0771
      vertex -70.3125 46.8844 19.0771
      vertex -70.3125 56.2687 19.0771
    endloop
  endfacet
  facet normal -0 0 1
    outer loop
      vertex 68.25 9.375 19.0771
      vertex 70.3125 -9.375 19.0771
      vertex 70.3125 9.375 19.0771
    endloop
  endfacet
  facet normal 0 0 1
    outer loop
      vertex 70.3125 -9.375 19.0771
      vertex 68.25 9.375 19.0771
      vertex 68.25 -9.375 19.0771
    endloop
  endfacet
  facet normal 0 0 -1
    outer loop
      vertex -56.2687 -70.3125 19.0771
      vertex -46.8844 -68.25 19.0771
      vertex -46.8844 -70.3125 19.0771
    endloop
  endfacet
  facet normal -0 0 -1
    outer loop
      vertex -46.8844 -68.25 19.0771
      vertex -56.2687 -70.3125 19.0771
      vertex -56.2687 -68.25 19.0771
    endloop
  endfacet
  facet normal 0 -1 0
    outer loop
      vertex 68.25 56.2687 9.69273
      vertex 70.3125 56.2687 19.0771
      vertex 68.25 56.2687 19.0771
    endloop
  endfacet
  facet normal 0 -1 -0
    outer loop
      vertex 70.3125 56.2687 19.0771
      vertex 68.25 56.2687 9.69273
      vertex 70.3125 56.2687 9.69273
    endloop
  endfacet
  facet normal 0 -1 0
    outer loop
      vertex -70.3125 56.2687 9.69273
      vertex -68.25 56.2687 19.0771
      vertex -70.3125 56.2687 19.0771
    endloop
  endfacet
  facet normal 0 -1 -0
    outer loop
      vertex -68.25 56.2687 19.0771
      vertex -70.3125 56.2687 9.69273
      vertex -68.25 56.2687 9.69273
    endloop
  endfacet
  facet normal 0 1 0
    outer loop
      vertex 65.6438 70.3125 39.75
      vertex 9.375 70.3125 37.8271
      vertex -65.6437 70.3125 39.75
    endloop
  endfacet
  facet normal 0 1 0
    outer loop
      vertex 46.8844 70.3125 19.0771
      vertex 65.6438 70.3125 39.75
      vertex 56.2688 70.3125 19.0771
    endloop
  endfacet
  facet normal 0 1 -0
    outer loop
      vertex 65.6438 70.3125 0.317734
      vertex 56.2688 70.3125 19.0771
      vertex 65.6438 70.3125 39.75
    endloop
  endfacet
  facet normal 0 1 0
    outer loop
      vertex 65.6438 70.3125 0.317734
      vertex 46.8844 70.3125 9.69273
      vertex 56.2688 70.3125 9.69273
    endloop
  endfacet
  facet normal 0 1 0
    outer loop
      vertex 46.8844 70.3125 9.69273
      vertex 65.6438 70.3125 0.317734
      vertex -46.8844 70.3125 9.69273
    endloop
  endfacet
  facet normal 0 1 0
    outer loop
      vertex -65.6437 70.3125 0.317734
      vertex -46.8844 70.3125 9.69273
      vertex 65.6438 70.3125 0.317734
    endloop
  endfacet
  facet normal 0 1 0
    outer loop
      vertex 56.2688 70.3125 19.0771
      vertex 65.6438 70.3125 0.317734
      vertex 56.2688 70.3125 9.69273
    endloop
  endfacet
  facet normal 0 1 -0
    outer loop
      vertex -9.375 70.3125 37.8271
      vertex -65.6437 70.3125 39.75
      vertex 9.375 70.3125 37.8271
    endloop
  endfacet
  facet normal 0 1 0
    outer loop
      vertex -46.8844 70.3125 19.0771
      vertex -9.375 70.3125 37.8271
      vertex -9.375 70.3125 19.0771
    endloop
  endfacet
  facet normal 0 1 0
    outer loop
      vertex -9.375 70.3125 37.8271
      vertex -46.8844 70.3125 19.0771
      vertex -65.6437 70.3125 39.75
    endloop
  endfacet
  facet normal 0 1 -0
    outer loop
      vertex -56.2687 70.3125 19.0771
      vertex -65.6437 70.3125 39.75
      vertex -46.8844 70.3125 19.0771
    endloop
  endfacet
  facet normal 0 1 0
    outer loop
      vertex -65.6437 70.3125 0.317734
      vertex -56.2687 70.3125 19.0771
      vertex -56.2687 70.3125 9.69273
    endloop
  endfacet
  facet normal 0 1 0
    outer loop
      vertex -56.2687 70.3125 19.0771
      vertex -65.6437 70.3125 0.317734
      vertex -65.6437 70.3125 39.75
    endloop
  endfacet
  facet normal 0 1 0
    outer loop
      vertex -46.8844 70.3125 9.69273
      vertex -65.6437 70.3125 0.317734
      vertex -56.2687 70.3125 9.69273
    endloop
  endfacet
  facet normal 0 1 0
    outer loop
      vertex 65.6438 70.3125 39.75
      vertex 46.8844 70.3125 19.0771
      vertex 9.375 70.3125 37.8271
    endloop
  endfacet
  facet normal 0 1 0
    outer loop
      vertex 46.8844 70.3125 19.0771
      vertex 9.375 70.3125 19.0771
      vertex 9.375 70.3125 37.8271
    endloop
  endfacet
  facet normal 0 1 -0
    outer loop
      vertex 46.8844 70.3125 9.69273
      vertex 9.375 70.3125 19.0771
      vertex 46.8844 70.3125 19.0771
    endloop
  endfacet
  facet normal 0 1 0
    outer loop
      vertex 9.375 70.3125 19.0771
      vertex 46.8844 70.3125 9.69273
      vertex -9.375 70.3125 19.0771
    endloop
  endfacet
  facet normal 0 1 0
    outer loop
      vertex -46.8844 70.3125 9.69273
      vertex -9.375 70.3125 19.0771
      vertex 46.8844 70.3125 9.69273
    endloop
  endfacet
  facet normal 0 1 0
    outer loop
      vertex -9.375 70.3125 19.0771
      vertex -46.8844 70.3125 9.69273
      vertex -46.8844 70.3125 19.0771
    endloop
  endfacet
  facet normal 0 1 -0
    outer loop
      vertex -68.25 46.8844 9.69273
      vertex -70.3125 46.8844 19.0771
      vertex -68.25 46.8844 19.0771
    endloop
  endfacet
  facet normal 0 1 0
    outer loop
      vertex -70.3125 46.8844 19.0771
      vertex -68.25 46.8844 9.69273
      vertex -70.3125 46.8844 9.69273
    endloop
  endfacet
  facet normal -0 0 1
    outer loop
      vertex -70.3125 -46.8844 9.69273
      vertex -68.25 -56.2688 9.69273
      vertex -68.25 -46.8844 9.69273
    endloop
  endfacet
  facet normal 0 0 1
    outer loop
      vertex -68.25 -56.2688 9.69273
      vertex -70.3125 -46.8844 9.69273
      vertex -70.3125 -56.2688 9.69273
    endloop
  endfacet
  facet normal -0 0 1
    outer loop
      vertex -9.375 -68.25 19.0771
      vertex 9.375 -70.3125 19.0771
      vertex 9.375 -68.25 19.0771
    endloop
  endfacet
  facet normal 0 0 1
    outer loop
      vertex 9.375 -70.3125 19.0771
      vertex -9.375 -68.25 19.0771
      vertex -9.375 -70.3125 19.0771
    endloop
  endfacet
  facet normal 0 0 -1
    outer loop
      vertex -70.3125 -56.2688 19.0771
      vertex -68.25 -46.8844 19.0771
      vertex -68.25 -56.2688 19.0771
    endloop
  endfacet
  facet normal -0 0 -1
    outer loop
      vertex -68.25 -46.8844 19.0771
      vertex -70.3125 -56.2688 19.0771
      vertex -70.3125 -46.8844 19.0771
    endloop
  endfacet
  facet normal -1 0 0
    outer loop
      vertex 56.2688 68.25 9.69273
      vertex 56.2688 70.3125 19.0771
      vertex 56.2688 70.3125 9.69273
    endloop
  endfacet
  facet normal -1 -0 0
    outer loop
      vertex 56.2688 70.3125 19.0771
      vertex 56.2688 68.25 9.69273
      vertex 56.2688 68.25 19.0771
    endloop
  endfacet
  facet normal 0 -1 0
    outer loop
      vertex -70.3125 -46.8844 9.69273
      vertex -68.25 -46.8844 19.0771
      vertex -70.3125 -46.8844 19.0771
    endloop
  endfacet
  facet normal 0 -1 -0
    outer loop
      vertex -68.25 -46.8844 19.0771
      vertex -70.3125 -46.8844 9.69273
      vertex -68.25 -46.8844 9.69273
    endloop
  endfacet
  facet normal -0 0 1
    outer loop
      vertex -9.375 70.3125 19.0771
      vertex 9.375 68.25 19.0771
      vertex 9.375 70.3125 19.0771
    endloop
  endfacet
  facet normal 0 0 1
    outer loop
      vertex 9.375 68.25 19.0771
      vertex -9.375 70.3125 19.0771
      vertex -9.375 68.25 19.0771
    endloop
  endfacet
  facet normal -1 0 0
    outer loop
      vertex 56.2688 -70.3125 9.69273
      vertex 56.2688 -68.25 19.0771
      vertex 56.2688 -68.25 9.69273
    endloop
  endfacet
  facet normal -1 -0 0
    outer loop
      vertex 56.2688 -68.25 19.0771
      vertex 56.2688 -70.3125 9.69273
      vertex 56.2688 -70.3125 19.0771
    endloop
  endfacet
  facet normal 0 1 0
    outer loop
      vertex 70.3125 65.6437 39.75
      vertex 68.25 65.6437 4.94812
      vertex 68.25 65.6437 39.75
    endloop
  endfacet
  facet normal 0 1 0
    outer loop
      vertex 68.25 65.6437 4.94812
      vertex 66.75 65.6437 2
      vertex 66.75 65.6437 4.94812
    endloop
  endfacet
  facet normal 0 1 -0
    outer loop
      vertex 70.3125 65.6437 0.317734
      vertex 68.25 65.6437 4.94812
      vertex 70.3125 65.6437 39.75
    endloop
  endfacet
  facet normal 0 1 0
    outer loop
      vertex 70.3125 65.6437 0.317734
      vertex 66.75 65.6437 2
      vertex 68.25 65.6437 4.94812
    endloop
  endfacet
  facet normal 0 1 0
    outer loop
      vertex 65.6438 65.6437 0.317734
      vertex 66.75 65.6437 2
      vertex 70.3125 65.6437 0.317734
    endloop
  endfacet
  facet normal 0 1 0
    outer loop
      vertex 66.75 65.6437 2
      vertex 65.6438 65.6437 0.317734
      vertex 65.6438 65.6437 2
    endloop
  endfacet
  facet normal 0 -1 0
    outer loop
      vertex 65.6438 -65.6438 2
      vertex 65.6438 -65.6438 0.317734
      vertex 66.75 -65.6438 2
    endloop
  endfacet
  facet normal 0 -1 0
    outer loop
      vertex 66.75 -65.6438 4.94812
      vertex 66.75 -65.6438 2
      vertex 68.25 -65.6438 4.94812
    endloop
  endfacet
  facet normal 0 -1 0
    outer loop
      vertex 68.25 -65.6438 4.94812
      vertex 70.3125 -65.6438 39.75
      vertex 68.25 -65.6438 39.75
    endloop
  endfacet
  facet normal 0 -1 0
    outer loop
      vertex 68.25 -65.6438 4.94812
      vertex 70.3125 -65.6438 0.317734
      vertex 70.3125 -65.6438 39.75
    endloop
  endfacet
  facet normal 0 -1 0
    outer loop
      vertex 66.75 -65.6438 2
      vertex 70.3125 -65.6438 0.317734
      vertex 68.25 -65.6438 4.94812
    endloop
  endfacet
  facet normal 0 -1 0
    outer loop
      vertex 70.3125 -65.6438 0.317734
      vertex 66.75 -65.6438 2
      vertex 65.6438 -65.6438 0.317734
    endloop
  endfacet
  facet normal -0 0 1
    outer loop
      vertex 68.25 -46.8844 9.69273
      vertex 70.3125 -56.2688 9.69273
      vertex 70.3125 -46.8844 9.69273
    endloop
  endfacet
  facet normal 0 0 1
    outer loop
      vertex 70.3125 -56.2688 9.69273
      vertex 68.25 -46.8844 9.69273
      vertex 68.25 -56.2688 9.69273
    endloop
  endfacet
  facet normal 0 0 -1
    outer loop
      vertex 68.25 -56.2688 19.0771
      vertex 70.3125 -46.8844 19.0771
      vertex 70.3125 -56.2688 19.0771
    endloop
  endfacet
  facet normal -0 0 -1
    outer loop
      vertex 70.3125 -46.8844 19.0771
      vertex 68.25 -56.2688 19.0771
      vertex 68.25 -46.8844 19.0771
    endloop
  endfacet
  facet normal 1 0 0
    outer loop
      vertex 65.6438 68.25 4.94812
      vertex 65.6438 70.3125 39.75
      vertex 65.6438 68.25 39.75
    endloop
  endfacet
  facet normal 1 0 0
    outer loop
      vertex 65.6438 70.3125 39.75
      vertex 65.6438 68.25 4.94812
      vertex 65.6438 70.3125 0.317734
    endloop
  endfacet
  facet normal 1 0 0
    outer loop
      vertex 65.6438 66.75 2
      vertex 65.6438 68.25 4.94812
      vertex 65.6438 66.75 4.94812
    endloop
  endfacet
  facet normal 1 0 0
    outer loop
      vertex 65.6438 68.25 4.94812
      vertex 65.6438 66.75 2
      vertex 65.6438 70.3125 0.317734
    endloop
  endfacet
  facet normal 1 0 0
    outer loop
      vertex 65.6438 65.6437 0.317734
      vertex 65.6438 66.75 2
      vertex 65.6438 65.6437 2
    endloop
  endfacet
  facet normal 1 0 0
    outer loop
      vertex 65.6438 66.75 2
      vertex 65.6438 65.6437 0.317734
      vertex 65.6438 70.3125 0.317734
    endloop
  endfacet
  facet normal -1 0 0
    outer loop
      vertex -65.6437 -65.6438 0.317734
      vertex -65.6437 -66.75 2
      vertex -65.6437 -65.6438 2
    endloop
  endfacet
  facet normal -1 0 0
    outer loop
      vertex -65.6437 -66.75 2
      vertex -65.6437 -68.25 4.94812
      vertex -65.6437 -66.75 4.94812
    endloop
  endfacet
  facet normal -1 0 0
    outer loop
      vertex -65.6437 -70.3125 0.317734
      vertex -65.6437 -66.75 2
      vertex -65.6437 -65.6438 0.317734
    endloop
  endfacet
  facet normal -1 0 0
    outer loop
      vertex -65.6437 -70.3125 0.317734
      vertex -65.6437 -68.25 4.94812
      vertex -65.6437 -66.75 2
    endloop
  endfacet
  facet normal -1 0 0
    outer loop
      vertex -65.6437 -70.3125 39.75
      vertex -65.6437 -68.25 4.94812
      vertex -65.6437 -70.3125 0.317734
    endloop
  endfacet
  facet normal -1 0 0
    outer loop
      vertex -65.6437 -68.25 4.94812
      vertex -65.6437 -70.3125 39.75
      vertex -65.6437 -68.25 39.75
    endloop
  endfacet
  facet normal 0 1 -0
    outer loop
      vertex 70.3125 -56.2688 9.69273
      vertex 68.25 -56.2688 19.0771
      vertex 70.3125 -56.2688 19.0771
    endloop
  endfacet
  facet normal 0 1 0
    outer loop
      vertex 68.25 -56.2688 19.0771
      vertex 70.3125 -56.2688 9.69273
      vertex 68.25 -56.2688 9.69273
    endloop
  endfacet
  facet normal 0 1 -0
    outer loop
      vertex -68.25 -9.375 19.0771
      vertex -70.3125 -9.375 37.8271
      vertex -68.25 -9.375 37.8271
    endloop
  endfacet
  facet normal 0 1 0
    outer loop
      vertex -70.3125 -9.375 37.8271
      vertex -68.25 -9.375 19.0771
      vertex -70.3125 -9.375 19.0771
    endloop
  endfacet
  facet normal 0 -1 0
    outer loop
      vertex 68.25 -46.8844 9.69273
      vertex 70.3125 -46.8844 19.0771
      vertex 68.25 -46.8844 19.0771
    endloop
  endfacet
  facet normal 0 -1 -0
    outer loop
      vertex 70.3125 -46.8844 19.0771
      vertex 68.25 -46.8844 9.69273
      vertex 70.3125 -46.8844 9.69273
    endloop
  endfacet
  facet normal -0 0 1
    outer loop
      vertex 68.25 56.2687 9.69273
      vertex 70.3125 46.8844 9.69273
      vertex 70.3125 56.2687 9.69273
    endloop
  endfacet
  facet normal 0 0 1
    outer loop
      vertex 70.3125 46.8844 9.69273
      vertex 68.25 56.2687 9.69273
      vertex 68.25 46.8844 9.69273
    endloop
  endfacet
  facet normal -1 0 0
    outer loop
      vertex -70.3125 56.2687 19.0771
      vertex -70.3125 65.6437 0.317734
      vertex -70.3125 56.2687 9.69273
    endloop
  endfacet
  facet normal -1 0 0
    outer loop
      vertex -70.3125 65.6437 0.317734
      vertex -70.3125 46.8844 9.69273
      vertex -70.3125 56.2687 9.69273
    endloop
  endfacet
  facet normal -1 0 0
    outer loop
      vertex -70.3125 46.8844 9.69273
      vertex -70.3125 9.375 19.0771
      vertex -70.3125 46.8844 19.0771
    endloop
  endfacet
  facet normal -1 0 0
    outer loop
      vertex -70.3125 -46.8844 9.69273
      vertex -70.3125 46.8844 9.69273
      vertex -70.3125 65.6437 0.317734
    endloop
  endfacet
  facet normal -1 0 0
    outer loop
      vertex -70.3125 46.8844 9.69273
      vertex -70.3125 -9.375 19.0771
      vertex -70.3125 9.375 19.0771
    endloop
  endfacet
  facet normal -1 0 0
    outer loop
      vertex -70.3125 -46.8844 19.0771
      vertex -70.3125 -9.375 19.0771
      vertex -70.3125 -46.8844 9.69273
    endloop
  endfacet
  facet normal -1 0 0
    outer loop
      vertex -70.3125 46.8844 9.69273
      vertex -70.3125 -46.8844 9.69273
      vertex -70.3125 -9.375 19.0771
    endloop
  endfacet
  facet normal -1 0 0
    outer loop
      vertex -70.3125 -65.6438 0.317734
      vertex -70.3125 -46.8844 9.69273
      vertex -70.3125 65.6437 0.317734
    endloop
  endfacet
  facet normal -1 -0 0
    outer loop
      vertex -70.3125 -56.2688 9.69273
      vertex -70.3125 -65.6438 0.317734
      vertex -70.3125 -56.2688 19.0771
    endloop
  endfacet
  facet normal -1 -0 0
    outer loop
      vertex -70.3125 -46.8844 9.69273
      vertex -70.3125 -65.6438 0.317734
      vertex -70.3125 -56.2688 9.69273
    endloop
  endfacet
  facet normal -1 0 0
    outer loop
      vertex -70.3125 65.6437 0.317734
      vertex -70.3125 56.2687 19.0771
      vertex -70.3125 65.6437 39.75
    endloop
  endfacet
  facet normal -1 0 0
    outer loop
      vertex -70.3125 46.8844 19.0771
      vertex -70.3125 65.6437 39.75
      vertex -70.3125 56.2687 19.0771
    endloop
  endfacet
  facet normal -1 0 0
    outer loop
      vertex -70.3125 9.375 37.8271
      vertex -70.3125 46.8844 19.0771
      vertex -70.3125 9.375 19.0771
    endloop
  endfacet
  facet normal -1 0 0
    outer loop
      vertex -70.3125 46.8844 19.0771
      vertex -70.3125 9.375 37.8271
      vertex -70.3125 65.6437 39.75
    endloop
  endfacet
  facet normal -1 0 0
    outer loop
      vertex -70.3125 -9.375 37.8271
      vertex -70.3125 65.6437 39.75
      vertex -70.3125 9.375 37.8271
    endloop
  endfacet
  facet normal -1 0 0
    outer loop
      vertex -70.3125 -9.375 19.0771
      vertex -70.3125 -46.8844 19.0771
      vertex -70.3125 -9.375 37.8271
    endloop
  endfacet
  facet normal -1 0 0
    outer loop
      vertex -70.3125 -65.6438 39.75
      vertex -70.3125 -46.8844 19.0771
      vertex -70.3125 -56.2688 19.0771
    endloop
  endfacet
  facet normal -1 0 0
    outer loop
      vertex -70.3125 -9.375 37.8271
      vertex -70.3125 -65.6438 39.75
      vertex -70.3125 65.6437 39.75
    endloop
  endfacet
  facet normal -1 0 0
    outer loop
      vertex -70.3125 -46.8844 19.0771
      vertex -70.3125 -65.6438 39.75
      vertex -70.3125 -9.375 37.8271
    endloop
  endfacet
  facet normal -1 0 0
    outer loop
      vertex -70.3125 -65.6438 39.75
      vertex -70.3125 -56.2688 19.0771
      vertex -70.3125 -65.6438 0.317734
    endloop
  endfacet
  facet normal 0 0 -1
    outer loop
      vertex 68.25 46.8844 19.0771
      vertex 70.3125 56.2687 19.0771
      vertex 70.3125 46.8844 19.0771
    endloop
  endfacet
  facet normal -0 0 -1
    outer loop
      vertex 70.3125 56.2687 19.0771
      vertex 68.25 46.8844 19.0771
      vertex 68.25 56.2687 19.0771
    endloop
  endfacet
  facet normal 0 0 -1
    outer loop
      vertex -70.3125 -9.375 37.8271
      vertex -68.25 9.375 37.8271
      vertex -68.25 -9.375 37.8271
    endloop
  endfacet
  facet normal -0 0 -1
    outer loop
      vertex -68.25 9.375 37.8271
      vertex -70.3125 -9.375 37.8271
      vertex -70.3125 9.375 37.8271
    endloop
  endfacet
  facet normal 1 0 0
    outer loop
      vertex 65.6438 -68.25 39.75
      vertex 65.6438 -70.3125 39.75
      vertex 65.6438 -68.25 4.94812
    endloop
  endfacet
  facet normal 1 0 0
    outer loop
      vertex 65.6438 -66.75 4.94812
      vertex 65.6438 -68.25 4.94812
      vertex 65.6438 -66.75 2
    endloop
  endfacet
  facet normal 1 -0 0
    outer loop
      vertex 65.6438 -66.75 2
      vertex 65.6438 -65.6438 0.317734
      vertex 65.6438 -65.6438 2
    endloop
  endfacet
  facet normal 1 0 0
    outer loop
      vertex 65.6438 -66.75 2
      vertex 65.6438 -70.3125 0.317734
      vertex 65.6438 -65.6438 0.317734
    endloop
  endfacet
  facet normal 1 0 0
    outer loop
      vertex 65.6438 -68.25 4.94812
      vertex 65.6438 -70.3125 0.317734
      vertex 65.6438 -66.75 2
    endloop
  endfacet
  facet normal 1 0 0
    outer loop
      vertex 65.6438 -70.3125 0.317734
      vertex 65.6438 -68.25 4.94812
      vertex 65.6438 -70.3125 39.75
    endloop
  endfacet
  facet normal 0 1 -0
    outer loop
      vertex 70.3125 46.8844 9.69273
      vertex 68.25 46.8844 19.0771
      vertex 70.3125 46.8844 19.0771
    endloop
  endfacet
  facet normal 0 1 0
    outer loop
      vertex 68.25 46.8844 19.0771
      vertex 70.3125 46.8844 9.69273
      vertex 68.25 46.8844 9.69273
    endloop
  endfacet
  facet normal 0 -1 0
    outer loop
      vertex -70.3125 9.375 19.0771
      vertex -68.25 9.375 37.8271
      vertex -70.3125 9.375 37.8271
    endloop
  endfacet
  facet normal 0 -1 -0
    outer loop
      vertex -68.25 9.375 37.8271
      vertex -70.3125 9.375 19.0771
      vertex -68.25 9.375 19.0771
    endloop
  endfacet
  facet normal 0 -1 0
    outer loop
      vertex 68.25 9.375 19.0771
      vertex 70.3125 9.375 37.8271
      vertex 68.25 9.375 37.8271
    endloop
  endfacet
  facet normal 0 -1 -0
    outer loop
      vertex 70.3125 9.375 37.8271
      vertex 68.25 9.375 19.0771
      vertex 70.3125 9.375 19.0771
    endloop
  endfacet
  facet normal 0 0 -1
    outer loop
      vertex 68.25 -9.375 37.8271
      vertex 70.3125 9.375 37.8271
      vertex 70.3125 -9.375 37.8271
    endloop
  endfacet
  facet normal -0 0 -1
    outer loop
      vertex 70.3125 9.375 37.8271
      vertex 68.25 -9.375 37.8271
      vertex 68.25 9.375 37.8271
    endloop
  endfacet
  facet normal 0 1 -0
    outer loop
      vertex 70.3125 -9.375 19.0771
      vertex 68.25 -9.375 37.8271
      vertex 70.3125 -9.375 37.8271
    endloop
  endfacet
  facet normal 0 1 0
    outer loop
      vertex 68.25 -9.375 37.8271
      vertex 70.3125 -9.375 19.0771
      vertex 68.25 -9.375 19.0771
    endloop
  endfacet
  facet normal -1 0 0
    outer loop
      vertex -46.8844 68.25 9.69273
      vertex -46.8844 70.3125 19.0771
      vertex -46.8844 70.3125 9.69273
    endloop
  endfacet
  facet normal -1 -0 0
    outer loop
      vertex -46.8844 70.3125 19.0771
      vertex -46.8844 68.25 9.69273
      vertex -46.8844 68.25 19.0771
    endloop
  endfacet
  facet normal -1 0 0
    outer loop
      vertex 9.375 -70.3125 19.0771
      vertex 9.375 -68.25 37.8271
      vertex 9.375 -68.25 19.0771
    endloop
  endfacet
  facet normal -1 -0 0
    outer loop
      vertex 9.375 -68.25 37.8271
      vertex 9.375 -70.3125 19.0771
      vertex 9.375 -70.3125 37.8271
    endloop
  endfacet
  facet normal 0 0 -1
    outer loop
      vertex -9.375 -70.3125 37.8271
      vertex 9.375 -68.25 37.8271
      vertex 9.375 -70.3125 37.8271
    endloop
  endfacet
  facet normal -0 0 -1
    outer loop
      vertex 9.375 -68.25 37.8271
      vertex -9.375 -70.3125 37.8271
      vertex -9.375 -68.25 37.8271
    endloop
  endfacet
  facet normal -1 0 0
    outer loop
      vertex -46.8844 -70.3125 9.69273
      vertex -46.8844 -68.25 19.0771
      vertex -46.8844 -68.25 9.69273
    endloop
  endfacet
  facet normal -1 -0 0
    outer loop
      vertex -46.8844 -68.25 19.0771
      vertex -46.8844 -70.3125 9.69273
      vertex -46.8844 -70.3125 19.0771
    endloop
  endfacet
  facet normal 1 -0 0
    outer loop
      vertex -9.375 -70.3125 37.8271
      vertex -9.375 -68.25 19.0771
      vertex -9.375 -68.25 37.8271
    endloop
  endfacet
  facet normal 1 0 0
    outer loop
      vertex -9.375 -68.25 19.0771
      vertex -9.375 -70.3125 37.8271
      vertex -9.375 -70.3125 19.0771
    endloop
  endfacet
  facet normal 0 0 -1
    outer loop
      vertex -70.3125 -65.6438 0.317734
      vertex -65.6437 65.6437 0.317734
      vertex -65.6437 -65.6438 0.317734
    endloop
  endfacet
  facet normal -0 0 -1
    outer loop
      vertex -65.6437 65.6437 0.317734
      vertex -70.3125 -65.6438 0.317734
      vertex -70.3125 65.6437 0.317734
    endloop
  endfacet
  facet normal 0 0 -1
    outer loop
      vertex -65.6437 -65.6438 0.317734
      vertex 65.6438 -65.6438 0.317734
      vertex 65.6438 -70.3125 0.317734
    endloop
  endfacet
  facet normal 0 0 -1
    outer loop
      vertex 65.6438 -65.6438 0.317734
      vertex -65.6437 -65.6438 0.317734
      vertex 65.6438 65.6437 0.317734
    endloop
  endfacet
  facet normal 0 0 -1
    outer loop
      vertex -65.6437 -65.6438 0.317734
      vertex 65.6438 -70.3125 0.317734
      vertex -65.6437 -70.3125 0.317734
    endloop
  endfacet
  facet normal 0 0 -1
    outer loop
      vertex -65.6437 65.6437 0.317734
      vertex 65.6438 65.6437 0.317734
      vertex -65.6437 -65.6438 0.317734
    endloop
  endfacet
  facet normal 0 0 -1
    outer loop
      vertex 65.6438 65.6437 0.317734
      vertex -65.6437 65.6437 0.317734
      vertex 65.6438 70.3125 0.317734
    endloop
  endfacet
  facet normal -0 0 -1
    outer loop
      vertex 65.6438 70.3125 0.317734
      vertex -65.6437 65.6437 0.317734
      vertex -65.6437 70.3125 0.317734
    endloop
  endfacet
  facet normal 0 0 -1
    outer loop
      vertex 65.6438 -65.6438 0.317734
      vertex 70.3125 65.6437 0.317734
      vertex 70.3125 -65.6438 0.317734
    endloop
  endfacet
  facet normal -0 0 -1
    outer loop
      vertex 70.3125 65.6437 0.317734
      vertex 65.6438 -65.6438 0.317734
      vertex 65.6438 65.6437 0.317734
    endloop
  endfacet
  facet normal 1 -0 0
    outer loop
      vertex 68.25 65.6437 39.75
      vertex 68.25 68.25 4.94812
      vertex 68.25 68.25 39.75
    endloop
  endfacet
  facet normal 1 0 0
    outer loop
      vertex 68.25 68.25 4.94812
      vertex 68.25 65.6437 39.75
      vertex 68.25 65.6437 4.94812
    endloop
  endfacet
  facet normal 1 -0 0
    outer loop
      vertex 68.25 -68.25 39.75
      vertex 68.25 -65.6438 4.94812
      vertex 68.25 -65.6438 39.75
    endloop
  endfacet
  facet normal 1 0 0
    outer loop
      vertex 68.25 -65.6438 4.94812
      vertex 68.25 -68.25 39.75
      vertex 68.25 -68.25 4.94812
    endloop
  endfacet
  facet normal 1 -0 0
    outer loop
      vertex 68.25 -56.2688 19.0771
      vertex 68.25 -46.8844 9.69273
      vertex 68.25 -46.8844 19.0771
    endloop
  endfacet
  facet normal 1 0 0
    outer loop
      vertex 68.25 -46.8844 9.69273
      vertex 68.25 -56.2688 19.0771
      vertex 68.25 -56.2688 9.69273
    endloop
  endfacet
  facet normal 1 -0 0
    outer loop
      vertex 68.25 46.8844 19.0771
      vertex 68.25 56.2687 9.69273
      vertex 68.25 56.2687 19.0771
    endloop
  endfacet
  facet normal 1 0 0
    outer loop
      vertex 68.25 56.2687 9.69273
      vertex 68.25 46.8844 19.0771
      vertex 68.25 46.8844 9.69273
    endloop
  endfacet
  facet normal 1 -0 0
    outer loop
      vertex 68.25 -9.375 37.8271
      vertex 68.25 9.375 19.0771
      vertex 68.25 9.375 37.8271
    endloop
  endfacet
  facet normal 1 0 0
    outer loop
      vertex 68.25 9.375 19.0771
      vertex 68.25 -9.375 37.8271
      vertex 68.25 -9.375 19.0771
    endloop
  endfacet
  facet normal 0 0 -1
    outer loop
      vertex 66.75 66.75 4.94812
      vertex 68.25 65.6437 4.94812
      vertex 66.75 65.6437 4.94812
    endloop
  endfacet
  facet normal 0 0 -1
    outer loop
      vertex 68.25 65.6437 4.94812
      vertex 66.75 66.75 4.94812
      vertex 68.25 68.25 4.94812
    endloop
  endfacet
  facet normal 0 0 -1
    outer loop
      vertex 65.6438 68.25 4.94812
      vertex 66.75 66.75 4.94812
      vertex 65.6438 66.75 4.94812
    endloop
  endfacet
  facet normal 0 0 -1
    outer loop
      vertex 66.75 66.75 4.94812
      vertex 65.6438 68.25 4.94812
      vertex 68.25 68.25 4.94812
    endloop
  endfacet
  facet normal 0 0 -1
    outer loop
      vertex 68.25 -68.25 4.94812
      vertex 66.75 -66.75 4.94812
      vertex 68.25 -65.6438 4.94812
    endloop
  endfacet
  facet normal 0 0 -1
    outer loop
      vertex 65.6438 -68.25 4.94812
      vertex 66.75 -66.75 4.94812
      vertex 68.25 -68.25 4.94812
    endloop
  endfacet
  facet normal -0 0 -1
    outer loop
      vertex 66.75 -66.75 4.94812
      vertex 65.6438 -68.25 4.94812
      vertex 65.6438 -66.75 4.94812
    endloop
  endfacet
  facet normal -0 0 -1
    outer loop
      vertex 68.25 -65.6438 4.94812
      vertex 66.75 -66.75 4.94812
      vertex 66.75 -65.6438 4.94812
    endloop
  endfacet
  facet normal 0 0 -1
    outer loop
      vertex -65.6437 -68.25 4.94812
      vertex -66.75 -66.75 4.94812
      vertex -65.6437 -66.75 4.94812
    endloop
  endfacet
  facet normal 0 0 -1
    outer loop
      vertex -68.25 -68.25 4.94812
      vertex -66.75 -66.75 4.94812
      vertex -65.6437 -68.25 4.94812
    endloop
  endfacet
  facet normal 0 0 -1
    outer loop
      vertex -68.25 -65.6438 4.94812
      vertex -66.75 -66.75 4.94812
      vertex -68.25 -68.25 4.94812
    endloop
  endfacet
  facet normal 0 0 -1
    outer loop
      vertex -66.75 -66.75 4.94812
      vertex -68.25 -65.6438 4.94812
      vertex -66.75 -65.6438 4.94812
    endloop
  endfacet
  facet normal 0 0 -1
    outer loop
      vertex -66.75 65.6437 4.94812
      vertex -68.25 65.6437 4.94812
      vertex -66.75 66.75 4.94812
    endloop
  endfacet
  facet normal 0 0 -1
    outer loop
      vertex -66.75 66.75 4.94812
      vertex -65.6437 68.25 4.94812
      vertex -65.6437 66.75 4.94812
    endloop
  endfacet
  facet normal 0 0 -1
    outer loop
      vertex -68.25 68.25 4.94812
      vertex -66.75 66.75 4.94812
      vertex -68.25 65.6437 4.94812
    endloop
  endfacet
  facet normal 0 0 -1
    outer loop
      vertex -66.75 66.75 4.94812
      vertex -68.25 68.25 4.94812
      vertex -65.6437 68.25 4.94812
    endloop
  endfacet
  facet normal -1 0 0
    outer loop
      vertex -68.25 -68.25 4.94812
      vertex -68.25 -65.6438 39.75
      vertex -68.25 -65.6438 4.94812
    endloop
  endfacet
  facet normal -1 -0 0
    outer loop
      vertex -68.25 -65.6438 39.75
      vertex -68.25 -68.25 4.94812
      vertex -68.25 -68.25 39.75
    endloop
  endfacet
  facet normal -1 0 0
    outer loop
      vertex -68.25 65.6437 4.94812
      vertex -68.25 68.25 39.75
      vertex -68.25 68.25 4.94812
    endloop
  endfacet
  facet normal -1 -0 0
    outer loop
      vertex -68.25 68.25 39.75
      vertex -68.25 65.6437 4.94812
      vertex -68.25 65.6437 39.75
    endloop
  endfacet
  facet normal -1 0 0
    outer loop
      vertex -68.25 46.8844 9.69273
      vertex -68.25 56.2687 19.0771
      vertex -68.25 56.2687 9.69273
    endloop
  endfacet
  facet normal -1 -0 0
    outer loop
      vertex -68.25 56.2687 19.0771
      vertex -68.25 46.8844 9.69273
      vertex -68.25 46.8844 19.0771
    endloop
  endfacet
  facet normal -1 0 0
    outer loop
      vertex -68.25 -56.2688 9.69273
      vertex -68.25 -46.8844 19.0771
      vertex -68.25 -46.8844 9.69273
    endloop
  endfacet
  facet normal -1 -0 0
    outer loop
      vertex -68.25 -46.8844 19.0771
      vertex -68.25 -56.2688 9.69273
      vertex -68.25 -56.2688 19.0771
    endloop
  endfacet
  facet normal -1 0 0
    outer loop
      vertex -68.25 -9.375 19.0771
      vertex -68.25 9.375 37.8271
      vertex -68.25 9.375 19.0771
    endloop
  endfacet
  facet normal -1 -0 0
    outer loop
      vertex -68.25 9.375 37.8271
      vertex -68.25 -9.375 19.0771
      vertex -68.25 -9.375 37.8271
    endloop
  endfacet
  facet normal 0 1 -0
    outer loop
      vertex 68.25 68.25 4.94812
      vertex 65.6438 68.25 39.75
      vertex 68.25 68.25 39.75
    endloop
  endfacet
  facet normal 0 1 0
    outer loop
      vertex 65.6438 68.25 39.75
      vertex 68.25 68.25 4.94812
      vertex 65.6438 68.25 4.94812
    endloop
  endfacet
  facet normal 0 1 -0
    outer loop
      vertex -65.6437 68.25 4.94812
      vertex -68.25 68.25 39.75
      vertex -65.6437 68.25 39.75
    endloop
  endfacet
  facet normal 0 1 0
    outer loop
      vertex -68.25 68.25 39.75
      vertex -65.6437 68.25 4.94812
      vertex -68.25 68.25 4.94812
    endloop
  endfacet
  facet normal 0 1 -0
    outer loop
      vertex -46.8844 68.25 9.69273
      vertex -56.2687 68.25 19.0771
      vertex -46.8844 68.25 19.0771
    endloop
  endfacet
  facet normal 0 1 0
    outer loop
      vertex -56.2687 68.25 19.0771
      vertex -46.8844 68.25 9.69273
      vertex -56.2687 68.25 9.69273
    endloop
  endfacet
  facet normal 0 1 -0
    outer loop
      vertex 9.375 68.25 19.0771
      vertex -9.375 68.25 37.8271
      vertex 9.375 68.25 37.8271
    endloop
  endfacet
  facet normal 0 1 0
    outer loop
      vertex -9.375 68.25 37.8271
      vertex 9.375 68.25 19.0771
      vertex -9.375 68.25 19.0771
    endloop
  endfacet
  facet normal 0 1 -0
    outer loop
      vertex 56.2688 68.25 9.69273
      vertex 46.8844 68.25 19.0771
      vertex 56.2688 68.25 19.0771
    endloop
  endfacet
  facet normal 0 1 0
    outer loop
      vertex 46.8844 68.25 19.0771
      vertex 56.2688 68.25 9.69273
      vertex 46.8844 68.25 9.69273
    endloop
  endfacet
  facet normal 0 -1 0
    outer loop
      vertex 65.6438 -68.25 4.94812
      vertex 68.25 -68.25 39.75
      vertex 65.6438 -68.25 39.75
    endloop
  endfacet
  facet normal 0 -1 -0
    outer loop
      vertex 68.25 -68.25 39.75
      vertex 65.6438 -68.25 4.94812
      vertex 68.25 -68.25 4.94812
    endloop
  endfacet
  facet normal 0 -1 0
    outer loop
      vertex -68.25 -68.25 4.94812
      vertex -65.6437 -68.25 39.75
      vertex -68.25 -68.25 39.75
    endloop
  endfacet
  facet normal 0 -1 -0
    outer loop
      vertex -65.6437 -68.25 39.75
      vertex -68.25 -68.25 4.94812
      vertex -65.6437 -68.25 4.94812
    endloop
  endfacet
  facet normal 0 -1 0
    outer loop
      vertex -56.2687 -68.25 9.69273
      vertex -46.8844 -68.25 19.0771
      vertex -56.2687 -68.25 19.0771
    endloop
  endfacet
  facet normal 0 -1 -0
    outer loop
      vertex -46.8844 -68.25 19.0771
      vertex -56.2687 -68.25 9.69273
      vertex -46.8844 -68.25 9.69273
    endloop
  endfacet
  facet normal 0 -1 0
    outer loop
      vertex -9.375 -68.25 19.0771
      vertex 9.375 -68.25 37.8271
      vertex -9.375 -68.25 37.8271
    endloop
  endfacet
  facet normal 0 -1 -0
    outer loop
      vertex 9.375 -68.25 37.8271
      vertex -9.375 -68.25 19.0771
      vertex 9.375 -68.25 19.0771
    endloop
  endfacet
  facet normal 0 -1 0
    outer loop
      vertex 46.8844 -68.25 9.69273
      vertex 56.2688 -68.25 19.0771
      vertex 46.8844 -68.25 19.0771
    endloop
  endfacet
  facet normal 0 -1 -0
    outer loop
      vertex 56.2688 -68.25 19.0771
      vertex 46.8844 -68.25 9.69273
      vertex 56.2688 -68.25 9.69273
    endloop
  endfacet
  facet normal -1 0 0
    outer loop
      vertex 66.75 65.6437 2
      vertex 66.75 -65.6438 2
      vertex 66.75 65.6437 4.94812
    endloop
  endfacet
  facet normal -1 0 0
    outer loop
      vertex 66.75 65.6437 4.94812
      vertex 66.75 66.75 39.75
      vertex 66.75 66.75 4.94812
    endloop
  endfacet
  facet normal -1 0 0
    outer loop
      vertex 66.75 -65.6438 4.94812
      vertex 66.75 65.6437 4.94812
      vertex 66.75 -65.6438 2
    endloop
  endfacet
  facet normal -1 0 0
    outer loop
      vertex 66.75 65.6437 4.94812
      vertex 66.75 -65.6438 4.94812
      vertex 66.75 66.75 39.75
    endloop
  endfacet
  facet normal -1 0 0
    outer loop
      vertex 66.75 -66.75 39.75
      vertex 66.75 -65.6438 4.94812
      vertex 66.75 -66.75 4.94812
    endloop
  endfacet
  facet normal -1 0 0
    outer loop
      vertex 66.75 -65.6438 4.94812
      vertex 66.75 -66.75 39.75
      vertex 66.75 66.75 39.75
    endloop
  endfacet
  facet normal -0 0 1
    outer loop
      vertex -66.75 65.6437 2
      vertex -65.6437 -65.6438 2
      vertex -65.6437 65.6437 2
    endloop
  endfacet
  facet normal 0 0 1
    outer loop
      vertex -65.6437 -65.6438 2
      vertex -66.75 65.6437 2
      vertex -66.75 -65.6438 2
    endloop
  endfacet
  facet normal 0 0 1
    outer loop
      vertex -65.6437 65.6437 2
      vertex 65.6438 65.6437 2
      vertex 65.6438 66.75 2
    endloop
  endfacet
  facet normal 0 0 1
    outer loop
      vertex 65.6438 65.6437 2
      vertex -65.6437 65.6437 2
      vertex 65.6438 -65.6438 2
    endloop
  endfacet
  facet normal 0 0 1
    outer loop
      vertex -65.6437 65.6437 2
      vertex 65.6438 66.75 2
      vertex -65.6437 66.75 2
    endloop
  endfacet
  facet normal 0 0 1
    outer loop
      vertex -65.6437 -65.6438 2
      vertex 65.6438 -65.6438 2
      vertex -65.6437 65.6437 2
    endloop
  endfacet
  facet normal 0 0 1
    outer loop
      vertex 65.6438 -65.6438 2
      vertex -65.6437 -65.6438 2
      vertex 65.6438 -66.75 2
    endloop
  endfacet
  facet normal 0 0 1
    outer loop
      vertex 65.6438 -66.75 2
      vertex -65.6437 -65.6438 2
      vertex -65.6437 -66.75 2
    endloop
  endfacet
  facet normal -0 0 1
    outer loop
      vertex 65.6438 65.6437 2
      vertex 66.75 -65.6438 2
      vertex 66.75 65.6437 2
    endloop
  endfacet
  facet normal 0 0 1
    outer loop
      vertex 66.75 -65.6438 2
      vertex 65.6438 65.6437 2
      vertex 65.6438 -65.6438 2
    endloop
  endfacet
  facet normal 1 0 0
    outer loop
      vertex -66.75 66.75 39.75
      vertex -66.75 65.6437 4.94812
      vertex -66.75 66.75 4.94812
    endloop
  endfacet
  facet normal 1 0 0
    outer loop
      vertex -66.75 65.6437 4.94812
      vertex -66.75 -65.6438 4.94812
      vertex -66.75 65.6437 2
    endloop
  endfacet
  facet normal 1 0 0
    outer loop
      vertex -66.75 66.75 39.75
      vertex -66.75 -65.6438 4.94812
      vertex -66.75 65.6437 4.94812
    endloop
  endfacet
  facet normal 1 -0 0
    outer loop
      vertex -66.75 -66.75 39.75
      vertex -66.75 -65.6438 4.94812
      vertex -66.75 66.75 39.75
    endloop
  endfacet
  facet normal 1 0 0
    outer loop
      vertex -66.75 -65.6438 4.94812
      vertex -66.75 -66.75 39.75
      vertex -66.75 -66.75 4.94812
    endloop
  endfacet
  facet normal 1 0 0
    outer loop
      vertex -66.75 65.6437 2
      vertex -66.75 -65.6438 4.94812
      vertex -66.75 -65.6438 2
    endloop
  endfacet
  facet normal 0 -1 0
    outer loop
      vertex -65.6437 66.75 2
      vertex 65.6438 66.75 4.94812
      vertex -65.6437 66.75 4.94812
    endloop
  endfacet
  facet normal 0 -1 -0
    outer loop
      vertex 65.6438 66.75 4.94812
      vertex -65.6437 66.75 2
      vertex 65.6438 66.75 2
    endloop
  endfacet
  facet normal 0 -1 0
    outer loop
      vertex -65.6437 66.75 4.94812
      vertex -66.75 66.75 39.75
      vertex -66.75 66.75 4.94812
    endloop
  endfacet
  facet normal 0 -1 0
    outer loop
      vertex -66.75 66.75 39.75
      vertex -65.6437 66.75 4.94812
      vertex 66.75 66.75 39.75
    endloop
  endfacet
  facet normal 0 -1 0
    outer loop
      vertex 65.6438 66.75 4.94812
      vertex 66.75 66.75 39.75
      vertex -65.6437 66.75 4.94812
    endloop
  endfacet
  facet normal 0 -1 -0
    outer loop
      vertex 66.75 66.75 39.75
      vertex 65.6438 66.75 4.94812
      vertex 66.75 66.75 4.94812
    endloop
  endfacet
  facet normal 0 1 -0
    outer loop
      vertex 65.6438 -66.75 2
      vertex -65.6437 -66.75 4.94812
      vertex 65.6438 -66.75 4.94812
    endloop
  endfacet
  facet normal 0 1 0
    outer loop
      vertex -65.6437 -66.75 4.94812
      vertex 65.6438 -66.75 2
      vertex -65.6437 -66.75 2
    endloop
  endfacet
  facet normal 0 1 0
    outer loop
      vertex 65.6438 -66.75 4.94812
      vertex 66.75 -66.75 39.75
      vertex 66.75 -66.75 4.94812
    endloop
  endfacet
  facet normal 0 1 0
    outer loop
      vertex 66.75 -66.75 39.75
      vertex 65.6438 -66.75 4.94812
      vertex -66.75 -66.75 39.75
    endloop
  endfacet
  facet normal 0 1 -0
    outer loop
      vertex -65.6437 -66.75 4.94812
      vertex -66.75 -66.75 39.75
      vertex 65.6438 -66.75 4.94812
    endloop
  endfacet
  facet normal 0 1 0
    outer loop
      vertex -66.75 -66.75 39.75
      vertex -65.6437 -66.75 4.94812
      vertex -66.75 -66.75 4.94812
    endloop
  endfacet
  facet normal 0 0 1
    outer loop
      vertex 65.6438 70.3125 39.75
      vertex -65.6437 70.3125 39.75
      vertex 65.6438 68.25 39.75
    endloop
  endfacet
  facet normal -0 0 1
    outer loop
      vertex 66.75 66.75 39.75
      vertex 68.25 65.6437 39.75
      vertex 68.25 68.25 39.75
    endloop
  endfacet
  facet normal 0 0 1
    outer loop
      vertex 68.25 65.6437 39.75
      vertex 66.75 66.75 39.75
      vertex 68.25 -65.6438 39.75
    endloop
  endfacet
  facet normal 0 0 1
    outer loop
      vertex 66.75 -66.75 39.75
      vertex 68.25 -65.6438 39.75
      vertex 66.75 66.75 39.75
    endloop
  endfacet
  facet normal -0 0 1
    outer loop
      vertex 65.6438 68.25 39.75
      vertex 66.75 66.75 39.75
      vertex 68.25 68.25 39.75
    endloop
  endfacet
  facet normal 0 0 1
    outer loop
      vertex -65.6437 68.25 39.75
      vertex 65.6438 68.25 39.75
      vertex -65.6437 70.3125 39.75
    endloop
  endfacet
  facet normal 0 0 1
    outer loop
      vertex 65.6438 68.25 39.75
      vertex -65.6437 68.25 39.75
      vertex 66.75 66.75 39.75
    endloop
  endfacet
  facet normal 0 0 1
    outer loop
      vertex -65.6437 68.25 39.75
      vertex -66.75 66.75 39.75
      vertex 66.75 66.75 39.75
    endloop
  endfacet
  facet normal 0 0 1
    outer loop
      vertex -68.25 65.6437 39.75
      vertex -66.75 66.75 39.75
      vertex -68.25 68.25 39.75
    endloop
  endfacet
  facet normal -0 0 1
    outer loop
      vertex -68.25 68.25 39.75
      vertex -66.75 66.75 39.75
      vertex -65.6437 68.25 39.75
    endloop
  endfacet
  facet normal -0 0 1
    outer loop
      vertex 68.25 65.6437 39.75
      vertex 70.3125 -65.6438 39.75
      vertex 70.3125 65.6437 39.75
    endloop
  endfacet
  facet normal 0 0 1
    outer loop
      vertex 70.3125 -65.6438 39.75
      vertex 68.25 65.6437 39.75
      vertex 68.25 -65.6438 39.75
    endloop
  endfacet
  facet normal 0 0 1
    outer loop
      vertex 68.25 -65.6438 39.75
      vertex 66.75 -66.75 39.75
      vertex 68.25 -68.25 39.75
    endloop
  endfacet
  facet normal 0 0 1
    outer loop
      vertex 66.75 -66.75 39.75
      vertex 65.6438 -68.25 39.75
      vertex 68.25 -68.25 39.75
    endloop
  endfacet
  facet normal 0 0 1
    outer loop
      vertex 65.6438 -68.25 39.75
      vertex -65.6437 -68.25 39.75
      vertex 65.6438 -70.3125 39.75
    endloop
  endfacet
  facet normal 0 0 1
    outer loop
      vertex 66.75 -66.75 39.75
      vertex -65.6437 -68.25 39.75
      vertex 65.6438 -68.25 39.75
    endloop
  endfacet
  facet normal -0 0 1
    outer loop
      vertex -66.75 -66.75 39.75
      vertex -65.6437 -68.25 39.75
      vertex 66.75 -66.75 39.75
    endloop
  endfacet
  facet normal 0 0 1
    outer loop
      vertex -66.75 66.75 39.75
      vertex -68.25 65.6437 39.75
      vertex -66.75 -66.75 39.75
    endloop
  endfacet
  facet normal -0 0 1
    outer loop
      vertex -68.25 -65.6438 39.75
      vertex -66.75 -66.75 39.75
      vertex -68.25 65.6437 39.75
    endloop
  endfacet
  facet normal 0 0 1
    outer loop
      vertex -68.25 -68.25 39.75
      vertex -66.75 -66.75 39.75
      vertex -68.25 -65.6438 39.75
    endloop
  endfacet
  facet normal 0 0 1
    outer loop
      vertex -66.75 -66.75 39.75
      vertex -68.25 -68.25 39.75
      vertex -65.6437 -68.25 39.75
    endloop
  endfacet
  facet normal -0 0 1
    outer loop
      vertex -70.3125 65.6437 39.75
      vertex -68.25 -65.6438 39.75
      vertex -68.25 65.6437 39.75
    endloop
  endfacet
  facet normal 0 0 1
    outer loop
      vertex -68.25 -65.6438 39.75
      vertex -70.3125 65.6437 39.75
      vertex -70.3125 -65.6438 39.75
    endloop
  endfacet
  facet normal 0 0 1
    outer loop
      vertex 65.6438 -70.3125 39.75
      vertex -65.6437 -68.25 39.75
      vertex -65.6437 -70.3125 39.75
    endloop
  endfacet
endsolid OpenSCAD_Model
