solid OpenSCAD_Model
  facet normal 1 0 0
    outer loop
      vertex 46.875 43.7625 26.5
      vertex 46.875 37.5125 12.7181
      vertex 46.875 43.7625 0.211823
    endloop
  endfacet
  facet normal 1 0 0
    outer loop
      vertex 46.875 43.7625 26.5
      vertex 46.875 31.2562 12.7181
      vertex 46.875 37.5125 12.7181
    endloop
  endfacet
  facet normal 1 0 0
    outer loop
      vertex 46.875 6.25 12.7181
      vertex 46.875 31.2562 12.7181
      vertex 46.875 6.25 25.2181
    endloop
  endfacet
  facet normal 1 0 0
    outer loop
      vertex 46.875 43.7625 26.5
      vertex 46.875 6.25 25.2181
      vertex 46.875 31.2562 12.7181
    endloop
  endfacet
  facet normal 1 0 0
    outer loop
      vertex 46.875 43.7625 26.5
      vertex 46.875 -6.25 25.2181
      vertex 46.875 6.25 25.2181
    endloop
  endfacet
  facet normal 1 0 0
    outer loop
      vertex 46.875 -6.25 25.2181
      vertex 46.875 -31.2562 12.7181
      vertex 46.875 -6.25 12.7181
    endloop
  endfacet
  facet normal 1 0 0
    outer loop
      vertex 46.875 -43.7625 26.5
      vertex 46.875 -31.2562 12.7181
      vertex 46.875 -6.25 25.2181
    endloop
  endfacet
  facet normal 1 0 0
    outer loop
      vertex 46.875 -43.7625 0.211823
      vertex 46.875 -37.5125 12.7181
      vertex 46.875 -43.7625 26.5
    endloop
  endfacet
  facet normal 1 0 0
    outer loop
      vertex 46.875 -31.2562 12.7181
      vertex 46.875 -43.7625 26.5
      vertex 46.875 -37.5125 12.7181
    endloop
  endfacet
  facet normal 1 -0 0
    outer loop
      vertex 46.875 -43.7625 26.5
      vertex 46.875 -6.25 25.2181
      vertex 46.875 43.7625 26.5
    endloop
  endfacet
  facet normal 1 -0 0
    outer loop
      vertex 46.875 37.5125 6.46182
      vertex 46.875 43.7625 0.211823
      vertex 46.875 37.5125 12.7181
    endloop
  endfacet
  facet normal 1 -0 0
    outer loop
      vertex 46.875 31.2562 6.46182
      vertex 46.875 43.7625 0.211823
      vertex 46.875 37.5125 6.46182
    endloop
  endfacet
  facet normal 1 0 0
    outer loop
      vertex 46.875 31.2562 12.7181
      vertex 46.875 6.25 12.7181
      vertex 46.875 31.2562 6.46182
    endloop
  endfacet
  facet normal 1 -0 0
    outer loop
      vertex 46.875 -6.25 12.7181
      vertex 46.875 31.2562 6.46182
      vertex 46.875 6.25 12.7181
    endloop
  endfacet
  facet normal 1 0 0
    outer loop
      vertex 46.875 -31.2562 6.46182
      vertex 46.875 31.2562 6.46182
      vertex 46.875 -6.25 12.7181
    endloop
  endfacet
  facet normal 1 0 0
    outer loop
      vertex 46.875 -31.2562 6.46182
      vertex 46.875 -6.25 12.7181
      vertex 46.875 -31.2562 12.7181
    endloop
  endfacet
  facet normal 1 0 0
    outer loop
      vertex 46.875 31.2562 6.46182
      vertex 46.875 -31.2562 6.46182
      vertex 46.875 43.7625 0.211823
    endloop
  endfacet
  facet normal 1 0 0
    outer loop
      vertex 46.875 -43.7625 0.211823
      vertex 46.875 -31.2562 6.46182
      vertex 46.875 -37.5125 6.46182
    endloop
  endfacet
  facet normal 1 0 0
    outer loop
      vertex 46.875 -31.2562 6.46182
      vertex 46.875 -43.7625 0.211823
      vertex 46.875 43.7625 0.211823
    endloop
  endfacet
  facet normal 1 0 0
    outer loop
      vertex 46.875 -37.5125 12.7181
      vertex 46.875 -43.7625 0.211823
      vertex 46.875 -37.5125 6.46182
    endloop
  endfacet
  facet normal -0 0 1
    outer loop
      vertex -37.5125 46.875 6.46182
      vertex -31.2562 45.5 6.46182
      vertex -31.2562 46.875 6.46182
    endloop
  endfacet
  facet normal 0 0 1
    outer loop
      vertex -31.2562 45.5 6.46182
      vertex -37.5125 46.875 6.46182
      vertex -37.5125 45.5 6.46182
    endloop
  endfacet
  facet normal -0 0 1
    outer loop
      vertex 31.2562 -45.5 6.46182
      vertex 37.5125 -46.875 6.46182
      vertex 37.5125 -45.5 6.46182
    endloop
  endfacet
  facet normal 0 0 1
    outer loop
      vertex 37.5125 -46.875 6.46182
      vertex 31.2562 -45.5 6.46182
      vertex 31.2562 -46.875 6.46182
    endloop
  endfacet
  facet normal 0 0 -1
    outer loop
      vertex 31.2562 -46.875 12.7181
      vertex 37.5125 -45.5 12.7181
      vertex 37.5125 -46.875 12.7181
    endloop
  endfacet
  facet normal -0 0 -1
    outer loop
      vertex 37.5125 -45.5 12.7181
      vertex 31.2562 -46.875 12.7181
      vertex 31.2562 -45.5 12.7181
    endloop
  endfacet
  facet normal 0 0 -1
    outer loop
      vertex -37.5125 45.5 12.7181
      vertex -31.2562 46.875 12.7181
      vertex -31.2562 45.5 12.7181
    endloop
  endfacet
  facet normal -0 0 -1
    outer loop
      vertex -31.2562 46.875 12.7181
      vertex -37.5125 45.5 12.7181
      vertex -37.5125 46.875 12.7181
    endloop
  endfacet
  facet normal -0 0 1
    outer loop
      vertex 31.2562 46.875 6.46182
      vertex 37.5125 45.5 6.46182
      vertex 37.5125 46.875 6.46182
    endloop
  endfacet
  facet normal 0 0 1
    outer loop
      vertex 37.5125 45.5 6.46182
      vertex 31.2562 46.875 6.46182
      vertex 31.2562 45.5 6.46182
    endloop
  endfacet
  facet normal 0 -1 0
    outer loop
      vertex -43.7625 -46.875 26.5
      vertex -6.25 -46.875 25.2181
      vertex 43.7625 -46.875 26.5
    endloop
  endfacet
  facet normal 0 -1 0
    outer loop
      vertex -31.2562 -46.875 12.7181
      vertex -43.7625 -46.875 26.5
      vertex -37.5125 -46.875 12.7181
    endloop
  endfacet
  facet normal 0 -1 0
    outer loop
      vertex -43.7625 -46.875 0.211823
      vertex -37.5125 -46.875 12.7181
      vertex -43.7625 -46.875 26.5
    endloop
  endfacet
  facet normal 0 -1 0
    outer loop
      vertex -43.7625 -46.875 0.211823
      vertex -31.2562 -46.875 6.46182
      vertex -37.5125 -46.875 6.46182
    endloop
  endfacet
  facet normal 0 -1 -0
    outer loop
      vertex -31.2562 -46.875 6.46182
      vertex -43.7625 -46.875 0.211823
      vertex 31.2562 -46.875 6.46182
    endloop
  endfacet
  facet normal 0 -1 0
    outer loop
      vertex 43.7625 -46.875 0.211823
      vertex 31.2562 -46.875 6.46182
      vertex -43.7625 -46.875 0.211823
    endloop
  endfacet
  facet normal 0 -1 -0
    outer loop
      vertex -37.5125 -46.875 12.7181
      vertex -43.7625 -46.875 0.211823
      vertex -37.5125 -46.875 6.46182
    endloop
  endfacet
  facet normal 0 -1 0
    outer loop
      vertex 6.25 -46.875 25.2181
      vertex 43.7625 -46.875 26.5
      vertex -6.25 -46.875 25.2181
    endloop
  endfacet
  facet normal 0 -1 0
    outer loop
      vertex 31.2562 -46.875 12.7181
      vertex 6.25 -46.875 25.2181
      vertex 6.25 -46.875 12.7181
    endloop
  endfacet
  facet normal 0 -1 0
    outer loop
      vertex 6.25 -46.875 25.2181
      vertex 31.2562 -46.875 12.7181
      vertex 43.7625 -46.875 26.5
    endloop
  endfacet
  facet normal 0 -1 0
    outer loop
      vertex 37.5125 -46.875 12.7181
      vertex 43.7625 -46.875 26.5
      vertex 31.2562 -46.875 12.7181
    endloop
  endfacet
  facet normal 0 -1 0
    outer loop
      vertex 43.7625 -46.875 0.211823
      vertex 37.5125 -46.875 12.7181
      vertex 37.5125 -46.875 6.46182
    endloop
  endfacet
  facet normal 0 -1 0
    outer loop
      vertex 37.5125 -46.875 12.7181
      vertex 43.7625 -46.875 0.211823
      vertex 43.7625 -46.875 26.5
    endloop
  endfacet
  facet normal 0 -1 0
    outer loop
      vertex 31.2562 -46.875 6.46182
      vertex 43.7625 -46.875 0.211823
      vertex 37.5125 -46.875 6.46182
    endloop
  endfacet
  facet normal 0 -1 0
    outer loop
      vertex -43.7625 -46.875 26.5
      vertex -31.2562 -46.875 12.7181
      vertex -6.25 -46.875 25.2181
    endloop
  endfacet
  facet normal 0 -1 0
    outer loop
      vertex -31.2562 -46.875 12.7181
      vertex -6.25 -46.875 12.7181
      vertex -6.25 -46.875 25.2181
    endloop
  endfacet
  facet normal 0 -1 0
    outer loop
      vertex -31.2562 -46.875 6.46182
      vertex -6.25 -46.875 12.7181
      vertex -31.2562 -46.875 12.7181
    endloop
  endfacet
  facet normal 0 -1 -0
    outer loop
      vertex -6.25 -46.875 12.7181
      vertex -31.2562 -46.875 6.46182
      vertex 6.25 -46.875 12.7181
    endloop
  endfacet
  facet normal 0 -1 0
    outer loop
      vertex 31.2562 -46.875 6.46182
      vertex 6.25 -46.875 12.7181
      vertex -31.2562 -46.875 6.46182
    endloop
  endfacet
  facet normal 0 -1 0
    outer loop
      vertex 6.25 -46.875 12.7181
      vertex 31.2562 -46.875 6.46182
      vertex 31.2562 -46.875 12.7181
    endloop
  endfacet
  facet normal 0 0 -1
    outer loop
      vertex 31.2562 45.5 12.7181
      vertex 37.5125 46.875 12.7181
      vertex 37.5125 45.5 12.7181
    endloop
  endfacet
  facet normal -0 0 -1
    outer loop
      vertex 37.5125 46.875 12.7181
      vertex 31.2562 45.5 12.7181
      vertex 31.2562 46.875 12.7181
    endloop
  endfacet
  facet normal 1 -0 0
    outer loop
      vertex -37.5125 45.5 12.7181
      vertex -37.5125 46.875 6.46182
      vertex -37.5125 46.875 12.7181
    endloop
  endfacet
  facet normal 1 0 0
    outer loop
      vertex -37.5125 46.875 6.46182
      vertex -37.5125 45.5 12.7181
      vertex -37.5125 45.5 6.46182
    endloop
  endfacet
  facet normal 1 -0 0
    outer loop
      vertex 31.2562 45.5 12.7181
      vertex 31.2562 46.875 6.46182
      vertex 31.2562 46.875 12.7181
    endloop
  endfacet
  facet normal 1 0 0
    outer loop
      vertex 31.2562 46.875 6.46182
      vertex 31.2562 45.5 12.7181
      vertex 31.2562 45.5 6.46182
    endloop
  endfacet
  facet normal 1 -0 0
    outer loop
      vertex -37.5125 -46.875 12.7181
      vertex -37.5125 -45.5 6.46182
      vertex -37.5125 -45.5 12.7181
    endloop
  endfacet
  facet normal 1 0 0
    outer loop
      vertex -37.5125 -45.5 6.46182
      vertex -37.5125 -46.875 12.7181
      vertex -37.5125 -46.875 6.46182
    endloop
  endfacet
  facet normal 1 -0 0
    outer loop
      vertex 31.2562 -46.875 12.7181
      vertex 31.2562 -45.5 6.46182
      vertex 31.2562 -45.5 12.7181
    endloop
  endfacet
  facet normal 1 0 0
    outer loop
      vertex 31.2562 -45.5 6.46182
      vertex 31.2562 -46.875 12.7181
      vertex 31.2562 -46.875 6.46182
    endloop
  endfacet
  facet normal 1 -0 0
    outer loop
      vertex -6.25 45.5 25.2181
      vertex -6.25 46.875 12.7181
      vertex -6.25 46.875 25.2181
    endloop
  endfacet
  facet normal 1 0 0
    outer loop
      vertex -6.25 46.875 12.7181
      vertex -6.25 45.5 25.2181
      vertex -6.25 45.5 12.7181
    endloop
  endfacet
  facet normal -1 0 0
    outer loop
      vertex -43.7625 45.5 0.211823
      vertex -43.7625 46.875 26.5
      vertex -43.7625 46.875 0.211823
    endloop
  endfacet
  facet normal -1 -0 0
    outer loop
      vertex -43.7625 46.875 26.5
      vertex -43.7625 45.5 0.211823
      vertex -43.7625 45.5 26.5
    endloop
  endfacet
  facet normal 0 0 -1
    outer loop
      vertex -6.25 45.5 25.2181
      vertex 6.25 46.875 25.2181
      vertex 6.25 45.5 25.2181
    endloop
  endfacet
  facet normal -0 0 -1
    outer loop
      vertex 6.25 46.875 25.2181
      vertex -6.25 45.5 25.2181
      vertex -6.25 46.875 25.2181
    endloop
  endfacet
  facet normal 0 1 -0
    outer loop
      vertex -45.5 43.7625 0.211823
      vertex -46.875 43.7625 26.5
      vertex -45.5 43.7625 26.5
    endloop
  endfacet
  facet normal 0 1 0
    outer loop
      vertex -46.875 43.7625 26.5
      vertex -45.5 43.7625 0.211823
      vertex -46.875 43.7625 0.211823
    endloop
  endfacet
  facet normal -0 0 1
    outer loop
      vertex -46.875 6.25 12.7181
      vertex -45.5 -6.25 12.7181
      vertex -45.5 6.25 12.7181
    endloop
  endfacet
  facet normal 0 0 1
    outer loop
      vertex -45.5 -6.25 12.7181
      vertex -46.875 6.25 12.7181
      vertex -46.875 -6.25 12.7181
    endloop
  endfacet
  facet normal -1 0 0
    outer loop
      vertex 6.25 45.5 12.7181
      vertex 6.25 46.875 25.2181
      vertex 6.25 46.875 12.7181
    endloop
  endfacet
  facet normal -1 -0 0
    outer loop
      vertex 6.25 46.875 25.2181
      vertex 6.25 45.5 12.7181
      vertex 6.25 45.5 25.2181
    endloop
  endfacet
  facet normal 0 -1 0
    outer loop
      vertex -46.875 -43.7625 0.211823
      vertex -45.5 -43.7625 26.5
      vertex -46.875 -43.7625 26.5
    endloop
  endfacet
  facet normal 0 -1 -0
    outer loop
      vertex -45.5 -43.7625 26.5
      vertex -46.875 -43.7625 0.211823
      vertex -45.5 -43.7625 0.211823
    endloop
  endfacet
  facet normal 0 1 -0
    outer loop
      vertex -45.5 -37.5125 6.46182
      vertex -46.875 -37.5125 12.7181
      vertex -45.5 -37.5125 12.7181
    endloop
  endfacet
  facet normal 0 1 0
    outer loop
      vertex -46.875 -37.5125 12.7181
      vertex -45.5 -37.5125 6.46182
      vertex -46.875 -37.5125 6.46182
    endloop
  endfacet
  facet normal -0 0 1
    outer loop
      vertex -46.875 37.5125 6.46182
      vertex -45.5 31.2562 6.46182
      vertex -45.5 37.5125 6.46182
    endloop
  endfacet
  facet normal 0 0 1
    outer loop
      vertex -45.5 31.2562 6.46182
      vertex -46.875 37.5125 6.46182
      vertex -46.875 31.2562 6.46182
    endloop
  endfacet
  facet normal -0 0 1
    outer loop
      vertex -37.5125 -45.5 6.46182
      vertex -31.2562 -46.875 6.46182
      vertex -31.2562 -45.5 6.46182
    endloop
  endfacet
  facet normal 0 0 1
    outer loop
      vertex -31.2562 -46.875 6.46182
      vertex -37.5125 -45.5 6.46182
      vertex -37.5125 -46.875 6.46182
    endloop
  endfacet
  facet normal 0 0 -1
    outer loop
      vertex -46.875 31.2562 12.7181
      vertex -45.5 37.5125 12.7181
      vertex -45.5 31.2562 12.7181
    endloop
  endfacet
  facet normal -0 0 -1
    outer loop
      vertex -45.5 37.5125 12.7181
      vertex -46.875 31.2562 12.7181
      vertex -46.875 37.5125 12.7181
    endloop
  endfacet
  facet normal -0 0 1
    outer loop
      vertex 45.5 6.25 12.7181
      vertex 46.875 -6.25 12.7181
      vertex 46.875 6.25 12.7181
    endloop
  endfacet
  facet normal 0 0 1
    outer loop
      vertex 46.875 -6.25 12.7181
      vertex 45.5 6.25 12.7181
      vertex 45.5 -6.25 12.7181
    endloop
  endfacet
  facet normal 0 0 -1
    outer loop
      vertex -37.5125 -46.875 12.7181
      vertex -31.2562 -45.5 12.7181
      vertex -31.2562 -46.875 12.7181
    endloop
  endfacet
  facet normal -0 0 -1
    outer loop
      vertex -31.2562 -45.5 12.7181
      vertex -37.5125 -46.875 12.7181
      vertex -37.5125 -45.5 12.7181
    endloop
  endfacet
  facet normal 0 -1 0
    outer loop
      vertex 45.5 37.5125 6.46182
      vertex 46.875 37.5125 12.7181
      vertex 45.5 37.5125 12.7181
    endloop
  endfacet
  facet normal 0 -1 -0
    outer loop
      vertex 46.875 37.5125 12.7181
      vertex 45.5 37.5125 6.46182
      vertex 46.875 37.5125 6.46182
    endloop
  endfacet
  facet normal 0 -1 0
    outer loop
      vertex -46.875 37.5125 6.46182
      vertex -45.5 37.5125 12.7181
      vertex -46.875 37.5125 12.7181
    endloop
  endfacet
  facet normal 0 -1 -0
    outer loop
      vertex -45.5 37.5125 12.7181
      vertex -46.875 37.5125 6.46182
      vertex -45.5 37.5125 6.46182
    endloop
  endfacet
  facet normal 0 1 0
    outer loop
      vertex 43.7625 46.875 26.5
      vertex 6.25 46.875 25.2181
      vertex -43.7625 46.875 26.5
    endloop
  endfacet
  facet normal 0 1 0
    outer loop
      vertex 31.2562 46.875 12.7181
      vertex 43.7625 46.875 26.5
      vertex 37.5125 46.875 12.7181
    endloop
  endfacet
  facet normal 0 1 -0
    outer loop
      vertex 43.7625 46.875 0.211823
      vertex 37.5125 46.875 12.7181
      vertex 43.7625 46.875 26.5
    endloop
  endfacet
  facet normal 0 1 0
    outer loop
      vertex 43.7625 46.875 0.211823
      vertex 31.2562 46.875 6.46182
      vertex 37.5125 46.875 6.46182
    endloop
  endfacet
  facet normal 0 1 0
    outer loop
      vertex 31.2562 46.875 6.46182
      vertex 43.7625 46.875 0.211823
      vertex -31.2562 46.875 6.46182
    endloop
  endfacet
  facet normal 0 1 0
    outer loop
      vertex -43.7625 46.875 0.211823
      vertex -31.2562 46.875 6.46182
      vertex 43.7625 46.875 0.211823
    endloop
  endfacet
  facet normal 0 1 0
    outer loop
      vertex 37.5125 46.875 12.7181
      vertex 43.7625 46.875 0.211823
      vertex 37.5125 46.875 6.46182
    endloop
  endfacet
  facet normal 0 1 -0
    outer loop
      vertex -6.25 46.875 25.2181
      vertex -43.7625 46.875 26.5
      vertex 6.25 46.875 25.2181
    endloop
  endfacet
  facet normal 0 1 0
    outer loop
      vertex -31.2562 46.875 12.7181
      vertex -6.25 46.875 25.2181
      vertex -6.25 46.875 12.7181
    endloop
  endfacet
  facet normal 0 1 0
    outer loop
      vertex -6.25 46.875 25.2181
      vertex -31.2562 46.875 12.7181
      vertex -43.7625 46.875 26.5
    endloop
  endfacet
  facet normal 0 1 -0
    outer loop
      vertex -37.5125 46.875 12.7181
      vertex -43.7625 46.875 26.5
      vertex -31.2562 46.875 12.7181
    endloop
  endfacet
  facet normal 0 1 0
    outer loop
      vertex -43.7625 46.875 0.211823
      vertex -37.5125 46.875 12.7181
      vertex -37.5125 46.875 6.46182
    endloop
  endfacet
  facet normal 0 1 0
    outer loop
      vertex -37.5125 46.875 12.7181
      vertex -43.7625 46.875 0.211823
      vertex -43.7625 46.875 26.5
    endloop
  endfacet
  facet normal 0 1 0
    outer loop
      vertex -31.2562 46.875 6.46182
      vertex -43.7625 46.875 0.211823
      vertex -37.5125 46.875 6.46182
    endloop
  endfacet
  facet normal 0 1 0
    outer loop
      vertex 43.7625 46.875 26.5
      vertex 31.2562 46.875 12.7181
      vertex 6.25 46.875 25.2181
    endloop
  endfacet
  facet normal 0 1 0
    outer loop
      vertex 31.2562 46.875 12.7181
      vertex 6.25 46.875 12.7181
      vertex 6.25 46.875 25.2181
    endloop
  endfacet
  facet normal 0 1 -0
    outer loop
      vertex 31.2562 46.875 6.46182
      vertex 6.25 46.875 12.7181
      vertex 31.2562 46.875 12.7181
    endloop
  endfacet
  facet normal 0 1 0
    outer loop
      vertex 6.25 46.875 12.7181
      vertex 31.2562 46.875 6.46182
      vertex -6.25 46.875 12.7181
    endloop
  endfacet
  facet normal 0 1 0
    outer loop
      vertex -31.2562 46.875 6.46182
      vertex -6.25 46.875 12.7181
      vertex 31.2562 46.875 6.46182
    endloop
  endfacet
  facet normal 0 1 0
    outer loop
      vertex -6.25 46.875 12.7181
      vertex -31.2562 46.875 6.46182
      vertex -31.2562 46.875 12.7181
    endloop
  endfacet
  facet normal 0 1 -0
    outer loop
      vertex -45.5 31.2562 6.46182
      vertex -46.875 31.2562 12.7181
      vertex -45.5 31.2562 12.7181
    endloop
  endfacet
  facet normal 0 1 0
    outer loop
      vertex -46.875 31.2562 12.7181
      vertex -45.5 31.2562 6.46182
      vertex -46.875 31.2562 6.46182
    endloop
  endfacet
  facet normal -0 0 1
    outer loop
      vertex -46.875 -31.2562 6.46182
      vertex -45.5 -37.5125 6.46182
      vertex -45.5 -31.2562 6.46182
    endloop
  endfacet
  facet normal 0 0 1
    outer loop
      vertex -45.5 -37.5125 6.46182
      vertex -46.875 -31.2562 6.46182
      vertex -46.875 -37.5125 6.46182
    endloop
  endfacet
  facet normal -0 0 1
    outer loop
      vertex -6.25 -45.5 12.7181
      vertex 6.25 -46.875 12.7181
      vertex 6.25 -45.5 12.7181
    endloop
  endfacet
  facet normal 0 0 1
    outer loop
      vertex 6.25 -46.875 12.7181
      vertex -6.25 -45.5 12.7181
      vertex -6.25 -46.875 12.7181
    endloop
  endfacet
  facet normal 0 0 -1
    outer loop
      vertex -46.875 -37.5125 12.7181
      vertex -45.5 -31.2562 12.7181
      vertex -45.5 -37.5125 12.7181
    endloop
  endfacet
  facet normal -0 0 -1
    outer loop
      vertex -45.5 -31.2562 12.7181
      vertex -46.875 -37.5125 12.7181
      vertex -46.875 -31.2562 12.7181
    endloop
  endfacet
  facet normal -1 0 0
    outer loop
      vertex 37.5125 45.5 6.46182
      vertex 37.5125 46.875 12.7181
      vertex 37.5125 46.875 6.46182
    endloop
  endfacet
  facet normal -1 -0 0
    outer loop
      vertex 37.5125 46.875 12.7181
      vertex 37.5125 45.5 6.46182
      vertex 37.5125 45.5 12.7181
    endloop
  endfacet
  facet normal 0 -1 0
    outer loop
      vertex -46.875 -31.2562 6.46182
      vertex -45.5 -31.2562 12.7181
      vertex -46.875 -31.2562 12.7181
    endloop
  endfacet
  facet normal 0 -1 -0
    outer loop
      vertex -45.5 -31.2562 12.7181
      vertex -46.875 -31.2562 6.46182
      vertex -45.5 -31.2562 6.46182
    endloop
  endfacet
  facet normal -0 0 1
    outer loop
      vertex -6.25 46.875 12.7181
      vertex 6.25 45.5 12.7181
      vertex 6.25 46.875 12.7181
    endloop
  endfacet
  facet normal 0 0 1
    outer loop
      vertex 6.25 45.5 12.7181
      vertex -6.25 46.875 12.7181
      vertex -6.25 45.5 12.7181
    endloop
  endfacet
  facet normal -1 0 0
    outer loop
      vertex 37.5125 -46.875 6.46182
      vertex 37.5125 -45.5 12.7181
      vertex 37.5125 -45.5 6.46182
    endloop
  endfacet
  facet normal -1 -0 0
    outer loop
      vertex 37.5125 -45.5 12.7181
      vertex 37.5125 -46.875 6.46182
      vertex 37.5125 -46.875 12.7181
    endloop
  endfacet
  facet normal 0 1 -0
    outer loop
      vertex 46.875 43.7625 0.211823
      vertex 45.5 43.7625 26.5
      vertex 46.875 43.7625 26.5
    endloop
  endfacet
  facet normal 0 1 0
    outer loop
      vertex 45.5 43.7625 26.5
      vertex 46.875 43.7625 0.211823
      vertex 45.5 43.7625 0.211823
    endloop
  endfacet
  facet normal 0 -1 0
    outer loop
      vertex 45.5 -43.7625 0.211823
      vertex 46.875 -43.7625 26.5
      vertex 45.5 -43.7625 26.5
    endloop
  endfacet
  facet normal 0 -1 -0
    outer loop
      vertex 46.875 -43.7625 26.5
      vertex 45.5 -43.7625 0.211823
      vertex 46.875 -43.7625 0.211823
    endloop
  endfacet
  facet normal -0 0 1
    outer loop
      vertex 45.5 -31.2562 6.46182
      vertex 46.875 -37.5125 6.46182
      vertex 46.875 -31.2562 6.46182
    endloop
  endfacet
  facet normal 0 0 1
    outer loop
      vertex 46.875 -37.5125 6.46182
      vertex 45.5 -31.2562 6.46182
      vertex 45.5 -37.5125 6.46182
    endloop
  endfacet
  facet normal 0 0 -1
    outer loop
      vertex 45.5 -37.5125 12.7181
      vertex 46.875 -31.2562 12.7181
      vertex 46.875 -37.5125 12.7181
    endloop
  endfacet
  facet normal -0 0 -1
    outer loop
      vertex 46.875 -31.2562 12.7181
      vertex 45.5 -37.5125 12.7181
      vertex 45.5 -31.2562 12.7181
    endloop
  endfacet
  facet normal 1 -0 0
    outer loop
      vertex 43.7625 45.5 26.5
      vertex 43.7625 46.875 0.211823
      vertex 43.7625 46.875 26.5
    endloop
  endfacet
  facet normal 1 0 0
    outer loop
      vertex 43.7625 46.875 0.211823
      vertex 43.7625 45.5 26.5
      vertex 43.7625 45.5 0.211823
    endloop
  endfacet
  facet normal -1 0 0
    outer loop
      vertex -43.7625 -46.875 0.211823
      vertex -43.7625 -45.5 26.5
      vertex -43.7625 -45.5 0.211823
    endloop
  endfacet
  facet normal -1 -0 0
    outer loop
      vertex -43.7625 -45.5 26.5
      vertex -43.7625 -46.875 0.211823
      vertex -43.7625 -46.875 26.5
    endloop
  endfacet
  facet normal 0 1 -0
    outer loop
      vertex 46.875 -37.5125 6.46182
      vertex 45.5 -37.5125 12.7181
      vertex 46.875 -37.5125 12.7181
    endloop
  endfacet
  facet normal 0 1 0
    outer loop
      vertex 45.5 -37.5125 12.7181
      vertex 46.875 -37.5125 6.46182
      vertex 45.5 -37.5125 6.46182
    endloop
  endfacet
  facet normal 0 1 -0
    outer loop
      vertex -45.5 -6.25 12.7181
      vertex -46.875 -6.25 25.2181
      vertex -45.5 -6.25 25.2181
    endloop
  endfacet
  facet normal 0 1 0
    outer loop
      vertex -46.875 -6.25 25.2181
      vertex -45.5 -6.25 12.7181
      vertex -46.875 -6.25 12.7181
    endloop
  endfacet
  facet normal 0 -1 0
    outer loop
      vertex 45.5 -31.2562 6.46182
      vertex 46.875 -31.2562 12.7181
      vertex 45.5 -31.2562 12.7181
    endloop
  endfacet
  facet normal 0 -1 -0
    outer loop
      vertex 46.875 -31.2562 12.7181
      vertex 45.5 -31.2562 6.46182
      vertex 46.875 -31.2562 6.46182
    endloop
  endfacet
  facet normal -0 0 1
    outer loop
      vertex 45.5 37.5125 6.46182
      vertex 46.875 31.2562 6.46182
      vertex 46.875 37.5125 6.46182
    endloop
  endfacet
  facet normal 0 0 1
    outer loop
      vertex 46.875 31.2562 6.46182
      vertex 45.5 37.5125 6.46182
      vertex 45.5 31.2562 6.46182
    endloop
  endfacet
  facet normal -1 0 0
    outer loop
      vertex -46.875 37.5125 12.7181
      vertex -46.875 43.7625 0.211823
      vertex -46.875 37.5125 6.46182
    endloop
  endfacet
  facet normal -1 0 0
    outer loop
      vertex -46.875 43.7625 0.211823
      vertex -46.875 31.2562 6.46182
      vertex -46.875 37.5125 6.46182
    endloop
  endfacet
  facet normal -1 0 0
    outer loop
      vertex -46.875 31.2562 6.46182
      vertex -46.875 6.25 12.7181
      vertex -46.875 31.2562 12.7181
    endloop
  endfacet
  facet normal -1 0 0
    outer loop
      vertex -46.875 -31.2562 6.46182
      vertex -46.875 31.2562 6.46182
      vertex -46.875 43.7625 0.211823
    endloop
  endfacet
  facet normal -1 0 0
    outer loop
      vertex -46.875 31.2562 6.46182
      vertex -46.875 -6.25 12.7181
      vertex -46.875 6.25 12.7181
    endloop
  endfacet
  facet normal -1 0 0
    outer loop
      vertex -46.875 -31.2562 12.7181
      vertex -46.875 -6.25 12.7181
      vertex -46.875 -31.2562 6.46182
    endloop
  endfacet
  facet normal -1 0 0
    outer loop
      vertex -46.875 31.2562 6.46182
      vertex -46.875 -31.2562 6.46182
      vertex -46.875 -6.25 12.7181
    endloop
  endfacet
  facet normal -1 0 0
    outer loop
      vertex -46.875 -43.7625 0.211823
      vertex -46.875 -31.2562 6.46182
      vertex -46.875 43.7625 0.211823
    endloop
  endfacet
  facet normal -1 -0 0
    outer loop
      vertex -46.875 -37.5125 6.46182
      vertex -46.875 -43.7625 0.211823
      vertex -46.875 -37.5125 12.7181
    endloop
  endfacet
  facet normal -1 -0 0
    outer loop
      vertex -46.875 -31.2562 6.46182
      vertex -46.875 -43.7625 0.211823
      vertex -46.875 -37.5125 6.46182
    endloop
  endfacet
  facet normal -1 0 0
    outer loop
      vertex -46.875 43.7625 0.211823
      vertex -46.875 37.5125 12.7181
      vertex -46.875 43.7625 26.5
    endloop
  endfacet
  facet normal -1 0 0
    outer loop
      vertex -46.875 31.2562 12.7181
      vertex -46.875 43.7625 26.5
      vertex -46.875 37.5125 12.7181
    endloop
  endfacet
  facet normal -1 0 0
    outer loop
      vertex -46.875 6.25 25.2181
      vertex -46.875 31.2562 12.7181
      vertex -46.875 6.25 12.7181
    endloop
  endfacet
  facet normal -1 0 0
    outer loop
      vertex -46.875 31.2562 12.7181
      vertex -46.875 6.25 25.2181
      vertex -46.875 43.7625 26.5
    endloop
  endfacet
  facet normal -1 0 0
    outer loop
      vertex -46.875 -6.25 25.2181
      vertex -46.875 43.7625 26.5
      vertex -46.875 6.25 25.2181
    endloop
  endfacet
  facet normal -1 0 0
    outer loop
      vertex -46.875 -6.25 12.7181
      vertex -46.875 -31.2562 12.7181
      vertex -46.875 -6.25 25.2181
    endloop
  endfacet
  facet normal -1 0 0
    outer loop
      vertex -46.875 -43.7625 26.5
      vertex -46.875 -31.2562 12.7181
      vertex -46.875 -37.5125 12.7181
    endloop
  endfacet
  facet normal -1 0 0
    outer loop
      vertex -46.875 -6.25 25.2181
      vertex -46.875 -43.7625 26.5
      vertex -46.875 43.7625 26.5
    endloop
  endfacet
  facet normal -1 0 0
    outer loop
      vertex -46.875 -31.2562 12.7181
      vertex -46.875 -43.7625 26.5
      vertex -46.875 -6.25 25.2181
    endloop
  endfacet
  facet normal -1 0 0
    outer loop
      vertex -46.875 -43.7625 26.5
      vertex -46.875 -37.5125 12.7181
      vertex -46.875 -43.7625 0.211823
    endloop
  endfacet
  facet normal 0 0 -1
    outer loop
      vertex 45.5 31.2562 12.7181
      vertex 46.875 37.5125 12.7181
      vertex 46.875 31.2562 12.7181
    endloop
  endfacet
  facet normal -0 0 -1
    outer loop
      vertex 46.875 37.5125 12.7181
      vertex 45.5 31.2562 12.7181
      vertex 45.5 37.5125 12.7181
    endloop
  endfacet
  facet normal 0 0 -1
    outer loop
      vertex -46.875 -6.25 25.2181
      vertex -45.5 6.25 25.2181
      vertex -45.5 -6.25 25.2181
    endloop
  endfacet
  facet normal -0 0 -1
    outer loop
      vertex -45.5 6.25 25.2181
      vertex -46.875 -6.25 25.2181
      vertex -46.875 6.25 25.2181
    endloop
  endfacet
  facet normal 1 -0 0
    outer loop
      vertex 43.7625 -46.875 26.5
      vertex 43.7625 -45.5 0.211823
      vertex 43.7625 -45.5 26.5
    endloop
  endfacet
  facet normal 1 0 0
    outer loop
      vertex 43.7625 -45.5 0.211823
      vertex 43.7625 -46.875 26.5
      vertex 43.7625 -46.875 0.211823
    endloop
  endfacet
  facet normal 0 1 -0
    outer loop
      vertex 46.875 31.2562 6.46182
      vertex 45.5 31.2562 12.7181
      vertex 46.875 31.2562 12.7181
    endloop
  endfacet
  facet normal 0 1 0
    outer loop
      vertex 45.5 31.2562 12.7181
      vertex 46.875 31.2562 6.46182
      vertex 45.5 31.2562 6.46182
    endloop
  endfacet
  facet normal 0 -1 0
    outer loop
      vertex -46.875 6.25 12.7181
      vertex -45.5 6.25 25.2181
      vertex -46.875 6.25 25.2181
    endloop
  endfacet
  facet normal 0 -1 -0
    outer loop
      vertex -45.5 6.25 25.2181
      vertex -46.875 6.25 12.7181
      vertex -45.5 6.25 12.7181
    endloop
  endfacet
  facet normal 0 -1 0
    outer loop
      vertex 45.5 6.25 12.7181
      vertex 46.875 6.25 25.2181
      vertex 45.5 6.25 25.2181
    endloop
  endfacet
  facet normal 0 -1 -0
    outer loop
      vertex 46.875 6.25 25.2181
      vertex 45.5 6.25 12.7181
      vertex 46.875 6.25 12.7181
    endloop
  endfacet
  facet normal 0 0 -1
    outer loop
      vertex 45.5 -6.25 25.2181
      vertex 46.875 6.25 25.2181
      vertex 46.875 -6.25 25.2181
    endloop
  endfacet
  facet normal -0 0 -1
    outer loop
      vertex 46.875 6.25 25.2181
      vertex 45.5 -6.25 25.2181
      vertex 45.5 6.25 25.2181
    endloop
  endfacet
  facet normal 0 1 -0
    outer loop
      vertex 46.875 -6.25 12.7181
      vertex 45.5 -6.25 25.2181
      vertex 46.875 -6.25 25.2181
    endloop
  endfacet
  facet normal 0 1 0
    outer loop
      vertex 45.5 -6.25 25.2181
      vertex 46.875 -6.25 12.7181
      vertex 45.5 -6.25 12.7181
    endloop
  endfacet
  facet normal -1 0 0
    outer loop
      vertex -31.2562 45.5 6.46182
      vertex -31.2562 46.875 12.7181
      vertex -31.2562 46.875 6.46182
    endloop
  endfacet
  facet normal -1 -0 0
    outer loop
      vertex -31.2562 46.875 12.7181
      vertex -31.2562 45.5 6.46182
      vertex -31.2562 45.5 12.7181
    endloop
  endfacet
  facet normal -1 0 0
    outer loop
      vertex 6.25 -46.875 12.7181
      vertex 6.25 -45.5 25.2181
      vertex 6.25 -45.5 12.7181
    endloop
  endfacet
  facet normal -1 -0 0
    outer loop
      vertex 6.25 -45.5 25.2181
      vertex 6.25 -46.875 12.7181
      vertex 6.25 -46.875 25.2181
    endloop
  endfacet
  facet normal 0 0 -1
    outer loop
      vertex -6.25 -46.875 25.2181
      vertex 6.25 -45.5 25.2181
      vertex 6.25 -46.875 25.2181
    endloop
  endfacet
  facet normal -0 0 -1
    outer loop
      vertex 6.25 -45.5 25.2181
      vertex -6.25 -46.875 25.2181
      vertex -6.25 -45.5 25.2181
    endloop
  endfacet
  facet normal -1 0 0
    outer loop
      vertex -31.2562 -46.875 6.46182
      vertex -31.2562 -45.5 12.7181
      vertex -31.2562 -45.5 6.46182
    endloop
  endfacet
  facet normal -1 -0 0
    outer loop
      vertex -31.2562 -45.5 12.7181
      vertex -31.2562 -46.875 6.46182
      vertex -31.2562 -46.875 12.7181
    endloop
  endfacet
  facet normal 1 -0 0
    outer loop
      vertex -6.25 -46.875 25.2181
      vertex -6.25 -45.5 12.7181
      vertex -6.25 -45.5 25.2181
    endloop
  endfacet
  facet normal 1 0 0
    outer loop
      vertex -6.25 -45.5 12.7181
      vertex -6.25 -46.875 25.2181
      vertex -6.25 -46.875 12.7181
    endloop
  endfacet
  facet normal 0 0 -1
    outer loop
      vertex 45.5 -43.7625 0.211823
      vertex 46.875 43.7625 0.211823
      vertex 46.875 -43.7625 0.211823
    endloop
  endfacet
  facet normal -0 0 -1
    outer loop
      vertex 46.875 43.7625 0.211823
      vertex 45.5 -43.7625 0.211823
      vertex 45.5 43.7625 0.211823
    endloop
  endfacet
  facet normal 0 0 -1
    outer loop
      vertex -43.7625 -46.875 0.211823
      vertex 43.7625 -45.5 0.211823
      vertex 43.7625 -46.875 0.211823
    endloop
  endfacet
  facet normal -0 0 -1
    outer loop
      vertex 43.7625 -45.5 0.211823
      vertex -43.7625 -46.875 0.211823
      vertex -43.7625 -45.5 0.211823
    endloop
  endfacet
  facet normal 0 0 -1
    outer loop
      vertex -43.7625 45.5 0.211823
      vertex 43.7625 46.875 0.211823
      vertex 43.7625 45.5 0.211823
    endloop
  endfacet
  facet normal -0 0 -1
    outer loop
      vertex 43.7625 46.875 0.211823
      vertex -43.7625 45.5 0.211823
      vertex -43.7625 46.875 0.211823
    endloop
  endfacet
  facet normal 0 0 -1
    outer loop
      vertex -46.875 -43.7625 0.211823
      vertex -45.5 43.7625 0.211823
      vertex -45.5 -43.7625 0.211823
    endloop
  endfacet
  facet normal -0 0 -1
    outer loop
      vertex -45.5 43.7625 0.211823
      vertex -46.875 -43.7625 0.211823
      vertex -46.875 43.7625 0.211823
    endloop
  endfacet
  facet normal 1 0 0
    outer loop
      vertex 45.5 -43.7625 26.5
      vertex 45.5 -45.5 26.5
      vertex 45.5 -43.7625 0.211823
    endloop
  endfacet
  facet normal 1 0 0
    outer loop
      vertex 45.5 43.7625 0.211823
      vertex 45.5 45.5 26.5
      vertex 45.5 43.7625 26.5
    endloop
  endfacet
  facet normal 1 0 0
    outer loop
      vertex 45.5 45.5 26.5
      vertex 45.5 43.7625 0.211823
      vertex 45.5 45.5 0.167603
    endloop
  endfacet
  facet normal 1 -0 0
    outer loop
      vertex 45.5 -43.7625 0.211823
      vertex 45.5 45.5 0.167603
      vertex 45.5 43.7625 0.211823
    endloop
  endfacet
  facet normal 1 0 0
    outer loop
      vertex 45.5 -43.7625 0.211823
      vertex 45.5 -45.5 0.167603
      vertex 45.5 45.5 0.167603
    endloop
  endfacet
  facet normal 1 0 0
    outer loop
      vertex 45.5 -45.5 0.167603
      vertex 45.5 -43.7625 0.211823
      vertex 45.5 -45.5 26.5
    endloop
  endfacet
  facet normal 1 -0 0
    outer loop
      vertex 45.5 -37.5125 12.7181
      vertex 45.5 -31.2562 6.46182
      vertex 45.5 -31.2562 12.7181
    endloop
  endfacet
  facet normal 1 0 0
    outer loop
      vertex 45.5 -31.2562 6.46182
      vertex 45.5 -37.5125 12.7181
      vertex 45.5 -37.5125 6.46182
    endloop
  endfacet
  facet normal 1 -0 0
    outer loop
      vertex 45.5 31.2562 12.7181
      vertex 45.5 37.5125 6.46182
      vertex 45.5 37.5125 12.7181
    endloop
  endfacet
  facet normal 1 0 0
    outer loop
      vertex 45.5 37.5125 6.46182
      vertex 45.5 31.2562 12.7181
      vertex 45.5 31.2562 6.46182
    endloop
  endfacet
  facet normal 1 -0 0
    outer loop
      vertex 45.5 -6.25 25.2181
      vertex 45.5 6.25 12.7181
      vertex 45.5 6.25 25.2181
    endloop
  endfacet
  facet normal 1 0 0
    outer loop
      vertex 45.5 6.25 12.7181
      vertex 45.5 -6.25 25.2181
      vertex 45.5 -6.25 12.7181
    endloop
  endfacet
  facet normal 0 0 -1
    outer loop
      vertex -45.5 -45.5 0.167603
      vertex 45.5 45.5 0.167603
      vertex 45.5 -45.5 0.167603
    endloop
  endfacet
  facet normal -0 0 -1
    outer loop
      vertex 45.5 45.5 0.167603
      vertex -45.5 -45.5 0.167603
      vertex -45.5 45.5 0.167603
    endloop
  endfacet
  facet normal -1 0 0
    outer loop
      vertex -45.5 45.5 0.167603
      vertex -45.5 43.7625 0.211823
      vertex -45.5 45.5 26.5
    endloop
  endfacet
  facet normal -1 0 0
    outer loop
      vertex -45.5 45.5 0.167603
      vertex -45.5 -43.7625 0.211823
      vertex -45.5 43.7625 0.211823
    endloop
  endfacet
  facet normal -1 0 0
    outer loop
      vertex -45.5 -45.5 0.167603
      vertex -45.5 -43.7625 0.211823
      vertex -45.5 45.5 0.167603
    endloop
  endfacet
  facet normal -1 0 0
    outer loop
      vertex -45.5 -45.5 26.5
      vertex -45.5 -43.7625 0.211823
      vertex -45.5 -45.5 0.167603
    endloop
  endfacet
  facet normal -1 0 0
    outer loop
      vertex -45.5 -43.7625 0.211823
      vertex -45.5 -45.5 26.5
      vertex -45.5 -43.7625 26.5
    endloop
  endfacet
  facet normal -1 -0 0
    outer loop
      vertex -45.5 45.5 26.5
      vertex -45.5 43.7625 0.211823
      vertex -45.5 43.7625 26.5
    endloop
  endfacet
  facet normal -1 0 0
    outer loop
      vertex -45.5 31.2562 6.46182
      vertex -45.5 37.5125 12.7181
      vertex -45.5 37.5125 6.46182
    endloop
  endfacet
  facet normal -1 -0 0
    outer loop
      vertex -45.5 37.5125 12.7181
      vertex -45.5 31.2562 6.46182
      vertex -45.5 31.2562 12.7181
    endloop
  endfacet
  facet normal -1 0 0
    outer loop
      vertex -45.5 -37.5125 6.46182
      vertex -45.5 -31.2562 12.7181
      vertex -45.5 -31.2562 6.46182
    endloop
  endfacet
  facet normal -1 -0 0
    outer loop
      vertex -45.5 -31.2562 12.7181
      vertex -45.5 -37.5125 6.46182
      vertex -45.5 -37.5125 12.7181
    endloop
  endfacet
  facet normal -1 0 0
    outer loop
      vertex -45.5 -6.25 12.7181
      vertex -45.5 6.25 25.2181
      vertex -45.5 6.25 12.7181
    endloop
  endfacet
  facet normal -1 -0 0
    outer loop
      vertex -45.5 6.25 25.2181
      vertex -45.5 -6.25 12.7181
      vertex -45.5 -6.25 25.2181
    endloop
  endfacet
  facet normal 0 1 0
    outer loop
      vertex 45.5 45.5 26.5
      vertex 43.7625 45.5 0.211823
      vertex 43.7625 45.5 26.5
    endloop
  endfacet
  facet normal 0 1 0
    outer loop
      vertex 43.7625 45.5 0.211823
      vertex 45.5 45.5 0.167603
      vertex -43.7625 45.5 0.211823
    endloop
  endfacet
  facet normal 0 1 -0
    outer loop
      vertex 45.5 45.5 0.167603
      vertex 43.7625 45.5 0.211823
      vertex 45.5 45.5 26.5
    endloop
  endfacet
  facet normal 0 1 -0
    outer loop
      vertex -43.7625 45.5 0.211823
      vertex -45.5 45.5 26.5
      vertex -43.7625 45.5 26.5
    endloop
  endfacet
  facet normal 0 1 0
    outer loop
      vertex -43.7625 45.5 0.211823
      vertex -45.5 45.5 0.167603
      vertex -45.5 45.5 26.5
    endloop
  endfacet
  facet normal 0 1 0
    outer loop
      vertex -45.5 45.5 0.167603
      vertex -43.7625 45.5 0.211823
      vertex 45.5 45.5 0.167603
    endloop
  endfacet
  facet normal 0 1 -0
    outer loop
      vertex -31.2562 45.5 6.46182
      vertex -37.5125 45.5 12.7181
      vertex -31.2562 45.5 12.7181
    endloop
  endfacet
  facet normal 0 1 0
    outer loop
      vertex -37.5125 45.5 12.7181
      vertex -31.2562 45.5 6.46182
      vertex -37.5125 45.5 6.46182
    endloop
  endfacet
  facet normal 0 1 -0
    outer loop
      vertex 6.25 45.5 12.7181
      vertex -6.25 45.5 25.2181
      vertex 6.25 45.5 25.2181
    endloop
  endfacet
  facet normal 0 1 0
    outer loop
      vertex -6.25 45.5 25.2181
      vertex 6.25 45.5 12.7181
      vertex -6.25 45.5 12.7181
    endloop
  endfacet
  facet normal 0 1 -0
    outer loop
      vertex 37.5125 45.5 6.46182
      vertex 31.2562 45.5 12.7181
      vertex 37.5125 45.5 12.7181
    endloop
  endfacet
  facet normal 0 1 0
    outer loop
      vertex 31.2562 45.5 12.7181
      vertex 37.5125 45.5 6.46182
      vertex 31.2562 45.5 6.46182
    endloop
  endfacet
  facet normal 0 -1 0
    outer loop
      vertex -45.5 -45.5 26.5
      vertex -43.7625 -45.5 0.211823
      vertex -43.7625 -45.5 26.5
    endloop
  endfacet
  facet normal 0 -1 -0
    outer loop
      vertex -43.7625 -45.5 0.211823
      vertex -45.5 -45.5 0.167603
      vertex 43.7625 -45.5 0.211823
    endloop
  endfacet
  facet normal 0 -1 0
    outer loop
      vertex -45.5 -45.5 0.167603
      vertex -43.7625 -45.5 0.211823
      vertex -45.5 -45.5 26.5
    endloop
  endfacet
  facet normal 0 -1 0
    outer loop
      vertex 43.7625 -45.5 0.211823
      vertex 45.5 -45.5 26.5
      vertex 43.7625 -45.5 26.5
    endloop
  endfacet
  facet normal 0 -1 0
    outer loop
      vertex 43.7625 -45.5 0.211823
      vertex 45.5 -45.5 0.167603
      vertex 45.5 -45.5 26.5
    endloop
  endfacet
  facet normal 0 -1 0
    outer loop
      vertex 45.5 -45.5 0.167603
      vertex 43.7625 -45.5 0.211823
      vertex -45.5 -45.5 0.167603
    endloop
  endfacet
  facet normal 0 -1 0
    outer loop
      vertex -37.5125 -45.5 6.46182
      vertex -31.2562 -45.5 12.7181
      vertex -37.5125 -45.5 12.7181
    endloop
  endfacet
  facet normal 0 -1 -0
    outer loop
      vertex -31.2562 -45.5 12.7181
      vertex -37.5125 -45.5 6.46182
      vertex -31.2562 -45.5 6.46182
    endloop
  endfacet
  facet normal 0 -1 0
    outer loop
      vertex -6.25 -45.5 12.7181
      vertex 6.25 -45.5 25.2181
      vertex -6.25 -45.5 25.2181
    endloop
  endfacet
  facet normal 0 -1 -0
    outer loop
      vertex 6.25 -45.5 25.2181
      vertex -6.25 -45.5 12.7181
      vertex 6.25 -45.5 12.7181
    endloop
  endfacet
  facet normal 0 -1 0
    outer loop
      vertex 31.2562 -45.5 6.46182
      vertex 37.5125 -45.5 12.7181
      vertex 31.2562 -45.5 12.7181
    endloop
  endfacet
  facet normal 0 -1 -0
    outer loop
      vertex 37.5125 -45.5 12.7181
      vertex 31.2562 -45.5 6.46182
      vertex 37.5125 -45.5 6.46182
    endloop
  endfacet
  facet normal -1 0 0
    outer loop
      vertex 44.5 -44.5 2
      vertex 44.5 44.5 26.5
      vertex 44.5 44.5 2
    endloop
  endfacet
  facet normal -1 -0 0
    outer loop
      vertex 44.5 44.5 26.5
      vertex 44.5 -44.5 2
      vertex 44.5 -44.5 26.5
    endloop
  endfacet
  facet normal -0 0 1
    outer loop
      vertex -44.5 44.5 2
      vertex 44.5 -44.5 2
      vertex 44.5 44.5 2
    endloop
  endfacet
  facet normal 0 0 1
    outer loop
      vertex 44.5 -44.5 2
      vertex -44.5 44.5 2
      vertex -44.5 -44.5 2
    endloop
  endfacet
  facet normal 1 -0 0
    outer loop
      vertex -44.5 -44.5 26.5
      vertex -44.5 44.5 2
      vertex -44.5 44.5 26.5
    endloop
  endfacet
  facet normal 1 0 0
    outer loop
      vertex -44.5 44.5 2
      vertex -44.5 -44.5 26.5
      vertex -44.5 -44.5 2
    endloop
  endfacet
  facet normal 0 -1 0
    outer loop
      vertex -44.5 44.5 2
      vertex 44.5 44.5 26.5
      vertex -44.5 44.5 26.5
    endloop
  endfacet
  facet normal 0 -1 -0
    outer loop
      vertex 44.5 44.5 26.5
      vertex -44.5 44.5 2
      vertex 44.5 44.5 2
    endloop
  endfacet
  facet normal 0 1 -0
    outer loop
      vertex 44.5 -44.5 2
      vertex -44.5 -44.5 26.5
      vertex 44.5 -44.5 26.5
    endloop
  endfacet
  facet normal 0 1 0
    outer loop
      vertex -44.5 -44.5 26.5
      vertex 44.5 -44.5 2
      vertex -44.5 -44.5 2
    endloop
  endfacet
  facet normal 0 0 1
    outer loop
      vertex 43.7625 46.875 26.5
      vertex -43.7625 46.875 26.5
      vertex 43.7625 45.5 26.5
    endloop
  endfacet
  facet normal -0 0 1
    outer loop
      vertex 44.5 44.5 26.5
      vertex 45.5 43.7625 26.5
      vertex 45.5 45.5 26.5
    endloop
  endfacet
  facet normal 0 0 1
    outer loop
      vertex 45.5 43.7625 26.5
      vertex 44.5 44.5 26.5
      vertex 45.5 -43.7625 26.5
    endloop
  endfacet
  facet normal 0 0 1
    outer loop
      vertex 44.5 -44.5 26.5
      vertex 45.5 -43.7625 26.5
      vertex 44.5 44.5 26.5
    endloop
  endfacet
  facet normal -0 0 1
    outer loop
      vertex 43.7625 45.5 26.5
      vertex 44.5 44.5 26.5
      vertex 45.5 45.5 26.5
    endloop
  endfacet
  facet normal 0 0 1
    outer loop
      vertex -43.7625 45.5 26.5
      vertex 43.7625 45.5 26.5
      vertex -43.7625 46.875 26.5
    endloop
  endfacet
  facet normal 0 0 1
    outer loop
      vertex 43.7625 45.5 26.5
      vertex -43.7625 45.5 26.5
      vertex 44.5 44.5 26.5
    endloop
  endfacet
  facet normal 0 0 1
    outer loop
      vertex -43.7625 45.5 26.5
      vertex -44.5 44.5 26.5
      vertex 44.5 44.5 26.5
    endloop
  endfacet
  facet normal 0 0 1
    outer loop
      vertex -45.5 43.7625 26.5
      vertex -44.5 44.5 26.5
      vertex -45.5 45.5 26.5
    endloop
  endfacet
  facet normal -0 0 1
    outer loop
      vertex -45.5 45.5 26.5
      vertex -44.5 44.5 26.5
      vertex -43.7625 45.5 26.5
    endloop
  endfacet
  facet normal -0 0 1
    outer loop
      vertex 45.5 43.7625 26.5
      vertex 46.875 -43.7625 26.5
      vertex 46.875 43.7625 26.5
    endloop
  endfacet
  facet normal 0 0 1
    outer loop
      vertex 46.875 -43.7625 26.5
      vertex 45.5 43.7625 26.5
      vertex 45.5 -43.7625 26.5
    endloop
  endfacet
  facet normal 0 0 1
    outer loop
      vertex 45.5 -43.7625 26.5
      vertex 44.5 -44.5 26.5
      vertex 45.5 -45.5 26.5
    endloop
  endfacet
  facet normal 0 0 1
    outer loop
      vertex 44.5 -44.5 26.5
      vertex 43.7625 -45.5 26.5
      vertex 45.5 -45.5 26.5
    endloop
  endfacet
  facet normal 0 0 1
    outer loop
      vertex 43.7625 -45.5 26.5
      vertex -43.7625 -45.5 26.5
      vertex 43.7625 -46.875 26.5
    endloop
  endfacet
  facet normal 0 0 1
    outer loop
      vertex 44.5 -44.5 26.5
      vertex -43.7625 -45.5 26.5
      vertex 43.7625 -45.5 26.5
    endloop
  endfacet
  facet normal -0 0 1
    outer loop
      vertex -44.5 -44.5 26.5
      vertex -43.7625 -45.5 26.5
      vertex 44.5 -44.5 26.5
    endloop
  endfacet
  facet normal 0 0 1
    outer loop
      vertex -44.5 44.5 26.5
      vertex -45.5 43.7625 26.5
      vertex -44.5 -44.5 26.5
    endloop
  endfacet
  facet normal -0 0 1
    outer loop
      vertex -45.5 -43.7625 26.5
      vertex -44.5 -44.5 26.5
      vertex -45.5 43.7625 26.5
    endloop
  endfacet
  facet normal 0 0 1
    outer loop
      vertex -45.5 -45.5 26.5
      vertex -44.5 -44.5 26.5
      vertex -45.5 -43.7625 26.5
    endloop
  endfacet
  facet normal 0 0 1
    outer loop
      vertex -44.5 -44.5 26.5
      vertex -45.5 -45.5 26.5
      vertex -43.7625 -45.5 26.5
    endloop
  endfacet
  facet normal -0 0 1
    outer loop
      vertex -46.875 43.7625 26.5
      vertex -45.5 -43.7625 26.5
      vertex -45.5 43.7625 26.5
    endloop
  endfacet
  facet normal 0 0 1
    outer loop
      vertex -45.5 -43.7625 26.5
      vertex -46.875 43.7625 26.5
      vertex -46.875 -43.7625 26.5
    endloop
  endfacet
  facet normal 0 0 1
    outer loop
      vertex 43.7625 -46.875 26.5
      vertex -43.7625 -45.5 26.5
      vertex -43.7625 -46.875 26.5
    endloop
  endfacet
endsolid OpenSCAD_Model
