solid OpenSCAD_Model
  facet normal 1 0 0
    outer loop
      vertex 35.1562 32.8219 19.875
      vertex 35.1562 28.1344 9.53855
      vertex 35.1562 32.8219 0.158867
    endloop
  endfacet
  facet normal 1 0 0
    outer loop
      vertex 35.1562 32.8219 19.875
      vertex 35.1562 23.4422 9.53855
      vertex 35.1562 28.1344 9.53855
    endloop
  endfacet
  facet normal 1 0 0
    outer loop
      vertex 35.1562 4.6875 9.53855
      vertex 35.1562 23.4422 9.53855
      vertex 35.1562 4.6875 18.9136
    endloop
  endfacet
  facet normal 1 0 0
    outer loop
      vertex 35.1562 32.8219 19.875
      vertex 35.1562 4.6875 18.9136
      vertex 35.1562 23.4422 9.53855
    endloop
  endfacet
  facet normal 1 0 0
    outer loop
      vertex 35.1562 32.8219 19.875
      vertex 35.1562 -4.6875 18.9136
      vertex 35.1562 4.6875 18.9136
    endloop
  endfacet
  facet normal 1 0 0
    outer loop
      vertex 35.1562 -4.6875 18.9136
      vertex 35.1562 -23.4422 9.53855
      vertex 35.1562 -4.6875 9.53855
    endloop
  endfacet
  facet normal 1 0 0
    outer loop
      vertex 35.1562 -32.8219 19.875
      vertex 35.1562 -23.4422 9.53855
      vertex 35.1562 -4.6875 18.9136
    endloop
  endfacet
  facet normal 1 0 0
    outer loop
      vertex 35.1562 -32.8219 0.158867
      vertex 35.1562 -28.1344 9.53855
      vertex 35.1562 -32.8219 19.875
    endloop
  endfacet
  facet normal 1 0 0
    outer loop
      vertex 35.1562 -23.4422 9.53855
      vertex 35.1562 -32.8219 19.875
      vertex 35.1562 -28.1344 9.53855
    endloop
  endfacet
  facet normal 1 -0 0
    outer loop
      vertex 35.1562 -32.8219 19.875
      vertex 35.1562 -4.6875 18.9136
      vertex 35.1562 32.8219 19.875
    endloop
  endfacet
  facet normal 1 -0 0
    outer loop
      vertex 35.1562 28.1344 4.84637
      vertex 35.1562 32.8219 0.158867
      vertex 35.1562 28.1344 9.53855
    endloop
  endfacet
  facet normal 1 -0 0
    outer loop
      vertex 35.1562 23.4422 4.84637
      vertex 35.1562 32.8219 0.158867
      vertex 35.1562 28.1344 4.84637
    endloop
  endfacet
  facet normal 1 0 0
    outer loop
      vertex 35.1562 23.4422 9.53855
      vertex 35.1562 4.6875 9.53855
      vertex 35.1562 23.4422 4.84637
    endloop
  endfacet
  facet normal 1 -0 0
    outer loop
      vertex 35.1562 -4.6875 9.53855
      vertex 35.1562 23.4422 4.84637
      vertex 35.1562 4.6875 9.53855
    endloop
  endfacet
  facet normal 1 0 0
    outer loop
      vertex 35.1562 -23.4422 4.84637
      vertex 35.1562 23.4422 4.84637
      vertex 35.1562 -4.6875 9.53855
    endloop
  endfacet
  facet normal 1 0 0
    outer loop
      vertex 35.1562 -23.4422 4.84637
      vertex 35.1562 -4.6875 9.53855
      vertex 35.1562 -23.4422 9.53855
    endloop
  endfacet
  facet normal 1 0 0
    outer loop
      vertex 35.1562 23.4422 4.84637
      vertex 35.1562 -23.4422 4.84637
      vertex 35.1562 32.8219 0.158867
    endloop
  endfacet
  facet normal 1 0 0
    outer loop
      vertex 35.1562 -32.8219 0.158867
      vertex 35.1562 -23.4422 4.84637
      vertex 35.1562 -28.1344 4.84637
    endloop
  endfacet
  facet normal 1 0 0
    outer loop
      vertex 35.1562 -23.4422 4.84637
      vertex 35.1562 -32.8219 0.158867
      vertex 35.1562 32.8219 0.158867
    endloop
  endfacet
  facet normal 1 0 0
    outer loop
      vertex 35.1562 -28.1344 9.53855
      vertex 35.1562 -32.8219 0.158867
      vertex 35.1562 -28.1344 4.84637
    endloop
  endfacet
  facet normal -0 0 1
    outer loop
      vertex -28.1344 35.1562 4.84637
      vertex -23.4422 34.125 4.84637
      vertex -23.4422 35.1562 4.84637
    endloop
  endfacet
  facet normal 0 0 1
    outer loop
      vertex -23.4422 34.125 4.84637
      vertex -28.1344 35.1562 4.84637
      vertex -28.1344 34.125 4.84637
    endloop
  endfacet
  facet normal -0 0 1
    outer loop
      vertex 23.4422 -34.125 4.84637
      vertex 28.1344 -35.1562 4.84637
      vertex 28.1344 -34.125 4.84637
    endloop
  endfacet
  facet normal 0 0 1
    outer loop
      vertex 28.1344 -35.1562 4.84637
      vertex 23.4422 -34.125 4.84637
      vertex 23.4422 -35.1562 4.84637
    endloop
  endfacet
  facet normal 0 0 -1
    outer loop
      vertex 23.4422 -35.1562 9.53855
      vertex 28.1344 -34.125 9.53855
      vertex 28.1344 -35.1562 9.53855
    endloop
  endfacet
  facet normal -0 0 -1
    outer loop
      vertex 28.1344 -34.125 9.53855
      vertex 23.4422 -35.1562 9.53855
      vertex 23.4422 -34.125 9.53855
    endloop
  endfacet
  facet normal 0 0 -1
    outer loop
      vertex -28.1344 34.125 9.53855
      vertex -23.4422 35.1562 9.53855
      vertex -23.4422 34.125 9.53855
    endloop
  endfacet
  facet normal -0 0 -1
    outer loop
      vertex -23.4422 35.1562 9.53855
      vertex -28.1344 34.125 9.53855
      vertex -28.1344 35.1562 9.53855
    endloop
  endfacet
  facet normal -0 0 1
    outer loop
      vertex 23.4422 35.1562 4.84637
      vertex 28.1344 34.125 4.84637
      vertex 28.1344 35.1562 4.84637
    endloop
  endfacet
  facet normal 0 0 1
    outer loop
      vertex 28.1344 34.125 4.84637
      vertex 23.4422 35.1562 4.84637
      vertex 23.4422 34.125 4.84637
    endloop
  endfacet
  facet normal 0 -1 0
    outer loop
      vertex -32.8219 -35.1562 19.875
      vertex -4.6875 -35.1562 18.9136
      vertex 32.8219 -35.1562 19.875
    endloop
  endfacet
  facet normal 0 -1 0
    outer loop
      vertex -23.4422 -35.1562 9.53855
      vertex -32.8219 -35.1562 19.875
      vertex -28.1344 -35.1562 9.53855
    endloop
  endfacet
  facet normal 0 -1 0
    outer loop
      vertex -32.8219 -35.1562 0.158867
      vertex -28.1344 -35.1562 9.53855
      vertex -32.8219 -35.1562 19.875
    endloop
  endfacet
  facet normal 0 -1 0
    outer loop
      vertex -32.8219 -35.1562 0.158867
      vertex -23.4422 -35.1562 4.84637
      vertex -28.1344 -35.1562 4.84637
    endloop
  endfacet
  facet normal 0 -1 -0
    outer loop
      vertex -23.4422 -35.1562 4.84637
      vertex -32.8219 -35.1562 0.158867
      vertex 23.4422 -35.1562 4.84637
    endloop
  endfacet
  facet normal 0 -1 0
    outer loop
      vertex 32.8219 -35.1562 0.158867
      vertex 23.4422 -35.1562 4.84637
      vertex -32.8219 -35.1562 0.158867
    endloop
  endfacet
  facet normal 0 -1 -0
    outer loop
      vertex -28.1344 -35.1562 9.53855
      vertex -32.8219 -35.1562 0.158867
      vertex -28.1344 -35.1562 4.84637
    endloop
  endfacet
  facet normal 0 -1 0
    outer loop
      vertex 4.6875 -35.1562 18.9136
      vertex 32.8219 -35.1562 19.875
      vertex -4.6875 -35.1562 18.9136
    endloop
  endfacet
  facet normal 0 -1 0
    outer loop
      vertex 23.4422 -35.1562 9.53855
      vertex 4.6875 -35.1562 18.9136
      vertex 4.6875 -35.1562 9.53855
    endloop
  endfacet
  facet normal 0 -1 0
    outer loop
      vertex 4.6875 -35.1562 18.9136
      vertex 23.4422 -35.1562 9.53855
      vertex 32.8219 -35.1562 19.875
    endloop
  endfacet
  facet normal 0 -1 0
    outer loop
      vertex 28.1344 -35.1562 9.53855
      vertex 32.8219 -35.1562 19.875
      vertex 23.4422 -35.1562 9.53855
    endloop
  endfacet
  facet normal 0 -1 0
    outer loop
      vertex 32.8219 -35.1562 0.158867
      vertex 28.1344 -35.1562 9.53855
      vertex 28.1344 -35.1562 4.84637
    endloop
  endfacet
  facet normal 0 -1 0
    outer loop
      vertex 28.1344 -35.1562 9.53855
      vertex 32.8219 -35.1562 0.158867
      vertex 32.8219 -35.1562 19.875
    endloop
  endfacet
  facet normal 0 -1 0
    outer loop
      vertex 23.4422 -35.1562 4.84637
      vertex 32.8219 -35.1562 0.158867
      vertex 28.1344 -35.1562 4.84637
    endloop
  endfacet
  facet normal 0 -1 0
    outer loop
      vertex -32.8219 -35.1562 19.875
      vertex -23.4422 -35.1562 9.53855
      vertex -4.6875 -35.1562 18.9136
    endloop
  endfacet
  facet normal 0 -1 0
    outer loop
      vertex -23.4422 -35.1562 9.53855
      vertex -4.6875 -35.1562 9.53855
      vertex -4.6875 -35.1562 18.9136
    endloop
  endfacet
  facet normal 0 -1 0
    outer loop
      vertex -23.4422 -35.1562 4.84637
      vertex -4.6875 -35.1562 9.53855
      vertex -23.4422 -35.1562 9.53855
    endloop
  endfacet
  facet normal 0 -1 -0
    outer loop
      vertex -4.6875 -35.1562 9.53855
      vertex -23.4422 -35.1562 4.84637
      vertex 4.6875 -35.1562 9.53855
    endloop
  endfacet
  facet normal 0 -1 0
    outer loop
      vertex 23.4422 -35.1562 4.84637
      vertex 4.6875 -35.1562 9.53855
      vertex -23.4422 -35.1562 4.84637
    endloop
  endfacet
  facet normal 0 -1 0
    outer loop
      vertex 4.6875 -35.1562 9.53855
      vertex 23.4422 -35.1562 4.84637
      vertex 23.4422 -35.1562 9.53855
    endloop
  endfacet
  facet normal 0 0 -1
    outer loop
      vertex 23.4422 34.125 9.53855
      vertex 28.1344 35.1562 9.53855
      vertex 28.1344 34.125 9.53855
    endloop
  endfacet
  facet normal -0 0 -1
    outer loop
      vertex 28.1344 35.1562 9.53855
      vertex 23.4422 34.125 9.53855
      vertex 23.4422 35.1562 9.53855
    endloop
  endfacet
  facet normal 1 -0 0
    outer loop
      vertex -28.1344 34.125 9.53855
      vertex -28.1344 35.1562 4.84637
      vertex -28.1344 35.1562 9.53855
    endloop
  endfacet
  facet normal 1 0 0
    outer loop
      vertex -28.1344 35.1562 4.84637
      vertex -28.1344 34.125 9.53855
      vertex -28.1344 34.125 4.84637
    endloop
  endfacet
  facet normal 1 -0 0
    outer loop
      vertex 23.4422 34.125 9.53855
      vertex 23.4422 35.1562 4.84637
      vertex 23.4422 35.1562 9.53855
    endloop
  endfacet
  facet normal 1 0 0
    outer loop
      vertex 23.4422 35.1562 4.84637
      vertex 23.4422 34.125 9.53855
      vertex 23.4422 34.125 4.84637
    endloop
  endfacet
  facet normal 1 -0 0
    outer loop
      vertex -28.1344 -35.1562 9.53855
      vertex -28.1344 -34.125 4.84637
      vertex -28.1344 -34.125 9.53855
    endloop
  endfacet
  facet normal 1 0 0
    outer loop
      vertex -28.1344 -34.125 4.84637
      vertex -28.1344 -35.1562 9.53855
      vertex -28.1344 -35.1562 4.84637
    endloop
  endfacet
  facet normal 1 -0 0
    outer loop
      vertex 23.4422 -35.1562 9.53855
      vertex 23.4422 -34.125 4.84637
      vertex 23.4422 -34.125 9.53855
    endloop
  endfacet
  facet normal 1 0 0
    outer loop
      vertex 23.4422 -34.125 4.84637
      vertex 23.4422 -35.1562 9.53855
      vertex 23.4422 -35.1562 4.84637
    endloop
  endfacet
  facet normal 1 -0 0
    outer loop
      vertex -4.6875 34.125 18.9136
      vertex -4.6875 35.1562 9.53855
      vertex -4.6875 35.1562 18.9136
    endloop
  endfacet
  facet normal 1 0 0
    outer loop
      vertex -4.6875 35.1562 9.53855
      vertex -4.6875 34.125 18.9136
      vertex -4.6875 34.125 9.53855
    endloop
  endfacet
  facet normal -1 0 0
    outer loop
      vertex -32.8219 34.125 0.158867
      vertex -32.8219 35.1562 19.875
      vertex -32.8219 35.1562 0.158867
    endloop
  endfacet
  facet normal -1 -0 0
    outer loop
      vertex -32.8219 35.1562 19.875
      vertex -32.8219 34.125 0.158867
      vertex -32.8219 34.125 19.875
    endloop
  endfacet
  facet normal 0 0 -1
    outer loop
      vertex -4.6875 34.125 18.9136
      vertex 4.6875 35.1562 18.9136
      vertex 4.6875 34.125 18.9136
    endloop
  endfacet
  facet normal -0 0 -1
    outer loop
      vertex 4.6875 35.1562 18.9136
      vertex -4.6875 34.125 18.9136
      vertex -4.6875 35.1562 18.9136
    endloop
  endfacet
  facet normal 0 1 -0
    outer loop
      vertex -34.125 32.8219 0.158867
      vertex -35.1562 32.8219 19.875
      vertex -34.125 32.8219 19.875
    endloop
  endfacet
  facet normal 0 1 0
    outer loop
      vertex -35.1562 32.8219 19.875
      vertex -34.125 32.8219 0.158867
      vertex -35.1562 32.8219 0.158867
    endloop
  endfacet
  facet normal -0 0 1
    outer loop
      vertex -35.1562 4.6875 9.53855
      vertex -34.125 -4.6875 9.53855
      vertex -34.125 4.6875 9.53855
    endloop
  endfacet
  facet normal 0 0 1
    outer loop
      vertex -34.125 -4.6875 9.53855
      vertex -35.1562 4.6875 9.53855
      vertex -35.1562 -4.6875 9.53855
    endloop
  endfacet
  facet normal -1 0 0
    outer loop
      vertex 4.6875 34.125 9.53855
      vertex 4.6875 35.1562 18.9136
      vertex 4.6875 35.1562 9.53855
    endloop
  endfacet
  facet normal -1 -0 0
    outer loop
      vertex 4.6875 35.1562 18.9136
      vertex 4.6875 34.125 9.53855
      vertex 4.6875 34.125 18.9136
    endloop
  endfacet
  facet normal 0 -1 0
    outer loop
      vertex -35.1562 -32.8219 0.158867
      vertex -34.125 -32.8219 19.875
      vertex -35.1562 -32.8219 19.875
    endloop
  endfacet
  facet normal 0 -1 -0
    outer loop
      vertex -34.125 -32.8219 19.875
      vertex -35.1562 -32.8219 0.158867
      vertex -34.125 -32.8219 0.158867
    endloop
  endfacet
  facet normal 0 1 -0
    outer loop
      vertex -34.125 -28.1344 4.84637
      vertex -35.1562 -28.1344 9.53855
      vertex -34.125 -28.1344 9.53855
    endloop
  endfacet
  facet normal 0 1 0
    outer loop
      vertex -35.1562 -28.1344 9.53855
      vertex -34.125 -28.1344 4.84637
      vertex -35.1562 -28.1344 4.84637
    endloop
  endfacet
  facet normal -0 0 1
    outer loop
      vertex -35.1562 28.1344 4.84637
      vertex -34.125 23.4422 4.84637
      vertex -34.125 28.1344 4.84637
    endloop
  endfacet
  facet normal 0 0 1
    outer loop
      vertex -34.125 23.4422 4.84637
      vertex -35.1562 28.1344 4.84637
      vertex -35.1562 23.4422 4.84637
    endloop
  endfacet
  facet normal -0 0 1
    outer loop
      vertex -28.1344 -34.125 4.84637
      vertex -23.4422 -35.1562 4.84637
      vertex -23.4422 -34.125 4.84637
    endloop
  endfacet
  facet normal 0 0 1
    outer loop
      vertex -23.4422 -35.1562 4.84637
      vertex -28.1344 -34.125 4.84637
      vertex -28.1344 -35.1562 4.84637
    endloop
  endfacet
  facet normal 0 0 -1
    outer loop
      vertex -35.1562 23.4422 9.53855
      vertex -34.125 28.1344 9.53855
      vertex -34.125 23.4422 9.53855
    endloop
  endfacet
  facet normal -0 0 -1
    outer loop
      vertex -34.125 28.1344 9.53855
      vertex -35.1562 23.4422 9.53855
      vertex -35.1562 28.1344 9.53855
    endloop
  endfacet
  facet normal -0 0 1
    outer loop
      vertex 34.125 4.6875 9.53855
      vertex 35.1562 -4.6875 9.53855
      vertex 35.1562 4.6875 9.53855
    endloop
  endfacet
  facet normal 0 0 1
    outer loop
      vertex 35.1562 -4.6875 9.53855
      vertex 34.125 4.6875 9.53855
      vertex 34.125 -4.6875 9.53855
    endloop
  endfacet
  facet normal 0 0 -1
    outer loop
      vertex -28.1344 -35.1562 9.53855
      vertex -23.4422 -34.125 9.53855
      vertex -23.4422 -35.1562 9.53855
    endloop
  endfacet
  facet normal -0 0 -1
    outer loop
      vertex -23.4422 -34.125 9.53855
      vertex -28.1344 -35.1562 9.53855
      vertex -28.1344 -34.125 9.53855
    endloop
  endfacet
  facet normal 0 -1 0
    outer loop
      vertex 34.125 28.1344 4.84637
      vertex 35.1562 28.1344 9.53855
      vertex 34.125 28.1344 9.53855
    endloop
  endfacet
  facet normal 0 -1 -0
    outer loop
      vertex 35.1562 28.1344 9.53855
      vertex 34.125 28.1344 4.84637
      vertex 35.1562 28.1344 4.84637
    endloop
  endfacet
  facet normal 0 -1 0
    outer loop
      vertex -35.1562 28.1344 4.84637
      vertex -34.125 28.1344 9.53855
      vertex -35.1562 28.1344 9.53855
    endloop
  endfacet
  facet normal 0 -1 -0
    outer loop
      vertex -34.125 28.1344 9.53855
      vertex -35.1562 28.1344 4.84637
      vertex -34.125 28.1344 4.84637
    endloop
  endfacet
  facet normal 0 1 0
    outer loop
      vertex 32.8219 35.1562 19.875
      vertex 4.6875 35.1562 18.9136
      vertex -32.8219 35.1562 19.875
    endloop
  endfacet
  facet normal 0 1 0
    outer loop
      vertex 23.4422 35.1562 9.53855
      vertex 32.8219 35.1562 19.875
      vertex 28.1344 35.1562 9.53855
    endloop
  endfacet
  facet normal 0 1 -0
    outer loop
      vertex 32.8219 35.1562 0.158867
      vertex 28.1344 35.1562 9.53855
      vertex 32.8219 35.1562 19.875
    endloop
  endfacet
  facet normal 0 1 0
    outer loop
      vertex 32.8219 35.1562 0.158867
      vertex 23.4422 35.1562 4.84637
      vertex 28.1344 35.1562 4.84637
    endloop
  endfacet
  facet normal 0 1 0
    outer loop
      vertex 23.4422 35.1562 4.84637
      vertex 32.8219 35.1562 0.158867
      vertex -23.4422 35.1562 4.84637
    endloop
  endfacet
  facet normal 0 1 0
    outer loop
      vertex -32.8219 35.1562 0.158867
      vertex -23.4422 35.1562 4.84637
      vertex 32.8219 35.1562 0.158867
    endloop
  endfacet
  facet normal 0 1 0
    outer loop
      vertex 28.1344 35.1562 9.53855
      vertex 32.8219 35.1562 0.158867
      vertex 28.1344 35.1562 4.84637
    endloop
  endfacet
  facet normal 0 1 -0
    outer loop
      vertex -4.6875 35.1562 18.9136
      vertex -32.8219 35.1562 19.875
      vertex 4.6875 35.1562 18.9136
    endloop
  endfacet
  facet normal 0 1 0
    outer loop
      vertex -23.4422 35.1562 9.53855
      vertex -4.6875 35.1562 18.9136
      vertex -4.6875 35.1562 9.53855
    endloop
  endfacet
  facet normal 0 1 0
    outer loop
      vertex -4.6875 35.1562 18.9136
      vertex -23.4422 35.1562 9.53855
      vertex -32.8219 35.1562 19.875
    endloop
  endfacet
  facet normal 0 1 -0
    outer loop
      vertex -28.1344 35.1562 9.53855
      vertex -32.8219 35.1562 19.875
      vertex -23.4422 35.1562 9.53855
    endloop
  endfacet
  facet normal 0 1 0
    outer loop
      vertex -32.8219 35.1562 0.158867
      vertex -28.1344 35.1562 9.53855
      vertex -28.1344 35.1562 4.84637
    endloop
  endfacet
  facet normal 0 1 0
    outer loop
      vertex -28.1344 35.1562 9.53855
      vertex -32.8219 35.1562 0.158867
      vertex -32.8219 35.1562 19.875
    endloop
  endfacet
  facet normal 0 1 0
    outer loop
      vertex -23.4422 35.1562 4.84637
      vertex -32.8219 35.1562 0.158867
      vertex -28.1344 35.1562 4.84637
    endloop
  endfacet
  facet normal 0 1 0
    outer loop
      vertex 32.8219 35.1562 19.875
      vertex 23.4422 35.1562 9.53855
      vertex 4.6875 35.1562 18.9136
    endloop
  endfacet
  facet normal 0 1 0
    outer loop
      vertex 23.4422 35.1562 9.53855
      vertex 4.6875 35.1562 9.53855
      vertex 4.6875 35.1562 18.9136
    endloop
  endfacet
  facet normal 0 1 -0
    outer loop
      vertex 23.4422 35.1562 4.84637
      vertex 4.6875 35.1562 9.53855
      vertex 23.4422 35.1562 9.53855
    endloop
  endfacet
  facet normal 0 1 0
    outer loop
      vertex 4.6875 35.1562 9.53855
      vertex 23.4422 35.1562 4.84637
      vertex -4.6875 35.1562 9.53855
    endloop
  endfacet
  facet normal 0 1 0
    outer loop
      vertex -23.4422 35.1562 4.84637
      vertex -4.6875 35.1562 9.53855
      vertex 23.4422 35.1562 4.84637
    endloop
  endfacet
  facet normal 0 1 0
    outer loop
      vertex -4.6875 35.1562 9.53855
      vertex -23.4422 35.1562 4.84637
      vertex -23.4422 35.1562 9.53855
    endloop
  endfacet
  facet normal 0 1 -0
    outer loop
      vertex -34.125 23.4422 4.84637
      vertex -35.1562 23.4422 9.53855
      vertex -34.125 23.4422 9.53855
    endloop
  endfacet
  facet normal 0 1 0
    outer loop
      vertex -35.1562 23.4422 9.53855
      vertex -34.125 23.4422 4.84637
      vertex -35.1562 23.4422 4.84637
    endloop
  endfacet
  facet normal -0 0 1
    outer loop
      vertex -35.1562 -23.4422 4.84637
      vertex -34.125 -28.1344 4.84637
      vertex -34.125 -23.4422 4.84637
    endloop
  endfacet
  facet normal 0 0 1
    outer loop
      vertex -34.125 -28.1344 4.84637
      vertex -35.1562 -23.4422 4.84637
      vertex -35.1562 -28.1344 4.84637
    endloop
  endfacet
  facet normal -0 0 1
    outer loop
      vertex -4.6875 -34.125 9.53855
      vertex 4.6875 -35.1562 9.53855
      vertex 4.6875 -34.125 9.53855
    endloop
  endfacet
  facet normal 0 0 1
    outer loop
      vertex 4.6875 -35.1562 9.53855
      vertex -4.6875 -34.125 9.53855
      vertex -4.6875 -35.1562 9.53855
    endloop
  endfacet
  facet normal 0 0 -1
    outer loop
      vertex -35.1562 -28.1344 9.53855
      vertex -34.125 -23.4422 9.53855
      vertex -34.125 -28.1344 9.53855
    endloop
  endfacet
  facet normal -0 0 -1
    outer loop
      vertex -34.125 -23.4422 9.53855
      vertex -35.1562 -28.1344 9.53855
      vertex -35.1562 -23.4422 9.53855
    endloop
  endfacet
  facet normal -1 0 0
    outer loop
      vertex 28.1344 34.125 4.84637
      vertex 28.1344 35.1562 9.53855
      vertex 28.1344 35.1562 4.84637
    endloop
  endfacet
  facet normal -1 -0 0
    outer loop
      vertex 28.1344 35.1562 9.53855
      vertex 28.1344 34.125 4.84637
      vertex 28.1344 34.125 9.53855
    endloop
  endfacet
  facet normal 0 -1 0
    outer loop
      vertex -35.1562 -23.4422 4.84637
      vertex -34.125 -23.4422 9.53855
      vertex -35.1562 -23.4422 9.53855
    endloop
  endfacet
  facet normal 0 -1 -0
    outer loop
      vertex -34.125 -23.4422 9.53855
      vertex -35.1562 -23.4422 4.84637
      vertex -34.125 -23.4422 4.84637
    endloop
  endfacet
  facet normal -0 0 1
    outer loop
      vertex -4.6875 35.1562 9.53855
      vertex 4.6875 34.125 9.53855
      vertex 4.6875 35.1562 9.53855
    endloop
  endfacet
  facet normal 0 0 1
    outer loop
      vertex 4.6875 34.125 9.53855
      vertex -4.6875 35.1562 9.53855
      vertex -4.6875 34.125 9.53855
    endloop
  endfacet
  facet normal -1 0 0
    outer loop
      vertex 28.1344 -35.1562 4.84637
      vertex 28.1344 -34.125 9.53855
      vertex 28.1344 -34.125 4.84637
    endloop
  endfacet
  facet normal -1 -0 0
    outer loop
      vertex 28.1344 -34.125 9.53855
      vertex 28.1344 -35.1562 4.84637
      vertex 28.1344 -35.1562 9.53855
    endloop
  endfacet
  facet normal 0 1 -0
    outer loop
      vertex 35.1562 32.8219 0.158867
      vertex 34.125 32.8219 19.875
      vertex 35.1562 32.8219 19.875
    endloop
  endfacet
  facet normal 0 1 0
    outer loop
      vertex 34.125 32.8219 19.875
      vertex 35.1562 32.8219 0.158867
      vertex 34.125 32.8219 0.158867
    endloop
  endfacet
  facet normal 0 -1 0
    outer loop
      vertex 34.125 -32.8219 0.158867
      vertex 35.1562 -32.8219 19.875
      vertex 34.125 -32.8219 19.875
    endloop
  endfacet
  facet normal 0 -1 -0
    outer loop
      vertex 35.1562 -32.8219 19.875
      vertex 34.125 -32.8219 0.158867
      vertex 35.1562 -32.8219 0.158867
    endloop
  endfacet
  facet normal -0 0 1
    outer loop
      vertex 34.125 -23.4422 4.84637
      vertex 35.1562 -28.1344 4.84637
      vertex 35.1562 -23.4422 4.84637
    endloop
  endfacet
  facet normal 0 0 1
    outer loop
      vertex 35.1562 -28.1344 4.84637
      vertex 34.125 -23.4422 4.84637
      vertex 34.125 -28.1344 4.84637
    endloop
  endfacet
  facet normal 0 0 -1
    outer loop
      vertex 34.125 -28.1344 9.53855
      vertex 35.1562 -23.4422 9.53855
      vertex 35.1562 -28.1344 9.53855
    endloop
  endfacet
  facet normal -0 0 -1
    outer loop
      vertex 35.1562 -23.4422 9.53855
      vertex 34.125 -28.1344 9.53855
      vertex 34.125 -23.4422 9.53855
    endloop
  endfacet
  facet normal 1 -0 0
    outer loop
      vertex 32.8219 34.125 19.875
      vertex 32.8219 35.1562 0.158867
      vertex 32.8219 35.1562 19.875
    endloop
  endfacet
  facet normal 1 0 0
    outer loop
      vertex 32.8219 35.1562 0.158867
      vertex 32.8219 34.125 19.875
      vertex 32.8219 34.125 0.158867
    endloop
  endfacet
  facet normal -1 0 0
    outer loop
      vertex -32.8219 -35.1562 0.158867
      vertex -32.8219 -34.125 19.875
      vertex -32.8219 -34.125 0.158867
    endloop
  endfacet
  facet normal -1 -0 0
    outer loop
      vertex -32.8219 -34.125 19.875
      vertex -32.8219 -35.1562 0.158867
      vertex -32.8219 -35.1562 19.875
    endloop
  endfacet
  facet normal 0 1 -0
    outer loop
      vertex 35.1562 -28.1344 4.84637
      vertex 34.125 -28.1344 9.53855
      vertex 35.1562 -28.1344 9.53855
    endloop
  endfacet
  facet normal 0 1 0
    outer loop
      vertex 34.125 -28.1344 9.53855
      vertex 35.1562 -28.1344 4.84637
      vertex 34.125 -28.1344 4.84637
    endloop
  endfacet
  facet normal 0 1 -0
    outer loop
      vertex -34.125 -4.6875 9.53855
      vertex -35.1562 -4.6875 18.9136
      vertex -34.125 -4.6875 18.9136
    endloop
  endfacet
  facet normal 0 1 0
    outer loop
      vertex -35.1562 -4.6875 18.9136
      vertex -34.125 -4.6875 9.53855
      vertex -35.1562 -4.6875 9.53855
    endloop
  endfacet
  facet normal 0 -1 0
    outer loop
      vertex 34.125 -23.4422 4.84637
      vertex 35.1562 -23.4422 9.53855
      vertex 34.125 -23.4422 9.53855
    endloop
  endfacet
  facet normal 0 -1 -0
    outer loop
      vertex 35.1562 -23.4422 9.53855
      vertex 34.125 -23.4422 4.84637
      vertex 35.1562 -23.4422 4.84637
    endloop
  endfacet
  facet normal -0 0 1
    outer loop
      vertex 34.125 28.1344 4.84637
      vertex 35.1562 23.4422 4.84637
      vertex 35.1562 28.1344 4.84637
    endloop
  endfacet
  facet normal 0 0 1
    outer loop
      vertex 35.1562 23.4422 4.84637
      vertex 34.125 28.1344 4.84637
      vertex 34.125 23.4422 4.84637
    endloop
  endfacet
  facet normal -1 0 0
    outer loop
      vertex -35.1562 28.1344 9.53855
      vertex -35.1562 32.8219 0.158867
      vertex -35.1562 28.1344 4.84637
    endloop
  endfacet
  facet normal -1 0 0
    outer loop
      vertex -35.1562 32.8219 0.158867
      vertex -35.1562 23.4422 4.84637
      vertex -35.1562 28.1344 4.84637
    endloop
  endfacet
  facet normal -1 0 0
    outer loop
      vertex -35.1562 23.4422 4.84637
      vertex -35.1562 4.6875 9.53855
      vertex -35.1562 23.4422 9.53855
    endloop
  endfacet
  facet normal -1 0 0
    outer loop
      vertex -35.1562 -23.4422 4.84637
      vertex -35.1562 23.4422 4.84637
      vertex -35.1562 32.8219 0.158867
    endloop
  endfacet
  facet normal -1 0 0
    outer loop
      vertex -35.1562 23.4422 4.84637
      vertex -35.1562 -4.6875 9.53855
      vertex -35.1562 4.6875 9.53855
    endloop
  endfacet
  facet normal -1 0 0
    outer loop
      vertex -35.1562 -23.4422 9.53855
      vertex -35.1562 -4.6875 9.53855
      vertex -35.1562 -23.4422 4.84637
    endloop
  endfacet
  facet normal -1 0 0
    outer loop
      vertex -35.1562 23.4422 4.84637
      vertex -35.1562 -23.4422 4.84637
      vertex -35.1562 -4.6875 9.53855
    endloop
  endfacet
  facet normal -1 0 0
    outer loop
      vertex -35.1562 -32.8219 0.158867
      vertex -35.1562 -23.4422 4.84637
      vertex -35.1562 32.8219 0.158867
    endloop
  endfacet
  facet normal -1 -0 0
    outer loop
      vertex -35.1562 -28.1344 4.84637
      vertex -35.1562 -32.8219 0.158867
      vertex -35.1562 -28.1344 9.53855
    endloop
  endfacet
  facet normal -1 -0 0
    outer loop
      vertex -35.1562 -23.4422 4.84637
      vertex -35.1562 -32.8219 0.158867
      vertex -35.1562 -28.1344 4.84637
    endloop
  endfacet
  facet normal -1 0 0
    outer loop
      vertex -35.1562 32.8219 0.158867
      vertex -35.1562 28.1344 9.53855
      vertex -35.1562 32.8219 19.875
    endloop
  endfacet
  facet normal -1 0 0
    outer loop
      vertex -35.1562 23.4422 9.53855
      vertex -35.1562 32.8219 19.875
      vertex -35.1562 28.1344 9.53855
    endloop
  endfacet
  facet normal -1 0 0
    outer loop
      vertex -35.1562 4.6875 18.9136
      vertex -35.1562 23.4422 9.53855
      vertex -35.1562 4.6875 9.53855
    endloop
  endfacet
  facet normal -1 0 0
    outer loop
      vertex -35.1562 23.4422 9.53855
      vertex -35.1562 4.6875 18.9136
      vertex -35.1562 32.8219 19.875
    endloop
  endfacet
  facet normal -1 0 0
    outer loop
      vertex -35.1562 -4.6875 18.9136
      vertex -35.1562 32.8219 19.875
      vertex -35.1562 4.6875 18.9136
    endloop
  endfacet
  facet normal -1 0 0
    outer loop
      vertex -35.1562 -4.6875 9.53855
      vertex -35.1562 -23.4422 9.53855
      vertex -35.1562 -4.6875 18.9136
    endloop
  endfacet
  facet normal -1 0 0
    outer loop
      vertex -35.1562 -32.8219 19.875
      vertex -35.1562 -23.4422 9.53855
      vertex -35.1562 -28.1344 9.53855
    endloop
  endfacet
  facet normal -1 0 0
    outer loop
      vertex -35.1562 -4.6875 18.9136
      vertex -35.1562 -32.8219 19.875
      vertex -35.1562 32.8219 19.875
    endloop
  endfacet
  facet normal -1 0 0
    outer loop
      vertex -35.1562 -23.4422 9.53855
      vertex -35.1562 -32.8219 19.875
      vertex -35.1562 -4.6875 18.9136
    endloop
  endfacet
  facet normal -1 0 0
    outer loop
      vertex -35.1562 -32.8219 19.875
      vertex -35.1562 -28.1344 9.53855
      vertex -35.1562 -32.8219 0.158867
    endloop
  endfacet
  facet normal 0 0 -1
    outer loop
      vertex 34.125 23.4422 9.53855
      vertex 35.1562 28.1344 9.53855
      vertex 35.1562 23.4422 9.53855
    endloop
  endfacet
  facet normal -0 0 -1
    outer loop
      vertex 35.1562 28.1344 9.53855
      vertex 34.125 23.4422 9.53855
      vertex 34.125 28.1344 9.53855
    endloop
  endfacet
  facet normal 0 0 -1
    outer loop
      vertex -35.1562 -4.6875 18.9136
      vertex -34.125 4.6875 18.9136
      vertex -34.125 -4.6875 18.9136
    endloop
  endfacet
  facet normal -0 0 -1
    outer loop
      vertex -34.125 4.6875 18.9136
      vertex -35.1562 -4.6875 18.9136
      vertex -35.1562 4.6875 18.9136
    endloop
  endfacet
  facet normal 1 -0 0
    outer loop
      vertex 32.8219 -35.1562 19.875
      vertex 32.8219 -34.125 0.158867
      vertex 32.8219 -34.125 19.875
    endloop
  endfacet
  facet normal 1 0 0
    outer loop
      vertex 32.8219 -34.125 0.158867
      vertex 32.8219 -35.1562 19.875
      vertex 32.8219 -35.1562 0.158867
    endloop
  endfacet
  facet normal 0 1 -0
    outer loop
      vertex 35.1562 23.4422 4.84637
      vertex 34.125 23.4422 9.53855
      vertex 35.1562 23.4422 9.53855
    endloop
  endfacet
  facet normal 0 1 0
    outer loop
      vertex 34.125 23.4422 9.53855
      vertex 35.1562 23.4422 4.84637
      vertex 34.125 23.4422 4.84637
    endloop
  endfacet
  facet normal 0 -1 0
    outer loop
      vertex -35.1562 4.6875 9.53855
      vertex -34.125 4.6875 18.9136
      vertex -35.1562 4.6875 18.9136
    endloop
  endfacet
  facet normal 0 -1 -0
    outer loop
      vertex -34.125 4.6875 18.9136
      vertex -35.1562 4.6875 9.53855
      vertex -34.125 4.6875 9.53855
    endloop
  endfacet
  facet normal 0 -1 0
    outer loop
      vertex 34.125 4.6875 9.53855
      vertex 35.1562 4.6875 18.9136
      vertex 34.125 4.6875 18.9136
    endloop
  endfacet
  facet normal 0 -1 -0
    outer loop
      vertex 35.1562 4.6875 18.9136
      vertex 34.125 4.6875 9.53855
      vertex 35.1562 4.6875 9.53855
    endloop
  endfacet
  facet normal 0 0 -1
    outer loop
      vertex 34.125 -4.6875 18.9136
      vertex 35.1562 4.6875 18.9136
      vertex 35.1562 -4.6875 18.9136
    endloop
  endfacet
  facet normal -0 0 -1
    outer loop
      vertex 35.1562 4.6875 18.9136
      vertex 34.125 -4.6875 18.9136
      vertex 34.125 4.6875 18.9136
    endloop
  endfacet
  facet normal 0 1 -0
    outer loop
      vertex 35.1562 -4.6875 9.53855
      vertex 34.125 -4.6875 18.9136
      vertex 35.1562 -4.6875 18.9136
    endloop
  endfacet
  facet normal 0 1 0
    outer loop
      vertex 34.125 -4.6875 18.9136
      vertex 35.1562 -4.6875 9.53855
      vertex 34.125 -4.6875 9.53855
    endloop
  endfacet
  facet normal -1 0 0
    outer loop
      vertex -23.4422 34.125 4.84637
      vertex -23.4422 35.1562 9.53855
      vertex -23.4422 35.1562 4.84637
    endloop
  endfacet
  facet normal -1 -0 0
    outer loop
      vertex -23.4422 35.1562 9.53855
      vertex -23.4422 34.125 4.84637
      vertex -23.4422 34.125 9.53855
    endloop
  endfacet
  facet normal -1 0 0
    outer loop
      vertex 4.6875 -35.1562 9.53855
      vertex 4.6875 -34.125 18.9136
      vertex 4.6875 -34.125 9.53855
    endloop
  endfacet
  facet normal -1 -0 0
    outer loop
      vertex 4.6875 -34.125 18.9136
      vertex 4.6875 -35.1562 9.53855
      vertex 4.6875 -35.1562 18.9136
    endloop
  endfacet
  facet normal 0 0 -1
    outer loop
      vertex -4.6875 -35.1562 18.9136
      vertex 4.6875 -34.125 18.9136
      vertex 4.6875 -35.1562 18.9136
    endloop
  endfacet
  facet normal -0 0 -1
    outer loop
      vertex 4.6875 -34.125 18.9136
      vertex -4.6875 -35.1562 18.9136
      vertex -4.6875 -34.125 18.9136
    endloop
  endfacet
  facet normal -1 0 0
    outer loop
      vertex -23.4422 -35.1562 4.84637
      vertex -23.4422 -34.125 9.53855
      vertex -23.4422 -34.125 4.84637
    endloop
  endfacet
  facet normal -1 -0 0
    outer loop
      vertex -23.4422 -34.125 9.53855
      vertex -23.4422 -35.1562 4.84637
      vertex -23.4422 -35.1562 9.53855
    endloop
  endfacet
  facet normal 1 -0 0
    outer loop
      vertex -4.6875 -35.1562 18.9136
      vertex -4.6875 -34.125 9.53855
      vertex -4.6875 -34.125 18.9136
    endloop
  endfacet
  facet normal 1 0 0
    outer loop
      vertex -4.6875 -34.125 9.53855
      vertex -4.6875 -35.1562 18.9136
      vertex -4.6875 -35.1562 9.53855
    endloop
  endfacet
  facet normal 0 0 -1
    outer loop
      vertex 34.125 -32.8219 0.158867
      vertex 35.1562 32.8219 0.158867
      vertex 35.1562 -32.8219 0.158867
    endloop
  endfacet
  facet normal -0 0 -1
    outer loop
      vertex 35.1562 32.8219 0.158867
      vertex 34.125 -32.8219 0.158867
      vertex 34.125 32.8219 0.158867
    endloop
  endfacet
  facet normal 0 0 -1
    outer loop
      vertex -32.8219 -35.1562 0.158867
      vertex 32.8219 -34.125 0.158867
      vertex 32.8219 -35.1562 0.158867
    endloop
  endfacet
  facet normal -0 0 -1
    outer loop
      vertex 32.8219 -34.125 0.158867
      vertex -32.8219 -35.1562 0.158867
      vertex -32.8219 -34.125 0.158867
    endloop
  endfacet
  facet normal 0 0 -1
    outer loop
      vertex -32.8219 34.125 0.158867
      vertex 32.8219 35.1562 0.158867
      vertex 32.8219 34.125 0.158867
    endloop
  endfacet
  facet normal -0 0 -1
    outer loop
      vertex 32.8219 35.1562 0.158867
      vertex -32.8219 34.125 0.158867
      vertex -32.8219 35.1562 0.158867
    endloop
  endfacet
  facet normal 0 0 -1
    outer loop
      vertex -35.1562 -32.8219 0.158867
      vertex -34.125 32.8219 0.158867
      vertex -34.125 -32.8219 0.158867
    endloop
  endfacet
  facet normal -0 0 -1
    outer loop
      vertex -34.125 32.8219 0.158867
      vertex -35.1562 -32.8219 0.158867
      vertex -35.1562 32.8219 0.158867
    endloop
  endfacet
  facet normal 1 0 0
    outer loop
      vertex 34.125 -32.8219 19.875
      vertex 34.125 -34.125 19.875
      vertex 34.125 -32.8219 0.158867
    endloop
  endfacet
  facet normal 1 0 0
    outer loop
      vertex 34.125 32.8219 0.158867
      vertex 34.125 34.125 19.875
      vertex 34.125 32.8219 19.875
    endloop
  endfacet
  facet normal 1 0 0
    outer loop
      vertex 34.125 34.125 19.875
      vertex 34.125 32.8219 0.158867
      vertex 34.125 34.125 0.125702
    endloop
  endfacet
  facet normal 1 -0 0
    outer loop
      vertex 34.125 -32.8219 0.158867
      vertex 34.125 34.125 0.125702
      vertex 34.125 32.8219 0.158867
    endloop
  endfacet
  facet normal 1 0 0
    outer loop
      vertex 34.125 -32.8219 0.158867
      vertex 34.125 -34.125 0.125702
      vertex 34.125 34.125 0.125702
    endloop
  endfacet
  facet normal 1 0 0
    outer loop
      vertex 34.125 -34.125 0.125702
      vertex 34.125 -32.8219 0.158867
      vertex 34.125 -34.125 19.875
    endloop
  endfacet
  facet normal 1 -0 0
    outer loop
      vertex 34.125 -28.1344 9.53855
      vertex 34.125 -23.4422 4.84637
      vertex 34.125 -23.4422 9.53855
    endloop
  endfacet
  facet normal 1 0 0
    outer loop
      vertex 34.125 -23.4422 4.84637
      vertex 34.125 -28.1344 9.53855
      vertex 34.125 -28.1344 4.84637
    endloop
  endfacet
  facet normal 1 -0 0
    outer loop
      vertex 34.125 23.4422 9.53855
      vertex 34.125 28.1344 4.84637
      vertex 34.125 28.1344 9.53855
    endloop
  endfacet
  facet normal 1 0 0
    outer loop
      vertex 34.125 28.1344 4.84637
      vertex 34.125 23.4422 9.53855
      vertex 34.125 23.4422 4.84637
    endloop
  endfacet
  facet normal 1 -0 0
    outer loop
      vertex 34.125 -4.6875 18.9136
      vertex 34.125 4.6875 9.53855
      vertex 34.125 4.6875 18.9136
    endloop
  endfacet
  facet normal 1 0 0
    outer loop
      vertex 34.125 4.6875 9.53855
      vertex 34.125 -4.6875 18.9136
      vertex 34.125 -4.6875 9.53855
    endloop
  endfacet
  facet normal 0 0 -1
    outer loop
      vertex -34.125 -34.125 0.125702
      vertex 34.125 34.125 0.125702
      vertex 34.125 -34.125 0.125702
    endloop
  endfacet
  facet normal -0 0 -1
    outer loop
      vertex 34.125 34.125 0.125702
      vertex -34.125 -34.125 0.125702
      vertex -34.125 34.125 0.125702
    endloop
  endfacet
  facet normal -1 0 0
    outer loop
      vertex -34.125 34.125 0.125702
      vertex -34.125 32.8219 0.158867
      vertex -34.125 34.125 19.875
    endloop
  endfacet
  facet normal -1 0 0
    outer loop
      vertex -34.125 34.125 0.125702
      vertex -34.125 -32.8219 0.158867
      vertex -34.125 32.8219 0.158867
    endloop
  endfacet
  facet normal -1 0 0
    outer loop
      vertex -34.125 -34.125 0.125702
      vertex -34.125 -32.8219 0.158867
      vertex -34.125 34.125 0.125702
    endloop
  endfacet
  facet normal -1 0 0
    outer loop
      vertex -34.125 -34.125 19.875
      vertex -34.125 -32.8219 0.158867
      vertex -34.125 -34.125 0.125702
    endloop
  endfacet
  facet normal -1 0 0
    outer loop
      vertex -34.125 -32.8219 0.158867
      vertex -34.125 -34.125 19.875
      vertex -34.125 -32.8219 19.875
    endloop
  endfacet
  facet normal -1 -0 0
    outer loop
      vertex -34.125 34.125 19.875
      vertex -34.125 32.8219 0.158867
      vertex -34.125 32.8219 19.875
    endloop
  endfacet
  facet normal -1 0 0
    outer loop
      vertex -34.125 23.4422 4.84637
      vertex -34.125 28.1344 9.53855
      vertex -34.125 28.1344 4.84637
    endloop
  endfacet
  facet normal -1 -0 0
    outer loop
      vertex -34.125 28.1344 9.53855
      vertex -34.125 23.4422 4.84637
      vertex -34.125 23.4422 9.53855
    endloop
  endfacet
  facet normal -1 0 0
    outer loop
      vertex -34.125 -28.1344 4.84637
      vertex -34.125 -23.4422 9.53855
      vertex -34.125 -23.4422 4.84637
    endloop
  endfacet
  facet normal -1 -0 0
    outer loop
      vertex -34.125 -23.4422 9.53855
      vertex -34.125 -28.1344 4.84637
      vertex -34.125 -28.1344 9.53855
    endloop
  endfacet
  facet normal -1 0 0
    outer loop
      vertex -34.125 -4.6875 9.53855
      vertex -34.125 4.6875 18.9136
      vertex -34.125 4.6875 9.53855
    endloop
  endfacet
  facet normal -1 -0 0
    outer loop
      vertex -34.125 4.6875 18.9136
      vertex -34.125 -4.6875 9.53855
      vertex -34.125 -4.6875 18.9136
    endloop
  endfacet
  facet normal 0 1 0
    outer loop
      vertex 34.125 34.125 19.875
      vertex 32.8219 34.125 0.158867
      vertex 32.8219 34.125 19.875
    endloop
  endfacet
  facet normal 0 1 0
    outer loop
      vertex 32.8219 34.125 0.158867
      vertex 34.125 34.125 0.125702
      vertex -32.8219 34.125 0.158867
    endloop
  endfacet
  facet normal 0 1 -0
    outer loop
      vertex 34.125 34.125 0.125702
      vertex 32.8219 34.125 0.158867
      vertex 34.125 34.125 19.875
    endloop
  endfacet
  facet normal 0 1 -0
    outer loop
      vertex -32.8219 34.125 0.158867
      vertex -34.125 34.125 19.875
      vertex -32.8219 34.125 19.875
    endloop
  endfacet
  facet normal 0 1 0
    outer loop
      vertex -32.8219 34.125 0.158867
      vertex -34.125 34.125 0.125702
      vertex -34.125 34.125 19.875
    endloop
  endfacet
  facet normal 0 1 0
    outer loop
      vertex -34.125 34.125 0.125702
      vertex -32.8219 34.125 0.158867
      vertex 34.125 34.125 0.125702
    endloop
  endfacet
  facet normal 0 1 -0
    outer loop
      vertex -23.4422 34.125 4.84637
      vertex -28.1344 34.125 9.53855
      vertex -23.4422 34.125 9.53855
    endloop
  endfacet
  facet normal 0 1 0
    outer loop
      vertex -28.1344 34.125 9.53855
      vertex -23.4422 34.125 4.84637
      vertex -28.1344 34.125 4.84637
    endloop
  endfacet
  facet normal 0 1 -0
    outer loop
      vertex 4.6875 34.125 9.53855
      vertex -4.6875 34.125 18.9136
      vertex 4.6875 34.125 18.9136
    endloop
  endfacet
  facet normal 0 1 0
    outer loop
      vertex -4.6875 34.125 18.9136
      vertex 4.6875 34.125 9.53855
      vertex -4.6875 34.125 9.53855
    endloop
  endfacet
  facet normal 0 1 -0
    outer loop
      vertex 28.1344 34.125 4.84637
      vertex 23.4422 34.125 9.53855
      vertex 28.1344 34.125 9.53855
    endloop
  endfacet
  facet normal 0 1 0
    outer loop
      vertex 23.4422 34.125 9.53855
      vertex 28.1344 34.125 4.84637
      vertex 23.4422 34.125 4.84637
    endloop
  endfacet
  facet normal 0 -1 0
    outer loop
      vertex -34.125 -34.125 19.875
      vertex -32.8219 -34.125 0.158867
      vertex -32.8219 -34.125 19.875
    endloop
  endfacet
  facet normal 0 -1 -0
    outer loop
      vertex -32.8219 -34.125 0.158867
      vertex -34.125 -34.125 0.125702
      vertex 32.8219 -34.125 0.158867
    endloop
  endfacet
  facet normal 0 -1 0
    outer loop
      vertex -34.125 -34.125 0.125702
      vertex -32.8219 -34.125 0.158867
      vertex -34.125 -34.125 19.875
    endloop
  endfacet
  facet normal 0 -1 0
    outer loop
      vertex 32.8219 -34.125 0.158867
      vertex 34.125 -34.125 19.875
      vertex 32.8219 -34.125 19.875
    endloop
  endfacet
  facet normal 0 -1 0
    outer loop
      vertex 32.8219 -34.125 0.158867
      vertex 34.125 -34.125 0.125702
      vertex 34.125 -34.125 19.875
    endloop
  endfacet
  facet normal 0 -1 0
    outer loop
      vertex 34.125 -34.125 0.125702
      vertex 32.8219 -34.125 0.158867
      vertex -34.125 -34.125 0.125702
    endloop
  endfacet
  facet normal 0 -1 0
    outer loop
      vertex -28.1344 -34.125 4.84637
      vertex -23.4422 -34.125 9.53855
      vertex -28.1344 -34.125 9.53855
    endloop
  endfacet
  facet normal 0 -1 -0
    outer loop
      vertex -23.4422 -34.125 9.53855
      vertex -28.1344 -34.125 4.84637
      vertex -23.4422 -34.125 4.84637
    endloop
  endfacet
  facet normal 0 -1 0
    outer loop
      vertex -4.6875 -34.125 9.53855
      vertex 4.6875 -34.125 18.9136
      vertex -4.6875 -34.125 18.9136
    endloop
  endfacet
  facet normal 0 -1 -0
    outer loop
      vertex 4.6875 -34.125 18.9136
      vertex -4.6875 -34.125 9.53855
      vertex 4.6875 -34.125 9.53855
    endloop
  endfacet
  facet normal 0 -1 0
    outer loop
      vertex 23.4422 -34.125 4.84637
      vertex 28.1344 -34.125 9.53855
      vertex 23.4422 -34.125 9.53855
    endloop
  endfacet
  facet normal 0 -1 -0
    outer loop
      vertex 28.1344 -34.125 9.53855
      vertex 23.4422 -34.125 4.84637
      vertex 28.1344 -34.125 4.84637
    endloop
  endfacet
  facet normal -1 0 0
    outer loop
      vertex 33.375 -33.375 2
      vertex 33.375 33.375 19.875
      vertex 33.375 33.375 2
    endloop
  endfacet
  facet normal -1 -0 0
    outer loop
      vertex 33.375 33.375 19.875
      vertex 33.375 -33.375 2
      vertex 33.375 -33.375 19.875
    endloop
  endfacet
  facet normal -0 0 1
    outer loop
      vertex -33.375 33.375 2
      vertex 33.375 -33.375 2
      vertex 33.375 33.375 2
    endloop
  endfacet
  facet normal 0 0 1
    outer loop
      vertex 33.375 -33.375 2
      vertex -33.375 33.375 2
      vertex -33.375 -33.375 2
    endloop
  endfacet
  facet normal 1 -0 0
    outer loop
      vertex -33.375 -33.375 19.875
      vertex -33.375 33.375 2
      vertex -33.375 33.375 19.875
    endloop
  endfacet
  facet normal 1 0 0
    outer loop
      vertex -33.375 33.375 2
      vertex -33.375 -33.375 19.875
      vertex -33.375 -33.375 2
    endloop
  endfacet
  facet normal 0 -1 0
    outer loop
      vertex -33.375 33.375 2
      vertex 33.375 33.375 19.875
      vertex -33.375 33.375 19.875
    endloop
  endfacet
  facet normal 0 -1 -0
    outer loop
      vertex 33.375 33.375 19.875
      vertex -33.375 33.375 2
      vertex 33.375 33.375 2
    endloop
  endfacet
  facet normal 0 1 -0
    outer loop
      vertex 33.375 -33.375 2
      vertex -33.375 -33.375 19.875
      vertex 33.375 -33.375 19.875
    endloop
  endfacet
  facet normal 0 1 0
    outer loop
      vertex -33.375 -33.375 19.875
      vertex 33.375 -33.375 2
      vertex -33.375 -33.375 2
    endloop
  endfacet
  facet normal 0 0 1
    outer loop
      vertex 32.8219 35.1562 19.875
      vertex -32.8219 35.1562 19.875
      vertex 32.8219 34.125 19.875
    endloop
  endfacet
  facet normal -0 0 1
    outer loop
      vertex 33.375 33.375 19.875
      vertex 34.125 32.8219 19.875
      vertex 34.125 34.125 19.875
    endloop
  endfacet
  facet normal 0 0 1
    outer loop
      vertex 34.125 32.8219 19.875
      vertex 33.375 33.375 19.875
      vertex 34.125 -32.8219 19.875
    endloop
  endfacet
  facet normal 0 0 1
    outer loop
      vertex 33.375 -33.375 19.875
      vertex 34.125 -32.8219 19.875
      vertex 33.375 33.375 19.875
    endloop
  endfacet
  facet normal -0 0 1
    outer loop
      vertex 32.8219 34.125 19.875
      vertex 33.375 33.375 19.875
      vertex 34.125 34.125 19.875
    endloop
  endfacet
  facet normal 0 0 1
    outer loop
      vertex -32.8219 34.125 19.875
      vertex 32.8219 34.125 19.875
      vertex -32.8219 35.1562 19.875
    endloop
  endfacet
  facet normal 0 0 1
    outer loop
      vertex 32.8219 34.125 19.875
      vertex -32.8219 34.125 19.875
      vertex 33.375 33.375 19.875
    endloop
  endfacet
  facet normal 0 0 1
    outer loop
      vertex -32.8219 34.125 19.875
      vertex -33.375 33.375 19.875
      vertex 33.375 33.375 19.875
    endloop
  endfacet
  facet normal 0 0 1
    outer loop
      vertex -34.125 32.8219 19.875
      vertex -33.375 33.375 19.875
      vertex -34.125 34.125 19.875
    endloop
  endfacet
  facet normal -0 0 1
    outer loop
      vertex -34.125 34.125 19.875
      vertex -33.375 33.375 19.875
      vertex -32.8219 34.125 19.875
    endloop
  endfacet
  facet normal -0 0 1
    outer loop
      vertex 34.125 32.8219 19.875
      vertex 35.1562 -32.8219 19.875
      vertex 35.1562 32.8219 19.875
    endloop
  endfacet
  facet normal 0 0 1
    outer loop
      vertex 35.1562 -32.8219 19.875
      vertex 34.125 32.8219 19.875
      vertex 34.125 -32.8219 19.875
    endloop
  endfacet
  facet normal 0 0 1
    outer loop
      vertex 34.125 -32.8219 19.875
      vertex 33.375 -33.375 19.875
      vertex 34.125 -34.125 19.875
    endloop
  endfacet
  facet normal 0 0 1
    outer loop
      vertex 33.375 -33.375 19.875
      vertex 32.8219 -34.125 19.875
      vertex 34.125 -34.125 19.875
    endloop
  endfacet
  facet normal 0 0 1
    outer loop
      vertex 32.8219 -34.125 19.875
      vertex -32.8219 -34.125 19.875
      vertex 32.8219 -35.1562 19.875
    endloop
  endfacet
  facet normal 0 0 1
    outer loop
      vertex 33.375 -33.375 19.875
      vertex -32.8219 -34.125 19.875
      vertex 32.8219 -34.125 19.875
    endloop
  endfacet
  facet normal -0 0 1
    outer loop
      vertex -33.375 -33.375 19.875
      vertex -32.8219 -34.125 19.875
      vertex 33.375 -33.375 19.875
    endloop
  endfacet
  facet normal 0 0 1
    outer loop
      vertex -33.375 33.375 19.875
      vertex -34.125 32.8219 19.875
      vertex -33.375 -33.375 19.875
    endloop
  endfacet
  facet normal -0 0 1
    outer loop
      vertex -34.125 -32.8219 19.875
      vertex -33.375 -33.375 19.875
      vertex -34.125 32.8219 19.875
    endloop
  endfacet
  facet normal 0 0 1
    outer loop
      vertex -34.125 -34.125 19.875
      vertex -33.375 -33.375 19.875
      vertex -34.125 -32.8219 19.875
    endloop
  endfacet
  facet normal 0 0 1
    outer loop
      vertex -33.375 -33.375 19.875
      vertex -34.125 -34.125 19.875
      vertex -32.8219 -34.125 19.875
    endloop
  endfacet
  facet normal -0 0 1
    outer loop
      vertex -35.1562 32.8219 19.875
      vertex -34.125 -32.8219 19.875
      vertex -34.125 32.8219 19.875
    endloop
  endfacet
  facet normal 0 0 1
    outer loop
      vertex -34.125 -32.8219 19.875
      vertex -35.1562 32.8219 19.875
      vertex -35.1562 -32.8219 19.875
    endloop
  endfacet
  facet normal 0 0 1
    outer loop
      vertex 32.8219 -35.1562 19.875
      vertex -32.8219 -34.125 19.875
      vertex -32.8219 -35.1562 19.875
    endloop
  endfacet
endsolid OpenSCAD_Model
