solid OpenSCAD_Model
  facet normal 1 0 0
    outer loop
      vertex 23.4375 3.125 34.4903
      vertex 23.4375 0 25.1122
      vertex 23.4375 3.125 25.1122
    endloop
  endfacet
  facet normal 1 0 0
    outer loop
      vertex 23.4375 0 25.1122
      vertex 23.4375 -3.125 21.9872
      vertex 23.4375 0 21.9872
    endloop
  endfacet
  facet normal 1 -0 0
    outer loop
      vertex 23.4375 -6.25312 34.4903
      vertex 23.4375 0 25.1122
      vertex 23.4375 3.125 34.4903
    endloop
  endfacet
  facet normal 1 0 0
    outer loop
      vertex 23.4375 0 25.1122
      vertex 23.4375 -6.25312 25.1122
      vertex 23.4375 -3.125 21.9872
    endloop
  endfacet
  facet normal 1 0 0
    outer loop
      vertex 23.4375 0 25.1122
      vertex 23.4375 -6.25312 34.4903
      vertex 23.4375 -6.25312 25.1122
    endloop
  endfacet
  facet normal 1 0 0
    outer loop
      vertex 23.4375 18.7562 37.6153
      vertex 23.4375 21.8812 43.8684
      vertex 23.4375 18.7562 40.7434
    endloop
  endfacet
  facet normal 1 0 0
    outer loop
      vertex 23.4375 21.8812 43.8684
      vertex 23.4375 15.6281 40.7434
      vertex 23.4375 18.7562 40.7434
    endloop
  endfacet
  facet normal 1 0 0
    outer loop
      vertex 23.4375 15.6281 40.7434
      vertex 23.4375 9.37812 34.4903
      vertex 23.4375 15.6281 37.6153
    endloop
  endfacet
  facet normal 1 0 0
    outer loop
      vertex 23.4375 15.6281 40.7434
      vertex 23.4375 6.25312 37.6153
      vertex 23.4375 9.37812 34.4903
    endloop
  endfacet
  facet normal 1 0 0
    outer loop
      vertex 23.4375 -15.6281 40.7434
      vertex 23.4375 15.6281 40.7434
      vertex 23.4375 21.8812 43.8684
    endloop
  endfacet
  facet normal 1 0 0
    outer loop
      vertex 23.4375 15.6281 40.7434
      vertex 23.4375 -15.6281 40.7434
      vertex 23.4375 6.25312 37.6153
    endloop
  endfacet
  facet normal 1 0 0
    outer loop
      vertex 23.4375 -9.37812 37.6153
      vertex 23.4375 -12.5031 34.4903
      vertex 23.4375 -9.37812 34.4903
    endloop
  endfacet
  facet normal 1 0 0
    outer loop
      vertex 23.4375 -9.37812 37.6153
      vertex 23.4375 -15.6281 37.6153
      vertex 23.4375 -12.5031 34.4903
    endloop
  endfacet
  facet normal 1 0 0
    outer loop
      vertex 23.4375 -15.6281 37.6153
      vertex 23.4375 -9.37812 37.6153
      vertex 23.4375 -15.6281 40.7434
    endloop
  endfacet
  facet normal 1 0 0
    outer loop
      vertex 23.4375 6.25312 37.6153
      vertex 23.4375 -15.6281 40.7434
      vertex 23.4375 -9.37812 37.6153
    endloop
  endfacet
  facet normal 1 -0 0
    outer loop
      vertex 23.4375 -21.8813 43.8684
      vertex 23.4375 -15.6281 40.7434
      vertex 23.4375 21.8812 43.8684
    endloop
  endfacet
  facet normal 1 0 0
    outer loop
      vertex 23.4375 -18.7563 40.7434
      vertex 23.4375 -21.8813 43.8684
      vertex 23.4375 -18.7563 37.6153
    endloop
  endfacet
  facet normal 1 0 0
    outer loop
      vertex 23.4375 -15.6281 40.7434
      vertex 23.4375 -21.8813 43.8684
      vertex 23.4375 -18.7563 40.7434
    endloop
  endfacet
  facet normal 1 0 0
    outer loop
      vertex 23.4375 21.8812 43.8684
      vertex 23.4375 18.7562 37.6153
      vertex 23.4375 21.8812 13.25
    endloop
  endfacet
  facet normal 1 0 0
    outer loop
      vertex 23.4375 9.37812 21.9872
      vertex 23.4375 18.7562 37.6153
      vertex 23.4375 15.6281 37.6153
    endloop
  endfacet
  facet normal 1 0 0
    outer loop
      vertex 23.4375 9.37812 21.9872
      vertex 23.4375 15.6281 37.6153
      vertex 23.4375 9.37812 34.4903
    endloop
  endfacet
  facet normal 1 0 0
    outer loop
      vertex 23.4375 18.7562 37.6153
      vertex 23.4375 9.37812 21.9872
      vertex 23.4375 21.8812 13.25
    endloop
  endfacet
  facet normal 1 0 0
    outer loop
      vertex 23.4375 3.125 15.734
      vertex 23.4375 9.37812 21.9872
      vertex 23.4375 3.125 21.9872
    endloop
  endfacet
  facet normal 1 0 0
    outer loop
      vertex 23.4375 9.37812 21.9872
      vertex 23.4375 3.125 15.734
      vertex 23.4375 21.8812 13.25
    endloop
  endfacet
  facet normal 1 -0 0
    outer loop
      vertex 23.4375 -3.125 15.734
      vertex 23.4375 21.8812 13.25
      vertex 23.4375 3.125 15.734
    endloop
  endfacet
  facet normal 1 0 0
    outer loop
      vertex 23.4375 -3.125 21.9872
      vertex 23.4375 -6.25312 25.1122
      vertex 23.4375 -3.125 15.734
    endloop
  endfacet
  facet normal 1 -0 0
    outer loop
      vertex 23.4375 -12.5031 25.1122
      vertex 23.4375 -3.125 15.734
      vertex 23.4375 -6.25312 25.1122
    endloop
  endfacet
  facet normal 1 -0 0
    outer loop
      vertex 23.4375 -18.7563 37.6153
      vertex 23.4375 -12.5031 34.4903
      vertex 23.4375 -15.6281 37.6153
    endloop
  endfacet
  facet normal 1 0 0
    outer loop
      vertex 23.4375 -12.5031 34.4903
      vertex 23.4375 -18.7563 37.6153
      vertex 23.4375 -12.5031 25.1122
    endloop
  endfacet
  facet normal 1 0 0
    outer loop
      vertex 23.4375 -3.125 15.734
      vertex 23.4375 -21.8813 13.25
      vertex 23.4375 21.8812 13.25
    endloop
  endfacet
  facet normal 1 0 0
    outer loop
      vertex 23.4375 -12.5031 25.1122
      vertex 23.4375 -21.8813 13.25
      vertex 23.4375 -3.125 15.734
    endloop
  endfacet
  facet normal 1 0 0
    outer loop
      vertex 23.4375 -18.7563 37.6153
      vertex 23.4375 -21.8813 13.25
      vertex 23.4375 -12.5031 25.1122
    endloop
  endfacet
  facet normal 1 0 0
    outer loop
      vertex 23.4375 -21.8813 13.25
      vertex 23.4375 -18.7563 37.6153
      vertex 23.4375 -21.8813 43.8684
    endloop
  endfacet
  facet normal 1 0 0
    outer loop
      vertex 23.4375 9.37812 34.4903
      vertex 23.4375 6.25312 37.6153
      vertex 23.4375 6.25312 34.4903
    endloop
  endfacet
  facet normal -0 0 1
    outer loop
      vertex 15.6281 -22.75 37.6153
      vertex 18.7563 -23.4375 37.6153
      vertex 18.7563 -22.75 37.6153
    endloop
  endfacet
  facet normal 0 0 1
    outer loop
      vertex 18.7563 -23.4375 37.6153
      vertex 15.6281 -22.75 37.6153
      vertex 15.6281 -23.4375 37.6153
    endloop
  endfacet
  facet normal 0 0 -1
    outer loop
      vertex 15.6281 -23.4375 40.7434
      vertex 18.7563 -22.75 40.7434
      vertex 18.7563 -23.4375 40.7434
    endloop
  endfacet
  facet normal -0 0 -1
    outer loop
      vertex 18.7563 -22.75 40.7434
      vertex 15.6281 -23.4375 40.7434
      vertex 15.6281 -22.75 40.7434
    endloop
  endfacet
  facet normal -0 0 1
    outer loop
      vertex 15.6281 23.4375 37.6153
      vertex 18.7563 22.75 37.6153
      vertex 18.7563 23.4375 37.6153
    endloop
  endfacet
  facet normal 0 0 1
    outer loop
      vertex 18.7563 22.75 37.6153
      vertex 15.6281 23.4375 37.6153
      vertex 15.6281 22.75 37.6153
    endloop
  endfacet
  facet normal -0 0 1
    outer loop
      vertex -18.7562 23.4375 37.6153
      vertex -15.6281 22.75 37.6153
      vertex -15.6281 23.4375 37.6153
    endloop
  endfacet
  facet normal 0 0 1
    outer loop
      vertex -15.6281 22.75 37.6153
      vertex -18.7562 23.4375 37.6153
      vertex -18.7562 22.75 37.6153
    endloop
  endfacet
  facet normal 0 -1 0
    outer loop
      vertex 3.125 -23.4375 21.9872
      vertex 3.125 -23.4375 15.734
      vertex 9.37812 -23.4375 21.9872
    endloop
  endfacet
  facet normal 0 -1 -0
    outer loop
      vertex -9.37812 -23.4375 37.6153
      vertex -12.5031 -23.4375 34.4903
      vertex -9.37812 -23.4375 34.4903
    endloop
  endfacet
  facet normal 0 -1 0
    outer loop
      vertex 0 -23.4375 25.1122
      vertex -6.25312 -23.4375 34.4903
      vertex -6.25312 -23.4375 25.1122
    endloop
  endfacet
  facet normal 0 -1 0
    outer loop
      vertex -6.25312 -23.4375 34.4903
      vertex 0 -23.4375 25.1122
      vertex 3.125 -23.4375 34.4903
    endloop
  endfacet
  facet normal 0 -1 -0
    outer loop
      vertex 3.125 -23.4375 34.4903
      vertex 0 -23.4375 25.1122
      vertex 3.125 -23.4375 25.1122
    endloop
  endfacet
  facet normal 0 -1 -0
    outer loop
      vertex 0 -23.4375 25.1122
      vertex -3.125 -23.4375 21.9872
      vertex 0 -23.4375 21.9872
    endloop
  endfacet
  facet normal 0 -1 0
    outer loop
      vertex -9.37812 -23.4375 37.6153
      vertex -15.6281 -23.4375 40.7434
      vertex -15.6281 -23.4375 37.6153
    endloop
  endfacet
  facet normal 0 -1 0
    outer loop
      vertex 6.25312 -23.4375 37.6153
      vertex -15.6281 -23.4375 40.7434
      vertex -9.37812 -23.4375 37.6153
    endloop
  endfacet
  facet normal 0 -1 0
    outer loop
      vertex -15.6281 -23.4375 40.7434
      vertex 6.25312 -23.4375 37.6153
      vertex 15.6281 -23.4375 40.7434
    endloop
  endfacet
  facet normal 0 -1 0
    outer loop
      vertex 6.25312 -23.4375 37.6153
      vertex 15.6281 -23.4375 37.6153
      vertex 15.6281 -23.4375 40.7434
    endloop
  endfacet
  facet normal 0 -1 0
    outer loop
      vertex 9.37812 -23.4375 34.4903
      vertex 15.6281 -23.4375 37.6153
      vertex 6.25312 -23.4375 37.6153
    endloop
  endfacet
  facet normal 0 -1 0
    outer loop
      vertex 9.37812 -23.4375 34.4903
      vertex 6.25312 -23.4375 37.6153
      vertex 6.25312 -23.4375 34.4903
    endloop
  endfacet
  facet normal 0 -1 0
    outer loop
      vertex -15.6281 -23.4375 40.7434
      vertex -21.8812 -23.4375 43.8684
      vertex -18.7562 -23.4375 40.7434
    endloop
  endfacet
  facet normal 0 -1 0
    outer loop
      vertex -21.8812 -23.4375 43.8684
      vertex -18.7562 -23.4375 37.6153
      vertex -18.7562 -23.4375 40.7434
    endloop
  endfacet
  facet normal 0 -1 0
    outer loop
      vertex -12.5031 -23.4375 34.4903
      vertex -15.6281 -23.4375 37.6153
      vertex -18.7562 -23.4375 37.6153
    endloop
  endfacet
  facet normal 0 -1 0
    outer loop
      vertex -15.6281 -23.4375 37.6153
      vertex -12.5031 -23.4375 34.4903
      vertex -9.37812 -23.4375 37.6153
    endloop
  endfacet
  facet normal 0 -1 0
    outer loop
      vertex -18.7562 -23.4375 37.6153
      vertex -12.5031 -23.4375 25.1122
      vertex -12.5031 -23.4375 34.4903
    endloop
  endfacet
  facet normal 0 -1 0
    outer loop
      vertex -3.125 -23.4375 21.9872
      vertex -6.25312 -23.4375 25.1122
      vertex -12.5031 -23.4375 25.1122
    endloop
  endfacet
  facet normal 0 -1 0
    outer loop
      vertex -6.25312 -23.4375 25.1122
      vertex -3.125 -23.4375 21.9872
      vertex 0 -23.4375 25.1122
    endloop
  endfacet
  facet normal 0 -1 0
    outer loop
      vertex -12.5031 -23.4375 25.1122
      vertex -3.125 -23.4375 15.734
      vertex -3.125 -23.4375 21.9872
    endloop
  endfacet
  facet normal 0 -1 -0
    outer loop
      vertex -3.125 -23.4375 15.734
      vertex -21.8812 -23.4375 13.25
      vertex 3.125 -23.4375 15.734
    endloop
  endfacet
  facet normal 0 -1 -0
    outer loop
      vertex -12.5031 -23.4375 25.1122
      vertex -21.8812 -23.4375 13.25
      vertex -3.125 -23.4375 15.734
    endloop
  endfacet
  facet normal 0 -1 -0
    outer loop
      vertex -18.7562 -23.4375 37.6153
      vertex -21.8812 -23.4375 13.25
      vertex -12.5031 -23.4375 25.1122
    endloop
  endfacet
  facet normal 0 -1 0
    outer loop
      vertex -21.8812 -23.4375 13.25
      vertex -18.7562 -23.4375 37.6153
      vertex -21.8812 -23.4375 43.8684
    endloop
  endfacet
  facet normal 0 -1 0
    outer loop
      vertex -21.8812 -23.4375 43.8684
      vertex -15.6281 -23.4375 40.7434
      vertex 21.8813 -23.4375 43.8684
    endloop
  endfacet
  facet normal 0 -1 0
    outer loop
      vertex 15.6281 -23.4375 40.7434
      vertex 21.8813 -23.4375 43.8684
      vertex -15.6281 -23.4375 40.7434
    endloop
  endfacet
  facet normal 0 -1 0
    outer loop
      vertex 18.7563 -23.4375 40.7434
      vertex 21.8813 -23.4375 43.8684
      vertex 15.6281 -23.4375 40.7434
    endloop
  endfacet
  facet normal 0 -1 0
    outer loop
      vertex 18.7563 -23.4375 37.6153
      vertex 21.8813 -23.4375 43.8684
      vertex 18.7563 -23.4375 40.7434
    endloop
  endfacet
  facet normal 0 -1 0
    outer loop
      vertex 9.37812 -23.4375 21.9872
      vertex 15.6281 -23.4375 37.6153
      vertex 9.37812 -23.4375 34.4903
    endloop
  endfacet
  facet normal 0 -1 -0
    outer loop
      vertex 15.6281 -23.4375 37.6153
      vertex 9.37812 -23.4375 21.9872
      vertex 18.7563 -23.4375 37.6153
    endloop
  endfacet
  facet normal 0 -1 0
    outer loop
      vertex 18.7563 -23.4375 37.6153
      vertex 21.8813 -23.4375 13.25
      vertex 21.8813 -23.4375 43.8684
    endloop
  endfacet
  facet normal 0 -1 0
    outer loop
      vertex 9.37812 -23.4375 21.9872
      vertex 21.8813 -23.4375 13.25
      vertex 18.7563 -23.4375 37.6153
    endloop
  endfacet
  facet normal 0 -1 0
    outer loop
      vertex 3.125 -23.4375 15.734
      vertex 21.8813 -23.4375 13.25
      vertex 9.37812 -23.4375 21.9872
    endloop
  endfacet
  facet normal 0 -1 0
    outer loop
      vertex 21.8813 -23.4375 13.25
      vertex 3.125 -23.4375 15.734
      vertex -21.8812 -23.4375 13.25
    endloop
  endfacet
  facet normal 0 0 -1
    outer loop
      vertex -18.7562 22.75 40.7434
      vertex -15.6281 23.4375 40.7434
      vertex -15.6281 22.75 40.7434
    endloop
  endfacet
  facet normal -0 0 -1
    outer loop
      vertex -15.6281 23.4375 40.7434
      vertex -18.7562 22.75 40.7434
      vertex -18.7562 23.4375 40.7434
    endloop
  endfacet
  facet normal 0 0 -1
    outer loop
      vertex 15.6281 22.75 40.7434
      vertex 18.7563 23.4375 40.7434
      vertex 18.7563 22.75 40.7434
    endloop
  endfacet
  facet normal -0 0 -1
    outer loop
      vertex 18.7563 23.4375 40.7434
      vertex 15.6281 22.75 40.7434
      vertex 15.6281 23.4375 40.7434
    endloop
  endfacet
  facet normal 0 1 -0
    outer loop
      vertex -22.75 6.25312 25.1122
      vertex -23.4375 6.25312 34.4903
      vertex -22.75 6.25312 34.4903
    endloop
  endfacet
  facet normal 0 1 0
    outer loop
      vertex -23.4375 6.25312 34.4903
      vertex -22.75 6.25312 25.1122
      vertex -23.4375 6.25312 25.1122
    endloop
  endfacet
  facet normal 0 1 -0
    outer loop
      vertex 23.4375 -3.125 15.734
      vertex 22.75 -3.125 21.9872
      vertex 23.4375 -3.125 21.9872
    endloop
  endfacet
  facet normal 0 1 0
    outer loop
      vertex 22.75 -3.125 21.9872
      vertex 23.4375 -3.125 15.734
      vertex 22.75 -3.125 15.734
    endloop
  endfacet
  facet normal -0 0 1
    outer loop
      vertex -23.4375 12.5031 25.1122
      vertex -22.75 6.25312 25.1122
      vertex -22.75 12.5031 25.1122
    endloop
  endfacet
  facet normal 0 0 1
    outer loop
      vertex -22.75 6.25312 25.1122
      vertex -23.4375 12.5031 25.1122
      vertex -23.4375 6.25312 25.1122
    endloop
  endfacet
  facet normal 1 -0 0
    outer loop
      vertex 3.125 -23.4375 34.4903
      vertex 3.125 -22.75 25.1122
      vertex 3.125 -22.75 34.4903
    endloop
  endfacet
  facet normal 1 0 0
    outer loop
      vertex 3.125 -22.75 25.1122
      vertex 3.125 -23.4375 34.4903
      vertex 3.125 -23.4375 25.1122
    endloop
  endfacet
  facet normal 1 -0 0
    outer loop
      vertex 15.6281 22.75 40.7434
      vertex 15.6281 23.4375 37.6153
      vertex 15.6281 23.4375 40.7434
    endloop
  endfacet
  facet normal 1 0 0
    outer loop
      vertex 15.6281 23.4375 37.6153
      vertex 15.6281 22.75 40.7434
      vertex 15.6281 22.75 37.6153
    endloop
  endfacet
  facet normal 1 -0 0
    outer loop
      vertex -18.7562 22.75 40.7434
      vertex -18.7562 23.4375 37.6153
      vertex -18.7562 23.4375 40.7434
    endloop
  endfacet
  facet normal 1 0 0
    outer loop
      vertex -18.7562 23.4375 37.6153
      vertex -18.7562 22.75 40.7434
      vertex -18.7562 22.75 37.6153
    endloop
  endfacet
  facet normal 0 1 -0
    outer loop
      vertex 23.4375 3.125 25.1122
      vertex 22.75 3.125 34.4903
      vertex 23.4375 3.125 34.4903
    endloop
  endfacet
  facet normal 0 1 0
    outer loop
      vertex 22.75 3.125 34.4903
      vertex 23.4375 3.125 25.1122
      vertex 22.75 3.125 25.1122
    endloop
  endfacet
  facet normal 0 0 -1
    outer loop
      vertex 0 -23.4375 25.1122
      vertex 3.125 -22.75 25.1122
      vertex 3.125 -23.4375 25.1122
    endloop
  endfacet
  facet normal -0 0 -1
    outer loop
      vertex 3.125 -22.75 25.1122
      vertex 0 -23.4375 25.1122
      vertex 0 -22.75 25.1122
    endloop
  endfacet
  facet normal 0 0 -1
    outer loop
      vertex 22.75 0 25.1122
      vertex 23.4375 3.125 25.1122
      vertex 23.4375 0 25.1122
    endloop
  endfacet
  facet normal -0 0 -1
    outer loop
      vertex 23.4375 3.125 25.1122
      vertex 22.75 0 25.1122
      vertex 22.75 3.125 25.1122
    endloop
  endfacet
  facet normal -0 0 1
    outer loop
      vertex -23.4375 6.25312 34.4903
      vertex -22.75 -3.125 34.4903
      vertex -22.75 6.25312 34.4903
    endloop
  endfacet
  facet normal 0 0 1
    outer loop
      vertex -22.75 -3.125 34.4903
      vertex -23.4375 6.25312 34.4903
      vertex -23.4375 -3.125 34.4903
    endloop
  endfacet
  facet normal -1 0 0
    outer loop
      vertex -6.25312 -23.4375 25.1122
      vertex -6.25312 -22.75 34.4903
      vertex -6.25312 -22.75 25.1122
    endloop
  endfacet
  facet normal -1 -0 0
    outer loop
      vertex -6.25312 -22.75 34.4903
      vertex -6.25312 -23.4375 25.1122
      vertex -6.25312 -23.4375 34.4903
    endloop
  endfacet
  facet normal -0 0 1
    outer loop
      vertex -12.5031 -22.75 25.1122
      vertex -6.25312 -23.4375 25.1122
      vertex -6.25312 -22.75 25.1122
    endloop
  endfacet
  facet normal 0 0 1
    outer loop
      vertex -6.25312 -23.4375 25.1122
      vertex -12.5031 -22.75 25.1122
      vertex -12.5031 -23.4375 25.1122
    endloop
  endfacet
  facet normal 0 -1 0
    outer loop
      vertex 22.75 -6.25312 25.1122
      vertex 23.4375 -6.25312 34.4903
      vertex 22.75 -6.25312 34.4903
    endloop
  endfacet
  facet normal 0 -1 -0
    outer loop
      vertex 23.4375 -6.25312 34.4903
      vertex 22.75 -6.25312 25.1122
      vertex 23.4375 -6.25312 25.1122
    endloop
  endfacet
  facet normal 0 0 -1
    outer loop
      vertex -23.4375 9.37812 34.4903
      vertex -22.75 12.5031 34.4903
      vertex -22.75 9.37812 34.4903
    endloop
  endfacet
  facet normal -0 0 -1
    outer loop
      vertex -22.75 12.5031 34.4903
      vertex -23.4375 9.37812 34.4903
      vertex -23.4375 12.5031 34.4903
    endloop
  endfacet
  facet normal 0 0 -1
    outer loop
      vertex -23.4375 -9.37812 34.4903
      vertex -22.75 -6.25312 34.4903
      vertex -22.75 -9.37812 34.4903
    endloop
  endfacet
  facet normal -0 0 -1
    outer loop
      vertex -22.75 -6.25312 34.4903
      vertex -23.4375 -9.37812 34.4903
      vertex -23.4375 -6.25312 34.4903
    endloop
  endfacet
  facet normal -0 0 1
    outer loop
      vertex 22.75 -6.25312 25.1122
      vertex 23.4375 -12.5031 25.1122
      vertex 23.4375 -6.25312 25.1122
    endloop
  endfacet
  facet normal 0 0 1
    outer loop
      vertex 23.4375 -12.5031 25.1122
      vertex 22.75 -6.25312 25.1122
      vertex 22.75 -12.5031 25.1122
    endloop
  endfacet
  facet normal 0 0 -1
    outer loop
      vertex 0 22.75 21.9872
      vertex 3.125 23.4375 21.9872
      vertex 3.125 22.75 21.9872
    endloop
  endfacet
  facet normal -0 0 -1
    outer loop
      vertex 3.125 23.4375 21.9872
      vertex 0 22.75 21.9872
      vertex 0 23.4375 21.9872
    endloop
  endfacet
  facet normal -0 0 1
    outer loop
      vertex -6.25312 -22.75 34.4903
      vertex 3.125 -23.4375 34.4903
      vertex 3.125 -22.75 34.4903
    endloop
  endfacet
  facet normal 0 0 1
    outer loop
      vertex 3.125 -23.4375 34.4903
      vertex -6.25312 -22.75 34.4903
      vertex -6.25312 -23.4375 34.4903
    endloop
  endfacet
  facet normal 1 -0 0
    outer loop
      vertex 15.6281 -23.4375 40.7434
      vertex 15.6281 -22.75 37.6153
      vertex 15.6281 -22.75 40.7434
    endloop
  endfacet
  facet normal 1 0 0
    outer loop
      vertex 15.6281 -22.75 37.6153
      vertex 15.6281 -23.4375 40.7434
      vertex 15.6281 -23.4375 37.6153
    endloop
  endfacet
  facet normal -0 0 1
    outer loop
      vertex 22.75 3.125 34.4903
      vertex 23.4375 -6.25312 34.4903
      vertex 23.4375 3.125 34.4903
    endloop
  endfacet
  facet normal 0 0 1
    outer loop
      vertex 23.4375 -6.25312 34.4903
      vertex 22.75 3.125 34.4903
      vertex 22.75 -6.25312 34.4903
    endloop
  endfacet
  facet normal -0 0 1
    outer loop
      vertex -9.37812 23.4375 21.9872
      vertex -3.125 22.75 21.9872
      vertex -3.125 23.4375 21.9872
    endloop
  endfacet
  facet normal 0 0 1
    outer loop
      vertex -3.125 22.75 21.9872
      vertex -9.37812 23.4375 21.9872
      vertex -9.37812 22.75 21.9872
    endloop
  endfacet
  facet normal 0 0 -1
    outer loop
      vertex -12.5031 -23.4375 34.4903
      vertex -9.37812 -22.75 34.4903
      vertex -9.37812 -23.4375 34.4903
    endloop
  endfacet
  facet normal -0 0 -1
    outer loop
      vertex -9.37812 -22.75 34.4903
      vertex -12.5031 -23.4375 34.4903
      vertex -12.5031 -22.75 34.4903
    endloop
  endfacet
  facet normal 0 -1 0
    outer loop
      vertex -23.4375 9.37812 34.4903
      vertex -22.75 9.37812 37.6153
      vertex -23.4375 9.37812 37.6153
    endloop
  endfacet
  facet normal 0 -1 -0
    outer loop
      vertex -22.75 9.37812 37.6153
      vertex -23.4375 9.37812 34.4903
      vertex -22.75 9.37812 34.4903
    endloop
  endfacet
  facet normal 1 -0 0
    outer loop
      vertex -18.7562 -23.4375 40.7434
      vertex -18.7562 -22.75 37.6153
      vertex -18.7562 -22.75 40.7434
    endloop
  endfacet
  facet normal 1 0 0
    outer loop
      vertex -18.7562 -22.75 37.6153
      vertex -18.7562 -23.4375 40.7434
      vertex -18.7562 -23.4375 37.6153
    endloop
  endfacet
  facet normal 0 1 -0
    outer loop
      vertex -22.75 -6.25312 34.4903
      vertex -23.4375 -6.25312 37.6153
      vertex -22.75 -6.25312 37.6153
    endloop
  endfacet
  facet normal 0 1 0
    outer loop
      vertex -23.4375 -6.25312 37.6153
      vertex -22.75 -6.25312 34.4903
      vertex -23.4375 -6.25312 34.4903
    endloop
  endfacet
  facet normal 0 0 -1
    outer loop
      vertex 6.25312 -23.4375 34.4903
      vertex 9.37812 -22.75 34.4903
      vertex 9.37812 -23.4375 34.4903
    endloop
  endfacet
  facet normal -0 0 -1
    outer loop
      vertex 9.37812 -22.75 34.4903
      vertex 6.25312 -23.4375 34.4903
      vertex 6.25312 -22.75 34.4903
    endloop
  endfacet
  facet normal -1 0 0
    outer loop
      vertex -21.8812 22.75 13.25
      vertex -21.8812 23.4375 43.8684
      vertex -21.8812 23.4375 13.25
    endloop
  endfacet
  facet normal -1 -0 0
    outer loop
      vertex -21.8812 23.4375 43.8684
      vertex -21.8812 22.75 13.25
      vertex -21.8812 22.75 43.8684
    endloop
  endfacet
  facet normal 1 -0 0
    outer loop
      vertex -9.37812 -23.4375 37.6153
      vertex -9.37812 -22.75 34.4903
      vertex -9.37812 -22.75 37.6153
    endloop
  endfacet
  facet normal 1 0 0
    outer loop
      vertex -9.37812 -22.75 34.4903
      vertex -9.37812 -23.4375 37.6153
      vertex -9.37812 -23.4375 34.4903
    endloop
  endfacet
  facet normal 0 0 -1
    outer loop
      vertex -23.4375 -6.25312 37.6153
      vertex -22.75 9.37812 37.6153
      vertex -22.75 -6.25312 37.6153
    endloop
  endfacet
  facet normal -0 0 -1
    outer loop
      vertex -22.75 9.37812 37.6153
      vertex -23.4375 -6.25312 37.6153
      vertex -23.4375 9.37812 37.6153
    endloop
  endfacet
  facet normal 0 0 -1
    outer loop
      vertex 22.75 -12.5031 34.4903
      vertex 23.4375 -9.37812 34.4903
      vertex 23.4375 -12.5031 34.4903
    endloop
  endfacet
  facet normal -0 0 -1
    outer loop
      vertex 23.4375 -9.37812 34.4903
      vertex 22.75 -12.5031 34.4903
      vertex 22.75 -9.37812 34.4903
    endloop
  endfacet
  facet normal -0 0 1
    outer loop
      vertex -3.125 23.4375 15.734
      vertex 3.125 22.75 15.734
      vertex 3.125 23.4375 15.734
    endloop
  endfacet
  facet normal 0 0 1
    outer loop
      vertex 3.125 22.75 15.734
      vertex -3.125 23.4375 15.734
      vertex -3.125 22.75 15.734
    endloop
  endfacet
  facet normal 0 0 -1
    outer loop
      vertex 22.75 6.25312 34.4903
      vertex 23.4375 9.37812 34.4903
      vertex 23.4375 6.25312 34.4903
    endloop
  endfacet
  facet normal -0 0 -1
    outer loop
      vertex 23.4375 9.37812 34.4903
      vertex 22.75 6.25312 34.4903
      vertex 22.75 9.37812 34.4903
    endloop
  endfacet
  facet normal -1 0 0
    outer loop
      vertex 6.25312 -23.4375 34.4903
      vertex 6.25312 -22.75 37.6153
      vertex 6.25312 -22.75 34.4903
    endloop
  endfacet
  facet normal -1 -0 0
    outer loop
      vertex 6.25312 -22.75 37.6153
      vertex 6.25312 -23.4375 34.4903
      vertex 6.25312 -23.4375 37.6153
    endloop
  endfacet
  facet normal 0 -1 0
    outer loop
      vertex -23.4375 12.5031 25.1122
      vertex -22.75 12.5031 34.4903
      vertex -23.4375 12.5031 34.4903
    endloop
  endfacet
  facet normal 0 -1 -0
    outer loop
      vertex -22.75 12.5031 34.4903
      vertex -23.4375 12.5031 25.1122
      vertex -22.75 12.5031 25.1122
    endloop
  endfacet
  facet normal 1 -0 0
    outer loop
      vertex -3.125 22.75 21.9872
      vertex -3.125 23.4375 15.734
      vertex -3.125 23.4375 21.9872
    endloop
  endfacet
  facet normal 1 0 0
    outer loop
      vertex -3.125 23.4375 15.734
      vertex -3.125 22.75 21.9872
      vertex -3.125 22.75 15.734
    endloop
  endfacet
  facet normal 0 1 -0
    outer loop
      vertex -22.75 21.8812 13.25
      vertex -23.4375 21.8812 43.8684
      vertex -22.75 21.8812 43.8684
    endloop
  endfacet
  facet normal 0 1 0
    outer loop
      vertex -23.4375 21.8812 43.8684
      vertex -22.75 21.8812 13.25
      vertex -23.4375 21.8812 13.25
    endloop
  endfacet
  facet normal 0 0 -1
    outer loop
      vertex -9.37812 -23.4375 37.6153
      vertex 6.25312 -22.75 37.6153
      vertex 6.25312 -23.4375 37.6153
    endloop
  endfacet
  facet normal -0 0 -1
    outer loop
      vertex 6.25312 -22.75 37.6153
      vertex -9.37812 -23.4375 37.6153
      vertex -9.37812 -22.75 37.6153
    endloop
  endfacet
  facet normal 0 1 -0
    outer loop
      vertex 23.4375 -9.37812 34.4903
      vertex 22.75 -9.37812 37.6153
      vertex 23.4375 -9.37812 37.6153
    endloop
  endfacet
  facet normal 0 1 0
    outer loop
      vertex 22.75 -9.37812 37.6153
      vertex 23.4375 -9.37812 34.4903
      vertex 22.75 -9.37812 34.4903
    endloop
  endfacet
  facet normal 0 -1 0
    outer loop
      vertex 22.75 6.25312 34.4903
      vertex 23.4375 6.25312 37.6153
      vertex 22.75 6.25312 37.6153
    endloop
  endfacet
  facet normal 0 -1 -0
    outer loop
      vertex 23.4375 6.25312 37.6153
      vertex 22.75 6.25312 34.4903
      vertex 23.4375 6.25312 34.4903
    endloop
  endfacet
  facet normal -1 0 0
    outer loop
      vertex 3.125 22.75 15.734
      vertex 3.125 23.4375 21.9872
      vertex 3.125 23.4375 15.734
    endloop
  endfacet
  facet normal -1 -0 0
    outer loop
      vertex 3.125 23.4375 21.9872
      vertex 3.125 22.75 15.734
      vertex 3.125 22.75 21.9872
    endloop
  endfacet
  facet normal 0 0 -1
    outer loop
      vertex 22.75 -9.37812 37.6153
      vertex 23.4375 6.25312 37.6153
      vertex 23.4375 -9.37812 37.6153
    endloop
  endfacet
  facet normal -0 0 -1
    outer loop
      vertex 23.4375 6.25312 37.6153
      vertex 22.75 -9.37812 37.6153
      vertex 22.75 6.25312 37.6153
    endloop
  endfacet
  facet normal -1 0 0
    outer loop
      vertex -3.125 22.75 25.1122
      vertex -3.125 23.4375 34.4903
      vertex -3.125 23.4375 25.1122
    endloop
  endfacet
  facet normal -1 -0 0
    outer loop
      vertex -3.125 23.4375 34.4903
      vertex -3.125 22.75 25.1122
      vertex -3.125 22.75 34.4903
    endloop
  endfacet
  facet normal 0 -1 0
    outer loop
      vertex -23.4375 -21.8813 13.25
      vertex -22.75 -21.8813 43.8684
      vertex -23.4375 -21.8813 43.8684
    endloop
  endfacet
  facet normal 0 -1 -0
    outer loop
      vertex -22.75 -21.8813 43.8684
      vertex -23.4375 -21.8813 13.25
      vertex -22.75 -21.8813 13.25
    endloop
  endfacet
  facet normal 0 1 -0
    outer loop
      vertex -22.75 -9.37812 21.9872
      vertex -23.4375 -9.37812 34.4903
      vertex -22.75 -9.37812 34.4903
    endloop
  endfacet
  facet normal 0 1 0
    outer loop
      vertex -23.4375 -9.37812 34.4903
      vertex -22.75 -9.37812 21.9872
      vertex -23.4375 -9.37812 21.9872
    endloop
  endfacet
  facet normal 0 0 -1
    outer loop
      vertex -3.125 22.75 25.1122
      vertex 0 23.4375 25.1122
      vertex 0 22.75 25.1122
    endloop
  endfacet
  facet normal -0 0 -1
    outer loop
      vertex 0 23.4375 25.1122
      vertex -3.125 22.75 25.1122
      vertex -3.125 23.4375 25.1122
    endloop
  endfacet
  facet normal -0 0 1
    outer loop
      vertex -23.4375 18.7562 37.6153
      vertex -22.75 15.6281 37.6153
      vertex -22.75 18.7562 37.6153
    endloop
  endfacet
  facet normal 0 0 1
    outer loop
      vertex -22.75 15.6281 37.6153
      vertex -23.4375 18.7562 37.6153
      vertex -23.4375 15.6281 37.6153
    endloop
  endfacet
  facet normal 0 -1 0
    outer loop
      vertex 22.75 9.37812 21.9872
      vertex 23.4375 9.37812 34.4903
      vertex 22.75 9.37812 34.4903
    endloop
  endfacet
  facet normal 0 -1 -0
    outer loop
      vertex 23.4375 9.37812 34.4903
      vertex 22.75 9.37812 21.9872
      vertex 23.4375 9.37812 21.9872
    endloop
  endfacet
  facet normal 0 1 -0
    outer loop
      vertex -22.75 -18.7563 37.6153
      vertex -23.4375 -18.7563 40.7434
      vertex -22.75 -18.7563 40.7434
    endloop
  endfacet
  facet normal 0 1 0
    outer loop
      vertex -23.4375 -18.7563 40.7434
      vertex -22.75 -18.7563 37.6153
      vertex -23.4375 -18.7563 37.6153
    endloop
  endfacet
  facet normal -1 0 0
    outer loop
      vertex 0 22.75 21.9872
      vertex 0 23.4375 25.1122
      vertex 0 23.4375 21.9872
    endloop
  endfacet
  facet normal -1 -0 0
    outer loop
      vertex 0 23.4375 25.1122
      vertex 0 22.75 21.9872
      vertex 0 22.75 25.1122
    endloop
  endfacet
  facet normal 1 -0 0
    outer loop
      vertex 6.25312 22.75 34.4903
      vertex 6.25312 23.4375 25.1122
      vertex 6.25312 23.4375 34.4903
    endloop
  endfacet
  facet normal 1 0 0
    outer loop
      vertex 6.25312 23.4375 25.1122
      vertex 6.25312 22.75 34.4903
      vertex 6.25312 22.75 25.1122
    endloop
  endfacet
  facet normal 0 0 -1
    outer loop
      vertex -23.4375 15.6281 40.7434
      vertex -22.75 18.7562 40.7434
      vertex -22.75 15.6281 40.7434
    endloop
  endfacet
  facet normal -0 0 -1
    outer loop
      vertex -22.75 18.7562 40.7434
      vertex -23.4375 15.6281 40.7434
      vertex -23.4375 18.7562 40.7434
    endloop
  endfacet
  facet normal 0 1 -0
    outer loop
      vertex 23.4375 -12.5031 25.1122
      vertex 22.75 -12.5031 34.4903
      vertex 23.4375 -12.5031 34.4903
    endloop
  endfacet
  facet normal 0 1 0
    outer loop
      vertex 22.75 -12.5031 34.4903
      vertex 23.4375 -12.5031 25.1122
      vertex 22.75 -12.5031 25.1122
    endloop
  endfacet
  facet normal 0 -1 0
    outer loop
      vertex -23.4375 18.7562 37.6153
      vertex -22.75 18.7562 40.7434
      vertex -23.4375 18.7562 40.7434
    endloop
  endfacet
  facet normal 0 -1 -0
    outer loop
      vertex -22.75 18.7562 40.7434
      vertex -23.4375 18.7562 37.6153
      vertex -22.75 18.7562 37.6153
    endloop
  endfacet
  facet normal -0 0 1
    outer loop
      vertex 6.25312 23.4375 25.1122
      vertex 12.5031 22.75 25.1122
      vertex 12.5031 23.4375 25.1122
    endloop
  endfacet
  facet normal 0 0 1
    outer loop
      vertex 12.5031 22.75 25.1122
      vertex 6.25312 23.4375 25.1122
      vertex 6.25312 22.75 25.1122
    endloop
  endfacet
  facet normal 0 -1 0
    outer loop
      vertex 22.75 18.7562 37.6153
      vertex 23.4375 18.7562 40.7434
      vertex 22.75 18.7562 40.7434
    endloop
  endfacet
  facet normal 0 -1 -0
    outer loop
      vertex 23.4375 18.7562 40.7434
      vertex 22.75 18.7562 37.6153
      vertex 23.4375 18.7562 37.6153
    endloop
  endfacet
  facet normal -0 0 1
    outer loop
      vertex -18.7562 -22.75 37.6153
      vertex -15.6281 -23.4375 37.6153
      vertex -15.6281 -22.75 37.6153
    endloop
  endfacet
  facet normal 0 0 1
    outer loop
      vertex -15.6281 -23.4375 37.6153
      vertex -18.7562 -22.75 37.6153
      vertex -18.7562 -23.4375 37.6153
    endloop
  endfacet
  facet normal 0 1 -0
    outer loop
      vertex -22.75 15.6281 37.6153
      vertex -23.4375 15.6281 40.7434
      vertex -22.75 15.6281 40.7434
    endloop
  endfacet
  facet normal 0 1 0
    outer loop
      vertex -23.4375 15.6281 40.7434
      vertex -22.75 15.6281 37.6153
      vertex -23.4375 15.6281 37.6153
    endloop
  endfacet
  facet normal 0 1 0
    outer loop
      vertex 9.37812 23.4375 37.6153
      vertex 15.6281 23.4375 40.7434
      vertex 15.6281 23.4375 37.6153
    endloop
  endfacet
  facet normal 0 1 0
    outer loop
      vertex -6.25312 23.4375 37.6153
      vertex 15.6281 23.4375 40.7434
      vertex 9.37812 23.4375 37.6153
    endloop
  endfacet
  facet normal 0 1 0
    outer loop
      vertex 15.6281 23.4375 40.7434
      vertex -6.25312 23.4375 37.6153
      vertex -15.6281 23.4375 40.7434
    endloop
  endfacet
  facet normal 0 1 0
    outer loop
      vertex -6.25312 23.4375 37.6153
      vertex -15.6281 23.4375 37.6153
      vertex -15.6281 23.4375 40.7434
    endloop
  endfacet
  facet normal 0 1 -0
    outer loop
      vertex -9.37812 23.4375 34.4903
      vertex -15.6281 23.4375 37.6153
      vertex -6.25312 23.4375 37.6153
    endloop
  endfacet
  facet normal 0 1 0
    outer loop
      vertex -9.37812 23.4375 34.4903
      vertex -6.25312 23.4375 37.6153
      vertex -6.25312 23.4375 34.4903
    endloop
  endfacet
  facet normal 0 1 0
    outer loop
      vertex 15.6281 23.4375 40.7434
      vertex 21.8813 23.4375 43.8684
      vertex 18.7563 23.4375 40.7434
    endloop
  endfacet
  facet normal 0 1 0
    outer loop
      vertex 21.8813 23.4375 43.8684
      vertex 18.7563 23.4375 37.6153
      vertex 18.7563 23.4375 40.7434
    endloop
  endfacet
  facet normal 0 1 0
    outer loop
      vertex 12.5031 23.4375 34.4903
      vertex 15.6281 23.4375 37.6153
      vertex 18.7563 23.4375 37.6153
    endloop
  endfacet
  facet normal 0 1 0
    outer loop
      vertex 15.6281 23.4375 37.6153
      vertex 12.5031 23.4375 34.4903
      vertex 9.37812 23.4375 37.6153
    endloop
  endfacet
  facet normal 0 1 0
    outer loop
      vertex 18.7563 23.4375 37.6153
      vertex 12.5031 23.4375 25.1122
      vertex 12.5031 23.4375 34.4903
    endloop
  endfacet
  facet normal 0 1 0
    outer loop
      vertex 3.125 23.4375 21.9872
      vertex 6.25312 23.4375 25.1122
      vertex 12.5031 23.4375 25.1122
    endloop
  endfacet
  facet normal 0 1 0
    outer loop
      vertex 6.25312 23.4375 25.1122
      vertex 3.125 23.4375 21.9872
      vertex 0 23.4375 25.1122
    endloop
  endfacet
  facet normal 0 1 0
    outer loop
      vertex 12.5031 23.4375 25.1122
      vertex 3.125 23.4375 15.734
      vertex 3.125 23.4375 21.9872
    endloop
  endfacet
  facet normal 0 1 0
    outer loop
      vertex 3.125 23.4375 15.734
      vertex 21.8813 23.4375 13.25
      vertex -3.125 23.4375 15.734
    endloop
  endfacet
  facet normal 0 1 0
    outer loop
      vertex 12.5031 23.4375 25.1122
      vertex 21.8813 23.4375 13.25
      vertex 3.125 23.4375 15.734
    endloop
  endfacet
  facet normal 0 1 0
    outer loop
      vertex 18.7563 23.4375 37.6153
      vertex 21.8813 23.4375 13.25
      vertex 12.5031 23.4375 25.1122
    endloop
  endfacet
  facet normal 0 1 -0
    outer loop
      vertex 21.8813 23.4375 13.25
      vertex 18.7563 23.4375 37.6153
      vertex 21.8813 23.4375 43.8684
    endloop
  endfacet
  facet normal 0 1 0
    outer loop
      vertex 21.8813 23.4375 43.8684
      vertex 15.6281 23.4375 40.7434
      vertex -21.8812 23.4375 43.8684
    endloop
  endfacet
  facet normal 0 1 -0
    outer loop
      vertex -15.6281 23.4375 40.7434
      vertex -21.8812 23.4375 43.8684
      vertex 15.6281 23.4375 40.7434
    endloop
  endfacet
  facet normal 0 1 -0
    outer loop
      vertex -18.7562 23.4375 40.7434
      vertex -21.8812 23.4375 43.8684
      vertex -15.6281 23.4375 40.7434
    endloop
  endfacet
  facet normal 0 1 -0
    outer loop
      vertex -18.7562 23.4375 37.6153
      vertex -21.8812 23.4375 43.8684
      vertex -18.7562 23.4375 40.7434
    endloop
  endfacet
  facet normal 0 1 -0
    outer loop
      vertex -9.37812 23.4375 21.9872
      vertex -15.6281 23.4375 37.6153
      vertex -9.37812 23.4375 34.4903
    endloop
  endfacet
  facet normal 0 1 0
    outer loop
      vertex -15.6281 23.4375 37.6153
      vertex -9.37812 23.4375 21.9872
      vertex -18.7562 23.4375 37.6153
    endloop
  endfacet
  facet normal 0 1 0
    outer loop
      vertex -18.7562 23.4375 37.6153
      vertex -21.8812 23.4375 13.25
      vertex -21.8812 23.4375 43.8684
    endloop
  endfacet
  facet normal 0 1 0
    outer loop
      vertex -9.37812 23.4375 21.9872
      vertex -21.8812 23.4375 13.25
      vertex -18.7562 23.4375 37.6153
    endloop
  endfacet
  facet normal 0 1 0
    outer loop
      vertex -3.125 23.4375 15.734
      vertex -21.8812 23.4375 13.25
      vertex -9.37812 23.4375 21.9872
    endloop
  endfacet
  facet normal 0 1 0
    outer loop
      vertex -21.8812 23.4375 13.25
      vertex -3.125 23.4375 15.734
      vertex 21.8813 23.4375 13.25
    endloop
  endfacet
  facet normal 0 1 0
    outer loop
      vertex 9.37812 23.4375 37.6153
      vertex 12.5031 23.4375 34.4903
      vertex 9.37812 23.4375 34.4903
    endloop
  endfacet
  facet normal 0 1 0
    outer loop
      vertex 0 23.4375 25.1122
      vertex 6.25312 23.4375 34.4903
      vertex 6.25312 23.4375 25.1122
    endloop
  endfacet
  facet normal 0 1 0
    outer loop
      vertex 6.25312 23.4375 34.4903
      vertex 0 23.4375 25.1122
      vertex -3.125 23.4375 34.4903
    endloop
  endfacet
  facet normal 0 1 0
    outer loop
      vertex -3.125 23.4375 34.4903
      vertex 0 23.4375 25.1122
      vertex -3.125 23.4375 25.1122
    endloop
  endfacet
  facet normal 0 1 0
    outer loop
      vertex 0 23.4375 25.1122
      vertex 3.125 23.4375 21.9872
      vertex 0 23.4375 21.9872
    endloop
  endfacet
  facet normal 0 1 0
    outer loop
      vertex -3.125 23.4375 21.9872
      vertex -3.125 23.4375 15.734
      vertex -9.37812 23.4375 21.9872
    endloop
  endfacet
  facet normal 0 0 -1
    outer loop
      vertex -18.7562 -23.4375 40.7434
      vertex -15.6281 -22.75 40.7434
      vertex -15.6281 -23.4375 40.7434
    endloop
  endfacet
  facet normal -0 0 -1
    outer loop
      vertex -15.6281 -22.75 40.7434
      vertex -18.7562 -23.4375 40.7434
      vertex -18.7562 -22.75 40.7434
    endloop
  endfacet
  facet normal -0 0 1
    outer loop
      vertex -3.125 23.4375 34.4903
      vertex 6.25312 22.75 34.4903
      vertex 6.25312 23.4375 34.4903
    endloop
  endfacet
  facet normal 0 0 1
    outer loop
      vertex 6.25312 22.75 34.4903
      vertex -3.125 23.4375 34.4903
      vertex -3.125 22.75 34.4903
    endloop
  endfacet
  facet normal -1 0 0
    outer loop
      vertex 9.37812 -23.4375 21.9872
      vertex 9.37812 -22.75 34.4903
      vertex 9.37812 -22.75 21.9872
    endloop
  endfacet
  facet normal -1 -0 0
    outer loop
      vertex 9.37812 -22.75 34.4903
      vertex 9.37812 -23.4375 21.9872
      vertex 9.37812 -23.4375 34.4903
    endloop
  endfacet
  facet normal 0 0 -1
    outer loop
      vertex 9.37812 22.75 34.4903
      vertex 12.5031 23.4375 34.4903
      vertex 12.5031 22.75 34.4903
    endloop
  endfacet
  facet normal -0 0 -1
    outer loop
      vertex 12.5031 23.4375 34.4903
      vertex 9.37812 22.75 34.4903
      vertex 9.37812 23.4375 34.4903
    endloop
  endfacet
  facet normal 0 0 -1
    outer loop
      vertex -9.37812 22.75 34.4903
      vertex -6.25312 23.4375 34.4903
      vertex -6.25312 22.75 34.4903
    endloop
  endfacet
  facet normal -0 0 -1
    outer loop
      vertex -6.25312 23.4375 34.4903
      vertex -9.37812 22.75 34.4903
      vertex -9.37812 23.4375 34.4903
    endloop
  endfacet
  facet normal -1 0 0
    outer loop
      vertex 9.37812 22.75 34.4903
      vertex 9.37812 23.4375 37.6153
      vertex 9.37812 23.4375 34.4903
    endloop
  endfacet
  facet normal -1 -0 0
    outer loop
      vertex 9.37812 23.4375 37.6153
      vertex 9.37812 22.75 34.4903
      vertex 9.37812 22.75 37.6153
    endloop
  endfacet
  facet normal 1 -0 0
    outer loop
      vertex -12.5031 -23.4375 34.4903
      vertex -12.5031 -22.75 25.1122
      vertex -12.5031 -22.75 34.4903
    endloop
  endfacet
  facet normal 1 0 0
    outer loop
      vertex -12.5031 -22.75 25.1122
      vertex -12.5031 -23.4375 34.4903
      vertex -12.5031 -23.4375 25.1122
    endloop
  endfacet
  facet normal -0 0 1
    outer loop
      vertex -23.4375 -15.6281 37.6153
      vertex -22.75 -18.7563 37.6153
      vertex -22.75 -15.6281 37.6153
    endloop
  endfacet
  facet normal 0 0 1
    outer loop
      vertex -22.75 -18.7563 37.6153
      vertex -23.4375 -15.6281 37.6153
      vertex -23.4375 -18.7563 37.6153
    endloop
  endfacet
  facet normal -1 0 0
    outer loop
      vertex 18.7563 22.75 37.6153
      vertex 18.7563 23.4375 40.7434
      vertex 18.7563 23.4375 37.6153
    endloop
  endfacet
  facet normal -1 -0 0
    outer loop
      vertex 18.7563 23.4375 40.7434
      vertex 18.7563 22.75 37.6153
      vertex 18.7563 22.75 40.7434
    endloop
  endfacet
  facet normal 1 -0 0
    outer loop
      vertex -6.25312 22.75 37.6153
      vertex -6.25312 23.4375 34.4903
      vertex -6.25312 23.4375 37.6153
    endloop
  endfacet
  facet normal 1 0 0
    outer loop
      vertex -6.25312 23.4375 34.4903
      vertex -6.25312 22.75 37.6153
      vertex -6.25312 22.75 34.4903
    endloop
  endfacet
  facet normal 0 0 -1
    outer loop
      vertex -6.25312 22.75 37.6153
      vertex 9.37812 23.4375 37.6153
      vertex 9.37812 22.75 37.6153
    endloop
  endfacet
  facet normal -0 0 -1
    outer loop
      vertex 9.37812 23.4375 37.6153
      vertex -6.25312 22.75 37.6153
      vertex -6.25312 23.4375 37.6153
    endloop
  endfacet
  facet normal 0 0 -1
    outer loop
      vertex -23.4375 -18.7563 40.7434
      vertex -22.75 -15.6281 40.7434
      vertex -22.75 -18.7563 40.7434
    endloop
  endfacet
  facet normal -0 0 -1
    outer loop
      vertex -22.75 -15.6281 40.7434
      vertex -23.4375 -18.7563 40.7434
      vertex -23.4375 -15.6281 40.7434
    endloop
  endfacet
  facet normal -1 0 0
    outer loop
      vertex 12.5031 22.75 25.1122
      vertex 12.5031 23.4375 34.4903
      vertex 12.5031 23.4375 25.1122
    endloop
  endfacet
  facet normal -1 -0 0
    outer loop
      vertex 12.5031 23.4375 34.4903
      vertex 12.5031 22.75 25.1122
      vertex 12.5031 22.75 34.4903
    endloop
  endfacet
  facet normal -1 0 0
    outer loop
      vertex 18.7563 -23.4375 37.6153
      vertex 18.7563 -22.75 40.7434
      vertex 18.7563 -22.75 37.6153
    endloop
  endfacet
  facet normal -1 -0 0
    outer loop
      vertex 18.7563 -22.75 40.7434
      vertex 18.7563 -23.4375 37.6153
      vertex 18.7563 -23.4375 40.7434
    endloop
  endfacet
  facet normal 0 -1 0
    outer loop
      vertex -23.4375 -15.6281 37.6153
      vertex -22.75 -15.6281 40.7434
      vertex -23.4375 -15.6281 40.7434
    endloop
  endfacet
  facet normal 0 -1 -0
    outer loop
      vertex -22.75 -15.6281 40.7434
      vertex -23.4375 -15.6281 37.6153
      vertex -22.75 -15.6281 37.6153
    endloop
  endfacet
  facet normal 0 1 -0
    outer loop
      vertex 23.4375 21.8812 13.25
      vertex 22.75 21.8812 43.8684
      vertex 23.4375 21.8812 43.8684
    endloop
  endfacet
  facet normal 0 1 0
    outer loop
      vertex 22.75 21.8812 43.8684
      vertex 23.4375 21.8812 13.25
      vertex 22.75 21.8812 13.25
    endloop
  endfacet
  facet normal 0 -1 0
    outer loop
      vertex 22.75 -21.8813 13.25
      vertex 23.4375 -21.8813 43.8684
      vertex 22.75 -21.8813 43.8684
    endloop
  endfacet
  facet normal 0 -1 -0
    outer loop
      vertex 23.4375 -21.8813 43.8684
      vertex 22.75 -21.8813 13.25
      vertex 23.4375 -21.8813 13.25
    endloop
  endfacet
  facet normal -0 0 1
    outer loop
      vertex 22.75 -15.6281 37.6153
      vertex 23.4375 -18.7563 37.6153
      vertex 23.4375 -15.6281 37.6153
    endloop
  endfacet
  facet normal 0 0 1
    outer loop
      vertex 23.4375 -18.7563 37.6153
      vertex 22.75 -15.6281 37.6153
      vertex 22.75 -18.7563 37.6153
    endloop
  endfacet
  facet normal 1 -0 0
    outer loop
      vertex -9.37812 22.75 34.4903
      vertex -9.37812 23.4375 21.9872
      vertex -9.37812 23.4375 34.4903
    endloop
  endfacet
  facet normal 1 0 0
    outer loop
      vertex -9.37812 23.4375 21.9872
      vertex -9.37812 22.75 34.4903
      vertex -9.37812 22.75 21.9872
    endloop
  endfacet
  facet normal 0 0 -1
    outer loop
      vertex -23.4375 0 21.9872
      vertex -22.75 3.125 21.9872
      vertex -22.75 0 21.9872
    endloop
  endfacet
  facet normal -0 0 -1
    outer loop
      vertex -22.75 3.125 21.9872
      vertex -23.4375 0 21.9872
      vertex -23.4375 3.125 21.9872
    endloop
  endfacet
  facet normal 1 -0 0
    outer loop
      vertex 21.8813 22.75 43.8684
      vertex 21.8813 23.4375 13.25
      vertex 21.8813 23.4375 43.8684
    endloop
  endfacet
  facet normal 1 0 0
    outer loop
      vertex 21.8813 23.4375 13.25
      vertex 21.8813 22.75 43.8684
      vertex 21.8813 22.75 13.25
    endloop
  endfacet
  facet normal -0 0 1
    outer loop
      vertex -23.4375 -3.125 21.9872
      vertex -22.75 -9.37812 21.9872
      vertex -22.75 -3.125 21.9872
    endloop
  endfacet
  facet normal 0 0 1
    outer loop
      vertex -22.75 -9.37812 21.9872
      vertex -23.4375 -3.125 21.9872
      vertex -23.4375 -9.37812 21.9872
    endloop
  endfacet
  facet normal 0 0 -1
    outer loop
      vertex 22.75 -18.7563 40.7434
      vertex 23.4375 -15.6281 40.7434
      vertex 23.4375 -18.7563 40.7434
    endloop
  endfacet
  facet normal -0 0 -1
    outer loop
      vertex 23.4375 -15.6281 40.7434
      vertex 22.75 -18.7563 40.7434
      vertex 22.75 -15.6281 40.7434
    endloop
  endfacet
  facet normal -1 0 0
    outer loop
      vertex -21.8812 -23.4375 13.25
      vertex -21.8812 -22.75 43.8684
      vertex -21.8812 -22.75 13.25
    endloop
  endfacet
  facet normal -1 -0 0
    outer loop
      vertex -21.8812 -22.75 43.8684
      vertex -21.8812 -23.4375 13.25
      vertex -21.8812 -23.4375 43.8684
    endloop
  endfacet
  facet normal 0 1 -0
    outer loop
      vertex 23.4375 -18.7563 37.6153
      vertex 22.75 -18.7563 40.7434
      vertex 23.4375 -18.7563 40.7434
    endloop
  endfacet
  facet normal 0 1 0
    outer loop
      vertex 22.75 -18.7563 40.7434
      vertex 23.4375 -18.7563 37.6153
      vertex 22.75 -18.7563 37.6153
    endloop
  endfacet
  facet normal 0 -1 0
    outer loop
      vertex 22.75 -15.6281 37.6153
      vertex 23.4375 -15.6281 40.7434
      vertex 22.75 -15.6281 40.7434
    endloop
  endfacet
  facet normal 0 -1 -0
    outer loop
      vertex 23.4375 -15.6281 40.7434
      vertex 22.75 -15.6281 37.6153
      vertex 23.4375 -15.6281 37.6153
    endloop
  endfacet
  facet normal -1 0 0
    outer loop
      vertex -23.4375 -6.25312 34.4903
      vertex -23.4375 -9.37812 34.4903
      vertex -23.4375 -6.25312 37.6153
    endloop
  endfacet
  facet normal -1 0 0
    outer loop
      vertex -23.4375 21.8812 13.25
      vertex -23.4375 18.7562 37.6153
      vertex -23.4375 21.8812 43.8684
    endloop
  endfacet
  facet normal -1 0 0
    outer loop
      vertex -23.4375 12.5031 25.1122
      vertex -23.4375 18.7562 37.6153
      vertex -23.4375 21.8812 13.25
    endloop
  endfacet
  facet normal -1 -0 0
    outer loop
      vertex -23.4375 18.7562 37.6153
      vertex -23.4375 12.5031 34.4903
      vertex -23.4375 15.6281 37.6153
    endloop
  endfacet
  facet normal -1 0 0
    outer loop
      vertex -23.4375 12.5031 34.4903
      vertex -23.4375 18.7562 37.6153
      vertex -23.4375 12.5031 25.1122
    endloop
  endfacet
  facet normal -1 0 0
    outer loop
      vertex -23.4375 3.125 15.734
      vertex -23.4375 12.5031 25.1122
      vertex -23.4375 21.8812 13.25
    endloop
  endfacet
  facet normal -1 0 0
    outer loop
      vertex -23.4375 3.125 21.9872
      vertex -23.4375 6.25312 25.1122
      vertex -23.4375 3.125 15.734
    endloop
  endfacet
  facet normal -1 -0 0
    outer loop
      vertex -23.4375 12.5031 25.1122
      vertex -23.4375 3.125 15.734
      vertex -23.4375 6.25312 25.1122
    endloop
  endfacet
  facet normal -1 0 0
    outer loop
      vertex -23.4375 21.8812 13.25
      vertex -23.4375 -3.125 15.734
      vertex -23.4375 3.125 15.734
    endloop
  endfacet
  facet normal -1 0 0
    outer loop
      vertex -23.4375 -3.125 15.734
      vertex -23.4375 -9.37812 21.9872
      vertex -23.4375 -3.125 21.9872
    endloop
  endfacet
  facet normal -1 0 0
    outer loop
      vertex -23.4375 -9.37812 21.9872
      vertex -23.4375 -15.6281 37.6153
      vertex -23.4375 -9.37812 34.4903
    endloop
  endfacet
  facet normal -1 0 0
    outer loop
      vertex -23.4375 -9.37812 21.9872
      vertex -23.4375 -18.7563 37.6153
      vertex -23.4375 -15.6281 37.6153
    endloop
  endfacet
  facet normal -1 0 0
    outer loop
      vertex -23.4375 -21.8813 43.8684
      vertex -23.4375 -18.7563 37.6153
      vertex -23.4375 -21.8813 13.25
    endloop
  endfacet
  facet normal -1 -0 0
    outer loop
      vertex -23.4375 -9.37812 21.9872
      vertex -23.4375 -21.8813 13.25
      vertex -23.4375 -18.7563 37.6153
    endloop
  endfacet
  facet normal -1 -0 0
    outer loop
      vertex -23.4375 -3.125 15.734
      vertex -23.4375 -21.8813 13.25
      vertex -23.4375 -9.37812 21.9872
    endloop
  endfacet
  facet normal -1 0 0
    outer loop
      vertex -23.4375 -21.8813 13.25
      vertex -23.4375 -3.125 15.734
      vertex -23.4375 21.8812 13.25
    endloop
  endfacet
  facet normal -1 0 0
    outer loop
      vertex -23.4375 18.7562 40.7434
      vertex -23.4375 21.8812 43.8684
      vertex -23.4375 18.7562 37.6153
    endloop
  endfacet
  facet normal -1 0 0
    outer loop
      vertex -23.4375 15.6281 40.7434
      vertex -23.4375 21.8812 43.8684
      vertex -23.4375 18.7562 40.7434
    endloop
  endfacet
  facet normal -1 0 0
    outer loop
      vertex -23.4375 9.37812 37.6153
      vertex -23.4375 15.6281 37.6153
      vertex -23.4375 12.5031 34.4903
    endloop
  endfacet
  facet normal -1 0 0
    outer loop
      vertex -23.4375 9.37812 37.6153
      vertex -23.4375 12.5031 34.4903
      vertex -23.4375 9.37812 34.4903
    endloop
  endfacet
  facet normal -1 0 0
    outer loop
      vertex -23.4375 15.6281 37.6153
      vertex -23.4375 9.37812 37.6153
      vertex -23.4375 15.6281 40.7434
    endloop
  endfacet
  facet normal -1 0 0
    outer loop
      vertex -23.4375 -6.25312 37.6153
      vertex -23.4375 15.6281 40.7434
      vertex -23.4375 9.37812 37.6153
    endloop
  endfacet
  facet normal -1 0 0
    outer loop
      vertex -23.4375 -15.6281 40.7434
      vertex -23.4375 15.6281 40.7434
      vertex -23.4375 -6.25312 37.6153
    endloop
  endfacet
  facet normal -1 0 0
    outer loop
      vertex -23.4375 -15.6281 37.6153
      vertex -23.4375 -6.25312 37.6153
      vertex -23.4375 -9.37812 34.4903
    endloop
  endfacet
  facet normal -1 0 0
    outer loop
      vertex -23.4375 -15.6281 40.7434
      vertex -23.4375 -6.25312 37.6153
      vertex -23.4375 -15.6281 37.6153
    endloop
  endfacet
  facet normal -1 0 0
    outer loop
      vertex -23.4375 15.6281 40.7434
      vertex -23.4375 -15.6281 40.7434
      vertex -23.4375 21.8812 43.8684
    endloop
  endfacet
  facet normal -1 0 0
    outer loop
      vertex -23.4375 -21.8813 43.8684
      vertex -23.4375 -15.6281 40.7434
      vertex -23.4375 -18.7563 40.7434
    endloop
  endfacet
  facet normal -1 0 0
    outer loop
      vertex -23.4375 -15.6281 40.7434
      vertex -23.4375 -21.8813 43.8684
      vertex -23.4375 21.8812 43.8684
    endloop
  endfacet
  facet normal -1 0 0
    outer loop
      vertex -23.4375 -18.7563 37.6153
      vertex -23.4375 -21.8813 43.8684
      vertex -23.4375 -18.7563 40.7434
    endloop
  endfacet
  facet normal -1 0 0
    outer loop
      vertex -23.4375 0 25.1122
      vertex -23.4375 6.25312 25.1122
      vertex -23.4375 3.125 21.9872
    endloop
  endfacet
  facet normal -1 0 0
    outer loop
      vertex -23.4375 0 25.1122
      vertex -23.4375 3.125 21.9872
      vertex -23.4375 0 21.9872
    endloop
  endfacet
  facet normal -1 0 0
    outer loop
      vertex -23.4375 6.25312 25.1122
      vertex -23.4375 0 25.1122
      vertex -23.4375 6.25312 34.4903
    endloop
  endfacet
  facet normal -1 0 0
    outer loop
      vertex -23.4375 -3.125 34.4903
      vertex -23.4375 0 25.1122
      vertex -23.4375 -3.125 25.1122
    endloop
  endfacet
  facet normal -1 0 0
    outer loop
      vertex -23.4375 0 25.1122
      vertex -23.4375 -3.125 34.4903
      vertex -23.4375 6.25312 34.4903
    endloop
  endfacet
  facet normal -0 0 1
    outer loop
      vertex 22.75 18.7562 37.6153
      vertex 23.4375 15.6281 37.6153
      vertex 23.4375 18.7562 37.6153
    endloop
  endfacet
  facet normal 0 0 1
    outer loop
      vertex 23.4375 15.6281 37.6153
      vertex 22.75 18.7562 37.6153
      vertex 22.75 15.6281 37.6153
    endloop
  endfacet
  facet normal 0 0 -1
    outer loop
      vertex 22.75 15.6281 40.7434
      vertex 23.4375 18.7562 40.7434
      vertex 23.4375 15.6281 40.7434
    endloop
  endfacet
  facet normal -0 0 -1
    outer loop
      vertex 23.4375 18.7562 40.7434
      vertex 22.75 15.6281 40.7434
      vertex 22.75 18.7562 40.7434
    endloop
  endfacet
  facet normal -0 0 1
    outer loop
      vertex -23.4375 3.125 15.734
      vertex -22.75 -3.125 15.734
      vertex -22.75 3.125 15.734
    endloop
  endfacet
  facet normal 0 0 1
    outer loop
      vertex -22.75 -3.125 15.734
      vertex -23.4375 3.125 15.734
      vertex -23.4375 -3.125 15.734
    endloop
  endfacet
  facet normal 1 -0 0
    outer loop
      vertex 21.8813 -23.4375 43.8684
      vertex 21.8813 -22.75 13.25
      vertex 21.8813 -22.75 43.8684
    endloop
  endfacet
  facet normal 1 0 0
    outer loop
      vertex 21.8813 -22.75 13.25
      vertex 21.8813 -23.4375 43.8684
      vertex 21.8813 -23.4375 13.25
    endloop
  endfacet
  facet normal 0 1 -0
    outer loop
      vertex 23.4375 15.6281 37.6153
      vertex 22.75 15.6281 40.7434
      vertex 23.4375 15.6281 40.7434
    endloop
  endfacet
  facet normal 0 1 0
    outer loop
      vertex 22.75 15.6281 40.7434
      vertex 23.4375 15.6281 37.6153
      vertex 22.75 15.6281 37.6153
    endloop
  endfacet
  facet normal 0 1 -0
    outer loop
      vertex -22.75 -3.125 15.734
      vertex -23.4375 -3.125 21.9872
      vertex -22.75 -3.125 21.9872
    endloop
  endfacet
  facet normal 0 1 0
    outer loop
      vertex -23.4375 -3.125 21.9872
      vertex -22.75 -3.125 15.734
      vertex -23.4375 -3.125 15.734
    endloop
  endfacet
  facet normal 0 1 -0
    outer loop
      vertex 23.4375 0 21.9872
      vertex 22.75 0 25.1122
      vertex 23.4375 0 25.1122
    endloop
  endfacet
  facet normal 0 1 0
    outer loop
      vertex 22.75 0 25.1122
      vertex 23.4375 0 21.9872
      vertex 22.75 0 21.9872
    endloop
  endfacet
  facet normal 0 0 -1
    outer loop
      vertex 22.75 -3.125 21.9872
      vertex 23.4375 0 21.9872
      vertex 23.4375 -3.125 21.9872
    endloop
  endfacet
  facet normal -0 0 -1
    outer loop
      vertex 23.4375 0 21.9872
      vertex 22.75 -3.125 21.9872
      vertex 22.75 0 21.9872
    endloop
  endfacet
  facet normal -0 0 1
    outer loop
      vertex 22.75 9.37812 21.9872
      vertex 23.4375 3.125 21.9872
      vertex 23.4375 9.37812 21.9872
    endloop
  endfacet
  facet normal 0 0 1
    outer loop
      vertex 23.4375 3.125 21.9872
      vertex 22.75 9.37812 21.9872
      vertex 22.75 3.125 21.9872
    endloop
  endfacet
  facet normal 0 -1 0
    outer loop
      vertex -23.4375 3.125 15.734
      vertex -22.75 3.125 21.9872
      vertex -23.4375 3.125 21.9872
    endloop
  endfacet
  facet normal 0 -1 -0
    outer loop
      vertex -22.75 3.125 21.9872
      vertex -23.4375 3.125 15.734
      vertex -22.75 3.125 15.734
    endloop
  endfacet
  facet normal -0 0 1
    outer loop
      vertex 22.75 3.125 15.734
      vertex 23.4375 -3.125 15.734
      vertex 23.4375 3.125 15.734
    endloop
  endfacet
  facet normal 0 0 1
    outer loop
      vertex 23.4375 -3.125 15.734
      vertex 22.75 3.125 15.734
      vertex 22.75 -3.125 15.734
    endloop
  endfacet
  facet normal 0 -1 0
    outer loop
      vertex -23.4375 -3.125 25.1122
      vertex -22.75 -3.125 34.4903
      vertex -23.4375 -3.125 34.4903
    endloop
  endfacet
  facet normal 0 -1 -0
    outer loop
      vertex -22.75 -3.125 34.4903
      vertex -23.4375 -3.125 25.1122
      vertex -22.75 -3.125 25.1122
    endloop
  endfacet
  facet normal 0 -1 0
    outer loop
      vertex 22.75 3.125 15.734
      vertex 23.4375 3.125 21.9872
      vertex 22.75 3.125 21.9872
    endloop
  endfacet
  facet normal 0 -1 -0
    outer loop
      vertex 23.4375 3.125 21.9872
      vertex 22.75 3.125 15.734
      vertex 23.4375 3.125 15.734
    endloop
  endfacet
  facet normal 0 0 -1
    outer loop
      vertex -23.4375 -3.125 25.1122
      vertex -22.75 0 25.1122
      vertex -22.75 -3.125 25.1122
    endloop
  endfacet
  facet normal -0 0 -1
    outer loop
      vertex -22.75 0 25.1122
      vertex -23.4375 -3.125 25.1122
      vertex -23.4375 0 25.1122
    endloop
  endfacet
  facet normal 0 -1 0
    outer loop
      vertex -23.4375 0 21.9872
      vertex -22.75 0 25.1122
      vertex -23.4375 0 25.1122
    endloop
  endfacet
  facet normal 0 -1 -0
    outer loop
      vertex -22.75 0 25.1122
      vertex -23.4375 0 21.9872
      vertex -22.75 0 21.9872
    endloop
  endfacet
  facet normal 1 -0 0
    outer loop
      vertex 0 -23.4375 25.1122
      vertex 0 -22.75 21.9872
      vertex 0 -22.75 25.1122
    endloop
  endfacet
  facet normal 1 0 0
    outer loop
      vertex 0 -22.75 21.9872
      vertex 0 -23.4375 25.1122
      vertex 0 -23.4375 21.9872
    endloop
  endfacet
  facet normal 0 0 -1
    outer loop
      vertex -3.125 -23.4375 21.9872
      vertex 0 -22.75 21.9872
      vertex 0 -23.4375 21.9872
    endloop
  endfacet
  facet normal -0 0 -1
    outer loop
      vertex 0 -22.75 21.9872
      vertex -3.125 -23.4375 21.9872
      vertex -3.125 -22.75 21.9872
    endloop
  endfacet
  facet normal -0 0 1
    outer loop
      vertex 3.125 -22.75 21.9872
      vertex 9.37812 -23.4375 21.9872
      vertex 9.37812 -22.75 21.9872
    endloop
  endfacet
  facet normal 0 0 1
    outer loop
      vertex 9.37812 -23.4375 21.9872
      vertex 3.125 -22.75 21.9872
      vertex 3.125 -23.4375 21.9872
    endloop
  endfacet
  facet normal -1 0 0
    outer loop
      vertex -15.6281 22.75 37.6153
      vertex -15.6281 23.4375 40.7434
      vertex -15.6281 23.4375 37.6153
    endloop
  endfacet
  facet normal -1 -0 0
    outer loop
      vertex -15.6281 23.4375 40.7434
      vertex -15.6281 22.75 37.6153
      vertex -15.6281 22.75 40.7434
    endloop
  endfacet
  facet normal -0 0 1
    outer loop
      vertex -3.125 -22.75 15.734
      vertex 3.125 -23.4375 15.734
      vertex 3.125 -22.75 15.734
    endloop
  endfacet
  facet normal 0 0 1
    outer loop
      vertex 3.125 -23.4375 15.734
      vertex -3.125 -22.75 15.734
      vertex -3.125 -23.4375 15.734
    endloop
  endfacet
  facet normal -1 0 0
    outer loop
      vertex 3.125 -23.4375 15.734
      vertex 3.125 -22.75 21.9872
      vertex 3.125 -22.75 15.734
    endloop
  endfacet
  facet normal -1 -0 0
    outer loop
      vertex 3.125 -22.75 21.9872
      vertex 3.125 -23.4375 15.734
      vertex 3.125 -23.4375 21.9872
    endloop
  endfacet
  facet normal -1 0 0
    outer loop
      vertex -15.6281 -23.4375 37.6153
      vertex -15.6281 -22.75 40.7434
      vertex -15.6281 -22.75 37.6153
    endloop
  endfacet
  facet normal -1 -0 0
    outer loop
      vertex -15.6281 -22.75 40.7434
      vertex -15.6281 -23.4375 37.6153
      vertex -15.6281 -23.4375 40.7434
    endloop
  endfacet
  facet normal 1 -0 0
    outer loop
      vertex -3.125 -23.4375 21.9872
      vertex -3.125 -22.75 15.734
      vertex -3.125 -22.75 21.9872
    endloop
  endfacet
  facet normal 1 0 0
    outer loop
      vertex -3.125 -22.75 15.734
      vertex -3.125 -23.4375 21.9872
      vertex -3.125 -23.4375 15.734
    endloop
  endfacet
  facet normal -0 0 1
    outer loop
      vertex 22.75 21.8812 43.8684
      vertex 23.4375 -21.8813 43.8684
      vertex 23.4375 21.8812 43.8684
    endloop
  endfacet
  facet normal 0 0 1
    outer loop
      vertex 23.4375 -21.8813 43.8684
      vertex 22.75 21.8812 43.8684
      vertex 22.75 -21.8813 43.8684
    endloop
  endfacet
  facet normal -0 0 1
    outer loop
      vertex -21.8812 -22.75 43.8684
      vertex 21.8813 -23.4375 43.8684
      vertex 21.8813 -22.75 43.8684
    endloop
  endfacet
  facet normal 0 0 1
    outer loop
      vertex 21.8813 -23.4375 43.8684
      vertex -21.8812 -22.75 43.8684
      vertex -21.8812 -23.4375 43.8684
    endloop
  endfacet
  facet normal -0 0 1
    outer loop
      vertex -21.8812 23.4375 43.8684
      vertex 21.8813 22.75 43.8684
      vertex 21.8813 23.4375 43.8684
    endloop
  endfacet
  facet normal 0 0 1
    outer loop
      vertex 21.8813 22.75 43.8684
      vertex -21.8812 23.4375 43.8684
      vertex -21.8812 22.75 43.8684
    endloop
  endfacet
  facet normal -0 0 1
    outer loop
      vertex -23.4375 21.8812 43.8684
      vertex -22.75 -21.8813 43.8684
      vertex -22.75 21.8812 43.8684
    endloop
  endfacet
  facet normal 0 0 1
    outer loop
      vertex -22.75 -21.8813 43.8684
      vertex -23.4375 21.8812 43.8684
      vertex -23.4375 -21.8813 43.8684
    endloop
  endfacet
  facet normal 1 0 0
    outer loop
      vertex 22.75 22.75 43.8776
      vertex 22.75 21.8812 43.8684
      vertex 22.75 22.75 13.25
    endloop
  endfacet
  facet normal 1 0 0
    outer loop
      vertex 22.75 22.75 43.8776
      vertex 22.75 -21.8813 43.8684
      vertex 22.75 21.8812 43.8684
    endloop
  endfacet
  facet normal 1 -0 0
    outer loop
      vertex 22.75 -22.75 43.8776
      vertex 22.75 -21.8813 43.8684
      vertex 22.75 22.75 43.8776
    endloop
  endfacet
  facet normal 1 0 0
    outer loop
      vertex 22.75 -22.75 13.25
      vertex 22.75 -21.8813 43.8684
      vertex 22.75 -22.75 43.8776
    endloop
  endfacet
  facet normal 1 0 0
    outer loop
      vertex 22.75 -21.8813 43.8684
      vertex 22.75 -22.75 13.25
      vertex 22.75 -21.8813 13.25
    endloop
  endfacet
  facet normal 1 0 0
    outer loop
      vertex 22.75 22.75 13.25
      vertex 22.75 21.8812 43.8684
      vertex 22.75 21.8812 13.25
    endloop
  endfacet
  facet normal 1 0 0
    outer loop
      vertex 22.75 6.25312 37.6153
      vertex 22.75 3.125 34.4903
      vertex 22.75 6.25312 34.4903
    endloop
  endfacet
  facet normal 1 0 0
    outer loop
      vertex 22.75 6.25312 37.6153
      vertex 22.75 -6.25312 34.4903
      vertex 22.75 3.125 34.4903
    endloop
  endfacet
  facet normal 1 -0 0
    outer loop
      vertex 22.75 -9.37812 37.6153
      vertex 22.75 -6.25312 34.4903
      vertex 22.75 6.25312 37.6153
    endloop
  endfacet
  facet normal 1 0 0
    outer loop
      vertex 22.75 -9.37812 34.4903
      vertex 22.75 -6.25312 34.4903
      vertex 22.75 -9.37812 37.6153
    endloop
  endfacet
  facet normal 1 0 0
    outer loop
      vertex 22.75 -6.25312 34.4903
      vertex 22.75 -9.37812 34.4903
      vertex 22.75 -6.25312 25.1122
    endloop
  endfacet
  facet normal 1 0 0
    outer loop
      vertex 22.75 -12.5031 25.1122
      vertex 22.75 -9.37812 34.4903
      vertex 22.75 -12.5031 34.4903
    endloop
  endfacet
  facet normal 1 0 0
    outer loop
      vertex 22.75 -9.37812 34.4903
      vertex 22.75 -12.5031 25.1122
      vertex 22.75 -6.25312 25.1122
    endloop
  endfacet
  facet normal 1 0 0
    outer loop
      vertex 22.75 3.125 25.1122
      vertex 22.75 9.37812 34.4903
      vertex 22.75 6.25312 34.4903
    endloop
  endfacet
  facet normal 1 0 0
    outer loop
      vertex 22.75 3.125 25.1122
      vertex 22.75 6.25312 34.4903
      vertex 22.75 3.125 34.4903
    endloop
  endfacet
  facet normal 1 0 0
    outer loop
      vertex 22.75 9.37812 34.4903
      vertex 22.75 3.125 25.1122
      vertex 22.75 9.37812 21.9872
    endloop
  endfacet
  facet normal 1 0 0
    outer loop
      vertex 22.75 3.125 25.1122
      vertex 22.75 3.125 21.9872
      vertex 22.75 9.37812 21.9872
    endloop
  endfacet
  facet normal 1 0 0
    outer loop
      vertex 22.75 0 21.9872
      vertex 22.75 3.125 21.9872
      vertex 22.75 3.125 25.1122
    endloop
  endfacet
  facet normal 1 0 0
    outer loop
      vertex 22.75 0 21.9872
      vertex 22.75 3.125 25.1122
      vertex 22.75 0 25.1122
    endloop
  endfacet
  facet normal 1 0 0
    outer loop
      vertex 22.75 3.125 21.9872
      vertex 22.75 0 21.9872
      vertex 22.75 3.125 15.734
    endloop
  endfacet
  facet normal 1 0 0
    outer loop
      vertex 22.75 -3.125 15.734
      vertex 22.75 0 21.9872
      vertex 22.75 -3.125 21.9872
    endloop
  endfacet
  facet normal 1 0 0
    outer loop
      vertex 22.75 0 21.9872
      vertex 22.75 -3.125 15.734
      vertex 22.75 3.125 15.734
    endloop
  endfacet
  facet normal 1 -0 0
    outer loop
      vertex 22.75 -18.7563 40.7434
      vertex 22.75 -15.6281 37.6153
      vertex 22.75 -15.6281 40.7434
    endloop
  endfacet
  facet normal 1 0 0
    outer loop
      vertex 22.75 -15.6281 37.6153
      vertex 22.75 -18.7563 40.7434
      vertex 22.75 -18.7563 37.6153
    endloop
  endfacet
  facet normal 1 -0 0
    outer loop
      vertex 22.75 15.6281 40.7434
      vertex 22.75 18.7562 37.6153
      vertex 22.75 18.7562 40.7434
    endloop
  endfacet
  facet normal 1 0 0
    outer loop
      vertex 22.75 18.7562 37.6153
      vertex 22.75 15.6281 40.7434
      vertex 22.75 15.6281 37.6153
    endloop
  endfacet
  facet normal 0 0 1
    outer loop
      vertex 22.75 22.75 43.8776
      vertex 21.5 21.5 43.8776
      vertex 22.75 -22.75 43.8776
    endloop
  endfacet
  facet normal 0 0 1
    outer loop
      vertex 22.75 22.75 43.8776
      vertex -21.5 21.5 43.8776
      vertex 21.5 21.5 43.8776
    endloop
  endfacet
  facet normal 0 0 1
    outer loop
      vertex -21.5 21.5 43.8776
      vertex -22.75 22.75 43.8776
      vertex -21.5 -21.5 43.8776
    endloop
  endfacet
  facet normal -0 0 1
    outer loop
      vertex -22.75 22.75 43.8776
      vertex -21.5 21.5 43.8776
      vertex 22.75 22.75 43.8776
    endloop
  endfacet
  facet normal -0 0 1
    outer loop
      vertex 21.5 -21.5 43.8776
      vertex 22.75 -22.75 43.8776
      vertex 21.5 21.5 43.8776
    endloop
  endfacet
  facet normal -0 0 1
    outer loop
      vertex -21.5 -21.5 43.8776
      vertex 22.75 -22.75 43.8776
      vertex 21.5 -21.5 43.8776
    endloop
  endfacet
  facet normal 0 0 1
    outer loop
      vertex -21.5 -21.5 43.8776
      vertex -22.75 -22.75 43.8776
      vertex 22.75 -22.75 43.8776
    endloop
  endfacet
  facet normal 0 0 1
    outer loop
      vertex -22.75 -22.75 43.8776
      vertex -21.5 -21.5 43.8776
      vertex -22.75 22.75 43.8776
    endloop
  endfacet
  facet normal -1 0 0
    outer loop
      vertex -22.75 -21.8813 13.25
      vertex -22.75 -22.75 13.25
      vertex -22.75 -21.8813 43.8684
    endloop
  endfacet
  facet normal -1 0 0
    outer loop
      vertex -22.75 21.8812 43.8684
      vertex -22.75 22.75 13.25
      vertex -22.75 21.8812 13.25
    endloop
  endfacet
  facet normal -1 0 0
    outer loop
      vertex -22.75 22.75 13.25
      vertex -22.75 21.8812 43.8684
      vertex -22.75 22.75 43.8776
    endloop
  endfacet
  facet normal -1 0 0
    outer loop
      vertex -22.75 -21.8813 43.8684
      vertex -22.75 22.75 43.8776
      vertex -22.75 21.8812 43.8684
    endloop
  endfacet
  facet normal -1 0 0
    outer loop
      vertex -22.75 -21.8813 43.8684
      vertex -22.75 -22.75 43.8776
      vertex -22.75 22.75 43.8776
    endloop
  endfacet
  facet normal -1 0 0
    outer loop
      vertex -22.75 -22.75 43.8776
      vertex -22.75 -21.8813 43.8684
      vertex -22.75 -22.75 13.25
    endloop
  endfacet
  facet normal -1 0 0
    outer loop
      vertex -22.75 3.125 15.734
      vertex -22.75 0 21.9872
      vertex -22.75 3.125 21.9872
    endloop
  endfacet
  facet normal -1 0 0
    outer loop
      vertex -22.75 -3.125 15.734
      vertex -22.75 0 21.9872
      vertex -22.75 3.125 15.734
    endloop
  endfacet
  facet normal -1 0 0
    outer loop
      vertex -22.75 -3.125 21.9872
      vertex -22.75 0 21.9872
      vertex -22.75 -3.125 15.734
    endloop
  endfacet
  facet normal -1 0 0
    outer loop
      vertex -22.75 0 21.9872
      vertex -22.75 -3.125 21.9872
      vertex -22.75 0 25.1122
    endloop
  endfacet
  facet normal -1 0 0
    outer loop
      vertex -22.75 -3.125 21.9872
      vertex -22.75 -3.125 25.1122
      vertex -22.75 0 25.1122
    endloop
  endfacet
  facet normal -1 0 0
    outer loop
      vertex -22.75 -9.37812 21.9872
      vertex -22.75 -3.125 25.1122
      vertex -22.75 -3.125 21.9872
    endloop
  endfacet
  facet normal -1 0 0
    outer loop
      vertex -22.75 -3.125 25.1122
      vertex -22.75 -6.25312 34.4903
      vertex -22.75 -3.125 34.4903
    endloop
  endfacet
  facet normal -1 0 0
    outer loop
      vertex -22.75 -9.37812 34.4903
      vertex -22.75 -3.125 25.1122
      vertex -22.75 -9.37812 21.9872
    endloop
  endfacet
  facet normal -1 0 0
    outer loop
      vertex -22.75 -3.125 25.1122
      vertex -22.75 -9.37812 34.4903
      vertex -22.75 -6.25312 34.4903
    endloop
  endfacet
  facet normal -1 0 0
    outer loop
      vertex -22.75 12.5031 25.1122
      vertex -22.75 9.37812 34.4903
      vertex -22.75 12.5031 34.4903
    endloop
  endfacet
  facet normal -1 0 0
    outer loop
      vertex -22.75 6.25312 25.1122
      vertex -22.75 9.37812 34.4903
      vertex -22.75 12.5031 25.1122
    endloop
  endfacet
  facet normal -1 0 0
    outer loop
      vertex -22.75 6.25312 34.4903
      vertex -22.75 9.37812 34.4903
      vertex -22.75 6.25312 25.1122
    endloop
  endfacet
  facet normal -1 0 0
    outer loop
      vertex -22.75 9.37812 34.4903
      vertex -22.75 6.25312 34.4903
      vertex -22.75 9.37812 37.6153
    endloop
  endfacet
  facet normal -1 0 0
    outer loop
      vertex -22.75 -3.125 34.4903
      vertex -22.75 9.37812 37.6153
      vertex -22.75 6.25312 34.4903
    endloop
  endfacet
  facet normal -1 0 0
    outer loop
      vertex -22.75 -6.25312 37.6153
      vertex -22.75 -3.125 34.4903
      vertex -22.75 -6.25312 34.4903
    endloop
  endfacet
  facet normal -1 0 0
    outer loop
      vertex -22.75 -3.125 34.4903
      vertex -22.75 -6.25312 37.6153
      vertex -22.75 9.37812 37.6153
    endloop
  endfacet
  facet normal -1 0 0
    outer loop
      vertex -22.75 15.6281 37.6153
      vertex -22.75 18.7562 40.7434
      vertex -22.75 18.7562 37.6153
    endloop
  endfacet
  facet normal -1 -0 0
    outer loop
      vertex -22.75 18.7562 40.7434
      vertex -22.75 15.6281 37.6153
      vertex -22.75 15.6281 40.7434
    endloop
  endfacet
  facet normal -1 0 0
    outer loop
      vertex -22.75 -18.7563 37.6153
      vertex -22.75 -15.6281 40.7434
      vertex -22.75 -15.6281 37.6153
    endloop
  endfacet
  facet normal -1 -0 0
    outer loop
      vertex -22.75 -15.6281 40.7434
      vertex -22.75 -18.7563 37.6153
      vertex -22.75 -18.7563 40.7434
    endloop
  endfacet
  facet normal 0 1 0
    outer loop
      vertex 22.75 22.75 43.8776
      vertex 21.8813 22.75 43.8684
      vertex -22.75 22.75 43.8776
    endloop
  endfacet
  facet normal 0 1 -0
    outer loop
      vertex 22.75 22.75 13.25
      vertex 21.8813 22.75 43.8684
      vertex 22.75 22.75 43.8776
    endloop
  endfacet
  facet normal 0 1 0
    outer loop
      vertex 21.8813 22.75 43.8684
      vertex 22.75 22.75 13.25
      vertex 21.8813 22.75 13.25
    endloop
  endfacet
  facet normal 0 1 -0
    outer loop
      vertex -21.8812 22.75 43.8684
      vertex -22.75 22.75 43.8776
      vertex 21.8813 22.75 43.8684
    endloop
  endfacet
  facet normal 0 1 0
    outer loop
      vertex -22.75 22.75 13.25
      vertex -21.8812 22.75 43.8684
      vertex -21.8812 22.75 13.25
    endloop
  endfacet
  facet normal 0 1 0
    outer loop
      vertex -21.8812 22.75 43.8684
      vertex -22.75 22.75 13.25
      vertex -22.75 22.75 43.8776
    endloop
  endfacet
  facet normal 0 1 -0
    outer loop
      vertex -15.6281 22.75 37.6153
      vertex -18.7562 22.75 40.7434
      vertex -15.6281 22.75 40.7434
    endloop
  endfacet
  facet normal 0 1 0
    outer loop
      vertex -18.7562 22.75 40.7434
      vertex -15.6281 22.75 37.6153
      vertex -18.7562 22.75 37.6153
    endloop
  endfacet
  facet normal 0 1 0
    outer loop
      vertex 0 22.75 25.1122
      vertex 0 22.75 21.9872
      vertex -3.125 22.75 25.1122
    endloop
  endfacet
  facet normal 0 1 0
    outer loop
      vertex 6.25312 22.75 34.4903
      vertex 9.37812 22.75 37.6153
      vertex 9.37812 22.75 34.4903
    endloop
  endfacet
  facet normal 0 1 0
    outer loop
      vertex 9.37812 22.75 37.6153
      vertex 6.25312 22.75 34.4903
      vertex -6.25312 22.75 37.6153
    endloop
  endfacet
  facet normal 0 1 -0
    outer loop
      vertex -3.125 22.75 34.4903
      vertex -6.25312 22.75 37.6153
      vertex 6.25312 22.75 34.4903
    endloop
  endfacet
  facet normal 0 1 0
    outer loop
      vertex -3.125 22.75 34.4903
      vertex -6.25312 22.75 34.4903
      vertex -6.25312 22.75 37.6153
    endloop
  endfacet
  facet normal 0 1 -0
    outer loop
      vertex -3.125 22.75 25.1122
      vertex -6.25312 22.75 34.4903
      vertex -3.125 22.75 34.4903
    endloop
  endfacet
  facet normal 0 1 0
    outer loop
      vertex -6.25312 22.75 34.4903
      vertex -3.125 22.75 25.1122
      vertex -9.37812 22.75 34.4903
    endloop
  endfacet
  facet normal 0 1 0
    outer loop
      vertex -3.125 22.75 21.9872
      vertex -3.125 22.75 25.1122
      vertex 0 22.75 21.9872
    endloop
  endfacet
  facet normal 0 1 0
    outer loop
      vertex -9.37812 22.75 21.9872
      vertex -3.125 22.75 25.1122
      vertex -3.125 22.75 21.9872
    endloop
  endfacet
  facet normal 0 1 0
    outer loop
      vertex -3.125 22.75 25.1122
      vertex -9.37812 22.75 21.9872
      vertex -9.37812 22.75 34.4903
    endloop
  endfacet
  facet normal 0 1 -0
    outer loop
      vertex 12.5031 22.75 25.1122
      vertex 9.37812 22.75 34.4903
      vertex 12.5031 22.75 34.4903
    endloop
  endfacet
  facet normal 0 1 0
    outer loop
      vertex 6.25312 22.75 25.1122
      vertex 9.37812 22.75 34.4903
      vertex 12.5031 22.75 25.1122
    endloop
  endfacet
  facet normal 0 1 0
    outer loop
      vertex 9.37812 22.75 34.4903
      vertex 6.25312 22.75 25.1122
      vertex 6.25312 22.75 34.4903
    endloop
  endfacet
  facet normal 0 1 -0
    outer loop
      vertex 3.125 22.75 15.734
      vertex 0 22.75 21.9872
      vertex 3.125 22.75 21.9872
    endloop
  endfacet
  facet normal 0 1 0
    outer loop
      vertex -3.125 22.75 15.734
      vertex 0 22.75 21.9872
      vertex 3.125 22.75 15.734
    endloop
  endfacet
  facet normal 0 1 0
    outer loop
      vertex 0 22.75 21.9872
      vertex -3.125 22.75 15.734
      vertex -3.125 22.75 21.9872
    endloop
  endfacet
  facet normal 0 1 -0
    outer loop
      vertex 18.7563 22.75 37.6153
      vertex 15.6281 22.75 40.7434
      vertex 18.7563 22.75 40.7434
    endloop
  endfacet
  facet normal 0 1 0
    outer loop
      vertex 15.6281 22.75 40.7434
      vertex 18.7563 22.75 37.6153
      vertex 15.6281 22.75 37.6153
    endloop
  endfacet
  facet normal 0 -1 0
    outer loop
      vertex -22.75 -22.75 43.8776
      vertex -21.8812 -22.75 43.8684
      vertex 22.75 -22.75 43.8776
    endloop
  endfacet
  facet normal 0 -1 0
    outer loop
      vertex -22.75 -22.75 13.25
      vertex -21.8812 -22.75 43.8684
      vertex -22.75 -22.75 43.8776
    endloop
  endfacet
  facet normal 0 -1 -0
    outer loop
      vertex -21.8812 -22.75 43.8684
      vertex -22.75 -22.75 13.25
      vertex -21.8812 -22.75 13.25
    endloop
  endfacet
  facet normal 0 -1 0
    outer loop
      vertex 21.8813 -22.75 43.8684
      vertex 22.75 -22.75 43.8776
      vertex -21.8812 -22.75 43.8684
    endloop
  endfacet
  facet normal 0 -1 0
    outer loop
      vertex 22.75 -22.75 13.25
      vertex 21.8813 -22.75 43.8684
      vertex 21.8813 -22.75 13.25
    endloop
  endfacet
  facet normal 0 -1 0
    outer loop
      vertex 21.8813 -22.75 43.8684
      vertex 22.75 -22.75 13.25
      vertex 22.75 -22.75 43.8776
    endloop
  endfacet
  facet normal 0 -1 0
    outer loop
      vertex -18.7562 -22.75 37.6153
      vertex -15.6281 -22.75 40.7434
      vertex -18.7562 -22.75 40.7434
    endloop
  endfacet
  facet normal 0 -1 -0
    outer loop
      vertex -15.6281 -22.75 40.7434
      vertex -18.7562 -22.75 37.6153
      vertex -15.6281 -22.75 37.6153
    endloop
  endfacet
  facet normal 0 -1 0
    outer loop
      vertex 0 -22.75 25.1122
      vertex 0 -22.75 21.9872
      vertex 3.125 -22.75 25.1122
    endloop
  endfacet
  facet normal 0 -1 0
    outer loop
      vertex -6.25312 -22.75 34.4903
      vertex -9.37812 -22.75 37.6153
      vertex -9.37812 -22.75 34.4903
    endloop
  endfacet
  facet normal 0 -1 0
    outer loop
      vertex -9.37812 -22.75 37.6153
      vertex -6.25312 -22.75 34.4903
      vertex 6.25312 -22.75 37.6153
    endloop
  endfacet
  facet normal 0 -1 0
    outer loop
      vertex 3.125 -22.75 34.4903
      vertex 6.25312 -22.75 37.6153
      vertex -6.25312 -22.75 34.4903
    endloop
  endfacet
  facet normal 0 -1 0
    outer loop
      vertex 3.125 -22.75 34.4903
      vertex 6.25312 -22.75 34.4903
      vertex 6.25312 -22.75 37.6153
    endloop
  endfacet
  facet normal 0 -1 0
    outer loop
      vertex 3.125 -22.75 25.1122
      vertex 6.25312 -22.75 34.4903
      vertex 3.125 -22.75 34.4903
    endloop
  endfacet
  facet normal 0 -1 -0
    outer loop
      vertex 6.25312 -22.75 34.4903
      vertex 3.125 -22.75 25.1122
      vertex 9.37812 -22.75 34.4903
    endloop
  endfacet
  facet normal 0 -1 0
    outer loop
      vertex 3.125 -22.75 21.9872
      vertex 3.125 -22.75 25.1122
      vertex 0 -22.75 21.9872
    endloop
  endfacet
  facet normal 0 -1 0
    outer loop
      vertex 9.37812 -22.75 21.9872
      vertex 3.125 -22.75 25.1122
      vertex 3.125 -22.75 21.9872
    endloop
  endfacet
  facet normal 0 -1 0
    outer loop
      vertex 3.125 -22.75 25.1122
      vertex 9.37812 -22.75 21.9872
      vertex 9.37812 -22.75 34.4903
    endloop
  endfacet
  facet normal 0 -1 0
    outer loop
      vertex -12.5031 -22.75 25.1122
      vertex -9.37812 -22.75 34.4903
      vertex -12.5031 -22.75 34.4903
    endloop
  endfacet
  facet normal 0 -1 0
    outer loop
      vertex -6.25312 -22.75 25.1122
      vertex -9.37812 -22.75 34.4903
      vertex -12.5031 -22.75 25.1122
    endloop
  endfacet
  facet normal 0 -1 0
    outer loop
      vertex -9.37812 -22.75 34.4903
      vertex -6.25312 -22.75 25.1122
      vertex -6.25312 -22.75 34.4903
    endloop
  endfacet
  facet normal 0 -1 0
    outer loop
      vertex -3.125 -22.75 15.734
      vertex 0 -22.75 21.9872
      vertex -3.125 -22.75 21.9872
    endloop
  endfacet
  facet normal 0 -1 0
    outer loop
      vertex 3.125 -22.75 15.734
      vertex 0 -22.75 21.9872
      vertex -3.125 -22.75 15.734
    endloop
  endfacet
  facet normal 0 -1 0
    outer loop
      vertex 0 -22.75 21.9872
      vertex 3.125 -22.75 15.734
      vertex 3.125 -22.75 21.9872
    endloop
  endfacet
  facet normal 0 -1 0
    outer loop
      vertex 15.6281 -22.75 37.6153
      vertex 18.7563 -22.75 40.7434
      vertex 15.6281 -22.75 40.7434
    endloop
  endfacet
  facet normal 0 -1 -0
    outer loop
      vertex 18.7563 -22.75 40.7434
      vertex 15.6281 -22.75 37.6153
      vertex 18.7563 -22.75 37.6153
    endloop
  endfacet
  facet normal 1 -0 0
    outer loop
      vertex 21.75 -21.75 13.25
      vertex 21.75 21.75 6.66667
      vertex 21.75 21.75 13.25
    endloop
  endfacet
  facet normal 1 0 0
    outer loop
      vertex 21.75 21.75 6.66667
      vertex 21.75 -21.75 13.25
      vertex 21.75 -21.75 6.66667
    endloop
  endfacet
  facet normal -1 0 0
    outer loop
      vertex -21.75 -21.75 6.66667
      vertex -21.75 21.75 13.25
      vertex -21.75 21.75 6.66667
    endloop
  endfacet
  facet normal -1 -0 0
    outer loop
      vertex -21.75 21.75 13.25
      vertex -21.75 -21.75 6.66667
      vertex -21.75 -21.75 13.25
    endloop
  endfacet
  facet normal 0 1 -0
    outer loop
      vertex 21.75 21.75 6.66667
      vertex -21.75 21.75 13.25
      vertex 21.75 21.75 13.25
    endloop
  endfacet
  facet normal 0 1 0
    outer loop
      vertex -21.75 21.75 13.25
      vertex 21.75 21.75 6.66667
      vertex -21.75 21.75 6.66667
    endloop
  endfacet
  facet normal 0 -1 0
    outer loop
      vertex -21.75 -21.75 6.66667
      vertex 21.75 -21.75 13.25
      vertex -21.75 -21.75 13.25
    endloop
  endfacet
  facet normal 0 -1 -0
    outer loop
      vertex 21.75 -21.75 13.25
      vertex -21.75 -21.75 6.66667
      vertex 21.75 -21.75 6.66667
    endloop
  endfacet
  facet normal 0 0 -1
    outer loop
      vertex -23.4375 21.8812 13.25
      vertex -21.75 21.75 13.25
      vertex -23.4375 -21.8813 13.25
    endloop
  endfacet
  facet normal 0 0 -1
    outer loop
      vertex -21.75 21.75 13.25
      vertex -23.4375 21.8812 13.25
      vertex -22.75 21.8812 13.25
    endloop
  endfacet
  facet normal 0 0 -1
    outer loop
      vertex -23.4375 -21.8813 13.25
      vertex -21.75 -21.75 13.25
      vertex -22.75 -21.8813 13.25
    endloop
  endfacet
  facet normal -0 0 -1
    outer loop
      vertex -21.75 -21.75 13.25
      vertex -23.4375 -21.8813 13.25
      vertex -21.75 21.75 13.25
    endloop
  endfacet
  facet normal 0 0 -1
    outer loop
      vertex -21.75 21.75 13.25
      vertex -22.75 21.8812 13.25
      vertex -21.8812 22.75 13.25
    endloop
  endfacet
  facet normal -0 0 -1
    outer loop
      vertex -21.8812 22.75 13.25
      vertex -22.75 21.8812 13.25
      vertex -22.75 22.75 13.25
    endloop
  endfacet
  facet normal 0 0 -1
    outer loop
      vertex 21.75 -21.75 13.25
      vertex 21.8813 -22.75 13.25
      vertex 21.8813 -23.4375 13.25
    endloop
  endfacet
  facet normal 0 0 -1
    outer loop
      vertex 21.8813 -22.75 13.25
      vertex 21.75 -21.75 13.25
      vertex 21.8813 22.75 13.25
    endloop
  endfacet
  facet normal 0 0 -1
    outer loop
      vertex 21.75 21.75 13.25
      vertex 21.8813 22.75 13.25
      vertex 21.75 -21.75 13.25
    endloop
  endfacet
  facet normal 0 0 -1
    outer loop
      vertex 21.8813 -23.4375 13.25
      vertex -21.75 -21.75 13.25
      vertex 21.75 -21.75 13.25
    endloop
  endfacet
  facet normal 0 0 -1
    outer loop
      vertex -21.8812 -22.75 13.25
      vertex -21.75 -21.75 13.25
      vertex -21.8812 -23.4375 13.25
    endloop
  endfacet
  facet normal 0 0 -1
    outer loop
      vertex -21.8812 -23.4375 13.25
      vertex -21.75 -21.75 13.25
      vertex 21.8813 -23.4375 13.25
    endloop
  endfacet
  facet normal 0 0 -1
    outer loop
      vertex 21.8813 -22.75 13.25
      vertex 22.75 -21.8813 13.25
      vertex 22.75 -22.75 13.25
    endloop
  endfacet
  facet normal -0 0 -1
    outer loop
      vertex 22.75 -21.8813 13.25
      vertex 21.8813 -22.75 13.25
      vertex 22.75 21.8812 13.25
    endloop
  endfacet
  facet normal 0 0 -1
    outer loop
      vertex 21.8813 22.75 13.25
      vertex 22.75 21.8812 13.25
      vertex 21.8813 -22.75 13.25
    endloop
  endfacet
  facet normal 0 0 -1
    outer loop
      vertex 22.75 21.8812 13.25
      vertex 21.8813 22.75 13.25
      vertex 22.75 22.75 13.25
    endloop
  endfacet
  facet normal 0 0 -1
    outer loop
      vertex 22.75 -21.8813 13.25
      vertex 23.4375 21.8812 13.25
      vertex 23.4375 -21.8813 13.25
    endloop
  endfacet
  facet normal -0 0 -1
    outer loop
      vertex 23.4375 21.8812 13.25
      vertex 22.75 -21.8813 13.25
      vertex 22.75 21.8812 13.25
    endloop
  endfacet
  facet normal -0 0 -1
    outer loop
      vertex 21.8813 22.75 13.25
      vertex 21.75 21.75 13.25
      vertex 21.8813 23.4375 13.25
    endloop
  endfacet
  facet normal 0 0 -1
    outer loop
      vertex -21.75 21.75 13.25
      vertex 21.8813 23.4375 13.25
      vertex 21.75 21.75 13.25
    endloop
  endfacet
  facet normal 0 0 -1
    outer loop
      vertex -22.75 -21.8813 13.25
      vertex -21.8812 -22.75 13.25
      vertex -22.75 -22.75 13.25
    endloop
  endfacet
  facet normal 0 0 -1
    outer loop
      vertex -21.8812 -22.75 13.25
      vertex -22.75 -21.8813 13.25
      vertex -21.75 -21.75 13.25
    endloop
  endfacet
  facet normal 0 0 -1
    outer loop
      vertex -21.8812 23.4375 13.25
      vertex -21.75 21.75 13.25
      vertex -21.8812 22.75 13.25
    endloop
  endfacet
  facet normal 0 0 -1
    outer loop
      vertex -21.75 21.75 13.25
      vertex -21.8812 23.4375 13.25
      vertex 21.8813 23.4375 13.25
    endloop
  endfacet
  facet normal -1 0 0
    outer loop
      vertex 20 -20 6.66667
      vertex 20 20 13.5
      vertex 20 20 6.66667
    endloop
  endfacet
  facet normal -1 -0 0
    outer loop
      vertex 20 20 13.5
      vertex 20 -20 6.66667
      vertex 20 -20 13.5
    endloop
  endfacet
  facet normal 1 -0 0
    outer loop
      vertex -20 -20 13.5
      vertex -20 20 6.66667
      vertex -20 20 13.5
    endloop
  endfacet
  facet normal 1 0 0
    outer loop
      vertex -20 20 6.66667
      vertex -20 -20 13.5
      vertex -20 -20 6.66667
    endloop
  endfacet
  facet normal 0 -1 0
    outer loop
      vertex -20 20 6.66667
      vertex 20 20 13.5
      vertex -20 20 13.5
    endloop
  endfacet
  facet normal 0 -1 -0
    outer loop
      vertex 20 20 13.5
      vertex -20 20 6.66667
      vertex 20 20 6.66667
    endloop
  endfacet
  facet normal 0 1 -0
    outer loop
      vertex 20 -20 6.66667
      vertex -20 -20 13.5
      vertex 20 -20 13.5
    endloop
  endfacet
  facet normal 0 1 0
    outer loop
      vertex -20 -20 13.5
      vertex 20 -20 6.66667
      vertex -20 -20 6.66667
    endloop
  endfacet
  facet normal -1 0 0
    outer loop
      vertex 21.5 -21.5 13.5
      vertex 21.5 21.5 43.8776
      vertex 21.5 21.5 13.5
    endloop
  endfacet
  facet normal -1 -0 0
    outer loop
      vertex 21.5 21.5 43.8776
      vertex 21.5 -21.5 13.5
      vertex 21.5 -21.5 43.8776
    endloop
  endfacet
  facet normal 0 0 1
    outer loop
      vertex 21.5 21.5 13.5
      vertex 20 20 13.5
      vertex 21.5 -21.5 13.5
    endloop
  endfacet
  facet normal 0 0 1
    outer loop
      vertex 21.5 21.5 13.5
      vertex -20 20 13.5
      vertex 20 20 13.5
    endloop
  endfacet
  facet normal 0 0 1
    outer loop
      vertex -20 20 13.5
      vertex -21.5 21.5 13.5
      vertex -20 -20 13.5
    endloop
  endfacet
  facet normal -0 0 1
    outer loop
      vertex -21.5 21.5 13.5
      vertex -20 20 13.5
      vertex 21.5 21.5 13.5
    endloop
  endfacet
  facet normal -0 0 1
    outer loop
      vertex 20 -20 13.5
      vertex 21.5 -21.5 13.5
      vertex 20 20 13.5
    endloop
  endfacet
  facet normal -0 0 1
    outer loop
      vertex -20 -20 13.5
      vertex 21.5 -21.5 13.5
      vertex 20 -20 13.5
    endloop
  endfacet
  facet normal 0 0 1
    outer loop
      vertex -20 -20 13.5
      vertex -21.5 -21.5 13.5
      vertex 21.5 -21.5 13.5
    endloop
  endfacet
  facet normal 0 0 1
    outer loop
      vertex -21.5 -21.5 13.5
      vertex -20 -20 13.5
      vertex -21.5 21.5 13.5
    endloop
  endfacet
  facet normal 1 -0 0
    outer loop
      vertex -21.5 -21.5 43.8776
      vertex -21.5 21.5 13.5
      vertex -21.5 21.5 43.8776
    endloop
  endfacet
  facet normal 1 0 0
    outer loop
      vertex -21.5 21.5 13.5
      vertex -21.5 -21.5 43.8776
      vertex -21.5 -21.5 13.5
    endloop
  endfacet
  facet normal 0 -1 0
    outer loop
      vertex -21.5 21.5 13.5
      vertex 21.5 21.5 43.8776
      vertex -21.5 21.5 43.8776
    endloop
  endfacet
  facet normal 0 -1 -0
    outer loop
      vertex 21.5 21.5 43.8776
      vertex -21.5 21.5 13.5
      vertex 21.5 21.5 13.5
    endloop
  endfacet
  facet normal 0 1 -0
    outer loop
      vertex 21.5 -21.5 13.5
      vertex -21.5 -21.5 43.8776
      vertex 21.5 -21.5 43.8776
    endloop
  endfacet
  facet normal 0 1 0
    outer loop
      vertex -21.5 -21.5 43.8776
      vertex 21.5 -21.5 13.5
      vertex -21.5 -21.5 13.5
    endloop
  endfacet
  facet normal 0 0 -1
    outer loop
      vertex 21.75 -21.75 6.66667
      vertex 20 -20 6.66667
      vertex 21.75 21.75 6.66667
    endloop
  endfacet
  facet normal 0 0 -1
    outer loop
      vertex 21.75 -21.75 6.66667
      vertex -20 -20 6.66667
      vertex 20 -20 6.66667
    endloop
  endfacet
  facet normal -0 0 -1
    outer loop
      vertex -20 -20 6.66667
      vertex -21.75 -21.75 6.66667
      vertex -20 20 6.66667
    endloop
  endfacet
  facet normal 0 0 -1
    outer loop
      vertex -21.75 -21.75 6.66667
      vertex -20 -20 6.66667
      vertex 21.75 -21.75 6.66667
    endloop
  endfacet
  facet normal 0 0 -1
    outer loop
      vertex 20 20 6.66667
      vertex 21.75 21.75 6.66667
      vertex 20 -20 6.66667
    endloop
  endfacet
  facet normal 0 0 -1
    outer loop
      vertex -20 20 6.66667
      vertex 21.75 21.75 6.66667
      vertex 20 20 6.66667
    endloop
  endfacet
  facet normal 0 0 -1
    outer loop
      vertex -20 20 6.66667
      vertex -21.75 21.75 6.66667
      vertex 21.75 21.75 6.66667
    endloop
  endfacet
  facet normal 0 0 -1
    outer loop
      vertex -21.75 21.75 6.66667
      vertex -20 20 6.66667
      vertex -21.75 -21.75 6.66667
    endloop
  endfacet
endsolid OpenSCAD_Model
