solid OpenSCAD_Model
  facet normal 1 0 0
    outer loop
      vertex 46.875 6.25 68.9806
      vertex 46.875 0 50.2243
      vertex 46.875 6.25 50.2243
    endloop
  endfacet
  facet normal 1 0 0
    outer loop
      vertex 46.875 0 50.2243
      vertex 46.875 -6.25 43.9743
      vertex 46.875 0 43.9743
    endloop
  endfacet
  facet normal 1 -0 0
    outer loop
      vertex 46.875 -12.5062 68.9806
      vertex 46.875 0 50.2243
      vertex 46.875 6.25 68.9806
    endloop
  endfacet
  facet normal 1 0 0
    outer loop
      vertex 46.875 0 50.2243
      vertex 46.875 -12.5062 50.2243
      vertex 46.875 -6.25 43.9743
    endloop
  endfacet
  facet normal 1 0 0
    outer loop
      vertex 46.875 0 50.2243
      vertex 46.875 -12.5062 68.9806
      vertex 46.875 -12.5062 50.2243
    endloop
  endfacet
  facet normal 1 0 0
    outer loop
      vertex 46.875 37.5125 75.2306
      vertex 46.875 43.7625 87.7368
      vertex 46.875 37.5125 81.4868
    endloop
  endfacet
  facet normal 1 0 0
    outer loop
      vertex 46.875 43.7625 87.7368
      vertex 46.875 31.2562 81.4868
      vertex 46.875 37.5125 81.4868
    endloop
  endfacet
  facet normal 1 0 0
    outer loop
      vertex 46.875 31.2562 81.4868
      vertex 46.875 18.7562 68.9806
      vertex 46.875 31.2562 75.2306
    endloop
  endfacet
  facet normal 1 0 0
    outer loop
      vertex 46.875 31.2562 81.4868
      vertex 46.875 12.5062 75.2306
      vertex 46.875 18.7562 68.9806
    endloop
  endfacet
  facet normal 1 0 0
    outer loop
      vertex 46.875 -31.2562 81.4868
      vertex 46.875 31.2562 81.4868
      vertex 46.875 43.7625 87.7368
    endloop
  endfacet
  facet normal 1 0 0
    outer loop
      vertex 46.875 31.2562 81.4868
      vertex 46.875 -31.2562 81.4868
      vertex 46.875 12.5062 75.2306
    endloop
  endfacet
  facet normal 1 0 0
    outer loop
      vertex 46.875 -18.7562 75.2306
      vertex 46.875 -25.0062 68.9806
      vertex 46.875 -18.7562 68.9806
    endloop
  endfacet
  facet normal 1 0 0
    outer loop
      vertex 46.875 -18.7562 75.2306
      vertex 46.875 -31.2562 75.2306
      vertex 46.875 -25.0062 68.9806
    endloop
  endfacet
  facet normal 1 0 0
    outer loop
      vertex 46.875 -31.2562 75.2306
      vertex 46.875 -18.7562 75.2306
      vertex 46.875 -31.2562 81.4868
    endloop
  endfacet
  facet normal 1 0 0
    outer loop
      vertex 46.875 12.5062 75.2306
      vertex 46.875 -31.2562 81.4868
      vertex 46.875 -18.7562 75.2306
    endloop
  endfacet
  facet normal 1 -0 0
    outer loop
      vertex 46.875 -43.7625 87.7368
      vertex 46.875 -31.2562 81.4868
      vertex 46.875 43.7625 87.7368
    endloop
  endfacet
  facet normal 1 0 0
    outer loop
      vertex 46.875 -37.5125 81.4868
      vertex 46.875 -43.7625 87.7368
      vertex 46.875 -37.5125 75.2306
    endloop
  endfacet
  facet normal 1 0 0
    outer loop
      vertex 46.875 -31.2562 81.4868
      vertex 46.875 -43.7625 87.7368
      vertex 46.875 -37.5125 81.4868
    endloop
  endfacet
  facet normal 1 0 0
    outer loop
      vertex 46.875 43.7625 87.7368
      vertex 46.875 37.5125 75.2306
      vertex 46.875 43.7625 26.5
    endloop
  endfacet
  facet normal 1 0 0
    outer loop
      vertex 46.875 18.7562 43.9743
      vertex 46.875 37.5125 75.2306
      vertex 46.875 31.2562 75.2306
    endloop
  endfacet
  facet normal 1 0 0
    outer loop
      vertex 46.875 18.7562 43.9743
      vertex 46.875 31.2562 75.2306
      vertex 46.875 18.7562 68.9806
    endloop
  endfacet
  facet normal 1 0 0
    outer loop
      vertex 46.875 37.5125 75.2306
      vertex 46.875 18.7562 43.9743
      vertex 46.875 43.7625 26.5
    endloop
  endfacet
  facet normal 1 0 0
    outer loop
      vertex 46.875 6.25 31.4681
      vertex 46.875 18.7562 43.9743
      vertex 46.875 6.25 43.9743
    endloop
  endfacet
  facet normal 1 0 0
    outer loop
      vertex 46.875 18.7562 43.9743
      vertex 46.875 6.25 31.4681
      vertex 46.875 43.7625 26.5
    endloop
  endfacet
  facet normal 1 -0 0
    outer loop
      vertex 46.875 -6.25 31.4681
      vertex 46.875 43.7625 26.5
      vertex 46.875 6.25 31.4681
    endloop
  endfacet
  facet normal 1 0 0
    outer loop
      vertex 46.875 -6.25 43.9743
      vertex 46.875 -12.5062 50.2243
      vertex 46.875 -6.25 31.4681
    endloop
  endfacet
  facet normal 1 -0 0
    outer loop
      vertex 46.875 -25.0062 50.2243
      vertex 46.875 -6.25 31.4681
      vertex 46.875 -12.5062 50.2243
    endloop
  endfacet
  facet normal 1 -0 0
    outer loop
      vertex 46.875 -37.5125 75.2306
      vertex 46.875 -25.0062 68.9806
      vertex 46.875 -31.2562 75.2306
    endloop
  endfacet
  facet normal 1 0 0
    outer loop
      vertex 46.875 -25.0062 68.9806
      vertex 46.875 -37.5125 75.2306
      vertex 46.875 -25.0062 50.2243
    endloop
  endfacet
  facet normal 1 0 0
    outer loop
      vertex 46.875 -6.25 31.4681
      vertex 46.875 -43.7625 26.5
      vertex 46.875 43.7625 26.5
    endloop
  endfacet
  facet normal 1 0 0
    outer loop
      vertex 46.875 -25.0062 50.2243
      vertex 46.875 -43.7625 26.5
      vertex 46.875 -6.25 31.4681
    endloop
  endfacet
  facet normal 1 0 0
    outer loop
      vertex 46.875 -37.5125 75.2306
      vertex 46.875 -43.7625 26.5
      vertex 46.875 -25.0062 50.2243
    endloop
  endfacet
  facet normal 1 0 0
    outer loop
      vertex 46.875 -43.7625 26.5
      vertex 46.875 -37.5125 75.2306
      vertex 46.875 -43.7625 87.7368
    endloop
  endfacet
  facet normal 1 0 0
    outer loop
      vertex 46.875 18.7562 68.9806
      vertex 46.875 12.5062 75.2306
      vertex 46.875 12.5062 68.9806
    endloop
  endfacet
  facet normal -0 0 1
    outer loop
      vertex 31.2562 -45.5 75.2306
      vertex 37.5125 -46.875 75.2306
      vertex 37.5125 -45.5 75.2306
    endloop
  endfacet
  facet normal 0 0 1
    outer loop
      vertex 37.5125 -46.875 75.2306
      vertex 31.2562 -45.5 75.2306
      vertex 31.2562 -46.875 75.2306
    endloop
  endfacet
  facet normal 0 0 -1
    outer loop
      vertex 31.2562 -46.875 81.4868
      vertex 37.5125 -45.5 81.4868
      vertex 37.5125 -46.875 81.4868
    endloop
  endfacet
  facet normal -0 0 -1
    outer loop
      vertex 37.5125 -45.5 81.4868
      vertex 31.2562 -46.875 81.4868
      vertex 31.2562 -45.5 81.4868
    endloop
  endfacet
  facet normal -0 0 1
    outer loop
      vertex 31.2562 46.875 75.2306
      vertex 37.5125 45.5 75.2306
      vertex 37.5125 46.875 75.2306
    endloop
  endfacet
  facet normal 0 0 1
    outer loop
      vertex 37.5125 45.5 75.2306
      vertex 31.2562 46.875 75.2306
      vertex 31.2562 45.5 75.2306
    endloop
  endfacet
  facet normal -0 0 1
    outer loop
      vertex -37.5125 46.875 75.2306
      vertex -31.2562 45.5 75.2306
      vertex -31.2562 46.875 75.2306
    endloop
  endfacet
  facet normal 0 0 1
    outer loop
      vertex -31.2562 45.5 75.2306
      vertex -37.5125 46.875 75.2306
      vertex -37.5125 45.5 75.2306
    endloop
  endfacet
  facet normal 0 -1 0
    outer loop
      vertex 6.25 -46.875 43.9743
      vertex 6.25 -46.875 31.4681
      vertex 18.7562 -46.875 43.9743
    endloop
  endfacet
  facet normal 0 -1 -0
    outer loop
      vertex -18.7562 -46.875 75.2306
      vertex -25.0062 -46.875 68.9806
      vertex -18.7562 -46.875 68.9806
    endloop
  endfacet
  facet normal 0 -1 0
    outer loop
      vertex 0 -46.875 50.2243
      vertex -12.5062 -46.875 68.9806
      vertex -12.5062 -46.875 50.2243
    endloop
  endfacet
  facet normal 0 -1 0
    outer loop
      vertex -12.5062 -46.875 68.9806
      vertex 0 -46.875 50.2243
      vertex 6.25 -46.875 68.9806
    endloop
  endfacet
  facet normal 0 -1 -0
    outer loop
      vertex 6.25 -46.875 68.9806
      vertex 0 -46.875 50.2243
      vertex 6.25 -46.875 50.2243
    endloop
  endfacet
  facet normal 0 -1 -0
    outer loop
      vertex 0 -46.875 50.2243
      vertex -6.25 -46.875 43.9743
      vertex 0 -46.875 43.9743
    endloop
  endfacet
  facet normal 0 -1 0
    outer loop
      vertex -18.7562 -46.875 75.2306
      vertex -31.2562 -46.875 81.4868
      vertex -31.2562 -46.875 75.2306
    endloop
  endfacet
  facet normal 0 -1 0
    outer loop
      vertex 12.5062 -46.875 75.2306
      vertex -31.2562 -46.875 81.4868
      vertex -18.7562 -46.875 75.2306
    endloop
  endfacet
  facet normal 0 -1 0
    outer loop
      vertex -31.2562 -46.875 81.4868
      vertex 12.5062 -46.875 75.2306
      vertex 31.2562 -46.875 81.4868
    endloop
  endfacet
  facet normal 0 -1 0
    outer loop
      vertex 12.5062 -46.875 75.2306
      vertex 31.2562 -46.875 75.2306
      vertex 31.2562 -46.875 81.4868
    endloop
  endfacet
  facet normal 0 -1 0
    outer loop
      vertex 18.7562 -46.875 68.9806
      vertex 31.2562 -46.875 75.2306
      vertex 12.5062 -46.875 75.2306
    endloop
  endfacet
  facet normal 0 -1 0
    outer loop
      vertex 18.7562 -46.875 68.9806
      vertex 12.5062 -46.875 75.2306
      vertex 12.5062 -46.875 68.9806
    endloop
  endfacet
  facet normal 0 -1 0
    outer loop
      vertex -31.2562 -46.875 81.4868
      vertex -43.7625 -46.875 87.7368
      vertex -37.5125 -46.875 81.4868
    endloop
  endfacet
  facet normal 0 -1 0
    outer loop
      vertex -43.7625 -46.875 87.7368
      vertex -37.5125 -46.875 75.2306
      vertex -37.5125 -46.875 81.4868
    endloop
  endfacet
  facet normal 0 -1 0
    outer loop
      vertex -25.0062 -46.875 68.9806
      vertex -31.2562 -46.875 75.2306
      vertex -37.5125 -46.875 75.2306
    endloop
  endfacet
  facet normal 0 -1 0
    outer loop
      vertex -31.2562 -46.875 75.2306
      vertex -25.0062 -46.875 68.9806
      vertex -18.7562 -46.875 75.2306
    endloop
  endfacet
  facet normal 0 -1 0
    outer loop
      vertex -37.5125 -46.875 75.2306
      vertex -25.0062 -46.875 50.2243
      vertex -25.0062 -46.875 68.9806
    endloop
  endfacet
  facet normal 0 -1 0
    outer loop
      vertex -6.25 -46.875 43.9743
      vertex -12.5062 -46.875 50.2243
      vertex -25.0062 -46.875 50.2243
    endloop
  endfacet
  facet normal 0 -1 0
    outer loop
      vertex -12.5062 -46.875 50.2243
      vertex -6.25 -46.875 43.9743
      vertex 0 -46.875 50.2243
    endloop
  endfacet
  facet normal 0 -1 0
    outer loop
      vertex -25.0062 -46.875 50.2243
      vertex -6.25 -46.875 31.4681
      vertex -6.25 -46.875 43.9743
    endloop
  endfacet
  facet normal 0 -1 -0
    outer loop
      vertex -6.25 -46.875 31.4681
      vertex -43.7625 -46.875 26.5
      vertex 6.25 -46.875 31.4681
    endloop
  endfacet
  facet normal 0 -1 -0
    outer loop
      vertex -25.0062 -46.875 50.2243
      vertex -43.7625 -46.875 26.5
      vertex -6.25 -46.875 31.4681
    endloop
  endfacet
  facet normal 0 -1 -0
    outer loop
      vertex -37.5125 -46.875 75.2306
      vertex -43.7625 -46.875 26.5
      vertex -25.0062 -46.875 50.2243
    endloop
  endfacet
  facet normal 0 -1 0
    outer loop
      vertex -43.7625 -46.875 26.5
      vertex -37.5125 -46.875 75.2306
      vertex -43.7625 -46.875 87.7368
    endloop
  endfacet
  facet normal 0 -1 0
    outer loop
      vertex -43.7625 -46.875 87.7368
      vertex -31.2562 -46.875 81.4868
      vertex 43.7625 -46.875 87.7368
    endloop
  endfacet
  facet normal 0 -1 0
    outer loop
      vertex 31.2562 -46.875 81.4868
      vertex 43.7625 -46.875 87.7368
      vertex -31.2562 -46.875 81.4868
    endloop
  endfacet
  facet normal 0 -1 0
    outer loop
      vertex 37.5125 -46.875 81.4868
      vertex 43.7625 -46.875 87.7368
      vertex 31.2562 -46.875 81.4868
    endloop
  endfacet
  facet normal 0 -1 0
    outer loop
      vertex 37.5125 -46.875 75.2306
      vertex 43.7625 -46.875 87.7368
      vertex 37.5125 -46.875 81.4868
    endloop
  endfacet
  facet normal 0 -1 0
    outer loop
      vertex 18.7562 -46.875 43.9743
      vertex 31.2562 -46.875 75.2306
      vertex 18.7562 -46.875 68.9806
    endloop
  endfacet
  facet normal 0 -1 -0
    outer loop
      vertex 31.2562 -46.875 75.2306
      vertex 18.7562 -46.875 43.9743
      vertex 37.5125 -46.875 75.2306
    endloop
  endfacet
  facet normal 0 -1 0
    outer loop
      vertex 37.5125 -46.875 75.2306
      vertex 43.7625 -46.875 26.5
      vertex 43.7625 -46.875 87.7368
    endloop
  endfacet
  facet normal 0 -1 0
    outer loop
      vertex 18.7562 -46.875 43.9743
      vertex 43.7625 -46.875 26.5
      vertex 37.5125 -46.875 75.2306
    endloop
  endfacet
  facet normal 0 -1 0
    outer loop
      vertex 6.25 -46.875 31.4681
      vertex 43.7625 -46.875 26.5
      vertex 18.7562 -46.875 43.9743
    endloop
  endfacet
  facet normal 0 -1 0
    outer loop
      vertex 43.7625 -46.875 26.5
      vertex 6.25 -46.875 31.4681
      vertex -43.7625 -46.875 26.5
    endloop
  endfacet
  facet normal 0 0 -1
    outer loop
      vertex -37.5125 45.5 81.4868
      vertex -31.2562 46.875 81.4868
      vertex -31.2562 45.5 81.4868
    endloop
  endfacet
  facet normal -0 0 -1
    outer loop
      vertex -31.2562 46.875 81.4868
      vertex -37.5125 45.5 81.4868
      vertex -37.5125 46.875 81.4868
    endloop
  endfacet
  facet normal 0 0 -1
    outer loop
      vertex 31.2562 45.5 81.4868
      vertex 37.5125 46.875 81.4868
      vertex 37.5125 45.5 81.4868
    endloop
  endfacet
  facet normal -0 0 -1
    outer loop
      vertex 37.5125 46.875 81.4868
      vertex 31.2562 45.5 81.4868
      vertex 31.2562 46.875 81.4868
    endloop
  endfacet
  facet normal 0 1 -0
    outer loop
      vertex -45.5 12.5062 50.2243
      vertex -46.875 12.5062 68.9806
      vertex -45.5 12.5062 68.9806
    endloop
  endfacet
  facet normal 0 1 0
    outer loop
      vertex -46.875 12.5062 68.9806
      vertex -45.5 12.5062 50.2243
      vertex -46.875 12.5062 50.2243
    endloop
  endfacet
  facet normal 0 1 -0
    outer loop
      vertex 46.875 -6.25 31.4681
      vertex 45.5 -6.25 43.9743
      vertex 46.875 -6.25 43.9743
    endloop
  endfacet
  facet normal 0 1 0
    outer loop
      vertex 45.5 -6.25 43.9743
      vertex 46.875 -6.25 31.4681
      vertex 45.5 -6.25 31.4681
    endloop
  endfacet
  facet normal -0 0 1
    outer loop
      vertex -46.875 25.0062 50.2243
      vertex -45.5 12.5062 50.2243
      vertex -45.5 25.0062 50.2243
    endloop
  endfacet
  facet normal 0 0 1
    outer loop
      vertex -45.5 12.5062 50.2243
      vertex -46.875 25.0062 50.2243
      vertex -46.875 12.5062 50.2243
    endloop
  endfacet
  facet normal 1 -0 0
    outer loop
      vertex 6.25 -46.875 68.9806
      vertex 6.25 -45.5 50.2243
      vertex 6.25 -45.5 68.9806
    endloop
  endfacet
  facet normal 1 0 0
    outer loop
      vertex 6.25 -45.5 50.2243
      vertex 6.25 -46.875 68.9806
      vertex 6.25 -46.875 50.2243
    endloop
  endfacet
  facet normal 1 -0 0
    outer loop
      vertex 31.2562 45.5 81.4868
      vertex 31.2562 46.875 75.2306
      vertex 31.2562 46.875 81.4868
    endloop
  endfacet
  facet normal 1 0 0
    outer loop
      vertex 31.2562 46.875 75.2306
      vertex 31.2562 45.5 81.4868
      vertex 31.2562 45.5 75.2306
    endloop
  endfacet
  facet normal 1 -0 0
    outer loop
      vertex -37.5125 45.5 81.4868
      vertex -37.5125 46.875 75.2306
      vertex -37.5125 46.875 81.4868
    endloop
  endfacet
  facet normal 1 0 0
    outer loop
      vertex -37.5125 46.875 75.2306
      vertex -37.5125 45.5 81.4868
      vertex -37.5125 45.5 75.2306
    endloop
  endfacet
  facet normal 0 1 -0
    outer loop
      vertex 46.875 6.25 50.2243
      vertex 45.5 6.25 68.9806
      vertex 46.875 6.25 68.9806
    endloop
  endfacet
  facet normal 0 1 0
    outer loop
      vertex 45.5 6.25 68.9806
      vertex 46.875 6.25 50.2243
      vertex 45.5 6.25 50.2243
    endloop
  endfacet
  facet normal 0 0 -1
    outer loop
      vertex 0 -46.875 50.2243
      vertex 6.25 -45.5 50.2243
      vertex 6.25 -46.875 50.2243
    endloop
  endfacet
  facet normal -0 0 -1
    outer loop
      vertex 6.25 -45.5 50.2243
      vertex 0 -46.875 50.2243
      vertex 0 -45.5 50.2243
    endloop
  endfacet
  facet normal 0 0 -1
    outer loop
      vertex 45.5 0 50.2243
      vertex 46.875 6.25 50.2243
      vertex 46.875 0 50.2243
    endloop
  endfacet
  facet normal -0 0 -1
    outer loop
      vertex 46.875 6.25 50.2243
      vertex 45.5 0 50.2243
      vertex 45.5 6.25 50.2243
    endloop
  endfacet
  facet normal -0 0 1
    outer loop
      vertex -46.875 12.5062 68.9806
      vertex -45.5 -6.25 68.9806
      vertex -45.5 12.5062 68.9806
    endloop
  endfacet
  facet normal 0 0 1
    outer loop
      vertex -45.5 -6.25 68.9806
      vertex -46.875 12.5062 68.9806
      vertex -46.875 -6.25 68.9806
    endloop
  endfacet
  facet normal -1 0 0
    outer loop
      vertex -12.5062 -46.875 50.2243
      vertex -12.5062 -45.5 68.9806
      vertex -12.5062 -45.5 50.2243
    endloop
  endfacet
  facet normal -1 -0 0
    outer loop
      vertex -12.5062 -45.5 68.9806
      vertex -12.5062 -46.875 50.2243
      vertex -12.5062 -46.875 68.9806
    endloop
  endfacet
  facet normal -0 0 1
    outer loop
      vertex -25.0062 -45.5 50.2243
      vertex -12.5062 -46.875 50.2243
      vertex -12.5062 -45.5 50.2243
    endloop
  endfacet
  facet normal 0 0 1
    outer loop
      vertex -12.5062 -46.875 50.2243
      vertex -25.0062 -45.5 50.2243
      vertex -25.0062 -46.875 50.2243
    endloop
  endfacet
  facet normal 0 -1 0
    outer loop
      vertex 45.5 -12.5062 50.2243
      vertex 46.875 -12.5062 68.9806
      vertex 45.5 -12.5062 68.9806
    endloop
  endfacet
  facet normal 0 -1 -0
    outer loop
      vertex 46.875 -12.5062 68.9806
      vertex 45.5 -12.5062 50.2243
      vertex 46.875 -12.5062 50.2243
    endloop
  endfacet
  facet normal 0 0 -1
    outer loop
      vertex -46.875 18.7562 68.9806
      vertex -45.5 25.0062 68.9806
      vertex -45.5 18.7562 68.9806
    endloop
  endfacet
  facet normal -0 0 -1
    outer loop
      vertex -45.5 25.0062 68.9806
      vertex -46.875 18.7562 68.9806
      vertex -46.875 25.0062 68.9806
    endloop
  endfacet
  facet normal 0 0 -1
    outer loop
      vertex -46.875 -18.7562 68.9806
      vertex -45.5 -12.5062 68.9806
      vertex -45.5 -18.7562 68.9806
    endloop
  endfacet
  facet normal -0 0 -1
    outer loop
      vertex -45.5 -12.5062 68.9806
      vertex -46.875 -18.7562 68.9806
      vertex -46.875 -12.5062 68.9806
    endloop
  endfacet
  facet normal -0 0 1
    outer loop
      vertex 45.5 -12.5062 50.2243
      vertex 46.875 -25.0062 50.2243
      vertex 46.875 -12.5062 50.2243
    endloop
  endfacet
  facet normal 0 0 1
    outer loop
      vertex 46.875 -25.0062 50.2243
      vertex 45.5 -12.5062 50.2243
      vertex 45.5 -25.0062 50.2243
    endloop
  endfacet
  facet normal 0 0 -1
    outer loop
      vertex 0 45.5 43.9743
      vertex 6.25 46.875 43.9743
      vertex 6.25 45.5 43.9743
    endloop
  endfacet
  facet normal -0 0 -1
    outer loop
      vertex 6.25 46.875 43.9743
      vertex 0 45.5 43.9743
      vertex 0 46.875 43.9743
    endloop
  endfacet
  facet normal -0 0 1
    outer loop
      vertex -12.5062 -45.5 68.9806
      vertex 6.25 -46.875 68.9806
      vertex 6.25 -45.5 68.9806
    endloop
  endfacet
  facet normal 0 0 1
    outer loop
      vertex 6.25 -46.875 68.9806
      vertex -12.5062 -45.5 68.9806
      vertex -12.5062 -46.875 68.9806
    endloop
  endfacet
  facet normal 1 -0 0
    outer loop
      vertex 31.2562 -46.875 81.4868
      vertex 31.2562 -45.5 75.2306
      vertex 31.2562 -45.5 81.4868
    endloop
  endfacet
  facet normal 1 0 0
    outer loop
      vertex 31.2562 -45.5 75.2306
      vertex 31.2562 -46.875 81.4868
      vertex 31.2562 -46.875 75.2306
    endloop
  endfacet
  facet normal -0 0 1
    outer loop
      vertex 45.5 6.25 68.9806
      vertex 46.875 -12.5062 68.9806
      vertex 46.875 6.25 68.9806
    endloop
  endfacet
  facet normal 0 0 1
    outer loop
      vertex 46.875 -12.5062 68.9806
      vertex 45.5 6.25 68.9806
      vertex 45.5 -12.5062 68.9806
    endloop
  endfacet
  facet normal -0 0 1
    outer loop
      vertex -18.7562 46.875 43.9743
      vertex -6.25 45.5 43.9743
      vertex -6.25 46.875 43.9743
    endloop
  endfacet
  facet normal 0 0 1
    outer loop
      vertex -6.25 45.5 43.9743
      vertex -18.7562 46.875 43.9743
      vertex -18.7562 45.5 43.9743
    endloop
  endfacet
  facet normal 0 0 -1
    outer loop
      vertex -25.0062 -46.875 68.9806
      vertex -18.7562 -45.5 68.9806
      vertex -18.7562 -46.875 68.9806
    endloop
  endfacet
  facet normal -0 0 -1
    outer loop
      vertex -18.7562 -45.5 68.9806
      vertex -25.0062 -46.875 68.9806
      vertex -25.0062 -45.5 68.9806
    endloop
  endfacet
  facet normal 0 -1 0
    outer loop
      vertex -46.875 18.7562 68.9806
      vertex -45.5 18.7562 75.2306
      vertex -46.875 18.7562 75.2306
    endloop
  endfacet
  facet normal 0 -1 -0
    outer loop
      vertex -45.5 18.7562 75.2306
      vertex -46.875 18.7562 68.9806
      vertex -45.5 18.7562 68.9806
    endloop
  endfacet
  facet normal 1 -0 0
    outer loop
      vertex -37.5125 -46.875 81.4868
      vertex -37.5125 -45.5 75.2306
      vertex -37.5125 -45.5 81.4868
    endloop
  endfacet
  facet normal 1 0 0
    outer loop
      vertex -37.5125 -45.5 75.2306
      vertex -37.5125 -46.875 81.4868
      vertex -37.5125 -46.875 75.2306
    endloop
  endfacet
  facet normal 0 1 -0
    outer loop
      vertex -45.5 -12.5062 68.9806
      vertex -46.875 -12.5062 75.2306
      vertex -45.5 -12.5062 75.2306
    endloop
  endfacet
  facet normal 0 1 0
    outer loop
      vertex -46.875 -12.5062 75.2306
      vertex -45.5 -12.5062 68.9806
      vertex -46.875 -12.5062 68.9806
    endloop
  endfacet
  facet normal 0 0 -1
    outer loop
      vertex 12.5062 -46.875 68.9806
      vertex 18.7562 -45.5 68.9806
      vertex 18.7562 -46.875 68.9806
    endloop
  endfacet
  facet normal -0 0 -1
    outer loop
      vertex 18.7562 -45.5 68.9806
      vertex 12.5062 -46.875 68.9806
      vertex 12.5062 -45.5 68.9806
    endloop
  endfacet
  facet normal -1 0 0
    outer loop
      vertex -43.7625 45.5 26.5
      vertex -43.7625 46.875 87.7368
      vertex -43.7625 46.875 26.5
    endloop
  endfacet
  facet normal -1 -0 0
    outer loop
      vertex -43.7625 46.875 87.7368
      vertex -43.7625 45.5 26.5
      vertex -43.7625 45.5 87.7368
    endloop
  endfacet
  facet normal 1 -0 0
    outer loop
      vertex -18.7562 -46.875 75.2306
      vertex -18.7562 -45.5 68.9806
      vertex -18.7562 -45.5 75.2306
    endloop
  endfacet
  facet normal 1 0 0
    outer loop
      vertex -18.7562 -45.5 68.9806
      vertex -18.7562 -46.875 75.2306
      vertex -18.7562 -46.875 68.9806
    endloop
  endfacet
  facet normal 0 0 -1
    outer loop
      vertex -46.875 -12.5062 75.2306
      vertex -45.5 18.7562 75.2306
      vertex -45.5 -12.5062 75.2306
    endloop
  endfacet
  facet normal -0 0 -1
    outer loop
      vertex -45.5 18.7562 75.2306
      vertex -46.875 -12.5062 75.2306
      vertex -46.875 18.7562 75.2306
    endloop
  endfacet
  facet normal 0 0 -1
    outer loop
      vertex 45.5 -25.0062 68.9806
      vertex 46.875 -18.7562 68.9806
      vertex 46.875 -25.0062 68.9806
    endloop
  endfacet
  facet normal -0 0 -1
    outer loop
      vertex 46.875 -18.7562 68.9806
      vertex 45.5 -25.0062 68.9806
      vertex 45.5 -18.7562 68.9806
    endloop
  endfacet
  facet normal -0 0 1
    outer loop
      vertex -6.25 46.875 31.4681
      vertex 6.25 45.5 31.4681
      vertex 6.25 46.875 31.4681
    endloop
  endfacet
  facet normal 0 0 1
    outer loop
      vertex 6.25 45.5 31.4681
      vertex -6.25 46.875 31.4681
      vertex -6.25 45.5 31.4681
    endloop
  endfacet
  facet normal 0 0 -1
    outer loop
      vertex 45.5 12.5062 68.9806
      vertex 46.875 18.7562 68.9806
      vertex 46.875 12.5062 68.9806
    endloop
  endfacet
  facet normal -0 0 -1
    outer loop
      vertex 46.875 18.7562 68.9806
      vertex 45.5 12.5062 68.9806
      vertex 45.5 18.7562 68.9806
    endloop
  endfacet
  facet normal -1 0 0
    outer loop
      vertex 12.5062 -46.875 68.9806
      vertex 12.5062 -45.5 75.2306
      vertex 12.5062 -45.5 68.9806
    endloop
  endfacet
  facet normal -1 -0 0
    outer loop
      vertex 12.5062 -45.5 75.2306
      vertex 12.5062 -46.875 68.9806
      vertex 12.5062 -46.875 75.2306
    endloop
  endfacet
  facet normal 0 -1 0
    outer loop
      vertex -46.875 25.0062 50.2243
      vertex -45.5 25.0062 68.9806
      vertex -46.875 25.0062 68.9806
    endloop
  endfacet
  facet normal 0 -1 -0
    outer loop
      vertex -45.5 25.0062 68.9806
      vertex -46.875 25.0062 50.2243
      vertex -45.5 25.0062 50.2243
    endloop
  endfacet
  facet normal 1 -0 0
    outer loop
      vertex -6.25 45.5 43.9743
      vertex -6.25 46.875 31.4681
      vertex -6.25 46.875 43.9743
    endloop
  endfacet
  facet normal 1 0 0
    outer loop
      vertex -6.25 46.875 31.4681
      vertex -6.25 45.5 43.9743
      vertex -6.25 45.5 31.4681
    endloop
  endfacet
  facet normal 0 1 -0
    outer loop
      vertex -45.5 43.7625 26.5
      vertex -46.875 43.7625 87.7368
      vertex -45.5 43.7625 87.7368
    endloop
  endfacet
  facet normal 0 1 0
    outer loop
      vertex -46.875 43.7625 87.7368
      vertex -45.5 43.7625 26.5
      vertex -46.875 43.7625 26.5
    endloop
  endfacet
  facet normal 0 0 -1
    outer loop
      vertex -18.7562 -46.875 75.2306
      vertex 12.5062 -45.5 75.2306
      vertex 12.5062 -46.875 75.2306
    endloop
  endfacet
  facet normal -0 0 -1
    outer loop
      vertex 12.5062 -45.5 75.2306
      vertex -18.7562 -46.875 75.2306
      vertex -18.7562 -45.5 75.2306
    endloop
  endfacet
  facet normal 0 1 -0
    outer loop
      vertex 46.875 -18.7562 68.9806
      vertex 45.5 -18.7562 75.2306
      vertex 46.875 -18.7562 75.2306
    endloop
  endfacet
  facet normal 0 1 0
    outer loop
      vertex 45.5 -18.7562 75.2306
      vertex 46.875 -18.7562 68.9806
      vertex 45.5 -18.7562 68.9806
    endloop
  endfacet
  facet normal 0 -1 0
    outer loop
      vertex 45.5 12.5062 68.9806
      vertex 46.875 12.5062 75.2306
      vertex 45.5 12.5062 75.2306
    endloop
  endfacet
  facet normal 0 -1 -0
    outer loop
      vertex 46.875 12.5062 75.2306
      vertex 45.5 12.5062 68.9806
      vertex 46.875 12.5062 68.9806
    endloop
  endfacet
  facet normal -1 0 0
    outer loop
      vertex 6.25 45.5 31.4681
      vertex 6.25 46.875 43.9743
      vertex 6.25 46.875 31.4681
    endloop
  endfacet
  facet normal -1 -0 0
    outer loop
      vertex 6.25 46.875 43.9743
      vertex 6.25 45.5 31.4681
      vertex 6.25 45.5 43.9743
    endloop
  endfacet
  facet normal 0 0 -1
    outer loop
      vertex 45.5 -18.7562 75.2306
      vertex 46.875 12.5062 75.2306
      vertex 46.875 -18.7562 75.2306
    endloop
  endfacet
  facet normal -0 0 -1
    outer loop
      vertex 46.875 12.5062 75.2306
      vertex 45.5 -18.7562 75.2306
      vertex 45.5 12.5062 75.2306
    endloop
  endfacet
  facet normal -1 0 0
    outer loop
      vertex -6.25 45.5 50.2243
      vertex -6.25 46.875 68.9806
      vertex -6.25 46.875 50.2243
    endloop
  endfacet
  facet normal -1 -0 0
    outer loop
      vertex -6.25 46.875 68.9806
      vertex -6.25 45.5 50.2243
      vertex -6.25 45.5 68.9806
    endloop
  endfacet
  facet normal 0 -1 0
    outer loop
      vertex -46.875 -43.7625 26.5
      vertex -45.5 -43.7625 87.7368
      vertex -46.875 -43.7625 87.7368
    endloop
  endfacet
  facet normal 0 -1 -0
    outer loop
      vertex -45.5 -43.7625 87.7368
      vertex -46.875 -43.7625 26.5
      vertex -45.5 -43.7625 26.5
    endloop
  endfacet
  facet normal 0 1 -0
    outer loop
      vertex -45.5 -18.7562 43.9743
      vertex -46.875 -18.7562 68.9806
      vertex -45.5 -18.7562 68.9806
    endloop
  endfacet
  facet normal 0 1 0
    outer loop
      vertex -46.875 -18.7562 68.9806
      vertex -45.5 -18.7562 43.9743
      vertex -46.875 -18.7562 43.9743
    endloop
  endfacet
  facet normal 0 0 -1
    outer loop
      vertex -6.25 45.5 50.2243
      vertex 0 46.875 50.2243
      vertex 0 45.5 50.2243
    endloop
  endfacet
  facet normal -0 0 -1
    outer loop
      vertex 0 46.875 50.2243
      vertex -6.25 45.5 50.2243
      vertex -6.25 46.875 50.2243
    endloop
  endfacet
  facet normal -0 0 1
    outer loop
      vertex -46.875 37.5125 75.2306
      vertex -45.5 31.2562 75.2306
      vertex -45.5 37.5125 75.2306
    endloop
  endfacet
  facet normal 0 0 1
    outer loop
      vertex -45.5 31.2562 75.2306
      vertex -46.875 37.5125 75.2306
      vertex -46.875 31.2562 75.2306
    endloop
  endfacet
  facet normal 0 -1 0
    outer loop
      vertex 45.5 18.7562 43.9743
      vertex 46.875 18.7562 68.9806
      vertex 45.5 18.7562 68.9806
    endloop
  endfacet
  facet normal 0 -1 -0
    outer loop
      vertex 46.875 18.7562 68.9806
      vertex 45.5 18.7562 43.9743
      vertex 46.875 18.7562 43.9743
    endloop
  endfacet
  facet normal 0 1 -0
    outer loop
      vertex -45.5 -37.5125 75.2306
      vertex -46.875 -37.5125 81.4868
      vertex -45.5 -37.5125 81.4868
    endloop
  endfacet
  facet normal 0 1 0
    outer loop
      vertex -46.875 -37.5125 81.4868
      vertex -45.5 -37.5125 75.2306
      vertex -46.875 -37.5125 75.2306
    endloop
  endfacet
  facet normal -1 0 0
    outer loop
      vertex 0 45.5 43.9743
      vertex 0 46.875 50.2243
      vertex 0 46.875 43.9743
    endloop
  endfacet
  facet normal -1 -0 0
    outer loop
      vertex 0 46.875 50.2243
      vertex 0 45.5 43.9743
      vertex 0 45.5 50.2243
    endloop
  endfacet
  facet normal 1 -0 0
    outer loop
      vertex 12.5062 45.5 68.9806
      vertex 12.5062 46.875 50.2243
      vertex 12.5062 46.875 68.9806
    endloop
  endfacet
  facet normal 1 0 0
    outer loop
      vertex 12.5062 46.875 50.2243
      vertex 12.5062 45.5 68.9806
      vertex 12.5062 45.5 50.2243
    endloop
  endfacet
  facet normal 0 0 -1
    outer loop
      vertex -46.875 31.2562 81.4868
      vertex -45.5 37.5125 81.4868
      vertex -45.5 31.2562 81.4868
    endloop
  endfacet
  facet normal -0 0 -1
    outer loop
      vertex -45.5 37.5125 81.4868
      vertex -46.875 31.2562 81.4868
      vertex -46.875 37.5125 81.4868
    endloop
  endfacet
  facet normal 0 1 -0
    outer loop
      vertex 46.875 -25.0062 50.2243
      vertex 45.5 -25.0062 68.9806
      vertex 46.875 -25.0062 68.9806
    endloop
  endfacet
  facet normal 0 1 0
    outer loop
      vertex 45.5 -25.0062 68.9806
      vertex 46.875 -25.0062 50.2243
      vertex 45.5 -25.0062 50.2243
    endloop
  endfacet
  facet normal 0 -1 0
    outer loop
      vertex -46.875 37.5125 75.2306
      vertex -45.5 37.5125 81.4868
      vertex -46.875 37.5125 81.4868
    endloop
  endfacet
  facet normal 0 -1 -0
    outer loop
      vertex -45.5 37.5125 81.4868
      vertex -46.875 37.5125 75.2306
      vertex -45.5 37.5125 75.2306
    endloop
  endfacet
  facet normal -0 0 1
    outer loop
      vertex 12.5062 46.875 50.2243
      vertex 25.0062 45.5 50.2243
      vertex 25.0062 46.875 50.2243
    endloop
  endfacet
  facet normal 0 0 1
    outer loop
      vertex 25.0062 45.5 50.2243
      vertex 12.5062 46.875 50.2243
      vertex 12.5062 45.5 50.2243
    endloop
  endfacet
  facet normal 0 -1 0
    outer loop
      vertex 45.5 37.5125 75.2306
      vertex 46.875 37.5125 81.4868
      vertex 45.5 37.5125 81.4868
    endloop
  endfacet
  facet normal 0 -1 -0
    outer loop
      vertex 46.875 37.5125 81.4868
      vertex 45.5 37.5125 75.2306
      vertex 46.875 37.5125 75.2306
    endloop
  endfacet
  facet normal -0 0 1
    outer loop
      vertex -37.5125 -45.5 75.2306
      vertex -31.2562 -46.875 75.2306
      vertex -31.2562 -45.5 75.2306
    endloop
  endfacet
  facet normal 0 0 1
    outer loop
      vertex -31.2562 -46.875 75.2306
      vertex -37.5125 -45.5 75.2306
      vertex -37.5125 -46.875 75.2306
    endloop
  endfacet
  facet normal 0 1 -0
    outer loop
      vertex -45.5 31.2562 75.2306
      vertex -46.875 31.2562 81.4868
      vertex -45.5 31.2562 81.4868
    endloop
  endfacet
  facet normal 0 1 0
    outer loop
      vertex -46.875 31.2562 81.4868
      vertex -45.5 31.2562 75.2306
      vertex -46.875 31.2562 75.2306
    endloop
  endfacet
  facet normal 0 1 0
    outer loop
      vertex 18.7562 46.875 75.2306
      vertex 31.2562 46.875 81.4868
      vertex 31.2562 46.875 75.2306
    endloop
  endfacet
  facet normal 0 1 0
    outer loop
      vertex -12.5062 46.875 75.2306
      vertex 31.2562 46.875 81.4868
      vertex 18.7562 46.875 75.2306
    endloop
  endfacet
  facet normal 0 1 0
    outer loop
      vertex 31.2562 46.875 81.4868
      vertex -12.5062 46.875 75.2306
      vertex -31.2562 46.875 81.4868
    endloop
  endfacet
  facet normal 0 1 0
    outer loop
      vertex -12.5062 46.875 75.2306
      vertex -31.2562 46.875 75.2306
      vertex -31.2562 46.875 81.4868
    endloop
  endfacet
  facet normal 0 1 -0
    outer loop
      vertex -18.7562 46.875 68.9806
      vertex -31.2562 46.875 75.2306
      vertex -12.5062 46.875 75.2306
    endloop
  endfacet
  facet normal 0 1 0
    outer loop
      vertex -18.7562 46.875 68.9806
      vertex -12.5062 46.875 75.2306
      vertex -12.5062 46.875 68.9806
    endloop
  endfacet
  facet normal 0 1 0
    outer loop
      vertex 31.2562 46.875 81.4868
      vertex 43.7625 46.875 87.7368
      vertex 37.5125 46.875 81.4868
    endloop
  endfacet
  facet normal 0 1 0
    outer loop
      vertex 43.7625 46.875 87.7368
      vertex 37.5125 46.875 75.2306
      vertex 37.5125 46.875 81.4868
    endloop
  endfacet
  facet normal 0 1 0
    outer loop
      vertex 25.0062 46.875 68.9806
      vertex 31.2562 46.875 75.2306
      vertex 37.5125 46.875 75.2306
    endloop
  endfacet
  facet normal 0 1 0
    outer loop
      vertex 31.2562 46.875 75.2306
      vertex 25.0062 46.875 68.9806
      vertex 18.7562 46.875 75.2306
    endloop
  endfacet
  facet normal 0 1 0
    outer loop
      vertex 37.5125 46.875 75.2306
      vertex 25.0062 46.875 50.2243
      vertex 25.0062 46.875 68.9806
    endloop
  endfacet
  facet normal 0 1 0
    outer loop
      vertex 6.25 46.875 43.9743
      vertex 12.5062 46.875 50.2243
      vertex 25.0062 46.875 50.2243
    endloop
  endfacet
  facet normal 0 1 0
    outer loop
      vertex 12.5062 46.875 50.2243
      vertex 6.25 46.875 43.9743
      vertex 0 46.875 50.2243
    endloop
  endfacet
  facet normal 0 1 0
    outer loop
      vertex 25.0062 46.875 50.2243
      vertex 6.25 46.875 31.4681
      vertex 6.25 46.875 43.9743
    endloop
  endfacet
  facet normal 0 1 0
    outer loop
      vertex 6.25 46.875 31.4681
      vertex 43.7625 46.875 26.5
      vertex -6.25 46.875 31.4681
    endloop
  endfacet
  facet normal 0 1 0
    outer loop
      vertex 25.0062 46.875 50.2243
      vertex 43.7625 46.875 26.5
      vertex 6.25 46.875 31.4681
    endloop
  endfacet
  facet normal 0 1 0
    outer loop
      vertex 37.5125 46.875 75.2306
      vertex 43.7625 46.875 26.5
      vertex 25.0062 46.875 50.2243
    endloop
  endfacet
  facet normal 0 1 -0
    outer loop
      vertex 43.7625 46.875 26.5
      vertex 37.5125 46.875 75.2306
      vertex 43.7625 46.875 87.7368
    endloop
  endfacet
  facet normal 0 1 0
    outer loop
      vertex 43.7625 46.875 87.7368
      vertex 31.2562 46.875 81.4868
      vertex -43.7625 46.875 87.7368
    endloop
  endfacet
  facet normal 0 1 -0
    outer loop
      vertex -31.2562 46.875 81.4868
      vertex -43.7625 46.875 87.7368
      vertex 31.2562 46.875 81.4868
    endloop
  endfacet
  facet normal 0 1 -0
    outer loop
      vertex -37.5125 46.875 81.4868
      vertex -43.7625 46.875 87.7368
      vertex -31.2562 46.875 81.4868
    endloop
  endfacet
  facet normal 0 1 -0
    outer loop
      vertex -37.5125 46.875 75.2306
      vertex -43.7625 46.875 87.7368
      vertex -37.5125 46.875 81.4868
    endloop
  endfacet
  facet normal 0 1 -0
    outer loop
      vertex -18.7562 46.875 43.9743
      vertex -31.2562 46.875 75.2306
      vertex -18.7562 46.875 68.9806
    endloop
  endfacet
  facet normal 0 1 0
    outer loop
      vertex -31.2562 46.875 75.2306
      vertex -18.7562 46.875 43.9743
      vertex -37.5125 46.875 75.2306
    endloop
  endfacet
  facet normal 0 1 0
    outer loop
      vertex -37.5125 46.875 75.2306
      vertex -43.7625 46.875 26.5
      vertex -43.7625 46.875 87.7368
    endloop
  endfacet
  facet normal 0 1 0
    outer loop
      vertex -18.7562 46.875 43.9743
      vertex -43.7625 46.875 26.5
      vertex -37.5125 46.875 75.2306
    endloop
  endfacet
  facet normal 0 1 0
    outer loop
      vertex -6.25 46.875 31.4681
      vertex -43.7625 46.875 26.5
      vertex -18.7562 46.875 43.9743
    endloop
  endfacet
  facet normal 0 1 0
    outer loop
      vertex -43.7625 46.875 26.5
      vertex -6.25 46.875 31.4681
      vertex 43.7625 46.875 26.5
    endloop
  endfacet
  facet normal 0 1 0
    outer loop
      vertex 18.7562 46.875 75.2306
      vertex 25.0062 46.875 68.9806
      vertex 18.7562 46.875 68.9806
    endloop
  endfacet
  facet normal 0 1 0
    outer loop
      vertex 0 46.875 50.2243
      vertex 12.5062 46.875 68.9806
      vertex 12.5062 46.875 50.2243
    endloop
  endfacet
  facet normal 0 1 0
    outer loop
      vertex 12.5062 46.875 68.9806
      vertex 0 46.875 50.2243
      vertex -6.25 46.875 68.9806
    endloop
  endfacet
  facet normal 0 1 0
    outer loop
      vertex -6.25 46.875 68.9806
      vertex 0 46.875 50.2243
      vertex -6.25 46.875 50.2243
    endloop
  endfacet
  facet normal 0 1 0
    outer loop
      vertex 0 46.875 50.2243
      vertex 6.25 46.875 43.9743
      vertex 0 46.875 43.9743
    endloop
  endfacet
  facet normal 0 1 0
    outer loop
      vertex -6.25 46.875 43.9743
      vertex -6.25 46.875 31.4681
      vertex -18.7562 46.875 43.9743
    endloop
  endfacet
  facet normal 0 0 -1
    outer loop
      vertex -37.5125 -46.875 81.4868
      vertex -31.2562 -45.5 81.4868
      vertex -31.2562 -46.875 81.4868
    endloop
  endfacet
  facet normal -0 0 -1
    outer loop
      vertex -31.2562 -45.5 81.4868
      vertex -37.5125 -46.875 81.4868
      vertex -37.5125 -45.5 81.4868
    endloop
  endfacet
  facet normal -0 0 1
    outer loop
      vertex -6.25 46.875 68.9806
      vertex 12.5062 45.5 68.9806
      vertex 12.5062 46.875 68.9806
    endloop
  endfacet
  facet normal 0 0 1
    outer loop
      vertex 12.5062 45.5 68.9806
      vertex -6.25 46.875 68.9806
      vertex -6.25 45.5 68.9806
    endloop
  endfacet
  facet normal -1 0 0
    outer loop
      vertex 18.7562 -46.875 43.9743
      vertex 18.7562 -45.5 68.9806
      vertex 18.7562 -45.5 43.9743
    endloop
  endfacet
  facet normal -1 -0 0
    outer loop
      vertex 18.7562 -45.5 68.9806
      vertex 18.7562 -46.875 43.9743
      vertex 18.7562 -46.875 68.9806
    endloop
  endfacet
  facet normal 0 0 -1
    outer loop
      vertex 18.7562 45.5 68.9806
      vertex 25.0062 46.875 68.9806
      vertex 25.0062 45.5 68.9806
    endloop
  endfacet
  facet normal -0 0 -1
    outer loop
      vertex 25.0062 46.875 68.9806
      vertex 18.7562 45.5 68.9806
      vertex 18.7562 46.875 68.9806
    endloop
  endfacet
  facet normal 0 0 -1
    outer loop
      vertex -18.7562 45.5 68.9806
      vertex -12.5062 46.875 68.9806
      vertex -12.5062 45.5 68.9806
    endloop
  endfacet
  facet normal -0 0 -1
    outer loop
      vertex -12.5062 46.875 68.9806
      vertex -18.7562 45.5 68.9806
      vertex -18.7562 46.875 68.9806
    endloop
  endfacet
  facet normal -1 0 0
    outer loop
      vertex 18.7562 45.5 68.9806
      vertex 18.7562 46.875 75.2306
      vertex 18.7562 46.875 68.9806
    endloop
  endfacet
  facet normal -1 -0 0
    outer loop
      vertex 18.7562 46.875 75.2306
      vertex 18.7562 45.5 68.9806
      vertex 18.7562 45.5 75.2306
    endloop
  endfacet
  facet normal 1 -0 0
    outer loop
      vertex -25.0062 -46.875 68.9806
      vertex -25.0062 -45.5 50.2243
      vertex -25.0062 -45.5 68.9806
    endloop
  endfacet
  facet normal 1 0 0
    outer loop
      vertex -25.0062 -45.5 50.2243
      vertex -25.0062 -46.875 68.9806
      vertex -25.0062 -46.875 50.2243
    endloop
  endfacet
  facet normal -0 0 1
    outer loop
      vertex -46.875 -31.2562 75.2306
      vertex -45.5 -37.5125 75.2306
      vertex -45.5 -31.2562 75.2306
    endloop
  endfacet
  facet normal 0 0 1
    outer loop
      vertex -45.5 -37.5125 75.2306
      vertex -46.875 -31.2562 75.2306
      vertex -46.875 -37.5125 75.2306
    endloop
  endfacet
  facet normal -1 0 0
    outer loop
      vertex 37.5125 45.5 75.2306
      vertex 37.5125 46.875 81.4868
      vertex 37.5125 46.875 75.2306
    endloop
  endfacet
  facet normal -1 -0 0
    outer loop
      vertex 37.5125 46.875 81.4868
      vertex 37.5125 45.5 75.2306
      vertex 37.5125 45.5 81.4868
    endloop
  endfacet
  facet normal 1 -0 0
    outer loop
      vertex -12.5062 45.5 75.2306
      vertex -12.5062 46.875 68.9806
      vertex -12.5062 46.875 75.2306
    endloop
  endfacet
  facet normal 1 0 0
    outer loop
      vertex -12.5062 46.875 68.9806
      vertex -12.5062 45.5 75.2306
      vertex -12.5062 45.5 68.9806
    endloop
  endfacet
  facet normal 0 0 -1
    outer loop
      vertex -12.5062 45.5 75.2306
      vertex 18.7562 46.875 75.2306
      vertex 18.7562 45.5 75.2306
    endloop
  endfacet
  facet normal -0 0 -1
    outer loop
      vertex 18.7562 46.875 75.2306
      vertex -12.5062 45.5 75.2306
      vertex -12.5062 46.875 75.2306
    endloop
  endfacet
  facet normal 0 0 -1
    outer loop
      vertex -46.875 -37.5125 81.4868
      vertex -45.5 -31.2562 81.4868
      vertex -45.5 -37.5125 81.4868
    endloop
  endfacet
  facet normal -0 0 -1
    outer loop
      vertex -45.5 -31.2562 81.4868
      vertex -46.875 -37.5125 81.4868
      vertex -46.875 -31.2562 81.4868
    endloop
  endfacet
  facet normal -1 0 0
    outer loop
      vertex 25.0062 45.5 50.2243
      vertex 25.0062 46.875 68.9806
      vertex 25.0062 46.875 50.2243
    endloop
  endfacet
  facet normal -1 -0 0
    outer loop
      vertex 25.0062 46.875 68.9806
      vertex 25.0062 45.5 50.2243
      vertex 25.0062 45.5 68.9806
    endloop
  endfacet
  facet normal -1 0 0
    outer loop
      vertex 37.5125 -46.875 75.2306
      vertex 37.5125 -45.5 81.4868
      vertex 37.5125 -45.5 75.2306
    endloop
  endfacet
  facet normal -1 -0 0
    outer loop
      vertex 37.5125 -45.5 81.4868
      vertex 37.5125 -46.875 75.2306
      vertex 37.5125 -46.875 81.4868
    endloop
  endfacet
  facet normal 0 -1 0
    outer loop
      vertex -46.875 -31.2562 75.2306
      vertex -45.5 -31.2562 81.4868
      vertex -46.875 -31.2562 81.4868
    endloop
  endfacet
  facet normal 0 -1 -0
    outer loop
      vertex -45.5 -31.2562 81.4868
      vertex -46.875 -31.2562 75.2306
      vertex -45.5 -31.2562 75.2306
    endloop
  endfacet
  facet normal 0 1 -0
    outer loop
      vertex 46.875 43.7625 26.5
      vertex 45.5 43.7625 87.7368
      vertex 46.875 43.7625 87.7368
    endloop
  endfacet
  facet normal 0 1 0
    outer loop
      vertex 45.5 43.7625 87.7368
      vertex 46.875 43.7625 26.5
      vertex 45.5 43.7625 26.5
    endloop
  endfacet
  facet normal 0 -1 0
    outer loop
      vertex 45.5 -43.7625 26.5
      vertex 46.875 -43.7625 87.7368
      vertex 45.5 -43.7625 87.7368
    endloop
  endfacet
  facet normal 0 -1 -0
    outer loop
      vertex 46.875 -43.7625 87.7368
      vertex 45.5 -43.7625 26.5
      vertex 46.875 -43.7625 26.5
    endloop
  endfacet
  facet normal -0 0 1
    outer loop
      vertex 45.5 -31.2562 75.2306
      vertex 46.875 -37.5125 75.2306
      vertex 46.875 -31.2562 75.2306
    endloop
  endfacet
  facet normal 0 0 1
    outer loop
      vertex 46.875 -37.5125 75.2306
      vertex 45.5 -31.2562 75.2306
      vertex 45.5 -37.5125 75.2306
    endloop
  endfacet
  facet normal 1 -0 0
    outer loop
      vertex -18.7562 45.5 68.9806
      vertex -18.7562 46.875 43.9743
      vertex -18.7562 46.875 68.9806
    endloop
  endfacet
  facet normal 1 0 0
    outer loop
      vertex -18.7562 46.875 43.9743
      vertex -18.7562 45.5 68.9806
      vertex -18.7562 45.5 43.9743
    endloop
  endfacet
  facet normal 0 0 -1
    outer loop
      vertex -46.875 0 43.9743
      vertex -45.5 6.25 43.9743
      vertex -45.5 0 43.9743
    endloop
  endfacet
  facet normal -0 0 -1
    outer loop
      vertex -45.5 6.25 43.9743
      vertex -46.875 0 43.9743
      vertex -46.875 6.25 43.9743
    endloop
  endfacet
  facet normal 1 -0 0
    outer loop
      vertex 43.7625 45.5 87.7368
      vertex 43.7625 46.875 26.5
      vertex 43.7625 46.875 87.7368
    endloop
  endfacet
  facet normal 1 0 0
    outer loop
      vertex 43.7625 46.875 26.5
      vertex 43.7625 45.5 87.7368
      vertex 43.7625 45.5 26.5
    endloop
  endfacet
  facet normal -0 0 1
    outer loop
      vertex -46.875 -6.25 43.9743
      vertex -45.5 -18.7562 43.9743
      vertex -45.5 -6.25 43.9743
    endloop
  endfacet
  facet normal 0 0 1
    outer loop
      vertex -45.5 -18.7562 43.9743
      vertex -46.875 -6.25 43.9743
      vertex -46.875 -18.7562 43.9743
    endloop
  endfacet
  facet normal 0 0 -1
    outer loop
      vertex 45.5 -37.5125 81.4868
      vertex 46.875 -31.2562 81.4868
      vertex 46.875 -37.5125 81.4868
    endloop
  endfacet
  facet normal -0 0 -1
    outer loop
      vertex 46.875 -31.2562 81.4868
      vertex 45.5 -37.5125 81.4868
      vertex 45.5 -31.2562 81.4868
    endloop
  endfacet
  facet normal -1 0 0
    outer loop
      vertex -43.7625 -46.875 26.5
      vertex -43.7625 -45.5 87.7368
      vertex -43.7625 -45.5 26.5
    endloop
  endfacet
  facet normal -1 -0 0
    outer loop
      vertex -43.7625 -45.5 87.7368
      vertex -43.7625 -46.875 26.5
      vertex -43.7625 -46.875 87.7368
    endloop
  endfacet
  facet normal 0 1 -0
    outer loop
      vertex 46.875 -37.5125 75.2306
      vertex 45.5 -37.5125 81.4868
      vertex 46.875 -37.5125 81.4868
    endloop
  endfacet
  facet normal 0 1 0
    outer loop
      vertex 45.5 -37.5125 81.4868
      vertex 46.875 -37.5125 75.2306
      vertex 45.5 -37.5125 75.2306
    endloop
  endfacet
  facet normal 0 -1 0
    outer loop
      vertex 45.5 -31.2562 75.2306
      vertex 46.875 -31.2562 81.4868
      vertex 45.5 -31.2562 81.4868
    endloop
  endfacet
  facet normal 0 -1 -0
    outer loop
      vertex 46.875 -31.2562 81.4868
      vertex 45.5 -31.2562 75.2306
      vertex 46.875 -31.2562 75.2306
    endloop
  endfacet
  facet normal -1 0 0
    outer loop
      vertex -46.875 -12.5062 68.9806
      vertex -46.875 -18.7562 68.9806
      vertex -46.875 -12.5062 75.2306
    endloop
  endfacet
  facet normal -1 0 0
    outer loop
      vertex -46.875 43.7625 26.5
      vertex -46.875 37.5125 75.2306
      vertex -46.875 43.7625 87.7368
    endloop
  endfacet
  facet normal -1 0 0
    outer loop
      vertex -46.875 25.0062 50.2243
      vertex -46.875 37.5125 75.2306
      vertex -46.875 43.7625 26.5
    endloop
  endfacet
  facet normal -1 -0 0
    outer loop
      vertex -46.875 37.5125 75.2306
      vertex -46.875 25.0062 68.9806
      vertex -46.875 31.2562 75.2306
    endloop
  endfacet
  facet normal -1 0 0
    outer loop
      vertex -46.875 25.0062 68.9806
      vertex -46.875 37.5125 75.2306
      vertex -46.875 25.0062 50.2243
    endloop
  endfacet
  facet normal -1 0 0
    outer loop
      vertex -46.875 6.25 31.4681
      vertex -46.875 25.0062 50.2243
      vertex -46.875 43.7625 26.5
    endloop
  endfacet
  facet normal -1 0 0
    outer loop
      vertex -46.875 6.25 43.9743
      vertex -46.875 12.5062 50.2243
      vertex -46.875 6.25 31.4681
    endloop
  endfacet
  facet normal -1 -0 0
    outer loop
      vertex -46.875 25.0062 50.2243
      vertex -46.875 6.25 31.4681
      vertex -46.875 12.5062 50.2243
    endloop
  endfacet
  facet normal -1 0 0
    outer loop
      vertex -46.875 43.7625 26.5
      vertex -46.875 -6.25 31.4681
      vertex -46.875 6.25 31.4681
    endloop
  endfacet
  facet normal -1 0 0
    outer loop
      vertex -46.875 -6.25 31.4681
      vertex -46.875 -18.7562 43.9743
      vertex -46.875 -6.25 43.9743
    endloop
  endfacet
  facet normal -1 0 0
    outer loop
      vertex -46.875 -18.7562 43.9743
      vertex -46.875 -31.2562 75.2306
      vertex -46.875 -18.7562 68.9806
    endloop
  endfacet
  facet normal -1 0 0
    outer loop
      vertex -46.875 -18.7562 43.9743
      vertex -46.875 -37.5125 75.2306
      vertex -46.875 -31.2562 75.2306
    endloop
  endfacet
  facet normal -1 0 0
    outer loop
      vertex -46.875 -43.7625 87.7368
      vertex -46.875 -37.5125 75.2306
      vertex -46.875 -43.7625 26.5
    endloop
  endfacet
  facet normal -1 -0 0
    outer loop
      vertex -46.875 -18.7562 43.9743
      vertex -46.875 -43.7625 26.5
      vertex -46.875 -37.5125 75.2306
    endloop
  endfacet
  facet normal -1 -0 0
    outer loop
      vertex -46.875 -6.25 31.4681
      vertex -46.875 -43.7625 26.5
      vertex -46.875 -18.7562 43.9743
    endloop
  endfacet
  facet normal -1 0 0
    outer loop
      vertex -46.875 -43.7625 26.5
      vertex -46.875 -6.25 31.4681
      vertex -46.875 43.7625 26.5
    endloop
  endfacet
  facet normal -1 0 0
    outer loop
      vertex -46.875 37.5125 81.4868
      vertex -46.875 43.7625 87.7368
      vertex -46.875 37.5125 75.2306
    endloop
  endfacet
  facet normal -1 0 0
    outer loop
      vertex -46.875 31.2562 81.4868
      vertex -46.875 43.7625 87.7368
      vertex -46.875 37.5125 81.4868
    endloop
  endfacet
  facet normal -1 0 0
    outer loop
      vertex -46.875 18.7562 75.2306
      vertex -46.875 31.2562 75.2306
      vertex -46.875 25.0062 68.9806
    endloop
  endfacet
  facet normal -1 0 0
    outer loop
      vertex -46.875 18.7562 75.2306
      vertex -46.875 25.0062 68.9806
      vertex -46.875 18.7562 68.9806
    endloop
  endfacet
  facet normal -1 0 0
    outer loop
      vertex -46.875 31.2562 75.2306
      vertex -46.875 18.7562 75.2306
      vertex -46.875 31.2562 81.4868
    endloop
  endfacet
  facet normal -1 0 0
    outer loop
      vertex -46.875 -12.5062 75.2306
      vertex -46.875 31.2562 81.4868
      vertex -46.875 18.7562 75.2306
    endloop
  endfacet
  facet normal -1 0 0
    outer loop
      vertex -46.875 -31.2562 81.4868
      vertex -46.875 31.2562 81.4868
      vertex -46.875 -12.5062 75.2306
    endloop
  endfacet
  facet normal -1 0 0
    outer loop
      vertex -46.875 -31.2562 75.2306
      vertex -46.875 -12.5062 75.2306
      vertex -46.875 -18.7562 68.9806
    endloop
  endfacet
  facet normal -1 0 0
    outer loop
      vertex -46.875 -31.2562 81.4868
      vertex -46.875 -12.5062 75.2306
      vertex -46.875 -31.2562 75.2306
    endloop
  endfacet
  facet normal -1 0 0
    outer loop
      vertex -46.875 31.2562 81.4868
      vertex -46.875 -31.2562 81.4868
      vertex -46.875 43.7625 87.7368
    endloop
  endfacet
  facet normal -1 0 0
    outer loop
      vertex -46.875 -43.7625 87.7368
      vertex -46.875 -31.2562 81.4868
      vertex -46.875 -37.5125 81.4868
    endloop
  endfacet
  facet normal -1 0 0
    outer loop
      vertex -46.875 -31.2562 81.4868
      vertex -46.875 -43.7625 87.7368
      vertex -46.875 43.7625 87.7368
    endloop
  endfacet
  facet normal -1 0 0
    outer loop
      vertex -46.875 -37.5125 75.2306
      vertex -46.875 -43.7625 87.7368
      vertex -46.875 -37.5125 81.4868
    endloop
  endfacet
  facet normal -1 0 0
    outer loop
      vertex -46.875 0 50.2243
      vertex -46.875 12.5062 50.2243
      vertex -46.875 6.25 43.9743
    endloop
  endfacet
  facet normal -1 0 0
    outer loop
      vertex -46.875 0 50.2243
      vertex -46.875 6.25 43.9743
      vertex -46.875 0 43.9743
    endloop
  endfacet
  facet normal -1 0 0
    outer loop
      vertex -46.875 12.5062 50.2243
      vertex -46.875 0 50.2243
      vertex -46.875 12.5062 68.9806
    endloop
  endfacet
  facet normal -1 0 0
    outer loop
      vertex -46.875 -6.25 68.9806
      vertex -46.875 0 50.2243
      vertex -46.875 -6.25 50.2243
    endloop
  endfacet
  facet normal -1 0 0
    outer loop
      vertex -46.875 0 50.2243
      vertex -46.875 -6.25 68.9806
      vertex -46.875 12.5062 68.9806
    endloop
  endfacet
  facet normal -0 0 1
    outer loop
      vertex 45.5 37.5125 75.2306
      vertex 46.875 31.2562 75.2306
      vertex 46.875 37.5125 75.2306
    endloop
  endfacet
  facet normal 0 0 1
    outer loop
      vertex 46.875 31.2562 75.2306
      vertex 45.5 37.5125 75.2306
      vertex 45.5 31.2562 75.2306
    endloop
  endfacet
  facet normal 0 0 -1
    outer loop
      vertex 45.5 31.2562 81.4868
      vertex 46.875 37.5125 81.4868
      vertex 46.875 31.2562 81.4868
    endloop
  endfacet
  facet normal -0 0 -1
    outer loop
      vertex 46.875 37.5125 81.4868
      vertex 45.5 31.2562 81.4868
      vertex 45.5 37.5125 81.4868
    endloop
  endfacet
  facet normal -0 0 1
    outer loop
      vertex -46.875 6.25 31.4681
      vertex -45.5 -6.25 31.4681
      vertex -45.5 6.25 31.4681
    endloop
  endfacet
  facet normal 0 0 1
    outer loop
      vertex -45.5 -6.25 31.4681
      vertex -46.875 6.25 31.4681
      vertex -46.875 -6.25 31.4681
    endloop
  endfacet
  facet normal 1 -0 0
    outer loop
      vertex 43.7625 -46.875 87.7368
      vertex 43.7625 -45.5 26.5
      vertex 43.7625 -45.5 87.7368
    endloop
  endfacet
  facet normal 1 0 0
    outer loop
      vertex 43.7625 -45.5 26.5
      vertex 43.7625 -46.875 87.7368
      vertex 43.7625 -46.875 26.5
    endloop
  endfacet
  facet normal 0 1 -0
    outer loop
      vertex 46.875 31.2562 75.2306
      vertex 45.5 31.2562 81.4868
      vertex 46.875 31.2562 81.4868
    endloop
  endfacet
  facet normal 0 1 0
    outer loop
      vertex 45.5 31.2562 81.4868
      vertex 46.875 31.2562 75.2306
      vertex 45.5 31.2562 75.2306
    endloop
  endfacet
  facet normal 0 1 -0
    outer loop
      vertex -45.5 -6.25 31.4681
      vertex -46.875 -6.25 43.9743
      vertex -45.5 -6.25 43.9743
    endloop
  endfacet
  facet normal 0 1 0
    outer loop
      vertex -46.875 -6.25 43.9743
      vertex -45.5 -6.25 31.4681
      vertex -46.875 -6.25 31.4681
    endloop
  endfacet
  facet normal 0 1 -0
    outer loop
      vertex 46.875 0 43.9743
      vertex 45.5 0 50.2243
      vertex 46.875 0 50.2243
    endloop
  endfacet
  facet normal 0 1 0
    outer loop
      vertex 45.5 0 50.2243
      vertex 46.875 0 43.9743
      vertex 45.5 0 43.9743
    endloop
  endfacet
  facet normal 0 0 -1
    outer loop
      vertex 45.5 -6.25 43.9743
      vertex 46.875 0 43.9743
      vertex 46.875 -6.25 43.9743
    endloop
  endfacet
  facet normal -0 0 -1
    outer loop
      vertex 46.875 0 43.9743
      vertex 45.5 -6.25 43.9743
      vertex 45.5 0 43.9743
    endloop
  endfacet
  facet normal -0 0 1
    outer loop
      vertex 45.5 18.7562 43.9743
      vertex 46.875 6.25 43.9743
      vertex 46.875 18.7562 43.9743
    endloop
  endfacet
  facet normal 0 0 1
    outer loop
      vertex 46.875 6.25 43.9743
      vertex 45.5 18.7562 43.9743
      vertex 45.5 6.25 43.9743
    endloop
  endfacet
  facet normal 0 -1 0
    outer loop
      vertex -46.875 6.25 31.4681
      vertex -45.5 6.25 43.9743
      vertex -46.875 6.25 43.9743
    endloop
  endfacet
  facet normal 0 -1 -0
    outer loop
      vertex -45.5 6.25 43.9743
      vertex -46.875 6.25 31.4681
      vertex -45.5 6.25 31.4681
    endloop
  endfacet
  facet normal -0 0 1
    outer loop
      vertex 45.5 6.25 31.4681
      vertex 46.875 -6.25 31.4681
      vertex 46.875 6.25 31.4681
    endloop
  endfacet
  facet normal 0 0 1
    outer loop
      vertex 46.875 -6.25 31.4681
      vertex 45.5 6.25 31.4681
      vertex 45.5 -6.25 31.4681
    endloop
  endfacet
  facet normal 0 -1 0
    outer loop
      vertex -46.875 -6.25 50.2243
      vertex -45.5 -6.25 68.9806
      vertex -46.875 -6.25 68.9806
    endloop
  endfacet
  facet normal 0 -1 -0
    outer loop
      vertex -45.5 -6.25 68.9806
      vertex -46.875 -6.25 50.2243
      vertex -45.5 -6.25 50.2243
    endloop
  endfacet
  facet normal 0 -1 0
    outer loop
      vertex 45.5 6.25 31.4681
      vertex 46.875 6.25 43.9743
      vertex 45.5 6.25 43.9743
    endloop
  endfacet
  facet normal 0 -1 -0
    outer loop
      vertex 46.875 6.25 43.9743
      vertex 45.5 6.25 31.4681
      vertex 46.875 6.25 31.4681
    endloop
  endfacet
  facet normal 0 0 -1
    outer loop
      vertex -46.875 -6.25 50.2243
      vertex -45.5 0 50.2243
      vertex -45.5 -6.25 50.2243
    endloop
  endfacet
  facet normal -0 0 -1
    outer loop
      vertex -45.5 0 50.2243
      vertex -46.875 -6.25 50.2243
      vertex -46.875 0 50.2243
    endloop
  endfacet
  facet normal 0 -1 0
    outer loop
      vertex -46.875 0 43.9743
      vertex -45.5 0 50.2243
      vertex -46.875 0 50.2243
    endloop
  endfacet
  facet normal 0 -1 -0
    outer loop
      vertex -45.5 0 50.2243
      vertex -46.875 0 43.9743
      vertex -45.5 0 43.9743
    endloop
  endfacet
  facet normal 1 -0 0
    outer loop
      vertex 0 -46.875 50.2243
      vertex 0 -45.5 43.9743
      vertex 0 -45.5 50.2243
    endloop
  endfacet
  facet normal 1 0 0
    outer loop
      vertex 0 -45.5 43.9743
      vertex 0 -46.875 50.2243
      vertex 0 -46.875 43.9743
    endloop
  endfacet
  facet normal 0 0 -1
    outer loop
      vertex -6.25 -46.875 43.9743
      vertex 0 -45.5 43.9743
      vertex 0 -46.875 43.9743
    endloop
  endfacet
  facet normal -0 0 -1
    outer loop
      vertex 0 -45.5 43.9743
      vertex -6.25 -46.875 43.9743
      vertex -6.25 -45.5 43.9743
    endloop
  endfacet
  facet normal -0 0 1
    outer loop
      vertex 6.25 -45.5 43.9743
      vertex 18.7562 -46.875 43.9743
      vertex 18.7562 -45.5 43.9743
    endloop
  endfacet
  facet normal 0 0 1
    outer loop
      vertex 18.7562 -46.875 43.9743
      vertex 6.25 -45.5 43.9743
      vertex 6.25 -46.875 43.9743
    endloop
  endfacet
  facet normal -1 0 0
    outer loop
      vertex -31.2562 45.5 75.2306
      vertex -31.2562 46.875 81.4868
      vertex -31.2562 46.875 75.2306
    endloop
  endfacet
  facet normal -1 -0 0
    outer loop
      vertex -31.2562 46.875 81.4868
      vertex -31.2562 45.5 75.2306
      vertex -31.2562 45.5 81.4868
    endloop
  endfacet
  facet normal -0 0 1
    outer loop
      vertex -6.25 -45.5 31.4681
      vertex 6.25 -46.875 31.4681
      vertex 6.25 -45.5 31.4681
    endloop
  endfacet
  facet normal 0 0 1
    outer loop
      vertex 6.25 -46.875 31.4681
      vertex -6.25 -45.5 31.4681
      vertex -6.25 -46.875 31.4681
    endloop
  endfacet
  facet normal -1 0 0
    outer loop
      vertex 6.25 -46.875 31.4681
      vertex 6.25 -45.5 43.9743
      vertex 6.25 -45.5 31.4681
    endloop
  endfacet
  facet normal -1 -0 0
    outer loop
      vertex 6.25 -45.5 43.9743
      vertex 6.25 -46.875 31.4681
      vertex 6.25 -46.875 43.9743
    endloop
  endfacet
  facet normal -1 0 0
    outer loop
      vertex -31.2562 -46.875 75.2306
      vertex -31.2562 -45.5 81.4868
      vertex -31.2562 -45.5 75.2306
    endloop
  endfacet
  facet normal -1 -0 0
    outer loop
      vertex -31.2562 -45.5 81.4868
      vertex -31.2562 -46.875 75.2306
      vertex -31.2562 -46.875 81.4868
    endloop
  endfacet
  facet normal 1 -0 0
    outer loop
      vertex -6.25 -46.875 43.9743
      vertex -6.25 -45.5 31.4681
      vertex -6.25 -45.5 43.9743
    endloop
  endfacet
  facet normal 1 0 0
    outer loop
      vertex -6.25 -45.5 31.4681
      vertex -6.25 -46.875 43.9743
      vertex -6.25 -46.875 31.4681
    endloop
  endfacet
  facet normal -0 0 1
    outer loop
      vertex 45.5 43.7625 87.7368
      vertex 46.875 -43.7625 87.7368
      vertex 46.875 43.7625 87.7368
    endloop
  endfacet
  facet normal 0 0 1
    outer loop
      vertex 46.875 -43.7625 87.7368
      vertex 45.5 43.7625 87.7368
      vertex 45.5 -43.7625 87.7368
    endloop
  endfacet
  facet normal -0 0 1
    outer loop
      vertex -43.7625 -45.5 87.7368
      vertex 43.7625 -46.875 87.7368
      vertex 43.7625 -45.5 87.7368
    endloop
  endfacet
  facet normal 0 0 1
    outer loop
      vertex 43.7625 -46.875 87.7368
      vertex -43.7625 -45.5 87.7368
      vertex -43.7625 -46.875 87.7368
    endloop
  endfacet
  facet normal -0 0 1
    outer loop
      vertex -43.7625 46.875 87.7368
      vertex 43.7625 45.5 87.7368
      vertex 43.7625 46.875 87.7368
    endloop
  endfacet
  facet normal 0 0 1
    outer loop
      vertex 43.7625 45.5 87.7368
      vertex -43.7625 46.875 87.7368
      vertex -43.7625 45.5 87.7368
    endloop
  endfacet
  facet normal -0 0 1
    outer loop
      vertex -46.875 43.7625 87.7368
      vertex -45.5 -43.7625 87.7368
      vertex -45.5 43.7625 87.7368
    endloop
  endfacet
  facet normal 0 0 1
    outer loop
      vertex -45.5 -43.7625 87.7368
      vertex -46.875 43.7625 87.7368
      vertex -46.875 -43.7625 87.7368
    endloop
  endfacet
  facet normal 1 0 0
    outer loop
      vertex 45.5 45.5 87.7551
      vertex 45.5 43.7625 87.7368
      vertex 45.5 45.5 26.5
    endloop
  endfacet
  facet normal 1 0 0
    outer loop
      vertex 45.5 45.5 87.7551
      vertex 45.5 -43.7625 87.7368
      vertex 45.5 43.7625 87.7368
    endloop
  endfacet
  facet normal 1 -0 0
    outer loop
      vertex 45.5 -45.5 87.7551
      vertex 45.5 -43.7625 87.7368
      vertex 45.5 45.5 87.7551
    endloop
  endfacet
  facet normal 1 0 0
    outer loop
      vertex 45.5 -45.5 26.5
      vertex 45.5 -43.7625 87.7368
      vertex 45.5 -45.5 87.7551
    endloop
  endfacet
  facet normal 1 0 0
    outer loop
      vertex 45.5 -43.7625 87.7368
      vertex 45.5 -45.5 26.5
      vertex 45.5 -43.7625 26.5
    endloop
  endfacet
  facet normal 1 0 0
    outer loop
      vertex 45.5 45.5 26.5
      vertex 45.5 43.7625 87.7368
      vertex 45.5 43.7625 26.5
    endloop
  endfacet
  facet normal 1 0 0
    outer loop
      vertex 45.5 12.5062 75.2306
      vertex 45.5 6.25 68.9806
      vertex 45.5 12.5062 68.9806
    endloop
  endfacet
  facet normal 1 0 0
    outer loop
      vertex 45.5 12.5062 75.2306
      vertex 45.5 -12.5062 68.9806
      vertex 45.5 6.25 68.9806
    endloop
  endfacet
  facet normal 1 -0 0
    outer loop
      vertex 45.5 -18.7562 75.2306
      vertex 45.5 -12.5062 68.9806
      vertex 45.5 12.5062 75.2306
    endloop
  endfacet
  facet normal 1 0 0
    outer loop
      vertex 45.5 -18.7562 68.9806
      vertex 45.5 -12.5062 68.9806
      vertex 45.5 -18.7562 75.2306
    endloop
  endfacet
  facet normal 1 0 0
    outer loop
      vertex 45.5 -12.5062 68.9806
      vertex 45.5 -18.7562 68.9806
      vertex 45.5 -12.5062 50.2243
    endloop
  endfacet
  facet normal 1 0 0
    outer loop
      vertex 45.5 -25.0062 50.2243
      vertex 45.5 -18.7562 68.9806
      vertex 45.5 -25.0062 68.9806
    endloop
  endfacet
  facet normal 1 0 0
    outer loop
      vertex 45.5 -18.7562 68.9806
      vertex 45.5 -25.0062 50.2243
      vertex 45.5 -12.5062 50.2243
    endloop
  endfacet
  facet normal 1 0 0
    outer loop
      vertex 45.5 6.25 50.2243
      vertex 45.5 18.7562 68.9806
      vertex 45.5 12.5062 68.9806
    endloop
  endfacet
  facet normal 1 0 0
    outer loop
      vertex 45.5 6.25 50.2243
      vertex 45.5 12.5062 68.9806
      vertex 45.5 6.25 68.9806
    endloop
  endfacet
  facet normal 1 0 0
    outer loop
      vertex 45.5 18.7562 68.9806
      vertex 45.5 6.25 50.2243
      vertex 45.5 18.7562 43.9743
    endloop
  endfacet
  facet normal 1 0 0
    outer loop
      vertex 45.5 6.25 50.2243
      vertex 45.5 6.25 43.9743
      vertex 45.5 18.7562 43.9743
    endloop
  endfacet
  facet normal 1 0 0
    outer loop
      vertex 45.5 0 43.9743
      vertex 45.5 6.25 43.9743
      vertex 45.5 6.25 50.2243
    endloop
  endfacet
  facet normal 1 0 0
    outer loop
      vertex 45.5 0 43.9743
      vertex 45.5 6.25 50.2243
      vertex 45.5 0 50.2243
    endloop
  endfacet
  facet normal 1 0 0
    outer loop
      vertex 45.5 6.25 43.9743
      vertex 45.5 0 43.9743
      vertex 45.5 6.25 31.4681
    endloop
  endfacet
  facet normal 1 0 0
    outer loop
      vertex 45.5 -6.25 31.4681
      vertex 45.5 0 43.9743
      vertex 45.5 -6.25 43.9743
    endloop
  endfacet
  facet normal 1 0 0
    outer loop
      vertex 45.5 0 43.9743
      vertex 45.5 -6.25 31.4681
      vertex 45.5 6.25 31.4681
    endloop
  endfacet
  facet normal 1 -0 0
    outer loop
      vertex 45.5 -37.5125 81.4868
      vertex 45.5 -31.2562 75.2306
      vertex 45.5 -31.2562 81.4868
    endloop
  endfacet
  facet normal 1 0 0
    outer loop
      vertex 45.5 -31.2562 75.2306
      vertex 45.5 -37.5125 81.4868
      vertex 45.5 -37.5125 75.2306
    endloop
  endfacet
  facet normal 1 -0 0
    outer loop
      vertex 45.5 31.2562 81.4868
      vertex 45.5 37.5125 75.2306
      vertex 45.5 37.5125 81.4868
    endloop
  endfacet
  facet normal 1 0 0
    outer loop
      vertex 45.5 37.5125 75.2306
      vertex 45.5 31.2562 81.4868
      vertex 45.5 31.2562 75.2306
    endloop
  endfacet
  facet normal 0 0 1
    outer loop
      vertex 45.5 45.5 87.7551
      vertex 44 44 87.7551
      vertex 45.5 -45.5 87.7551
    endloop
  endfacet
  facet normal 0 0 1
    outer loop
      vertex 45.5 45.5 87.7551
      vertex -44 44 87.7551
      vertex 44 44 87.7551
    endloop
  endfacet
  facet normal 0 0 1
    outer loop
      vertex -44 44 87.7551
      vertex -45.5 45.5 87.7551
      vertex -44 -44 87.7551
    endloop
  endfacet
  facet normal -0 0 1
    outer loop
      vertex -45.5 45.5 87.7551
      vertex -44 44 87.7551
      vertex 45.5 45.5 87.7551
    endloop
  endfacet
  facet normal -0 0 1
    outer loop
      vertex 44 -44 87.7551
      vertex 45.5 -45.5 87.7551
      vertex 44 44 87.7551
    endloop
  endfacet
  facet normal -0 0 1
    outer loop
      vertex -44 -44 87.7551
      vertex 45.5 -45.5 87.7551
      vertex 44 -44 87.7551
    endloop
  endfacet
  facet normal 0 0 1
    outer loop
      vertex -44 -44 87.7551
      vertex -45.5 -45.5 87.7551
      vertex 45.5 -45.5 87.7551
    endloop
  endfacet
  facet normal 0 0 1
    outer loop
      vertex -45.5 -45.5 87.7551
      vertex -44 -44 87.7551
      vertex -45.5 45.5 87.7551
    endloop
  endfacet
  facet normal -1 0 0
    outer loop
      vertex -45.5 -43.7625 26.5
      vertex -45.5 -45.5 26.5
      vertex -45.5 -43.7625 87.7368
    endloop
  endfacet
  facet normal -1 0 0
    outer loop
      vertex -45.5 43.7625 87.7368
      vertex -45.5 45.5 26.5
      vertex -45.5 43.7625 26.5
    endloop
  endfacet
  facet normal -1 0 0
    outer loop
      vertex -45.5 45.5 26.5
      vertex -45.5 43.7625 87.7368
      vertex -45.5 45.5 87.7551
    endloop
  endfacet
  facet normal -1 0 0
    outer loop
      vertex -45.5 -43.7625 87.7368
      vertex -45.5 45.5 87.7551
      vertex -45.5 43.7625 87.7368
    endloop
  endfacet
  facet normal -1 0 0
    outer loop
      vertex -45.5 -43.7625 87.7368
      vertex -45.5 -45.5 87.7551
      vertex -45.5 45.5 87.7551
    endloop
  endfacet
  facet normal -1 0 0
    outer loop
      vertex -45.5 -45.5 87.7551
      vertex -45.5 -43.7625 87.7368
      vertex -45.5 -45.5 26.5
    endloop
  endfacet
  facet normal -1 0 0
    outer loop
      vertex -45.5 6.25 31.4681
      vertex -45.5 0 43.9743
      vertex -45.5 6.25 43.9743
    endloop
  endfacet
  facet normal -1 0 0
    outer loop
      vertex -45.5 -6.25 31.4681
      vertex -45.5 0 43.9743
      vertex -45.5 6.25 31.4681
    endloop
  endfacet
  facet normal -1 0 0
    outer loop
      vertex -45.5 -6.25 43.9743
      vertex -45.5 0 43.9743
      vertex -45.5 -6.25 31.4681
    endloop
  endfacet
  facet normal -1 0 0
    outer loop
      vertex -45.5 0 43.9743
      vertex -45.5 -6.25 43.9743
      vertex -45.5 0 50.2243
    endloop
  endfacet
  facet normal -1 0 0
    outer loop
      vertex -45.5 -6.25 43.9743
      vertex -45.5 -6.25 50.2243
      vertex -45.5 0 50.2243
    endloop
  endfacet
  facet normal -1 0 0
    outer loop
      vertex -45.5 -18.7562 43.9743
      vertex -45.5 -6.25 50.2243
      vertex -45.5 -6.25 43.9743
    endloop
  endfacet
  facet normal -1 0 0
    outer loop
      vertex -45.5 -6.25 50.2243
      vertex -45.5 -12.5062 68.9806
      vertex -45.5 -6.25 68.9806
    endloop
  endfacet
  facet normal -1 0 0
    outer loop
      vertex -45.5 -18.7562 68.9806
      vertex -45.5 -6.25 50.2243
      vertex -45.5 -18.7562 43.9743
    endloop
  endfacet
  facet normal -1 0 0
    outer loop
      vertex -45.5 -6.25 50.2243
      vertex -45.5 -18.7562 68.9806
      vertex -45.5 -12.5062 68.9806
    endloop
  endfacet
  facet normal -1 0 0
    outer loop
      vertex -45.5 25.0062 50.2243
      vertex -45.5 18.7562 68.9806
      vertex -45.5 25.0062 68.9806
    endloop
  endfacet
  facet normal -1 0 0
    outer loop
      vertex -45.5 12.5062 50.2243
      vertex -45.5 18.7562 68.9806
      vertex -45.5 25.0062 50.2243
    endloop
  endfacet
  facet normal -1 0 0
    outer loop
      vertex -45.5 12.5062 68.9806
      vertex -45.5 18.7562 68.9806
      vertex -45.5 12.5062 50.2243
    endloop
  endfacet
  facet normal -1 0 0
    outer loop
      vertex -45.5 18.7562 68.9806
      vertex -45.5 12.5062 68.9806
      vertex -45.5 18.7562 75.2306
    endloop
  endfacet
  facet normal -1 0 0
    outer loop
      vertex -45.5 -6.25 68.9806
      vertex -45.5 18.7562 75.2306
      vertex -45.5 12.5062 68.9806
    endloop
  endfacet
  facet normal -1 0 0
    outer loop
      vertex -45.5 -12.5062 75.2306
      vertex -45.5 -6.25 68.9806
      vertex -45.5 -12.5062 68.9806
    endloop
  endfacet
  facet normal -1 0 0
    outer loop
      vertex -45.5 -6.25 68.9806
      vertex -45.5 -12.5062 75.2306
      vertex -45.5 18.7562 75.2306
    endloop
  endfacet
  facet normal -1 0 0
    outer loop
      vertex -45.5 31.2562 75.2306
      vertex -45.5 37.5125 81.4868
      vertex -45.5 37.5125 75.2306
    endloop
  endfacet
  facet normal -1 -0 0
    outer loop
      vertex -45.5 37.5125 81.4868
      vertex -45.5 31.2562 75.2306
      vertex -45.5 31.2562 81.4868
    endloop
  endfacet
  facet normal -1 0 0
    outer loop
      vertex -45.5 -37.5125 75.2306
      vertex -45.5 -31.2562 81.4868
      vertex -45.5 -31.2562 75.2306
    endloop
  endfacet
  facet normal -1 -0 0
    outer loop
      vertex -45.5 -31.2562 81.4868
      vertex -45.5 -37.5125 75.2306
      vertex -45.5 -37.5125 81.4868
    endloop
  endfacet
  facet normal 0 1 0
    outer loop
      vertex 45.5 45.5 87.7551
      vertex 43.7625 45.5 87.7368
      vertex -45.5 45.5 87.7551
    endloop
  endfacet
  facet normal 0 1 -0
    outer loop
      vertex 45.5 45.5 26.5
      vertex 43.7625 45.5 87.7368
      vertex 45.5 45.5 87.7551
    endloop
  endfacet
  facet normal 0 1 0
    outer loop
      vertex 43.7625 45.5 87.7368
      vertex 45.5 45.5 26.5
      vertex 43.7625 45.5 26.5
    endloop
  endfacet
  facet normal 0 1 -0
    outer loop
      vertex -43.7625 45.5 87.7368
      vertex -45.5 45.5 87.7551
      vertex 43.7625 45.5 87.7368
    endloop
  endfacet
  facet normal 0 1 0
    outer loop
      vertex -45.5 45.5 26.5
      vertex -43.7625 45.5 87.7368
      vertex -43.7625 45.5 26.5
    endloop
  endfacet
  facet normal 0 1 0
    outer loop
      vertex -43.7625 45.5 87.7368
      vertex -45.5 45.5 26.5
      vertex -45.5 45.5 87.7551
    endloop
  endfacet
  facet normal 0 1 -0
    outer loop
      vertex -31.2562 45.5 75.2306
      vertex -37.5125 45.5 81.4868
      vertex -31.2562 45.5 81.4868
    endloop
  endfacet
  facet normal 0 1 0
    outer loop
      vertex -37.5125 45.5 81.4868
      vertex -31.2562 45.5 75.2306
      vertex -37.5125 45.5 75.2306
    endloop
  endfacet
  facet normal 0 1 0
    outer loop
      vertex 0 45.5 50.2243
      vertex 0 45.5 43.9743
      vertex -6.25 45.5 50.2243
    endloop
  endfacet
  facet normal 0 1 0
    outer loop
      vertex 12.5062 45.5 68.9806
      vertex 18.7562 45.5 75.2306
      vertex 18.7562 45.5 68.9806
    endloop
  endfacet
  facet normal 0 1 0
    outer loop
      vertex 18.7562 45.5 75.2306
      vertex 12.5062 45.5 68.9806
      vertex -12.5062 45.5 75.2306
    endloop
  endfacet
  facet normal 0 1 -0
    outer loop
      vertex -6.25 45.5 68.9806
      vertex -12.5062 45.5 75.2306
      vertex 12.5062 45.5 68.9806
    endloop
  endfacet
  facet normal 0 1 0
    outer loop
      vertex -6.25 45.5 68.9806
      vertex -12.5062 45.5 68.9806
      vertex -12.5062 45.5 75.2306
    endloop
  endfacet
  facet normal 0 1 -0
    outer loop
      vertex -6.25 45.5 50.2243
      vertex -12.5062 45.5 68.9806
      vertex -6.25 45.5 68.9806
    endloop
  endfacet
  facet normal 0 1 0
    outer loop
      vertex -12.5062 45.5 68.9806
      vertex -6.25 45.5 50.2243
      vertex -18.7562 45.5 68.9806
    endloop
  endfacet
  facet normal 0 1 0
    outer loop
      vertex -6.25 45.5 43.9743
      vertex -6.25 45.5 50.2243
      vertex 0 45.5 43.9743
    endloop
  endfacet
  facet normal 0 1 0
    outer loop
      vertex -18.7562 45.5 43.9743
      vertex -6.25 45.5 50.2243
      vertex -6.25 45.5 43.9743
    endloop
  endfacet
  facet normal 0 1 0
    outer loop
      vertex -6.25 45.5 50.2243
      vertex -18.7562 45.5 43.9743
      vertex -18.7562 45.5 68.9806
    endloop
  endfacet
  facet normal 0 1 -0
    outer loop
      vertex 25.0062 45.5 50.2243
      vertex 18.7562 45.5 68.9806
      vertex 25.0062 45.5 68.9806
    endloop
  endfacet
  facet normal 0 1 0
    outer loop
      vertex 12.5062 45.5 50.2243
      vertex 18.7562 45.5 68.9806
      vertex 25.0062 45.5 50.2243
    endloop
  endfacet
  facet normal 0 1 0
    outer loop
      vertex 18.7562 45.5 68.9806
      vertex 12.5062 45.5 50.2243
      vertex 12.5062 45.5 68.9806
    endloop
  endfacet
  facet normal 0 1 -0
    outer loop
      vertex 6.25 45.5 31.4681
      vertex 0 45.5 43.9743
      vertex 6.25 45.5 43.9743
    endloop
  endfacet
  facet normal 0 1 0
    outer loop
      vertex -6.25 45.5 31.4681
      vertex 0 45.5 43.9743
      vertex 6.25 45.5 31.4681
    endloop
  endfacet
  facet normal 0 1 0
    outer loop
      vertex 0 45.5 43.9743
      vertex -6.25 45.5 31.4681
      vertex -6.25 45.5 43.9743
    endloop
  endfacet
  facet normal 0 1 -0
    outer loop
      vertex 37.5125 45.5 75.2306
      vertex 31.2562 45.5 81.4868
      vertex 37.5125 45.5 81.4868
    endloop
  endfacet
  facet normal 0 1 0
    outer loop
      vertex 31.2562 45.5 81.4868
      vertex 37.5125 45.5 75.2306
      vertex 31.2562 45.5 75.2306
    endloop
  endfacet
  facet normal 0 -1 0
    outer loop
      vertex -45.5 -45.5 87.7551
      vertex -43.7625 -45.5 87.7368
      vertex 45.5 -45.5 87.7551
    endloop
  endfacet
  facet normal 0 -1 0
    outer loop
      vertex -45.5 -45.5 26.5
      vertex -43.7625 -45.5 87.7368
      vertex -45.5 -45.5 87.7551
    endloop
  endfacet
  facet normal 0 -1 -0
    outer loop
      vertex -43.7625 -45.5 87.7368
      vertex -45.5 -45.5 26.5
      vertex -43.7625 -45.5 26.5
    endloop
  endfacet
  facet normal 0 -1 0
    outer loop
      vertex 43.7625 -45.5 87.7368
      vertex 45.5 -45.5 87.7551
      vertex -43.7625 -45.5 87.7368
    endloop
  endfacet
  facet normal 0 -1 0
    outer loop
      vertex 45.5 -45.5 26.5
      vertex 43.7625 -45.5 87.7368
      vertex 43.7625 -45.5 26.5
    endloop
  endfacet
  facet normal 0 -1 0
    outer loop
      vertex 43.7625 -45.5 87.7368
      vertex 45.5 -45.5 26.5
      vertex 45.5 -45.5 87.7551
    endloop
  endfacet
  facet normal 0 -1 0
    outer loop
      vertex -37.5125 -45.5 75.2306
      vertex -31.2562 -45.5 81.4868
      vertex -37.5125 -45.5 81.4868
    endloop
  endfacet
  facet normal 0 -1 -0
    outer loop
      vertex -31.2562 -45.5 81.4868
      vertex -37.5125 -45.5 75.2306
      vertex -31.2562 -45.5 75.2306
    endloop
  endfacet
  facet normal 0 -1 0
    outer loop
      vertex 0 -45.5 50.2243
      vertex 0 -45.5 43.9743
      vertex 6.25 -45.5 50.2243
    endloop
  endfacet
  facet normal 0 -1 0
    outer loop
      vertex -12.5062 -45.5 68.9806
      vertex -18.7562 -45.5 75.2306
      vertex -18.7562 -45.5 68.9806
    endloop
  endfacet
  facet normal 0 -1 0
    outer loop
      vertex -18.7562 -45.5 75.2306
      vertex -12.5062 -45.5 68.9806
      vertex 12.5062 -45.5 75.2306
    endloop
  endfacet
  facet normal 0 -1 0
    outer loop
      vertex 6.25 -45.5 68.9806
      vertex 12.5062 -45.5 75.2306
      vertex -12.5062 -45.5 68.9806
    endloop
  endfacet
  facet normal 0 -1 0
    outer loop
      vertex 6.25 -45.5 68.9806
      vertex 12.5062 -45.5 68.9806
      vertex 12.5062 -45.5 75.2306
    endloop
  endfacet
  facet normal 0 -1 0
    outer loop
      vertex 6.25 -45.5 50.2243
      vertex 12.5062 -45.5 68.9806
      vertex 6.25 -45.5 68.9806
    endloop
  endfacet
  facet normal 0 -1 -0
    outer loop
      vertex 12.5062 -45.5 68.9806
      vertex 6.25 -45.5 50.2243
      vertex 18.7562 -45.5 68.9806
    endloop
  endfacet
  facet normal 0 -1 0
    outer loop
      vertex 6.25 -45.5 43.9743
      vertex 6.25 -45.5 50.2243
      vertex 0 -45.5 43.9743
    endloop
  endfacet
  facet normal 0 -1 0
    outer loop
      vertex 18.7562 -45.5 43.9743
      vertex 6.25 -45.5 50.2243
      vertex 6.25 -45.5 43.9743
    endloop
  endfacet
  facet normal 0 -1 0
    outer loop
      vertex 6.25 -45.5 50.2243
      vertex 18.7562 -45.5 43.9743
      vertex 18.7562 -45.5 68.9806
    endloop
  endfacet
  facet normal 0 -1 0
    outer loop
      vertex -25.0062 -45.5 50.2243
      vertex -18.7562 -45.5 68.9806
      vertex -25.0062 -45.5 68.9806
    endloop
  endfacet
  facet normal 0 -1 0
    outer loop
      vertex -12.5062 -45.5 50.2243
      vertex -18.7562 -45.5 68.9806
      vertex -25.0062 -45.5 50.2243
    endloop
  endfacet
  facet normal 0 -1 0
    outer loop
      vertex -18.7562 -45.5 68.9806
      vertex -12.5062 -45.5 50.2243
      vertex -12.5062 -45.5 68.9806
    endloop
  endfacet
  facet normal 0 -1 0
    outer loop
      vertex -6.25 -45.5 31.4681
      vertex 0 -45.5 43.9743
      vertex -6.25 -45.5 43.9743
    endloop
  endfacet
  facet normal 0 -1 0
    outer loop
      vertex 6.25 -45.5 31.4681
      vertex 0 -45.5 43.9743
      vertex -6.25 -45.5 31.4681
    endloop
  endfacet
  facet normal 0 -1 0
    outer loop
      vertex 0 -45.5 43.9743
      vertex 6.25 -45.5 31.4681
      vertex 6.25 -45.5 43.9743
    endloop
  endfacet
  facet normal 0 -1 0
    outer loop
      vertex 31.2562 -45.5 75.2306
      vertex 37.5125 -45.5 81.4868
      vertex 31.2562 -45.5 81.4868
    endloop
  endfacet
  facet normal 0 -1 -0
    outer loop
      vertex 37.5125 -45.5 81.4868
      vertex 31.2562 -45.5 75.2306
      vertex 37.5125 -45.5 75.2306
    endloop
  endfacet
  facet normal 1 -0 0
    outer loop
      vertex 44 -44 26.5
      vertex 44 44 13.3333
      vertex 44 44 26.5
    endloop
  endfacet
  facet normal 1 0 0
    outer loop
      vertex 44 44 13.3333
      vertex 44 -44 26.5
      vertex 44 -44 13.3333
    endloop
  endfacet
  facet normal -1 0 0
    outer loop
      vertex -44 -44 13.3333
      vertex -44 44 26.5
      vertex -44 44 13.3333
    endloop
  endfacet
  facet normal -1 -0 0
    outer loop
      vertex -44 44 26.5
      vertex -44 -44 13.3333
      vertex -44 -44 26.5
    endloop
  endfacet
  facet normal 0 1 -0
    outer loop
      vertex 44 44 13.3333
      vertex -44 44 26.5
      vertex 44 44 26.5
    endloop
  endfacet
  facet normal 0 1 0
    outer loop
      vertex -44 44 26.5
      vertex 44 44 13.3333
      vertex -44 44 13.3333
    endloop
  endfacet
  facet normal 0 -1 0
    outer loop
      vertex -44 -44 13.3333
      vertex 44 -44 26.5
      vertex -44 -44 26.5
    endloop
  endfacet
  facet normal 0 -1 -0
    outer loop
      vertex 44 -44 26.5
      vertex -44 -44 13.3333
      vertex 44 -44 13.3333
    endloop
  endfacet
  facet normal 0 0 -1
    outer loop
      vertex 43.7625 -46.875 26.5
      vertex -43.7625 -46.875 26.5
      vertex 43.7625 -45.5 26.5
    endloop
  endfacet
  facet normal 0 0 -1
    outer loop
      vertex 44 -44 26.5
      vertex 45.5 -43.7625 26.5
      vertex 45.5 -45.5 26.5
    endloop
  endfacet
  facet normal -0 0 -1
    outer loop
      vertex 45.5 -43.7625 26.5
      vertex 44 -44 26.5
      vertex 45.5 43.7625 26.5
    endloop
  endfacet
  facet normal 0 0 -1
    outer loop
      vertex 44 44 26.5
      vertex 45.5 43.7625 26.5
      vertex 44 -44 26.5
    endloop
  endfacet
  facet normal 0 0 -1
    outer loop
      vertex 43.7625 -45.5 26.5
      vertex 44 -44 26.5
      vertex 45.5 -45.5 26.5
    endloop
  endfacet
  facet normal 0 0 -1
    outer loop
      vertex -43.7625 -45.5 26.5
      vertex 43.7625 -45.5 26.5
      vertex -43.7625 -46.875 26.5
    endloop
  endfacet
  facet normal 0 0 -1
    outer loop
      vertex 43.7625 -45.5 26.5
      vertex -43.7625 -45.5 26.5
      vertex 44 -44 26.5
    endloop
  endfacet
  facet normal 0 0 -1
    outer loop
      vertex -43.7625 -45.5 26.5
      vertex -44 -44 26.5
      vertex 44 -44 26.5
    endloop
  endfacet
  facet normal 0 0 -1
    outer loop
      vertex -45.5 -43.7625 26.5
      vertex -44 -44 26.5
      vertex -45.5 -45.5 26.5
    endloop
  endfacet
  facet normal 0 0 -1
    outer loop
      vertex -45.5 -45.5 26.5
      vertex -44 -44 26.5
      vertex -43.7625 -45.5 26.5
    endloop
  endfacet
  facet normal 0 0 -1
    outer loop
      vertex 45.5 -43.7625 26.5
      vertex 46.875 43.7625 26.5
      vertex 46.875 -43.7625 26.5
    endloop
  endfacet
  facet normal -0 0 -1
    outer loop
      vertex 46.875 43.7625 26.5
      vertex 45.5 -43.7625 26.5
      vertex 45.5 43.7625 26.5
    endloop
  endfacet
  facet normal 0 0 -1
    outer loop
      vertex 45.5 43.7625 26.5
      vertex 44 44 26.5
      vertex 45.5 45.5 26.5
    endloop
  endfacet
  facet normal 0 0 -1
    outer loop
      vertex 44 44 26.5
      vertex 43.7625 45.5 26.5
      vertex 45.5 45.5 26.5
    endloop
  endfacet
  facet normal 0 0 -1
    outer loop
      vertex 43.7625 45.5 26.5
      vertex -43.7625 45.5 26.5
      vertex 43.7625 46.875 26.5
    endloop
  endfacet
  facet normal 0 0 -1
    outer loop
      vertex 44 44 26.5
      vertex -43.7625 45.5 26.5
      vertex 43.7625 45.5 26.5
    endloop
  endfacet
  facet normal 0 0 -1
    outer loop
      vertex -44 44 26.5
      vertex -43.7625 45.5 26.5
      vertex 44 44 26.5
    endloop
  endfacet
  facet normal 0 0 -1
    outer loop
      vertex -44 -44 26.5
      vertex -45.5 -43.7625 26.5
      vertex -44 44 26.5
    endloop
  endfacet
  facet normal 0 0 -1
    outer loop
      vertex -45.5 43.7625 26.5
      vertex -44 44 26.5
      vertex -45.5 -43.7625 26.5
    endloop
  endfacet
  facet normal 0 0 -1
    outer loop
      vertex -45.5 45.5 26.5
      vertex -44 44 26.5
      vertex -45.5 43.7625 26.5
    endloop
  endfacet
  facet normal 0 0 -1
    outer loop
      vertex -44 44 26.5
      vertex -45.5 45.5 26.5
      vertex -43.7625 45.5 26.5
    endloop
  endfacet
  facet normal 0 0 -1
    outer loop
      vertex -46.875 -43.7625 26.5
      vertex -45.5 43.7625 26.5
      vertex -45.5 -43.7625 26.5
    endloop
  endfacet
  facet normal -0 0 -1
    outer loop
      vertex -45.5 43.7625 26.5
      vertex -46.875 -43.7625 26.5
      vertex -46.875 43.7625 26.5
    endloop
  endfacet
  facet normal -0 0 -1
    outer loop
      vertex 43.7625 46.875 26.5
      vertex -43.7625 45.5 26.5
      vertex -43.7625 46.875 26.5
    endloop
  endfacet
  facet normal -1 0 0
    outer loop
      vertex 42 -42 13.3333
      vertex 42 42 27
      vertex 42 42 13.3333
    endloop
  endfacet
  facet normal -1 -0 0
    outer loop
      vertex 42 42 27
      vertex 42 -42 13.3333
      vertex 42 -42 27
    endloop
  endfacet
  facet normal 1 -0 0
    outer loop
      vertex -42 -42 27
      vertex -42 42 13.3333
      vertex -42 42 27
    endloop
  endfacet
  facet normal 1 0 0
    outer loop
      vertex -42 42 13.3333
      vertex -42 -42 27
      vertex -42 -42 13.3333
    endloop
  endfacet
  facet normal 0 -1 0
    outer loop
      vertex -42 42 13.3333
      vertex 42 42 27
      vertex -42 42 27
    endloop
  endfacet
  facet normal 0 -1 -0
    outer loop
      vertex 42 42 27
      vertex -42 42 13.3333
      vertex 42 42 13.3333
    endloop
  endfacet
  facet normal 0 1 -0
    outer loop
      vertex 42 -42 13.3333
      vertex -42 -42 27
      vertex 42 -42 27
    endloop
  endfacet
  facet normal 0 1 0
    outer loop
      vertex -42 -42 27
      vertex 42 -42 13.3333
      vertex -42 -42 13.3333
    endloop
  endfacet
  facet normal -1 0 0
    outer loop
      vertex 44 -44 27
      vertex 44 44 87.7551
      vertex 44 44 27
    endloop
  endfacet
  facet normal -1 -0 0
    outer loop
      vertex 44 44 87.7551
      vertex 44 -44 27
      vertex 44 -44 87.7551
    endloop
  endfacet
  facet normal 0 0 1
    outer loop
      vertex 44 44 27
      vertex 42 42 27
      vertex 44 -44 27
    endloop
  endfacet
  facet normal 0 0 1
    outer loop
      vertex 44 44 27
      vertex -42 42 27
      vertex 42 42 27
    endloop
  endfacet
  facet normal 0 0 1
    outer loop
      vertex -42 42 27
      vertex -44 44 27
      vertex -42 -42 27
    endloop
  endfacet
  facet normal -0 0 1
    outer loop
      vertex -44 44 27
      vertex -42 42 27
      vertex 44 44 27
    endloop
  endfacet
  facet normal -0 0 1
    outer loop
      vertex 42 -42 27
      vertex 44 -44 27
      vertex 42 42 27
    endloop
  endfacet
  facet normal -0 0 1
    outer loop
      vertex -42 -42 27
      vertex 44 -44 27
      vertex 42 -42 27
    endloop
  endfacet
  facet normal 0 0 1
    outer loop
      vertex -42 -42 27
      vertex -44 -44 27
      vertex 44 -44 27
    endloop
  endfacet
  facet normal 0 0 1
    outer loop
      vertex -44 -44 27
      vertex -42 -42 27
      vertex -44 44 27
    endloop
  endfacet
  facet normal 1 -0 0
    outer loop
      vertex -44 -44 87.7551
      vertex -44 44 27
      vertex -44 44 87.7551
    endloop
  endfacet
  facet normal 1 0 0
    outer loop
      vertex -44 44 27
      vertex -44 -44 87.7551
      vertex -44 -44 27
    endloop
  endfacet
  facet normal 0 -1 0
    outer loop
      vertex -44 44 27
      vertex 44 44 87.7551
      vertex -44 44 87.7551
    endloop
  endfacet
  facet normal 0 -1 -0
    outer loop
      vertex 44 44 87.7551
      vertex -44 44 27
      vertex 44 44 27
    endloop
  endfacet
  facet normal 0 1 -0
    outer loop
      vertex 44 -44 27
      vertex -44 -44 87.7551
      vertex 44 -44 87.7551
    endloop
  endfacet
  facet normal 0 1 0
    outer loop
      vertex -44 -44 87.7551
      vertex 44 -44 27
      vertex -44 -44 27
    endloop
  endfacet
  facet normal 0 0 -1
    outer loop
      vertex 44 -44 13.3333
      vertex 42 -42 13.3333
      vertex 44 44 13.3333
    endloop
  endfacet
  facet normal 0 0 -1
    outer loop
      vertex 44 -44 13.3333
      vertex -42 -42 13.3333
      vertex 42 -42 13.3333
    endloop
  endfacet
  facet normal -0 0 -1
    outer loop
      vertex -42 -42 13.3333
      vertex -44 -44 13.3333
      vertex -42 42 13.3333
    endloop
  endfacet
  facet normal 0 0 -1
    outer loop
      vertex -44 -44 13.3333
      vertex -42 -42 13.3333
      vertex 44 -44 13.3333
    endloop
  endfacet
  facet normal 0 0 -1
    outer loop
      vertex 42 42 13.3333
      vertex 44 44 13.3333
      vertex 42 -42 13.3333
    endloop
  endfacet
  facet normal 0 0 -1
    outer loop
      vertex -42 42 13.3333
      vertex 44 44 13.3333
      vertex 42 42 13.3333
    endloop
  endfacet
  facet normal 0 0 -1
    outer loop
      vertex -42 42 13.3333
      vertex -44 44 13.3333
      vertex 44 44 13.3333
    endloop
  endfacet
  facet normal 0 0 -1
    outer loop
      vertex -44 44 13.3333
      vertex -42 42 13.3333
      vertex -44 -44 13.3333
    endloop
  endfacet
endsolid OpenSCAD_Model
