solid OpenSCAD_Model
  facet normal 1 0 0
    outer loop
      vertex 35.1562 4.6875 51.7354
      vertex 35.1562 0 37.6682
      vertex 35.1562 4.6875 37.6682
    endloop
  endfacet
  facet normal 1 0 0
    outer loop
      vertex 35.1562 0 37.6682
      vertex 35.1562 -4.6875 32.9807
      vertex 35.1562 0 32.9807
    endloop
  endfacet
  facet normal 1 -0 0
    outer loop
      vertex 35.1562 -9.37968 51.7354
      vertex 35.1562 0 37.6682
      vertex 35.1562 4.6875 51.7354
    endloop
  endfacet
  facet normal 1 0 0
    outer loop
      vertex 35.1562 0 37.6682
      vertex 35.1562 -9.37968 37.6682
      vertex 35.1562 -4.6875 32.9807
    endloop
  endfacet
  facet normal 1 0 0
    outer loop
      vertex 35.1562 0 37.6682
      vertex 35.1562 -9.37968 51.7354
      vertex 35.1562 -9.37968 37.6682
    endloop
  endfacet
  facet normal 1 0 0
    outer loop
      vertex 35.1562 28.1344 56.4229
      vertex 35.1562 32.8219 65.8026
      vertex 35.1562 28.1344 61.1151
    endloop
  endfacet
  facet normal 1 0 0
    outer loop
      vertex 35.1562 32.8219 65.8026
      vertex 35.1562 23.4422 61.1151
      vertex 35.1562 28.1344 61.1151
    endloop
  endfacet
  facet normal 1 0 0
    outer loop
      vertex 35.1562 23.4422 61.1151
      vertex 35.1562 14.0672 51.7354
      vertex 35.1562 23.4422 56.4229
    endloop
  endfacet
  facet normal 1 0 0
    outer loop
      vertex 35.1562 23.4422 61.1151
      vertex 35.1562 9.37968 56.4229
      vertex 35.1562 14.0672 51.7354
    endloop
  endfacet
  facet normal 1 0 0
    outer loop
      vertex 35.1562 -23.4422 61.1151
      vertex 35.1562 23.4422 61.1151
      vertex 35.1562 32.8219 65.8026
    endloop
  endfacet
  facet normal 1 0 0
    outer loop
      vertex 35.1562 23.4422 61.1151
      vertex 35.1562 -23.4422 61.1151
      vertex 35.1562 9.37968 56.4229
    endloop
  endfacet
  facet normal 1 0 0
    outer loop
      vertex 35.1562 -14.0672 56.4229
      vertex 35.1562 -18.7547 51.7354
      vertex 35.1562 -14.0672 51.7354
    endloop
  endfacet
  facet normal 1 0 0
    outer loop
      vertex 35.1562 -14.0672 56.4229
      vertex 35.1562 -23.4422 56.4229
      vertex 35.1562 -18.7547 51.7354
    endloop
  endfacet
  facet normal 1 0 0
    outer loop
      vertex 35.1562 -23.4422 56.4229
      vertex 35.1562 -14.0672 56.4229
      vertex 35.1562 -23.4422 61.1151
    endloop
  endfacet
  facet normal 1 0 0
    outer loop
      vertex 35.1562 9.37968 56.4229
      vertex 35.1562 -23.4422 61.1151
      vertex 35.1562 -14.0672 56.4229
    endloop
  endfacet
  facet normal 1 -0 0
    outer loop
      vertex 35.1562 -32.8219 65.8026
      vertex 35.1562 -23.4422 61.1151
      vertex 35.1562 32.8219 65.8026
    endloop
  endfacet
  facet normal 1 0 0
    outer loop
      vertex 35.1562 -28.1344 61.1151
      vertex 35.1562 -32.8219 65.8026
      vertex 35.1562 -28.1344 56.4229
    endloop
  endfacet
  facet normal 1 0 0
    outer loop
      vertex 35.1562 -23.4422 61.1151
      vertex 35.1562 -32.8219 65.8026
      vertex 35.1562 -28.1344 61.1151
    endloop
  endfacet
  facet normal 1 0 0
    outer loop
      vertex 35.1562 32.8219 65.8026
      vertex 35.1562 28.1344 56.4229
      vertex 35.1562 32.8219 19.875
    endloop
  endfacet
  facet normal 1 0 0
    outer loop
      vertex 35.1562 14.0672 32.9807
      vertex 35.1562 28.1344 56.4229
      vertex 35.1562 23.4422 56.4229
    endloop
  endfacet
  facet normal 1 0 0
    outer loop
      vertex 35.1562 14.0672 32.9807
      vertex 35.1562 23.4422 56.4229
      vertex 35.1562 14.0672 51.7354
    endloop
  endfacet
  facet normal 1 0 0
    outer loop
      vertex 35.1562 28.1344 56.4229
      vertex 35.1562 14.0672 32.9807
      vertex 35.1562 32.8219 19.875
    endloop
  endfacet
  facet normal 1 0 0
    outer loop
      vertex 35.1562 4.6875 23.6011
      vertex 35.1562 14.0672 32.9807
      vertex 35.1562 4.6875 32.9807
    endloop
  endfacet
  facet normal 1 0 0
    outer loop
      vertex 35.1562 14.0672 32.9807
      vertex 35.1562 4.6875 23.6011
      vertex 35.1562 32.8219 19.875
    endloop
  endfacet
  facet normal 1 -0 0
    outer loop
      vertex 35.1562 -4.6875 23.6011
      vertex 35.1562 32.8219 19.875
      vertex 35.1562 4.6875 23.6011
    endloop
  endfacet
  facet normal 1 0 0
    outer loop
      vertex 35.1562 -4.6875 32.9807
      vertex 35.1562 -9.37968 37.6682
      vertex 35.1562 -4.6875 23.6011
    endloop
  endfacet
  facet normal 1 -0 0
    outer loop
      vertex 35.1562 -18.7547 37.6682
      vertex 35.1562 -4.6875 23.6011
      vertex 35.1562 -9.37968 37.6682
    endloop
  endfacet
  facet normal 1 -0 0
    outer loop
      vertex 35.1562 -28.1344 56.4229
      vertex 35.1562 -18.7547 51.7354
      vertex 35.1562 -23.4422 56.4229
    endloop
  endfacet
  facet normal 1 0 0
    outer loop
      vertex 35.1562 -18.7547 51.7354
      vertex 35.1562 -28.1344 56.4229
      vertex 35.1562 -18.7547 37.6682
    endloop
  endfacet
  facet normal 1 0 0
    outer loop
      vertex 35.1562 -4.6875 23.6011
      vertex 35.1562 -32.8219 19.875
      vertex 35.1562 32.8219 19.875
    endloop
  endfacet
  facet normal 1 0 0
    outer loop
      vertex 35.1562 -18.7547 37.6682
      vertex 35.1562 -32.8219 19.875
      vertex 35.1562 -4.6875 23.6011
    endloop
  endfacet
  facet normal 1 0 0
    outer loop
      vertex 35.1562 -28.1344 56.4229
      vertex 35.1562 -32.8219 19.875
      vertex 35.1562 -18.7547 37.6682
    endloop
  endfacet
  facet normal 1 0 0
    outer loop
      vertex 35.1562 -32.8219 19.875
      vertex 35.1562 -28.1344 56.4229
      vertex 35.1562 -32.8219 65.8026
    endloop
  endfacet
  facet normal 1 0 0
    outer loop
      vertex 35.1562 14.0672 51.7354
      vertex 35.1562 9.37968 56.4229
      vertex 35.1562 9.37968 51.7354
    endloop
  endfacet
  facet normal -0 0 1
    outer loop
      vertex 23.4422 -34.125 56.4229
      vertex 28.1344 -35.1562 56.4229
      vertex 28.1344 -34.125 56.4229
    endloop
  endfacet
  facet normal 0 0 1
    outer loop
      vertex 28.1344 -35.1562 56.4229
      vertex 23.4422 -34.125 56.4229
      vertex 23.4422 -35.1562 56.4229
    endloop
  endfacet
  facet normal 0 0 -1
    outer loop
      vertex 23.4422 -35.1562 61.1151
      vertex 28.1344 -34.125 61.1151
      vertex 28.1344 -35.1562 61.1151
    endloop
  endfacet
  facet normal -0 0 -1
    outer loop
      vertex 28.1344 -34.125 61.1151
      vertex 23.4422 -35.1562 61.1151
      vertex 23.4422 -34.125 61.1151
    endloop
  endfacet
  facet normal -0 0 1
    outer loop
      vertex 23.4422 35.1562 56.4229
      vertex 28.1344 34.125 56.4229
      vertex 28.1344 35.1562 56.4229
    endloop
  endfacet
  facet normal 0 0 1
    outer loop
      vertex 28.1344 34.125 56.4229
      vertex 23.4422 35.1562 56.4229
      vertex 23.4422 34.125 56.4229
    endloop
  endfacet
  facet normal -0 0 1
    outer loop
      vertex -28.1344 35.1562 56.4229
      vertex -23.4422 34.125 56.4229
      vertex -23.4422 35.1562 56.4229
    endloop
  endfacet
  facet normal 0 0 1
    outer loop
      vertex -23.4422 34.125 56.4229
      vertex -28.1344 35.1562 56.4229
      vertex -28.1344 34.125 56.4229
    endloop
  endfacet
  facet normal 0 -1 0
    outer loop
      vertex 4.6875 -35.1562 32.9807
      vertex 4.6875 -35.1562 23.6011
      vertex 14.0672 -35.1562 32.9807
    endloop
  endfacet
  facet normal 0 -1 -0
    outer loop
      vertex -14.0672 -35.1562 56.4229
      vertex -18.7547 -35.1562 51.7354
      vertex -14.0672 -35.1562 51.7354
    endloop
  endfacet
  facet normal 0 -1 0
    outer loop
      vertex 0 -35.1562 37.6682
      vertex -9.37968 -35.1562 51.7354
      vertex -9.37968 -35.1562 37.6682
    endloop
  endfacet
  facet normal 0 -1 0
    outer loop
      vertex -9.37968 -35.1562 51.7354
      vertex 0 -35.1562 37.6682
      vertex 4.6875 -35.1562 51.7354
    endloop
  endfacet
  facet normal 0 -1 -0
    outer loop
      vertex 4.6875 -35.1562 51.7354
      vertex 0 -35.1562 37.6682
      vertex 4.6875 -35.1562 37.6682
    endloop
  endfacet
  facet normal 0 -1 -0
    outer loop
      vertex 0 -35.1562 37.6682
      vertex -4.6875 -35.1562 32.9807
      vertex 0 -35.1562 32.9807
    endloop
  endfacet
  facet normal 0 -1 0
    outer loop
      vertex -14.0672 -35.1562 56.4229
      vertex -23.4422 -35.1562 61.1151
      vertex -23.4422 -35.1562 56.4229
    endloop
  endfacet
  facet normal 0 -1 0
    outer loop
      vertex 9.37968 -35.1562 56.4229
      vertex -23.4422 -35.1562 61.1151
      vertex -14.0672 -35.1562 56.4229
    endloop
  endfacet
  facet normal 0 -1 0
    outer loop
      vertex -23.4422 -35.1562 61.1151
      vertex 9.37968 -35.1562 56.4229
      vertex 23.4422 -35.1562 61.1151
    endloop
  endfacet
  facet normal 0 -1 0
    outer loop
      vertex 9.37968 -35.1562 56.4229
      vertex 23.4422 -35.1562 56.4229
      vertex 23.4422 -35.1562 61.1151
    endloop
  endfacet
  facet normal 0 -1 0
    outer loop
      vertex 14.0672 -35.1562 51.7354
      vertex 23.4422 -35.1562 56.4229
      vertex 9.37968 -35.1562 56.4229
    endloop
  endfacet
  facet normal 0 -1 0
    outer loop
      vertex 14.0672 -35.1562 51.7354
      vertex 9.37968 -35.1562 56.4229
      vertex 9.37968 -35.1562 51.7354
    endloop
  endfacet
  facet normal 0 -1 0
    outer loop
      vertex -23.4422 -35.1562 61.1151
      vertex -32.8219 -35.1562 65.8026
      vertex -28.1344 -35.1562 61.1151
    endloop
  endfacet
  facet normal 0 -1 0
    outer loop
      vertex -32.8219 -35.1562 65.8026
      vertex -28.1344 -35.1562 56.4229
      vertex -28.1344 -35.1562 61.1151
    endloop
  endfacet
  facet normal 0 -1 0
    outer loop
      vertex -18.7547 -35.1562 51.7354
      vertex -23.4422 -35.1562 56.4229
      vertex -28.1344 -35.1562 56.4229
    endloop
  endfacet
  facet normal 0 -1 0
    outer loop
      vertex -23.4422 -35.1562 56.4229
      vertex -18.7547 -35.1562 51.7354
      vertex -14.0672 -35.1562 56.4229
    endloop
  endfacet
  facet normal 0 -1 0
    outer loop
      vertex -28.1344 -35.1562 56.4229
      vertex -18.7547 -35.1562 37.6682
      vertex -18.7547 -35.1562 51.7354
    endloop
  endfacet
  facet normal 0 -1 0
    outer loop
      vertex -4.6875 -35.1562 32.9807
      vertex -9.37968 -35.1562 37.6682
      vertex -18.7547 -35.1562 37.6682
    endloop
  endfacet
  facet normal 0 -1 0
    outer loop
      vertex -9.37968 -35.1562 37.6682
      vertex -4.6875 -35.1562 32.9807
      vertex 0 -35.1562 37.6682
    endloop
  endfacet
  facet normal 0 -1 0
    outer loop
      vertex -18.7547 -35.1562 37.6682
      vertex -4.6875 -35.1562 23.6011
      vertex -4.6875 -35.1562 32.9807
    endloop
  endfacet
  facet normal 0 -1 -0
    outer loop
      vertex -4.6875 -35.1562 23.6011
      vertex -32.8219 -35.1562 19.875
      vertex 4.6875 -35.1562 23.6011
    endloop
  endfacet
  facet normal 0 -1 -0
    outer loop
      vertex -18.7547 -35.1562 37.6682
      vertex -32.8219 -35.1562 19.875
      vertex -4.6875 -35.1562 23.6011
    endloop
  endfacet
  facet normal 0 -1 -0
    outer loop
      vertex -28.1344 -35.1562 56.4229
      vertex -32.8219 -35.1562 19.875
      vertex -18.7547 -35.1562 37.6682
    endloop
  endfacet
  facet normal 0 -1 0
    outer loop
      vertex -32.8219 -35.1562 19.875
      vertex -28.1344 -35.1562 56.4229
      vertex -32.8219 -35.1562 65.8026
    endloop
  endfacet
  facet normal 0 -1 0
    outer loop
      vertex -32.8219 -35.1562 65.8026
      vertex -23.4422 -35.1562 61.1151
      vertex 32.8219 -35.1562 65.8026
    endloop
  endfacet
  facet normal 0 -1 0
    outer loop
      vertex 23.4422 -35.1562 61.1151
      vertex 32.8219 -35.1562 65.8026
      vertex -23.4422 -35.1562 61.1151
    endloop
  endfacet
  facet normal 0 -1 0
    outer loop
      vertex 28.1344 -35.1562 61.1151
      vertex 32.8219 -35.1562 65.8026
      vertex 23.4422 -35.1562 61.1151
    endloop
  endfacet
  facet normal 0 -1 0
    outer loop
      vertex 28.1344 -35.1562 56.4229
      vertex 32.8219 -35.1562 65.8026
      vertex 28.1344 -35.1562 61.1151
    endloop
  endfacet
  facet normal 0 -1 0
    outer loop
      vertex 14.0672 -35.1562 32.9807
      vertex 23.4422 -35.1562 56.4229
      vertex 14.0672 -35.1562 51.7354
    endloop
  endfacet
  facet normal 0 -1 -0
    outer loop
      vertex 23.4422 -35.1562 56.4229
      vertex 14.0672 -35.1562 32.9807
      vertex 28.1344 -35.1562 56.4229
    endloop
  endfacet
  facet normal 0 -1 0
    outer loop
      vertex 28.1344 -35.1562 56.4229
      vertex 32.8219 -35.1562 19.875
      vertex 32.8219 -35.1562 65.8026
    endloop
  endfacet
  facet normal 0 -1 0
    outer loop
      vertex 14.0672 -35.1562 32.9807
      vertex 32.8219 -35.1562 19.875
      vertex 28.1344 -35.1562 56.4229
    endloop
  endfacet
  facet normal 0 -1 0
    outer loop
      vertex 4.6875 -35.1562 23.6011
      vertex 32.8219 -35.1562 19.875
      vertex 14.0672 -35.1562 32.9807
    endloop
  endfacet
  facet normal 0 -1 0
    outer loop
      vertex 32.8219 -35.1562 19.875
      vertex 4.6875 -35.1562 23.6011
      vertex -32.8219 -35.1562 19.875
    endloop
  endfacet
  facet normal 0 0 -1
    outer loop
      vertex -28.1344 34.125 61.1151
      vertex -23.4422 35.1562 61.1151
      vertex -23.4422 34.125 61.1151
    endloop
  endfacet
  facet normal -0 0 -1
    outer loop
      vertex -23.4422 35.1562 61.1151
      vertex -28.1344 34.125 61.1151
      vertex -28.1344 35.1562 61.1151
    endloop
  endfacet
  facet normal 0 0 -1
    outer loop
      vertex 23.4422 34.125 61.1151
      vertex 28.1344 35.1562 61.1151
      vertex 28.1344 34.125 61.1151
    endloop
  endfacet
  facet normal -0 0 -1
    outer loop
      vertex 28.1344 35.1562 61.1151
      vertex 23.4422 34.125 61.1151
      vertex 23.4422 35.1562 61.1151
    endloop
  endfacet
  facet normal 0 1 -0
    outer loop
      vertex -34.125 9.37968 37.6682
      vertex -35.1562 9.37968 51.7354
      vertex -34.125 9.37968 51.7354
    endloop
  endfacet
  facet normal 0 1 0
    outer loop
      vertex -35.1562 9.37968 51.7354
      vertex -34.125 9.37968 37.6682
      vertex -35.1562 9.37968 37.6682
    endloop
  endfacet
  facet normal 0 1 -0
    outer loop
      vertex 35.1562 -4.6875 23.6011
      vertex 34.125 -4.6875 32.9807
      vertex 35.1562 -4.6875 32.9807
    endloop
  endfacet
  facet normal 0 1 0
    outer loop
      vertex 34.125 -4.6875 32.9807
      vertex 35.1562 -4.6875 23.6011
      vertex 34.125 -4.6875 23.6011
    endloop
  endfacet
  facet normal -0 0 1
    outer loop
      vertex -35.1562 18.7547 37.6682
      vertex -34.125 9.37968 37.6682
      vertex -34.125 18.7547 37.6682
    endloop
  endfacet
  facet normal 0 0 1
    outer loop
      vertex -34.125 9.37968 37.6682
      vertex -35.1562 18.7547 37.6682
      vertex -35.1562 9.37968 37.6682
    endloop
  endfacet
  facet normal 1 -0 0
    outer loop
      vertex 4.6875 -35.1562 51.7354
      vertex 4.6875 -34.125 37.6682
      vertex 4.6875 -34.125 51.7354
    endloop
  endfacet
  facet normal 1 0 0
    outer loop
      vertex 4.6875 -34.125 37.6682
      vertex 4.6875 -35.1562 51.7354
      vertex 4.6875 -35.1562 37.6682
    endloop
  endfacet
  facet normal 1 -0 0
    outer loop
      vertex 23.4422 34.125 61.1151
      vertex 23.4422 35.1562 56.4229
      vertex 23.4422 35.1562 61.1151
    endloop
  endfacet
  facet normal 1 0 0
    outer loop
      vertex 23.4422 35.1562 56.4229
      vertex 23.4422 34.125 61.1151
      vertex 23.4422 34.125 56.4229
    endloop
  endfacet
  facet normal 1 -0 0
    outer loop
      vertex -28.1344 34.125 61.1151
      vertex -28.1344 35.1562 56.4229
      vertex -28.1344 35.1562 61.1151
    endloop
  endfacet
  facet normal 1 0 0
    outer loop
      vertex -28.1344 35.1562 56.4229
      vertex -28.1344 34.125 61.1151
      vertex -28.1344 34.125 56.4229
    endloop
  endfacet
  facet normal 0 1 -0
    outer loop
      vertex 35.1562 4.6875 37.6682
      vertex 34.125 4.6875 51.7354
      vertex 35.1562 4.6875 51.7354
    endloop
  endfacet
  facet normal 0 1 0
    outer loop
      vertex 34.125 4.6875 51.7354
      vertex 35.1562 4.6875 37.6682
      vertex 34.125 4.6875 37.6682
    endloop
  endfacet
  facet normal 0 0 -1
    outer loop
      vertex 0 -35.1562 37.6682
      vertex 4.6875 -34.125 37.6682
      vertex 4.6875 -35.1562 37.6682
    endloop
  endfacet
  facet normal -0 0 -1
    outer loop
      vertex 4.6875 -34.125 37.6682
      vertex 0 -35.1562 37.6682
      vertex 0 -34.125 37.6682
    endloop
  endfacet
  facet normal 0 0 -1
    outer loop
      vertex 34.125 0 37.6682
      vertex 35.1562 4.6875 37.6682
      vertex 35.1562 0 37.6682
    endloop
  endfacet
  facet normal -0 0 -1
    outer loop
      vertex 35.1562 4.6875 37.6682
      vertex 34.125 0 37.6682
      vertex 34.125 4.6875 37.6682
    endloop
  endfacet
  facet normal -0 0 1
    outer loop
      vertex -35.1562 9.37968 51.7354
      vertex -34.125 -4.6875 51.7354
      vertex -34.125 9.37968 51.7354
    endloop
  endfacet
  facet normal 0 0 1
    outer loop
      vertex -34.125 -4.6875 51.7354
      vertex -35.1562 9.37968 51.7354
      vertex -35.1562 -4.6875 51.7354
    endloop
  endfacet
  facet normal -1 0 0
    outer loop
      vertex -9.37968 -35.1562 37.6682
      vertex -9.37968 -34.125 51.7354
      vertex -9.37968 -34.125 37.6682
    endloop
  endfacet
  facet normal -1 -0 0
    outer loop
      vertex -9.37968 -34.125 51.7354
      vertex -9.37968 -35.1562 37.6682
      vertex -9.37968 -35.1562 51.7354
    endloop
  endfacet
  facet normal -0 0 1
    outer loop
      vertex -18.7547 -34.125 37.6682
      vertex -9.37968 -35.1562 37.6682
      vertex -9.37968 -34.125 37.6682
    endloop
  endfacet
  facet normal 0 0 1
    outer loop
      vertex -9.37968 -35.1562 37.6682
      vertex -18.7547 -34.125 37.6682
      vertex -18.7547 -35.1562 37.6682
    endloop
  endfacet
  facet normal 0 -1 0
    outer loop
      vertex 34.125 -9.37968 37.6682
      vertex 35.1562 -9.37968 51.7354
      vertex 34.125 -9.37968 51.7354
    endloop
  endfacet
  facet normal 0 -1 -0
    outer loop
      vertex 35.1562 -9.37968 51.7354
      vertex 34.125 -9.37968 37.6682
      vertex 35.1562 -9.37968 37.6682
    endloop
  endfacet
  facet normal 0 0 -1
    outer loop
      vertex -35.1562 14.0672 51.7354
      vertex -34.125 18.7547 51.7354
      vertex -34.125 14.0672 51.7354
    endloop
  endfacet
  facet normal -0 0 -1
    outer loop
      vertex -34.125 18.7547 51.7354
      vertex -35.1562 14.0672 51.7354
      vertex -35.1562 18.7547 51.7354
    endloop
  endfacet
  facet normal 0 0 -1
    outer loop
      vertex -35.1562 -14.0672 51.7354
      vertex -34.125 -9.37968 51.7354
      vertex -34.125 -14.0672 51.7354
    endloop
  endfacet
  facet normal -0 0 -1
    outer loop
      vertex -34.125 -9.37968 51.7354
      vertex -35.1562 -14.0672 51.7354
      vertex -35.1562 -9.37968 51.7354
    endloop
  endfacet
  facet normal -0 0 1
    outer loop
      vertex 34.125 -9.37968 37.6682
      vertex 35.1562 -18.7547 37.6682
      vertex 35.1562 -9.37968 37.6682
    endloop
  endfacet
  facet normal 0 0 1
    outer loop
      vertex 35.1562 -18.7547 37.6682
      vertex 34.125 -9.37968 37.6682
      vertex 34.125 -18.7547 37.6682
    endloop
  endfacet
  facet normal 0 0 -1
    outer loop
      vertex 0 34.125 32.9807
      vertex 4.6875 35.1562 32.9807
      vertex 4.6875 34.125 32.9807
    endloop
  endfacet
  facet normal -0 0 -1
    outer loop
      vertex 4.6875 35.1562 32.9807
      vertex 0 34.125 32.9807
      vertex 0 35.1562 32.9807
    endloop
  endfacet
  facet normal -0 0 1
    outer loop
      vertex -9.37968 -34.125 51.7354
      vertex 4.6875 -35.1562 51.7354
      vertex 4.6875 -34.125 51.7354
    endloop
  endfacet
  facet normal 0 0 1
    outer loop
      vertex 4.6875 -35.1562 51.7354
      vertex -9.37968 -34.125 51.7354
      vertex -9.37968 -35.1562 51.7354
    endloop
  endfacet
  facet normal 1 -0 0
    outer loop
      vertex 23.4422 -35.1562 61.1151
      vertex 23.4422 -34.125 56.4229
      vertex 23.4422 -34.125 61.1151
    endloop
  endfacet
  facet normal 1 0 0
    outer loop
      vertex 23.4422 -34.125 56.4229
      vertex 23.4422 -35.1562 61.1151
      vertex 23.4422 -35.1562 56.4229
    endloop
  endfacet
  facet normal -0 0 1
    outer loop
      vertex 34.125 4.6875 51.7354
      vertex 35.1562 -9.37968 51.7354
      vertex 35.1562 4.6875 51.7354
    endloop
  endfacet
  facet normal 0 0 1
    outer loop
      vertex 35.1562 -9.37968 51.7354
      vertex 34.125 4.6875 51.7354
      vertex 34.125 -9.37968 51.7354
    endloop
  endfacet
  facet normal -0 0 1
    outer loop
      vertex -14.0672 35.1562 32.9807
      vertex -4.6875 34.125 32.9807
      vertex -4.6875 35.1562 32.9807
    endloop
  endfacet
  facet normal 0 0 1
    outer loop
      vertex -4.6875 34.125 32.9807
      vertex -14.0672 35.1562 32.9807
      vertex -14.0672 34.125 32.9807
    endloop
  endfacet
  facet normal 0 0 -1
    outer loop
      vertex -18.7547 -35.1562 51.7354
      vertex -14.0672 -34.125 51.7354
      vertex -14.0672 -35.1562 51.7354
    endloop
  endfacet
  facet normal -0 0 -1
    outer loop
      vertex -14.0672 -34.125 51.7354
      vertex -18.7547 -35.1562 51.7354
      vertex -18.7547 -34.125 51.7354
    endloop
  endfacet
  facet normal 0 -1 0
    outer loop
      vertex -35.1562 14.0672 51.7354
      vertex -34.125 14.0672 56.4229
      vertex -35.1562 14.0672 56.4229
    endloop
  endfacet
  facet normal 0 -1 -0
    outer loop
      vertex -34.125 14.0672 56.4229
      vertex -35.1562 14.0672 51.7354
      vertex -34.125 14.0672 51.7354
    endloop
  endfacet
  facet normal 1 -0 0
    outer loop
      vertex -28.1344 -35.1562 61.1151
      vertex -28.1344 -34.125 56.4229
      vertex -28.1344 -34.125 61.1151
    endloop
  endfacet
  facet normal 1 0 0
    outer loop
      vertex -28.1344 -34.125 56.4229
      vertex -28.1344 -35.1562 61.1151
      vertex -28.1344 -35.1562 56.4229
    endloop
  endfacet
  facet normal 0 1 -0
    outer loop
      vertex -34.125 -9.37968 51.7354
      vertex -35.1562 -9.37968 56.4229
      vertex -34.125 -9.37968 56.4229
    endloop
  endfacet
  facet normal 0 1 0
    outer loop
      vertex -35.1562 -9.37968 56.4229
      vertex -34.125 -9.37968 51.7354
      vertex -35.1562 -9.37968 51.7354
    endloop
  endfacet
  facet normal 0 0 -1
    outer loop
      vertex 9.37968 -35.1562 51.7354
      vertex 14.0672 -34.125 51.7354
      vertex 14.0672 -35.1562 51.7354
    endloop
  endfacet
  facet normal -0 0 -1
    outer loop
      vertex 14.0672 -34.125 51.7354
      vertex 9.37968 -35.1562 51.7354
      vertex 9.37968 -34.125 51.7354
    endloop
  endfacet
  facet normal -1 0 0
    outer loop
      vertex -32.8219 34.125 19.875
      vertex -32.8219 35.1562 65.8026
      vertex -32.8219 35.1562 19.875
    endloop
  endfacet
  facet normal -1 -0 0
    outer loop
      vertex -32.8219 35.1562 65.8026
      vertex -32.8219 34.125 19.875
      vertex -32.8219 34.125 65.8026
    endloop
  endfacet
  facet normal 1 -0 0
    outer loop
      vertex -14.0672 -35.1562 56.4229
      vertex -14.0672 -34.125 51.7354
      vertex -14.0672 -34.125 56.4229
    endloop
  endfacet
  facet normal 1 0 0
    outer loop
      vertex -14.0672 -34.125 51.7354
      vertex -14.0672 -35.1562 56.4229
      vertex -14.0672 -35.1562 51.7354
    endloop
  endfacet
  facet normal 0 0 -1
    outer loop
      vertex -35.1562 -9.37968 56.4229
      vertex -34.125 14.0672 56.4229
      vertex -34.125 -9.37968 56.4229
    endloop
  endfacet
  facet normal -0 0 -1
    outer loop
      vertex -34.125 14.0672 56.4229
      vertex -35.1562 -9.37968 56.4229
      vertex -35.1562 14.0672 56.4229
    endloop
  endfacet
  facet normal 0 0 -1
    outer loop
      vertex 34.125 -18.7547 51.7354
      vertex 35.1562 -14.0672 51.7354
      vertex 35.1562 -18.7547 51.7354
    endloop
  endfacet
  facet normal -0 0 -1
    outer loop
      vertex 35.1562 -14.0672 51.7354
      vertex 34.125 -18.7547 51.7354
      vertex 34.125 -14.0672 51.7354
    endloop
  endfacet
  facet normal -0 0 1
    outer loop
      vertex -4.6875 35.1562 23.6011
      vertex 4.6875 34.125 23.6011
      vertex 4.6875 35.1562 23.6011
    endloop
  endfacet
  facet normal 0 0 1
    outer loop
      vertex 4.6875 34.125 23.6011
      vertex -4.6875 35.1562 23.6011
      vertex -4.6875 34.125 23.6011
    endloop
  endfacet
  facet normal 0 0 -1
    outer loop
      vertex 34.125 9.37968 51.7354
      vertex 35.1562 14.0672 51.7354
      vertex 35.1562 9.37968 51.7354
    endloop
  endfacet
  facet normal -0 0 -1
    outer loop
      vertex 35.1562 14.0672 51.7354
      vertex 34.125 9.37968 51.7354
      vertex 34.125 14.0672 51.7354
    endloop
  endfacet
  facet normal -1 0 0
    outer loop
      vertex 9.37968 -35.1562 51.7354
      vertex 9.37968 -34.125 56.4229
      vertex 9.37968 -34.125 51.7354
    endloop
  endfacet
  facet normal -1 -0 0
    outer loop
      vertex 9.37968 -34.125 56.4229
      vertex 9.37968 -35.1562 51.7354
      vertex 9.37968 -35.1562 56.4229
    endloop
  endfacet
  facet normal 0 -1 0
    outer loop
      vertex -35.1562 18.7547 37.6682
      vertex -34.125 18.7547 51.7354
      vertex -35.1562 18.7547 51.7354
    endloop
  endfacet
  facet normal 0 -1 -0
    outer loop
      vertex -34.125 18.7547 51.7354
      vertex -35.1562 18.7547 37.6682
      vertex -34.125 18.7547 37.6682
    endloop
  endfacet
  facet normal 1 -0 0
    outer loop
      vertex -4.6875 34.125 32.9807
      vertex -4.6875 35.1562 23.6011
      vertex -4.6875 35.1562 32.9807
    endloop
  endfacet
  facet normal 1 0 0
    outer loop
      vertex -4.6875 35.1562 23.6011
      vertex -4.6875 34.125 32.9807
      vertex -4.6875 34.125 23.6011
    endloop
  endfacet
  facet normal 0 1 -0
    outer loop
      vertex -34.125 32.8219 19.875
      vertex -35.1562 32.8219 65.8026
      vertex -34.125 32.8219 65.8026
    endloop
  endfacet
  facet normal 0 1 0
    outer loop
      vertex -35.1562 32.8219 65.8026
      vertex -34.125 32.8219 19.875
      vertex -35.1562 32.8219 19.875
    endloop
  endfacet
  facet normal 0 0 -1
    outer loop
      vertex -14.0672 -35.1562 56.4229
      vertex 9.37968 -34.125 56.4229
      vertex 9.37968 -35.1562 56.4229
    endloop
  endfacet
  facet normal -0 0 -1
    outer loop
      vertex 9.37968 -34.125 56.4229
      vertex -14.0672 -35.1562 56.4229
      vertex -14.0672 -34.125 56.4229
    endloop
  endfacet
  facet normal 0 1 -0
    outer loop
      vertex 35.1562 -14.0672 51.7354
      vertex 34.125 -14.0672 56.4229
      vertex 35.1562 -14.0672 56.4229
    endloop
  endfacet
  facet normal 0 1 0
    outer loop
      vertex 34.125 -14.0672 56.4229
      vertex 35.1562 -14.0672 51.7354
      vertex 34.125 -14.0672 51.7354
    endloop
  endfacet
  facet normal 0 -1 0
    outer loop
      vertex 34.125 9.37968 51.7354
      vertex 35.1562 9.37968 56.4229
      vertex 34.125 9.37968 56.4229
    endloop
  endfacet
  facet normal 0 -1 -0
    outer loop
      vertex 35.1562 9.37968 56.4229
      vertex 34.125 9.37968 51.7354
      vertex 35.1562 9.37968 51.7354
    endloop
  endfacet
  facet normal -1 0 0
    outer loop
      vertex 4.6875 34.125 23.6011
      vertex 4.6875 35.1562 32.9807
      vertex 4.6875 35.1562 23.6011
    endloop
  endfacet
  facet normal -1 -0 0
    outer loop
      vertex 4.6875 35.1562 32.9807
      vertex 4.6875 34.125 23.6011
      vertex 4.6875 34.125 32.9807
    endloop
  endfacet
  facet normal 0 0 -1
    outer loop
      vertex 34.125 -14.0672 56.4229
      vertex 35.1562 9.37968 56.4229
      vertex 35.1562 -14.0672 56.4229
    endloop
  endfacet
  facet normal -0 0 -1
    outer loop
      vertex 35.1562 9.37968 56.4229
      vertex 34.125 -14.0672 56.4229
      vertex 34.125 9.37968 56.4229
    endloop
  endfacet
  facet normal -1 0 0
    outer loop
      vertex -4.6875 34.125 37.6682
      vertex -4.6875 35.1562 51.7354
      vertex -4.6875 35.1562 37.6682
    endloop
  endfacet
  facet normal -1 -0 0
    outer loop
      vertex -4.6875 35.1562 51.7354
      vertex -4.6875 34.125 37.6682
      vertex -4.6875 34.125 51.7354
    endloop
  endfacet
  facet normal 0 -1 0
    outer loop
      vertex -35.1562 -32.8219 19.875
      vertex -34.125 -32.8219 65.8026
      vertex -35.1562 -32.8219 65.8026
    endloop
  endfacet
  facet normal 0 -1 -0
    outer loop
      vertex -34.125 -32.8219 65.8026
      vertex -35.1562 -32.8219 19.875
      vertex -34.125 -32.8219 19.875
    endloop
  endfacet
  facet normal 0 1 -0
    outer loop
      vertex -34.125 -14.0672 32.9807
      vertex -35.1562 -14.0672 51.7354
      vertex -34.125 -14.0672 51.7354
    endloop
  endfacet
  facet normal 0 1 0
    outer loop
      vertex -35.1562 -14.0672 51.7354
      vertex -34.125 -14.0672 32.9807
      vertex -35.1562 -14.0672 32.9807
    endloop
  endfacet
  facet normal 0 0 -1
    outer loop
      vertex -4.6875 34.125 37.6682
      vertex 0 35.1562 37.6682
      vertex 0 34.125 37.6682
    endloop
  endfacet
  facet normal -0 0 -1
    outer loop
      vertex 0 35.1562 37.6682
      vertex -4.6875 34.125 37.6682
      vertex -4.6875 35.1562 37.6682
    endloop
  endfacet
  facet normal -0 0 1
    outer loop
      vertex -35.1562 28.1344 56.4229
      vertex -34.125 23.4422 56.4229
      vertex -34.125 28.1344 56.4229
    endloop
  endfacet
  facet normal 0 0 1
    outer loop
      vertex -34.125 23.4422 56.4229
      vertex -35.1562 28.1344 56.4229
      vertex -35.1562 23.4422 56.4229
    endloop
  endfacet
  facet normal 0 -1 0
    outer loop
      vertex 34.125 14.0672 32.9807
      vertex 35.1562 14.0672 51.7354
      vertex 34.125 14.0672 51.7354
    endloop
  endfacet
  facet normal 0 -1 -0
    outer loop
      vertex 35.1562 14.0672 51.7354
      vertex 34.125 14.0672 32.9807
      vertex 35.1562 14.0672 32.9807
    endloop
  endfacet
  facet normal 0 1 -0
    outer loop
      vertex -34.125 -28.1344 56.4229
      vertex -35.1562 -28.1344 61.1151
      vertex -34.125 -28.1344 61.1151
    endloop
  endfacet
  facet normal 0 1 0
    outer loop
      vertex -35.1562 -28.1344 61.1151
      vertex -34.125 -28.1344 56.4229
      vertex -35.1562 -28.1344 56.4229
    endloop
  endfacet
  facet normal -1 0 0
    outer loop
      vertex 0 34.125 32.9807
      vertex 0 35.1562 37.6682
      vertex 0 35.1562 32.9807
    endloop
  endfacet
  facet normal -1 -0 0
    outer loop
      vertex 0 35.1562 37.6682
      vertex 0 34.125 32.9807
      vertex 0 34.125 37.6682
    endloop
  endfacet
  facet normal 1 -0 0
    outer loop
      vertex 9.37968 34.125 51.7354
      vertex 9.37968 35.1562 37.6682
      vertex 9.37968 35.1562 51.7354
    endloop
  endfacet
  facet normal 1 0 0
    outer loop
      vertex 9.37968 35.1562 37.6682
      vertex 9.37968 34.125 51.7354
      vertex 9.37968 34.125 37.6682
    endloop
  endfacet
  facet normal 0 0 -1
    outer loop
      vertex -35.1562 23.4422 61.1151
      vertex -34.125 28.1344 61.1151
      vertex -34.125 23.4422 61.1151
    endloop
  endfacet
  facet normal -0 0 -1
    outer loop
      vertex -34.125 28.1344 61.1151
      vertex -35.1562 23.4422 61.1151
      vertex -35.1562 28.1344 61.1151
    endloop
  endfacet
  facet normal 0 1 -0
    outer loop
      vertex 35.1562 -18.7547 37.6682
      vertex 34.125 -18.7547 51.7354
      vertex 35.1562 -18.7547 51.7354
    endloop
  endfacet
  facet normal 0 1 0
    outer loop
      vertex 34.125 -18.7547 51.7354
      vertex 35.1562 -18.7547 37.6682
      vertex 34.125 -18.7547 37.6682
    endloop
  endfacet
  facet normal 0 -1 0
    outer loop
      vertex -35.1562 28.1344 56.4229
      vertex -34.125 28.1344 61.1151
      vertex -35.1562 28.1344 61.1151
    endloop
  endfacet
  facet normal 0 -1 -0
    outer loop
      vertex -34.125 28.1344 61.1151
      vertex -35.1562 28.1344 56.4229
      vertex -34.125 28.1344 56.4229
    endloop
  endfacet
  facet normal -0 0 1
    outer loop
      vertex 9.37968 35.1562 37.6682
      vertex 18.7547 34.125 37.6682
      vertex 18.7547 35.1562 37.6682
    endloop
  endfacet
  facet normal 0 0 1
    outer loop
      vertex 18.7547 34.125 37.6682
      vertex 9.37968 35.1562 37.6682
      vertex 9.37968 34.125 37.6682
    endloop
  endfacet
  facet normal 0 -1 0
    outer loop
      vertex 34.125 28.1344 56.4229
      vertex 35.1562 28.1344 61.1151
      vertex 34.125 28.1344 61.1151
    endloop
  endfacet
  facet normal 0 -1 -0
    outer loop
      vertex 35.1562 28.1344 61.1151
      vertex 34.125 28.1344 56.4229
      vertex 35.1562 28.1344 56.4229
    endloop
  endfacet
  facet normal -0 0 1
    outer loop
      vertex -28.1344 -34.125 56.4229
      vertex -23.4422 -35.1562 56.4229
      vertex -23.4422 -34.125 56.4229
    endloop
  endfacet
  facet normal 0 0 1
    outer loop
      vertex -23.4422 -35.1562 56.4229
      vertex -28.1344 -34.125 56.4229
      vertex -28.1344 -35.1562 56.4229
    endloop
  endfacet
  facet normal 0 1 -0
    outer loop
      vertex -34.125 23.4422 56.4229
      vertex -35.1562 23.4422 61.1151
      vertex -34.125 23.4422 61.1151
    endloop
  endfacet
  facet normal 0 1 0
    outer loop
      vertex -35.1562 23.4422 61.1151
      vertex -34.125 23.4422 56.4229
      vertex -35.1562 23.4422 56.4229
    endloop
  endfacet
  facet normal 0 1 0
    outer loop
      vertex 14.0672 35.1562 56.4229
      vertex 23.4422 35.1562 61.1151
      vertex 23.4422 35.1562 56.4229
    endloop
  endfacet
  facet normal 0 1 0
    outer loop
      vertex -9.37968 35.1562 56.4229
      vertex 23.4422 35.1562 61.1151
      vertex 14.0672 35.1562 56.4229
    endloop
  endfacet
  facet normal 0 1 0
    outer loop
      vertex 23.4422 35.1562 61.1151
      vertex -9.37968 35.1562 56.4229
      vertex -23.4422 35.1562 61.1151
    endloop
  endfacet
  facet normal 0 1 0
    outer loop
      vertex -9.37968 35.1562 56.4229
      vertex -23.4422 35.1562 56.4229
      vertex -23.4422 35.1562 61.1151
    endloop
  endfacet
  facet normal 0 1 -0
    outer loop
      vertex -14.0672 35.1562 51.7354
      vertex -23.4422 35.1562 56.4229
      vertex -9.37968 35.1562 56.4229
    endloop
  endfacet
  facet normal 0 1 0
    outer loop
      vertex -14.0672 35.1562 51.7354
      vertex -9.37968 35.1562 56.4229
      vertex -9.37968 35.1562 51.7354
    endloop
  endfacet
  facet normal 0 1 0
    outer loop
      vertex 23.4422 35.1562 61.1151
      vertex 32.8219 35.1562 65.8026
      vertex 28.1344 35.1562 61.1151
    endloop
  endfacet
  facet normal 0 1 0
    outer loop
      vertex 32.8219 35.1562 65.8026
      vertex 28.1344 35.1562 56.4229
      vertex 28.1344 35.1562 61.1151
    endloop
  endfacet
  facet normal 0 1 0
    outer loop
      vertex 18.7547 35.1562 51.7354
      vertex 23.4422 35.1562 56.4229
      vertex 28.1344 35.1562 56.4229
    endloop
  endfacet
  facet normal 0 1 0
    outer loop
      vertex 23.4422 35.1562 56.4229
      vertex 18.7547 35.1562 51.7354
      vertex 14.0672 35.1562 56.4229
    endloop
  endfacet
  facet normal 0 1 0
    outer loop
      vertex 28.1344 35.1562 56.4229
      vertex 18.7547 35.1562 37.6682
      vertex 18.7547 35.1562 51.7354
    endloop
  endfacet
  facet normal 0 1 0
    outer loop
      vertex 4.6875 35.1562 32.9807
      vertex 9.37968 35.1562 37.6682
      vertex 18.7547 35.1562 37.6682
    endloop
  endfacet
  facet normal 0 1 0
    outer loop
      vertex 9.37968 35.1562 37.6682
      vertex 4.6875 35.1562 32.9807
      vertex 0 35.1562 37.6682
    endloop
  endfacet
  facet normal 0 1 0
    outer loop
      vertex 18.7547 35.1562 37.6682
      vertex 4.6875 35.1562 23.6011
      vertex 4.6875 35.1562 32.9807
    endloop
  endfacet
  facet normal 0 1 0
    outer loop
      vertex 4.6875 35.1562 23.6011
      vertex 32.8219 35.1562 19.875
      vertex -4.6875 35.1562 23.6011
    endloop
  endfacet
  facet normal 0 1 0
    outer loop
      vertex 18.7547 35.1562 37.6682
      vertex 32.8219 35.1562 19.875
      vertex 4.6875 35.1562 23.6011
    endloop
  endfacet
  facet normal 0 1 0
    outer loop
      vertex 28.1344 35.1562 56.4229
      vertex 32.8219 35.1562 19.875
      vertex 18.7547 35.1562 37.6682
    endloop
  endfacet
  facet normal 0 1 -0
    outer loop
      vertex 32.8219 35.1562 19.875
      vertex 28.1344 35.1562 56.4229
      vertex 32.8219 35.1562 65.8026
    endloop
  endfacet
  facet normal 0 1 0
    outer loop
      vertex 32.8219 35.1562 65.8026
      vertex 23.4422 35.1562 61.1151
      vertex -32.8219 35.1562 65.8026
    endloop
  endfacet
  facet normal 0 1 -0
    outer loop
      vertex -23.4422 35.1562 61.1151
      vertex -32.8219 35.1562 65.8026
      vertex 23.4422 35.1562 61.1151
    endloop
  endfacet
  facet normal 0 1 -0
    outer loop
      vertex -28.1344 35.1562 61.1151
      vertex -32.8219 35.1562 65.8026
      vertex -23.4422 35.1562 61.1151
    endloop
  endfacet
  facet normal 0 1 -0
    outer loop
      vertex -28.1344 35.1562 56.4229
      vertex -32.8219 35.1562 65.8026
      vertex -28.1344 35.1562 61.1151
    endloop
  endfacet
  facet normal 0 1 -0
    outer loop
      vertex -14.0672 35.1562 32.9807
      vertex -23.4422 35.1562 56.4229
      vertex -14.0672 35.1562 51.7354
    endloop
  endfacet
  facet normal 0 1 0
    outer loop
      vertex -23.4422 35.1562 56.4229
      vertex -14.0672 35.1562 32.9807
      vertex -28.1344 35.1562 56.4229
    endloop
  endfacet
  facet normal 0 1 0
    outer loop
      vertex -28.1344 35.1562 56.4229
      vertex -32.8219 35.1562 19.875
      vertex -32.8219 35.1562 65.8026
    endloop
  endfacet
  facet normal 0 1 0
    outer loop
      vertex -14.0672 35.1562 32.9807
      vertex -32.8219 35.1562 19.875
      vertex -28.1344 35.1562 56.4229
    endloop
  endfacet
  facet normal 0 1 0
    outer loop
      vertex -4.6875 35.1562 23.6011
      vertex -32.8219 35.1562 19.875
      vertex -14.0672 35.1562 32.9807
    endloop
  endfacet
  facet normal 0 1 0
    outer loop
      vertex -32.8219 35.1562 19.875
      vertex -4.6875 35.1562 23.6011
      vertex 32.8219 35.1562 19.875
    endloop
  endfacet
  facet normal 0 1 0
    outer loop
      vertex 14.0672 35.1562 56.4229
      vertex 18.7547 35.1562 51.7354
      vertex 14.0672 35.1562 51.7354
    endloop
  endfacet
  facet normal 0 1 0
    outer loop
      vertex 0 35.1562 37.6682
      vertex 9.37968 35.1562 51.7354
      vertex 9.37968 35.1562 37.6682
    endloop
  endfacet
  facet normal 0 1 0
    outer loop
      vertex 9.37968 35.1562 51.7354
      vertex 0 35.1562 37.6682
      vertex -4.6875 35.1562 51.7354
    endloop
  endfacet
  facet normal 0 1 0
    outer loop
      vertex -4.6875 35.1562 51.7354
      vertex 0 35.1562 37.6682
      vertex -4.6875 35.1562 37.6682
    endloop
  endfacet
  facet normal 0 1 0
    outer loop
      vertex 0 35.1562 37.6682
      vertex 4.6875 35.1562 32.9807
      vertex 0 35.1562 32.9807
    endloop
  endfacet
  facet normal 0 1 0
    outer loop
      vertex -4.6875 35.1562 32.9807
      vertex -4.6875 35.1562 23.6011
      vertex -14.0672 35.1562 32.9807
    endloop
  endfacet
  facet normal 0 0 -1
    outer loop
      vertex -28.1344 -35.1562 61.1151
      vertex -23.4422 -34.125 61.1151
      vertex -23.4422 -35.1562 61.1151
    endloop
  endfacet
  facet normal -0 0 -1
    outer loop
      vertex -23.4422 -34.125 61.1151
      vertex -28.1344 -35.1562 61.1151
      vertex -28.1344 -34.125 61.1151
    endloop
  endfacet
  facet normal -0 0 1
    outer loop
      vertex -4.6875 35.1562 51.7354
      vertex 9.37968 34.125 51.7354
      vertex 9.37968 35.1562 51.7354
    endloop
  endfacet
  facet normal 0 0 1
    outer loop
      vertex 9.37968 34.125 51.7354
      vertex -4.6875 35.1562 51.7354
      vertex -4.6875 34.125 51.7354
    endloop
  endfacet
  facet normal -1 0 0
    outer loop
      vertex 14.0672 -35.1562 32.9807
      vertex 14.0672 -34.125 51.7354
      vertex 14.0672 -34.125 32.9807
    endloop
  endfacet
  facet normal -1 -0 0
    outer loop
      vertex 14.0672 -34.125 51.7354
      vertex 14.0672 -35.1562 32.9807
      vertex 14.0672 -35.1562 51.7354
    endloop
  endfacet
  facet normal 0 0 -1
    outer loop
      vertex 14.0672 34.125 51.7354
      vertex 18.7547 35.1562 51.7354
      vertex 18.7547 34.125 51.7354
    endloop
  endfacet
  facet normal -0 0 -1
    outer loop
      vertex 18.7547 35.1562 51.7354
      vertex 14.0672 34.125 51.7354
      vertex 14.0672 35.1562 51.7354
    endloop
  endfacet
  facet normal 0 0 -1
    outer loop
      vertex -14.0672 34.125 51.7354
      vertex -9.37968 35.1562 51.7354
      vertex -9.37968 34.125 51.7354
    endloop
  endfacet
  facet normal -0 0 -1
    outer loop
      vertex -9.37968 35.1562 51.7354
      vertex -14.0672 34.125 51.7354
      vertex -14.0672 35.1562 51.7354
    endloop
  endfacet
  facet normal -1 0 0
    outer loop
      vertex 14.0672 34.125 51.7354
      vertex 14.0672 35.1562 56.4229
      vertex 14.0672 35.1562 51.7354
    endloop
  endfacet
  facet normal -1 -0 0
    outer loop
      vertex 14.0672 35.1562 56.4229
      vertex 14.0672 34.125 51.7354
      vertex 14.0672 34.125 56.4229
    endloop
  endfacet
  facet normal 1 -0 0
    outer loop
      vertex -18.7547 -35.1562 51.7354
      vertex -18.7547 -34.125 37.6682
      vertex -18.7547 -34.125 51.7354
    endloop
  endfacet
  facet normal 1 0 0
    outer loop
      vertex -18.7547 -34.125 37.6682
      vertex -18.7547 -35.1562 51.7354
      vertex -18.7547 -35.1562 37.6682
    endloop
  endfacet
  facet normal -0 0 1
    outer loop
      vertex -35.1562 -23.4422 56.4229
      vertex -34.125 -28.1344 56.4229
      vertex -34.125 -23.4422 56.4229
    endloop
  endfacet
  facet normal 0 0 1
    outer loop
      vertex -34.125 -28.1344 56.4229
      vertex -35.1562 -23.4422 56.4229
      vertex -35.1562 -28.1344 56.4229
    endloop
  endfacet
  facet normal -1 0 0
    outer loop
      vertex 28.1344 34.125 56.4229
      vertex 28.1344 35.1562 61.1151
      vertex 28.1344 35.1562 56.4229
    endloop
  endfacet
  facet normal -1 -0 0
    outer loop
      vertex 28.1344 35.1562 61.1151
      vertex 28.1344 34.125 56.4229
      vertex 28.1344 34.125 61.1151
    endloop
  endfacet
  facet normal 1 -0 0
    outer loop
      vertex -9.37968 34.125 56.4229
      vertex -9.37968 35.1562 51.7354
      vertex -9.37968 35.1562 56.4229
    endloop
  endfacet
  facet normal 1 0 0
    outer loop
      vertex -9.37968 35.1562 51.7354
      vertex -9.37968 34.125 56.4229
      vertex -9.37968 34.125 51.7354
    endloop
  endfacet
  facet normal 0 0 -1
    outer loop
      vertex -9.37968 34.125 56.4229
      vertex 14.0672 35.1562 56.4229
      vertex 14.0672 34.125 56.4229
    endloop
  endfacet
  facet normal -0 0 -1
    outer loop
      vertex 14.0672 35.1562 56.4229
      vertex -9.37968 34.125 56.4229
      vertex -9.37968 35.1562 56.4229
    endloop
  endfacet
  facet normal 0 0 -1
    outer loop
      vertex -35.1562 -28.1344 61.1151
      vertex -34.125 -23.4422 61.1151
      vertex -34.125 -28.1344 61.1151
    endloop
  endfacet
  facet normal -0 0 -1
    outer loop
      vertex -34.125 -23.4422 61.1151
      vertex -35.1562 -28.1344 61.1151
      vertex -35.1562 -23.4422 61.1151
    endloop
  endfacet
  facet normal -1 0 0
    outer loop
      vertex 18.7547 34.125 37.6682
      vertex 18.7547 35.1562 51.7354
      vertex 18.7547 35.1562 37.6682
    endloop
  endfacet
  facet normal -1 -0 0
    outer loop
      vertex 18.7547 35.1562 51.7354
      vertex 18.7547 34.125 37.6682
      vertex 18.7547 34.125 51.7354
    endloop
  endfacet
  facet normal -1 0 0
    outer loop
      vertex 28.1344 -35.1562 56.4229
      vertex 28.1344 -34.125 61.1151
      vertex 28.1344 -34.125 56.4229
    endloop
  endfacet
  facet normal -1 -0 0
    outer loop
      vertex 28.1344 -34.125 61.1151
      vertex 28.1344 -35.1562 56.4229
      vertex 28.1344 -35.1562 61.1151
    endloop
  endfacet
  facet normal 0 -1 0
    outer loop
      vertex -35.1562 -23.4422 56.4229
      vertex -34.125 -23.4422 61.1151
      vertex -35.1562 -23.4422 61.1151
    endloop
  endfacet
  facet normal 0 -1 -0
    outer loop
      vertex -34.125 -23.4422 61.1151
      vertex -35.1562 -23.4422 56.4229
      vertex -34.125 -23.4422 56.4229
    endloop
  endfacet
  facet normal 0 1 -0
    outer loop
      vertex 35.1562 32.8219 19.875
      vertex 34.125 32.8219 65.8026
      vertex 35.1562 32.8219 65.8026
    endloop
  endfacet
  facet normal 0 1 0
    outer loop
      vertex 34.125 32.8219 65.8026
      vertex 35.1562 32.8219 19.875
      vertex 34.125 32.8219 19.875
    endloop
  endfacet
  facet normal 0 -1 0
    outer loop
      vertex 34.125 -32.8219 19.875
      vertex 35.1562 -32.8219 65.8026
      vertex 34.125 -32.8219 65.8026
    endloop
  endfacet
  facet normal 0 -1 -0
    outer loop
      vertex 35.1562 -32.8219 65.8026
      vertex 34.125 -32.8219 19.875
      vertex 35.1562 -32.8219 19.875
    endloop
  endfacet
  facet normal -0 0 1
    outer loop
      vertex 34.125 -23.4422 56.4229
      vertex 35.1562 -28.1344 56.4229
      vertex 35.1562 -23.4422 56.4229
    endloop
  endfacet
  facet normal 0 0 1
    outer loop
      vertex 35.1562 -28.1344 56.4229
      vertex 34.125 -23.4422 56.4229
      vertex 34.125 -28.1344 56.4229
    endloop
  endfacet
  facet normal 1 -0 0
    outer loop
      vertex -14.0672 34.125 51.7354
      vertex -14.0672 35.1562 32.9807
      vertex -14.0672 35.1562 51.7354
    endloop
  endfacet
  facet normal 1 0 0
    outer loop
      vertex -14.0672 35.1562 32.9807
      vertex -14.0672 34.125 51.7354
      vertex -14.0672 34.125 32.9807
    endloop
  endfacet
  facet normal 0 0 -1
    outer loop
      vertex -35.1562 0 32.9807
      vertex -34.125 4.6875 32.9807
      vertex -34.125 0 32.9807
    endloop
  endfacet
  facet normal -0 0 -1
    outer loop
      vertex -34.125 4.6875 32.9807
      vertex -35.1562 0 32.9807
      vertex -35.1562 4.6875 32.9807
    endloop
  endfacet
  facet normal 1 -0 0
    outer loop
      vertex 32.8219 34.125 65.8026
      vertex 32.8219 35.1562 19.875
      vertex 32.8219 35.1562 65.8026
    endloop
  endfacet
  facet normal 1 0 0
    outer loop
      vertex 32.8219 35.1562 19.875
      vertex 32.8219 34.125 65.8026
      vertex 32.8219 34.125 19.875
    endloop
  endfacet
  facet normal -0 0 1
    outer loop
      vertex -35.1562 -4.6875 32.9807
      vertex -34.125 -14.0672 32.9807
      vertex -34.125 -4.6875 32.9807
    endloop
  endfacet
  facet normal 0 0 1
    outer loop
      vertex -34.125 -14.0672 32.9807
      vertex -35.1562 -4.6875 32.9807
      vertex -35.1562 -14.0672 32.9807
    endloop
  endfacet
  facet normal 0 0 -1
    outer loop
      vertex 34.125 -28.1344 61.1151
      vertex 35.1562 -23.4422 61.1151
      vertex 35.1562 -28.1344 61.1151
    endloop
  endfacet
  facet normal -0 0 -1
    outer loop
      vertex 35.1562 -23.4422 61.1151
      vertex 34.125 -28.1344 61.1151
      vertex 34.125 -23.4422 61.1151
    endloop
  endfacet
  facet normal -1 0 0
    outer loop
      vertex -32.8219 -35.1562 19.875
      vertex -32.8219 -34.125 65.8026
      vertex -32.8219 -34.125 19.875
    endloop
  endfacet
  facet normal -1 -0 0
    outer loop
      vertex -32.8219 -34.125 65.8026
      vertex -32.8219 -35.1562 19.875
      vertex -32.8219 -35.1562 65.8026
    endloop
  endfacet
  facet normal 0 1 -0
    outer loop
      vertex 35.1562 -28.1344 56.4229
      vertex 34.125 -28.1344 61.1151
      vertex 35.1562 -28.1344 61.1151
    endloop
  endfacet
  facet normal 0 1 0
    outer loop
      vertex 34.125 -28.1344 61.1151
      vertex 35.1562 -28.1344 56.4229
      vertex 34.125 -28.1344 56.4229
    endloop
  endfacet
  facet normal 0 -1 0
    outer loop
      vertex 34.125 -23.4422 56.4229
      vertex 35.1562 -23.4422 61.1151
      vertex 34.125 -23.4422 61.1151
    endloop
  endfacet
  facet normal 0 -1 -0
    outer loop
      vertex 35.1562 -23.4422 61.1151
      vertex 34.125 -23.4422 56.4229
      vertex 35.1562 -23.4422 56.4229
    endloop
  endfacet
  facet normal -1 0 0
    outer loop
      vertex -35.1562 -9.37968 51.7354
      vertex -35.1562 -14.0672 51.7354
      vertex -35.1562 -9.37968 56.4229
    endloop
  endfacet
  facet normal -1 0 0
    outer loop
      vertex -35.1562 32.8219 19.875
      vertex -35.1562 28.1344 56.4229
      vertex -35.1562 32.8219 65.8026
    endloop
  endfacet
  facet normal -1 0 0
    outer loop
      vertex -35.1562 18.7547 37.6682
      vertex -35.1562 28.1344 56.4229
      vertex -35.1562 32.8219 19.875
    endloop
  endfacet
  facet normal -1 -0 0
    outer loop
      vertex -35.1562 28.1344 56.4229
      vertex -35.1562 18.7547 51.7354
      vertex -35.1562 23.4422 56.4229
    endloop
  endfacet
  facet normal -1 0 0
    outer loop
      vertex -35.1562 18.7547 51.7354
      vertex -35.1562 28.1344 56.4229
      vertex -35.1562 18.7547 37.6682
    endloop
  endfacet
  facet normal -1 0 0
    outer loop
      vertex -35.1562 4.6875 23.6011
      vertex -35.1562 18.7547 37.6682
      vertex -35.1562 32.8219 19.875
    endloop
  endfacet
  facet normal -1 0 0
    outer loop
      vertex -35.1562 4.6875 32.9807
      vertex -35.1562 9.37968 37.6682
      vertex -35.1562 4.6875 23.6011
    endloop
  endfacet
  facet normal -1 -0 0
    outer loop
      vertex -35.1562 18.7547 37.6682
      vertex -35.1562 4.6875 23.6011
      vertex -35.1562 9.37968 37.6682
    endloop
  endfacet
  facet normal -1 0 0
    outer loop
      vertex -35.1562 32.8219 19.875
      vertex -35.1562 -4.6875 23.6011
      vertex -35.1562 4.6875 23.6011
    endloop
  endfacet
  facet normal -1 0 0
    outer loop
      vertex -35.1562 -4.6875 23.6011
      vertex -35.1562 -14.0672 32.9807
      vertex -35.1562 -4.6875 32.9807
    endloop
  endfacet
  facet normal -1 0 0
    outer loop
      vertex -35.1562 -14.0672 32.9807
      vertex -35.1562 -23.4422 56.4229
      vertex -35.1562 -14.0672 51.7354
    endloop
  endfacet
  facet normal -1 0 0
    outer loop
      vertex -35.1562 -14.0672 32.9807
      vertex -35.1562 -28.1344 56.4229
      vertex -35.1562 -23.4422 56.4229
    endloop
  endfacet
  facet normal -1 0 0
    outer loop
      vertex -35.1562 -32.8219 65.8026
      vertex -35.1562 -28.1344 56.4229
      vertex -35.1562 -32.8219 19.875
    endloop
  endfacet
  facet normal -1 -0 0
    outer loop
      vertex -35.1562 -14.0672 32.9807
      vertex -35.1562 -32.8219 19.875
      vertex -35.1562 -28.1344 56.4229
    endloop
  endfacet
  facet normal -1 -0 0
    outer loop
      vertex -35.1562 -4.6875 23.6011
      vertex -35.1562 -32.8219 19.875
      vertex -35.1562 -14.0672 32.9807
    endloop
  endfacet
  facet normal -1 0 0
    outer loop
      vertex -35.1562 -32.8219 19.875
      vertex -35.1562 -4.6875 23.6011
      vertex -35.1562 32.8219 19.875
    endloop
  endfacet
  facet normal -1 0 0
    outer loop
      vertex -35.1562 28.1344 61.1151
      vertex -35.1562 32.8219 65.8026
      vertex -35.1562 28.1344 56.4229
    endloop
  endfacet
  facet normal -1 0 0
    outer loop
      vertex -35.1562 23.4422 61.1151
      vertex -35.1562 32.8219 65.8026
      vertex -35.1562 28.1344 61.1151
    endloop
  endfacet
  facet normal -1 0 0
    outer loop
      vertex -35.1562 14.0672 56.4229
      vertex -35.1562 23.4422 56.4229
      vertex -35.1562 18.7547 51.7354
    endloop
  endfacet
  facet normal -1 0 0
    outer loop
      vertex -35.1562 14.0672 56.4229
      vertex -35.1562 18.7547 51.7354
      vertex -35.1562 14.0672 51.7354
    endloop
  endfacet
  facet normal -1 0 0
    outer loop
      vertex -35.1562 23.4422 56.4229
      vertex -35.1562 14.0672 56.4229
      vertex -35.1562 23.4422 61.1151
    endloop
  endfacet
  facet normal -1 0 0
    outer loop
      vertex -35.1562 -9.37968 56.4229
      vertex -35.1562 23.4422 61.1151
      vertex -35.1562 14.0672 56.4229
    endloop
  endfacet
  facet normal -1 0 0
    outer loop
      vertex -35.1562 -23.4422 61.1151
      vertex -35.1562 23.4422 61.1151
      vertex -35.1562 -9.37968 56.4229
    endloop
  endfacet
  facet normal -1 0 0
    outer loop
      vertex -35.1562 -23.4422 56.4229
      vertex -35.1562 -9.37968 56.4229
      vertex -35.1562 -14.0672 51.7354
    endloop
  endfacet
  facet normal -1 0 0
    outer loop
      vertex -35.1562 -23.4422 61.1151
      vertex -35.1562 -9.37968 56.4229
      vertex -35.1562 -23.4422 56.4229
    endloop
  endfacet
  facet normal -1 0 0
    outer loop
      vertex -35.1562 23.4422 61.1151
      vertex -35.1562 -23.4422 61.1151
      vertex -35.1562 32.8219 65.8026
    endloop
  endfacet
  facet normal -1 0 0
    outer loop
      vertex -35.1562 -32.8219 65.8026
      vertex -35.1562 -23.4422 61.1151
      vertex -35.1562 -28.1344 61.1151
    endloop
  endfacet
  facet normal -1 0 0
    outer loop
      vertex -35.1562 -23.4422 61.1151
      vertex -35.1562 -32.8219 65.8026
      vertex -35.1562 32.8219 65.8026
    endloop
  endfacet
  facet normal -1 0 0
    outer loop
      vertex -35.1562 -28.1344 56.4229
      vertex -35.1562 -32.8219 65.8026
      vertex -35.1562 -28.1344 61.1151
    endloop
  endfacet
  facet normal -1 0 0
    outer loop
      vertex -35.1562 0 37.6682
      vertex -35.1562 9.37968 37.6682
      vertex -35.1562 4.6875 32.9807
    endloop
  endfacet
  facet normal -1 0 0
    outer loop
      vertex -35.1562 0 37.6682
      vertex -35.1562 4.6875 32.9807
      vertex -35.1562 0 32.9807
    endloop
  endfacet
  facet normal -1 0 0
    outer loop
      vertex -35.1562 9.37968 37.6682
      vertex -35.1562 0 37.6682
      vertex -35.1562 9.37968 51.7354
    endloop
  endfacet
  facet normal -1 0 0
    outer loop
      vertex -35.1562 -4.6875 51.7354
      vertex -35.1562 0 37.6682
      vertex -35.1562 -4.6875 37.6682
    endloop
  endfacet
  facet normal -1 0 0
    outer loop
      vertex -35.1562 0 37.6682
      vertex -35.1562 -4.6875 51.7354
      vertex -35.1562 9.37968 51.7354
    endloop
  endfacet
  facet normal -0 0 1
    outer loop
      vertex 34.125 28.1344 56.4229
      vertex 35.1562 23.4422 56.4229
      vertex 35.1562 28.1344 56.4229
    endloop
  endfacet
  facet normal 0 0 1
    outer loop
      vertex 35.1562 23.4422 56.4229
      vertex 34.125 28.1344 56.4229
      vertex 34.125 23.4422 56.4229
    endloop
  endfacet
  facet normal 0 0 -1
    outer loop
      vertex 34.125 23.4422 61.1151
      vertex 35.1562 28.1344 61.1151
      vertex 35.1562 23.4422 61.1151
    endloop
  endfacet
  facet normal -0 0 -1
    outer loop
      vertex 35.1562 28.1344 61.1151
      vertex 34.125 23.4422 61.1151
      vertex 34.125 28.1344 61.1151
    endloop
  endfacet
  facet normal -0 0 1
    outer loop
      vertex -35.1562 4.6875 23.6011
      vertex -34.125 -4.6875 23.6011
      vertex -34.125 4.6875 23.6011
    endloop
  endfacet
  facet normal 0 0 1
    outer loop
      vertex -34.125 -4.6875 23.6011
      vertex -35.1562 4.6875 23.6011
      vertex -35.1562 -4.6875 23.6011
    endloop
  endfacet
  facet normal 1 -0 0
    outer loop
      vertex 32.8219 -35.1562 65.8026
      vertex 32.8219 -34.125 19.875
      vertex 32.8219 -34.125 65.8026
    endloop
  endfacet
  facet normal 1 0 0
    outer loop
      vertex 32.8219 -34.125 19.875
      vertex 32.8219 -35.1562 65.8026
      vertex 32.8219 -35.1562 19.875
    endloop
  endfacet
  facet normal 0 1 -0
    outer loop
      vertex 35.1562 23.4422 56.4229
      vertex 34.125 23.4422 61.1151
      vertex 35.1562 23.4422 61.1151
    endloop
  endfacet
  facet normal 0 1 0
    outer loop
      vertex 34.125 23.4422 61.1151
      vertex 35.1562 23.4422 56.4229
      vertex 34.125 23.4422 56.4229
    endloop
  endfacet
  facet normal 0 1 -0
    outer loop
      vertex -34.125 -4.6875 23.6011
      vertex -35.1562 -4.6875 32.9807
      vertex -34.125 -4.6875 32.9807
    endloop
  endfacet
  facet normal 0 1 0
    outer loop
      vertex -35.1562 -4.6875 32.9807
      vertex -34.125 -4.6875 23.6011
      vertex -35.1562 -4.6875 23.6011
    endloop
  endfacet
  facet normal 0 1 -0
    outer loop
      vertex 35.1562 0 32.9807
      vertex 34.125 0 37.6682
      vertex 35.1562 0 37.6682
    endloop
  endfacet
  facet normal 0 1 0
    outer loop
      vertex 34.125 0 37.6682
      vertex 35.1562 0 32.9807
      vertex 34.125 0 32.9807
    endloop
  endfacet
  facet normal 0 0 -1
    outer loop
      vertex 34.125 -4.6875 32.9807
      vertex 35.1562 0 32.9807
      vertex 35.1562 -4.6875 32.9807
    endloop
  endfacet
  facet normal -0 0 -1
    outer loop
      vertex 35.1562 0 32.9807
      vertex 34.125 -4.6875 32.9807
      vertex 34.125 0 32.9807
    endloop
  endfacet
  facet normal -0 0 1
    outer loop
      vertex 34.125 14.0672 32.9807
      vertex 35.1562 4.6875 32.9807
      vertex 35.1562 14.0672 32.9807
    endloop
  endfacet
  facet normal 0 0 1
    outer loop
      vertex 35.1562 4.6875 32.9807
      vertex 34.125 14.0672 32.9807
      vertex 34.125 4.6875 32.9807
    endloop
  endfacet
  facet normal 0 -1 0
    outer loop
      vertex -35.1562 4.6875 23.6011
      vertex -34.125 4.6875 32.9807
      vertex -35.1562 4.6875 32.9807
    endloop
  endfacet
  facet normal 0 -1 -0
    outer loop
      vertex -34.125 4.6875 32.9807
      vertex -35.1562 4.6875 23.6011
      vertex -34.125 4.6875 23.6011
    endloop
  endfacet
  facet normal -0 0 1
    outer loop
      vertex 34.125 4.6875 23.6011
      vertex 35.1562 -4.6875 23.6011
      vertex 35.1562 4.6875 23.6011
    endloop
  endfacet
  facet normal 0 0 1
    outer loop
      vertex 35.1562 -4.6875 23.6011
      vertex 34.125 4.6875 23.6011
      vertex 34.125 -4.6875 23.6011
    endloop
  endfacet
  facet normal 0 -1 0
    outer loop
      vertex -35.1562 -4.6875 37.6682
      vertex -34.125 -4.6875 51.7354
      vertex -35.1562 -4.6875 51.7354
    endloop
  endfacet
  facet normal 0 -1 -0
    outer loop
      vertex -34.125 -4.6875 51.7354
      vertex -35.1562 -4.6875 37.6682
      vertex -34.125 -4.6875 37.6682
    endloop
  endfacet
  facet normal 0 -1 0
    outer loop
      vertex 34.125 4.6875 23.6011
      vertex 35.1562 4.6875 32.9807
      vertex 34.125 4.6875 32.9807
    endloop
  endfacet
  facet normal 0 -1 -0
    outer loop
      vertex 35.1562 4.6875 32.9807
      vertex 34.125 4.6875 23.6011
      vertex 35.1562 4.6875 23.6011
    endloop
  endfacet
  facet normal 0 0 -1
    outer loop
      vertex -35.1562 -4.6875 37.6682
      vertex -34.125 0 37.6682
      vertex -34.125 -4.6875 37.6682
    endloop
  endfacet
  facet normal -0 0 -1
    outer loop
      vertex -34.125 0 37.6682
      vertex -35.1562 -4.6875 37.6682
      vertex -35.1562 0 37.6682
    endloop
  endfacet
  facet normal 0 -1 0
    outer loop
      vertex -35.1562 0 32.9807
      vertex -34.125 0 37.6682
      vertex -35.1562 0 37.6682
    endloop
  endfacet
  facet normal 0 -1 -0
    outer loop
      vertex -34.125 0 37.6682
      vertex -35.1562 0 32.9807
      vertex -34.125 0 32.9807
    endloop
  endfacet
  facet normal 1 -0 0
    outer loop
      vertex 0 -35.1562 37.6682
      vertex 0 -34.125 32.9807
      vertex 0 -34.125 37.6682
    endloop
  endfacet
  facet normal 1 0 0
    outer loop
      vertex 0 -34.125 32.9807
      vertex 0 -35.1562 37.6682
      vertex 0 -35.1562 32.9807
    endloop
  endfacet
  facet normal 0 0 -1
    outer loop
      vertex -4.6875 -35.1562 32.9807
      vertex 0 -34.125 32.9807
      vertex 0 -35.1562 32.9807
    endloop
  endfacet
  facet normal -0 0 -1
    outer loop
      vertex 0 -34.125 32.9807
      vertex -4.6875 -35.1562 32.9807
      vertex -4.6875 -34.125 32.9807
    endloop
  endfacet
  facet normal -0 0 1
    outer loop
      vertex 4.6875 -34.125 32.9807
      vertex 14.0672 -35.1562 32.9807
      vertex 14.0672 -34.125 32.9807
    endloop
  endfacet
  facet normal 0 0 1
    outer loop
      vertex 14.0672 -35.1562 32.9807
      vertex 4.6875 -34.125 32.9807
      vertex 4.6875 -35.1562 32.9807
    endloop
  endfacet
  facet normal -1 0 0
    outer loop
      vertex -23.4422 34.125 56.4229
      vertex -23.4422 35.1562 61.1151
      vertex -23.4422 35.1562 56.4229
    endloop
  endfacet
  facet normal -1 -0 0
    outer loop
      vertex -23.4422 35.1562 61.1151
      vertex -23.4422 34.125 56.4229
      vertex -23.4422 34.125 61.1151
    endloop
  endfacet
  facet normal -0 0 1
    outer loop
      vertex -4.6875 -34.125 23.6011
      vertex 4.6875 -35.1562 23.6011
      vertex 4.6875 -34.125 23.6011
    endloop
  endfacet
  facet normal 0 0 1
    outer loop
      vertex 4.6875 -35.1562 23.6011
      vertex -4.6875 -34.125 23.6011
      vertex -4.6875 -35.1562 23.6011
    endloop
  endfacet
  facet normal -1 0 0
    outer loop
      vertex 4.6875 -35.1562 23.6011
      vertex 4.6875 -34.125 32.9807
      vertex 4.6875 -34.125 23.6011
    endloop
  endfacet
  facet normal -1 -0 0
    outer loop
      vertex 4.6875 -34.125 32.9807
      vertex 4.6875 -35.1562 23.6011
      vertex 4.6875 -35.1562 32.9807
    endloop
  endfacet
  facet normal -1 0 0
    outer loop
      vertex -23.4422 -35.1562 56.4229
      vertex -23.4422 -34.125 61.1151
      vertex -23.4422 -34.125 56.4229
    endloop
  endfacet
  facet normal -1 -0 0
    outer loop
      vertex -23.4422 -34.125 61.1151
      vertex -23.4422 -35.1562 56.4229
      vertex -23.4422 -35.1562 61.1151
    endloop
  endfacet
  facet normal 1 -0 0
    outer loop
      vertex -4.6875 -35.1562 32.9807
      vertex -4.6875 -34.125 23.6011
      vertex -4.6875 -34.125 32.9807
    endloop
  endfacet
  facet normal 1 0 0
    outer loop
      vertex -4.6875 -34.125 23.6011
      vertex -4.6875 -35.1562 32.9807
      vertex -4.6875 -35.1562 23.6011
    endloop
  endfacet
  facet normal -0 0 1
    outer loop
      vertex 34.125 32.8219 65.8026
      vertex 35.1562 -32.8219 65.8026
      vertex 35.1562 32.8219 65.8026
    endloop
  endfacet
  facet normal 0 0 1
    outer loop
      vertex 35.1562 -32.8219 65.8026
      vertex 34.125 32.8219 65.8026
      vertex 34.125 -32.8219 65.8026
    endloop
  endfacet
  facet normal -0 0 1
    outer loop
      vertex -32.8219 -34.125 65.8026
      vertex 32.8219 -35.1562 65.8026
      vertex 32.8219 -34.125 65.8026
    endloop
  endfacet
  facet normal 0 0 1
    outer loop
      vertex 32.8219 -35.1562 65.8026
      vertex -32.8219 -34.125 65.8026
      vertex -32.8219 -35.1562 65.8026
    endloop
  endfacet
  facet normal -0 0 1
    outer loop
      vertex -32.8219 35.1562 65.8026
      vertex 32.8219 34.125 65.8026
      vertex 32.8219 35.1562 65.8026
    endloop
  endfacet
  facet normal 0 0 1
    outer loop
      vertex 32.8219 34.125 65.8026
      vertex -32.8219 35.1562 65.8026
      vertex -32.8219 34.125 65.8026
    endloop
  endfacet
  facet normal -0 0 1
    outer loop
      vertex -35.1562 32.8219 65.8026
      vertex -34.125 -32.8219 65.8026
      vertex -34.125 32.8219 65.8026
    endloop
  endfacet
  facet normal 0 0 1
    outer loop
      vertex -34.125 -32.8219 65.8026
      vertex -35.1562 32.8219 65.8026
      vertex -35.1562 -32.8219 65.8026
    endloop
  endfacet
  facet normal 1 0 0
    outer loop
      vertex 34.125 34.125 65.8163
      vertex 34.125 32.8219 65.8026
      vertex 34.125 34.125 19.875
    endloop
  endfacet
  facet normal 1 0 0
    outer loop
      vertex 34.125 34.125 65.8163
      vertex 34.125 -32.8219 65.8026
      vertex 34.125 32.8219 65.8026
    endloop
  endfacet
  facet normal 1 -0 0
    outer loop
      vertex 34.125 -34.125 65.8163
      vertex 34.125 -32.8219 65.8026
      vertex 34.125 34.125 65.8163
    endloop
  endfacet
  facet normal 1 0 0
    outer loop
      vertex 34.125 -34.125 19.875
      vertex 34.125 -32.8219 65.8026
      vertex 34.125 -34.125 65.8163
    endloop
  endfacet
  facet normal 1 0 0
    outer loop
      vertex 34.125 -32.8219 65.8026
      vertex 34.125 -34.125 19.875
      vertex 34.125 -32.8219 19.875
    endloop
  endfacet
  facet normal 1 0 0
    outer loop
      vertex 34.125 34.125 19.875
      vertex 34.125 32.8219 65.8026
      vertex 34.125 32.8219 19.875
    endloop
  endfacet
  facet normal 1 0 0
    outer loop
      vertex 34.125 9.37968 56.4229
      vertex 34.125 4.6875 51.7354
      vertex 34.125 9.37968 51.7354
    endloop
  endfacet
  facet normal 1 0 0
    outer loop
      vertex 34.125 9.37968 56.4229
      vertex 34.125 -9.37968 51.7354
      vertex 34.125 4.6875 51.7354
    endloop
  endfacet
  facet normal 1 -0 0
    outer loop
      vertex 34.125 -14.0672 56.4229
      vertex 34.125 -9.37968 51.7354
      vertex 34.125 9.37968 56.4229
    endloop
  endfacet
  facet normal 1 0 0
    outer loop
      vertex 34.125 -14.0672 51.7354
      vertex 34.125 -9.37968 51.7354
      vertex 34.125 -14.0672 56.4229
    endloop
  endfacet
  facet normal 1 0 0
    outer loop
      vertex 34.125 -9.37968 51.7354
      vertex 34.125 -14.0672 51.7354
      vertex 34.125 -9.37968 37.6682
    endloop
  endfacet
  facet normal 1 0 0
    outer loop
      vertex 34.125 -18.7547 37.6682
      vertex 34.125 -14.0672 51.7354
      vertex 34.125 -18.7547 51.7354
    endloop
  endfacet
  facet normal 1 0 0
    outer loop
      vertex 34.125 -14.0672 51.7354
      vertex 34.125 -18.7547 37.6682
      vertex 34.125 -9.37968 37.6682
    endloop
  endfacet
  facet normal 1 0 0
    outer loop
      vertex 34.125 4.6875 37.6682
      vertex 34.125 14.0672 51.7354
      vertex 34.125 9.37968 51.7354
    endloop
  endfacet
  facet normal 1 0 0
    outer loop
      vertex 34.125 4.6875 37.6682
      vertex 34.125 9.37968 51.7354
      vertex 34.125 4.6875 51.7354
    endloop
  endfacet
  facet normal 1 0 0
    outer loop
      vertex 34.125 14.0672 51.7354
      vertex 34.125 4.6875 37.6682
      vertex 34.125 14.0672 32.9807
    endloop
  endfacet
  facet normal 1 0 0
    outer loop
      vertex 34.125 4.6875 37.6682
      vertex 34.125 4.6875 32.9807
      vertex 34.125 14.0672 32.9807
    endloop
  endfacet
  facet normal 1 0 0
    outer loop
      vertex 34.125 0 32.9807
      vertex 34.125 4.6875 32.9807
      vertex 34.125 4.6875 37.6682
    endloop
  endfacet
  facet normal 1 0 0
    outer loop
      vertex 34.125 0 32.9807
      vertex 34.125 4.6875 37.6682
      vertex 34.125 0 37.6682
    endloop
  endfacet
  facet normal 1 0 0
    outer loop
      vertex 34.125 4.6875 32.9807
      vertex 34.125 0 32.9807
      vertex 34.125 4.6875 23.6011
    endloop
  endfacet
  facet normal 1 0 0
    outer loop
      vertex 34.125 -4.6875 23.6011
      vertex 34.125 0 32.9807
      vertex 34.125 -4.6875 32.9807
    endloop
  endfacet
  facet normal 1 0 0
    outer loop
      vertex 34.125 0 32.9807
      vertex 34.125 -4.6875 23.6011
      vertex 34.125 4.6875 23.6011
    endloop
  endfacet
  facet normal 1 -0 0
    outer loop
      vertex 34.125 -28.1344 61.1151
      vertex 34.125 -23.4422 56.4229
      vertex 34.125 -23.4422 61.1151
    endloop
  endfacet
  facet normal 1 0 0
    outer loop
      vertex 34.125 -23.4422 56.4229
      vertex 34.125 -28.1344 61.1151
      vertex 34.125 -28.1344 56.4229
    endloop
  endfacet
  facet normal 1 -0 0
    outer loop
      vertex 34.125 23.4422 61.1151
      vertex 34.125 28.1344 56.4229
      vertex 34.125 28.1344 61.1151
    endloop
  endfacet
  facet normal 1 0 0
    outer loop
      vertex 34.125 28.1344 56.4229
      vertex 34.125 23.4422 61.1151
      vertex 34.125 23.4422 56.4229
    endloop
  endfacet
  facet normal 0 0 1
    outer loop
      vertex 34.125 34.125 65.8163
      vertex 32.75 32.75 65.8163
      vertex 34.125 -34.125 65.8163
    endloop
  endfacet
  facet normal 0 0 1
    outer loop
      vertex 34.125 34.125 65.8163
      vertex -32.75 32.75 65.8163
      vertex 32.75 32.75 65.8163
    endloop
  endfacet
  facet normal 0 0 1
    outer loop
      vertex -32.75 32.75 65.8163
      vertex -34.125 34.125 65.8163
      vertex -32.75 -32.75 65.8163
    endloop
  endfacet
  facet normal -0 0 1
    outer loop
      vertex -34.125 34.125 65.8163
      vertex -32.75 32.75 65.8163
      vertex 34.125 34.125 65.8163
    endloop
  endfacet
  facet normal -0 0 1
    outer loop
      vertex 32.75 -32.75 65.8163
      vertex 34.125 -34.125 65.8163
      vertex 32.75 32.75 65.8163
    endloop
  endfacet
  facet normal -0 0 1
    outer loop
      vertex -32.75 -32.75 65.8163
      vertex 34.125 -34.125 65.8163
      vertex 32.75 -32.75 65.8163
    endloop
  endfacet
  facet normal 0 0 1
    outer loop
      vertex -32.75 -32.75 65.8163
      vertex -34.125 -34.125 65.8163
      vertex 34.125 -34.125 65.8163
    endloop
  endfacet
  facet normal 0 0 1
    outer loop
      vertex -34.125 -34.125 65.8163
      vertex -32.75 -32.75 65.8163
      vertex -34.125 34.125 65.8163
    endloop
  endfacet
  facet normal -1 0 0
    outer loop
      vertex -34.125 -32.8219 19.875
      vertex -34.125 -34.125 19.875
      vertex -34.125 -32.8219 65.8026
    endloop
  endfacet
  facet normal -1 0 0
    outer loop
      vertex -34.125 32.8219 65.8026
      vertex -34.125 34.125 19.875
      vertex -34.125 32.8219 19.875
    endloop
  endfacet
  facet normal -1 0 0
    outer loop
      vertex -34.125 34.125 19.875
      vertex -34.125 32.8219 65.8026
      vertex -34.125 34.125 65.8163
    endloop
  endfacet
  facet normal -1 0 0
    outer loop
      vertex -34.125 -32.8219 65.8026
      vertex -34.125 34.125 65.8163
      vertex -34.125 32.8219 65.8026
    endloop
  endfacet
  facet normal -1 0 0
    outer loop
      vertex -34.125 -32.8219 65.8026
      vertex -34.125 -34.125 65.8163
      vertex -34.125 34.125 65.8163
    endloop
  endfacet
  facet normal -1 0 0
    outer loop
      vertex -34.125 -34.125 65.8163
      vertex -34.125 -32.8219 65.8026
      vertex -34.125 -34.125 19.875
    endloop
  endfacet
  facet normal -1 0 0
    outer loop
      vertex -34.125 4.6875 23.6011
      vertex -34.125 0 32.9807
      vertex -34.125 4.6875 32.9807
    endloop
  endfacet
  facet normal -1 0 0
    outer loop
      vertex -34.125 -4.6875 23.6011
      vertex -34.125 0 32.9807
      vertex -34.125 4.6875 23.6011
    endloop
  endfacet
  facet normal -1 0 0
    outer loop
      vertex -34.125 -4.6875 32.9807
      vertex -34.125 0 32.9807
      vertex -34.125 -4.6875 23.6011
    endloop
  endfacet
  facet normal -1 0 0
    outer loop
      vertex -34.125 0 32.9807
      vertex -34.125 -4.6875 32.9807
      vertex -34.125 0 37.6682
    endloop
  endfacet
  facet normal -1 0 0
    outer loop
      vertex -34.125 -4.6875 32.9807
      vertex -34.125 -4.6875 37.6682
      vertex -34.125 0 37.6682
    endloop
  endfacet
  facet normal -1 0 0
    outer loop
      vertex -34.125 -14.0672 32.9807
      vertex -34.125 -4.6875 37.6682
      vertex -34.125 -4.6875 32.9807
    endloop
  endfacet
  facet normal -1 0 0
    outer loop
      vertex -34.125 -4.6875 37.6682
      vertex -34.125 -9.37968 51.7354
      vertex -34.125 -4.6875 51.7354
    endloop
  endfacet
  facet normal -1 0 0
    outer loop
      vertex -34.125 -14.0672 51.7354
      vertex -34.125 -4.6875 37.6682
      vertex -34.125 -14.0672 32.9807
    endloop
  endfacet
  facet normal -1 0 0
    outer loop
      vertex -34.125 -4.6875 37.6682
      vertex -34.125 -14.0672 51.7354
      vertex -34.125 -9.37968 51.7354
    endloop
  endfacet
  facet normal -1 0 0
    outer loop
      vertex -34.125 18.7547 37.6682
      vertex -34.125 14.0672 51.7354
      vertex -34.125 18.7547 51.7354
    endloop
  endfacet
  facet normal -1 0 0
    outer loop
      vertex -34.125 9.37968 37.6682
      vertex -34.125 14.0672 51.7354
      vertex -34.125 18.7547 37.6682
    endloop
  endfacet
  facet normal -1 0 0
    outer loop
      vertex -34.125 9.37968 51.7354
      vertex -34.125 14.0672 51.7354
      vertex -34.125 9.37968 37.6682
    endloop
  endfacet
  facet normal -1 0 0
    outer loop
      vertex -34.125 14.0672 51.7354
      vertex -34.125 9.37968 51.7354
      vertex -34.125 14.0672 56.4229
    endloop
  endfacet
  facet normal -1 0 0
    outer loop
      vertex -34.125 -4.6875 51.7354
      vertex -34.125 14.0672 56.4229
      vertex -34.125 9.37968 51.7354
    endloop
  endfacet
  facet normal -1 0 0
    outer loop
      vertex -34.125 -9.37968 56.4229
      vertex -34.125 -4.6875 51.7354
      vertex -34.125 -9.37968 51.7354
    endloop
  endfacet
  facet normal -1 0 0
    outer loop
      vertex -34.125 -4.6875 51.7354
      vertex -34.125 -9.37968 56.4229
      vertex -34.125 14.0672 56.4229
    endloop
  endfacet
  facet normal -1 0 0
    outer loop
      vertex -34.125 23.4422 56.4229
      vertex -34.125 28.1344 61.1151
      vertex -34.125 28.1344 56.4229
    endloop
  endfacet
  facet normal -1 -0 0
    outer loop
      vertex -34.125 28.1344 61.1151
      vertex -34.125 23.4422 56.4229
      vertex -34.125 23.4422 61.1151
    endloop
  endfacet
  facet normal -1 0 0
    outer loop
      vertex -34.125 -28.1344 56.4229
      vertex -34.125 -23.4422 61.1151
      vertex -34.125 -23.4422 56.4229
    endloop
  endfacet
  facet normal -1 -0 0
    outer loop
      vertex -34.125 -23.4422 61.1151
      vertex -34.125 -28.1344 56.4229
      vertex -34.125 -28.1344 61.1151
    endloop
  endfacet
  facet normal 0 1 0
    outer loop
      vertex 34.125 34.125 65.8163
      vertex 32.8219 34.125 65.8026
      vertex -34.125 34.125 65.8163
    endloop
  endfacet
  facet normal 0 1 -0
    outer loop
      vertex 34.125 34.125 19.875
      vertex 32.8219 34.125 65.8026
      vertex 34.125 34.125 65.8163
    endloop
  endfacet
  facet normal 0 1 0
    outer loop
      vertex 32.8219 34.125 65.8026
      vertex 34.125 34.125 19.875
      vertex 32.8219 34.125 19.875
    endloop
  endfacet
  facet normal 0 1 -0
    outer loop
      vertex -32.8219 34.125 65.8026
      vertex -34.125 34.125 65.8163
      vertex 32.8219 34.125 65.8026
    endloop
  endfacet
  facet normal 0 1 0
    outer loop
      vertex -34.125 34.125 19.875
      vertex -32.8219 34.125 65.8026
      vertex -32.8219 34.125 19.875
    endloop
  endfacet
  facet normal 0 1 0
    outer loop
      vertex -32.8219 34.125 65.8026
      vertex -34.125 34.125 19.875
      vertex -34.125 34.125 65.8163
    endloop
  endfacet
  facet normal 0 1 -0
    outer loop
      vertex -23.4422 34.125 56.4229
      vertex -28.1344 34.125 61.1151
      vertex -23.4422 34.125 61.1151
    endloop
  endfacet
  facet normal 0 1 0
    outer loop
      vertex -28.1344 34.125 61.1151
      vertex -23.4422 34.125 56.4229
      vertex -28.1344 34.125 56.4229
    endloop
  endfacet
  facet normal 0 1 0
    outer loop
      vertex 0 34.125 37.6682
      vertex 0 34.125 32.9807
      vertex -4.6875 34.125 37.6682
    endloop
  endfacet
  facet normal 0 1 0
    outer loop
      vertex 9.37968 34.125 51.7354
      vertex 14.0672 34.125 56.4229
      vertex 14.0672 34.125 51.7354
    endloop
  endfacet
  facet normal 0 1 0
    outer loop
      vertex 14.0672 34.125 56.4229
      vertex 9.37968 34.125 51.7354
      vertex -9.37968 34.125 56.4229
    endloop
  endfacet
  facet normal 0 1 -0
    outer loop
      vertex -4.6875 34.125 51.7354
      vertex -9.37968 34.125 56.4229
      vertex 9.37968 34.125 51.7354
    endloop
  endfacet
  facet normal 0 1 0
    outer loop
      vertex -4.6875 34.125 51.7354
      vertex -9.37968 34.125 51.7354
      vertex -9.37968 34.125 56.4229
    endloop
  endfacet
  facet normal 0 1 -0
    outer loop
      vertex -4.6875 34.125 37.6682
      vertex -9.37968 34.125 51.7354
      vertex -4.6875 34.125 51.7354
    endloop
  endfacet
  facet normal 0 1 0
    outer loop
      vertex -9.37968 34.125 51.7354
      vertex -4.6875 34.125 37.6682
      vertex -14.0672 34.125 51.7354
    endloop
  endfacet
  facet normal 0 1 0
    outer loop
      vertex -4.6875 34.125 32.9807
      vertex -4.6875 34.125 37.6682
      vertex 0 34.125 32.9807
    endloop
  endfacet
  facet normal 0 1 0
    outer loop
      vertex -14.0672 34.125 32.9807
      vertex -4.6875 34.125 37.6682
      vertex -4.6875 34.125 32.9807
    endloop
  endfacet
  facet normal 0 1 0
    outer loop
      vertex -4.6875 34.125 37.6682
      vertex -14.0672 34.125 32.9807
      vertex -14.0672 34.125 51.7354
    endloop
  endfacet
  facet normal 0 1 -0
    outer loop
      vertex 18.7547 34.125 37.6682
      vertex 14.0672 34.125 51.7354
      vertex 18.7547 34.125 51.7354
    endloop
  endfacet
  facet normal 0 1 0
    outer loop
      vertex 9.37968 34.125 37.6682
      vertex 14.0672 34.125 51.7354
      vertex 18.7547 34.125 37.6682
    endloop
  endfacet
  facet normal 0 1 0
    outer loop
      vertex 14.0672 34.125 51.7354
      vertex 9.37968 34.125 37.6682
      vertex 9.37968 34.125 51.7354
    endloop
  endfacet
  facet normal 0 1 -0
    outer loop
      vertex 4.6875 34.125 23.6011
      vertex 0 34.125 32.9807
      vertex 4.6875 34.125 32.9807
    endloop
  endfacet
  facet normal 0 1 0
    outer loop
      vertex -4.6875 34.125 23.6011
      vertex 0 34.125 32.9807
      vertex 4.6875 34.125 23.6011
    endloop
  endfacet
  facet normal 0 1 0
    outer loop
      vertex 0 34.125 32.9807
      vertex -4.6875 34.125 23.6011
      vertex -4.6875 34.125 32.9807
    endloop
  endfacet
  facet normal 0 1 -0
    outer loop
      vertex 28.1344 34.125 56.4229
      vertex 23.4422 34.125 61.1151
      vertex 28.1344 34.125 61.1151
    endloop
  endfacet
  facet normal 0 1 0
    outer loop
      vertex 23.4422 34.125 61.1151
      vertex 28.1344 34.125 56.4229
      vertex 23.4422 34.125 56.4229
    endloop
  endfacet
  facet normal 0 -1 0
    outer loop
      vertex -34.125 -34.125 65.8163
      vertex -32.8219 -34.125 65.8026
      vertex 34.125 -34.125 65.8163
    endloop
  endfacet
  facet normal 0 -1 0
    outer loop
      vertex -34.125 -34.125 19.875
      vertex -32.8219 -34.125 65.8026
      vertex -34.125 -34.125 65.8163
    endloop
  endfacet
  facet normal 0 -1 -0
    outer loop
      vertex -32.8219 -34.125 65.8026
      vertex -34.125 -34.125 19.875
      vertex -32.8219 -34.125 19.875
    endloop
  endfacet
  facet normal 0 -1 0
    outer loop
      vertex 32.8219 -34.125 65.8026
      vertex 34.125 -34.125 65.8163
      vertex -32.8219 -34.125 65.8026
    endloop
  endfacet
  facet normal 0 -1 0
    outer loop
      vertex 34.125 -34.125 19.875
      vertex 32.8219 -34.125 65.8026
      vertex 32.8219 -34.125 19.875
    endloop
  endfacet
  facet normal 0 -1 0
    outer loop
      vertex 32.8219 -34.125 65.8026
      vertex 34.125 -34.125 19.875
      vertex 34.125 -34.125 65.8163
    endloop
  endfacet
  facet normal 0 -1 0
    outer loop
      vertex -28.1344 -34.125 56.4229
      vertex -23.4422 -34.125 61.1151
      vertex -28.1344 -34.125 61.1151
    endloop
  endfacet
  facet normal 0 -1 -0
    outer loop
      vertex -23.4422 -34.125 61.1151
      vertex -28.1344 -34.125 56.4229
      vertex -23.4422 -34.125 56.4229
    endloop
  endfacet
  facet normal 0 -1 0
    outer loop
      vertex 0 -34.125 37.6682
      vertex 0 -34.125 32.9807
      vertex 4.6875 -34.125 37.6682
    endloop
  endfacet
  facet normal 0 -1 0
    outer loop
      vertex -9.37968 -34.125 51.7354
      vertex -14.0672 -34.125 56.4229
      vertex -14.0672 -34.125 51.7354
    endloop
  endfacet
  facet normal 0 -1 0
    outer loop
      vertex -14.0672 -34.125 56.4229
      vertex -9.37968 -34.125 51.7354
      vertex 9.37968 -34.125 56.4229
    endloop
  endfacet
  facet normal 0 -1 0
    outer loop
      vertex 4.6875 -34.125 51.7354
      vertex 9.37968 -34.125 56.4229
      vertex -9.37968 -34.125 51.7354
    endloop
  endfacet
  facet normal 0 -1 0
    outer loop
      vertex 4.6875 -34.125 51.7354
      vertex 9.37968 -34.125 51.7354
      vertex 9.37968 -34.125 56.4229
    endloop
  endfacet
  facet normal 0 -1 0
    outer loop
      vertex 4.6875 -34.125 37.6682
      vertex 9.37968 -34.125 51.7354
      vertex 4.6875 -34.125 51.7354
    endloop
  endfacet
  facet normal 0 -1 -0
    outer loop
      vertex 9.37968 -34.125 51.7354
      vertex 4.6875 -34.125 37.6682
      vertex 14.0672 -34.125 51.7354
    endloop
  endfacet
  facet normal 0 -1 0
    outer loop
      vertex 4.6875 -34.125 32.9807
      vertex 4.6875 -34.125 37.6682
      vertex 0 -34.125 32.9807
    endloop
  endfacet
  facet normal 0 -1 0
    outer loop
      vertex 14.0672 -34.125 32.9807
      vertex 4.6875 -34.125 37.6682
      vertex 4.6875 -34.125 32.9807
    endloop
  endfacet
  facet normal 0 -1 0
    outer loop
      vertex 4.6875 -34.125 37.6682
      vertex 14.0672 -34.125 32.9807
      vertex 14.0672 -34.125 51.7354
    endloop
  endfacet
  facet normal 0 -1 0
    outer loop
      vertex -18.7547 -34.125 37.6682
      vertex -14.0672 -34.125 51.7354
      vertex -18.7547 -34.125 51.7354
    endloop
  endfacet
  facet normal 0 -1 0
    outer loop
      vertex -9.37968 -34.125 37.6682
      vertex -14.0672 -34.125 51.7354
      vertex -18.7547 -34.125 37.6682
    endloop
  endfacet
  facet normal 0 -1 0
    outer loop
      vertex -14.0672 -34.125 51.7354
      vertex -9.37968 -34.125 37.6682
      vertex -9.37968 -34.125 51.7354
    endloop
  endfacet
  facet normal 0 -1 0
    outer loop
      vertex -4.6875 -34.125 23.6011
      vertex 0 -34.125 32.9807
      vertex -4.6875 -34.125 32.9807
    endloop
  endfacet
  facet normal 0 -1 0
    outer loop
      vertex 4.6875 -34.125 23.6011
      vertex 0 -34.125 32.9807
      vertex -4.6875 -34.125 23.6011
    endloop
  endfacet
  facet normal 0 -1 0
    outer loop
      vertex 0 -34.125 32.9807
      vertex 4.6875 -34.125 23.6011
      vertex 4.6875 -34.125 32.9807
    endloop
  endfacet
  facet normal 0 -1 0
    outer loop
      vertex 23.4422 -34.125 56.4229
      vertex 28.1344 -34.125 61.1151
      vertex 23.4422 -34.125 61.1151
    endloop
  endfacet
  facet normal 0 -1 -0
    outer loop
      vertex 28.1344 -34.125 61.1151
      vertex 23.4422 -34.125 56.4229
      vertex 28.1344 -34.125 56.4229
    endloop
  endfacet
  facet normal 1 -0 0
    outer loop
      vertex 32.875 -32.875 19.875
      vertex 32.875 32.875 10
      vertex 32.875 32.875 19.875
    endloop
  endfacet
  facet normal 1 0 0
    outer loop
      vertex 32.875 32.875 10
      vertex 32.875 -32.875 19.875
      vertex 32.875 -32.875 10
    endloop
  endfacet
  facet normal -1 0 0
    outer loop
      vertex -32.875 -32.875 10
      vertex -32.875 32.875 19.875
      vertex -32.875 32.875 10
    endloop
  endfacet
  facet normal -1 -0 0
    outer loop
      vertex -32.875 32.875 19.875
      vertex -32.875 -32.875 10
      vertex -32.875 -32.875 19.875
    endloop
  endfacet
  facet normal 0 1 -0
    outer loop
      vertex 32.875 32.875 10
      vertex -32.875 32.875 19.875
      vertex 32.875 32.875 19.875
    endloop
  endfacet
  facet normal 0 1 0
    outer loop
      vertex -32.875 32.875 19.875
      vertex 32.875 32.875 10
      vertex -32.875 32.875 10
    endloop
  endfacet
  facet normal 0 -1 0
    outer loop
      vertex -32.875 -32.875 10
      vertex 32.875 -32.875 19.875
      vertex -32.875 -32.875 19.875
    endloop
  endfacet
  facet normal 0 -1 -0
    outer loop
      vertex 32.875 -32.875 19.875
      vertex -32.875 -32.875 10
      vertex 32.875 -32.875 10
    endloop
  endfacet
  facet normal 0 0 -1
    outer loop
      vertex 32.8219 -35.1562 19.875
      vertex -32.8219 -35.1562 19.875
      vertex 32.8219 -34.125 19.875
    endloop
  endfacet
  facet normal 0 0 -1
    outer loop
      vertex 32.875 -32.875 19.875
      vertex 34.125 -32.8219 19.875
      vertex 34.125 -34.125 19.875
    endloop
  endfacet
  facet normal -0 0 -1
    outer loop
      vertex 34.125 -32.8219 19.875
      vertex 32.875 -32.875 19.875
      vertex 34.125 32.8219 19.875
    endloop
  endfacet
  facet normal 0 0 -1
    outer loop
      vertex 32.875 32.875 19.875
      vertex 34.125 32.8219 19.875
      vertex 32.875 -32.875 19.875
    endloop
  endfacet
  facet normal 0 0 -1
    outer loop
      vertex 32.8219 -34.125 19.875
      vertex 32.875 -32.875 19.875
      vertex 34.125 -34.125 19.875
    endloop
  endfacet
  facet normal 0 0 -1
    outer loop
      vertex -32.8219 -34.125 19.875
      vertex 32.8219 -34.125 19.875
      vertex -32.8219 -35.1562 19.875
    endloop
  endfacet
  facet normal 0 0 -1
    outer loop
      vertex 32.8219 -34.125 19.875
      vertex -32.8219 -34.125 19.875
      vertex 32.875 -32.875 19.875
    endloop
  endfacet
  facet normal 0 0 -1
    outer loop
      vertex -32.8219 -34.125 19.875
      vertex -32.875 -32.875 19.875
      vertex 32.875 -32.875 19.875
    endloop
  endfacet
  facet normal 0 0 -1
    outer loop
      vertex -34.125 -32.8219 19.875
      vertex -32.875 -32.875 19.875
      vertex -34.125 -34.125 19.875
    endloop
  endfacet
  facet normal 0 0 -1
    outer loop
      vertex -34.125 -34.125 19.875
      vertex -32.875 -32.875 19.875
      vertex -32.8219 -34.125 19.875
    endloop
  endfacet
  facet normal 0 0 -1
    outer loop
      vertex 34.125 -32.8219 19.875
      vertex 35.1562 32.8219 19.875
      vertex 35.1562 -32.8219 19.875
    endloop
  endfacet
  facet normal -0 0 -1
    outer loop
      vertex 35.1562 32.8219 19.875
      vertex 34.125 -32.8219 19.875
      vertex 34.125 32.8219 19.875
    endloop
  endfacet
  facet normal 0 0 -1
    outer loop
      vertex 34.125 32.8219 19.875
      vertex 32.875 32.875 19.875
      vertex 34.125 34.125 19.875
    endloop
  endfacet
  facet normal 0 0 -1
    outer loop
      vertex 32.875 32.875 19.875
      vertex 32.8219 34.125 19.875
      vertex 34.125 34.125 19.875
    endloop
  endfacet
  facet normal 0 0 -1
    outer loop
      vertex 32.8219 34.125 19.875
      vertex -32.8219 34.125 19.875
      vertex 32.8219 35.1562 19.875
    endloop
  endfacet
  facet normal 0 0 -1
    outer loop
      vertex 32.875 32.875 19.875
      vertex -32.8219 34.125 19.875
      vertex 32.8219 34.125 19.875
    endloop
  endfacet
  facet normal 0 0 -1
    outer loop
      vertex -32.875 32.875 19.875
      vertex -32.8219 34.125 19.875
      vertex 32.875 32.875 19.875
    endloop
  endfacet
  facet normal 0 0 -1
    outer loop
      vertex -32.875 -32.875 19.875
      vertex -34.125 -32.8219 19.875
      vertex -32.875 32.875 19.875
    endloop
  endfacet
  facet normal 0 0 -1
    outer loop
      vertex -34.125 32.8219 19.875
      vertex -32.875 32.875 19.875
      vertex -34.125 -32.8219 19.875
    endloop
  endfacet
  facet normal 0 0 -1
    outer loop
      vertex -34.125 34.125 19.875
      vertex -32.875 32.875 19.875
      vertex -34.125 32.8219 19.875
    endloop
  endfacet
  facet normal 0 0 -1
    outer loop
      vertex -32.875 32.875 19.875
      vertex -34.125 34.125 19.875
      vertex -32.8219 34.125 19.875
    endloop
  endfacet
  facet normal 0 0 -1
    outer loop
      vertex -35.1562 -32.8219 19.875
      vertex -34.125 32.8219 19.875
      vertex -34.125 -32.8219 19.875
    endloop
  endfacet
  facet normal -0 0 -1
    outer loop
      vertex -34.125 32.8219 19.875
      vertex -35.1562 -32.8219 19.875
      vertex -35.1562 32.8219 19.875
    endloop
  endfacet
  facet normal -0 0 -1
    outer loop
      vertex 32.8219 35.1562 19.875
      vertex -32.8219 34.125 19.875
      vertex -32.8219 35.1562 19.875
    endloop
  endfacet
  facet normal -1 0 0
    outer loop
      vertex 31 -31 10
      vertex 31 31 20.25
      vertex 31 31 10
    endloop
  endfacet
  facet normal -1 -0 0
    outer loop
      vertex 31 31 20.25
      vertex 31 -31 10
      vertex 31 -31 20.25
    endloop
  endfacet
  facet normal 1 -0 0
    outer loop
      vertex -31 -31 20.25
      vertex -31 31 10
      vertex -31 31 20.25
    endloop
  endfacet
  facet normal 1 0 0
    outer loop
      vertex -31 31 10
      vertex -31 -31 20.25
      vertex -31 -31 10
    endloop
  endfacet
  facet normal 0 -1 0
    outer loop
      vertex -31 31 10
      vertex 31 31 20.25
      vertex -31 31 20.25
    endloop
  endfacet
  facet normal 0 -1 -0
    outer loop
      vertex 31 31 20.25
      vertex -31 31 10
      vertex 31 31 10
    endloop
  endfacet
  facet normal 0 1 -0
    outer loop
      vertex 31 -31 10
      vertex -31 -31 20.25
      vertex 31 -31 20.25
    endloop
  endfacet
  facet normal 0 1 0
    outer loop
      vertex -31 -31 20.25
      vertex 31 -31 10
      vertex -31 -31 10
    endloop
  endfacet
  facet normal -1 0 0
    outer loop
      vertex 32.75 -32.75 20.25
      vertex 32.75 32.75 65.8163
      vertex 32.75 32.75 20.25
    endloop
  endfacet
  facet normal -1 -0 0
    outer loop
      vertex 32.75 32.75 65.8163
      vertex 32.75 -32.75 20.25
      vertex 32.75 -32.75 65.8163
    endloop
  endfacet
  facet normal 0 0 1
    outer loop
      vertex 32.75 32.75 20.25
      vertex 31 31 20.25
      vertex 32.75 -32.75 20.25
    endloop
  endfacet
  facet normal 0 0 1
    outer loop
      vertex 32.75 32.75 20.25
      vertex -31 31 20.25
      vertex 31 31 20.25
    endloop
  endfacet
  facet normal 0 0 1
    outer loop
      vertex -31 31 20.25
      vertex -32.75 32.75 20.25
      vertex -31 -31 20.25
    endloop
  endfacet
  facet normal -0 0 1
    outer loop
      vertex -32.75 32.75 20.25
      vertex -31 31 20.25
      vertex 32.75 32.75 20.25
    endloop
  endfacet
  facet normal -0 0 1
    outer loop
      vertex 31 -31 20.25
      vertex 32.75 -32.75 20.25
      vertex 31 31 20.25
    endloop
  endfacet
  facet normal -0 0 1
    outer loop
      vertex -31 -31 20.25
      vertex 32.75 -32.75 20.25
      vertex 31 -31 20.25
    endloop
  endfacet
  facet normal 0 0 1
    outer loop
      vertex -31 -31 20.25
      vertex -32.75 -32.75 20.25
      vertex 32.75 -32.75 20.25
    endloop
  endfacet
  facet normal 0 0 1
    outer loop
      vertex -32.75 -32.75 20.25
      vertex -31 -31 20.25
      vertex -32.75 32.75 20.25
    endloop
  endfacet
  facet normal 1 -0 0
    outer loop
      vertex -32.75 -32.75 65.8163
      vertex -32.75 32.75 20.25
      vertex -32.75 32.75 65.8163
    endloop
  endfacet
  facet normal 1 0 0
    outer loop
      vertex -32.75 32.75 20.25
      vertex -32.75 -32.75 65.8163
      vertex -32.75 -32.75 20.25
    endloop
  endfacet
  facet normal 0 -1 0
    outer loop
      vertex -32.75 32.75 20.25
      vertex 32.75 32.75 65.8163
      vertex -32.75 32.75 65.8163
    endloop
  endfacet
  facet normal 0 -1 -0
    outer loop
      vertex 32.75 32.75 65.8163
      vertex -32.75 32.75 20.25
      vertex 32.75 32.75 20.25
    endloop
  endfacet
  facet normal 0 1 -0
    outer loop
      vertex 32.75 -32.75 20.25
      vertex -32.75 -32.75 65.8163
      vertex 32.75 -32.75 65.8163
    endloop
  endfacet
  facet normal 0 1 0
    outer loop
      vertex -32.75 -32.75 65.8163
      vertex 32.75 -32.75 20.25
      vertex -32.75 -32.75 20.25
    endloop
  endfacet
  facet normal 0 0 -1
    outer loop
      vertex 32.875 -32.875 10
      vertex 31 -31 10
      vertex 32.875 32.875 10
    endloop
  endfacet
  facet normal 0 0 -1
    outer loop
      vertex 32.875 -32.875 10
      vertex -31 -31 10
      vertex 31 -31 10
    endloop
  endfacet
  facet normal -0 0 -1
    outer loop
      vertex -31 -31 10
      vertex -32.875 -32.875 10
      vertex -31 31 10
    endloop
  endfacet
  facet normal 0 0 -1
    outer loop
      vertex -32.875 -32.875 10
      vertex -31 -31 10
      vertex 32.875 -32.875 10
    endloop
  endfacet
  facet normal 0 0 -1
    outer loop
      vertex 31 31 10
      vertex 32.875 32.875 10
      vertex 31 -31 10
    endloop
  endfacet
  facet normal 0 0 -1
    outer loop
      vertex -31 31 10
      vertex 32.875 32.875 10
      vertex 31 31 10
    endloop
  endfacet
  facet normal 0 0 -1
    outer loop
      vertex -31 31 10
      vertex -32.875 32.875 10
      vertex 32.875 32.875 10
    endloop
  endfacet
  facet normal 0 0 -1
    outer loop
      vertex -32.875 32.875 10
      vertex -31 31 10
      vertex -32.875 -32.875 10
    endloop
  endfacet
endsolid OpenSCAD_Model
